<?xml version="1.0" encoding="UTF-8" standalone="no"?>
<!DOCTYPE svg PUBLIC "-//W3C//DTD SVG 1.1//EN" "http://www.w3.org/Graphics/SVG/1.1/DTD/svg11.dtd">
<svg xmlns="http://www.w3.org/2000/svg" xmlns:xl="http://www.w3.org/1999/xlink" version="1.1" viewBox="503.989 324.7299 226.956 202.03675" width="226.956pt" height="202.03675pt" xmlns:dc="http://purl.org/dc/elements/1.1/">
  <metadata> Produced by OmniGraffle 7.5 
    <dc:date>2017-09-24 09:39:49 +0000</dc:date>
  </metadata>
  <defs>
    <radialGradient cx="0" cy="0" r="1" id="Gradient" gradientUnits="userSpaceOnUse">
      <stop offset="0" stop-color="#6fb4f5"/>
      <stop offset="1" stop-color="#fffeff" stop-opacity=".1436086"/>
    </radialGradient>
    <radialGradient id="Obj_Gradient" xl:href="#Gradient" gradientTransform="translate(617.467 425.7483) scale(151.2216)"/>
  </defs>
  <g stroke="none" stroke-opacity="1" stroke-dasharray="none" fill="none" fill-opacity="1">
    <title>Canvas 1</title>
    <g>
      <title>Layer 1</title>
      <path d="M 690.271 390.38943 C 687.866 389.56446 685.4405 388.8002 682.997 388.09743 C 683.4022 386.45084 683.77696 384.7969 684.121 383.13643 C 689.627 356.40843 686.027 334.87643 673.733 327.78843 C 661.946 320.99043 642.668 328.07843 623.198 345.02143 C 621.2795 346.69478 619.40355 348.41633 617.572 350.18443 C 616.34546 349.00875 615.09725 347.8559 613.828 346.72643 C 593.423 328.60843 572.97 320.97443 560.689 328.08343 C 548.913 334.90043 545.425 355.14343 550.382 380.47343 C 550.8752 382.98184 551.43203 385.4773 552.052 387.95743 C 549.158 388.77943 546.363 389.65543 543.689 390.58743 C 519.767 398.92743 504.489 411.99943 504.489 425.55743 C 504.489 439.56143 520.889 453.60743 545.807 462.12343 C 547.8275 462.81076 549.8648 463.4476 551.917 464.03343 C 551.2503 466.7054 550.6584 469.3954 550.142 472.10043 C 545.416 496.99043 549.107 516.75343 560.852 523.52843 C 572.983 530.52343 593.343 523.33343 613.169 506.00343 C 614.736 504.63343 616.309 503.18043 617.884 501.65743 C 619.8678 503.5715 621.9046 505.4299 623.992 507.23043 C 643.196 523.75543 662.162 530.42843 673.897 523.63543 C 686.017 516.61943 689.955 495.38843 684.841 469.55743 C 684.451 467.58443 683.996 465.56943 683.486 463.51743 C 684.916 463.09543 686.319 462.65943 687.688 462.20543 C 713.592 453.62343 730.445 439.74843 730.445 425.55743 C 730.445 411.95043 714.675 398.79043 690.271 390.38943 Z" fill="url(#Obj_Gradient)"/>
      <path d="M 690.271 390.38943 C 687.866 389.56446 685.4405 388.8002 682.997 388.09743 C 683.4022 386.45084 683.77696 384.7969 684.121 383.13643 C 689.627 356.40843 686.027 334.87643 673.733 327.78843 C 661.946 320.99043 642.668 328.07843 623.198 345.02143 C 621.2795 346.69478 619.40355 348.41633 617.572 350.18443 C 616.34546 349.00875 615.09725 347.8559 613.828 346.72643 C 593.423 328.60843 572.97 320.97443 560.689 328.08343 C 548.913 334.90043 545.425 355.14343 550.382 380.47343 C 550.8752 382.98184 551.43203 385.4773 552.052 387.95743 C 549.158 388.77943 546.363 389.65543 543.689 390.58743 C 519.767 398.92743 504.489 411.99943 504.489 425.55743 C 504.489 439.56143 520.889 453.60743 545.807 462.12343 C 547.8275 462.81076 549.8648 463.4476 551.917 464.03343 C 551.2503 466.7054 550.6584 469.3954 550.142 472.10043 C 545.416 496.99043 549.107 516.75343 560.852 523.52843 C 572.983 530.52343 593.343 523.33343 613.169 506.00343 C 614.736 504.63343 616.309 503.18043 617.884 501.65743 C 619.8678 503.5715 621.9046 505.4299 623.992 507.23043 C 643.196 523.75543 662.162 530.42843 673.897 523.63543 C 686.017 516.61943 689.955 495.38843 684.841 469.55743 C 684.451 467.58443 683.996 465.56943 683.486 463.51743 C 684.916 463.09543 686.319 462.65943 687.688 462.20543 C 713.592 453.62343 730.445 439.74843 730.445 425.55743 C 730.445 411.95043 714.675 398.79043 690.271 390.38943 Z" stroke="#5293e1" stroke-linecap="round" stroke-linejoin="round" stroke-width="1"/>
      <path d="M 684.652 453.04343 C 683.417 453.45243 682.149 453.84743 680.857 454.23043 C 677.997 445.17743 674.137 435.55043 669.415 425.60543 C 673.922 415.89543 677.632 406.39243 680.412 397.39743 C 682.723 398.06743 684.967 398.77243 687.129 399.51743 C 708.039 406.71443 720.793 417.35743 720.793 425.55743 C 720.793 434.29243 707.018 445.63243 684.653 453.04343 Z M 675.372 471.43243 C 677.633 482.85443 677.956 493.18143 676.458 501.25443 C 675.112 508.50843 672.406 513.34443 669.06 515.28143 C 661.939 519.40343 646.71 514.04543 630.288 499.91343 C 628.405 498.29343 626.508 496.56343 624.606 494.73343 C 630.973 487.76943 637.336 479.67343 643.546 470.68343 C 654.47 469.71443 664.79 468.12943 674.149 465.96643 C 674.609 467.82643 675.019 469.64943 675.372 471.43243 Z M 581.522 514.56943 C 574.565 517.02643 569.024 517.09643 565.675 515.16543 C 558.547 511.05543 555.585 495.18543 559.626 473.90043 C 560.10654 471.385 560.65675 468.88336 561.276 466.39843 C 570.531 468.44543 580.776 469.91843 591.726 470.80643 C 597.977 479.60343 604.524 487.68943 611.122 494.77043 C 609.71975 496.1269 608.2843 497.44863 606.817 498.73443 C 598.05 506.39843 589.265 511.83443 581.523 514.56943 Z M 548.929 452.98943 C 537.911 449.22343 528.812 444.32943 522.575 438.98943 C 516.971 434.18943 514.141 429.42443 514.141 425.55743 C 514.141 417.33043 526.408 406.83543 546.867 399.70243 C 549.4349 398.81105 552.02834 397.99503 554.644 397.25543 C 557.472 406.45243 561.181 416.06843 565.657 425.79243 C 561.123 435.66143 557.361 445.43043 554.507 454.73543 C 552.63364 454.1992 550.77375 453.61705 548.929 452.98943 Z M 559.855 378.61943 C 555.608 356.91643 558.428 340.54543 565.525 336.43743 C 573.085 332.06143 589.8 338.30143 607.418 353.94443 C 608.544 354.94443 609.675 355.99143 610.808 357.07443 C 604.244 364.12343 597.757 372.14843 591.56 380.89443 C 580.933 381.87943 570.76 383.46143 561.408 385.58043 C 560.8319 383.2732 560.3141 380.9518 559.855 378.61843 Z M 657.322 402.68643 C 655.1131 398.87086 652.8222 395.1033 650.451 391.38643 C 657.661 392.29643 664.568 393.50643 671.054 394.98743 C 669.107 401.22843 666.68 407.75443 663.822 414.44443 C 661.7338 410.4822 659.5667 406.5621 657.322 402.68643 Z M 617.575 363.97243 C 622.027 368.79543 626.486 374.18143 630.872 380.02443 C 621.975 379.604 613.0632 379.602 604.166 380.01843 C 608.556 374.22943 613.053 368.85143 617.575 363.97243 Z M 577.573 402.75243 C 575.3564 406.5973 573.2298 410.49335 571.195 414.43743 C 568.384 407.77043 565.979 401.21543 564.015 394.88543 C 570.462 393.44243 577.337 392.26343 584.5 391.36843 C 582.1022 395.10836 579.7926 398.90407 577.573 402.75243 Z M 584.706 460.43543 C 577.306 459.60943 570.327 458.49043 563.882 457.08743 C 565.877 450.64543 568.335 443.94943 571.206 437.13943 C 573.2494 441.08644 575.3853 444.98485 577.612 448.83143 C 579.8841 452.75526 582.24945 456.62436 584.706 460.43543 Z M 617.842 487.82443 C 613.267 482.88743 608.704 477.42743 604.247 471.55443 C 608.573 471.72443 612.984 471.81043 617.467 471.81043 C 622.073 471.81043 626.626 471.70743 631.107 471.50743 C 626.707 477.48743 622.264 482.95543 617.842 487.82443 Z M 663.914 436.79243 C 666.934 443.67643 669.48 450.33643 671.502 456.66943 C 664.95 458.16443 657.877 459.36843 650.424 460.26243 C 652.81235 456.47615 655.12514 452.6427 657.361 448.76443 C 659.6339 444.8229 661.81876 440.8312 663.914 436.79243 Z M 648.999 443.94243 C 645.5762 449.8884 641.96096 455.72147 638.159 461.43243 C 631.455 461.91143 624.527 462.15843 617.467 462.15843 C 610.436 462.15843 603.596 461.93943 597.009 461.51243 C 593.10844 455.81477 589.4248 449.9716 585.966 443.99543 C 582.52336 438.051 579.3077 431.97794 576.326 425.78943 C 579.3001 419.59907 582.50606 413.5228 585.937 407.57343 L 585.937 407.57543 C 589.36686 401.6248 593.0215 395.80663 596.893 390.13343 C 603.613 389.62543 610.503 389.35943 617.468 389.35943 C 624.464 389.35943 631.363 389.62743 638.081 390.13943 C 641.91335 395.8039 645.5446 401.60184 648.968 407.52243 C 652.4107 413.45854 655.65945 419.50507 658.709 425.65243 C 655.6908 431.86243 652.4524 437.96296 649 443.94243 Z M 668.912 336.15043 C 676.478 340.51443 679.421 358.11143 674.667 381.18843 C 674.3554 382.69176 674.0167 384.18934 673.651 385.68043 C 664.277 383.51743 654.097 381.90743 643.439 380.90743 C 637.23 372.06643 630.797 364.02743 624.339 357.06943 C 626.0313 355.438 627.7638 353.84882 629.535 352.30343 C 646.217 337.78543 661.808 332.05343 668.912 336.15043 Z" fill="white"/>
      <path d="M 617.467 405.38043 C 628.611 405.38043 637.644 414.41443 637.644 425.55743 C 637.644 436.70143 628.611 445.73543 617.467 445.73543 C 606.324 445.73543 597.29 436.70143 597.29 425.55743 C 597.29 414.41443 606.324 405.38043 617.467 405.38043" fill="#70b4f5"/>
    </g>
  </g>
</svg>
