<?xml version="1.0" encoding="UTF-8" standalone="no"?><!DOCTYPE svg PUBLIC "-//W3C//DTD SVG 1.1//EN" "http://www.w3.org/Graphics/SVG/1.1/DTD/svg11.dtd"><svg width="100%" height="100%" viewBox="0 0 426 284" version="1.1" xmlns="http://www.w3.org/2000/svg" xmlns:xlink="http://www.w3.org/1999/xlink" xml:space="preserve" xmlns:serif="http://www.serif.com/" style="fill-rule:evenodd;clip-rule:evenodd;stroke-linejoin:round;stroke-miterlimit:2;"><path d="M403.9,113.6l0,-1.9l-13.1,0l0,1.9l-9.4,0l0,1.9l-5.6,0l0,1.9l-7.5,0l0,1.9l-7.5,0l0,1.9l-1.9,0l0,11.4l1.9,0l0,1.9l1.9,0l0,22.6l-1.9,0l0,-1.9l-9.4,0l0,1.9l-1.9,0l0,1.9l-3.7,0l0,1.9l-1.9,0l0,1.9l-3.7,0l0,-3.7l1.9,0l0,-5.8l1.9,0l0,-5.6l1.9,0l0,-3.7l1.9,0l0,-1.9l1.9,0l0,1.9l1.9,0l0,3.7l1.9,0l0,1.9l5.6,0l0,-1.9l1.9,0l0,-9.4l-1.9,0l0,-3.7l-1.9,0l0,-1.9l-1.9,0l0,-1.9l-1.9,0l0,-2l-15,0l0,2l-1.9,0l0,1.9l-1.9,0l0,3.7l-1.9,0l0,3.7l-1.9,0l0,3.7l-1.9,0l0,1.9l-1.9,0l0,-3.7l-1.9,0l0,-1.9l-3.7,0l0,-1.9l-15.1,0l0,1.9l-7.5,0l0,1.9l-5.6,0l0,1.9l-7.5,0l0,1.9l-3.7,0l0,1.9l-1.9,0l0,1.9l-3.7,0l0,1.9l-1.9,0l0,1.9l-1.9,0l0,5.8l1.9,0l0,1.9l1.9,0l0,1.9l9.4,0l0,-1.9l1.9,0l0,9.4l-1.9,0l0,13.3l-1.9,0l0,16.8l-1.9,0l0,1.9l-1.9,0l0,5.8l1.9,0l0,1.9l1.9,0l0,1.9l-1.9,0l0,1.9l-7.5,0l0,1.9l-5.6,0l0,1.9l-3.7,0l0,-5.6l1.9,0l0,-20.8l1.9,0l0,-1.9l5.6,0l0,-1.9l3.7,0l0,-1.9l3.7,0l0,-1.9l1.9,0l0,-7.7l-1.9,0l0,-1.9l-1.9,0l0,-1.9l-7.5,0l0,1.9l-5.6,0l0,-3.7l1.9,0l0,-13.1l1.9,0l0,-11.4l11.2,0l0,-1.9l3.7,0l0,-1.9l5.6,0l0,-1.9l5.6,0l0,-1.9l7.5,0l0,-1.9l5.6,0l0,-1.9l5.8,0l0,-1.9l5.6,0l0,-1.9l1.9,0l0,-2l1.9,0l0,-5.6l-1.9,0l0,-1.9l-15.1,0l0,1.9l-7.5,0l0,1.9l-7.5,0l0,1.9l-7.5,0l0,1.9l-7.5,0l0,2l-7.5,0l0,1.9l-7.5,0l0,1.9l-5.6,0l0,1.9l-7.5,0l0,1.9l-5.6,0l0,1.9l-5.6,0l0,-22.6l1.9,0l0,-5.6l1.9,0l0,3.7l1.9,0l0,3.7l1.9,0l0,1.9l1.9,0l0,1.9l1.9,0l0,3.7l1.9,0l0,1.9l7.5,0l0,-3.7l1.9,0l0,-16.8l1.9,0l0,5.6l1.9,0l0,3.7l1.9,0l0,1.9l1.9,0l0,1.9l1.9,0l0,1.9l1.9,0l0,1.9l3.7,0l0,1.9l9.4,0l0,-1.9l3.7,0l0,-1.9l3.7,0l0,-1.9l1.9,0l0,-1.9l1.9,0l0,-5.6l1.9,0l0,-3.7l1.9,0l0,-7.7l1.9,0l0,-13.1l-1.9,0l0,-1.9l-7.5,0l0,1.9l-5.6,0l0,1.9l-3.7,0l0,1.9l-3.7,0l0,1.9l-1.9,0l0,1.9l-1.9,0l0,-7.5l1.9,0l0,-5.6l1.9,0l0,-1.9l1.9,0l0,-3.9l1.9,0l0,-3.7l1.9,0l0,-1.9l3.7,0l0,9.5l1.9,0l0,1.9l7.5,0l0,-3.9l1.9,0l0,-15l-1.9,0l0,-3.7l-1.9,0l0,-1.9l-3.7,0l0,-1.9l-1.9,0l0,-2l-11.2,0l0,2l-1.9,0l0,1.9l-1.9,0l0,1.9l-1.9,0l0,1.9l-1.9,0l0,3.7l-1.9,0l0,1.9l-1.9,0l0,3.7l-1.9,0l0,5.6l-1.9,0l0,3.9l-1.9,0l0,-3.9l1.9,0l0,-32l-1.9,0l0,-11.2l-1.9,0l0,-1.9l-7.5,0l0,7.5l-1.9,0l0,11.2l-1.9,0l0,15.1l-1.9,0l0,22.6l-1.9,0l0,-3.7l-1.9,0l0,-3.7l-1.9,0l0,-3.9l-1.9,0l0,-3.7l-1.9,0l0,-3.7l-1.9,0l0,-1.9l-1.9,0l0,-1.9l-7.5,0l0,18.9l-1.9,0l0,9.4l-1.9,0l0,-1.9l-1.9,0l0,-1.9l-1.9,0l0,-1.9l-5.6,0l0,-3.7l1.9,0l0,-5.8l1.9,0l0,-3.7l1.9,0l0,-7.5l-1.9,0l0,-1.9l-1.9,0l0,-1.9l-9.4,0l0,1.9l-7.5,0l0,1.9l-5.6,0l0,1.9l-7.5,0l0,1.9l-7.5,0l0,1.9l-7.5,0l0,1.9l-5.6,0l0,1.9l-5.6,0l0,1.9l-1.9,0l0,2l-3.7,0l0,1.9l-1.9,0l0,5.6l3.7,0l0,1.9l18.7,0l0,-1.9l9.4,0l0,-1.9l9.4,0l0,-1.9l1.9,0l0,5.6l-1.9,0l0,3.7l-1.9,0l0,5.6l-1.9,0l0,3.7l-1.9,0l0,5.8l-1.9,0l0,3.7l-1.9,0l0,3.7l-1.9,0l0,5.6l-1.9,0l0,3.7l-1.9,0l0,3.9l-1.9,0l0,5.6l-1.9,0l0,3.7l-1.9,0l0,-1.9l-15,0l0,-5.6l3.7,0l0,-1.9l3.7,0l0,-2l5.6,0l0,-1.9l1.9,0l0,-7.5l-1.9,0l0,-1.9l-11.2,0l0,-5.6l3.7,0l0,-1.9l1.9,0l0,-1.9l1.9,0l0,-1.9l5.6,0l0,-2l1.9,0l0,-1.9l1.9,0l0,-7.5l-1.9,0l0,-1.9l-7.5,0l0,1.9l-9.4,0l0,1.9l-7.5,0l0,1.9l-3.7,0l0,1.9l-1.9,0l0,1.9l-1.9,0l0,3.9l-15,0l0,1.9l-5.6,0l0,1.9l-9.4,0l0,1.9l-1.9,0l0,1.9l-3.9,0l0,-1.9l-3.7,0l0,-1.9l-24.3,0l0,1.9l-5.6,0l0,1.9l-3.7,0l0,1.9l-5.6,0l0,1.9l-1.9,0l0,1.9l-1.9,0l0,1.9l-1.9,0l0,5.6l3.7,0l0,1.9l11.2,0l0,3.9l-15,0l0,1.9l-3.7,0l0,-11.4l1.9,0l0,-11.2l1.9,0l0,-1.9l5.6,0l0,-1.9l7.5,0l0,-1.9l5.6,0l0,-2l7.5,0l0,-1.9l7.5,0l0,-1.9l7.5,0l0,-1.9l3.7,0l0,-1.9l1.9,0l0,-1.9l1.9,0l0,-1.9l1.9,0l0,-7.5l-1.9,0l0,-1.9l-16.8,0l0,1.9l-5.6,0l0,1.9l-7.5,0l0,1.9l-11.2,0l0,1.9l-3.7,0l0,1.9l-5.6,0l0,1.9l-5.6,0l0,1.9l-13.1,0l0,1.9l-1.9,0l0,1.9l-7.5,0l0,1.9l-3.7,0l0,1.9l-5.6,0l0,2l-1.9,0l0,1.9l-1.9,0l0,7.5l1.9,0l0,1.9l1.9,0l0,1.9l7.5,0l0,-1.9l7.5,0l0,7.5l1.9,0l0,1.9l-1.9,0l0,24.5l1.9,0l0,20.8l1.9,0l0,30.1l1.9,0l0,7.7l1.9,0l0,1.9l1.9,0l0,1.9l5.6,0l0,-1.9l1.9,0l0,-11.4l1.9,0l0,-49l1.9,0l0,-1.9l5.6,0l0,-1.9l5.6,0l0,-1.9l3.7,0l0,-1.9l3.7,0l0,3.7l-1.9,0l0,1.9l-1.9,0l0,9.5l1.9,0l0,1.9l1.9,0l0,1.9l1.9,0l0,11.2l1.9,0l0,1.9l9.4,0l0,-7.5l1.9,0l0,1.9l3.7,0l0,1.9l7.5,0l0,1.9l3.7,0l0,1.9l5.6,0l0,1.9l3.9,0l0,2l20.6,0l0,-5.8l-1.9,0l0,-1.9l-1.9,0l0,-1.9l-1.9,0l0,-1.9l-3.7,0l0,-1.9l-3.7,0l0,-1.9l3.7,0l0,-1.9l5.6,0l0,-1.9l5.6,0l0,-1.9l3.7,0l0,-1.9l3.7,0l0,-3.9l1.9,0l0,2l13.1,0l0,-2l3.7,0l0,-1.9l5.6,0l0,-1.9l1.9,0l0,3.7l-1.9,0l0,5.8l-1.9,0l0,3.7l-1.9,0l0,3.7l-1.9,0l0,9.4l1.9,0l0,1.9l9.4,0l0,-1.9l5.6,0l0,-1.9l5.6,0l0,-1.9l7.5,0l0,-1.9l5.6,0l0,-1.9l5.6,0l0,-1.9l7.5,0l0,-1.9l5.6,0l0,-1.9l7.5,0l0,-1.9l3.7,0l0,1.9l7.5,0l0,-3.7l1.9,0l0,-1.9l3.7,0l0,-1.9l1.9,0l0,-2l3.7,0l0,-1.9l3.7,0l0,5.8l-1.9,0l0,28.2l-1.9,0l0,7.5l1.9,0l0,41.5l1.9,0l0,1.9l11.2,0l0,-1.9l7.5,0l0,-1.9l3.7,0l0,-1.9l5.6,0l0,-1.9l5.6,0l0,-2l5.6,0l0,-1.9l3.7,0l0,-1.9l5.6,0l0,-1.9l5.6,0l0,-1.9l5.6,0l0,-1.9l3.7,0l0,-1.9l5.8,0l0,-1.9l3.7,0l0,-1.9l1.9,0l0,-5.6l-1.9,0l0,-1.9l-1.9,0l0,-2l-5.6,0l0,2l-9.5,0l0,1.9l-5.6,0l0,1.9l-5.6,0l0,1.9l-1.9,0l0,-1.9l1.9,0l0,-1.9l1.9,0l0,-1.9l1.9,0l0,-2l1.9,0l0,-1.9l1.9,0l0,-1.9l1.9,0l0,-1.9l1.9,0l0,-1.9l1.9,0l0,-1.9l1.9,0l0,-3.7l1.9,0l0,-1.9l1.9,0l0,-3.7l2,0l0,-3.7l1.9,0l0,-2l1.9,0l0,-3.7l1.9,0l0,-3.7l1.9,0l0,-3.7l1.9,0l0,13.3l1.9,0l0,5.6l1.9,0l0,1.9l1.9,0l0,1.9l1.9,0l0,1.9l3.7,0l0,1.9l11.2,0l0,-1.9l3.7,0l0,-1.9l1.9,0l0,-1.9l1.9,0l0,-3.7l1.9,0l0,-3.7l1.9,0l0,-7.7l1.9,0l0,-5.6l1.9,0l0,13.3l1.9,0l0,1.9l11.2,0l0,-1.9l5.6,0l0,-2l3.7,0l0,-1.9l5.6,0l0,-1.9l5.6,0l0,-1.9l3.7,0l0,-1.9l1.9,0l0,-1.9l1.9,0l0,-5.6l-1.9,0l0,-1.9l-15,0l0,1.9l-7.5,0l0,1.9l-3.7,0l0,-7.5l3.7,0l0,-1.9l3.7,0l0,-2l5.6,0l0,-1.9l3.7,0l0,-9.4l-1.9,0l0,-1.9l-7.5,0l0,1.9l-7.5,0l0,-9.4l7.5,0l0,-1.9l3.7,0l0,-2l5.6,0l0,-1.9l3.7,0l0,-1.9l3.7,0l0,-1.9l1.9,0l0,-1.9l1.9,0l0,-1.9l1.9,0l0,-5.6l-1.2,0Zm-129.3,-15.1l1.9,0l0,5.6l9.4,0l0,3.9l-1.9,0l0,1.9l-1.9,0l0,1.9l-5.6,0l0,-3.7l-1.9,0l0,-9.6Zm-181.7,34l-1.9,0l0,1.9l-1.9,0l0,-7.7l1.9,0l0,-1.9l5.6,0l0,1.9l-1.9,0l0,3.9l-1.9,0c0.1,0.6 0.1,1.3 0.1,1.9Zm20.8,28.2l-3.9,0l0,-1.9l-7.5,0l0,-1.9l-3.7,0l0,-1.9l-3.7,0l0,-2l1.9,0l0,-1.9l1.9,0l0,-1.9l1.9,0l0,-1.9l1.9,0l0,-1.9l1.9,0l0,-1.9l1.9,0l0,-1.9l1.9,0l0,-1.9l1.9,0l0,-3.7l2,0l0,-1.9l1.9,0c-0.3,9 -0.3,17.8 -0.3,26.6Zm31.8,-18.9l-1.9,0l0,5.6l-16.8,0l0,-3.7l1.9,0l0,-1.9l1.9,0l0,-1.9l3.7,0l0,-1.9l3.7,0l0,-1.9l1.9,0l0,-7.7l-1.9,0l0,-1.9l-9.4,0l0,-5.6l3.7,0l0,-1.9l3.7,0l0,-1.9l5.6,0l0,-1.9l3.7,0c0.2,9.1 0.2,17.9 0.2,26.6Zm78.6,1.9l-5.6,0l0,1.9l-7.5,0l0,1.9l-7.5,0l0,1.9l-5.6,0l0,1.9l-5.6,0l0,1.9l-1.9,0l0,-5.6l1.9,0l0,-3.7l1.9,0l0,-5.6l1.9,0l0,-5.6l1.9,0l0,-3.9l1.9,0l0,-5.6l1.9,0l0,-3.7l1.9,0l0,-5.6l1.9,0l0,-3.7l1.9,0l0,24.5l1.9,0l0,5.6l1.9,0l0,1.9l7.5,0l0,-1.9l1.9,0l0,-7.5l1.9,0l0,-7.7l1.9,0c-0.4,6 -0.4,12.3 -0.4,18.6Zm1.8,-26.4l-1.9,0l0,-3.7l1.9,0l0,3.7Zm86.1,43.4l-1.9,0l0,3.7l-1.9,0l0,3.7l-1.9,0l0,1.9l-1.9,0l0,3.7l-1.9,0l0,1.9l-1.9,0l0,-11.2l-1.9,0l0,-5.6l3.7,0l0,-1.9l5.6,0l0,-1.9l3.7,0c0.3,2 0.3,3.9 0.3,5.7Zm30.1,15l-1.9,0l0,-3.7l1.9,0l0,3.7Z"/><path d="M257.7,123l1.9,0l0,-20.7l1.9,0l0,-26.4l1.9,0l0,-28.2l-1.9,0l0,-9.5l-2,0l0,11.6l1.9,0l0,22.2l-1.9,0l0,24.5l-1.9,0l0,18.9l-1.9,0l0,11.4l2,0l0,-3.8Zm15,-26.3l1.9,0l0,-9.4l1.9,0l0,-5.6l1.9,0l0,-2l1.9,0l0,-3.7l1.9,0l0,-3.7l1.9,0l0,-1.9l1.9,0l0,-1.9l1.9,0c0.1,-0.7 0.1,-1.4 0.2,-2l-4.1,0l0,1.9l-1.9,0l0,1.9l-2.1,0l0,1.7l-1.9,0l0,3.7l-1.9,0l0,3.7l-1.9,0l0,3.9l-1.9,0l0,9.4l-1.9,0l0,6l2,0l0,-2l0.2,0Zm24.3,-15l0,-3.9l1.9,0l0,-9.5l-2,0l0,7.5l-1.9,0l0,3.7l-1.9,0c0.1,0.7 0.1,1.5 0.2,2.2l3.7,0Zm-97.4,31.8l-1.9,0l0,3.7l-1.9,0l0,5.6l-1.9,0l0,3.7l-1.9,0l0,7.7l-1.9,0l0,3.7l-1.9,0l0,5.6l-1.9,0l0,5.6l-1.9,0l0,6.1l2.2,0c-0.1,-1.4 -0.1,-2.7 -0.2,-4.1l1.9,0l0,-5.6l1.9,0l0,-3.7l1.9,0l0,-5.6l1.9,0l0,-5.6l1.9,0l0,-3.9l1.9,0l0,-5.6l1.9,0l0,-3.7l1.9,0l0,-5.6l1.9,0l0,-3.7l1.9,0l0,-5.8l1.9,0l0,-3.7l1.9,0l0,-5.6l1.9,0l0,-5.6l1.9,0l0,-3.7l1.9,0l0,-5.8l1.9,0l0,-3.7l1.9,0l0,-3.7c-1.3,-0.1 -2.6,-0.1 -3.9,-0.2l0,5.6l-1.9,0l0,3.7l-1.9,0l0,5.8l-1.9,0l0,5.6l-2.1,0l0,3.7l-1.9,0l0,5.6l-1.9,0l0,3.7l-1.9,0l0,5.8l-1.9,0l0,3.7l0.2,0Zm37.5,-41.3c-0.7,-0.1 -1.4,-0.1 -2,-0.2l0,2.2l2,0l0,-2Zm-0.1,5.8l2,0l0,-2c-0.7,-0.1 -1.4,-0.1 -2,-0.2l0,2.2Zm-54.1,7.5l9.4,0l0,-1.9l7.5,0c0.1,-1.4 0.1,-2.7 0.2,-4.1l-4.1,0l0,2l-7.5,0l0,1.9l-7.5,0l0,1.9l-3.7,0l0,2l5.8,0l0,-1.8l-0.1,0Zm-99.3,14.9l7.5,0l0,-1.9l7.5,0l0,-1.9l3.7,0l0,-1.9l1.9,0l0,-1.9l1.9,0l0,-1.9l1.9,0l0,-3.7c-0.7,-0.1 -1.4,-0.1 -2,-0.2l0,2l-2,0l0,1.9l-1.9,0l0,1.9l-3.7,0l0,1.9l-3.7,0l0,1.9l-7.5,0l0,1.9l-5.6,0l0,1.9l-7.6,0l0,1.9l-7.5,0l0,1.9l-5.5,0l0,2l-7.5,0l0,1.9l-1.9,0l0,4.1l2,0l0,-2l3.7,0l0,-1.9l5.7,0l0,-1.9l7.5,0l0,-2l5.6,0l0,-1.9l7.5,0l0,-2.1Zm90.1,-13.2l-13.4,0l0,2l13.3,0c0,-0.7 0,-1.4 0.1,-2Zm111.9,33.8l-5.6,0l0,1.9l-1.9,0c0.1,0.7 0.1,1.4 0.2,2l5.6,0l0,-1.9l3.7,0l0,-1.9l3.7,0l0,-1.9l1.9,0l0,-1.9l1.9,0l0,-5.6l1.9,0l0,-3.7l1.9,0l0,-7.7l1.9,0l0,-7.7l-2,0l0,1.9l-1.9,0l0,9.4l-1.9,0l0,5.8l-1.9,0l0,3.7l-1.9,0l0,3.7l-1.9,0l0,1.9l-3.7,0l0,2Zm-129.1,0.3l2.2,0c-0.1,-3.8 -0.1,-7.6 -0.2,-11.4l3.7,0l0,-1.9l1.9,0l0,-1.9l1.9,0l0,-2l5.6,0l0,-1.9l1.9,0l0,-1.9l1.9,0l0,-3.7c-0.7,-0.1 -1.4,-0.1 -2,-0.2l0,1.9l-1.9,0l0,1.9l-3.7,0l0,1.9l-3.8,0l0,1.9l-3.7,0l0,2l-1.9,0l0,1.9l-1.9,0l0,1.9l-1.9,0l0,9.7l1.9,0l0,1.8Zm61.8,5.3l-1.9,0l0,9.5l-1.9,0l0,3.9l2,0l0,-1.9l1.9,0l0,-7.5l1.9,0l0,-7.6l1.9,0l0,-11.2l1.9,0l0,-9.5l1.9,0l0,-3.7c-1.3,-0.1 -2.6,-0.1 -3.9,-0.2l0,7.7l-1.9,0l0,9.4l-1.9,0l0,11.1Zm69.5,-26.3l-7.8,0l0,2l7.8,0l0,-2Zm-52.5,37.9l1.9,0l0,-22.6l1.9,0c0.1,-4.5 0.1,-9 0.2,-13.4l-2.3,0l0,1.9l-1.9,0l0,30.3l-1.9,0l0,6l2,0l0,-2.2l0.1,0Zm37.4,-34.2l-2,0l0,2.4l2,0l0,-2.4Zm-131.1,7.7l-5.6,0l0,1.9l-3.7,0l0,1.9l-5.6,0l0,1.9l-1.9,0l0,1.9l-1.9,0l0,4.1l1.9,0l0,3.4l-1.9,0l0,2.2l1.9,0l0,2l2.2,0c-0.1,-3.9 -0.1,-7.7 -0.2,-11.6l3.7,0l0,-1.9l3.7,0l0,-1.9l5.6,0l0,-1.9l3.7,0l0,-3.7c-0.7,-0.1 -1.4,-0.1 -2,-0.2l0,1.9l0.1,0Zm-106.5,0l-2.2,0l0,1.9l-3.7,0l0,2c2.6,0.1 5.2,0.1 7.8,0.2l0,-2.2l-1.9,0l0,-1.9Zm18.5,9.5l1.9,0l0,-7.5c-0.7,-0.1 -1.4,-0.1 -2,-0.2l0,1.9l-1.9,0l0,19.2l2,0l0,-13.4Zm-31.8,-3.8l3.7,0c0.1,-0.7 0.1,-1.4 0.2,-2l-4.1,0c0.1,0.7 0.2,1.4 0.2,2Zm378.1,-2l0,1.9l-1.9,0l0,1.9l-3.7,0l0,1.9l-3.7,0l0,1.9l-3.7,0l0,1.9l-3.7,0l0,1.9l-3.7,0l0,1.9l-5.6,0l0,2l-1.9,0l0,6l2,0l0,-5.8l7.5,0l0,-2l3.7,0l0,-1.9l5.6,0l0,-1.9l3.7,0l0,-2.1l3.7,0l0,-1.9l1.9,0l0,-1.9l1.9,0l0,-1.9l1.9,0l0,-1.9c-1.4,0.1 -2.7,0 -4,0Zm-310.7,9.5l0,-1.9l9.5,0l0,-2l-11.6,0l0,1.9l-1.9,0l0,17.3l2.2,0c-0.1,-5.1 -0.1,-10.2 -0.2,-15.3l2,0Zm20.4,3.6l-1.9,0l0,3.9l-1.9,0l0,1.9l-1.8,0l0,1.9l-1.9,0l0,1.9l-1.9,0l0,1.9l-1.9,0l0,3.7l-1.9,0l0,1.9l-3.7,0l0,1.9l-1.9,0l0,1.9l-1.8,0l0,4.1c1.3,-0.1 2.6,-0.1 3.9,-0.2l0,-1.9l1.9,0l0,-1.9l1.9,0l0,-1.9l1.9,0l0,-1.9l1.9,0l0,-1.9l1.9,0l0,-1.9l1.9,0l0,-1.9l1.9,0l0,-1.9l1.9,0l0,-3.7l1.9,0l0,-1.9l2,0c0.1,-3.9 0.1,-7.7 0.2,-11.6l-2.4,0l0,7.6l-0.2,0Zm47.1,2.2l3.7,0l0,-2l3.7,0l0,-1.9l5.6,0l0,-1.9l1.9,0l0,-3.7c-0.7,-0.1 -1.4,-0.1 -2,-0.2l0,1.9l-3.7,0l0,1.9l-3.7,0l0,1.9l-3.7,0l0,1.9l-1.9,0l0,2l-1.9,0l0,9.7l2,0l0,-9.6Zm-90.1,-3.9l6,0l0,-2l-6,0l0,2Zm196.6,49.1l2,0l0,-7.7l1.9,0l0,-13.1l1.9,0l0,-11.4l11.2,0l0,-1.9l3.7,0l0,-1.9l5.6,0l0,-1.9l5.6,0l0,-1.9l7.5,0l0,-1.9l5.6,0l0,-1.9l5.6,0l0,-1.9l5.8,0l0,-2l1.9,0l0,-1.9l1.9,0l0,-1.9c-1.3,-0.1 -2.6,-0.1 -3.9,-0.2l0,1.9l-3.7,0l0,1.9l-3.9,0l0,2l-5.6,0l0,1.9l-7.5,0l0,1.9l-5.6,0l0,1.9l-5.6,0l0,1.9l-7.6,0l0,1.9l-3.7,0l0,1.9l-7.5,0l0,1.9l-1.9,0l0,5.6l-1.9,0l0,15.1l-1.9,0l0,11.7l0.1,0Zm-138.3,-34l1.9,0l0,-1.9l1.9,0l0,-1.9l3.7,0l0,-1.9l3.7,0l0,-1.9l1.9,0l0,-3.7c-0.7,-0.1 -1.4,-0.1 -2,-0.2l0,1.9l-1.9,0l0,1.9l-5.6,0l0,1.9l-3.7,0l0,1.9l-1.9,0l0,11.6l2,0l0,-7.7Zm-54.6,-3.9l-1.9,0l0,1.9l-1.9,0l0,1.9l-3.7,0l0,1.9l-5.6,0l0,1.9l-1.9,0l0,2l3.9,0l0,-1.9l5.6,0l0,-1.9l3.7,0l0,-1.9l1.9,0l0,-1.9l1.9,0l0,-3.7c-0.7,-0.1 -1.4,-0.1 -2,-0.2l0,1.9Zm269.9,13.3l1.9,0l0,-5.6l1.9,0l0,-3.7l1.9,0l0,-1.9l1.9,0c0.1,-1.3 0.1,-2.6 0.2,-3.9l-2.2,0l0,1.9l-1.9,0l0,3.7l-1.9,0l0,1.9l-2,0l0,3.7l-1.9,0l0,5.6l-1.9,0l0,9.5l-1.9,0l0,4.1l1.9,0l0,7.5l2,0l0,-17l1.9,0l0,-5.8l0.1,0Zm16.8,-3.8l0,-1.9l1.9,0l0,-5.6c-0.7,-0.1 -1.4,-0.1 -2,-0.2l0,3.7l-1.9,0c0.1,1.3 0.1,2.6 0.2,3.9l1.8,0l0,0.1Zm-190.9,0l3.7,0l0,-1.9l1.9,0l0,-1.9l1.9,0l0,-1.9c-1.3,-0.1 -2.6,-0.1 -3.9,-0.2l0,1.9l-1.9,0l0,1.9l-3.8,0l0,1.9l-5.6,0l0,1.9l-3.7,0l0,1.9l-3.7,0l0,2l5.8,0l0,-1.9l3.7,0l0,-1.9l5.6,0l0,-1.8Zm207.8,7.7l3.7,0l0,-2l3.7,0l0,-1.9l5.6,0l0,-1.9l3.7,0l0,-5.6c-0.7,-0.1 -1.4,-0.1 -2,-0.2l0,1.9l-1.9,0l0,1.9l-1.9,0l0,1.9l-5.6,0l0,1.9l-3.7,0l0,1.9l-1.9,0l0,2l-1.9,0l0,9.7l2,0l0,-9.6l0.2,0Zm-322.3,-6l-1.9,0l0,41.5l-1.9,0l0,15.1l-1.8,0c0.1,1.9 0.1,3.9 0.2,5.8l1.8,0l0,-1.9l1.9,0l0,-11.4l1.9,0l0,-49l1.9,0c0.1,-0.7 0.1,-1.4 0.2,-2l-2.2,0l0,1.9l-0.1,0Zm191,0l-5.6,0l0,1.9l-1.9,0l0,1.9l-1.9,0l0,2l-1.9,0l0,1.9l-1.9,0c0.1,1.3 0.1,2.6 0.2,3.9l3.7,0l0,-3.7l1.9,0l0,-1.9l3.7,0l0,-2l1.9,0l0,-1.9l3.7,0l0,-1.9l5.8,0l0,-2l-7.8,0l0,1.8l0.1,0Zm58.1,7.9l0,-1.9l5.6,0l0,-2l7.5,0c0.1,-1.3 0.1,-2.6 0.2,-3.9l-4.1,0l0,1.9l-7.5,0l0,1.9l-5.6,0l0,2l-1.8,0l0,11.6l1.9,0l0,13.3l1.9,0l0,3.7l2.2,0c-0.1,-1.3 -0.1,-2.6 -0.2,-3.9l-1.9,0l0,-13.3l-1.9,0l0,-9.4l3.7,0Zm24.4,-4.1l-1.9,0l0,7.7l-1.9,0l0,4.1c0.7,-0.1 1.4,-0.1 2,-0.2l0,-3.7l1.9,0l0,-5.6l1.9,0l0,-6l-2,0l0,3.7Zm-185.4,-1.9l-1.9,0l0,1.9l-1.8,0l0,2l-3.7,0l0,1.9l-7.5,0l0,1.9l-3.8,0l0,1.9l-3.7,0c0.1,0.7 0.1,1.4 0.2,2l5.6,0l0,-1.9l5.6,0l0,-1.9l5.6,0l0,-1.9l3.7,0l0,-1.9l3.7,0l0,-5.8l-2,0l0,1.8Zm78.6,7.7l-5.6,0l0,1.9l-7.5,0l0,1.9l-5.6,0l0,1.9l-5.6,0l0,1.9l-7.5,0l0,1.9l-7.5,0l0,1.9l-5.6,0l0,1.9l-5.6,0l0,1.9l-1.9,0c0.1,0.7 0.1,1.4 0.2,2l5.6,0l0,-1.9l5.6,0l0,-2.1l5.6,0l0,-1.9l7.5,0l0,-1.9l5.6,0l0,-1.9l5.6,0l0,-1.9l7.5,0l0,-1.9l5.6,0l0,-1.9l7.5,0l0,-1.9l3.9,0l0,-2l-7.8,0l0,2.1Zm65.6,0.1l3.9,0l0,-2l-6,0l0,1.9l-1.8,0l0,2l3.9,0l0,-1.9Zm74.8,1.7l-1.9,0l0,7.5l-1.8,0l0,7.5l-1.9,0l0,3.9l-1.9,0l0,3.7l-1.9,0l0,1.9l-1.9,0l0,1.9l-3.7,0l0,1.9l-3.7,0l0,2l5.8,0l0,-1.9l3.7,0l0,-1.9l1.9,0l0,-1.9l1.9,0l0,-3.7l1.9,0l0,-3.9l1.9,0l0,-7.5l1.9,0l0,-5.6l1.9,0l0,-5.6c-0.7,-0.1 -1.4,-0.1 -2,-0.2l0,1.9l-0.2,0Zm39.3,5.6l-1.9,0l0,1.9l-5.6,0l0,1.9l-3.7,0l0,1.9l-5.6,0l0,1.9l-5.6,0l0,1.9l-3.7,0l0,1.9l-5.6,0c0.1,0.7 0.1,1.5 0.2,2.2l7.5,0l0,-2l5.6,0l0,-1.9l3.7,0l0,-1.9l5.6,0l0,-2l5.6,0l0,-1.9l3.7,0l0,-1.9l1.9,0l0,-1.9l1.9,0l0,-1.9c-1.3,-0.1 -2.6,-0.1 -3.9,-0.2l0,2l-0.1,0Zm-314.6,3.8l-1.9,0l0,3.9l3.9,0l0,-7.7l-2,0l0,3.8Zm204.2,39.8l0,-1.9l3.7,0l0,-1.9l1.9,0l0,-1.9l1.9,0l0,-2l1.9,0l0,-1.9l1.9,0l0,-1.9l1.9,0l0,-1.9l1.9,0l0,-1.9l1.9,0l0,-1.9l1.9,0l0,-1.9l1.9,0l0,-3.7l1.9,0l0,-1.9l1.9,0l0,-3.7l1.9,0l0,-3.9l2,0l0,-1.9l1.9,0l0,-3.6l1.9,0l0,-3.7l1.9,0l0,-2l-2,0l0,1.9l-1.9,0l0,1.9l-1.9,0l0,3.7l-2,0l0,3.7l-1.9,0l0,2l-1.9,0l0,1.9l-1.9,0l0,3.7l-1.9,0l0,1.9l-1.9,0l0,3.7l-1.9,0l0,1.9l-1.9,0l0,1.9l-1.9,0l0,1.9l-1.9,0l0,1.9l-1.9,0l0,1.9l-1.9,0l0,1.9l-1.9,0l0,2l-3.7,0l0,1.9l-3.7,0c0.1,0.7 0.1,1.4 0.2,2l1.9,0l0,1.9l1.7,0l0,-0.1Zm-191.1,-39.6l2.2,0l0,-2l-2.2,0l0,2Zm20.7,7.4l7.8,0l0,-2l-7.8,0l0,2Zm162.8,1.9l-1.9,0l0,1.9l-5.6,0l0,1.9l-3.7,0l0,1.9l-3.8,0l0,1.9l-1.9,0l0,15l-1.9,0l0,17.3l2,0l0,-9.5l1.9,0l0,-20.9l1.9,0l0,-1.9l5.6,0l0,-1.9l3.7,0l0,-1.9l3.7,0l0,-1.9l1.9,0l0,-3.9c-0.7,-0.1 -1.4,-0.1 -2,-0.2l0,2.2l0.1,0Zm39.5,30.1l-5.8,0l0,1.9l-3.7,0l0,1.9l-5.6,0l0,1.9l-5.6,0l0,1.9l-5.6,0l0,1.9l-3.7,0l0,1.9l-5.6,0l0,1.9l-3.9,0l0,1.9l-5.6,0l0,1.9l-5.6,0l0,2l-7.5,0l0,1.9l-3.7,0l0,1.9l-5.6,0c0.1,0.7 0.1,1.4 0.2,2l7.5,0l0,-1.9l7.5,0l0,-1.9l3.7,0l0,-1.9l5.6,0l0,-2l5.6,0l0,-1.9l5.6,0l0,-1.9l3.7,0l0,-2l5.6,0l0,-1.9l5.6,0l0,-1.9l5.6,0l0,-1.9l3.7,0l0,-1.9l5.8,0l0,-1.9l3.7,0l0,-1.9l1.9,0l0,-1.9c-1.3,-0.1 -2.6,-0.1 -3.9,-0.2l0,2.1l0.1,0Z" style="fill:#09f;"/><path d="M319.6,206l0,-1.9l-1.9,0l0,1.9l-9.5,0l0,1.9l-5.6,0l0,1.9l-5.6,0l0,1.9l-7.5,0l0,1.9l-5.6,0l0,1.9l-7.5,0l0,1.9l-5.6,0l0,1.9l-5.6,0l0,1.9l-1.9,0l0,-2l-1.7,0l0,-16.7l1.9,0l0,-15l1.9,0l0,-1.9l3.7,0l0,-1.9l3.7,0l0,-1.9l5.6,0l0,-1.9l1.9,0c-0.1,-1.4 -0.1,-2.7 -0.2,-4.1l-1.9,0l0,-1.9l-3.7,0l0,1.9l-5.6,0l0,1.9l-3.7,0l0,-2l-1.7,0l0,-10.9l1.9,0l0,-15.1l1.9,0l0,-5.6l1.7,0c0.1,-0.6 0.1,-1.2 0.2,-1.9l7.5,0l0,-1.9l3.7,0l0,-1.9l7.5,0l0,-1.9l5.6,0l0,-1.9l5.6,0l0,-1.9l7.5,0l0,-1.9l5.6,0l0,-2l3.9,0l0,-1.9l3.7,0l0,-1.9l1.9,0c-0.1,-0.7 -0.1,-1.4 -0.2,-2l-11.4,0l0,1.9l-7.5,0l0,1.9l-7.5,0l0,1.9l-7.5,0l0,2l-7.5,0l0,1.9l-7.5,0l0,1.9l-7.5,0l0,1.9l-5.6,0l0,1.9l-7.5,0l0,1.9l-5.6,0l0,1.9l-7.5,0l0,1.9l-3.7,0l0,-3.9l-1.7,0l0,-5.3l1.9,0l0,-30.3l1.9,0l0,-1.9c1.2,-0.1 2.4,-0.1 3.6,-0.2l0,3.9l1.9,0l0,3.7l1.9,0l0,3.7l1.9,0l0,3.7l1.9,0l0,1.9l1.9,0l0,1.9l1.9,0l0,3.7l1.9,0l0,1.9l2,0l0,-11.1l1.9,0l0,-18.9l1.9,0l0,-24.5l1.9,0l0,-23l-1.9,0l0,-10.9l1.7,0l0,-2l-1.9,0l0,-1.9l-3.7,0l0,7.5l-1.9,0l0,11.2l-1.9,0l0,15.1l-1.9,0l0,24.5l-1.9,0l0,1.9l-1.9,0l0,-3.7l-1.9,0l0,-3.7l-1.9,0l0,-3.7l-1.9,0l0,-3.9l-1.9,0l0,-2l-1.7,0c-0.1,-1.2 -0.1,-2.5 -0.2,-3.7l-1.7,0c-0.1,-1.2 -0.1,-2.4 -0.2,-3.6l-1.9,0l0,-1.9l-3.7,0l0,18.9l-1.9,0l0,32l-1.9,0l0,26.4l-5.6,0l0,1.9l-7.5,0l0,1.9l-7.5,0l0,1.9l-5.6,0l0,1.9l-5.6,0l0,2c-3.1,-0.1 -6.1,-0.1 -9.2,-0.2l0,-5.4l1.9,0l0,-5.6l1.9,0l0,-5.6l1.9,0l0,-3.7l1.9,0l0,-7.7l1.9,0l0,-3.7l1.9,0l0,-5.6l1.9,0l0,-3.7l1.9,0l0,-3.7l1.9,0l0,-5.8l1.9,0l0,-3.7l1.9,0l0,-5.6l1.9,0l0,-3.7l1.9,0l0,-5.6l1.9,0l0,-5.8l1.9,0l0,-3.7l1.9,0l0,-5.6l1.9,0c-0.1,-0.7 -0.1,-1.4 -0.2,-2l-1.9,0l0,-1.9l-5.6,0l0,1.9l-7.5,0l0,1.9l-5.6,0l0,1.9l-7.5,0l0,1.9l-7.5,0l0,1.9l-7.5,0l0,1.9l-5.6,0l0,1.9l-5.6,0l0,2l-1.9,0l0,1.9l-3.7,0l0,1.9l-1.9,0l0,1.9l3.7,0l0,1.9l2,0l0,-1.7c5.6,-0.1 11.2,-0.1 16.8,-0.2l0,-1.7l3.7,0l0,-1.9l7.5,0l0,-1.9l7.5,0l0,-2l3.4,0l0,2c0.7,-0.1 1.4,-0.1 2,-0.2l0,1.9l-1.9,0l0,3.7l-1.9,0l0,5.6l-1.9,0l0,3.7l-1.9,0l0,5.6l-1.9,0l0,3.9l-1.9,0l0,5.6l-1.9,0l0,3.7l-1.9,0l0,3.7l-1.9,0l0,5.6l-1.9,0l0,3.7l-1.9,0l0,3.9l-1.9,0l0,5.6l-1.9,0l0,3.7l-1.9,0l0,5.6l-1.9,0l0,3.7l-1.9,0l0,3.9l-1.9,0l0,5.6l-1.9,0l0,3.7l-1.9,0l0,3.7l-1.9,0l0,5.6c1.3,0.1 2.6,0.1 3.9,0.2l0,-1.9l5.6,0l0,-1.9l5.6,0l0,-1.9l7.5,0l0,-1.9l7.5,0l0,-1.9l5.6,0l0,-1.9l5.6,0l0,-1.9l7.5,0l0,-1.9l5.6,0l0,-1.9l7.1,0l0,1.7c1.4,0.1 2.7,0.1 4.1,0.2l0,-1.9l1.9,0l0,-1.9l1.9,0l0,-2l1.9,0l0,-1.9l1.9,0l0,-1.9l5.6,0l0,-1.9l7.1,0l0,1.7l2,0l0,9.5l-1.9,0l0,28.2l-1.9,0l0,3.7l1.9,0l0,41.5c2.6,0.1 5.1,0.1 7.7,0.2l0,-1.9l3.7,0l0,-1.9l7.5,0l0,-2l5.6,0l0,-1.9l5.6,0l0,-1.9l3.7,0l0,-1.9l5.6,0l0,-1.9l3.7,0l0,-1.9l5.6,0l0,-1.9l5.6,0l0,-1.9l5.6,0l0,-1.9l3.7,0l0,-1.9l5.8,0l0,-1.9l1.9,0c-0.1,-0.7 -0.1,-1.4 -0.2,-2c0.1,0.4 -0.5,0.4 -1.2,0.4Zm-54.4,-94.2l1.9,0l0,3.7l1.9,0l0,1.9l1.9,0l0,1.9l1.9,0l0,1.9l1.9,0l0,1.9c1.9,0.1 3.9,0.1 5.8,0.2l0,-1.9l5.6,0l0,-1.9l3.7,0l0,-1.9l1.9,0l0,-3.7l1.9,0l0,-3.7l1.9,0l0,-5.8l1.9,0l0,-9.4l1.9,0l0,-1.9l1.7,0l0,-2l-1.9,0l0,-1.9l-3.7,0l0,1.9l-5.6,0l0,1.9l-3.7,0l0,1.9l-3.7,0l0,1.9l-1.9,0l0,1.9l-1.9,0l0,3.7l2,0l0,-1.7l7.1,0l0,1.7l2,0l0,1.9l-1.9,0l0,5.8l-1.9,0l0,1.9l-1.9,0l0,1.9l-3.7,0l0,1.9l-3.7,0l0,-1.9l-1.9,0l0,-3.7l-1.9,0l0,-3.9l-1.7,0l0,-1.7l1.7,0l0,-6l-1.7,0l0,-5.3l1.9,0l0,-9.4l1.9,0l0,-3.9l1.9,0l0,-3.7l1.9,0l0,-3.7l1.9,0l0,-1.9l1.9,0l0,-1.9l1.9,0l0,-1.9c1.8,-0.1 3.6,-0.1 5.4,-0.2l0,3.7l1.9,0l0,9.4c1.3,0.1 2.6,0.1 3.9,0.2l0,-3.7l1.9,0l0,-7.5l1.7,0l0,-2l-1.9,0l0,-3.7l-1.9,0l0,-1.9l-3.7,0l0,-1.9l-1.9,0l0,-1.9l-7.5,0l0,1.9l-1.9,0l0,1.9l-1.9,0l0,1.9l-1.9,0l0,1.9l-1.9,0l0,3.7l-1.9,0l0,1.9l-1.9,0l0,3.7l-1.9,0l0,5.6l-1.9,0l0,3.9l-1.9,0l0,11.2l-1.9,0l0,11.4l1.9,0l0,5.4Zm-204.1,22.6l0,1.9l-7.5,0l0,-2l-1.7,0l0,-18.5l1.9,0c-0.1,-1.4 -0.1,-2.7 -0.2,-4.1l-1.7,0l0,-3.4l1.9,0l0,-1.9l7.5,0l0,-2l5.6,0l0,-1.9l7.5,0l0,-1.9l7.5,0l0,-1.9l5.6,0l0,-1.9l7.5,0l0,-1.9l3.7,0l0,-1.9l3.7,0l0,-1.9l1.9,0l0,-1.9l1.9,0c-0.1,-1.3 -0.1,-2.6 -0.2,-3.9l-13.1,0l0,1.9l-5.6,0l0,1.9l-7.5,0l0,1.9l-11.2,0l0,1.9l-3.7,0l0,1.9l-5.6,0l0,1.9l-5.6,0l0,1.9l-7.5,0l0,1.9l-1.9,0l0,-1.9l-3.7,0l0,1.9l-1.9,0l0,1.9l-7.5,0l0,1.9l-3.7,0l0,2l-5.6,0l0,1.9l-1.9,0l0,1.9l-1.9,0l0,3.7l1.9,0l0,1.9l9.5,0l0,-1.7l3.7,0l0,-1.9l1.5,0l0,1.9l1.9,0c0.1,3.1 0.1,6.1 0.2,9.2l1.9,0l0,5.6l-1.9,0l0,9.5l1.9,0l0,1.9l-1.9,0l0,9.4l1.9,0l0,15.1l1.9,0l0,1.9l-1.9,0l0,3.7l1.9,0l0,30.1l1.9,0l0,7.7l1.9,0l0,1.9c0.7,0.1 1.4,0.1 2,0.2l0,-3.7l1.9,0l0,-15.1l1.9,0l0,-41.5l1.7,0c0.1,-0.6 0.1,-1.2 0.2,-1.9c1.2,-0.1 2.5,-0.1 3.7,-0.2l0,-1.7l1.9,0l0,-1.9l5.6,0l0,-1.9l3.7,0l0,-1.9l1.9,0l0,-1.9l1.9,0c-0.1,-1.3 -0.1,-2.6 -0.2,-3.9c-3.2,-0.2 -6.3,-0.2 -9.5,-0.2Zm151.7,-43.3l0,3.7l-1.9,0l0,3.7l-1.9,0l0,1.9l1.9,0l0,3.7l-1.9,0l0,28.4l1.9,0l0,5.6l1.9,0l0,1.9l2,0l0,-3.6l1.9,0l0,-9.5l1.9,0l0,-11.2l1.9,0l0,-9.4l1.9,0l0,-7.7l1.9,0c-0.1,-0.7 -0.1,-1.4 -0.2,-2l-1.9,0l0,-1.9l-1.9,0l0,-1.9l-1.9,0l0,-1.9c-1.8,0.2 -3.7,0.2 -5.6,0.2Zm-48.4,54.7l3.7,0l0,-1.9l1.9,0l0,-1.9l1.9,0c-0.1,-0.7 -0.1,-1.4 -0.2,-2l-13.1,0l0,1.9l-1.9,0l0,-2l-1.7,0l0,-9l1.7,0c0.1,-0.7 0.1,-1.4 0.2,-2l1.9,0l0,-1.9l3.7,0l0,-1.9l3.7,0l0,-1.9l3.7,0c-0.1,-1.3 -0.1,-2.6 -0.2,-3.9l-7.5,0l0,1.9c-1.8,-0.1 -3.6,-0.1 -5.4,-0.2l0,-1.9l-1.9,0l0,-9l1.9,0l0,-1.9l1.9,0l0,-1.9l1.9,0l0,-2l3.7,0l0,-1.9l3.7,0l0,-1.9l3.7,0l0,-1.9l1.9,0c-0.1,-1.3 -0.1,-2.6 -0.2,-3.9l-3.7,0l0,1.9l-9.4,0l0,1.9l-7.5,0l0,1.9l-3.7,0l0,1.9l-1.9,0l0,1.9l-1.9,0l0,5.8l3.7,0l0,3.7l-1.9,0l0,30.1l-1.9,0l0,7.5l1.9,0l0,1.9l3.9,0l0,-1.7l3.7,0l0,-1.9l3.7,0l0,-1.9l5.6,0c0.4,-0.6 0.4,-1.2 0.4,-1.9Zm-39.3,-26.3l0,-1.9l1.9,0l0,-1.9l5.6,0l0,-1.9l3.7,0l0,-1.9l5.6,0c-0.1,-1.3 -0.1,-2.6 -0.2,-3.9l-11.2,0l0,1.9l-5.6,0l0,1.9l-9.4,0l0,1.9l-1.9,0l0,1.9l-1.9,0l0,1.9l-3.9,0l0,-1.9l-1.9,0l0,-1.9l-3.7,0l0,-1.9l-20.6,0l0,1.9l-5.6,0l0,1.9l-3.7,0l0,1.9l-5.6,0l0,1.9l-1.9,0l0,1.9l-1.9,0l0,1.9l-1.9,0l0,1.9l3.7,0l0,1.9l2,0l0,-1.7l5.3,0l0,1.7l3.9,0l0,7.7l-1.9,0l0,7.5l1.9,0l0,7.5l-1.9,0l0,1.9l-1.9,0l0,5.8l1.9,0l0,1.9l1.9,0l0,1.9l1.9,0l0,11.2l1.9,0l0,1.9l2,0l0,-3.6l1.9,0l0,-3.7l1.7,0l0,-2l1.9,0l0,1.9l3.7,0l0,1.9l3.7,0l0,1.9l2,0l0,-1.7l1.5,0l0,1.7l3.9,0l0,1.9l3.7,0l0,1.9l5.8,0l0,1.9l3.7,0l0,1.9l2,0l0,-1.7l7.1,0l0,1.7l7.7,0l0,-1.9l-1.9,0l0,-1.9l-1.9,0l0,-1.9l-1.9,0l0,-1.9l-3.7,0l0,-1.9l-3.7,0l0,-1.9l-3.7,0l0,-1.9l-3.7,0l0,-1.9l-3.9,0l0,-1.9l-7.5,0l0,-1.9l-3.7,0l0,-1.9l-5.6,0l0,-1.9l-1.9,0c0.1,-1.9 0.1,-3.7 0.2,-5.6l1.9,0l0,-1.9l1.9,0l0,-1.9l3.7,0l0,-1.9l1.9,0l0,-3.7l1.9,0l0,-1.9l1.9,0l0,-1.9l1.9,0l0,-1.9l1.9,0l0,-1.9l1.9,0l0,-3.9l1.9,0l0,-7.5c1.2,-0.1 2.5,-0.1 3.7,-0.2l0,1.9l1.9,0l0,37.8c1.9,0.1 3.9,0.1 5.8,0.2l0,-1.9l3.7,0l0,-1.9l7.5,0l0,-1.9l3.7,0l0,-2l1.9,0l0,-1.9l1.9,0l0,-2l-11.4,0l0,1.9l-3.7,0l0,-2l-1.7,0l0,-10.9l1.9,0l0,-1.9l3.7,0l0,-1.9l5.6,0l0,-1.9l1.9,0c-0.1,-1.4 -0.1,-2.7 -0.2,-4.1c-3.2,-0.1 -6.3,-0.1 -9.5,-0.2l0,2l-1.5,0l0,-2l-1.9,0l0,-1.5l1.9,0l0,-4.1l-1.9,0l0,-3.4c0.6,-0.1 1.3,-0.1 1.9,-0.1Zm-24.7,7.3l-1.9,0l0,1.9l-1.9,0l0,3.9l-1.9,0l0,1.9l-1.9,0l0,1.9l-1.9,0l0,1.9l-1.9,0l0,1.9c-1.2,-0.1 -2.4,-0.1 -3.6,-0.2l0,-16.7l1.9,0l0,-1.9l10.9,0l0,1.7l2,0c0.2,1.2 0.2,2.4 0.2,3.7Zm301.5,-13.1l-9.4,0l0,1.9l-9.4,0l0,1.9l-5.6,0l0,1.9l-7.5,0l0,1.9l-7.5,0l0,1.9l-1.9,0l0,7.7l1.9,0l0,1.9l1.9,0l0,45.1c2.6,0.1 5.1,0.1 7.7,0.2l0,-1.9l3.7,0l0,-1.9l5.6,0l0,-1.9l5.6,0l0,-1.9l3.7,0l0,-1.9l5.6,0l0,-1.9l1.9,0l0,-1.9l1.9,0c-0.1,-0.7 -0.1,-1.4 -0.2,-2l-11.2,0l0,1.9l-7.5,0l0,1.9l-7.5,0l0,-2l-1.7,0l0,-9l1.7,0c0.1,-0.7 0.1,-1.4 0.2,-2l1.9,0l0,-1.9l3.7,0l0,-1.9l5.6,0l0,-1.9l1.9,0l0,-1.9l1.9,0c-0.1,-1.3 -0.1,-2.6 -0.2,-3.9l-3.7,0l0,1.9l-9.4,0l0,1.9l-1.9,0l0,-9.5l-1.7,0l0,-5.3l1.7,0c0.1,-0.7 0.1,-1.4 0.2,-2l5.6,0l0,-1.9l3.7,0l0,-1.9l3.7,0l0,-1.9l3.7,0l0,-1.9l3.7,0l0,-1.9l3.7,0l0,-1.9l1.9,0l0,-1.9l1.9,0c0.3,-0.8 0.2,-1.4 0.1,-2.1Zm-48.6,43.4l0,1.9l-1.9,0l0,1.9l-3.7,0l0,1.9l-1.9,0l0,1.9l-3.7,0l0,5.6l1.9,0l0,1.9l1.9,0l0,1.9l-1.9,0l0,3.7l-1.9,0l0,2l-1.9,0l0,-2l-1.9,0l0,-3.9l-1.7,0l0,-7.5l-1.9,0l0,-3.4l1.9,0l0,-9.5l1.9,0l0,-5.6l1.9,0l0,-3.7l1.9,0l0,-1.9l1.7,0c0.1,-1.2 0.1,-2.5 0.2,-3.7l1.9,0l0,-1.9l1.5,0l0,1.9c1.3,-0.1 2.6,-0.1 3.9,-0.2l0,3.7l1.9,0l0,3.7c0.7,0.1 1.4,0.1 2,0.2l0,-1.9l1.9,0c-0.1,-2.6 -0.1,-5.1 -0.2,-7.7l-1.9,0l0,-1.9l-1.9,0l0,-1.9l-1.9,0l0,-1.9l-11.2,0l0,1.9l-1.9,0l0,1.9l-1.9,0l0,3.7l-1.9,0l0,3.7l-1.9,0l0,3.7l-1.9,0l0,5.6l-1.9,0l0,7.7l-1.9,0l0,18.7l1.9,0l0,5.8l1.9,0l0,1.9l1.9,0l0,1.9l1.9,0l0,1.9l3.7,0l0,1.9l2,0l0,-1.7l3.7,0l0,-1.9l3.7,0l0,-1.9l1.9,0l0,-1.9l1.9,0l0,-3.7l1.9,0l0,-3.9l1.9,0l0,-7.5l1.9,0l0,-7.5l1.9,0c-0.1,-1.3 -0.1,-2.6 -0.2,-3.9l-5.5,0Zm-26.2,-9.6l-1.9,0l0,-3.7l-1.9,0l0,-1.9l-3.7,0l0,-1.9l-11.4,0l0,1.9l-7.5,0l0,1.9l-5.6,0l0,1.9l-7.5,0l0,1.9l-3.7,0l0,1.9l-1.9,0l0,1.9l-3.7,0l0,1.9l-1.9,0l0,2l-1.9,0l0,1.9l1.9,0l0,1.9l1.9,0l0,1.9l2,0l0,-1.7l1.9,0l0,-1.9l5.3,0l0,1.7l2,0l0,13.1l-1.9,0l0,13.3l-1.9,0l0,3.7l1.9,0l0,3.7l-1.9,0l0,3.7l1.9,0l0,1.9l-1.9,0l0,3.7l-1.9,0l0,2l-1.9,0l0,1.9c1.9,0.1 3.9,0.1 5.8,0.2l0,-1.9l3.7,0l0,-2l1.9,0l0,-1.9l1.9,0l0,-1.9l1.9,0l0,-1.9l1.9,0l0,-1.9l1.9,0l0,-1.9l1.9,0l0,-1.9l1.9,0l0,-3.7l1.9,0l0,-1.9l1.9,0l0,-3.7l1.9,0l0,-1.9l1.9,0l0,-2l1.7,0c0.1,-1.2 0.1,-2.5 0.2,-3.7l2,0l0,-3.7l1.9,0l0,-1.9l1.7,0c0.1,-0.6 0.1,-1.2 0.2,-1.9l1.7,0c0.1,-1.9 0.1,-3.7 0.2,-5.6l1.7,0c0.1,-2.6 0.1,-5.1 0.2,-7.7l1.9,0l0,-3.7l1.7,0c-0.3,-0.7 -0.3,-1.4 -0.3,-2.1Zm-11.2,9.6l-2,0l0,5.6l-1.9,0l0,3.7l-1.9,0l0,3.7l-1.9,0l0,1.9l-1.9,0l0,3.7l-1.9,0l0,1.9l-1.9,0l0,3.9c-0.7,-0.1 -1.4,-0.1 -2,-0.2l0,1.9l-1.5,0l0,-3.6c-0.6,-0.1 -1.2,-0.1 -1.9,-0.2l0,-13.1c-0.6,-0.1 -1.2,-0.1 -1.9,-0.2l0,-10.9l1.9,0l0,-2l5.6,0l0,-1.9l7.5,0l0,-1.9l3.4,0l0,1.9c0.7,-0.1 1.5,-0.1 2.2,-0.2c0.1,2.1 0.1,4 0.1,6Z" style="fill:#0ff;"/></svg>