<?xml version="1.0" encoding="UTF-8" standalone="no"?><!DOCTYPE svg PUBLIC "-//W3C//DTD SVG 1.1//EN" "http://www.w3.org/Graphics/SVG/1.1/DTD/svg11.dtd"><svg width="100%" height="100%" viewBox="0 0 450 450" version="1.1" xmlns="http://www.w3.org/2000/svg" xmlns:xlink="http://www.w3.org/1999/xlink" xml:space="preserve" xmlns:serif="http://www.serif.com/" style="fill-rule:evenodd;clip-rule:evenodd;stroke-linejoin:round;stroke-miterlimit:2;"><path d="M326.038,333.656c0,-1.484 0.03,3.958 0.03,5.69l-14.917,0l0,4.7l-18.553,0l0,4.7l-13.853,0l0,4.7l-9.152,0l0,-13.853l4.7,0l0,-51.453l4.7,0l0,-4.7l13.853,0l0,-4.7l9.152,0l0,-4.7l9.153,0l0,-4.7l4.7,0l0,-19.048l-4.7,0l0,-4.7l-4.7,0l0,-4.7l-18.553,0l0,4.7l-13.853,0l0,-9.152l4.7,0l0,-32.406l4.7,0l0,-28.2l27.706,0l0,-4.7l9.153,0l0,-4.7l13.852,0l0,-4.7l13.853,0l0,-4.7l18.553,0l0,-4.7l13.852,0l0,-4.7l14.348,0l0,-4.7l13.853,0l0,-4.7l4.7,0l0,-4.947l4.7,0l0,-13.853l-4.7,0l0,-4.7l-37.353,0l0,4.7l-18.553,0l0,4.7l-18.553,0l0,4.7l-18.552,0l0,4.7l-18.553,0l0,4.947l-18.553,0l0,4.7l-18.553,0l0,4.7l-13.852,0l0,4.7l-18.553,0l0,4.7l-13.853,0l0,4.7l-13.852,0c-0.166,0 -7.884,-0.032 -4.915,-0.032c0,-0.435 -0.004,0.128 -0.01,0.76c-0.014,1.521 -0.037,4.828 -0.037,3.604c1.484,0 -5.226,0.065 -3.495,0.065c0,-1.732 -0.108,29.246 -0.108,27.761l25.88,0l0,-4.7l9.153,0l0,14.348l-4.7,0l0,69.758l-4.7,0l0,18.553l4.7,0l0,102.658l4.7,0l0,4.7l27.705,0l0,-4.7l18.553,0l0,-4.7l9.153,0l0,-4.7l13.853,0l0,-4.7l13.852,0l0,-4.947l13.853,0l0,-4.7l9.153,0l0,-4.7l13.852,0l0,-4.7l13.853,0l0,-4.7l13.853,0l0,-4.7l9.153,0l0,-4.7l14.347,0l0,-4.7l9.153,0l0,-4.7l4.7,0l0,-13.853l-4.7,0l0,-4.7l-4.7,0l0,-4.947l-13.853,0l0,4.947l-23.5,0l0,4.7l-13.853,0l0,4.7l-13.853,0l0,4.7l-15.539,0Z" style="fill:#fff;"/><path d="M171.666,178.011c2.969,0 -22.071,-0.167 -34.439,-0.167l0,4.7l-9.153,0l0,-28.2l4.7,0l0,-27.705l4.7,0l0,-4.7l13.853,0l0,-4.7l18.552,0l0,-4.7l13.853,0l0,-4.948l18.553,0l0,-4.7l18.553,0l0,-4.7l18.552,0l0,-4.7l9.153,0l0,-4.7l4.7,0l0,-4.7l4.7,0l0,-4.7l4.7,0l0,-18.553l-4.7,0l0,-4.7l-41.558,0l0,4.7l-13.853,0l0,4.7l-18.552,0l0,4.7l-27.706,0l0,4.7l-9.153,0l0,4.7l-13.852,0l0,4.7l-13.853,0l0,4.7l-32.405,0l0,4.7l-4.7,0l0,4.7l-18.553,0l0,4.7l-9.153,0l0,4.7l-13.853,0l0,4.948l-4.7,0l0,4.7l-4.7,0l0,18.553l4.7,0l0,4.7l4.7,0l0,4.7l18.553,0l0,-4.7l18.553,0l0,18.552l4.7,0l0,4.7l-4.7,0l0,60.606l4.7,0l0,51.453l4.7,0l0,74.458l4.7,0l0,19.048l4.7,0l0,4.7l4.7,0l0,4.7l13.853,0l0,-4.7l4.7,0l0,-28.2l4.7,0l0,-121.212l4.7,0l0,-4.7l13.853,0l0,-4.7l13.852,0l0,-4.7l9.153,0l0,-4.7c0.752,0 5.055,0.018 5.255,-0.142c0.161,-0.128 0.317,-5.913 0.318,-6.295c0.003,-0.524 2.091,-0.232 3.487,-0.232c0,2.968 0.246,-14.801 0.246,-17.769c1.484,0 -5.53,0.007 -3.798,0.007c0,-1.484 -0.011,-1.87 -0.011,-3.602Z" style="fill:#fff;"/><path d="M199.564,96.954l18.553,0l0,-4.7l18.552,0l0,-4.7l9.153,0l0,-4.7l4.7,0l0,-4.7l4.7,0l0,-4.7l4.7,0l0,-9.153c-1.732,-0.247 -3.463,-0.247 -4.947,-0.494l0,4.947l-4.948,0l0,4.7l-4.7,0l0,4.7l-9.152,0l0,4.7l-9.153,0l0,4.7l-18.553,0l0,4.7l-13.853,0l0,4.7l-18.8,0l0,4.7l-18.552,0l0,4.7l-13.606,0l0,4.948l-18.552,0l0,4.7l-4.701,0l0,10.142l4.948,0l0,-4.948l9.153,0l0,-4.7l14.1,0l0,-4.7l18.552,0l0,-4.947l13.853,0l0,-4.7l18.553,0l0,-5.195Z" style="fill:#fff;"/><path d="M79.589,124.907l-5.442,0l0,4.7l-9.152,0l0,4.947c6.431,0.248 12.863,0.248 19.295,0.495l0,-5.442l-4.701,0l0,-4.7Z" style="fill:#fff;"/><path d="M125.353,148.407l4.7,0l0,-18.553c-1.732,-0.247 -3.463,-0.247 -4.947,-0.494l0,4.7l-4.701,0l0,47.495l4.948,0l0,-33.148Z" style="fill:#fff;"/><path d="M46.689,139.007l9.153,0c0.247,-1.732 0.247,-3.463 0.495,-4.947l-10.142,0c0.247,1.731 0.494,3.463 0.494,4.947Z" style="fill:#fff;"/><path d="M264.645,249.798l4.948,0l0,-19.048l4.7,0l0,-32.405l4.7,0l0,-28.2l27.705,0l0,-4.7l9.153,0l0,-4.7l13.853,0l0,-4.7l13.852,0l0,-4.7l18.553,0l0,-4.7l13.853,0l0,-4.701l13.852,0l0,-4.7l14.348,0l0,-4.947l4.7,0l0,-4.7l4.7,0l0,-4.7c-3.216,-0.247 -6.432,-0.247 -9.647,-0.495l0,4.7l-9.153,0l0,4.7l-9.648,0l0,4.948l-13.852,0l0,4.7l-18.553,0l0,4.7l-13.853,0l0,4.7l-13.852,0l0,4.7l-18.801,0l0,4.7l-9.152,0l0,4.7l-18.553,0l0,4.7l-4.7,0l0,13.853l-4.7,0l0,37.352l-4.7,0l0,28.943l0.247,0Z" style="fill:#fff;"/><path d="M166.664,189.965l-4.7,0l0,4.7l-4.7,0l0,4.7l-9.153,0l0,4.7l-13.853,0l0,4.7l-4.7,0l0,4.948l9.648,0l0,-4.7l13.852,0l0,-4.7l9.153,0l0,-4.7l4.7,0l0,-4.7l4.7,0l0,-9.153c-1.732,-0.247 -3.463,-0.247 -4.947,-0.495l0,4.7Z" style="fill:#fff;"/><path d="M120.405,217.671l-4.7,0l0,102.658l-4.7,0l0,37.353l-4.452,0c0.247,4.7 0.247,9.647 0.495,14.347l4.452,0l0,-4.7l4.7,0l0,-28.2l4.7,0l0,-121.211l4.7,0c0.248,-1.732 0.248,-3.463 0.495,-4.947l-5.442,0l0,4.7l-0.248,0Z" style="fill:#fff;"/><path d="M213.687,183.75l-13.853,0l0,5.152l9.401,0.043l9.152,0l0,-4.7l14.348,0l0,-4.948l-19.295,0l0,4.453l0.247,0Z" style="fill:#fff;"/><path d="M306.203,258.703l-4.7,0l0,4.7l-13.852,0l0,4.7l-9.153,0l0,4.7l-9.4,0l0,4.7l-4.7,0l0,37.106l-4.7,0l0,42.795l4.947,0l0,-23.501l4.7,0l0,-51.7l4.7,0l0,-4.7l13.853,0l0,-4.7l9.153,0l0,-4.7l9.152,0l0,-4.7l4.701,0l0,-9.647c-1.732,-0.248 -3.464,-0.248 -4.948,-0.495l0,5.442l0.247,0Z" style="fill:#fff;"/><path d="M403.915,333.161l-14.348,0l0,4.7l-9.153,0l0,4.7l-13.852,0l0,4.7l-13.853,0l0,4.7l-13.853,0l0,4.7l-9.152,0l0,4.7l-13.853,0l0,4.7l-9.648,0l0,4.701l-13.852,0l0,4.7l-13.853,0l0,4.947l-18.553,0l0,4.7l-9.152,0l0,4.7l-13.853,0c0.247,1.732 0.247,3.463 0.495,4.947l18.552,0l0,-4.7l18.553,0l0,-4.7l9.153,0l0,-4.7l13.853,0l0,-4.947l13.852,0l0,-4.7l13.853,0l0,-4.7l9.153,0l0,-4.948l13.852,0l0,-4.7l13.853,0l0,-4.7l13.853,0l0,-4.7l9.152,0l0,-4.7l14.348,0l0,-4.7l9.153,0l0,-4.7l4.7,0l0,-4.7c-3.216,-0.247 -6.432,-0.247 -9.648,-0.494l0,5.194l0.248,0Z" style="fill:#fff;"/><path d="M404.162,324.256l0,-4.7l-4.7,0l0,4.7l-23.5,0l0,4.7l-13.853,0l0,4.7l-13.853,0l0,4.7l-18.552,0l0,4.7l-13.853,0l0,4.7l-18.553,0l0,4.7l-13.853,0l0,4.7l-13.852,0l0,4.7l-4.7,0l0,-4.947l-4.206,0l0,-41.311l4.7,0l0,-37.105l4.7,0l0,-4.7l9.153,0l0,-4.7l9.153,0l0,-4.7l13.853,0l0,-4.701l4.7,0c-0.248,-3.463 -0.248,-6.678 -0.495,-10.142l-4.7,0l0,-4.7l-9.153,0l0,4.7l-13.853,0l0,4.7l-9.152,0l0,-4.947l-4.206,0l0,-26.963l4.7,0l0,-37.353l4.701,0l0,-13.853l4.205,0c0.247,-1.484 0.247,-2.968 0.495,-4.7l18.552,0l0,-4.7l9.153,0l0,-4.7l18.553,0l0,-4.7l13.852,0l0,-4.7l13.853,0l0,-4.7l18.553,0l0,-4.7l13.853,0l0,-4.947l9.647,0l0,-4.7l9.153,0l0,-4.701l4.7,0c-0.248,-1.731 -0.248,-3.463 -0.495,-4.947l-28.2,0l0,4.7l-18.553,0l0,4.7l-18.553,0l0,4.7l-18.552,0l0,4.948l-18.553,0l0,4.7l-18.553,0l0,4.7l-18.553,0l0,4.7l-13.852,0l0,4.7l-18.553,0l0,4.7l-13.853,0l0,4.7l-18.552,0l0,4.7l-5.016,0c0,-3.216 0.068,15.337 0.068,13.605l13.853,0l0,-4.7l17.563,0l0,4.205l4.947,0l0,23.5l-4.7,0l0,69.759l-4.7,0l0,9.152l4.7,0l0,102.659c6.432,0.247 12.616,0.247 19.048,0.495l0,-4.7l9.153,0l0,-4.7l18.552,0l0,-4.948l13.853,0l0,-4.7l13.853,0l0,-4.7l9.152,0l0,-4.7l13.853,0l0,-4.7l9.153,0l0,-4.7l13.853,0l0,-4.7l13.852,0l0,-4.7l13.853,0l0,-4.7l9.153,0l0,-4.7l14.347,0l0,-4.7l4.7,0c-0.247,-1.732 -0.247,-3.463 -0.495,-4.947c0.248,0.989 -1.237,0.989 -2.968,0.989Z" style="fill:#fff;"/><path d="M143.906,181.06l0,4.7l-18.553,0l0,-4.947l-4.205,0l0,-45.764l4.7,0c-0.248,-3.463 -0.248,-6.679 -0.495,-10.142l-4.205,0l0,-8.411l4.7,0l0,-4.7l18.552,0l0,-4.947l13.853,0l0,-4.7l18.553,0l0,-4.7l18.553,0l0,-4.7l13.852,0l0,-4.7l18.553,0l0,-4.7l9.153,0l0,-4.7l9.152,0l0,-4.7l4.7,0l0,-4.7l4.7,0c-0.247,-3.216 -0.247,-6.432 -0.494,-9.648l-32.406,0l0,4.7l-13.853,0l0,4.7l-18.552,0l0,4.7l-27.706,0l0,4.7l-9.152,0l0,4.701l-13.853,0l0,4.7l-13.853,0l0,4.7l-18.552,0l0,4.7l-4.701,0l0,-4.7l-9.152,0l0,4.7l-4.7,0l0,4.7l-18.553,0l0,4.7l-9.153,0l0,4.947l-13.852,0l0,4.7l-4.7,0l0,4.7l-4.7,0l0,9.153l4.7,0l0,4.7l23.5,0l0,-4.206l9.152,0l0,-4.7l3.711,0l0,4.7l4.7,0c0.247,7.669 0.247,15.09 0.495,22.759l4.7,0l0,13.852l-4.7,0l0,23.5l4.7,0l0,4.7l-4.7,0l0,23.253l4.7,0l0,37.353l4.7,0l0,4.7l-4.7,0l0,9.153l4.7,0l0,74.458l4.7,0l0,19.047l4.7,0l0,4.7c1.731,0.248 3.463,0.248 4.947,0.495l0,-9.152l4.7,0l0,-37.353l4.7,0l0,-102.659l4.206,0c0.247,-1.484 0.247,-2.968 0.494,-4.7c2.969,-0.247 6.185,-0.247 9.153,-0.495l0,-4.205l4.7,0l0,-4.7l13.853,0l0,-4.7l9.152,0l0,-4.7l4.7,0l0,-4.7l4.7,0c-0.247,-3.216 -0.247,-6.432 -0.494,-9.647c-7.916,-0.495 -15.585,-0.495 -23.5,-0.495Z" style="fill:#fff;"/></svg>