<svg width="358" height="211" viewBox="0 0 358 211" fill="none" xmlns="http://www.w3.org/2000/svg">
<path d="M175.355 108.677L153.36 109.809L149.273 120.084L134.264 120.856L157.224 67.8677L171.714 67.1225L194.749 117.745L179.442 118.533L175.355 108.677ZM171.045 98.0934L164.358 81.8589L157.67 98.7813L171.045 98.0934Z" fill="#F6F4F1"/>
<path d="M215.713 117.703C211.502 117.92 207.415 117.612 203.453 116.78C199.49 115.947 196.269 114.731 193.793 113.132L198.623 102.078C200.951 103.488 203.651 104.582 206.722 105.362C209.793 106.142 212.815 106.455 215.788 106.302C221.435 106.011 224.258 104.46 224.258 101.648C224.258 100.167 223.441 99.1235 221.806 98.5172C220.221 97.8586 217.645 97.2267 214.078 96.6203C210.165 95.9832 206.895 95.2632 204.27 94.4604C201.645 93.6089 199.39 92.1707 197.508 90.1454C195.626 88.1202 194.685 85.3076 194.685 81.7054C194.685 78.5472 195.552 75.6659 197.285 73.0604C199.019 70.4052 201.595 68.2501 205.013 66.5941C208.481 64.9355 212.717 63.9776 217.719 63.7203C221.138 63.5445 224.506 63.7656 227.825 64.3847C231.144 64.9541 234.067 65.914 236.593 67.2642L232.061 78.3769C227.106 75.9673 222.302 74.8822 217.645 75.1217C214.723 75.272 212.592 75.8257 211.255 76.7826C209.917 77.6898 209.249 78.8344 209.249 80.2163C209.249 81.5982 210.042 82.5935 211.626 83.2024C213.211 83.8113 215.763 84.3959 219.28 84.9551C223.243 85.5897 226.512 86.3351 229.088 87.1891C231.713 87.9919 233.968 89.4048 235.85 91.43C237.782 93.4029 238.748 96.19 238.748 99.7922C238.748 102.901 237.881 105.758 236.147 108.363C234.414 110.969 231.813 113.125 228.345 114.833C224.877 116.492 220.667 117.449 215.713 117.703Z" fill="#F6F4F1"/>
<path d="M270.289 114.897C264.79 115.179 259.836 114.274 255.427 112.182C251.068 110.088 247.625 107.057 245.099 103.092C242.621 99.1247 241.383 94.5742 241.383 89.4432C241.383 84.3121 242.621 79.6344 245.099 75.4121C247.625 71.1872 251.068 67.8023 255.427 65.2595C259.836 62.7141 264.79 61.2994 270.289 61.0166C275.787 60.7338 280.716 61.6402 285.076 63.7347C289.484 65.8266 292.927 68.8574 295.404 72.8249C297.931 76.7898 299.194 81.3389 299.194 86.47C299.194 91.601 297.931 96.2801 295.404 100.505C292.927 104.727 289.484 108.112 285.076 110.658C280.716 113.2 275.787 114.614 270.289 114.897ZM270.289 102.759C272.914 102.624 275.292 101.885 277.422 100.542C279.551 99.1982 281.236 97.385 282.475 95.101C283.713 92.7673 284.332 90.145 284.332 87.2343C284.332 84.3236 283.713 81.7894 282.475 79.6327C281.236 77.4264 279.551 75.7622 277.422 74.6378C275.292 73.5135 272.914 73.0194 270.289 73.1544C267.662 73.2895 265.285 74.0282 263.155 75.3716C261.025 76.715 259.34 78.5525 258.102 80.8862C256.864 83.1702 256.245 85.7681 256.245 88.6789C256.245 91.5896 256.864 94.1481 258.102 96.3545C259.34 98.5111 261.025 100.151 263.155 101.275C265.285 102.4 267.662 102.894 270.289 102.759Z" fill="#F6F4F1"/>
<path d="M354.901 57.7012V109.509L342.789 110.132L319.829 83.7065V111.313L305.413 112.054V60.2463L317.525 59.6234L340.486 86.0486V58.4425L354.901 57.7012Z" fill="#F6F4F1"/>
<path fill-rule="evenodd" clip-rule="evenodd" d="M133.086 0.511029L0 7.35563V139.912L133.086 133.068V0.511029ZM55.6653 111.132L47.6401 111.545V125.311L32.9275 126.068V74.2603L56.7056 73.0374C61.4111 72.7953 65.498 73.375 68.9661 74.7751C72.4341 76.1267 75.109 78.2095 76.9911 81.0234C78.8732 83.7887 79.8147 87.1194 79.8147 91.0177C79.8147 94.7679 78.9231 98.0945 77.1398 100.999C75.4063 103.851 72.9043 106.151 69.6348 107.898L80.855 123.603L65.1021 124.413L55.6653 111.132ZM64.9534 91.782C64.9534 89.3639 64.186 87.5288 62.6499 86.2756C61.114 85.0224 58.8359 84.4735 55.8137 84.6289L47.6401 85.0493V100.221L55.8137 99.8011C58.8359 99.6457 61.114 98.8867 62.6499 97.5253C64.186 96.1141 64.9534 94.2 64.9534 91.782ZM125.977 121.282V109.959L98.7806 111.357V101.884L121.89 100.695V89.7419L98.7806 90.9304V82.1971L125.011 80.8481V69.5244L84.2166 71.6225V123.43L125.977 121.282Z" fill="#F6F4F1"/>
<path d="M59.9697 199.724C54.521 200.004 49.6168 199.122 45.2571 197.076C40.9473 194.979 37.5536 191.946 35.0771 187.978C32.6006 184.011 31.3618 179.436 31.3618 174.255C31.3618 169.075 32.6006 164.373 35.0771 160.15C37.5536 155.928 40.9473 152.571 45.2571 150.079C49.6168 147.536 54.521 146.124 59.9697 145.844C64.7253 145.6 69.0107 146.218 72.8247 147.699C76.6387 149.181 79.8095 151.435 82.3359 154.463L72.9733 163.382C69.6051 159.509 65.5183 157.697 60.7128 157.944C57.8892 158.089 55.3627 158.835 53.1336 160.184C50.9543 161.53 49.2452 163.368 48.0064 165.702C46.8175 167.984 46.2231 170.58 46.2231 173.491C46.2231 176.402 46.8175 178.962 48.0064 181.17C49.2452 183.327 50.9543 184.966 53.1336 186.088C55.3627 187.207 57.8892 187.693 60.7128 187.548C65.5183 187.301 69.6051 185.068 72.9733 180.849L82.3359 188.804C79.8095 192.092 76.6387 194.672 72.8247 196.547C69.0107 198.421 64.7253 199.479 59.9697 199.724Z" fill="#F6F4F1"/>
<path d="M112.551 197.02C107.053 197.303 102.099 196.397 97.6907 194.306C93.3311 192.211 89.8886 189.18 87.3622 185.215C84.8846 181.248 83.6469 176.697 83.6469 171.566C83.6469 166.435 84.8846 161.758 87.3622 157.535C89.8886 153.31 93.3311 149.926 97.6907 147.383C102.099 144.837 107.053 143.423 112.551 143.14C118.05 142.857 122.979 143.763 127.338 145.858C131.747 147.95 135.19 150.981 137.666 154.948C140.193 158.913 141.456 163.462 141.456 168.593C141.456 173.724 140.193 178.403 137.666 182.628C135.19 186.85 131.747 190.235 127.338 192.781C122.979 195.324 118.05 196.737 112.551 197.02ZM112.551 184.882C115.177 184.747 117.555 184.008 119.684 182.665C121.815 181.321 123.499 179.508 124.737 177.224C125.976 174.89 126.595 172.268 126.595 169.358C126.595 166.447 125.976 163.913 124.737 161.756C123.499 159.55 121.815 157.885 119.684 156.761C117.555 155.637 115.177 155.143 112.551 155.278C109.926 155.413 107.548 156.151 105.419 157.495C103.288 158.838 101.603 160.676 100.366 163.009C99.127 165.293 98.5081 167.891 98.5081 170.802C98.5081 173.713 99.127 176.271 100.366 178.478C101.603 180.634 103.288 182.274 105.419 183.399C107.548 184.523 109.926 185.017 112.551 184.882Z" fill="#F6F4F1"/>
<path d="M197.164 139.824V191.632L185.053 192.255L162.092 165.83V193.436L147.677 194.177V142.37L159.788 141.747L182.749 168.172V140.566L197.164 139.824Z" fill="#F6F4F1"/>
<path d="M220.769 149.934V161.332L243.729 160.151V171.475L220.769 172.655V190.418L206.056 191.175V139.367L246.85 137.269V148.593L220.769 149.934Z" fill="#F6F4F1"/>
<path d="M275.19 144.767C276.578 145.337 277.643 146.245 278.386 147.489C279.179 148.682 279.575 150.116 279.575 151.794C279.575 154.261 278.782 156.3 277.197 157.912C275.612 159.523 273.58 160.392 271.104 160.519C268.627 160.647 266.595 159.987 265.01 158.538C263.426 157.09 262.633 155.132 262.633 152.666C262.633 151.531 262.781 150.388 263.079 149.238C263.376 148.089 264.045 146.376 265.085 144.102L269.84 132.978L278.683 132.523L275.19 144.767Z" fill="#F6F4F1" fill-opacity="0.5"/>
<path d="M307.397 134.155V185.963L292.685 186.719V146.235L283.025 146.732V135.409L307.397 134.155Z" fill="#F6F4F1" fill-opacity="0.5"/>
<path d="M332.756 131.815C340.236 131.43 346.131 133.323 350.441 137.492C354.75 141.661 356.905 147.867 356.905 156.106C356.905 162.027 355.741 167.194 353.413 171.606C351.134 175.966 347.89 179.365 343.679 181.802C339.518 184.237 334.688 185.595 329.189 185.878C326.267 186.028 323.468 185.827 320.792 185.274C318.117 184.77 315.838 183.974 313.956 182.887L319.306 172.102C321.833 173.749 325.028 174.472 328.892 174.274C332.607 174.083 335.604 172.917 337.883 170.777C340.211 168.585 341.574 165.53 341.97 161.611C338.998 164.281 335.109 165.739 330.304 165.986C327.034 166.154 324.038 165.642 321.313 164.45C318.588 163.208 316.408 161.396 314.774 159.013C313.189 156.579 312.396 153.757 312.396 150.55C312.396 147.048 313.288 143.918 315.071 141.162C316.904 138.353 319.356 136.155 322.427 134.566C325.548 132.926 328.991 132.008 332.756 131.815ZM333.796 155.297C335.927 155.187 337.66 154.506 338.998 153.253C340.335 151.95 341.004 150.313 341.004 148.339C341.004 146.415 340.335 144.895 338.998 143.78C337.71 142.612 335.951 142.086 333.722 142.201C331.641 142.308 329.932 142.988 328.595 144.241C327.307 145.491 326.663 147.128 326.663 149.151C326.663 151.125 327.307 152.67 328.595 153.788C329.932 154.903 331.666 155.406 333.796 155.297Z" fill="#F6F4F1" fill-opacity="0.5"/>
</svg>
