<svg width="134" height="140" viewBox="0 0 134 140" fill="none" xmlns="http://www.w3.org/2000/svg">
<path d="M133.086 0.511017L0 7.35562V139.912L133.086 133.068V0.511017Z" fill="#DD4B39"/>
<path d="M55.6652 111.132L47.6401 111.545V125.311L32.9275 126.068V74.2602L56.7055 73.0373C61.4112 72.7953 65.498 73.375 68.966 74.7751C72.434 76.1267 75.109 78.2094 76.9911 81.0234C78.8732 83.7887 79.8147 87.1194 79.8147 91.0176C79.8147 94.7679 78.9231 98.0945 77.1397 100.999C75.4063 103.85 72.9043 106.151 69.6348 107.898L80.855 123.603L65.1021 124.413L55.6652 111.132ZM64.9535 91.7819C64.9535 89.3639 64.186 87.5288 62.65 86.2756C61.114 85.0224 58.836 84.4735 55.8138 84.6289L47.6401 85.0493V100.221L55.8138 99.8011C58.836 99.6457 61.114 98.8867 62.65 97.5252C64.186 96.114 64.9535 94.2 64.9535 91.7819Z" fill="#000"/>
<path d="M125.977 109.959V121.282L84.2166 123.43V71.6225L125.011 69.5244V80.8481L98.7806 82.1971V90.9304L121.89 89.7419V100.695L98.7806 101.884V111.357L125.977 109.959Z" fill="#000"/>
</svg>
