<?xml version="1.0" encoding="UTF-8" standalone="no"?>
<!DOCTYPE svg PUBLIC "-//W3C//DTD SVG 1.1//EN" "http://www.w3.org/Graphics/SVG/1.1/DTD/svg11.dtd">
<svg width="100%" height="100%" viewBox="0 0 200 200" version="1.1" xmlns="http://www.w3.org/2000/svg" xmlns:xlink="http://www.w3.org/1999/xlink" xml:space="preserve" xmlns:serif="http://www.serif.com/" style="fill-rule:evenodd;clip-rule:evenodd;stroke-linejoin:round;stroke-miterlimit:1.41421;">
    <g transform="matrix(1,0,0,1,291,323.438)">
        <g id="a" transform="matrix(1.18916,0,0,1.18916,-274.241,-297.834)">
            <path d="M110.602,39.129C112.116,39.566 113.618,40.042 115.109,40.555C130.229,45.784 140,53.975 140,62.444C140,71.276 129.558,79.912 113.508,85.254C112.66,85.536 111.791,85.807 110.905,86.07C111.215,87.316 111.495,88.57 111.744,89.83C114.913,105.906 112.473,119.121 104.963,123.487C97.693,127.715 85.941,123.562 74.043,113.277C72.749,112.156 71.487,110.999 70.258,109.808C69.307,110.734 68.333,111.636 67.337,112.513C55.053,123.299 42.438,127.774 34.922,123.421C27.645,119.204 25.358,106.904 28.286,91.412C28.606,89.728 28.973,88.054 29.386,86.392C28.114,86.027 26.852,85.63 25.6,85.202C10.161,79.902 0,71.16 0,62.444C0,54.005 9.466,45.869 24.288,40.678C25.999,40.082 27.726,39.537 29.469,39.042C29.085,37.498 28.74,35.944 28.435,34.383C25.363,18.618 27.525,6.019 34.821,1.776C42.431,-2.649 55.103,2.103 67.745,13.379C68.532,14.082 69.305,14.799 70.065,15.532C71.2,14.431 72.362,13.36 73.551,12.318C85.614,1.773 97.559,-2.639 104.862,1.592C112.479,6.004 114.71,19.406 111.298,36.041C111.085,37.075 110.853,38.104 110.602,39.129ZM109.276,80.289C110.064,80.055 110.847,79.809 111.627,79.551L111.628,79.551C125.485,74.938 134.02,67.881 134.02,62.444C134.02,57.34 126.117,50.716 113.162,46.236C111.786,45.762 110.398,45.322 109,44.916C107.278,50.516 104.979,56.43 102.186,62.474C105.112,68.664 107.504,74.655 109.276,80.29L109.276,80.289ZM106.55,109.557C107.478,104.533 107.278,98.105 105.877,90.997C105.652,89.857 105.399,88.722 105.12,87.594C99.32,88.941 92.927,89.927 86.158,90.53C82.311,96.125 78.368,101.164 74.423,105.499C75.566,106.606 76.74,107.681 77.943,108.723C88.119,117.519 97.554,120.853 101.966,118.288C104.04,117.082 105.716,114.072 106.55,109.557ZM37.91,118.216C39.985,119.417 43.418,119.374 47.729,117.845C52.526,116.142 57.969,112.759 63.401,107.989C64.311,107.189 65.2,106.366 66.069,105.522C61.981,101.115 57.924,96.082 54.051,90.607C47.267,90.054 40.919,89.137 35.185,87.863C34.801,89.41 34.46,90.967 34.162,92.533C31.659,105.78 33.494,115.658 37.91,118.216ZM11.206,70.804C15.07,74.127 20.708,77.174 27.535,79.517C28.678,79.908 29.83,80.27 30.991,80.604C32.759,74.813 35.09,68.732 37.899,62.59C35.126,56.538 32.828,50.553 31.076,44.829C29.455,45.289 27.848,45.797 26.257,46.352C13.581,50.792 5.98,57.323 5.98,62.444C5.98,64.85 7.734,67.816 11.206,70.804ZM37.817,6.976C33.42,9.532 31.673,19.722 34.304,33.23L34.304,33.229C34.588,34.681 34.909,36.126 35.266,37.562C41.061,36.243 47.364,35.259 53.948,34.646C57.788,29.202 61.808,24.207 65.874,19.82C65.186,19.158 64.486,18.508 63.774,17.872C52.858,8.136 42.5,4.252 37.817,6.976ZM90.437,41.176C91.906,43.49 93.326,45.834 94.694,48.209C96.085,50.621 97.427,53.061 98.721,55.527C100.492,51.363 101.996,47.301 103.202,43.417C98.986,42.46 94.726,41.712 90.436,41.176L90.437,41.176ZM78.306,34.104C75.588,30.467 72.826,27.115 70.066,24.114C67.266,27.15 64.479,30.497 61.759,34.1C67.272,33.841 72.793,33.842 78.306,34.104ZM41.33,55.523C43.852,50.611 46.603,45.82 49.574,41.165C45.136,41.722 40.876,42.455 36.882,43.353C38.099,47.293 39.589,51.373 41.33,55.523ZM36.8,82.068C40.793,82.941 45.117,83.638 49.702,84.152C46.688,79.453 43.896,74.614 41.337,69.652C39.558,73.891 38.035,78.058 36.799,82.068L36.8,82.068ZM61.809,91.072C64.57,94.728 67.398,98.126 70.232,101.199C72.972,98.169 75.725,94.765 78.452,91.043C75.675,91.167 72.854,91.231 70,91.231C67.222,91.231 64.49,91.178 61.809,91.072ZM103.48,81.808C102.227,77.866 100.649,73.721 98.778,69.436C97.48,71.95 96.126,74.434 94.718,76.888C93.333,79.302 91.9,81.687 90.42,84.044C95.038,83.488 99.42,82.738 103.48,81.808ZM82.82,84.772C85.176,81.217 87.416,77.586 89.537,73.886C91.677,70.164 93.683,66.367 95.553,62.503C93.664,58.677 91.651,54.914 89.518,51.219C87.397,47.534 85.147,43.925 82.772,40.399C74.278,39.753 65.747,39.752 57.252,40.395C54.853,43.927 52.589,47.549 50.464,51.252L50.464,51.25C48.338,54.954 46.352,58.736 44.509,62.588C48.216,70.311 52.5,77.743 57.324,84.822C61.406,85.088 65.644,85.224 70,85.224C74.374,85.224 78.667,85.07 82.82,84.772ZM105.441,34.828C108.386,20.465 106.563,9.513 101.875,6.797C97.473,4.247 87.813,7.815 77.477,16.85C76.379,17.812 75.306,18.801 74.257,19.817C78.259,24.147 82.245,29.151 86.092,34.654C92.696,35.276 99.003,36.278 104.811,37.624C105.038,36.696 105.247,35.764 105.441,34.828Z" style="fill:white;"/>
        </g>
        <g id="b" transform="matrix(1.18916,0,0,1.18916,-207.648,-234.809)">
            <path d="M0,0L6.826,0L6.826,6.552L0,6.552L0,0ZM0,13.073L0,19L6.826,19L6.826,13.073L0,13.073ZM12.595,13.073L12.595,19L29,19L29,13.073L12.595,13.073ZM29,6.552L29,0L12.595,0L12.595,6.552L29,6.552Z" style="fill:white;"/>
        </g>
    </g>
</svg>
