<?xml version="1.0" encoding="UTF-8" standalone="no"?><!DOCTYPE svg PUBLIC "-//W3C//DTD SVG 1.1//EN" "http://www.w3.org/Graphics/SVG/1.1/DTD/svg11.dtd"><svg width="100%" height="100%" viewBox="0 0 430 200" version="1.1" xmlns="http://www.w3.org/2000/svg" xmlns:xlink="http://www.w3.org/1999/xlink" xml:space="preserve" xmlns:serif="http://www.serif.com/" style="fill-rule:evenodd;clip-rule:evenodd;stroke-linejoin:round;stroke-miterlimit:1.41421;"><g><g transform="matrix(1,0,0,1,-106.323,32.5453)"><path d="M308.469,12.671l16.704,0c4.864,0 8.629,1.173 11.296,3.52c2.666,2.346 4,5.653 4,9.92c0,2.858 -0.726,5.354 -2.176,7.488c-1.451,2.133 -3.499,3.733 -6.144,4.8c-0.384,0.128 -0.576,0.362 -0.576,0.704c0,0.17 0.064,0.384 0.192,0.64l2.24,3.2l5.312,14.528l-10.176,0l-6.592,-17.92l-3.84,0l0,17.92l-10.24,0l0,-44.8Zm17.088,18.56c1.834,0 3.264,-0.448 4.288,-1.344c1.024,-0.896 1.536,-2.155 1.536,-3.776c0,-1.622 -0.512,-2.88 -1.536,-3.776c-1.024,-0.896 -2.454,-1.344 -4.288,-1.344l-6.912,0l0,10.24l6.912,0Z" style="fill:#0a4bdc;fill-rule:nonzero;"/><path d="M370.421,43.455l-17.536,0c0,0.554 0.021,0.96 0.064,1.216c0.341,3.754 2.73,5.632 7.168,5.632c2.176,0 4.608,-0.619 7.296,-1.856l2.432,6.848c-2.816,1.877 -6.059,2.816 -9.728,2.816c-4.352,0 -7.936,-1.035 -10.752,-3.104c-2.816,-2.07 -4.48,-4.726 -4.992,-7.968c-0.256,-2.048 -0.384,-3.883 -0.384,-5.504c0,-1.707 0.128,-3.606 0.384,-5.696c0.469,-3.456 1.898,-6.262 4.288,-8.416c2.389,-2.155 5.482,-3.232 9.28,-3.232c4.608,0 8.064,1.354 10.368,4.064c2.304,2.709 3.456,6.666 3.456,11.872l-1.344,3.328Zm-7.36,-6.464c-0.342,-3.542 -2.006,-5.312 -4.992,-5.312c-1.579,0 -2.763,0.448 -3.552,1.344c-0.79,0.896 -1.291,2.218 -1.504,3.968l10.048,0Z" style="fill:#0a4bdc;fill-rule:nonzero;"/><path d="M395.637,55.487c-0.256,-0.342 -0.534,-0.512 -0.832,-0.512c-0.128,0 -0.342,0.106 -0.64,0.32c-2.304,1.792 -4.928,2.688 -7.872,2.688c-3.072,0 -5.515,-0.896 -7.328,-2.688c-1.814,-1.792 -2.72,-4.096 -2.72,-6.912c0,-2.987 1.056,-5.302 3.168,-6.944c2.112,-1.643 4.81,-2.464 8.096,-2.464l5.568,0l0,-3.136c0,-2.688 -1.899,-4.032 -5.696,-4.032c-2.518,0 -5.227,0.853 -8.128,2.56l-2.624,-7.168c3.626,-2.091 7.445,-3.136 11.456,-3.136c4.48,0 7.861,1.066 10.144,3.2c2.282,2.133 3.424,4.97 3.424,8.512l0,12.8l3.392,4.864l-7.36,4.8l-2.048,-2.752Zm-7.296,-4.224c1.45,0 2.602,-0.459 3.456,-1.376c0.853,-0.918 1.28,-2.102 1.28,-3.552l0,-0.832c0,-0.256 -0.107,-0.427 -0.32,-0.512c-0.214,-0.086 -0.491,-0.086 -0.832,0l-2.304,0.704l-1.984,0c-1.024,0 -1.792,0.224 -2.304,0.672c-0.512,0.448 -0.768,1.077 -0.768,1.888c0,0.853 0.362,1.568 1.088,2.144c0.725,0.576 1.621,0.864 2.688,0.864Z" style="fill:#0a4bdc;fill-rule:nonzero;"/><path d="M423.477,58.239c-4.224,0 -7.595,-1.046 -10.112,-3.136c-2.518,-2.091 -3.99,-4.843 -4.416,-8.256c-0.256,-2.048 -0.384,-3.968 -0.384,-5.76c0,-2.134 0.128,-4.054 0.384,-5.76c0.469,-3.371 1.941,-6.091 4.416,-8.16c2.474,-2.07 5.781,-3.104 9.92,-3.104c2.005,0 3.861,0.266 5.568,0.8c1.706,0.533 3.136,1.29 4.288,2.272l-2.56,7.04c-1.024,-0.768 -2.038,-1.334 -3.04,-1.696c-1.003,-0.363 -2.208,-0.544 -3.616,-0.544c-1.75,0 -3.158,0.448 -4.224,1.344c-1.067,0.896 -1.643,2.026 -1.728,3.392c-0.128,1.578 -0.192,3.05 -0.192,4.416c0,1.322 0.064,2.816 0.192,4.48c0.085,1.365 0.672,2.496 1.76,3.392c1.088,0.896 2.549,1.344 4.384,1.344c2.261,0 4.48,-0.683 6.656,-2.048l2.432,6.848c-2.688,2.09 -5.931,3.136 -9.728,3.136Z" style="fill:#0a4bdc;fill-rule:nonzero;"/><path d="M449.141,57.407c-2.219,0.042 -4.054,-0.651 -5.504,-2.08c-1.451,-1.43 -2.176,-3.275 -2.176,-5.536l0,-17.28l-5.056,0l0,-7.68l4.032,0c0.426,0 0.725,-0.118 0.896,-0.352c0.17,-0.235 0.362,-0.8 0.576,-1.696c0.213,-0.896 0.448,-2.048 0.704,-3.456l0.384,-2.176l7.808,0l0,7.68l5.312,0l0,7.68l-5.312,0l0,15.616c0,0.298 0.096,0.544 0.288,0.736c0.192,0.192 0.437,0.288 0.736,0.288l4.864,0l0,8.256l-7.552,0Z" style="fill:#0a4bdc;fill-rule:nonzero;"/><path d="M308.469,76.671l27.52,0l0,8.96l-17.28,0l0,8.96l16.192,0l0,8.96l-16.192,0l0,17.92l-10.24,0l0,-44.8Z" style="fill:#0a4bdc;fill-rule:nonzero;"/><path d="M344.949,76.671l9.6,0l0,7.808l-9.6,0l0,-7.808Zm0,20.096l-5.76,0l0,-7.936l15.36,0l0,32.64l-9.6,0l0,-24.704Z" style="fill:#0a4bdc;fill-rule:nonzero;"/><path d="M362.869,88.831l9.6,0l0,1.792c2.218,-1.707 4.8,-2.56 7.744,-2.56c3.072,0 5.664,0.853 7.776,2.56c2.112,1.706 3.168,4.181 3.168,7.424l0,23.424l-9.6,0l0,-20.096c0,-1.664 -0.31,-2.848 -0.928,-3.552c-0.619,-0.704 -1.782,-1.056 -3.488,-1.056c-1.707,0 -2.912,0.362 -3.616,1.088c-0.704,0.725 -1.056,1.898 -1.056,3.52l0,20.096l-9.6,0l0,-32.64Z" style="fill:#0a4bdc;fill-rule:nonzero;"/><path d="M406.837,121.407c-2.262,0 -4.107,-0.715 -5.536,-2.144c-1.43,-1.43 -2.144,-3.254 -2.144,-5.472l0,-40.32l9.344,0l0,38.656c0,0.298 0.096,0.544 0.288,0.736c0.192,0.192 0.437,0.288 0.736,0.288l3.456,0l0,8.256l-6.144,0Z" style="fill:#0a4bdc;fill-rule:nonzero;"/><path d="M436.213,119.487c-0.256,-0.342 -0.534,-0.512 -0.832,-0.512c-0.128,0 -0.342,0.106 -0.64,0.32c-2.304,1.792 -4.928,2.688 -7.872,2.688c-3.072,0 -5.515,-0.896 -7.328,-2.688c-1.814,-1.792 -2.72,-4.096 -2.72,-6.912c0,-2.987 1.056,-5.302 3.168,-6.944c2.112,-1.643 4.81,-2.464 8.096,-2.464l5.568,0l0,-3.136c0,-2.688 -1.899,-4.032 -5.696,-4.032c-2.518,0 -5.227,0.853 -8.128,2.56l-2.624,-7.168c3.626,-2.091 7.445,-3.136 11.456,-3.136c4.48,0 7.861,1.066 10.144,3.2c2.282,2.133 3.424,4.97 3.424,8.512l0,12.8l3.392,4.864l-7.36,4.8l-2.048,-2.752Zm-7.296,-4.224c1.45,0 2.602,-0.459 3.456,-1.376c0.853,-0.918 1.28,-2.102 1.28,-3.552l0,-0.832c0,-0.256 -0.107,-0.427 -0.32,-0.512c-0.214,-0.086 -0.491,-0.086 -0.832,0l-2.304,0.704l-1.984,0c-1.024,0 -1.792,0.224 -2.304,0.672c-0.512,0.448 -0.768,1.077 -0.768,1.888c0,0.853 0.362,1.568 1.088,2.144c0.725,0.576 1.621,0.864 2.688,0.864Z" style="fill:#0a4bdc;fill-rule:nonzero;"/><path d="M451.061,88.831l9.6,0l0,1.792c2.218,-1.707 4.8,-2.56 7.744,-2.56c3.072,0 5.664,0.853 7.776,2.56c2.112,1.706 3.168,4.181 3.168,7.424l0,23.424l-9.6,0l0,-20.096c0,-1.664 -0.31,-2.848 -0.928,-3.552c-0.619,-0.704 -1.782,-1.056 -3.488,-1.056c-1.707,0 -2.912,0.362 -3.616,1.088c-0.704,0.725 -1.056,1.898 -1.056,3.52l0,20.096l-9.6,0l0,-32.64Z" style="fill:#0a4bdc;fill-rule:nonzero;"/><path d="M497.973,122.111c-7.126,0 -10.987,-3.499 -11.584,-10.496c-0.214,-2.902 -0.32,-5.099 -0.32,-6.592c0,-2.219 0.106,-4.374 0.32,-6.464c0.341,-3.456 1.504,-6.07 3.488,-7.84c1.984,-1.771 4.896,-2.656 8.736,-2.656c1.365,0 2.677,0.181 3.936,0.544c1.258,0.362 2.272,0.842 3.04,1.44l0,-16.576l9.6,0l0,48l-9.6,0l0,-1.472c0,-0.512 -0.192,-0.768 -0.576,-0.768c-0.214,0 -0.47,0.085 -0.768,0.256l-4.096,2.368c-0.64,0.17 -1.366,0.256 -2.176,0.256Zm2.688,-7.936c1.536,0 2.741,-0.416 3.616,-1.248c0.874,-0.832 1.312,-1.91 1.312,-3.232l0,-9.216c0,-1.408 -0.406,-2.496 -1.216,-3.264c-0.811,-0.768 -2.048,-1.152 -3.712,-1.152c-1.408,0 -2.518,0.33 -3.328,0.992c-0.811,0.661 -1.259,1.525 -1.344,2.592c-0.171,2.389 -0.256,4.202 -0.256,5.44c0,1.28 0.085,3.114 0.256,5.504c0.085,1.066 0.512,1.93 1.28,2.592c0.768,0.661 1.898,0.992 3.392,0.992Z" style="fill:#0a4bdc;fill-rule:nonzero;"/></g></g><g id="logo-color"><path id="path0_fill" d="M148.954,72.17c1.785,0.521 3.556,1.087 5.315,1.698c17.831,6.221 29.354,15.968 29.354,26.045c0,10.511 -12.315,20.787 -31.242,27.143c-1,0.336 -2.025,0.659 -3.07,0.971c0.373,1.52 0.705,3.012 0.989,4.474c3.738,19.13 0.86,34.855 -7.997,40.05c-8.574,5.031 -22.432,0.089 -36.464,-12.149c-1.525,-1.334 -3.013,-2.71 -4.463,-4.128c-1.151,1.128 -2.3,2.204 -3.445,3.219c-14.487,12.835 -29.363,18.159 -38.227,12.98c-8.582,-5.018 -11.279,-19.655 -7.826,-38.089c0.377,-2.003 0.81,-3.996 1.297,-5.975c-1.499,-0.433 -2.988,-0.905 -4.464,-1.414c-18.208,-6.307 -30.191,-16.71 -30.191,-27.082c0,-10.041 11.164,-19.722 28.643,-25.899c1.954,-0.69 3.996,-1.339 6.111,-1.948c-0.453,-1.836 -0.86,-3.685 -1.221,-5.542c-3.622,-18.76 -1.073,-33.753 7.532,-38.801c8.973,-5.265 23.918,0.389 38.828,13.807c0.927,0.837 1.839,1.69 2.735,2.561c1.339,-1.309 2.709,-2.584 4.111,-3.824c14.226,-12.548 28.313,-17.797 36.925,-12.763c8.983,5.25 11.614,21.197 7.59,40.992c-0.251,1.23 -0.524,2.455 -0.82,3.674Zm-1.564,48.979c0.943,-0.283 1.87,-0.576 2.772,-0.879l0.002,0c16.341,-5.489 26.407,-13.887 26.407,-20.357c0,-6.073 -9.321,-13.955 -24.598,-19.285c-1.581,-0.552 -3.22,-1.074 -4.909,-1.57c-2.03,6.662 -4.742,13.7 -8.035,20.891c3.45,7.365 6.271,14.495 8.361,21.2Zm-3.215,34.826c1.094,-5.978 0.859,-13.626 -0.794,-22.086c-0.257,-1.32 -0.556,-2.67 -0.892,-4.048c-6.839,1.602 -14.38,2.776 -22.362,3.494c-4.537,6.658 -9.187,12.653 -13.839,17.812c1.39,1.355 2.776,2.635 4.152,3.836c11.999,10.467 23.126,14.434 28.329,11.382c2.446,-1.435 4.422,-5.017 5.406,-10.39Zm-80.947,10.304c2.447,1.429 6.496,1.378 11.579,-0.441l0.001,0c5.657,-2.027 12.076,-6.052 18.482,-11.728c1.072,-0.952 2.121,-1.932 3.145,-2.936c-4.821,-5.244 -9.605,-11.233 -14.172,-17.748c-8.001,-0.658 -15.487,-1.749 -22.249,-3.265c-0.453,1.84 -0.855,3.693 -1.206,5.556c-2.953,15.764 -0.788,27.518 4.42,30.562Zm-31.493,-56.418c4.558,3.955 11.206,7.58 19.257,10.369c1.348,0.465 2.707,0.896 4.076,1.293c2.085,-6.891 4.834,-14.126 8.147,-21.436c-3.271,-7.201 -5.981,-14.323 -8.047,-21.134c-1.912,0.547 -3.807,1.152 -5.683,1.812c-14.949,5.283 -23.912,13.055 -23.912,19.148c0,2.864 2.068,6.393 6.162,9.948Zm31.383,-75.951c-5.185,3.042 -7.246,15.167 -4.143,31.24l0,0c0.336,1.728 0.714,3.447 1.135,5.156c6.833,-1.569 14.267,-2.741 22.032,-3.471c4.528,-6.477 9.268,-12.42 14.064,-17.641c-0.828,-0.802 -1.654,-1.578 -2.477,-2.318c-12.873,-11.586 -25.087,-16.207 -30.611,-12.966Zm62.054,40.696c1.733,2.753 3.407,5.543 5.021,8.369c1.64,2.87 3.223,5.774 4.749,8.708c2.089,-4.955 3.862,-9.788 5.285,-14.41c-4.74,-1.097 -9.786,-1.993 -15.055,-2.667Zm-14.306,-8.415c-3.204,-4.327 -6.463,-8.316 -9.716,-11.888c-3.304,3.613 -6.59,7.596 -9.797,11.884c6.501,-0.309 13.013,-0.307 19.513,0.004Zm-43.605,25.487c1.487,-2.921 3.041,-5.807 4.661,-8.654c1.621,-2.85 3.309,-5.662 5.061,-8.431c-5.234,0.662 -10.257,1.536 -14.968,2.604c1.435,4.688 3.192,9.543 5.246,14.481Zm-5.343,31.587c4.709,1.039 9.808,1.868 15.215,2.48c-1.794,-2.823 -3.523,-5.688 -5.183,-8.594c-1.627,-2.849 -3.188,-5.737 -4.681,-8.66c-2.098,5.044 -3.893,10.003 -5.351,14.774Zm29.494,10.715c3.257,4.349 6.591,8.393 9.934,12.05c3.231,-3.607 6.477,-7.656 9.692,-12.085c-3.274,0.148 -6.601,0.224 -9.967,0.224c-3.275,0 -6.498,-0.063 -9.659,-0.189Zm49.143,-11.024c-1.478,-4.691 -3.339,-9.623 -5.545,-14.722c-1.531,2.991 -3.128,5.948 -4.788,8.867c-1.634,2.872 -3.324,5.711 -5.069,8.515c5.446,-0.662 10.614,-1.553 15.402,-2.66Zm-24.364,3.527c2.778,-4.23 5.419,-8.55 7.92,-12.953l0.001,0c2.523,-4.429 4.889,-8.947 7.094,-13.546c-2.228,-4.553 -4.602,-9.031 -7.117,-13.428c-2.502,-4.384 -5.155,-8.679 -7.955,-12.874c-4.909,-0.379 -9.95,-0.577 -15.062,-0.577c-5.089,0 -10.123,0.197 -15.034,0.573c-2.828,4.202 -5.499,8.511 -8.005,12.918l0,-0.002c-2.507,4.406 -4.849,8.907 -7.023,13.491c2.179,4.584 4.529,9.081 7.044,13.484c2.528,4.426 5.219,8.754 8.069,12.973c4.813,0.317 9.811,0.479 14.948,0.479c5.159,0 10.221,-0.183 15.12,-0.538Zm26.676,-59.43c3.473,-17.091 1.323,-30.124 -4.205,-33.356c-5.191,-3.034 -16.583,1.211 -28.773,11.963c-1.294,1.145 -2.56,2.322 -3.796,3.53c4.719,5.153 9.419,11.107 13.956,17.655c7.787,0.741 15.226,1.933 22.075,3.535c0.268,-1.104 0.514,-2.213 0.743,-3.327Z" style="fill:#0047e5;"/><g id="Flag"><rect id="path1_fill" x="84.561" y="88.676" width="34.2" height="22.609" style="fill:#fff;fill-rule:nonzero;"/><g id="Group"><rect id="path2_fill" x="92.611" y="88.676" width="6.803" height="22.609" style="fill:#0047e6;fill-rule:nonzero;"/><rect id="path3_fill" x="84.561" y="96.473" width="34.2" height="7.76" style="fill:#0047e6;fill-rule:nonzero;"/></g></g></g></svg>