<?xml version="1.0" encoding="UTF-8" standalone="no"?><!DOCTYPE svg PUBLIC "-//W3C//DTD SVG 1.1//EN" "http://www.w3.org/Graphics/SVG/1.1/DTD/svg11.dtd"><svg width="100%" height="100%" viewBox="0 0 430 200" version="1.1" xmlns="http://www.w3.org/2000/svg" xmlns:xlink="http://www.w3.org/1999/xlink" xml:space="preserve" xmlns:serif="http://www.serif.com/" style="fill-rule:evenodd;clip-rule:evenodd;stroke-linejoin:round;stroke-miterlimit:1.41421;"><g><path id="a" d="M150.282,72.134c1.8,0.52 3.587,1.086 5.36,1.696c17.98,6.218 29.599,15.958 29.599,26.029c0,10.503 -12.417,20.773 -31.503,27.125c-1.009,0.335 -2.042,0.658 -3.096,0.97c0.369,1.482 0.702,2.973 0.998,4.472c3.769,19.116 0.867,34.831 -8.064,40.023c-8.645,5.028 -22.62,0.089 -36.768,-12.141c-1.539,-1.333 -3.04,-2.709 -4.501,-4.125c-1.131,1.101 -2.289,2.173 -3.474,3.216c-14.607,12.826 -29.608,18.148 -38.546,12.972c-8.654,-5.015 -11.373,-19.642 -7.891,-38.064c0.38,-2.003 0.817,-3.993 1.308,-5.97c-1.513,-0.434 -3.014,-0.906 -4.502,-1.415c-18.36,-6.302 -30.443,-16.698 -30.443,-27.063c0,-10.035 11.257,-19.71 28.882,-25.883c2.035,-0.708 4.089,-1.357 6.161,-1.945c-0.456,-1.836 -0.866,-3.684 -1.229,-5.54c-3.653,-18.747 -1.082,-33.73 7.594,-38.775c9.049,-5.262 24.118,0.389 39.151,13.798c0.936,0.835 1.856,1.688 2.759,2.56c1.35,-1.309 2.732,-2.583 4.146,-3.822c14.344,-12.54 28.549,-17.786 37.233,-12.755c9.058,5.247 11.711,21.184 7.654,40.965c-0.254,1.229 -0.529,2.453 -0.828,3.672Zm-1.577,48.946c0.937,-0.278 1.869,-0.57 2.796,-0.878l0.001,0c16.478,-5.485 26.628,-13.877 26.628,-20.343c0,-6.069 -9.398,-13.946 -24.804,-19.273c-1.636,-0.564 -3.286,-1.088 -4.949,-1.57c-2.048,6.659 -4.782,13.692 -8.103,20.879c3.48,7.361 6.324,14.485 8.431,21.186l0,-0.001Zm-3.241,34.804c1.103,-5.974 0.865,-13.618 -0.801,-22.071c-0.268,-1.355 -0.568,-2.705 -0.9,-4.046c-6.897,1.601 -14.499,2.774 -22.549,3.491c-4.574,6.653 -9.263,12.646 -13.954,17.801c1.359,1.316 2.755,2.594 4.185,3.833c12.101,10.46 23.321,14.425 28.568,11.375c2.466,-1.435 4.459,-5.014 5.451,-10.383Zm-81.624,10.297c2.468,1.428 6.55,1.377 11.676,-0.441c5.705,-2.025 12.177,-6.048 18.637,-11.721c1.082,-0.951 2.139,-1.929 3.172,-2.933c-4.861,-5.241 -9.685,-11.226 -14.291,-17.736c-8.067,-0.658 -15.616,-1.748 -22.434,-3.263c-0.457,1.839 -0.863,3.691 -1.217,5.553c-2.976,15.753 -0.794,27.499 4.457,30.541Zm-31.755,-56.38c4.595,3.951 11.299,7.575 19.418,10.361c1.359,0.465 2.729,0.895 4.109,1.292c2.103,-6.886 4.875,-14.117 8.215,-21.421c-3.298,-7.197 -6.03,-14.314 -8.114,-21.121c-1.927,0.548 -3.838,1.152 -5.73,1.812c-15.074,5.279 -24.113,13.046 -24.113,19.135c0,2.862 2.086,6.389 6.215,9.942Zm31.644,-75.902c-5.228,3.04 -7.306,15.157 -4.177,31.22l0,-0.001c0.338,1.727 0.72,3.445 1.144,5.153c6.891,-1.569 14.386,-2.739 22.216,-3.468c4.566,-6.473 9.346,-12.413 14.182,-17.63c-0.819,-0.787 -1.651,-1.56 -2.498,-2.317c-12.98,-11.577 -25.298,-16.196 -30.867,-12.957Zm62.574,40.669c1.747,2.752 3.435,5.54 5.062,8.364c1.654,2.868 3.25,5.77 4.789,8.702c2.106,-4.952 3.894,-9.782 5.328,-14.401c-5.013,-1.138 -10.079,-2.027 -15.18,-2.665l0.001,0Zm-14.426,-8.409c-3.232,-4.325 -6.516,-8.311 -9.799,-11.88c-3.329,3.61 -6.643,7.59 -9.878,11.875c6.556,-0.308 13.121,-0.307 19.677,0.005Zm-43.97,25.47c2.999,-5.841 6.271,-11.539 9.803,-17.074c-5.277,0.663 -10.343,1.534 -15.092,2.602c1.447,4.686 3.219,9.537 5.289,14.472Zm-5.387,31.566c4.748,1.039 9.89,1.867 15.343,2.479c-3.585,-5.589 -6.905,-11.343 -9.948,-17.243c-2.115,5.041 -3.926,9.996 -5.396,14.764l0.001,0Zm29.74,10.708c3.283,4.347 6.646,8.388 10.016,12.042c3.258,-3.603 6.532,-7.651 9.775,-12.077c-3.303,0.148 -6.657,0.224 -10.051,0.224c-3.303,0 -6.552,-0.063 -9.74,-0.189Zm49.553,-11.017c-1.49,-4.687 -3.367,-9.616 -5.591,-14.712c-1.544,2.989 -3.154,5.944 -4.828,8.862c-1.648,2.87 -3.352,5.707 -5.111,8.509c5.491,-0.661 10.702,-1.553 15.53,-2.659Zm-24.568,3.525c2.802,-4.228 5.466,-8.545 7.988,-12.945c2.544,-4.426 4.93,-8.941 7.153,-13.536c-2.246,-4.55 -4.639,-9.025 -7.176,-13.419c-2.522,-4.382 -5.198,-8.673 -8.022,-12.867c-10.101,-0.767 -20.246,-0.769 -30.347,-0.004c-2.853,4.2 -5.546,8.506 -8.072,12.91l0,-0.002c-2.529,4.404 -4.891,8.901 -7.082,13.483c4.409,9.183 9.503,18.021 15.239,26.439c4.854,0.317 9.894,0.478 15.074,0.478c5.201,0 10.306,-0.183 15.245,-0.537Zm26.9,-59.391c3.502,-17.08 1.334,-30.104 -4.241,-33.333c-5.234,-3.033 -16.722,1.21 -29.013,11.954c-1.305,1.144 -2.582,2.321 -3.829,3.528c4.759,5.149 9.499,11.1 14.074,17.644c7.853,0.739 15.353,1.931 22.26,3.532c0.27,-1.104 0.518,-2.212 0.749,-3.325Z"/><path id="b" d="M83.352,88.629l8.117,0l0,7.791l-8.117,0l0,-7.791Zm0,15.546l0,7.048l8.117,0l0,-7.048l-8.117,0Zm14.977,0l0,7.048l19.508,0l0,-7.048l-19.508,0Zm19.508,-7.755l0,-7.791l-19.508,0l0,7.791l19.508,0Z"/><g transform="matrix(1,0,0,1,-106.323,32.5453)"><path d="M308.469,12.671l16.704,0c4.864,0 8.629,1.173 11.296,3.52c2.666,2.346 4,5.653 4,9.92c0,2.858 -0.726,5.354 -2.176,7.488c-1.451,2.133 -3.499,3.733 -6.144,4.8c-0.384,0.128 -0.576,0.362 -0.576,0.704c0,0.17 0.064,0.384 0.192,0.64l2.24,3.2l5.312,14.528l-10.176,0l-6.592,-17.92l-3.84,0l0,17.92l-10.24,0l0,-44.8Zm17.088,18.56c1.834,0 3.264,-0.448 4.288,-1.344c1.024,-0.896 1.536,-2.155 1.536,-3.776c0,-1.622 -0.512,-2.88 -1.536,-3.776c-1.024,-0.896 -2.454,-1.344 -4.288,-1.344l-6.912,0l0,10.24l6.912,0Z" style="fill-rule:nonzero;"/><path d="M370.421,43.455l-17.536,0c0,0.554 0.021,0.96 0.064,1.216c0.341,3.754 2.73,5.632 7.168,5.632c2.176,0 4.608,-0.619 7.296,-1.856l2.432,6.848c-2.816,1.877 -6.059,2.816 -9.728,2.816c-4.352,0 -7.936,-1.035 -10.752,-3.104c-2.816,-2.07 -4.48,-4.726 -4.992,-7.968c-0.256,-2.048 -0.384,-3.883 -0.384,-5.504c0,-1.707 0.128,-3.606 0.384,-5.696c0.469,-3.456 1.898,-6.262 4.288,-8.416c2.389,-2.155 5.482,-3.232 9.28,-3.232c4.608,0 8.064,1.354 10.368,4.064c2.304,2.709 3.456,6.666 3.456,11.872l-1.344,3.328Zm-7.36,-6.464c-0.342,-3.542 -2.006,-5.312 -4.992,-5.312c-1.579,0 -2.763,0.448 -3.552,1.344c-0.79,0.896 -1.291,2.218 -1.504,3.968l10.048,0Z" style="fill-rule:nonzero;"/><path d="M395.637,55.487c-0.256,-0.342 -0.534,-0.512 -0.832,-0.512c-0.128,0 -0.342,0.106 -0.64,0.32c-2.304,1.792 -4.928,2.688 -7.872,2.688c-3.072,0 -5.515,-0.896 -7.328,-2.688c-1.814,-1.792 -2.72,-4.096 -2.72,-6.912c0,-2.987 1.056,-5.302 3.168,-6.944c2.112,-1.643 4.81,-2.464 8.096,-2.464l5.568,0l0,-3.136c0,-2.688 -1.899,-4.032 -5.696,-4.032c-2.518,0 -5.227,0.853 -8.128,2.56l-2.624,-7.168c3.626,-2.091 7.445,-3.136 11.456,-3.136c4.48,0 7.861,1.066 10.144,3.2c2.282,2.133 3.424,4.97 3.424,8.512l0,12.8l3.392,4.864l-7.36,4.8l-2.048,-2.752Zm-7.296,-4.224c1.45,0 2.602,-0.459 3.456,-1.376c0.853,-0.918 1.28,-2.102 1.28,-3.552l0,-0.832c0,-0.256 -0.107,-0.427 -0.32,-0.512c-0.214,-0.086 -0.491,-0.086 -0.832,0l-2.304,0.704l-1.984,0c-1.024,0 -1.792,0.224 -2.304,0.672c-0.512,0.448 -0.768,1.077 -0.768,1.888c0,0.853 0.362,1.568 1.088,2.144c0.725,0.576 1.621,0.864 2.688,0.864Z" style="fill-rule:nonzero;"/><path d="M423.477,58.239c-4.224,0 -7.595,-1.046 -10.112,-3.136c-2.518,-2.091 -3.99,-4.843 -4.416,-8.256c-0.256,-2.048 -0.384,-3.968 -0.384,-5.76c0,-2.134 0.128,-4.054 0.384,-5.76c0.469,-3.371 1.941,-6.091 4.416,-8.16c2.474,-2.07 5.781,-3.104 9.92,-3.104c2.005,0 3.861,0.266 5.568,0.8c1.706,0.533 3.136,1.29 4.288,2.272l-2.56,7.04c-1.024,-0.768 -2.038,-1.334 -3.04,-1.696c-1.003,-0.363 -2.208,-0.544 -3.616,-0.544c-1.75,0 -3.158,0.448 -4.224,1.344c-1.067,0.896 -1.643,2.026 -1.728,3.392c-0.128,1.578 -0.192,3.05 -0.192,4.416c0,1.322 0.064,2.816 0.192,4.48c0.085,1.365 0.672,2.496 1.76,3.392c1.088,0.896 2.549,1.344 4.384,1.344c2.261,0 4.48,-0.683 6.656,-2.048l2.432,6.848c-2.688,2.09 -5.931,3.136 -9.728,3.136Z" style="fill-rule:nonzero;"/><path d="M449.141,57.407c-2.219,0.042 -4.054,-0.651 -5.504,-2.08c-1.451,-1.43 -2.176,-3.275 -2.176,-5.536l0,-17.28l-5.056,0l0,-7.68l4.032,0c0.426,0 0.725,-0.118 0.896,-0.352c0.17,-0.235 0.362,-0.8 0.576,-1.696c0.213,-0.896 0.448,-2.048 0.704,-3.456l0.384,-2.176l7.808,0l0,7.68l5.312,0l0,7.68l-5.312,0l0,15.616c0,0.298 0.096,0.544 0.288,0.736c0.192,0.192 0.437,0.288 0.736,0.288l4.864,0l0,8.256l-7.552,0Z" style="fill-rule:nonzero;"/><path d="M308.469,76.671l27.52,0l0,8.96l-17.28,0l0,8.96l16.192,0l0,8.96l-16.192,0l0,17.92l-10.24,0l0,-44.8Z" style="fill-rule:nonzero;"/><path d="M344.949,76.671l9.6,0l0,7.808l-9.6,0l0,-7.808Zm0,20.096l-5.76,0l0,-7.936l15.36,0l0,32.64l-9.6,0l0,-24.704Z" style="fill-rule:nonzero;"/><path d="M362.869,88.831l9.6,0l0,1.792c2.218,-1.707 4.8,-2.56 7.744,-2.56c3.072,0 5.664,0.853 7.776,2.56c2.112,1.706 3.168,4.181 3.168,7.424l0,23.424l-9.6,0l0,-20.096c0,-1.664 -0.31,-2.848 -0.928,-3.552c-0.619,-0.704 -1.782,-1.056 -3.488,-1.056c-1.707,0 -2.912,0.362 -3.616,1.088c-0.704,0.725 -1.056,1.898 -1.056,3.52l0,20.096l-9.6,0l0,-32.64Z" style="fill-rule:nonzero;"/><path d="M406.837,121.407c-2.262,0 -4.107,-0.715 -5.536,-2.144c-1.43,-1.43 -2.144,-3.254 -2.144,-5.472l0,-40.32l9.344,0l0,38.656c0,0.298 0.096,0.544 0.288,0.736c0.192,0.192 0.437,0.288 0.736,0.288l3.456,0l0,8.256l-6.144,0Z" style="fill-rule:nonzero;"/><path d="M436.213,119.487c-0.256,-0.342 -0.534,-0.512 -0.832,-0.512c-0.128,0 -0.342,0.106 -0.64,0.32c-2.304,1.792 -4.928,2.688 -7.872,2.688c-3.072,0 -5.515,-0.896 -7.328,-2.688c-1.814,-1.792 -2.72,-4.096 -2.72,-6.912c0,-2.987 1.056,-5.302 3.168,-6.944c2.112,-1.643 4.81,-2.464 8.096,-2.464l5.568,0l0,-3.136c0,-2.688 -1.899,-4.032 -5.696,-4.032c-2.518,0 -5.227,0.853 -8.128,2.56l-2.624,-7.168c3.626,-2.091 7.445,-3.136 11.456,-3.136c4.48,0 7.861,1.066 10.144,3.2c2.282,2.133 3.424,4.97 3.424,8.512l0,12.8l3.392,4.864l-7.36,4.8l-2.048,-2.752Zm-7.296,-4.224c1.45,0 2.602,-0.459 3.456,-1.376c0.853,-0.918 1.28,-2.102 1.28,-3.552l0,-0.832c0,-0.256 -0.107,-0.427 -0.32,-0.512c-0.214,-0.086 -0.491,-0.086 -0.832,0l-2.304,0.704l-1.984,0c-1.024,0 -1.792,0.224 -2.304,0.672c-0.512,0.448 -0.768,1.077 -0.768,1.888c0,0.853 0.362,1.568 1.088,2.144c0.725,0.576 1.621,0.864 2.688,0.864Z" style="fill-rule:nonzero;"/><path d="M451.061,88.831l9.6,0l0,1.792c2.218,-1.707 4.8,-2.56 7.744,-2.56c3.072,0 5.664,0.853 7.776,2.56c2.112,1.706 3.168,4.181 3.168,7.424l0,23.424l-9.6,0l0,-20.096c0,-1.664 -0.31,-2.848 -0.928,-3.552c-0.619,-0.704 -1.782,-1.056 -3.488,-1.056c-1.707,0 -2.912,0.362 -3.616,1.088c-0.704,0.725 -1.056,1.898 -1.056,3.52l0,20.096l-9.6,0l0,-32.64Z" style="fill-rule:nonzero;"/><path d="M497.973,122.111c-7.126,0 -10.987,-3.499 -11.584,-10.496c-0.214,-2.902 -0.32,-5.099 -0.32,-6.592c0,-2.219 0.106,-4.374 0.32,-6.464c0.341,-3.456 1.504,-6.07 3.488,-7.84c1.984,-1.771 4.896,-2.656 8.736,-2.656c1.365,0 2.677,0.181 3.936,0.544c1.258,0.362 2.272,0.842 3.04,1.44l0,-16.576l9.6,0l0,48l-9.6,0l0,-1.472c0,-0.512 -0.192,-0.768 -0.576,-0.768c-0.214,0 -0.47,0.085 -0.768,0.256l-4.096,2.368c-0.64,0.17 -1.366,0.256 -2.176,0.256Zm2.688,-7.936c1.536,0 2.741,-0.416 3.616,-1.248c0.874,-0.832 1.312,-1.91 1.312,-3.232l0,-9.216c0,-1.408 -0.406,-2.496 -1.216,-3.264c-0.811,-0.768 -2.048,-1.152 -3.712,-1.152c-1.408,0 -2.518,0.33 -3.328,0.992c-0.811,0.661 -1.259,1.525 -1.344,2.592c-0.171,2.389 -0.256,4.202 -0.256,5.44c0,1.28 0.085,3.114 0.256,5.504c0.085,1.066 0.512,1.93 1.28,2.592c0.768,0.661 1.898,0.992 3.392,0.992Z" style="fill-rule:nonzero;"/></g></g></svg>