<?xml version="1.0" encoding="UTF-8" standalone="no"?>
<!DOCTYPE svg PUBLIC "-//W3C//DTD SVG 1.1//EN" "http://www.w3.org/Graphics/SVG/1.1/DTD/svg11.dtd">
<svg width="100%" height="100%" viewBox="0 0 200 200" version="1.1" xmlns="http://www.w3.org/2000/svg" xmlns:xlink="http://www.w3.org/1999/xlink" xml:space="preserve" xmlns:serif="http://www.serif.com/" style="fill-rule:evenodd;clip-rule:evenodd;stroke-linejoin:round;stroke-miterlimit:1.41421;">
    <g transform="matrix(1,0,0,1,291,323.438)">
        <g id="b" transform="matrix(1.18916,0,0,1.18916,-208.648,-234.809)">
            <path d="M0,0L6.826,0L6.826,6.552L0,6.552L0,0ZM0,13.073L0,19L6.826,19L6.826,13.073L0,13.073ZM12.595,13.073L12.595,19L29,19L29,13.073L12.595,13.073ZM29,6.552L29,0L12.595,0L12.595,6.552L29,6.552Z" style="fill:white;"/>
        </g>
        <g id="path0_fill" transform="matrix(1.1793,0,0,1.18994,-274.48,-297.828)">
            <path d="M110.602,39.129C112.116,39.566 113.618,40.042 115.109,40.555C130.229,45.784 140,53.975 140,62.444C140,71.276 129.558,79.912 113.508,85.253C112.66,85.536 111.791,85.807 110.905,86.07C111.221,87.347 111.503,88.601 111.744,89.829C114.913,105.906 112.473,119.121 104.963,123.487C97.693,127.715 85.941,123.562 74.043,113.277C72.75,112.156 71.488,111 70.258,109.808C69.283,110.756 68.308,111.66 67.337,112.513C55.053,123.299 42.438,127.774 34.922,123.421C27.645,119.204 25.358,106.904 28.286,91.412C28.606,89.728 28.973,88.054 29.386,86.391C28.114,86.027 26.852,85.63 25.6,85.202C10.161,79.902 0,71.16 0,62.444C0,54.005 9.466,45.869 24.288,40.678C25.945,40.098 27.677,39.553 29.47,39.042C29.085,37.498 28.74,35.945 28.435,34.384C25.363,18.618 27.525,6.019 34.821,1.776C42.43,-2.649 55.103,2.103 67.745,13.379C68.532,14.082 69.305,14.8 70.065,15.532C71.2,14.431 72.362,13.36 73.551,12.318C85.614,1.773 97.559,-2.639 104.862,1.592C112.479,6.004 114.71,19.406 111.298,36.041C111.085,37.074 110.853,38.104 110.602,39.129ZM109.276,80.29C110.076,80.051 110.862,79.806 111.627,79.551L111.628,79.551C125.485,74.938 134.02,67.88 134.02,62.444C134.02,57.34 126.117,50.716 113.162,46.236C111.822,45.773 110.432,45.334 109,44.917C107.278,50.515 104.979,56.43 102.186,62.474C105.112,68.663 107.504,74.655 109.276,80.29ZM106.55,109.557C107.478,104.533 107.278,98.105 105.877,90.996C105.659,89.887 105.405,88.752 105.12,87.594C99.321,88.941 92.927,89.927 86.158,90.53C82.311,96.125 78.368,101.164 74.423,105.499C75.602,106.638 76.777,107.714 77.944,108.723C88.119,117.519 97.554,120.853 101.966,118.288C104.04,117.082 105.716,114.072 106.55,109.557ZM37.91,118.216C39.985,119.417 43.418,119.374 47.729,117.845L47.73,117.845C52.526,116.142 57.969,112.759 63.401,107.989C64.311,107.189 65.2,106.366 66.069,105.522C61.981,101.115 57.924,96.082 54.051,90.607C47.267,90.054 40.919,89.137 35.185,87.863C34.801,89.41 34.46,90.967 34.162,92.532C31.659,105.78 33.494,115.658 37.91,118.216ZM11.206,70.804C15.07,74.127 20.708,77.173 27.535,79.517C28.678,79.908 29.83,80.27 30.991,80.604C32.759,74.813 35.09,68.732 37.899,62.59C35.126,56.538 32.828,50.553 31.076,44.829C29.455,45.289 27.848,45.797 26.257,46.352C13.581,50.791 5.98,57.323 5.98,62.444C5.98,64.85 7.734,67.816 11.206,70.804ZM37.817,6.976C33.42,9.532 31.673,19.722 34.304,33.23L34.304,33.229C34.589,34.681 34.91,36.126 35.266,37.562C41.061,36.243 47.364,35.259 53.948,34.646C57.788,29.202 61.807,24.207 65.874,19.82C65.172,19.146 64.471,18.494 63.774,17.872C52.858,8.136 42.501,4.252 37.817,6.976ZM90.437,41.176C91.906,43.489 93.325,45.834 94.694,48.209C96.085,50.621 97.427,53.061 98.721,55.527C100.492,51.363 101.996,47.301 103.202,43.417C99.183,42.495 94.904,41.742 90.437,41.176ZM78.306,34.104C75.588,30.467 72.825,27.115 70.067,24.113C67.265,27.15 64.479,30.497 61.759,34.1C67.272,33.841 72.793,33.842 78.306,34.104ZM41.33,55.523C42.591,53.068 43.909,50.643 45.282,48.25C46.657,45.855 48.088,43.492 49.574,41.164C45.136,41.722 40.876,42.455 36.882,43.353C38.099,47.293 39.589,51.373 41.33,55.523ZM36.799,82.068C40.792,82.941 45.117,83.638 49.702,84.152C48.18,81.78 46.714,79.372 45.306,76.929C43.927,74.535 42.603,72.109 41.337,69.652C39.558,73.891 38.035,78.058 36.799,82.068ZM61.809,91.072C64.571,94.728 67.398,98.126 70.232,101.199C72.972,98.168 75.725,94.765 78.451,91.043C75.675,91.167 72.854,91.232 70,91.232C67.222,91.232 64.489,91.178 61.809,91.072ZM103.48,81.808C102.227,77.866 100.649,73.721 98.778,69.436C97.48,71.95 96.126,74.435 94.718,76.888C93.333,79.302 91.9,81.687 90.42,84.044C95.038,83.488 99.42,82.738 103.48,81.808ZM82.821,84.772C85.176,81.218 87.416,77.587 89.537,73.887L89.537,73.887C91.677,70.165 93.683,66.368 95.553,62.503C93.664,58.677 91.651,54.913 89.518,51.219C87.397,47.534 85.147,43.925 82.772,40.4C78.61,40.081 74.335,39.914 70.001,39.914C65.685,39.914 61.416,40.08 57.253,40.396C54.854,43.927 52.59,47.548 50.464,51.252L50.464,51.251C48.339,54.953 46.352,58.735 44.51,62.588C46.357,66.44 48.349,70.22 50.482,73.92C52.625,77.639 54.908,81.276 57.324,84.822C61.406,85.088 65.644,85.224 70,85.224C74.374,85.224 78.667,85.07 82.821,84.772ZM105.441,34.829C108.386,20.465 106.563,9.513 101.875,6.797C97.473,4.247 87.813,7.815 77.477,16.851C76.38,17.812 75.306,18.802 74.258,19.817C78.259,24.148 82.245,29.151 86.092,34.654C92.696,35.276 99.003,36.278 104.811,37.624C105.038,36.696 105.247,35.764 105.441,34.829Z" style="fill:rgb(0,71,229);"/>
        </g>
        <g id="Flag" transform="matrix(1.1793,0,0,1.18994,930.769,195.996)">
            <g id="path1_fill" transform="matrix(1,0,0,1,-966,-362)">
                <rect x="0" y="0" width="29" height="19" style="fill:white;fill-rule:nonzero;"/>
            </g>
            <g id="Group">
                <g id="path2_fill" transform="matrix(1,0,0,1,-959.174,-362)">
                    <rect x="0" y="0" width="5.769" height="19" style="fill:rgb(0,71,230);fill-rule:nonzero;"/>
                </g>
                <g id="path3_fill" transform="matrix(1,0,0,1,-966,-355.448)">
                    <rect x="0" y="0" width="29" height="6.522" style="fill:rgb(0,71,230);fill-rule:nonzero;"/>
                </g>
            </g>
        </g>
    </g>
</svg>
