<?xml version="1.0" encoding="UTF-8" standalone="no"?>
<!DOCTYPE svg PUBLIC "-//W3C//DTD SVG 1.1//EN" "http://www.w3.org/Graphics/SVG/1.1/DTD/svg11.dtd">
<svg width="100%" height="100%" viewBox="0 0 452 200" version="1.1" xmlns="http://www.w3.org/2000/svg" xmlns:xlink="http://www.w3.org/1999/xlink" xml:space="preserve" xmlns:serif="http://www.serif.com/" style="fill-rule:evenodd;clip-rule:evenodd;stroke-linejoin:round;stroke-miterlimit:1.41421;">
    <g transform="matrix(1,0,0,1,291,323.438)">
        <g id="b" transform="matrix(1.18916,0,0,1.18916,-207.648,-234.809)">
            <path d="M0,0L6.826,0L6.826,6.552L0,6.552L0,0ZM0,13.073L0,19L6.826,19L6.826,13.073L0,13.073ZM12.595,13.073L12.595,19L29,19L29,13.073L12.595,13.073ZM29,6.552L29,0L12.595,0L12.595,6.552L29,6.552Z" style="fill:white;"/>
        </g>
        <g transform="matrix(1,0,0,1,-397.323,-290.892)">
            <path d="M323.701,58.111C318.751,58.111 314.869,56.884 312.053,54.431C309.237,51.977 307.637,48.425 307.253,43.775C306.997,40.447 306.869,37.545 306.869,35.071C306.869,31.743 306.997,28.841 307.253,26.367C307.807,21.673 309.621,18.089 312.693,15.615C315.765,13.14 319.818,11.903 324.853,11.903C329.717,11.903 333.898,13.204 337.397,15.807L334.261,23.807C333.023,22.697 331.637,21.929 330.101,21.503C328.565,21.076 326.815,20.863 324.853,20.863C322.207,20.863 320.234,21.46 318.933,22.655C317.631,23.849 316.874,25.62 316.661,27.967C316.447,30.527 316.341,32.895 316.341,35.071C316.341,36.905 316.447,39.465 316.661,42.751C316.831,44.799 317.493,46.367 318.645,47.455C319.797,48.543 321.397,49.108 323.445,49.151C325.45,49.151 327.199,48.98 328.693,48.639L328.693,39.551L324.341,39.551L324.341,30.591L340.981,30.591L340.981,39.551L337.013,39.551L337.013,54.655C333.898,56.959 329.461,58.111 323.701,58.111Z" style="fill:white;fill-rule:nonzero;"/>
            <path d="M347.381,34.751L343.541,29.119L351.221,24.063L353.653,27.647C353.909,27.988 354.143,28.159 354.357,28.159C354.613,28.159 354.89,28.009 355.189,27.711C358.047,25.279 361.631,24.063 365.941,24.063L367.029,24.063L367.029,32.511C363.359,32.511 360.725,33.14 359.125,34.399C357.525,35.657 356.725,37.567 356.725,40.127L356.725,57.471L347.381,57.471L347.381,34.751Z" style="fill:white;fill-rule:nonzero;"/>
            <path d="M389.941,55.487C389.685,55.145 389.407,54.975 389.109,54.975C388.981,54.975 388.767,55.081 388.469,55.295C386.165,57.087 383.541,57.983 380.597,57.983C377.525,57.983 375.082,57.087 373.269,55.295C371.455,53.503 370.549,51.199 370.549,48.383C370.549,45.396 371.605,43.081 373.717,41.439C375.829,39.796 378.527,38.975 381.813,38.975L387.381,38.975L387.381,35.839C387.381,33.151 385.482,31.807 381.685,31.807C379.167,31.807 376.458,32.66 373.557,34.367L370.933,27.199C374.559,25.108 378.378,24.063 382.389,24.063C386.869,24.063 390.25,25.129 392.533,27.263C394.815,29.396 395.957,32.233 395.957,35.775L395.957,48.575L399.349,53.439L391.989,58.239L389.941,55.487ZM382.645,51.263C384.095,51.263 385.247,50.804 386.101,49.887C386.954,48.969 387.381,47.785 387.381,46.335L387.381,45.503C387.381,45.247 387.274,45.076 387.061,44.991C386.847,44.905 386.57,44.905 386.229,44.991L383.925,45.695L381.941,45.695C380.917,45.695 380.149,45.919 379.637,46.367C379.125,46.815 378.869,47.444 378.869,48.255C378.869,49.108 379.231,49.823 379.957,50.399C380.682,50.975 381.578,51.263 382.645,51.263Z" style="fill:white;fill-rule:nonzero;"/>
            <path d="M404.789,24.831L414.389,24.831L414.389,26.687C415.199,25.919 416.234,25.289 417.493,24.799C418.751,24.308 420.042,24.063 421.365,24.063C425.205,24.063 428.117,24.948 430.101,26.719C432.085,28.489 433.247,31.103 433.589,34.559C433.802,36.649 433.909,38.804 433.909,41.023C433.909,42.516 433.802,44.713 433.589,47.615C432.991,54.612 429.13,58.111 422.005,58.111C421.194,58.111 420.469,58.025 419.829,57.855L415.733,55.487C415.434,55.316 415.178,55.231 414.965,55.231C414.581,55.231 414.389,55.487 414.389,55.999L414.389,70.271L404.789,70.271L404.789,24.831ZM419.317,50.175C420.81,50.175 421.941,49.844 422.709,49.183C423.477,48.521 423.903,47.657 423.989,46.591C424.159,45.012 424.245,43.177 424.245,41.087C424.245,39.039 424.159,37.225 423.989,35.647C423.903,34.58 423.455,33.716 422.645,33.055C421.834,32.393 420.725,32.063 419.317,32.063C417.653,32.063 416.415,32.447 415.605,33.215C414.794,33.983 414.389,35.071 414.389,36.479L414.389,45.695C414.389,47.017 414.826,48.095 415.701,48.927C416.575,49.759 417.781,50.175 419.317,50.175Z" style="fill:white;fill-rule:nonzero;"/>
            <path d="M440.949,9.407L450.293,9.407L450.293,25.983C452.725,24.703 455.306,24.063 458.037,24.063C461.109,24.063 463.701,24.927 465.813,26.655C467.925,28.383 468.981,30.847 468.981,34.047L468.981,57.471L459.381,57.471L459.381,37.951C459.381,36.073 459.071,34.729 458.453,33.919C457.834,33.108 456.671,32.703 454.965,32.703C453.258,32.703 452.053,33.119 451.349,33.951C450.645,34.783 450.293,36.116 450.293,37.951L450.293,57.471L440.949,57.471L440.949,9.407Z" style="fill:white;fill-rule:nonzero;"/>
            <path d="M494.581,58.175C494.154,58.217 493.514,58.239 492.661,58.239C490.357,58.239 488.17,57.865 486.101,57.119C484.031,56.372 482.25,55.252 480.757,53.759C479.05,52.052 477.781,49.876 476.949,47.231C476.117,44.585 475.701,40.532 475.701,35.071C475.701,29.609 476.117,25.556 476.949,22.911C477.781,20.265 479.05,18.089 480.757,16.383C482.25,14.889 484.031,13.769 486.101,13.023C488.17,12.276 490.357,11.903 492.661,11.903C494.965,11.903 497.151,12.276 499.221,13.023C501.29,13.769 503.071,14.889 504.565,16.383C506.271,18.089 507.541,20.265 508.373,22.911C509.205,25.556 509.621,29.609 509.621,35.071C509.621,40.532 509.205,44.585 508.373,47.231C507.541,49.876 506.271,52.052 504.565,53.759C503.925,54.399 503.242,54.953 502.517,55.423L505.461,61.311L497.653,64.831L494.581,58.175ZM491.829,49.855C492.298,49.855 492.639,49.833 492.853,49.791C493.279,49.748 493.493,49.535 493.493,49.151C493.493,48.852 493.322,48.596 492.981,48.383L489.525,46.463L487.925,42.623L495.285,39.231L498.549,46.207C499.103,45.567 499.466,44.479 499.637,42.943C499.85,40.255 499.957,37.631 499.957,35.071C499.957,32.511 499.85,29.887 499.637,27.199C499.466,25.193 498.751,23.615 497.493,22.463C496.234,21.311 494.623,20.735 492.661,20.735C490.698,20.735 489.087,21.311 487.829,22.463C486.57,23.615 485.855,25.193 485.685,27.199C485.471,29.887 485.365,32.511 485.365,35.071C485.365,37.929 485.471,40.639 485.685,43.199C485.813,44.948 486.485,46.495 487.701,47.839C488.917,49.183 490.293,49.855 491.829,49.855Z" style="fill:white;fill-rule:nonzero;"/>
            <path d="M516.981,12.671L527.221,12.671L527.221,48.511L539.637,48.511L539.637,57.471L516.981,57.471L516.981,12.671Z" style="fill:white;fill-rule:nonzero;"/>
            <path d="M308.469,76.671L335.989,76.671L335.989,85.631L318.709,85.631L318.709,94.591L334.901,94.591L334.901,103.551L318.709,103.551L318.709,121.471L308.469,121.471L308.469,76.671Z" style="fill:white;fill-rule:nonzero;"/>
            <path d="M344.949,76.671L354.549,76.671L354.549,84.479L344.949,84.479L344.949,76.671ZM344.949,96.767L339.189,96.767L339.189,88.831L354.549,88.831L354.549,121.471L344.949,121.471L344.949,96.767Z" style="fill:white;fill-rule:nonzero;"/>
            <path d="M362.869,88.831L372.469,88.831L372.469,90.623C374.687,88.916 377.269,88.063 380.213,88.063C383.285,88.063 385.877,88.916 387.989,90.623C390.101,92.329 391.157,94.804 391.157,98.047L391.157,121.471L381.557,121.471L381.557,101.375C381.557,99.711 381.247,98.527 380.629,97.823C380.01,97.119 378.847,96.767 377.141,96.767C375.434,96.767 374.229,97.129 373.525,97.855C372.821,98.58 372.469,99.753 372.469,101.375L372.469,121.471L362.869,121.471L362.869,88.831Z" style="fill:white;fill-rule:nonzero;"/>
            <path d="M406.837,121.407C404.575,121.407 402.73,120.692 401.301,119.263C399.871,117.833 399.157,116.009 399.157,113.791L399.157,73.471L408.501,73.471L408.501,112.127C408.501,112.425 408.597,112.671 408.789,112.863C408.981,113.055 409.226,113.151 409.525,113.151L412.981,113.151L412.981,121.407L406.837,121.407Z" style="fill:white;fill-rule:nonzero;"/>
            <path d="M436.213,119.487C435.957,119.145 435.679,118.975 435.381,118.975C435.253,118.975 435.039,119.081 434.741,119.295C432.437,121.087 429.813,121.983 426.869,121.983C423.797,121.983 421.354,121.087 419.541,119.295C417.727,117.503 416.821,115.199 416.821,112.383C416.821,109.396 417.877,107.081 419.989,105.439C422.101,103.796 424.799,102.975 428.085,102.975L433.653,102.975L433.653,99.839C433.653,97.151 431.754,95.807 427.957,95.807C425.439,95.807 422.73,96.66 419.829,98.367L417.205,91.199C420.831,89.108 424.65,88.063 428.661,88.063C433.141,88.063 436.522,89.129 438.805,91.263C441.087,93.396 442.229,96.233 442.229,99.775L442.229,112.575L445.621,117.439L438.261,122.239L436.213,119.487ZM428.917,115.263C430.367,115.263 431.519,114.804 432.373,113.887C433.226,112.969 433.653,111.785 433.653,110.335L433.653,109.503C433.653,109.247 433.546,109.076 433.333,108.991C433.119,108.905 432.842,108.905 432.501,108.991L430.197,109.695L428.213,109.695C427.189,109.695 426.421,109.919 425.909,110.367C425.397,110.815 425.141,111.444 425.141,112.255C425.141,113.108 425.503,113.823 426.229,114.399C426.954,114.975 427.85,115.263 428.917,115.263Z" style="fill:white;fill-rule:nonzero;"/>
            <path d="M451.061,88.831L460.661,88.831L460.661,90.623C462.879,88.916 465.461,88.063 468.405,88.063C471.477,88.063 474.069,88.916 476.181,90.623C478.293,92.329 479.349,94.804 479.349,98.047L479.349,121.471L469.749,121.471L469.749,101.375C469.749,99.711 469.439,98.527 468.821,97.823C468.202,97.119 467.039,96.767 465.333,96.767C463.626,96.767 462.421,97.129 461.717,97.855C461.013,98.58 460.661,99.753 460.661,101.375L460.661,121.471L451.061,121.471L451.061,88.831Z" style="fill:white;fill-rule:nonzero;"/>
            <path d="M497.973,122.111C490.847,122.111 486.986,118.612 486.389,111.615C486.175,108.713 486.069,106.516 486.069,105.023C486.069,102.804 486.175,100.649 486.389,98.559C486.73,95.103 487.893,92.489 489.877,90.719C491.861,88.948 494.773,88.063 498.613,88.063C499.978,88.063 501.29,88.244 502.549,88.607C503.807,88.969 504.821,89.449 505.589,90.047L505.589,73.471L515.189,73.471L515.189,121.471L505.589,121.471L505.589,119.999C505.589,119.487 505.397,119.231 505.013,119.231C504.799,119.231 504.543,119.316 504.245,119.487L500.149,121.855C499.509,122.025 498.783,122.111 497.973,122.111ZM500.661,114.175C502.197,114.175 503.402,113.759 504.277,112.927C505.151,112.095 505.589,111.017 505.589,109.695L505.589,100.479C505.589,99.071 505.183,97.983 504.373,97.215C503.562,96.447 502.325,96.063 500.661,96.063C499.253,96.063 498.143,96.393 497.333,97.055C496.522,97.716 496.074,98.58 495.989,99.647C495.818,102.036 495.733,103.849 495.733,105.087C495.733,106.367 495.818,108.201 495.989,110.591C496.074,111.657 496.501,112.521 497.269,113.183C498.037,113.844 499.167,114.175 500.661,114.175Z" style="fill:white;fill-rule:nonzero;"/>
        </g>
        <g transform="matrix(-0.321242,-0.185474,0.185474,-0.321242,-204.408,-162.321)">
            <rect x="122" y="-0.4" width="16.6" height="320.3" style="fill:white;"/>
        </g>
        <g transform="matrix(0.370949,0,0,0.370949,-264.991,-297.092)">
            <rect x="39.8" y="272.2" width="320.3" height="16.6" style="fill:white;"/>
        </g>
        <g transform="matrix(-0.321242,-0.185474,0.185474,-0.321242,-234.177,-51.0266)">
            <rect x="37.9" y="312.2" width="185" height="16.6" style="fill:white;"/>
        </g>
        <g transform="matrix(-0.321242,-0.185474,0.185474,-0.321242,-93.1155,-192.088)">
            <rect x="177.1" y="71.1" width="185" height="16.6" style="fill:white;"/>
        </g>
        <g transform="matrix(-0.185474,-0.321242,0.321242,-0.185474,-217.959,-210.987)">
            <rect x="122.1" y="-13" width="16.6" height="185" style="fill:white;"/>
        </g>
        <g transform="matrix(-0.185474,-0.321242,0.321242,-0.185474,-166.288,-121.494)">
            <rect x="109.6" y="151.6" width="320.3" height="16.6" style="fill:white;"/>
        </g>
        <g transform="matrix(0.370949,0,0,0.370949,-264.991,-297.092)">
            <rect x="52.5" y="107.5" width="16.6" height="185" style="fill:white;"/>
        </g>
        <g transform="matrix(0.370949,0,0,0.370949,-264.991,-297.092)">
            <rect x="330.9" y="107.5" width="16.6" height="185" style="fill:white;"/>
        </g>
        <g transform="matrix(-0.185474,-0.321242,0.321242,-0.185474,-217.957,-32.128)">
            <rect x="262.4" y="240.1" width="14.5" height="160.9" style="fill:white;"/>
        </g>
        <g transform="matrix(0.370949,0,0,0.370949,-264.991,-297.092)">
            <path d="M369.5,297.9C359.9,314.6 338.5,320.3 321.8,310.7C305.1,301.1 299.4,279.7 309,263C318.6,246.3 340,240.6 356.7,250.2C373.5,259.9 379.2,281.2 369.5,297.9" style="fill:white;fill-rule:nonzero;"/>
        </g>
        <g transform="matrix(0.370949,0,0,0.370949,-264.991,-297.092)">
            <path d="M90.9,137C81.3,153.7 59.9,159.4 43.2,149.8C26.5,140.2 20.8,118.8 30.4,102.1C40,85.4 61.4,79.7 78.1,89.3C94.8,99 100.5,120.3 90.9,137" style="fill:white;fill-rule:nonzero;"/>
        </g>
        <g transform="matrix(0.370949,0,0,0.370949,-264.991,-297.092)">
            <path d="M30.5,297.9C20.9,281.2 26.6,259.9 43.3,250.2C60,240.6 81.3,246.3 91,263C100.6,279.7 94.9,301 78.2,310.7C61.4,320.3 40.1,314.6 30.5,297.9" style="fill:white;fill-rule:nonzero;"/>
        </g>
        <g transform="matrix(0.370949,0,0,0.370949,-264.991,-297.092)">
            <path d="M309.1,137C299.5,120.3 305.2,99 321.9,89.3C338.6,79.7 359.9,85.4 369.6,102.1C379.2,118.8 373.5,140.1 356.8,149.8C340.1,159.4 318.7,153.7 309.1,137" style="fill:white;fill-rule:nonzero;"/>
        </g>
        <g transform="matrix(0.370949,0,0,0.370949,-264.991,-297.092)">
            <path d="M200,395.8C180.7,395.8 165.1,380.2 165.1,360.9C165.1,341.6 180.7,326 200,326C219.3,326 234.9,341.6 234.9,360.9C234.9,380.1 219.3,395.8 200,395.8" style="fill:white;fill-rule:nonzero;"/>
        </g>
        <g transform="matrix(0.370949,0,0,0.370949,-264.991,-297.092)">
            <path d="M200,74C180.7,74 165.1,58.4 165.1,39.1C165.1,19.8 180.7,4.2 200,4.2C219.3,4.2 234.9,19.8 234.9,39.1C234.9,58.4 219.3,74 200,74" style="fill:white;fill-rule:nonzero;"/>
        </g>
    </g>
</svg>
