<?xml version="1.0" encoding="UTF-8" standalone="no"?><!DOCTYPE svg PUBLIC "-//W3C//DTD SVG 1.1//EN" "http://www.w3.org/Graphics/SVG/1.1/DTD/svg11.dtd"><svg width="100%" height="100%" viewBox="0 0 345 345" version="1.1" xmlns="http://www.w3.org/2000/svg" xmlns:xlink="http://www.w3.org/1999/xlink" xml:space="preserve" xmlns:serif="http://www.serif.com/" style="fill-rule:evenodd;clip-rule:evenodd;stroke-linecap:round;stroke-linejoin:round;stroke-miterlimit:1.5;"><rect id="black-logo" serif:id="black logo" x="0" y="0" width="344.798" height="344.628" style="fill:none;"/><g id="Logo"><path d="M262.011,181.531c0,-19.166 -15.56,-34.726 -34.725,-34.726l-141.907,0c-19.166,0 -34.726,15.56 -34.726,34.726l0,69.451c0,19.166 15.56,34.726 34.726,34.726l141.907,0c19.165,0 34.725,-15.56 34.725,-34.726l0,-69.451Z"/><path d="M305.318,171.935l0,98.873l-35.011,-24.718l0,-49.437l35.011,-24.718Z"/><g><ellipse cx="51.077" cy="153.915" rx="32.751" ry="32.926" style="fill:#fff;fill-opacity:0;stroke:#000;stroke-width:7px;"/><ellipse cx="51.299" cy="153.915" rx="4.734" ry="4.76" style="fill:#fff;stroke:#000;stroke-width:3px;"/></g><g><circle cx="244.3" cy="102.28" r="71.598" style="fill:#fff;fill-opacity:0;stroke:#000;stroke-width:22px;"/><circle cx="244.3" cy="102.28" r="3.42" style="fill:#fff;stroke:#000;stroke-width:22px;"/></g><path d="M39.569,123.238l182.588,-88.774" style="fill:#515151;stroke:#000;stroke-width:7px;stroke-linecap:butt;"/><path d="M54.998,186.691l200.926,-15.569" style="fill:#515151;stroke:#000;stroke-width:7px;stroke-linecap:butt;"/><rect x="51.738" y="257.202" width="209.921" height="66.245" style="fill-opacity:0;"/><clipPath id="_clip1"><rect x="51.738" y="257.202" width="209.921" height="66.245"/></clipPath><g clip-path="url(#_clip1)"><path d="M121.983,218.411l-44.85,111.005" style="stroke:#000;stroke-width:22px;stroke-linecap:butt;"/><path d="M192.838,218.411l44.85,111.005" style="stroke:#000;stroke-width:22px;stroke-linecap:butt;"/></g><rect x="51.738" y="257.202" width="209.921" height="66.245" style="fill:none;stroke:#000;stroke-opacity:0;stroke-width:3px;stroke-linecap:butt;"/></g></svg>