<?xml version="1.0" encoding="UTF-8" standalone="no"?><!DOCTYPE svg PUBLIC "-//W3C//DTD SVG 1.1//EN" "http://www.w3.org/Graphics/SVG/1.1/DTD/svg11.dtd"><svg width="100%" height="100%" viewBox="0 0 313 321" version="1.1" xmlns="http://www.w3.org/2000/svg" xmlns:xlink="http://www.w3.org/1999/xlink" xml:space="preserve" xmlns:serif="http://www.serif.com/" style="fill-rule:evenodd;clip-rule:evenodd;stroke-linejoin:round;stroke-miterlimit:1.5;"><g><g><path d="M178.012,198.728l44.85,111.005" style="stroke:#000;stroke-width:22px;"/><path d="M107.157,198.728l-44.85,111.005" style="stroke:#000;stroke-width:22px;"/><path d="M247.186,161.848c0,-19.165 -15.56,-34.725 -34.726,-34.725l-141.907,0c-19.165,0 -34.725,15.56 -34.725,34.725l0,69.452c0,19.165 15.56,34.725 34.725,34.725l141.907,0c19.166,0 34.726,-15.56 34.726,-34.725l0,-69.452Z" style="fill:#323232;"/><path d="M290.492,152.253l0,98.872l-35.01,-24.718l0,-49.436l35.01,-24.718Z" style="fill:#323232;"/></g><g><ellipse cx="36.251" cy="134.233" rx="32.751" ry="32.926" style="fill:#fff;stroke:#000;stroke-width:7px;stroke-linecap:round;"/><ellipse cx="36.473" cy="134.233" rx="4.734" ry="4.76" style="fill:#fff;stroke:#000;stroke-width:3px;stroke-linecap:round;"/></g><g><circle cx="229.474" cy="82.598" r="71.598" style="fill:#fff;stroke:#000;stroke-width:22px;stroke-linecap:round;"/><circle cx="229.474" cy="82.598" r="3.42" style="fill:#fff;stroke:#000;stroke-width:22px;stroke-linecap:round;"/></g><path d="M24.744,103.556l182.587,-88.774" style="fill:none;stroke:#000;stroke-width:7px;"/><path d="M40.173,167.008l200.925,-15.568" style="fill:none;stroke:#000;stroke-width:7px;"/></g></svg>