<?xml version="1.0" encoding="UTF-8" standalone="no"?><!DOCTYPE svg PUBLIC "-//W3C//DTD SVG 1.1//EN" "http://www.w3.org/Graphics/SVG/1.1/DTD/svg11.dtd"><svg width="100%" height="100%" viewBox="0 0 1036 345" version="1.1" xmlns="http://www.w3.org/2000/svg" xmlns:xlink="http://www.w3.org/1999/xlink" xml:space="preserve" xmlns:serif="http://www.serif.com/" style="fill-rule:evenodd;clip-rule:evenodd;stroke-linecap:round;stroke-linejoin:round;stroke-miterlimit:1.5;"><rect id="white-logo-with-text" serif:id="white logo with text" x="0" y="0" width="1035.53" height="344.168" style="fill:none;"/><g><g id="Logo"><path d="M274.044,189.102c0,-20.128 -16.341,-36.469 -36.469,-36.469l-149.029,0c-20.127,0 -36.469,16.341 -36.469,36.469l0,72.937c0,20.128 16.342,36.469 36.469,36.469l149.029,0c20.128,0 36.469,-16.341 36.469,-36.469l0,-72.937Z" style="fill:#fff;"/><path d="M319.524,179.025l0,103.835l-36.768,-25.959l0,-51.918l36.768,-25.958Z" style="fill:#fff;"/><g><ellipse cx="52.522" cy="160.1" rx="34.395" ry="34.578" style="fill:#fff;fill-opacity:0;stroke:#fff;stroke-width:7px;"/><ellipse cx="52.755" cy="160.1" rx="4.972" ry="4.998" style="fill:#fff;stroke:#fff;stroke-width:3px;"/></g><g><circle cx="255.443" cy="105.874" r="75.191" style="fill:#fff;fill-opacity:0;stroke:#fff;stroke-width:22px;"/><circle cx="255.443" cy="105.874" r="3.591" style="fill:#fff;stroke:#fff;stroke-width:22px;"/></g><path d="M40.437,127.884l191.752,-93.23" style="fill:#fff;stroke:#fff;stroke-width:7px;stroke-linecap:butt;"/><path d="M56.641,194.521l211.01,-16.35" style="fill:#fff;stroke:#fff;stroke-width:7px;stroke-linecap:butt;"/><rect x="53.217" y="268.571" width="220.458" height="69.57" style="fill:#fff;fill-opacity:0;"/><clipPath id="_clip1"><rect x="53.217" y="268.571" width="220.458" height="69.57"/></clipPath><g clip-path="url(#_clip1)"><path d="M126.987,227.833l-47.101,116.576" style="stroke:#fff;stroke-width:22px;stroke-linecap:butt;"/><path d="M201.398,227.833l47.101,116.576" style="stroke:#fff;stroke-width:22px;stroke-linecap:butt;"/></g><rect x="53.217" y="268.571" width="220.458" height="69.57" style="fill:none;stroke:#000;stroke-opacity:0;stroke-width:3px;stroke-linecap:butt;"/></g><g transform="matrix(0.24,0,0,0.24,-274.528,30.1776)"><text x="2711.79px" y="531.854px" style="font-family:'Finlandica-Regular', 'Finlandica';font-size:600px;fill:#fff;">T<tspan x="2950.59px " y="531.854px ">e</tspan>ch Mo<tspan x="4686.39px " y="531.854px ">v</tspan>ie</text><text x="2711.79px" y="1131.85px" style="font-family:'Finlandica-Regular', 'Finlandica';font-size:600px;fill:#fff;">Night</text></g></g></svg>