<svg xmlns="http://www.w3.org/2000/svg" width="799.994" height="800"><path fill="#F07E1B" d="M799.994 400c0 220.904-179.074 400-399.991 400C179.079 800 0 620.904 0 400 0 179.089 179.079 0 400.003 0 620.92 0 799.994 179.089 799.994 400z"/><g fill="#FFF"><path d="M459.708 143.271c0 32.977-26.74 59.712-59.711 59.712-32.974 0-59.7-26.735-59.7-59.712 0-32.965 26.726-59.692 59.7-59.692 32.971 0 59.711 26.727 59.711 59.692z"/><path d="M659.094 202.925c-3.335-16.154-19.128-26.548-35.269-23.208l-223.828 46.146-223.825-46.146c-16.145-3.345-31.935 7.054-35.268 23.208-3.326 16.147 7.061 31.934 23.208 35.256l167.224 34.484V454.92l-47.128 225.54c-3.373 16.131 6.976 31.951 23.115 35.327a29.78 29.78 0 0 0 6.14.631c13.831 0 26.245-9.671 29.188-23.745l48.052-229.993c.896-4.745 4.346-8.944 9.292-8.944 4.95 0 8.493 4.199 9.29 8.944l48.056 229.993c2.936 14.074 15.359 23.745 29.19 23.745 2.02 0 4.089-.198 6.143-.631 16.132-3.376 26.486-19.196 23.111-35.327L468.65 454.901V272.665l167.228-34.484c16.151-3.323 26.543-19.109 23.216-35.256z"/></g></svg>