<?xml version="1.0" encoding="UTF-8" standalone="no"?>
<!-- Created with Inkscape (http://www.inkscape.org/) -->

<svg
   xmlns:dc="http://purl.org/dc/elements/1.1/"
   xmlns:cc="http://creativecommons.org/ns#"
   xmlns:rdf="http://www.w3.org/1999/02/22-rdf-syntax-ns#"
   xmlns:svg="http://www.w3.org/2000/svg"
   xmlns="http://www.w3.org/2000/svg"
   xmlns:sodipodi="http://sodipodi.sourceforge.net/DTD/sodipodi-0.dtd"
   xmlns:inkscape="http://www.inkscape.org/namespaces/inkscape"
   width="313.62"
   height="313.58801"
   viewBox="0 0 313.62 313.58802"
   id="svg2"
   version="1.1"
   inkscape:version="0.91 r13725"
   sodipodi:docname="Alma Media.svg">
  <defs
     id="defs4" />
  <sodipodi:namedview
     id="base"
     pagecolor="#ffffff"
     bordercolor="#666666"
     borderopacity="1.0"
     inkscape:pageopacity="0.0"
     inkscape:pageshadow="2"
     inkscape:zoom="1.2673828"
     inkscape:cx="256.25135"
     inkscape:cy="330.63338"
     inkscape:document-units="px"
     inkscape:current-layer="layer1"
     showgrid="false"
     units="px"
     inkscape:window-width="1920"
     inkscape:window-height="1137"
     inkscape:window-x="-4"
     inkscape:window-y="-4"
     inkscape:window-maximized="1" />
  <metadata
     id="metadata7">
    <rdf:RDF>
      <cc:Work
         rdf:about="">
        <dc:format>image/svg+xml</dc:format>
        <dc:type
           rdf:resource="http://purl.org/dc/dcmitype/StillImage" />
        <dc:title></dc:title>
      </cc:Work>
    </rdf:RDF>
  </metadata>
  <g
     inkscape:label="Taso 1"
     inkscape:groupmode="layer"
     id="layer1"
     transform="translate(0,-738.77416)">
    <g
       transform="matrix(1.25,0,0,-1.25,-74.376315,1465.8211)"
       id="g3476">
      <g
         transform="translate(59.501052,581.6372)"
         id="g14">
        <path
           inkscape:connector-curvature="0"
           id="path16"
           style="fill:#231f20;fill-opacity:1;fill-rule:nonzero;stroke:none"
           d="m 0,0 0,-29.511 88.541,0 0,-14.76 -88.541,0 0,-73.774 118.061,0 L 118.061,0 0,0 Z m 29.519,-73.765 59.022,0 0,-14.76 -59.022,0 0,14.76 z" />
      </g>
      <g
         transform="translate(221.83795,493.1133)"
         id="g18">
        <path
           inkscape:connector-curvature="0"
           id="path20"
           style="fill:#231f20;fill-opacity:1;fill-rule:nonzero;stroke:none"
           d="m 0,0 0,88.523 -29.52,0 0,-118.044 118.079,0 L 88.559,0 0,0 Z" />
      </g>
      <g
         transform="translate(192.31845,448.8291)"
         id="g22">
        <path
           inkscape:connector-curvature="0"
           id="path24"
           style="fill:#231f20;fill-opacity:1;fill-rule:nonzero;stroke:none"
           d="m 0,0 0,-29.521 88.541,0 0,-14.758 -88.541,0 0,-73.765 118.043,0 L 118.043,0 0,0 Z m 88.541,-88.542 -59.022,0 0,14.777 59.022,0 0,-14.777 z" />
      </g>
      <g
         transform="translate(59.501052,448.8291)"
         id="g26">
        <path
           inkscape:connector-curvature="0"
           id="path28"
           style="fill:#231f20;fill-opacity:1;fill-rule:nonzero;stroke:none"
           d="m 0,0 0,-118.062 29.519,0 0,88.525 14.777,0 0,-88.525 29.486,0 0,88.525 14.759,0 0,-88.525 29.503,0 L 118.044,0 0,0 Z" />
      </g>
    </g>
  </g>
</svg>
