<?xml version="1.0" encoding="UTF-8" standalone="no"?>
<!DOCTYPE svg PUBLIC "-//W3C//DTD SVG 1.1//EN" "http://www.w3.org/Graphics/SVG/1.1/DTD/svg11.dtd">
<svg width="100%" height="100%" viewBox="0 0 265 41" version="1.1" xmlns="http://www.w3.org/2000/svg" xmlns:xlink="http://www.w3.org/1999/xlink" xml:space="preserve" xmlns:serif="http://www.serif.com/" style="fill-rule:evenodd;clip-rule:evenodd;stroke-linejoin:round;stroke-miterlimit:2;">
    <g transform="matrix(1,0,0,1,0,-10.7549)">
        <path d="M18.5,19.08L18.5,43.81L62.46,43.81L62.46,19.08L18.5,19.08ZM57.41,39.75L22.7,35.38L22.7,27.5L57.41,23.14L57.41,39.75Z" style="fill-rule:nonzero;"/>
    </g>
    <g transform="matrix(1,0,0,1,0,-10.7549)">
        <path d="M89.85,31.8C89.04,31.31 88.2,31.05 87.32,31L87.32,30.76C88.12,30.57 88.85,30.25 89.5,29.81C90.15,29.37 90.67,28.79 91.06,28.08C91.45,27.37 91.64,26.51 91.64,25.5C91.64,24.28 91.34,23.18 90.75,22.22C90.16,21.26 89.27,20.49 88.08,19.93C86.89,19.37 85.41,19.09 83.62,19.09L74.15,19.09L74.15,43.82L84.16,43.82C86.05,43.82 87.62,43.53 88.87,42.94C90.12,42.35 91.05,41.55 91.67,40.53C92.29,39.51 92.6,38.36 92.6,37.08C92.6,35.8 92.34,34.75 91.83,33.87C91.31,32.98 90.65,32.3 89.84,31.81L89.85,31.8ZM78.64,22.78L83.17,22.78C84.49,22.78 85.49,23.09 86.16,23.71C86.83,24.33 87.17,25.12 87.17,26.08C87.17,26.8 86.99,27.43 86.63,27.96C86.27,28.49 85.78,28.89 85.16,29.18C84.54,29.47 83.84,29.61 83.07,29.61L78.64,29.61L78.64,22.78ZM86.97,39.13C86.25,39.75 85.08,40.07 83.45,40.07L78.63,40.07L78.63,32.83L83.57,32.83C84.5,32.83 85.29,33 85.96,33.34C86.63,33.68 87.14,34.15 87.5,34.74C87.86,35.33 88.04,35.99 88.04,36.73C88.04,37.71 87.68,38.52 86.96,39.14L86.97,39.13Z" style="fill-rule:nonzero;"/>
        <path d="M107.44,26.37C106.71,25.89 105.9,25.55 105.01,25.34C104.12,25.13 103.23,25.03 102.34,25.03C101.04,25.03 99.86,25.22 98.79,25.6C97.72,25.98 96.81,26.55 96.07,27.31C95.33,28.07 94.8,29.01 94.48,30.14L98.56,30.72C98.78,30.08 99.2,29.53 99.82,29.07C100.44,28.61 101.29,28.37 102.36,28.37C103.37,28.37 104.15,28.62 104.69,29.12C105.23,29.62 105.5,30.32 105.5,31.23L105.5,31.3C105.5,31.72 105.34,32.03 105.04,32.22C104.73,32.42 104.24,32.56 103.56,32.65C102.88,32.74 102,32.85 100.92,32.96C100.02,33.06 99.15,33.21 98.3,33.42C97.46,33.63 96.7,33.95 96.04,34.36C95.37,34.77 94.84,35.32 94.46,36C94.07,36.68 93.88,37.55 93.88,38.6C93.88,39.82 94.15,40.84 94.7,41.67C95.24,42.5 95.98,43.13 96.92,43.55C97.86,43.97 98.91,44.18 100.09,44.18C101.06,44.18 101.9,44.04 102.62,43.78C103.34,43.51 103.94,43.15 104.42,42.71C104.9,42.26 105.27,41.78 105.54,41.27L105.69,41.27L105.69,43.82L109.89,43.82L109.89,31.41C109.89,30.18 109.67,29.15 109.22,28.33C108.77,27.51 108.18,26.86 107.45,26.38L107.44,26.37ZM105.52,37.16C105.52,37.84 105.35,38.48 104.99,39.06C104.64,39.64 104.14,40.1 103.5,40.45C102.86,40.8 102.1,40.98 101.22,40.98C100.34,40.98 99.56,40.77 98.97,40.36C98.38,39.95 98.09,39.34 98.09,38.54C98.09,37.98 98.24,37.52 98.54,37.16C98.84,36.8 99.24,36.52 99.76,36.32C100.28,36.12 100.86,35.97 101.51,35.89C101.8,35.85 102.14,35.8 102.54,35.74C102.93,35.68 103.33,35.62 103.74,35.55C104.14,35.48 104.51,35.39 104.83,35.3C105.16,35.2 105.39,35.1 105.52,34.99L105.52,37.18L105.52,37.16Z" style="fill-rule:nonzero;"/>
        <path d="M118.49,29.27C119.17,28.79 119.95,28.55 120.84,28.55C121.89,28.55 122.74,28.85 123.37,29.45C124,30.05 124.4,30.8 124.57,31.69L128.75,31.69C128.65,30.35 128.26,29.18 127.57,28.18C126.88,27.18 125.95,26.4 124.79,25.85C123.63,25.3 122.29,25.02 120.79,25.02C118.98,25.02 117.41,25.42 116.09,26.23C114.77,27.04 113.74,28.17 113.02,29.61C112.3,31.05 111.93,32.72 111.93,34.6C111.93,36.48 112.29,38.13 113,39.57C113.71,41.01 114.73,42.13 116.05,42.94C117.37,43.75 118.96,44.16 120.81,44.16C122.36,44.16 123.72,43.88 124.87,43.31C126.02,42.74 126.93,41.95 127.6,40.94C128.27,39.93 128.65,38.77 128.76,37.46L124.58,37.46C124.45,38.13 124.21,38.7 123.87,39.16C123.52,39.63 123.1,39.98 122.58,40.23C122.07,40.48 121.49,40.6 120.85,40.6C119.94,40.6 119.15,40.36 118.48,39.87C117.81,39.38 117.29,38.69 116.92,37.78C116.55,36.87 116.36,35.79 116.36,34.53C116.36,33.27 116.55,32.21 116.92,31.32C117.29,30.43 117.82,29.74 118.5,29.26L118.49,29.27Z" style="fill-rule:nonzero;"/>
        <path d="M147.23,25.27L142.12,25.27L135.46,32.72L135.16,32.72L135.16,19.08L130.79,19.08L130.79,43.81L135.16,43.81L135.16,37.58L136.75,35.87L142.43,43.81L147.65,43.81L140.04,33.27L147.23,25.27Z" style="fill-rule:nonzero;"/>
        <path d="M157.96,33.23L154.8,32.55C153.86,32.33 153.18,32.05 152.78,31.72C152.38,31.39 152.17,30.94 152.18,30.4C152.18,29.77 152.48,29.26 153.09,28.87C153.71,28.48 154.47,28.28 155.38,28.28C156.06,28.28 156.63,28.39 157.09,28.61C157.55,28.83 157.93,29.11 158.21,29.47C158.49,29.82 158.68,30.2 158.8,30.6L162.78,30.17C162.48,28.59 161.71,27.34 160.46,26.42C159.21,25.5 157.5,25.03 155.32,25.03C153.84,25.03 152.53,25.26 151.4,25.72C150.27,26.18 149.39,26.84 148.76,27.68C148.13,28.52 147.82,29.51 147.82,30.66C147.82,32.01 148.23,33.13 149.09,34.01C149.94,34.89 151.26,35.52 153.04,35.89L156.2,36.55C157.05,36.74 157.68,37 158.09,37.35C158.5,37.7 158.7,38.13 158.7,38.67C158.7,39.3 158.38,39.83 157.75,40.25C157.12,40.68 156.28,40.89 155.24,40.89C154.2,40.89 153.42,40.68 152.79,40.25C152.16,39.82 151.75,39.19 151.56,38.35L147.3,38.76C147.57,40.47 148.39,41.8 149.77,42.75C151.15,43.7 152.98,44.18 155.25,44.18C156.79,44.18 158.16,43.93 159.35,43.43C160.54,42.93 161.47,42.24 162.14,41.35C162.81,40.46 163.15,39.43 163.16,38.27C163.16,36.94 162.72,35.87 161.86,35.05C161,34.23 159.7,33.63 157.94,33.25L157.96,33.23Z" style="fill-rule:nonzero;"/>
        <path d="M170.99,29.27C171.67,28.79 172.45,28.55 173.34,28.55C174.39,28.55 175.24,28.85 175.87,29.45C176.5,30.05 176.9,30.8 177.07,31.69L181.25,31.69C181.15,30.35 180.76,29.18 180.07,28.18C179.38,27.18 178.45,26.4 177.29,25.85C176.13,25.3 174.79,25.02 173.29,25.02C171.48,25.02 169.91,25.42 168.59,26.23C167.27,27.04 166.24,28.17 165.52,29.61C164.8,31.05 164.43,32.72 164.43,34.6C164.43,36.48 164.79,38.13 165.5,39.57C166.21,41.01 167.23,42.13 168.55,42.94C169.87,43.75 171.46,44.16 173.31,44.16C174.86,44.16 176.22,43.88 177.37,43.31C178.52,42.74 179.43,41.95 180.1,40.94C180.77,39.93 181.15,38.77 181.26,37.46L177.08,37.46C176.95,38.13 176.71,38.7 176.37,39.16C176.02,39.63 175.6,39.98 175.08,40.23C174.57,40.48 173.99,40.6 173.35,40.6C172.44,40.6 171.65,40.36 170.98,39.87C170.31,39.38 169.79,38.69 169.42,37.78C169.05,36.87 168.86,35.79 168.86,34.53C168.86,33.27 169.05,32.21 169.42,31.32C169.79,30.43 170.32,29.74 171,29.26L170.99,29.27Z" style="fill-rule:nonzero;"/>
        <path d="M192.3,25C191.24,25 190.29,25.29 189.47,25.88C188.64,26.46 188.06,27.29 187.72,28.36L187.53,28.36L187.53,25.27L183.29,25.27L183.29,43.82L187.66,43.82L187.66,32.92C187.66,32.13 187.84,31.44 188.2,30.83C188.56,30.23 189.06,29.75 189.69,29.41C190.32,29.07 191.04,28.9 191.83,28.9C192.2,28.9 192.58,28.93 192.98,28.98C193.38,29.03 193.67,29.09 193.86,29.15L193.86,25.13C193.66,25.09 193.41,25.06 193.11,25.04C192.81,25.02 192.54,25.01 192.3,25.01L192.3,25Z" style="fill-rule:nonzero;"/>
        <path d="M208.92,27.27C208.13,26.51 207.23,25.94 206.22,25.57C205.2,25.2 204.12,25.02 202.98,25.02C201.21,25.02 199.67,25.42 198.36,26.23C197.05,27.04 196.03,28.17 195.3,29.61C194.57,31.05 194.21,32.73 194.21,34.64C194.21,36.55 194.57,38.26 195.3,39.69C196.02,41.12 197.06,42.22 198.41,43C199.76,43.78 201.36,44.17 203.22,44.17C204.66,44.17 205.94,43.95 207.06,43.51C208.18,43.07 209.1,42.45 209.82,41.65C210.54,40.85 211.03,39.91 211.29,38.83L207.21,38.37C207.02,38.89 206.73,39.33 206.35,39.69C205.97,40.04 205.52,40.31 205.01,40.49C204.49,40.67 203.92,40.76 203.28,40.76C202.33,40.76 201.5,40.56 200.79,40.15C200.08,39.74 199.53,39.16 199.14,38.39C198.76,37.65 198.57,36.76 198.55,35.73L211.46,35.73L211.46,34.39C211.46,32.76 211.23,31.36 210.78,30.18C210.33,29 209.71,28.03 208.93,27.26L208.92,27.27ZM198.54,32.79C198.58,32.06 198.76,31.39 199.1,30.77C199.48,30.07 200,29.51 200.68,29.08C201.36,28.65 202.14,28.43 203.03,28.43C203.87,28.43 204.6,28.62 205.23,29C205.86,29.38 206.35,29.9 206.71,30.55C207.06,31.21 207.25,31.95 207.25,32.79L198.54,32.79Z" style="fill-rule:nonzero;"/>
        <path d="M227.5,27.27C226.71,26.51 225.81,25.94 224.8,25.57C223.78,25.2 222.7,25.02 221.56,25.02C219.79,25.02 218.25,25.42 216.94,26.23C215.63,27.04 214.61,28.17 213.88,29.61C213.15,31.05 212.79,32.73 212.79,34.64C212.79,36.55 213.15,38.26 213.88,39.69C214.6,41.12 215.64,42.22 216.99,43C218.34,43.78 219.94,44.17 221.8,44.17C223.24,44.17 224.52,43.95 225.64,43.51C226.76,43.07 227.68,42.45 228.4,41.65C229.12,40.85 229.61,39.91 229.87,38.83L225.79,38.37C225.6,38.89 225.31,39.33 224.93,39.69C224.55,40.04 224.1,40.31 223.59,40.49C223.07,40.67 222.5,40.76 221.86,40.76C220.91,40.76 220.08,40.56 219.37,40.15C218.66,39.74 218.11,39.16 217.72,38.39C217.34,37.65 217.15,36.76 217.13,35.73L230.04,35.73L230.04,34.39C230.04,32.76 229.81,31.36 229.36,30.18C228.91,29 228.29,28.03 227.51,27.26L227.5,27.27ZM217.13,32.79C217.17,32.06 217.35,31.39 217.69,30.77C218.07,30.07 218.59,29.51 219.27,29.08C219.95,28.65 220.73,28.43 221.62,28.43C222.46,28.43 223.19,28.62 223.82,29C224.45,29.38 224.94,29.9 225.3,30.55C225.65,31.21 225.84,31.95 225.84,32.79L217.13,32.79Z" style="fill-rule:nonzero;"/>
        <path d="M247.66,28.22C247.13,27.18 246.39,26.39 245.44,25.84C244.49,25.29 243.37,25.02 242.09,25.02C240.71,25.02 239.54,25.33 238.61,25.94C237.67,26.55 236.99,27.38 236.56,28.42L236.34,28.42L236.34,25.27L232.16,25.27L232.16,43.82L236.53,43.82L236.53,32.95C236.53,32.06 236.7,31.3 237.03,30.67C237.36,30.04 237.83,29.56 238.42,29.23C239.01,28.9 239.69,28.73 240.45,28.73C241.58,28.73 242.46,29.08 243.1,29.78C243.74,30.48 244.06,31.45 244.06,32.69L244.06,43.82L248.43,43.82L248.43,32.01C248.43,30.53 248.18,29.27 247.65,28.23L247.66,28.22Z" style="fill-rule:nonzero;"/>
    </g>
</svg>
