<svg width="173" height="62" viewBox="0 0 173 62" fill="none" xmlns="http://www.w3.org/2000/svg">
<g clip-path="url(#clip0)">
<path d="M92.4467 16.6579C92.4709 17.5664 92.1805 18.4551 91.6253 19.1719C91.0151 19.9061 90.1801 20.4159 89.2511 20.6214L92.9418 26.2835H89.6787L86.6407 20.8592H84.7391V26.2495H82.2299V12.4566H87.3158C88.6856 12.3513 90.0464 12.7541 91.1415 13.5891C91.5765 13.9671 91.9202 14.44 92.1463 14.9717C92.3725 15.5035 92.4752 16.0802 92.4467 16.6579ZM87.0907 19.1719C87.8387 19.2274 88.5805 19.0014 89.1724 18.5377C89.4034 18.3292 89.5858 18.0718 89.7064 17.784C89.827 17.4962 89.8829 17.1851 89.87 16.8731C89.8822 16.5671 89.8327 16.2619 89.7244 15.9758C89.6161 15.6897 89.4513 15.4286 89.2399 15.2084C88.98 14.9819 88.6783 14.8093 88.3519 14.7005C88.0256 14.5916 87.6811 14.5487 87.3383 14.5743H84.7503V19.1039L87.0907 19.1719Z" fill="#303030"/>
<path d="M103.001 18.7075C103.172 19.2498 103.263 19.8145 103.271 20.3835C103.272 20.8342 103.242 21.2845 103.181 21.7311H96.5312C96.5261 22.4617 96.7419 23.1765 97.15 23.7807C97.3508 24.0472 97.6144 24.2591 97.9169 24.3975C98.2194 24.5359 98.5513 24.5963 98.8828 24.5734C99.3067 24.6293 99.7357 24.5179 100.08 24.2624C100.424 24.007 100.656 23.6274 100.728 23.2032H103.249C103.117 24.1787 102.607 25.0621 101.831 25.6606C100.982 26.3009 99.9429 26.6323 98.8828 26.6005C98.2472 26.6053 97.6177 26.4747 97.0359 26.217C96.4541 25.9594 95.9331 25.5806 95.5072 25.1057C94.5402 24.0115 94.0321 22.5828 94.0895 21.1196C94.0189 19.6475 94.5284 18.2069 95.5072 17.1108C95.9371 16.6441 96.4599 16.2738 97.0416 16.024C97.6232 15.7743 98.2506 15.6507 98.8828 15.6613C99.5253 15.6218 100.168 15.7391 100.756 16.0033C101.343 16.2675 101.859 16.6708 102.258 17.1787C102.596 17.6389 102.848 18.1569 103.001 18.7075ZM98.9053 17.5751C98.5958 17.5583 98.2865 17.6116 98.0003 17.7312C97.714 17.8507 97.458 18.0335 97.2513 18.2659C96.8393 18.7702 96.5953 19.3922 96.5537 20.0438H100.942C100.998 19.6041 100.928 19.1576 100.74 18.7565C100.553 18.3554 100.256 18.0163 99.8843 17.7789C99.5756 17.6466 99.2396 17.5922 98.9053 17.6204V17.5751Z" fill="#303030"/>
<path d="M108.796 20.2023C109.754 20.2229 110.706 20.3597 111.631 20.61V19.5908C111.675 19.0198 111.52 18.4513 111.193 17.9828C111.01 17.7953 110.787 17.6512 110.542 17.5611C110.297 17.471 110.035 17.4371 109.775 17.4619C109.239 17.4279 108.707 17.5668 108.256 17.8582C108.081 17.9878 107.941 18.1592 107.849 18.357C107.756 18.5547 107.715 18.7725 107.727 18.9906H105.004C104.964 18.4916 105.057 17.9909 105.275 17.5407C105.493 17.0905 105.827 16.7074 106.242 16.4314C107.301 15.8467 108.501 15.5721 109.707 15.6387C111.823 15.6387 113.192 16.3936 113.814 17.9035C114.037 18.4807 114.144 19.0964 114.129 19.7154V26.3061H111.958L111.766 24.9132C111.464 25.4518 111.019 25.8949 110.48 26.193C109.941 26.491 109.331 26.6321 108.717 26.6005C107.6 26.6708 106.497 26.3195 105.623 25.6153C105.293 25.3165 105.031 24.9491 104.856 24.5384C104.681 24.1278 104.597 23.6838 104.61 23.2372C104.584 22.7936 104.674 22.3509 104.872 21.9534C105.069 21.5559 105.367 21.2176 105.735 20.9724C106.655 20.4116 107.722 20.1432 108.796 20.2023ZM111.631 22.2067C110.873 21.9914 110.09 21.8771 109.302 21.867C107.944 21.867 107.266 22.3237 107.266 23.2372C107.264 23.4274 107.305 23.6155 107.384 23.7879C107.464 23.9603 107.581 24.1126 107.727 24.2337C108.161 24.5477 108.691 24.6963 109.223 24.6527C109.539 24.664 109.853 24.6083 110.146 24.4893C110.439 24.3703 110.703 24.1906 110.922 23.962C111.374 23.4903 111.628 22.8617 111.631 22.2067Z" fill="#303030"/>
<path d="M120.847 15.6161C121.444 15.6059 122.037 15.7176 122.591 15.9445C123.077 16.1438 123.52 16.4361 123.896 16.8051C124.603 17.4897 125.046 18.4047 125.145 19.3871L122.625 19.455C122.525 19.0252 122.307 18.6325 121.994 18.3226C121.859 18.1805 121.697 18.0672 121.517 17.9894C121.337 17.9116 121.144 17.8709 120.948 17.8696C120.602 17.8615 120.258 17.9231 119.935 18.0508C119.646 18.1763 119.391 18.3706 119.193 18.617C118.677 19.3316 118.422 20.2038 118.473 21.0857C118.41 21.934 118.649 22.777 119.148 23.4638C119.343 23.7147 119.592 23.9175 119.877 24.0568C120.161 24.1962 120.474 24.2683 120.791 24.2678C121.041 24.2916 121.295 24.2637 121.534 24.1858C121.774 24.1079 121.996 23.9817 122.186 23.8148C122.49 23.4743 122.648 23.0264 122.625 22.5692H125.145C125.159 23.0933 125.066 23.6148 124.873 24.1016C124.679 24.5884 124.389 25.0303 124.02 25.4002C123.59 25.7959 123.086 26.1002 122.537 26.2948C121.988 26.4894 121.405 26.5703 120.824 26.5326C120.189 26.5375 119.559 26.4068 118.977 26.1492C118.396 25.8915 117.875 25.5128 117.449 25.0378C116.465 23.9506 115.941 22.5212 115.986 21.0517C115.951 20.3156 116.062 19.5799 116.313 18.8876C116.565 18.1953 116.951 17.5605 117.449 17.0203C117.889 16.5634 118.417 16.2029 119.002 15.9612C119.587 15.7196 120.215 15.6021 120.847 15.6161Z" fill="#303030"/>
<path d="M133.112 26.0456C132.401 26.3649 131.638 26.5529 130.861 26.6005C130.385 26.6089 129.911 26.5439 129.455 26.408C129.045 26.2933 128.662 26.0969 128.329 25.8305C128 25.5258 127.741 25.1516 127.572 24.7346C127.403 24.3177 127.327 23.8682 127.351 23.4184V17.5751H126.023V15.8539H127.463V13.1587H129.961V15.8539H132.774V17.5412H129.961V23.2033C129.961 24.0563 130.362 24.4829 131.165 24.4829C131.708 24.4554 132.244 24.3407 132.751 24.1432L133.112 26.0456Z" fill="#303030"/>
<path d="M143.79 12.4567C144.715 12.4159 145.64 12.5611 146.509 12.8838C147.379 13.2066 148.175 13.7004 148.853 14.3365C149.501 14.9908 150.007 15.7737 150.338 16.6354C150.67 17.4971 150.819 18.4188 150.777 19.3418C150.821 20.2703 150.67 21.1977 150.335 22.0639C149.999 22.93 149.487 23.7156 148.831 24.3697C148.153 25.0058 147.356 25.4996 146.487 25.8224C145.617 26.1451 144.693 26.2904 143.767 26.2496H139.266V12.4567H143.79ZM141.843 24.0074H143.79C144.381 24.0241 144.969 23.9113 145.513 23.6766C146.057 23.442 146.544 23.0912 146.94 22.6485C147.719 21.7299 148.121 20.5478 148.065 19.3418C148.139 18.1059 147.736 16.8891 146.94 15.9445C146.532 15.5264 146.04 15.2009 145.496 14.99C144.953 14.7791 144.371 14.6875 143.79 14.7215H141.843V24.0074Z" fill="#303030"/>
<path d="M156.403 20.2023C157.361 20.2229 158.313 20.3597 159.239 20.61V19.5908C159.282 19.0198 159.127 18.4513 158.8 17.9828C158.617 17.7953 158.395 17.6512 158.15 17.5611C157.904 17.471 157.642 17.4371 157.382 17.4619C156.847 17.4279 156.315 17.5668 155.863 17.8582C155.688 17.9878 155.548 18.1592 155.456 18.357C155.364 18.5547 155.322 18.7725 155.334 18.9906H152.6C152.56 18.4916 152.654 17.9909 152.871 17.5407C153.089 17.0905 153.423 16.7074 153.838 16.4314C154.897 15.8467 156.097 15.5721 157.303 15.6387C159.419 15.6387 160.788 16.3936 161.41 17.9035C161.633 18.4807 161.74 19.0964 161.725 19.7154V26.3061H159.543L159.385 24.9132C159.083 25.4518 158.637 25.8949 158.099 26.193C157.56 26.491 156.95 26.6321 156.336 26.6005C155.218 26.6708 154.115 26.3195 153.241 25.6153C152.911 25.3165 152.65 24.9491 152.475 24.5384C152.3 24.1278 152.216 23.6838 152.229 23.2372C152.203 22.7936 152.293 22.3509 152.49 21.9534C152.688 21.5559 152.986 21.2176 153.354 20.9724C154.271 20.4138 155.333 20.1455 156.403 20.2023ZM159.239 22.2067C158.48 21.9914 157.697 21.8771 156.91 21.867C155.552 21.867 154.873 22.3237 154.873 23.2372C154.871 23.4274 154.912 23.6155 154.992 23.7879C155.072 23.9603 155.189 24.1126 155.334 24.2337C155.768 24.5477 156.298 24.6963 156.831 24.6527C157.146 24.664 157.461 24.6083 157.753 24.4893C158.046 24.3703 158.311 24.1906 158.53 23.962C158.986 23.4921 159.244 22.8633 159.25 22.2067H159.239Z" fill="#303030"/>
<path d="M165.821 15.854L168.297 23.3167L170.457 15.854H173L169.062 28.0955C168.788 29.093 168.274 30.0071 167.565 30.7567C166.949 31.3124 166.142 31.6048 165.315 31.572C164.356 31.5635 163.412 31.3309 162.558 30.8925V28.6277C163.224 29.0773 164.006 29.3213 164.809 29.3298C165.044 29.3329 165.276 29.2802 165.487 29.1759C165.699 29.0716 165.882 28.9187 166.024 28.7296C166.376 28.2655 166.639 27.7394 166.8 27.1782L167.115 26.1817L162.986 15.854H165.821Z" fill="#303030"/>
<path d="M82.4099 34.6633H87.3833C88.5447 34.5859 89.6939 34.9405 90.6126 35.6598C90.9743 35.9682 91.263 36.3539 91.4576 36.7888C91.6523 37.2237 91.748 37.6969 91.7378 38.1738C91.764 38.8933 91.5545 39.6016 91.1415 40.1895C90.6656 40.7872 89.9895 41.1898 89.2399 41.3219C90.0212 41.4445 90.7323 41.8466 91.2428 42.4543C91.7301 42.9976 91.9988 43.7041 91.9966 44.4361C92.045 45.1931 91.8332 45.9438 91.3968 46.5624C90.9605 47.1809 90.326 47.6297 89.6 47.8333C88.8955 48.0629 88.1573 48.1701 87.4171 48.1504H82.4099V34.6633ZM84.0865 40.6538H87.3496C88.0535 40.6892 88.7471 40.4726 89.3074 40.0423C89.5376 39.8301 89.7215 39.572 89.8473 39.2845C89.9731 38.9969 90.038 38.6861 90.038 38.372C90.038 38.0578 89.9731 37.747 89.8473 37.4595C89.7215 37.1719 89.5376 36.9138 89.3074 36.7016C88.7387 36.272 88.0369 36.0593 87.3271 36.1015H84.064L84.0865 40.6538ZM87.3721 46.599C88.1513 46.6714 88.9294 46.4494 89.5549 45.9762C89.7737 45.7651 89.9451 45.5094 90.0577 45.2262C90.1702 44.943 90.2213 44.6388 90.2076 44.3342C90.22 44.0249 90.1615 43.717 90.0366 43.4342C89.9117 43.1515 89.7238 42.9014 89.4874 42.7035C88.8752 42.2566 88.1266 42.0402 87.3721 42.092H84.0752V46.6216L87.3721 46.599Z" fill="#303030"/>
<path d="M100.998 41.4692C101.065 40.7592 100.86 40.0503 100.424 39.4875C100.201 39.2794 99.939 39.119 99.6528 39.0158C99.3666 38.9127 99.0626 38.8689 98.7591 38.8873C98.1438 38.8599 97.5339 39.0134 97.0038 39.3289C96.7828 39.4781 96.6051 39.6834 96.4885 39.9241C96.3719 40.1647 96.3206 40.4321 96.3399 40.6992H94.5171C94.4821 39.9851 94.7224 39.2851 95.1878 38.745C95.6532 38.2049 96.3077 37.8664 97.015 37.8002C97.5586 37.6834 98.1132 37.6265 98.6691 37.6303C99.7372 37.5655 100.79 37.9093 101.617 38.5929C101.991 38.9749 102.28 39.4336 102.462 39.9377C102.645 40.4419 102.717 40.9797 102.675 41.5145V48.0825H101.268L101.1 46.3726C100.804 47.006 100.321 47.532 99.7163 47.8786C99.1121 48.2252 98.4162 48.3755 97.7239 48.309C96.7687 48.3541 95.8332 48.0254 95.1134 47.3918C94.7967 47.1077 94.5444 46.7585 94.3736 46.3677C94.2027 45.977 94.1174 45.5538 94.1233 45.1269C94.1132 44.7047 94.2115 44.2869 94.4085 43.914C94.6056 43.5411 94.8949 43.2256 95.2485 42.998C96.0308 42.4738 96.953 42.2013 97.8927 42.2166C98.9563 42.2122 100.012 42.4001 101.01 42.7715L100.998 41.4692ZM100.998 43.836C100.148 43.5744 99.2657 43.4297 98.3765 43.4057C97.744 43.3789 97.1155 43.5195 96.5537 43.8133C96.3294 43.9388 96.1449 44.1255 96.0215 44.3519C95.8981 44.5783 95.8407 44.8352 95.8561 45.093C95.8561 46.3688 96.5762 47.0067 98.0165 47.0067C98.4123 47.0152 98.8056 46.941 99.1716 46.789C99.5376 46.637 99.8684 46.4104 100.143 46.1235C100.432 45.8203 100.657 45.4612 100.804 45.068C100.951 44.6748 101.017 44.2557 100.998 43.836Z" fill="#303030"/>
<path d="M107.356 39.8498C107.619 39.2831 108.015 38.7897 108.511 38.4124C109.006 38.0351 109.586 37.7853 110.199 37.6849C110.813 37.5844 111.441 37.6363 112.03 37.8359C112.619 38.0356 113.15 38.3771 113.578 38.8306C114.291 39.761 114.647 40.919 114.58 42.0919V48.0825H112.925V42.0806C112.997 41.2647 112.751 40.4526 112.239 39.8158C111.978 39.5671 111.668 39.377 111.328 39.2579C110.989 39.1389 110.628 39.0936 110.27 39.125C109.868 39.1156 109.47 39.2057 109.111 39.3874C108.752 39.5691 108.443 39.8367 108.211 40.1668C107.653 41.0145 107.37 42.0155 107.401 43.0319V48.0372H105.769V37.8454H107.209L107.356 39.8498Z" fill="#303030"/>
<path d="M118.146 47.7541C117.767 47.6059 117.441 47.3441 117.214 47.0039C116.986 46.6637 116.868 46.2615 116.875 45.8516C116.878 45.6392 116.924 45.4296 117.009 45.2352C117.094 45.0407 117.217 44.8653 117.37 44.7192C117.711 44.3819 118.14 44.1501 118.608 44.0511C118.234 43.7157 117.939 43.3009 117.745 42.8367C117.55 42.3725 117.461 41.8706 117.482 41.3672C117.461 40.8639 117.55 40.362 117.745 39.8978C117.939 39.4336 118.234 39.0188 118.608 38.6834C119.38 38.0064 120.374 37.643 121.398 37.6642C122.366 37.6342 123.32 37.9029 124.132 38.4343C124.193 37.7221 124.528 37.0622 125.067 36.5963C125.606 36.1305 126.304 35.8959 127.013 35.9429L126.867 37.6076C125.621 37.6076 124.973 38.1323 124.92 39.1817C125.416 39.8035 125.679 40.5812 125.663 41.3786C125.686 41.8838 125.598 42.3879 125.403 42.8542C125.208 43.3204 124.913 43.7371 124.538 44.0737C123.727 44.7872 122.677 45.1637 121.601 45.1269C120.859 45.1443 120.125 44.9771 119.463 44.6399C119.176 44.698 118.911 44.8353 118.698 45.0363C118.587 45.1451 118.5 45.2757 118.442 45.4199C118.384 45.5641 118.356 45.7187 118.36 45.8743C118.36 46.6292 118.983 47.0067 120.228 47.0067H124.166C124.962 46.9637 125.75 47.178 126.417 47.6182C126.683 47.8102 126.898 48.066 127.041 48.3627C127.185 48.6593 127.252 48.9873 127.238 49.3168C127.217 49.8858 127.059 50.441 126.776 50.9343C126.494 51.4277 126.096 51.8442 125.618 52.1479C124.421 52.9923 122.982 53.418 121.522 53.3596C120.163 53.432 118.811 53.1097 117.629 52.431C117.209 52.202 116.858 51.8658 116.609 51.4562C116.36 51.0466 116.223 50.5782 116.211 50.0982C116.188 49.5477 116.382 49.0102 116.751 48.6034C117.127 48.1934 117.611 47.899 118.146 47.7541ZM117.831 50.0189C117.846 50.3075 117.934 50.5875 118.088 50.8315C118.242 51.0756 118.456 51.2755 118.709 51.4118C119.524 51.8587 120.449 52.0629 121.376 52.0007C122.424 52.0371 123.46 51.7656 124.357 51.2193C124.697 51.0463 124.986 50.7871 125.195 50.4673C125.404 50.1475 125.526 49.7782 125.55 49.3961C125.553 49.2397 125.523 49.0846 125.463 48.9403C125.403 48.7961 125.314 48.666 125.201 48.5581C125.049 48.4237 124.87 48.323 124.676 48.2625C124.482 48.2021 124.278 48.1832 124.076 48.2071H119.992C119.398 48.1922 118.817 48.3754 118.338 48.728C118.154 48.8825 118.008 49.0771 117.911 49.2968C117.814 49.5166 117.767 49.7558 117.775 49.9963L117.831 50.0189ZM124.054 41.3559C124.08 40.696 123.846 40.0525 123.401 39.5667C122.902 39.1194 122.258 38.8722 121.589 38.8722C120.921 38.8722 120.277 39.1194 119.778 39.5667C119.557 39.8089 119.386 40.0926 119.274 40.4016C119.162 40.7105 119.111 41.0387 119.125 41.3672C119.1 42.0391 119.338 42.6941 119.789 43.1904C120.024 43.4319 120.306 43.6205 120.619 43.7435C120.931 43.8665 121.266 43.9212 121.601 43.9039C121.935 43.921 122.269 43.8652 122.58 43.74C122.891 43.6149 123.171 43.4236 123.401 43.1791C123.833 42.6658 124.05 42.0044 124.009 41.3333L124.054 41.3559Z" fill="#303030"/>
<path d="M135.024 41.4692C135.091 40.7592 134.886 40.0503 134.451 39.4875C134.228 39.2794 133.965 39.119 133.679 39.0158C133.393 38.9127 133.089 38.8689 132.785 38.8873C132.17 38.8599 131.56 39.0134 131.03 39.3289C130.809 39.4781 130.631 39.6834 130.515 39.9241C130.398 40.1647 130.347 40.4321 130.366 40.6992H128.521C128.486 39.9851 128.726 39.2851 129.191 38.745C129.657 38.2049 130.311 37.8664 131.019 37.8002C131.562 37.6834 132.117 37.6265 132.673 37.6303C133.741 37.5655 134.794 37.9093 135.621 38.5929C135.995 38.9749 136.283 39.4336 136.466 39.9377C136.648 40.4419 136.721 40.9797 136.678 41.5145V48.0825H135.238L135.069 46.3726C134.773 47.006 134.29 47.532 133.686 47.8786C133.082 48.2252 132.386 48.3755 131.694 48.309C130.739 48.3541 129.803 48.0254 129.083 47.3918C128.767 47.1077 128.514 46.7585 128.343 46.3677C128.173 45.977 128.087 45.5538 128.093 45.1269C128.083 44.7047 128.181 44.2869 128.378 43.914C128.575 43.5411 128.865 43.2256 129.218 42.998C130.024 42.4621 130.976 42.1929 131.941 42.2279C133.005 42.2235 134.061 42.4115 135.058 42.7828L135.024 41.4692ZM135.024 43.836C134.174 43.5744 133.292 43.4297 132.403 43.4057C131.77 43.3789 131.142 43.5195 130.58 43.8133C130.356 43.9388 130.171 44.1255 130.048 44.3519C129.924 44.5783 129.867 44.8352 129.882 45.093C129.882 46.3688 130.602 47.0067 132.043 47.0067C132.435 47.012 132.824 46.9364 133.186 46.7845C133.547 46.6325 133.875 46.4076 134.147 46.1235C134.44 45.8222 134.669 45.464 134.82 45.0707C134.97 44.6774 135.04 44.2573 135.024 43.836Z" fill="#303030"/>
<path d="M139.807 33.5537H141.483V48.0713H139.807V33.5537Z" fill="#303030"/>
<path d="M148.527 37.6303C149.154 37.611 149.778 37.7239 150.36 37.9619C150.941 38.1998 151.467 38.5574 151.902 39.0118C152.834 40.1116 153.302 41.5335 153.208 42.9753C153.303 44.4137 152.834 45.8324 151.902 46.9275C150.983 47.8161 149.757 48.3123 148.482 48.3123C147.207 48.3123 145.981 47.8161 145.061 46.9275C144.164 45.8383 143.717 44.4436 143.812 43.0319C143.718 41.5901 144.186 40.1682 145.117 39.0685C145.552 38.5995 146.081 38.2288 146.669 37.9808C147.256 37.7329 147.89 37.6134 148.527 37.6303ZM151.554 42.9753C151.61 41.966 151.342 40.9653 150.788 40.1216C150.527 39.7761 150.185 39.5011 149.792 39.3212C149.399 39.1414 148.969 39.0623 148.538 39.0911C148.108 39.0673 147.679 39.1486 147.287 39.328C146.895 39.5075 146.552 39.7798 146.288 40.1216C145.72 40.9597 145.443 41.9628 145.5 42.9753C145.444 43.9814 145.704 44.9798 146.243 45.829C146.5 46.1785 146.842 46.4563 147.236 46.6366C147.629 46.8168 148.062 46.8935 148.493 46.8595C148.922 46.8786 149.35 46.7952 149.741 46.6161C150.132 46.437 150.476 46.1673 150.743 45.829C151.328 44.9978 151.618 43.9924 151.565 42.9753H151.554Z" fill="#303030"/>
<path d="M159.779 39.3177C158.181 39.3177 157.356 40.5822 157.303 43.1113V48.0826H155.627V37.8909H157.303V39.8499C157.446 39.2411 157.79 38.699 158.278 38.3123C158.767 37.9256 159.371 37.7171 159.993 37.721C160.376 37.7234 160.756 37.7884 161.118 37.9135L161.028 39.5555C160.626 39.4111 160.205 39.3309 159.779 39.3177Z" fill="#303030"/>
<path d="M166.328 46.9501C166.607 46.9914 166.891 46.9757 167.164 46.9041C167.438 46.8324 167.693 46.7061 167.917 46.5329C168.141 46.3596 168.327 46.1428 168.466 45.8955C168.605 45.6481 168.693 45.3752 168.724 45.0929H170.435C170.38 45.5603 170.232 46.0119 170 46.4205C169.768 46.8291 169.457 47.1864 169.084 47.471C168.278 48.049 167.305 48.3436 166.316 48.309C165.691 48.3296 165.07 48.209 164.498 47.9563C163.925 47.7035 163.416 47.3248 163.008 46.8482C162.116 45.7552 161.662 44.3654 161.737 42.9527C161.668 41.5422 162.126 40.1569 163.019 39.0685C163.443 38.5935 163.964 38.2177 164.548 37.9673C165.131 37.7168 165.761 37.598 166.395 37.619C167.024 37.5846 167.65 37.721 168.208 38.0139C168.766 38.3068 169.236 38.7453 169.568 39.2836C170.289 40.5022 170.549 41.9418 170.3 43.3377H163.368C163.33 44.2637 163.599 45.1762 164.133 45.9309C164.386 46.2714 164.719 46.543 165.102 46.721C165.485 46.899 165.906 46.9778 166.328 46.9501ZM167.554 39.2383C167.017 38.9946 166.418 38.9247 165.839 39.0383C165.261 39.1519 164.732 39.4434 164.325 39.8725C163.809 40.4977 163.502 41.2702 163.447 42.0807H168.848C168.924 41.5304 168.843 40.9697 168.614 40.4643C168.385 39.9588 168.017 39.5296 167.554 39.227V39.2383Z" fill="#303030"/>
<path d="M60.0746 23.1805C58.398 22.6596 56.5865 22.2066 54.6511 21.8103C54.4823 22.603 54.2685 23.4863 53.9985 24.4488C55.8888 24.8339 57.6554 25.2755 59.2757 25.7851C64.7667 27.4837 68.176 29.7939 68.176 31.8096C68.176 33.8253 64.8004 36.0109 59.2869 37.6189C56.9136 38.2987 54.5011 38.832 52.0631 39.2156L51.7593 38.5022C53.3603 35.0265 53.8327 31.1317 53.1096 27.3705C52.1993 30.0174 51.1167 32.6012 49.869 35.1049L49.779 35.2861L49.5539 35.7391L49.4302 35.9769L49.2051 36.4072L49.0588 36.6903L48.8451 37.0866L48.5975 37.5509C48.1849 38.3059 47.7499 39.0797 47.2923 39.8724L46.4484 41.2766L46.3584 41.4125L45.987 42.0014L45.9308 42.0919L45.5032 42.7714C44.4905 44.3568 43.3653 45.9875 42.1276 47.6635C44.3825 46.7499 46.4303 45.3862 48.1474 43.6547C48.56 43.2395 48.9351 42.8129 49.2726 42.375L50.3191 42.2392C51.1003 44.2847 51.7578 46.376 52.2882 48.5014C53.6047 53.9144 53.3459 57.9232 51.6243 58.9763C49.9027 60.0295 46.3921 58.4214 42.2401 54.6618C41.2049 53.7332 40.1585 52.6801 39.0895 51.5363C38.5269 52.2309 37.9418 52.9292 37.3342 53.6313C38.3994 54.7335 39.4571 55.7301 40.5073 56.6209C44.4118 60.154 47.7986 61.9546 50.4766 61.9546C51.3994 61.9668 52.3073 61.7197 53.0983 61.2412C55.1349 60.0182 57.0928 56.6888 54.9437 47.8333C54.4344 45.7876 53.8108 43.7725 53.0758 41.7975C55.4293 41.4079 57.7586 40.8823 60.0521 40.2235C67.1409 38.1511 70.8878 35.2295 70.8878 31.7982C70.8878 28.367 67.1521 25.3661 60.0746 23.1805Z" fill="#303030"/>
<path d="M42.4877 43.0326C42.9303 42.3834 43.3653 41.7303 43.7929 41.0735C44.6481 39.7599 45.4695 38.4237 46.2571 37.0648C47.8408 34.3444 49.2611 31.531 50.5104 28.6396C51.7568 25.734 52.824 22.7538 53.706 19.7161C54.1448 18.1873 54.5386 16.6586 54.8312 15.0958C54.9999 14.3144 55.1462 13.5331 55.2812 12.7404C55.4163 11.9477 55.5288 11.155 55.6075 10.351C55.6863 9.54696 55.7538 8.73161 55.7538 7.90495C55.771 7.06438 55.7221 6.22377 55.6075 5.39097C55.4942 4.49185 55.2398 3.61654 54.8537 2.79773C54.6336 2.34368 54.3493 1.92411 54.0098 1.55207C53.667 1.17244 53.2592 0.85791 52.8058 0.623485C52.3451 0.403978 51.8503 0.266067 51.343 0.215814C50.876 0.157193 50.4035 0.157193 49.9365 0.215814C49.0867 0.365715 48.2613 0.632441 47.4836 1.00851C46.0331 1.69296 44.6662 2.54417 43.4103 3.54513C42.1762 4.50036 40.9966 5.52495 39.8772 6.61399C38.752 7.67846 37.6268 8.79956 36.6366 9.9433C36.1565 10.4642 35.6802 10.9965 35.2076 11.54C33.4573 9.46704 31.5782 7.5078 29.5816 5.67408C24.1244 0.623486 19.6686 -1.13177 16.7543 0.680106C13.84 2.49198 13.2661 7.24814 15.1452 14.4956C15.7797 16.8799 16.5537 19.2243 17.4632 21.5166C15.2177 21.9286 12.9974 22.4692 10.8132 23.136C3.73567 25.3669 0 28.3112 0 31.799C0 35.2869 3.74693 38.1519 10.8357 40.2242C12.5573 40.7338 14.4364 41.1754 16.4617 41.5491C15.9554 42.8288 15.494 44.1311 15.1002 45.4673C14.6121 47.0081 14.236 48.5825 13.975 50.1782C13.8535 50.9999 13.7784 51.8279 13.75 52.6582C13.7168 53.5287 13.762 54.4005 13.885 55.2628C14.0115 56.2168 14.2849 57.1451 14.6952 58.0145C14.9293 58.5006 15.2201 58.9567 15.5616 59.3734C15.9288 59.8108 16.3571 60.1922 16.833 60.5059C17.3252 60.8318 17.864 61.0801 18.4308 61.2419C18.9732 61.3942 19.5331 61.4741 20.0961 61.4797C21.0986 61.4807 22.0945 61.3162 23.0442 60.9928C23.483 60.8456 23.9106 60.687 24.3269 60.5059C24.7432 60.3247 25.137 60.1322 25.5196 59.9283C26.27 59.5259 26.9987 59.0836 27.7025 58.6034C29.0555 57.6756 30.3484 56.6619 31.5732 55.5685C32.7809 54.4965 33.9361 53.3641 35.0388 52.1712C37.218 49.8736 39.2441 47.4336 41.1037 44.8671C41.6325 44.3236 42.0488 43.6781 42.4877 43.0326ZM37.7168 10.9512C38.7633 9.81874 39.8322 8.78823 40.9461 7.78038C42.0591 6.77861 43.2274 5.84098 44.4455 4.97198C45.6245 4.12187 46.8969 3.41131 48.2375 2.85435C48.8567 2.60161 49.5082 2.4377 50.1728 2.36741C50.7168 2.29648 51.2694 2.39114 51.7593 2.63919C52.1914 2.89959 52.5242 3.29833 52.7045 3.77161C52.9408 4.37514 53.0739 5.01454 53.0983 5.66276C53.1297 6.3583 53.1033 7.05527 53.0196 7.74641C52.9343 8.45408 52.8141 9.15705 52.6595 9.85271C52.4945 10.5624 52.3069 11.2682 52.0969 11.9703C51.8869 12.6724 51.6506 13.3708 51.388 14.0653C50.8704 15.4582 50.2628 16.8284 49.6552 18.176L49.2164 19.0933C48.8788 18.6931 48.5038 18.3157 48.0912 17.9608C44.9074 14.7514 40.6434 12.8603 36.1415 12.6611C36.6816 12.0723 37.2067 11.5023 37.7168 10.9512ZM18.1495 3.02422C18.4925 2.82858 18.8805 2.72705 19.2747 2.72979C21.5251 2.72979 24.9683 5.11919 27.7588 7.67846C29.5004 9.28933 31.1461 11.0023 32.6872 12.8083C30.1278 13.1889 27.6794 14.1177 25.5073 15.5321C23.3352 16.9465 21.4899 18.8135 20.0961 21.007C19.1531 18.6624 18.3564 16.2607 17.7107 13.8162C16.6193 9.39974 16.1242 4.24723 18.1495 3.01289V3.02422ZM2.70049 31.799C2.70049 29.7833 6.0761 27.4845 11.6008 25.7745C13.8685 25.0865 16.1757 24.5381 18.5096 24.1325C16.926 28.2531 16.882 32.8121 18.3858 36.9628C18.0783 37.6121 17.7782 38.2651 17.4857 38.9219C15.4866 38.57 13.5072 38.1126 11.5558 37.5517C6.10985 36.0116 2.70049 33.7808 2.70049 31.799ZM27.9388 51.7976C26.9828 52.8515 25.9605 53.8425 24.8782 54.7645C24.3559 55.2005 23.8113 55.6087 23.2467 55.9875C22.9767 56.1687 22.6953 56.3386 22.414 56.4971C22.1327 56.6556 21.8627 56.7915 21.5927 56.9048C21.1114 57.1242 20.5988 57.2656 20.0736 57.3238C19.688 57.3701 19.2972 57.3033 18.9484 57.1313C18.5835 56.9238 18.2835 56.6178 18.082 56.248C17.8009 55.7466 17.5997 55.204 17.4857 54.6399C17.2246 53.2979 17.1489 51.9261 17.2606 50.5632C17.3659 49.1047 17.5727 47.6554 17.8795 46.226C18.172 44.8105 18.5546 43.4063 19.0047 42.0134C19.7923 42.1342 20.5987 42.2475 21.4239 42.3532C21.7914 42.7986 22.1665 43.2327 22.5491 43.6554C24.8185 45.9424 27.6546 47.5767 30.7631 48.389L30.6955 48.4682C29.8516 49.612 28.9177 50.7331 27.9388 51.7976Z" fill="#303030"/>
<path d="M48.5638 10.1238L45.3457 13.1926L46.921 14.2571L48.5638 10.1238Z" fill="#303030"/>
<path d="M55.4951 30.3489L55.3938 32.2513L59.7596 31.5379L55.4951 30.3489Z" fill="#303030"/>
<path d="M44.4117 48.8187L47.2698 52.2273L46.0883 47.9241L44.4117 48.8187Z" fill="#303030"/>
<path d="M23.2129 52.0687L26.2622 48.8413L24.6532 47.8447L23.2129 52.0687Z" fill="#303030"/>
<path d="M15.3027 32.1947L15.314 30.2922L10.9819 31.2208L15.3027 32.1947Z" fill="#303030"/>
<path d="M25.4747 13.2152L22.4591 9.95386L23.8431 14.1891L25.4747 13.2152Z" fill="#303030"/>
</g>
<defs>
<clipPath id="clip0">
<path d="M0 0H173V62H0V0Z" fill="white"/>
</clipPath>
</defs>
</svg>
