<?xml version="1.0" encoding="utf-8"?>
<!-- Generator: Adobe Illustrator 24.3.0, SVG Export Plug-In . SVG Version: 6.00 Build 0)  -->
<svg version="1.1" id="Layer_1" xmlns="http://www.w3.org/2000/svg" xmlns:xlink="http://www.w3.org/1999/xlink" x="0px" y="0px"
	 viewBox="0 0 1440 969.84" style="enable-background:new 0 0 1440 969.84;" xml:space="preserve">
<style type="text/css">
	.st0{fill:url(#SVGID_1_);}
	.st1{fill:url(#SVGID_2_);}
	.st2{fill:url(#SVGID_3_);}
	.st3{fill:url(#SVGID_4_);}
	.st4{fill:url(#SVGID_5_);}
	.st5{fill:url(#SVGID_6_);}
	.st6{fill:url(#SVGID_7_);}
	.st7{fill:url(#SVGID_8_);}
	.st8{fill:url(#SVGID_9_);}
</style>
<g>
	<g>
		<linearGradient id="SVGID_1_" gradientUnits="userSpaceOnUse" x1="469.3846" y1="565.6431" x2="877.779" y2="565.6431">
			<stop  offset="0" style="stop-color:#F9D423"/>
			<stop  offset="1" style="stop-color:#F83600"/>
		</linearGradient>
		<path class="st0" d="M968.9,564.26c-5.99-4.36-12.74-7.1-19.74-9.3c-9.93-3.11-20.21-4.76-30.27-7.33
			c-4.85-1.24-9.72-2.48-13.79-5.63c-3.18-2.46-4.16-5.73-3.04-9.59c1.24-4.25,4.47-6.45,8.34-7.85c6.75-2.43,13.76-2.38,20.75-1.75
			c11.4,1.02,22.02,4.74,32.1,10.05c1.25,0.66,1.76,0.6,2.34-0.81c3.32-8.19,6.76-16.35,10.15-24.51c1.85-4.46,1.84-4.45-2.66-6.62
			c-11.4-5.52-23.5-8.41-36.05-9.62c-13.21-1.28-26.29-0.73-39.13,2.82c-8.77,2.43-16.83,6.3-23.53,12.59
			c-9.76,9.16-13.83,20.57-13.11,33.81c0.55,10.02,4.29,18.52,11.98,25.14c6.4,5.51,13.98,8.74,21.91,11.28
			c9.73,3.11,19.8,4.84,29.67,7.36c5.03,1.28,10.09,2.6,14.37,5.75c5.43,4,5.31,11.05-0.21,14.93c-1.27,0.89-2.67,1.52-4.14,2.02
			c-3.99,1.35-8.13,1.85-12.31,1.93c-17.73,0.36-34.12-4.23-49.22-13.46c-0.85-0.52-1.27-0.74-1.78,0.44
			c-4.07,9.28-8.2,18.53-12.35,27.77c-0.43,0.96-0.29,1.45,0.58,2c2.56,1.6,5.16,3.13,7.9,4.4c15.51,7.18,31.95,10.12,48.91,10.54
			c2.95,0,5.91,0.1,8.86-0.02c10.27-0.4,20.27-2.21,29.76-6.3c17.61-7.6,28.82-22.19,28.26-41.65
			C983.09,580.88,978.52,571.27,968.9,564.26z"/>
		<linearGradient id="SVGID_2_" gradientUnits="userSpaceOnUse" x1="469.3846" y1="567.1936" x2="877.779" y2="567.1936">
			<stop  offset="0" style="stop-color:#F9D423"/>
			<stop  offset="1" style="stop-color:#F83600"/>
		</linearGradient>
		<path class="st1" d="M846.48,494.86c0.08-0.89-0.25-1.25-1.19-1.25c-7,0.06-14,0.07-21,0.1c-5.58-0.03-11.16,0-16.74-0.12
			c-1.45-0.03-1.83,0.36-1.8,1.8c0.25,10.5,0.08,21.01,0.26,31.52c0.33,19.82,0.13,39.64,0.07,59.47
			c-0.02,6.03-0.81,11.91-4.93,16.77c-2.23,2.09-4.73,3.65-7.77,4.36c-2.66,0.62-5.33,0.67-8.02,0.61
			c-0.49-0.11-0.98-0.24-1.47-0.34c-5.09-1.05-9.66-3.14-13.52-6.67c-2.33-2.29-4.67-4.56-6.64-7.17c-0.49-0.65-0.83-0.84-1.43-0.08
			c-1.54,1.96-3.15,3.86-4.73,5.78c-5.44,6.4-10.87,12.8-16.32,19.18c-0.48,0.56-0.43,0.92,0.03,1.45
			c4.68,5.48,10.13,9.96,16.66,13.07c3.75,2.14,7.77,3.6,11.94,4.68l0,0c5.05,1.5,10.21,2.35,15.48,2.51
			c5.41,0.48,10.81,0.33,16.19-0.41c1.01-0.11,2.03-0.17,3.04-0.34c6.96-1.17,13.7-3,19.72-6.89c0.91-0.55,1.87-1.05,2.74-1.66
			c6.42-4.5,11.05-10.47,14.19-17.61c3.76-8.54,5.19-17.58,5.22-26.82c0.08-30.25,0.03-60.51,0.03-90.76
			C846.47,495.63,846.45,495.24,846.48,494.86z"/>
		<linearGradient id="SVGID_3_" gradientUnits="userSpaceOnUse" x1="469.3846" y1="439.9459" x2="877.779" y2="439.9459">
			<stop  offset="0" style="stop-color:#F9D423"/>
			<stop  offset="1" style="stop-color:#F83600"/>
		</linearGradient>
		<path class="st2" d="M487.36,470.12c3.64,0.04,7.12-0.68,10.44-2.17c3.51-1.25,6.66-3.06,9.18-5.86
			c13.11-10.99,13.24-33.06-0.07-44.32h0c-2.55-2.7-5.66-4.53-9.14-5.77c-2.69-1.2-5.48-1.96-8.44-1.96
			c-4.12-0.78-8.07,0.08-11.98,1.28c-3.94,1.19-7.47,3.1-10.44,5.98c-8.06,6.95-11.3,15.88-10.2,26.29
			c0.81,7.66,4.26,14.16,10.23,19.18c0,0,0,0,0,0c3.02,2.74,6.46,4.75,10.41,5.85C480.58,469.8,483.92,470.3,487.36,470.12z"/>
		<linearGradient id="SVGID_4_" gradientUnits="userSpaceOnUse" x1="469.3846" y1="414.3831" x2="877.779" y2="414.3831">
			<stop  offset="0" style="stop-color:#F9D423"/>
			<stop  offset="1" style="stop-color:#F83600"/>
		</linearGradient>
		<path class="st3" d="M896.38,465.91c16.43,7.16,33.59,7.75,50.95,4.04c10.41-2.22,19.48-7.06,26.97-14.73
			c0.91-0.93,1.13-1.51,0.07-2.59c-6.25-6.37-12.44-12.8-18.58-19.27c-0.73-0.77-1.13-0.93-1.96-0.2
			c-8.86,7.74-19.28,10.08-30.7,8.49c-9.63-1.34-16.96-5.97-20.71-15.33c-0.82-2.05-0.8-2.06,1.33-2.06c12.85,0,25.7,0,38.55,0
			c12.79,0,25.57-0.03,38.35,0.04c1.68,0.01,2.33-0.4,2.45-2.14c0.41-5.84,0.58-11.66-0.3-17.47c-2.93-19.28-12.8-33.58-30.56-41.98
			c-13.76-6.51-28.26-7.41-43.08-4.66c-30.25,5.61-50.17,32.31-46.56,62.72C865.15,442.23,876.68,457.32,896.38,465.91z
			 M913.28,386.85c9.12-4.45,20.72-2.52,27.57,4.58c2.93,3.04,4.61,6.74,5.6,10.8c0.18,0.75,0.27,1.35-0.88,1.35
			c-14.7-0.05-29.4-0.06-44.1-0.09c-0.06,0-0.12-0.05-0.32-0.14C902.73,396.03,906.34,390.23,913.28,386.85z"/>
		<linearGradient id="SVGID_5_" gradientUnits="userSpaceOnUse" x1="469.3846" y1="439.8976" x2="877.779" y2="439.8976">
			<stop  offset="0" style="stop-color:#F9D423"/>
			<stop  offset="1" style="stop-color:#F83600"/>
		</linearGradient>
		<path class="st4" d="M825.26,394.04c-0.8-0.24-1.61-0.47-2.44-0.66c3.32-1.01,6.35-2.43,9.09-4.15
			c9.44-5.93,15.14-15.66,15.14-26.64c0-20.12-18.78-33.85-48.59-36.02c-3.96-0.37-7.87-0.51-11.56-0.51
			c-5.78,0-129.27,0.04-132.99,0.04c-3.87,0.22-7.4-0.65-10.36-3.28c-4.67-5.88-4.66-11.1,0.01-16.79c2.72-2.43,5.9-3.36,9.53-3.3
			c3.51,0.05,7.03,0.32,10.53-0.17l0.16,0.04l0.15-0.07c3.98-0.09,7.72-1.08,11.18-3.07c3.43-1.51,6.37-3.68,8.75-6.59
			c0.68-0.76,1.43-1.47,2.04-2.29c4.92-6.67,6.8-14.18,5.67-22.34c-0.81-5.83-3.09-11.08-7.17-15.43c-2.42-2.99-5.33-5.35-8.84-6.96
			c-2.99-1.75-6.21-2.81-9.67-3.06c-4.23-0.77-8.49-0.26-12.74-0.31c-3.34,0-6.68,0-10.02,0c-2.18,0-4.37,0-6.55,0
			c-2.06,0-4.11,0-6.17,0c-3.34,0-6.68,0-10.02,0c-3.98,0-7.97,0-11.95,0c-4.11,0-8.22,0-12.34,0c-3.96-0.28-7.83,0.15-11.56,1.56
			c-4.11,1.32-7.73,3.45-10.78,6.53c-12.72,10.58-12.75,33.11-0.04,43.94c3.26,3.28,7.15,5.5,11.57,6.8
			c1.87,0.7,3.82,1.06,5.81,1.26c5,0.48,10.01,0.04,15.01,0.3c0.9,0.26,1.81,0.52,2.71,0.79c1.05,0.72,2.18,1.35,3.13,2.19
			c4.42,3.93,5.97,11.73-0.47,17.74c-1.98,1.32-4.11,2.27-6.5,2.53c-2.83,0-104.01-0.37-107.94,0.75
			c-4.61,0.86-8.73,2.79-12.31,5.82c-0.17,0.09-0.36,0.16-0.5,0.28c-9.23,8.12-12.67,18.27-10.13,30.24
			c1.42,6.69,4.91,12.32,10.48,16.5c3.59,3.17,7.79,5.08,12.46,6.02c4.05,1.06,143.33,0.82,207.7,0.83c1.02,0,2.05-0.08,3.07-0.12
			c2.66,0.05,5.09,0.89,7.39,2.17c1.32,1.3,2.69,2.55,3.5,4.28c2.17,4.61,1.3,8.84-1.6,12.81c-2.34,2.05-4.93,3.61-8.08,4.09
			c-6.67,0.01-99.88-0.06-129.7-0.02c-3.07,0-6.13,0.38-9.04,1.5c-2.67,0.67-5.11,1.81-7.32,3.44c-0.39,0.22-0.81,0.39-1.16,0.66
			c-10.03,7.64-14.27,17.75-12.18,30.15c1.43,8.45,5.92,15.16,13.3,19.77c2.21,1.65,4.69,2.72,7.31,3.5
			c2.65,0.85,5.34,1.42,8.14,1.34c3.6,0,18.25,0,21.97,0c3.92-0.4,7.02,1.17,9.62,3.97c3.14,4.45,3.3,9.05,0.72,13.8
			c-2.46,3.38-5.75,5.26-9.95,5.49c-3.34,0-6.68,0-10.02,0c-2.96,0-5.91,0-8.87,0c-2.06,0-4.11,0-6.17,0c-2.57,0-5.14,0-7.71,0
			c-2.83,0-5.65,0-8.48,0c-2.18,0-4.37,0-6.55,0c-2.7,0-5.4,0-8.09,0c-2.96,0-5.91,0-8.87,0c-2.06,0-4.11,0-6.17,0
			c-2.7,0-5.4,0-8.09,0c-3.47,0-6.94,0-10.41,0c-3.86,0.05-7.73-0.45-11.57,0.33c-4.53,0.46-8.6,2.12-12.31,4.72
			c-2.01,1.17-3.76,2.68-5.31,4.39c-6.38,7.08-9.14,15.37-7.8,24.82c1.25,8.82,5.53,15.87,13.07,20.81
			c3.79,2.78,8.06,4.31,12.7,4.89c1.98,0.12,3.97,0.35,5.95,0.35c53.38,0.03,106.76,0.04,160.15,0.05c1.17,0.32,2.34,0.63,3.51,0.95
			c4.55,2.52,7,6.25,6.67,11.57c-0.27,4.36-2.73,7.33-6.25,9.59c-1.66,0.47-3.26,1.17-5.03,1.17c-14.73-0.02-29.47-0.02-44.2-0.06
			c-1.99-0.01-3.96,0.1-5.92,0.47c-4.51,0.63-8.63,2.24-12.3,4.95c-0.43,0.27-0.9,0.49-1.29,0.81c-8.54,6.82-12.59,15.74-11.71,26.6
			c0.76,9.37,5.12,16.89,12.99,22.23c3.67,2.73,7.8,4.32,12.31,4.95c3.46,0.74,93.06,0.43,96.02,0.43c2.48,0.14,4.95,0.12,7.34-0.7
			c3.23-0.47,6.18-1.66,8.89-3.46c0.34-0.17,0.71-0.29,1.02-0.51c10.66-7.38,15.36-17.56,13.44-30.35
			c-1.41-9.37-6.47-16.58-14.87-21.25c-2.36-1.54-4.92-2.58-7.7-3.04c-2.65-0.77-5.34-1.25-8.12-1.1c-3.44-0.88-6.65-2.12-8.54-5.43
			c-2.48-5.07-2.17-9.85,1.48-14.28c2.79-2.89,6.28-3.73,10.15-3.53c3.6,0,40.22,0,44.33,0c3.86-0.05,7.73,0.44,11.57-0.3
			c4.84-0.43,9.18-2.15,13.07-5.05c0.38-0.23,0.78-0.43,1.12-0.7c9.41-7.54,13.33-17.35,11.46-29.21
			c-1.29-8.18-5.48-14.78-12.44-19.48c-3.57-2.72-7.56-4.4-12.02-4.96c-0.99-0.51-2.05-0.41-3.1-0.38
			c-0.46-0.34-0.99-0.21-1.49-0.21c-0.97,0-116.24-0.18-119.96-0.22c-2.74-0.74-5.15-2.05-7.08-4.17
			c-4.58-7.06-3.33-13.32,3.62-18.07c1.15-0.58,2.37-0.83,3.67-0.83c2.88,0,134.7-0.01,140.48-0.01c3.09,0.05,6.17,0.08,9.25-0.05
			c0.42-0.02,0.85-0.02,1.27-0.05c0.07,0,0.14-0.01,0.2-0.01c1.66-0.07,3.27-0.19,4.86-0.33c0.13,0,0.25-0.01,0.38-0.03
			c5.71-0.52,11.03-1.49,15.87-2.91c3.98-1.08,7.82-2.55,11.47-4.59c0.51-0.27,1.01-0.54,1.5-0.82c2.75-1.42,5.25-3.19,7.45-5.32
			c7.61-6.78,11.84-15.74,11.84-26.34C851.36,412.52,841.11,398.69,825.26,394.04z M769.77,361.15h17.54
			c6.57,0,10.88,3.9,10.88,10.06c0,6.36-4.31,10.47-10.88,10.47h-17.38h-5.41v-20.53H769.77z M764.52,413.29h5.33h17.46
			c8.83,0,14.57,4.11,14.57,10.47c0,6.98-5.75,11.5-14.57,11.5h-17.53h-5.26V413.29z"/>
	</g>
	<g>
		<linearGradient id="SVGID_6_" gradientUnits="userSpaceOnUse" x1="469.3846" y1="696.502" x2="877.779" y2="696.502">
			<stop  offset="0" style="stop-color:#F9D423"/>
			<stop  offset="1" style="stop-color:#F83600"/>
		</linearGradient>
		<path class="st5" d="M740.89,696.67v-0.22c0-16.79,13.06-30.94,31.82-30.94c12.18,0,20.3,5.27,25.35,13.28l-14.16,10.54
			c-2.85-3.95-6.04-6.26-11.08-6.26c-6.69,0-11.63,5.93-11.63,13.17v0.22c0,7.68,4.83,13.5,11.85,13.5c4.94,0,8.12-2.3,11.41-6.15
			l13.94,10.1c-5.49,8.12-13.39,13.61-26.45,13.61C754.06,727.5,740.89,713.46,740.89,696.67z"/>
		<linearGradient id="SVGID_7_" gradientUnits="userSpaceOnUse" x1="469.3846" y1="696.4468" x2="877.779" y2="696.4468">
			<stop  offset="0" style="stop-color:#F9D423"/>
			<stop  offset="1" style="stop-color:#F83600"/>
		</linearGradient>
		<path class="st6" d="M801.68,696.67v-0.22c0-16.9,13.83-31.05,32.92-31.05c18.99,0,32.7,13.94,32.7,30.84v0.22
			c0,16.9-13.83,31.06-32.92,31.06C815.4,727.5,801.68,713.57,801.68,696.67z M847,696.67v-0.22c0-7.24-5.27-13.39-12.62-13.39
			c-7.57,0-12.4,6.04-12.4,13.17v0.22c0,7.24,5.27,13.39,12.62,13.39C842.17,709.83,847,703.8,847,696.67z"/>
		<linearGradient id="SVGID_8_" gradientUnits="userSpaceOnUse" x1="469.3846" y1="695.7335" x2="877.779" y2="695.7335">
			<stop  offset="0" style="stop-color:#F9D423"/>
			<stop  offset="1" style="stop-color:#F83600"/>
		</linearGradient>
		<path class="st7" d="M876.08,666.71h20.85v8.34c3.84-4.94,9.33-9.66,17.78-9.66c12.62,0,20.19,8.34,20.19,21.84v38.85h-20.85
			v-32.15c0-6.47-3.4-9.99-8.34-9.99c-5.05,0-8.78,3.51-8.78,9.99v32.15h-20.85V666.71z"/>
		<linearGradient id="SVGID_9_" gradientUnits="userSpaceOnUse" x1="469.3846" y1="685.6378" x2="877.779" y2="685.6378">
			<stop  offset="0" style="stop-color:#F9D423"/>
			<stop  offset="1" style="stop-color:#F83600"/>
		</linearGradient>
		<path class="st8" d="M949.38,683.39h-6.91v-16.35h6.91v-1.32c0-6.8,1.54-11.85,5.05-15.36c3.62-3.62,8.45-5.16,15.47-5.16
			c6.36,0,10.31,0.66,13.61,1.65v14.71c-2.41-0.77-4.83-1.21-7.79-1.21c-3.84,0-5.93,1.76-5.93,5.6v1.43h13.61v16.02h-13.28v42.69
			h-20.74V683.39z"/>
	</g>
</g>
</svg>
