<svg id="ac759ab2-0655-4c92-aa66-738b9deac035" data-name="Layer 1" xmlns="http://www.w3.org/2000/svg" width="112.26" height="20" viewBox="0 0 112.26 20"><title>brella-logo</title><path d="M20.68,0A9.9,9.9,0,0,0,10.8,9.88h3.49a6.39,6.39,0,1,1,6.39,6.39c-.28,0-.75,0-.75,0a13.43,13.43,0,0,1-2.64,3,10.7,10.7,0,0,0,3.4.57A9.88,9.88,0,1,0,20.68,0" style="fill:#bb16a3"/><path d="M9.88,19.77a9.9,9.9,0,0,0,9.88-9.88H16.28A6.39,6.39,0,1,1,9.88,3.49c.28,0,.75,0,.75,0a13.42,13.42,0,0,1,2.64-3A10.7,10.7,0,0,0,9.88,0a9.88,9.88,0,1,0,0,19.77" style="fill:#00af66"/><path d="M37.72,19.56V.2h9.53c3.44,0,5.67,2.09,5.67,5.32a4.15,4.15,0,0,1-2.87,4v.18a4.37,4.37,0,0,1,3.43,4.53c0,2.65-1.39,5.32-6.19,5.32Zm9.12-3.14c1.77,0,2.82-1,2.82-2.56A2.48,2.48,0,0,0,47,11.3H41.44v5.12Zm-.29-8a2.56,2.56,0,0,0,2.76-2.65,2.4,2.4,0,0,0-2.5-2.41H41.44V8.4Z" style="fill:#222221"/><path d="M74.56,20a7.32,7.32,0,0,1-7.42-7.6,7.35,7.35,0,1,1,14.7-.29V13.3H70.69l0,.15A4,4,0,0,0,74.54,17,3.78,3.78,0,0,0,78.19,15l0,0h3.5l0,.09A7.18,7.18,0,0,1,74.56,20m3.62-9.17,0-.16a3.55,3.55,0,0,0-3.58-2.79,3.82,3.82,0,0,0-3.73,2.79l0,.16Z" style="fill:#222221"/><rect x="84.48" y="0.21" width="3.6" height="19.36" style="fill:#222221"/><rect x="90.73" y="0.21" width="3.6" height="19.36" style="fill:#222221"/><path d="M103.69,20c-4.18,0-7-3.67-7-7.6s2.87-7.63,7-7.63c3.57,0,4.8,1.94,4.8,1.94h.18V5.21h3.6V19.56h-3.6V18.06h-.18S107.26,20,103.69,20m.67-12.12c-2.54,0-4.23,1.86-4.23,4.52a4.14,4.14,0,0,0,4.23,4.49,4.35,4.35,0,0,0,4.29-4.49,4.36,4.36,0,0,0-4.29-4.52" style="fill:#222221"/><path d="M56,19.56V5.21h3.6V8.3h.18A5.43,5.43,0,0,1,65,5h.7V8.58H65c-3.54,0-5.34,2.15-5.34,6.4v4.58Z" style="fill:#222221"/></svg>