<svg xmlns="http://www.w3.org/2000/svg" width="332.28" height="96.15" viewBox="0 0 332.28 96.15">
  <title>cai-logo</title>
  <g id="Layer_2" data-name="Layer 2">
    <g id="Layer_1-2" data-name="Layer 1">
      <g id="Layer_1-2-2" data-name="Layer 1-2">
        <path d="M291.23,61.89V34.31H298V61.85Zm6.87-30.74h-7v-6h7ZM274.3,51V49.84l-8.1.71c-1.08.1-1.52.7-1.52,1.78v2.39c0,1.62,1.69,2.47,4.16,2.47a5.71,5.71,0,0,0,5.48-5.93V51Zm0-8a3.78,3.78,0,0,0-3.3-4.12,3.35,3.35,0,0,0-1,0c-2.7,0-4.65,1.35-4.65,3.88H258.6c.21-6,5.09-9.12,11.67-9.12S281,37,281,43.11v13.5h4.65v5.24H274.94V57.59h-.22a8.6,8.6,0,0,1-8.31,4.9,8.32,8.32,0,0,1-8.74-7.86V54c0-4.43,3.23-8.1,9-8.58l7.62-.67ZM250.42,61.89h-7.79V54h7.79ZM218.19,45.05H229V44a5.4,5.4,0,0,0-10.8,0Zm5.4-11.34c7.45,0,12.31,5.6,12.31,13.16v3.41H218.19v1.83a5.1,5.1,0,0,0,5,5.2h.45a4.88,4.88,0,0,0,5.29-4.42h6.75c-.87,6.1-5.46,9.65-12.1,9.65-7.83,0-12.47-5.81-12.47-14.54s5-14.33,12.47-14.33ZM195,54.33l6.23-20h7.12l-9.72,27.5h-7.41l-9.66-27.54h7.23l6,20Zm-26.06,7.56V34.31h6.75V61.85Zm6.85-30.74h-7v-6h7Zm-20.2,25.38h6.86v5.23H148.84V39.46H143.3V34.31h5.46V25.13h6.75v9.18h6.85v5.15h-6.85ZM130.34,50.9V49.84l-8.1.71c-1.08.1-1.52.7-1.52,1.78v2.39c0,1.62,1.66,2.47,4,2.47a5.7,5.7,0,0,0,5.59-5.81V51Zm0-8A3.8,3.8,0,0,0,127,38.75a4.18,4.18,0,0,0-1,0c-2.7,0-4.65,1.35-4.65,3.89H114.6c.2-6,5.06-9.12,11.67-9.12s10.78,3.41,10.78,9.57v13.5h4.63v5.24H131V57.59h-.21a8.62,8.62,0,0,1-8.3,4.9,8.32,8.32,0,0,1-8.76-7.84V54c0-4.43,3.24-8.1,9-8.58l7.62-.67ZM90.28,45H101.1V44a5.42,5.42,0,0,0-10.82,0Zm5.4-11.34c7.45,0,12.31,5.61,12.31,13.17v3.41H90.28v1.82a5.14,5.14,0,0,0,5,5.21h.41a4.88,4.88,0,0,0,5.3-4.43h6.75c-.88,6.11-5.47,9.66-12.11,9.66C87.8,62.5,83.17,56.68,83.17,48s5-14.29,12.46-14.29M64,34.32H79.46V39.6H70.82V61.85H64.07Zm-18-.65c5.73,0,11,3,11.51,9.93H50.78a4.58,4.58,0,0,0-4.41-4.72,3.86,3.86,0,0,0-.68,0,4.9,4.9,0,0,0-5.09,4.7c0,.23,0,.47,0,.7V51.9a4.94,4.94,0,0,0,4.46,5.38h.67c3,0,4.76-1.25,5.17-4.92h6.77C57,59.27,52.13,62.55,46.06,62.55c-8.2,0-12.46-5.81-12.46-14.24,0-9.14,4.86-14.65,12.42-14.65M332.28,0H0V96.15H332.28Z"/>
      </g>
    </g>
  </g>
</svg>
