<svg id="Layer_1" data-name="Layer 1" xmlns="http://www.w3.org/2000/svg" viewBox="0 0 400 278.05" width="400" height="278.05"><title>Columbia_Road_Logo_RGB</title><path d="M317.45,232.47a6.3,6.3,0,0,0-5.19,3.72l-2.38.94c-0.85.33-1.68,0.61-2.49,0.83a12.66,12.66,0,0,1-2.31.44,5.45,5.45,0,0,1-2-.18,3.24,3.24,0,0,1-1.66-1.2,8.32,8.32,0,0,1-1.19-2.29,19.24,19.24,0,0,1-.79-3,34.5,34.5,0,0,1-.45-3.45,25.54,25.54,0,0,1-.07-2.89c0-1,.09-1.93.18-2.86s0.2-1.77.33-2.54a16.81,16.81,0,0,1,.42-1.93,72.75,72.75,0,0,1,5.6-12.76c2.11-3.88,4.06-7.77,5.77-11.75s3.57-7.87,5.58-11.68a33.33,33.33,0,0,0,3.61-13.68c0.08-1.41.15-2.8,0.2-4.15a32.25,32.25,0,0,0-.46-6.69,24.18,24.18,0,0,0-2.16-6.63,23.62,23.62,0,0,0-4.23-6,20.65,20.65,0,0,0-6.51-4.5,16.88,16.88,0,0,0-18.56,2.09c-11,8.21-11.26,24.62-11.52,33.46a78.54,78.54,0,0,0,.6,14.18,18.65,18.65,0,0,0-8.3,2,18.31,18.31,0,0,0-6.48,5.87,22.6,22.6,0,0,0-3.7,8.7c-0.62,3.13-1.07,6.13-1.39,9a40.16,40.16,0,0,0,0,8.69,43.21,43.21,0,0,0,1.75,8.38c0.08,0.26.19,0.5,0.28,0.75a10.12,10.12,0,0,1-1.31.71,4,4,0,0,1-2.14.25,2.5,2.5,0,0,1-2-1.91,20.67,20.67,0,0,1-.85-4.58,44.08,44.08,0,0,1,.11-8.18c0.3-3.19.61-6,.9-8.49s0.55-4.88.77-7.23a40,40,0,0,0,.14-6.51,12.17,12.17,0,0,0-.56-3.17,5.82,5.82,0,0,0-1.11-2,4.21,4.21,0,0,0-1.54-1.11,8.59,8.59,0,0,0-1.82-.5c-0.47-.08-0.95-0.14-1.44-0.19l-1.43-.17q-0.83-.11-1.64-0.3a7.51,7.51,0,0,1-1.61-.58,4.17,4.17,0,0,1-1.41-1.14l-1.25-1.52a7.51,7.51,0,0,0-1.57-1.4,4.44,4.44,0,0,0-2.41-.67,15.54,15.54,0,0,0-8.33,2.12,22.62,22.62,0,0,0-6.71,6.11,31.68,31.68,0,0,0-3.53,6.4,31.44,31.44,0,0,0-5-5.08,35.74,35.74,0,0,0-10.22-5.8,24.11,24.11,0,0,0-11.54-1.19,21.48,21.48,0,0,0-11.76,5.46,25.87,25.87,0,0,0-6.84,10.58,36,36,0,0,0-1.86,13.12,53.61,53.61,0,0,0,3,15.13,55.37,55.37,0,0,0,4.1,9.29c0.05,0.09.11,0.17,0.17,0.26-0.3.13-.61,0.29-0.91,0.4a10.3,10.3,0,0,1-3.5.72A3.44,3.44,0,0,1,172,240.8a14.8,14.8,0,0,1-2.07-4q-0.92-2.49-1.83-5.63t-1.8-6.55a63.75,63.75,0,0,0-2.41-7.32,41.78,41.78,0,0,0-3.56-7.11,24.37,24.37,0,0,0-4.86-5.59,16.68,16.68,0,0,0-6.78-3.4,78.81,78.81,0,0,0,10.87-3.75,59.05,59.05,0,0,0,8.66-4.62,35.8,35.8,0,0,0,6.61-5.45,32.19,32.19,0,0,0,4.58-6.11,25.83,25.83,0,0,0,2.64-6.48,23.1,23.1,0,0,0,.74-6.47,27.81,27.81,0,0,0-1.84-9.18,32.66,32.66,0,0,0-4.54-8.09,35,35,0,0,0-6.82-6.7,39.3,39.3,0,0,0-8.54-4.86,38.65,38.65,0,0,0-9.55-2.58,36,36,0,0,0-9.81.17c-3.54.49-7,.8-10.11,2.8h0c-1.87,0-36,15.44-40.54,17.33-9.13,3.8-18,8.06-24.59,11.55-3.28,1.76-6,3.23-7.89,4.34s-3,1.76-3,1.76A9.57,9.57,0,0,0,53.1,177c-4,4.89-3.19,13.28,1.83,18.71s12.29,5.78,16.31.87l0,0L73.35,194c1.35-1.62,3.34-3.9,5.76-6.62,4.88-5.39,12-9.79,19.1-16.31,1.82-1.66,3.67-3.29,5.52-4.86a84.92,84.92,0,0,0-6,14.64,104.59,104.59,0,0,0-4.18,22.62,110.75,110.75,0,0,0,.63,22.41A102.83,102.83,0,0,0,99,246.36a87.27,87.27,0,0,0,4.25,10.15,76,76,0,0,0,5.15,8.9,50.71,50.71,0,0,0,5.72,7.11,25.57,25.57,0,0,0,6,4.71,13.49,13.49,0,0,0,6.15,1.74,10.87,10.87,0,0,0,6.18-1.9c2.62-1.66,4.52-4.31,5.76-8.11a53.91,53.91,0,0,0,2.17-14.59,185,185,0,0,0-.65-21q-1-12.09-2.12-27.06,1.79-.59,3.6-1.12a3.92,3.92,0,0,1,4.14,1.4,20.78,20.78,0,0,1,3.55,6q1.66,4,3.34,9.21t3.07,9.79c0.93,3,2,6.15,3.22,9.38a56.8,56.8,0,0,0,4,8.53,21.45,21.45,0,0,0,4.72,5.82,8.16,8.16,0,0,0,5.84,1.94,22.06,22.06,0,0,0,5.66-1,42.49,42.49,0,0,0,5.28-2.08,45.78,45.78,0,0,0,4.64-2.53l0.14-.09a15.73,15.73,0,0,0,1.82.87,10.25,10.25,0,0,0,7,.14,12.34,12.34,0,0,0,4.66-2.58,21.15,21.15,0,0,0,3.79-4.39,30.85,30.85,0,0,0,3-5.82,48.06,48.06,0,0,0,2.09-6.88,52.07,52.07,0,0,0,1.12-7.47,44.67,44.67,0,0,0-.06-7.67,49.45,49.45,0,0,0-1.75-9.46,38,38,0,0,0-3.44-8l0.4-.7c1.57,1.07,3.44,2.44,5.58,4.16a43.48,43.48,0,0,1,3.74,3.45,59,59,0,0,0-.94,6.43,63.26,63.26,0,0,0,0,12,47.19,47.19,0,0,0,2.07,10,27.37,27.37,0,0,0,3.33,7,20.26,20.26,0,0,0,4.15,4.58,12.53,12.53,0,0,0,4.44,2.32,8.47,8.47,0,0,0,4.3.12,10.52,10.52,0,0,0,3.7-1.74,24,24,0,0,0,3.36-2.94,29.94,29.94,0,0,0,2.92-3.55,30.54,30.54,0,0,0,2.23-3.64,33.78,33.78,0,0,0,4.64,7.88,8.31,8.31,0,0,0,5.32,3.14,8.45,8.45,0,0,0,4.89-.84,24.1,24.1,0,0,0,4.65-2.94l0.27-.24c0.2,0.23.38,0.51,0.58,0.73a16.25,16.25,0,0,0,4.68,3.66,8.88,8.88,0,0,0,5.26.89,9.43,9.43,0,0,0,3.77-1.33,21.18,21.18,0,0,0,3.49-2.67,30.11,30.11,0,0,0,3.28-3.61c1.05-1.35,2.06-2.74,3-4.19a34.77,34.77,0,0,0,3.54,6.5,26.49,26.49,0,0,0,3.46,4,14.76,14.76,0,0,0,2.94,2.2,10.72,10.72,0,0,0,1.95.86,6.36,6.36,0,0,0,2.38.12,17.3,17.3,0,0,0,2.68-.55q1.38-.39,2.85-0.94c1-.37,1.92-0.74,2.83-1.11,2.14-.89,4.39-1.88,6.76-2.93a6.58,6.58,0,0,0,5.63-7.55A7.2,7.2,0,0,0,317.45,232.47ZM136.68,193c-0.06-4,0-7.53.21-10.61a30.9,30.9,0,0,0,0-7.32l-0.11-.62a6.79,6.79,0,0,0-1.58-3.67c-0.82-.86-2.18-1-4.11-0.41a7,7,0,0,0-3.48,2.34,12,12,0,0,0-2,3.83,19.47,19.47,0,0,0-.88,4.61,35.62,35.62,0,0,0,0,4.69q0.13,2.27.36,4t0.49,3.2l-0.07-.08c-0.21.09-.65,0.3-1.32,0.64s-1.39.72-2.18,1.15L119.72,196l-1.43.8a2.39,2.39,0,0,0-1.15,1.31,5.88,5.88,0,0,0-.37,1.89,10.58,10.58,0,0,0,.14,2.07c0.12,0.7.24,1.3,0.36,1.78a4.78,4.78,0,0,0,3.14,3.53,32.25,32.25,0,0,0,6.88,1.42q0.33,1.51.85,4.41t1.07,6.71q0.55,3.81,1.21,8.2t1.31,8.7c0.44,2.87.73,5.71,0.88,8.5a74.5,74.5,0,0,1,.05,7.58,26.08,26.08,0,0,1-.84,5.74,5.19,5.19,0,0,1-2.06,3.21,5.34,5.34,0,0,1-5.4.43,14.34,14.34,0,0,1-5.09-4.5,41.75,41.75,0,0,1-4.58-8,79.55,79.55,0,0,1-3.69-9.91,115.88,115.88,0,0,1-3.34-14.82,106.47,106.47,0,0,1-1.32-16.94,91.71,91.71,0,0,1,1.78-17.83,61.86,61.86,0,0,1,6-17,45,45,0,0,1,11.27-13.72,36.4,36.4,0,0,1,17.32-7.5,25.51,25.51,0,0,1,10,.26,21.1,21.1,0,0,1,7.53,3.39,16.92,16.92,0,0,1,4.82,5.31,15.14,15.14,0,0,1,2,6.28,17.31,17.31,0,0,1-1,7.06,17.07,17.07,0,0,1-4.73,6.84,38,38,0,0,1-9.45,6A125.74,125.74,0,0,1,136.68,193Zm64.25,37.61a26.58,26.58,0,0,1-1.69,6.12c-0.73,1.7-1.6,2.67-2.65,2.95a5.08,5.08,0,0,1-3.34-.17,7.25,7.25,0,0,1-2.77-2.12,15.2,15.2,0,0,1-1.84-3,0.34,0.34,0,0,1,0-.05l0,0c-0.12-.24-0.25-0.45-0.36-0.7a31.6,31.6,0,0,1-1.69-4.9,49.81,49.81,0,0,1-1.64-9.84,38.07,38.07,0,0,1,.44-8.55,20.73,20.73,0,0,1,2.32-6.85,6.13,6.13,0,0,1,4.06-3.29,4.56,4.56,0,0,1,3.33.58,8.36,8.36,0,0,1,2.63,2.72,19.21,19.21,0,0,1,1.94,4.32,37.09,37.09,0,0,1,1.28,5.52,58.22,58.22,0,0,1,.59,8.7A51.12,51.12,0,0,1,200.93,230.63ZM240,217.68a50.07,50.07,0,0,1-.8,11.24,21.91,21.91,0,0,1-1.61,5.18,3.86,3.86,0,0,1-2.76,2.51,2.54,2.54,0,0,1-2-.42,6.05,6.05,0,0,1-1.59-1.72,13.18,13.18,0,0,1-1.26-2.61,30,30,0,0,1-.94-3.13,32.67,32.67,0,0,1-.86-6,44.83,44.83,0,0,1,.34-7.72,38.52,38.52,0,0,1,1.57-7.51,23,23,0,0,1,2.6-5.46,12.73,12.73,0,0,1,3.69-3.74,7.82,7.82,0,0,1,4.6-1.26Q240.32,207.26,240,217.68Zm42.72,12.06a18.17,18.17,0,0,1-.93,2.1,12.24,12.24,0,0,1-1.14,1.82,6.44,6.44,0,0,1-1.36,1.33,3,3,0,0,1-1.59.56,7.52,7.52,0,0,1-2.81-.3,5.13,5.13,0,0,1-1.91-1.11,5.58,5.58,0,0,1-1.21-1.67,9.94,9.94,0,0,1-.69-1.93,31.35,31.35,0,0,1-.82-7.18,82.91,82.91,0,0,1,.56-9.62,20,20,0,0,1,2.87-9,14.68,14.68,0,0,1,5.81-5.11,5.33,5.33,0,0,1,.33,1.27q0.28,1.33.65,3.41t0.85,4.61q0.48,2.53,1.18,6.47t1.12,5.88c0.28,1.29.52,2.23,0.72,2.82A38.79,38.79,0,0,1,282.77,229.74ZM294,205.27l-0.06-.62c-0.06-.62,0-1.52-0.13-2.68s-0.16-2.52-.26-4.06-0.16-3.25-.22-5.11-0.08-3.78-.08-5.76q0-1.46,0-4.91t0.24-7.69a47.21,47.21,0,0,1,1.2-8.42c0.66-2.78,1.32-5.32,1.94-7.64a10.51,10.51,0,0,1,2.82-5.2,3.93,3.93,0,0,1,4.42-.69,4.22,4.22,0,0,1,2.18,2.14,11.92,11.92,0,0,1,.84,4.76,60.94,60.94,0,0,1-.31,6.39,41,41,0,0,1-1.12,6.13c-0.54,2.1-1.2,4.18-2,6.27s-1.49,4.21-2.21,6.38-1.54,4.27-2.22,6.28C297.5,195.52,295.51,200.34,294,205.27Z"/><path d="M392.31,129.51a6.52,6.52,0,0,0-6.64,5.16,21.7,21.7,0,0,1-2.49,1,10.39,10.39,0,0,1-2.39.48,4.82,4.82,0,0,1-2.21-.34,3.06,3.06,0,0,1-1.83-2.21,17.53,17.53,0,0,1-.47-4.28,33.24,33.24,0,0,1,.83-7.21q0.89-4.11,1.66-7.27t1.42-6.19a30,30,0,0,0,.71-5.72,10.29,10.29,0,0,0-.29-2.95,6,6,0,0,0-1-2,5.49,5.49,0,0,0-1.46-1.38,11.67,11.67,0,0,0-1.8-.92c-0.47-.19-1-0.37-1.45-0.55l-1.44-.53c-0.55-.21-1.11-0.44-1.64-0.7a10.08,10.08,0,0,1-1.59-.94,5.38,5.38,0,0,1-1.34-1.38l-1.14-1.68a9.5,9.5,0,0,0-1.48-1.66,6.09,6.09,0,0,0-2.4-1.25,17.8,17.8,0,0,0-8.71-.47,18.28,18.28,0,0,0-7.44,3.42,21.78,21.78,0,0,0-5.54,6.46,33.55,33.55,0,0,0-3.47,9.52,46.35,46.35,0,0,0-1.1,10.48,40.49,40.49,0,0,0,1.25,9.37l0,0.07c-0.66.29-1.3,0.57-2,.8a7.31,7.31,0,0,1-4,.45,3,3,0,0,1-2.27-2,16.46,16.46,0,0,1-1-4.39,23,23,0,0,1,.14-6c0.32-2.16.59-4.33,0.76-6.53a35.47,35.47,0,0,1,1.6-7.73c0.93-2.93,1.71-5.28,2.24-7.13s1-3.47,1.49-4.89a10.56,10.56,0,0,0,.66-3.41,4.24,4.24,0,0,0-1.26-2.82,9.67,9.67,0,0,0-4.54-2.2,20.84,20.84,0,0,0-4-.6,16.22,16.22,0,0,0-4.17.29A9.4,9.4,0,0,0,319.17,81a3.38,3.38,0,0,0-1.63,2.61c-0.18,1.44-.82,4.53-1.6,9.37-0.68,6-.91,9.88-1.08,11.64a55.81,55.81,0,0,0,.31,7.71l-0.07,0q-2.05.65-4,1.19a38.1,38.1,0,0,0-3.8,1.26,31.7,31.7,0,0,0,2.45-4.56,29.31,29.31,0,0,0,1.54-4.64,35.16,35.16,0,0,0,.81-5q0.23-2.62.24-5.65a25.59,25.59,0,0,0-4.22-14,23.1,23.1,0,0,0-5.22-5.59,17.3,17.3,0,0,0-7-3.23,6.89,6.89,0,0,0-5.81,1.46c-1.81,1.4-6.36,5.54-6.72,5.3,2.38-3.28,4.91-6.63,7.62-10s5.32-6.71,7.77-10.06a65.45,65.45,0,0,0,6.22-10.12A23.16,23.16,0,0,0,307.41,38a45.36,45.36,0,0,0-.8-7.8,19.63,19.63,0,0,0-2.93-7.13A21.82,21.82,0,0,0,297.41,17a30.44,30.44,0,0,0-10.68-4.13,13.86,13.86,0,0,0-10.43,1.63,22.07,22.07,0,0,0-7.48,8.33,47.53,47.53,0,0,0-4.54,12.84,67.87,67.87,0,0,0-1.25,16c0.18,5.79.42,10.63,0.64,14.5,0.55,5,2.7,23.3,4,31.2,0.59,3.64,1.16,6.86,1.7,9.73-0.4.28-.82,0.58-1.22,0.84q-1.16.77-2.39,1.44a15.56,15.56,0,0,1-2.48,1.1,13.85,13.85,0,0,1-2.42.6,5.1,5.1,0,0,1-2.23-.14c-0.68-.2-1.25-1.06-1.74-2.59a19.31,19.31,0,0,1-.78-5.62,75.32,75.32,0,0,1,.29-7.92c0.23-2.45.6-5.13,1.12-8s0.94-5.57,1.22-8A70.19,70.19,0,0,0,259.2,71a6.81,6.81,0,0,0-2-4.89,10.77,10.77,0,0,0-5-3,4.93,4.93,0,0,0-4.41.58,17,17,0,0,0-3.38,3.43,51.57,51.57,0,0,0-3.5,5.24q-1.79,3.06-3.26,5.93A54.15,54.15,0,0,0,235,84.15c-0.74,2-1.12,3.07-1.18,3.19l-0.7-.81a4.17,4.17,0,0,1,0-.5,14.86,14.86,0,0,1,.12-1.81c0.37-2.57.62-4.53,0.73-5.9,0.17-1.57.33-2.89,0.49-4a40.15,40.15,0,0,0,.26-4.23,35.41,35.41,0,0,0-.18-4.64,6.72,6.72,0,0,0-2.31-4.61,7.82,7.82,0,0,0-4.66-1.94,5.75,5.75,0,0,0-4.56,1.5A15.52,15.52,0,0,0,220,64.76a54.71,54.71,0,0,0-2.69,6.15c-0.87,2.34-1.63,4.61-2.3,6.79s-1.21,4.39-1.66,6.62-0.67,3.43-.71,3.56l-0.75-.69q-0.36-5.47-.49-9.91,0-.13-0.24-3.37-0.12-1.69-.33-3.3t-0.36-3c-0.13-.95-0.28-1.78-0.42-2.5-0.27-1.32-.53-2.36-0.77-3.12a3.1,3.1,0,0,0-1.12-1.68,3.56,3.56,0,0,0-2.1-.53,24.32,24.32,0,0,0-3.62.37,10,10,0,0,0-2.4.66A3.19,3.19,0,0,0,198.61,62a5.74,5.74,0,0,0-.73,2.14,25.54,25.54,0,0,0-.27,3.5q-0.07,2.11.09,5.39t0.54,7.19c0.26,2.6.58,5.66,1,9.15s0.83,6.59,1.31,9.27c0.35,2,.72,3.88,1.09,5.72-0.79.38-1.6,0.79-2.36,1.12a26.62,26.62,0,0,1-3.4,1.25,7,7,0,0,1-2.7.31,2,2,0,0,1-1.39-.77,5.09,5.09,0,0,1-.81-1.81,17.05,17.05,0,0,1-.47-2.66q-0.16-1.51-.3-3.31a24.12,24.12,0,0,1,.12-3.52q0.21-2.41.52-5.61c0.21-2.13.49-4.82,0.86-8.06s0.72-6,1-8.25a45,45,0,0,0,.44-6.33c0-2-.05-3.5-0.11-4.65a4.33,4.33,0,0,0-2.08-3.24A10.9,10.9,0,0,0,185.64,57a9.94,9.94,0,0,0-5.07.65c-1.44.63-2.19,1.48-2.27,2.51q-1.48,17.47-1.72,35.26a21.42,21.42,0,0,1-.52,4.83,12.68,12.68,0,0,1-1.33,3.6,8.23,8.23,0,0,1-1.77,2.48,4.19,4.19,0,0,1-2.08,1.11,1.86,1.86,0,0,1-1.39-.29,4.2,4.2,0,0,1-1.18-1.21,9.17,9.17,0,0,1-.95-1.84,14.73,14.73,0,0,1-.68-2.25s-0.06-.7-0.16-2-0.21-2.93-.34-5-0.3-4.79-.47-8.2-0.3-6.51-.4-9.29-0.18-5.55-.23-8.29-0.16-5.58-.32-8.53a3,3,0,0,0-1.92-2.15,9.74,9.74,0,0,0-5.11-.29A6.75,6.75,0,0,0,154.33,60a10.38,10.38,0,0,0-2.14,3.35,18.17,18.17,0,0,0-1.1,4.17,34.84,34.84,0,0,0-.38,4.33,30.64,30.64,0,0,0,.13,3.82c0.11,1.15.21,2.05,0.27,2.71,1.37,8.91,2.21,15.69,2.45,20.39,0,0.49.12,1.06,0.18,1.6l-2,1.5-2.94,2.22c-1,.76-1.95,1.46-2.87,2.1a26.59,26.59,0,0,1-2.6,1.62,6.86,6.86,0,0,1-2.22.8,1.31,1.31,0,0,1-1-.63,10.39,10.39,0,0,1-1.24-1.9,23.41,23.41,0,0,1-1.24-2.77,19.15,19.15,0,0,1-.91-3.27l-0.17-.92c-0.05-.9-0.07-1.83-0.05-2.79s0.05-1.86.1-2.71,0.12-1.64.21-2.38a14.72,14.72,0,0,1,.32-1.81,94.49,94.49,0,0,1,4.49-12.77q2.8-6.37,6.18-12.53c2.26-4.08,4.64-8,7.1-11.88s4.84-7.53,7-11.18a82.84,82.84,0,0,0,5.6-10.91,34,34,0,0,0,2.66-11.34,17.88,17.88,0,0,0-.44-4.9A14.08,14.08,0,0,0,167.5,9a17,17,0,0,0-4.72-4.41A23.18,23.18,0,0,0,155,1.55a25,25,0,0,0-12.55.38,28.81,28.81,0,0,0-10.87,6.13,42.52,42.52,0,0,0-8.48,10.64,65.53,65.53,0,0,0-5.8,13.68,79.78,79.78,0,0,0-2.75,19.1c-0.3,7.82-.25,11.72-0.27,11.72s0.12,1.48.4,4.44a34.85,34.85,0,0,0-9.45-4.84,24.76,24.76,0,0,0-11.81-.86A23.25,23.25,0,0,0,81.27,67.8a27.92,27.92,0,0,0-7.19,10.94,37.72,37.72,0,0,0-2.17,13.49,43.16,43.16,0,0,0,.5,5.69s0,0.05,0,.09c-0.31,4.95-4.9,16.52-7.25,19.29s-4.79,5.4-7.21,7.89A68.51,68.51,0,0,1,50.36,132a34.94,34.94,0,0,1-8.68,4.86,15.94,15.94,0,0,1-7.17,1.24,11.39,11.39,0,0,1-6.31-2.61,22.74,22.74,0,0,1-5.45-6.9,51.38,51.38,0,0,1-4.39-11.64,85.13,85.13,0,0,1-2.05-11,126,126,0,0,1-.93-13.14,135.28,135.28,0,0,1,.48-14.29A118.74,118.74,0,0,1,18,64.08,93.4,93.4,0,0,1,21.9,50.59a55,55,0,0,1,5.77-11.37,34.08,34.08,0,0,1,7.54-8.12,19.06,19.06,0,0,1,9-3.81,15.35,15.35,0,0,1,7.12.55,13,13,0,0,1,5,3.1,13.22,13.22,0,0,1,3,4.78,21.4,21.4,0,0,1,1.24,5.83,26.13,26.13,0,0,1-1.3,10.7,31.57,31.57,0,0,1-4.56,8.68,28.46,28.46,0,0,1-6.47,6.33A21.36,21.36,0,0,1,41,70.7a10.08,10.08,0,0,1-2.32.34,11.67,11.67,0,0,1-1.61-.1l-1.24-.18a2.79,2.79,0,0,0-1.25.12,2.84,2.84,0,0,0-1.69,1.25,5.25,5.25,0,0,0-.68,2.11,12,12,0,0,0,0,2.58q0.13,1.37.36,2.6,0.15,0.82.32,1.56c0.11,0.5.2,0.93,0.27,1.29a4.74,4.74,0,0,0,3.33,4c1.83,0.6,4.38.4,7.72-.4a23.39,23.39,0,0,0,7.43-3.3,45.94,45.94,0,0,0,7.06-5.74,57.25,57.25,0,0,0,6.44-7.55,63.08,63.08,0,0,0,5.35-8.8,50.43,50.43,0,0,0,3.66-9.58,34.5,34.5,0,0,0,1.21-10,31.81,31.81,0,0,0-3-13.17A29.85,29.85,0,0,0,65.2,18.2a27.16,27.16,0,0,0-20.35-6.57,34.16,34.16,0,0,0-14.55,5A47.12,47.12,0,0,0,18.4,27.37,70.17,70.17,0,0,0,9.47,42.28,101.3,101.3,0,0,0,3.59,59.73a128.52,128.52,0,0,0-3,18.43,144.44,144.44,0,0,0-.5,18,132,132,0,0,0,1.57,16.31A92.61,92.61,0,0,0,4.83,126a60,60,0,0,0,7,14.86,39.36,39.36,0,0,0,9.1,10,23.52,23.52,0,0,0,10.16,4.53,18.37,18.37,0,0,0,10.83-1.59,86.84,86.84,0,0,0,9.18-4.61,76.17,76.17,0,0,0,7.58-5,64.85,64.85,0,0,0,6.37-5.51c1.94-1.93,3.77-3.84,5.48-5.77s3.33-3.94,4.87-6.06a26.8,26.8,0,0,0,4.25-7.67s0-.07,0-0.1A32.74,32.74,0,0,0,84,124.84a17.33,17.33,0,0,0,6.2,4.32,10.15,10.15,0,0,0,7.06,0,13,13,0,0,0,4.79-2.76,23.08,23.08,0,0,0,3.93-4.64,33.94,33.94,0,0,0,3.13-6.12,52.24,52.24,0,0,0,2.26-7.19,56,56,0,0,0,1.29-7.78,47.18,47.18,0,0,0,.09-7.94,50.61,50.61,0,0,0-1.59-9.72,37.37,37.37,0,0,0-3.33-8.17l0.43-.74c1.58,1.05,3.45,2.4,5.59,4.08,0.77,0.61,1.54,1.33,2.31,2A83.64,83.64,0,0,0,118.58,92a94.24,94.24,0,0,0,5.19,13.34,80.73,80.73,0,0,0,5.94,10.5,33.67,33.67,0,0,0,5.74,6.73c1.85,1.57,3.52,2.19,5.11,1.84a14.22,14.22,0,0,0,3.26-1.19c1.15-.56,2.33-1.22,3.55-2s2.46-1.53,3.71-2.35,2.5-1.61,3.74-2.35c0.83-.52,1.7-1,2.56-1.57a25.63,25.63,0,0,0,1.48,3.28,14,14,0,0,0,2.81,3.7,5.74,5.74,0,0,0,5.76,1.39,9,9,0,0,0,3.41-2,21.84,21.84,0,0,0,3.22-3.63,46.52,46.52,0,0,0,3-4.87q1.49-2.71,2.86-5.79,0.91,2.9,1.88,5.26a23.61,23.61,0,0,0,2.09,4.06A10.1,10.1,0,0,0,186.4,119a5.65,5.65,0,0,0,3.07,1,13.31,13.31,0,0,0,3.66-.36,36.46,36.46,0,0,0,4.07-1.2q2.1-.75,4.25-1.69c1.06-.47,2.05-1,3.05-1.43,0.19,0.55.35,1.14,0.56,1.66a18.5,18.5,0,0,0,2,3.81,7.28,7.28,0,0,0,2.49,2.35,4.32,4.32,0,0,0,3.18.3,4.46,4.46,0,0,0,2.37-1.47,7.33,7.33,0,0,0,1.31-3.8c0.81-6,1.63-11.07,2.29-15.16s1.29-7.37,1.82-9.89,1-4.42,1.33-5.72a14.55,14.55,0,0,1,1-2.91l0.83,0q0.06,5.85.35,11,0.1,2.17.22,4.37c0.08,1.47.16,2.86,0.26,4.18s0.19,2.49.31,3.5,0.21,1.8.31,2.35q0.33,1.9.85,3.91a21,21,0,0,0,1.29,3.68,9.31,9.31,0,0,0,1.82,2.7,3.38,3.38,0,0,0,2.51,1,6.12,6.12,0,0,0,3.28-.86,6.49,6.49,0,0,0,2.28-3.4,266.69,266.69,0,0,1,7.62-30.77l0.84,0.16c-0.12,2.95-.16,5.88-0.14,8.79s0.13,5.69.3,8.32,0.45,5.26.81,7.6a39.69,39.69,0,0,0,1.41,6.21A15.06,15.06,0,0,0,250,121.6a5,5,0,0,0,2.9,2,17.72,17.72,0,0,0,6.14.46,20.28,20.28,0,0,0,5.11-1.29,36.09,36.09,0,0,0,4.63-2.27c1-.56,2-1,3-1.5a17.38,17.38,0,0,0,7,7.2c8.51,4.56,15.19,3.79,19.54,2a23.92,23.92,0,0,0,2.59-1.41,8.34,8.34,0,0,0,2.08-1.6c2.21-.15,4.33-0.3,6.36-0.47s4-.43,6-0.78c0.43-.08.85-0.18,1.28-0.27,0.15,0.72.32,1.42,0.49,2.08a29.2,29.2,0,0,0,1.75,5,14.22,14.22,0,0,0,2.42,3.72,10.35,10.35,0,0,0,3.16,2.35,11.41,11.41,0,0,0,4.11,1,18.34,18.34,0,0,0,5.46-.45c1.93-.42,3.86-0.92,5.85-1.47,1.14-.32,2.12-0.67,3.11-1a24.19,24.19,0,0,0,2.61,3.34,17.83,17.83,0,0,0,4.36,3.38,11.08,11.08,0,0,0,4.4,1.39,10.24,10.24,0,0,0,3.94-.46,18.84,18.84,0,0,0,3.7-1.62,21.4,21.4,0,0,0,3.3-2.31,20.5,20.5,0,0,0,2.59-2.59,36.87,36.87,0,0,0,4,8.23,11,11,0,0,0,5.13,4.22,9.62,9.62,0,0,0,5,.55,21.05,21.05,0,0,0,5-1.41,33.57,33.57,0,0,0,4.52-2.29c1.24-.75,2.26-1.41,3.11-2a6.45,6.45,0,0,0,5.3-6.74A7.75,7.75,0,0,0,392.31,129.51ZM101.82,97.67a54.12,54.12,0,0,1-.76,8.81,28.78,28.78,0,0,1-1.84,6.37c-0.77,1.77-1.68,2.8-2.75,3.1a5,5,0,0,1-3.39-.11,7,7,0,0,1-2.77-2.14,15.53,15.53,0,0,1-2.19-3.78,31.7,31.7,0,0,1-1.62-5A51.46,51.46,0,0,1,85,94.75a39.88,39.88,0,0,1,.61-8.82,22.4,22.4,0,0,1,2.49-7.09,6.61,6.61,0,0,1,4.2-3.48,4.49,4.49,0,0,1,3.37.52,8,8,0,0,1,2.62,2.73A19,19,0,0,1,100.21,83a37.54,37.54,0,0,1,1.19,5.67A60.68,60.68,0,0,1,101.82,97.67Zm33.49-37.9c-1.78,4.64-3.28,8.93-4.6,12.83a89.65,89.65,0,0,1-.65-16c0.27-6.12.5-9.16,0.5-9.17s0.56-3.35,2-9.93,3.13-11.22,4.69-14A22.6,22.6,0,0,1,142.39,17a7,7,0,0,1,5.37-1.89c0.48,0.06.79,0.55,0.92,1.46s0.24,2,.31,3.25a51.3,51.3,0,0,1-3,12.43c-1.56,4.45-3.33,9-5.22,13.59S137.1,55.14,135.32,59.77ZM278,67.29a62.22,62.22,0,0,0-2.66,6.64c0-1.37.07-3.16,0.14-5.36s0.17-4.61.3-7.25,0.29-5.42.5-8.38,0.54-5.83,1-8.63,1-5.45,1.67-8a38.93,38.93,0,0,1,2.23-6.53A13.8,13.8,0,0,1,284,25.6a3.55,3.55,0,0,1,3.18-1.14,4.4,4.4,0,0,1,2.27,1.11,7.35,7.35,0,0,1,1.4,1.79,7.07,7.07,0,0,1,.71,1.77,9.51,9.51,0,0,1,.21,1.06,34.68,34.68,0,0,1-1,8.11,54.28,54.28,0,0,1-2.5,7.61q-1.52,3.73-3.34,7.32t-3.57,7.13C280.2,62.73,279.09,65,278,67.29Zm21.19,31.43q-0.08,2.72-.39,5.45a42.92,42.92,0,0,1-.93,5.22,22.18,22.18,0,0,1-1.53,4.37,8.9,8.9,0,0,1-2.18,2.95,9.79,9.79,0,0,1-8.92.92c-2.51-1-4.27-8.74-4.43-10.58-0.47-4.88-1.13-10.72-.12-14.61A12.86,12.86,0,0,1,283,87.59,7.79,7.79,0,0,1,286.42,85a8.68,8.68,0,0,1,4.14-.42,11.16,11.16,0,0,1,4,1.27A8.84,8.84,0,0,1,297.17,88a8,8,0,0,1,1.4,2.67,14.18,14.18,0,0,1,.55,3Q299.29,96,299.22,98.72Zm64.15,17.9a34.15,34.15,0,0,1-.51,4.54,32,32,0,0,1-1.3,5.14,14.56,14.56,0,0,1-2.1,4.11,3.11,3.11,0,0,1-3,1.41,3.48,3.48,0,0,1-2-.94,7.61,7.61,0,0,1-1.48-2,13.57,13.57,0,0,1-1.06-2.66,27.7,27.7,0,0,1-.69-3,26.88,26.88,0,0,1-.35-5.56,32.53,32.53,0,0,1,1-6.68,26.19,26.19,0,0,1,2.28-6.14,15.38,15.38,0,0,1,3.14-4.05,9.87,9.87,0,0,1,4.1-2.25,8.7,8.7,0,0,1,4.81.16Q364.57,107.52,363.37,116.63Z"/><path d="M328.62,76.58c4.41,1.12,10.26-.89,10.66-5.7q0.45-5.32.9-10.64c0.38-4.47-1.95-9.69-7.23-11.09-4.45-1.18-10.35.75-10.73,5.59q-0.42,5.36-.84,10.73C321,70,323.39,75.24,328.62,76.58Z"/></svg>