<?xml version="1.0" encoding="UTF-8" standalone="no"?><!DOCTYPE svg PUBLIC "-//W3C//DTD SVG 1.1//EN" "http://www.w3.org/Graphics/SVG/1.1/DTD/svg11.dtd"><svg width="100%" height="100%" viewBox="0 0 284 84" version="1.1" xmlns="http://www.w3.org/2000/svg" xmlns:xlink="http://www.w3.org/1999/xlink" xml:space="preserve" xmlns:serif="http://www.serif.com/" style="fill-rule:evenodd;clip-rule:evenodd;stroke-linejoin:round;stroke-miterlimit:2;"><g><path d="M23.077,19.025l0,1.941c0,0.475 -0.129,0.69 -0.477,0.69c-0.131,0 -0.388,-0.087 -0.646,-0.26l-0.215,-0.128c-1.856,-1.081 -3.796,-1.597 -6.125,-1.597c-6.901,0 -11.086,4.532 -11.086,12.034c0,6.904 3.926,10.957 10.567,10.957c2.503,0 5.351,-0.69 7.033,-1.77c0.212,-0.129 0.386,-0.213 0.516,-0.213c0.304,0 0.433,0.213 0.433,0.818l0,1.769c0,1.466 -3.668,2.633 -8.239,2.633c-9.232,0 -14.838,-5.308 -14.838,-14.194c0,-9.27 5.91,-15.267 15.011,-15.267c4.485,0 8.066,1.165 8.066,2.587Z" style="fill:#231f20;fill-rule:nonzero;"/><path d="M35.696,33.994l-9.745,-16.218c-0.089,-0.131 -0.129,-0.304 -0.129,-0.476c0,-0.385 0.129,-0.518 0.518,-0.518l3.749,0c0.22,0 0.388,0.133 0.519,0.303l7.465,13.243l7.631,-13.243c0.088,-0.17 0.256,-0.303 0.475,-0.303l2.587,0c0.432,0 0.691,0.218 0.691,0.562c0,0.128 -0.042,0.215 -0.173,0.432l-9.272,15.655l0,11.558c0,0.305 -0.26,0.565 -0.562,0.565l-3.194,0c-0.3,0 -0.56,-0.26 -0.56,-0.565l0,-10.995Z" style="fill:#231f20;fill-rule:nonzero;"/><path d="M56.572,29.034l3.192,0c3.663,0 5.433,-1.513 5.433,-4.66c0,-2.889 -1.726,-4.703 -4.529,-4.703l-4.096,0l0,9.363Zm0,13.628l4.355,0c3.966,0 5.995,-1.812 5.995,-5.348c0,-3.623 -2.068,-5.435 -6.254,-5.435l-4.096,0l0,10.783Zm8.282,-12.682c2.5,0.563 3.835,1.295 4.913,2.546c1.123,1.296 1.681,2.977 1.681,4.919c0,5.044 -3.707,8.109 -9.748,8.109l-8.882,0c-0.301,0 -0.56,-0.26 -0.56,-0.565l0,-27.645c0,-0.304 0.259,-0.562 0.56,-0.562l8.324,0c5.566,0 8.583,2.546 8.583,7.161c0,3.408 -1.682,5.478 -4.871,6.037Z" style="fill:#231f20;fill-rule:nonzero;"/><path d="M79.79,20.017l0,8.627l8.928,0c0.304,0 0.561,0.26 0.561,0.561l0,2.112c0,0.304 -0.257,0.562 -0.561,0.562l-8.928,0l0,10.437l11.947,0c0.303,0 0.562,0.26 0.562,0.561l0,2.112c0,0.305 -0.259,0.565 -0.562,0.565l-15.698,0c-0.304,0 -0.561,-0.26 -0.561,-0.565l0,-27.645c0,-0.304 0.257,-0.562 0.561,-0.562l14.837,0c0.302,0 0.559,0.258 0.559,0.562l0,2.115c0,0.3 -0.257,0.558 -0.559,0.558l-11.086,0Z" style="fill:#231f20;fill-rule:nonzero;"/><path d="M101.162,29.377l3.067,0c3.837,0 5.562,-1.508 5.562,-4.832c0,-3.104 -1.725,-4.874 -4.701,-4.874l-3.928,0l0,9.706Zm0,2.892l0,12.72c0,0.305 -0.257,0.565 -0.558,0.565l-3.191,0c-0.304,0 -0.563,-0.26 -0.563,-0.565l0,-27.645c0,-0.304 0.259,-0.562 0.563,-0.562l8.886,0c3.147,0 5.045,0.777 6.427,2.546c1.032,1.337 1.594,3.107 1.594,4.959c0,4.313 -2.892,7.117 -7.547,7.334l10.091,12.938c0.129,0.173 0.173,0.257 0.215,0.302c0.044,0.041 0.044,0.128 0.044,0.217c0,0.3 -0.217,0.476 -0.602,0.476l-3.968,0c-0.175,0 -0.346,-0.09 -0.434,-0.218l-9.141,-12.639c-0.262,-0.344 -0.39,-0.428 -0.778,-0.428l-1.038,0Z" style="fill:#231f20;fill-rule:nonzero;"/><path d="M141.013,19.025l0,1.941c0,0.475 -0.131,0.69 -0.474,0.69c-0.129,0 -0.388,-0.087 -0.649,-0.26l-0.215,-0.128c-1.856,-1.081 -3.795,-1.597 -6.123,-1.597c-6.903,0 -11.087,4.532 -11.087,12.034c0,6.904 3.926,10.957 10.569,10.957c2.502,0 5.348,-0.69 7.033,-1.77c0.215,-0.129 0.385,-0.213 0.514,-0.213c0.301,0 0.432,0.213 0.432,0.818l0,1.769c0,1.466 -3.665,2.633 -8.238,2.633c-9.23,0 -14.838,-5.308 -14.838,-14.194c0,-9.27 5.91,-15.267 15.01,-15.267c4.485,0 8.066,1.165 8.066,2.587Z" style="fill:#231f20;fill-rule:nonzero;"/><path d="M148.781,31.361c0,3.752 0.602,6.17 2.029,8.196c1.677,2.287 4.049,3.492 7.028,3.492c5.777,0 9.057,-4.269 9.057,-11.732c0,-7.418 -3.322,-11.646 -9.057,-11.646c-2.979,0 -5.395,1.164 -6.989,3.451c-1.466,2.119 -2.068,4.446 -2.068,8.239Zm-4.529,0.087c0,-4.874 0.948,-8.194 3.104,-10.783c2.459,-2.931 5.648,-4.227 10.435,-4.227c8.887,0 13.63,5.218 13.63,14.879c0,9.62 -4.743,14.968 -13.282,14.968c-5.219,0 -8.324,-1.252 -10.825,-4.27c-2.154,-2.676 -3.062,-5.782 -3.062,-10.567Z" style="fill:#231f20;fill-rule:nonzero;"/><path d="M178.669,22.477l0,22.512c0,0.305 -0.259,0.565 -0.563,0.565l-2.327,0c-0.303,0 -0.56,-0.26 -0.56,-0.565l0,-27.645c0,-0.304 0.257,-0.562 0.56,-0.562l4.141,0c0.602,0 0.903,0.218 1.118,0.821l8.455,24.025l8.11,-23.595c0.342,-1.033 0.56,-1.251 1.336,-1.251l4.186,0c0.299,0 0.559,0.258 0.559,0.562l0,27.645c0,0.305 -0.26,0.565 -0.559,0.565l-3.062,0c-0.348,0 -0.563,-0.26 -0.563,-0.565l0,-22.729l-7.203,20.659c-0.776,2.331 -1.034,2.635 -2.11,2.635l-2.418,0c-0.949,0 -1.164,-0.218 -1.728,-1.856l-5.519,-16.003l-0.518,-1.467l-0.516,-1.594c-0.303,-0.775 -0.431,-1.209 -0.819,-2.157Z" style="fill:#231f20;fill-rule:nonzero;"/><path d="M95.886,70.329l3.194,0c0.301,0 0.558,0.258 0.558,0.559l0,10.092c0,1.469 -3.794,2.633 -8.668,2.633c-9.229,0 -14.841,-5.348 -14.841,-14.192c0,-9.487 5.869,-15.264 15.444,-15.264c4.486,0 8.065,1.122 8.065,2.587l0,1.855c0,0.561 -0.131,0.776 -0.474,0.776c-0.17,0 -0.603,-0.174 -1.125,-0.475c-1.55,-0.908 -4.181,-1.51 -6.424,-1.51c-6.728,0 -10.955,4.658 -10.955,11.99c0,6.944 3.925,11.041 10.523,11.041c2.977,0 4.141,-0.386 4.141,-1.337l0,-8.196c0,-0.301 0.261,-0.559 0.562,-0.559Z" style="fill:#231f20;fill-rule:nonzero;"/><path d="M109.581,67.093l3.065,0c3.839,0 5.565,-1.507 5.565,-4.83c0,-3.103 -1.726,-4.873 -4.704,-4.873l-3.926,0l0,9.703Zm0,2.893l0,12.723c0,0.299 -0.257,0.56 -0.559,0.56l-3.19,0c-0.304,0 -0.562,-0.261 -0.562,-0.56l0,-27.647c0,-0.305 0.258,-0.562 0.562,-0.562l8.882,0c3.149,0 5.049,0.779 6.431,2.546c1.032,1.336 1.594,3.105 1.594,4.958c0,4.314 -2.892,7.118 -7.547,7.332l10.089,12.942c0.131,0.171 0.173,0.255 0.217,0.301c0.045,0.044 0.045,0.13 0.045,0.215c0,0.301 -0.218,0.475 -0.603,0.475l-3.968,0c-0.175,0 -0.348,-0.086 -0.434,-0.217l-9.142,-12.637c-0.26,-0.345 -0.389,-0.429 -0.779,-0.429l-1.036,0Z" style="fill:#231f20;fill-rule:nonzero;"/><path d="M131.971,69.078c0,3.754 0.602,6.17 2.028,8.193c1.682,2.287 4.053,3.494 7.029,3.494c5.78,0 9.057,-4.269 9.057,-11.729c0,-7.421 -3.321,-11.646 -9.057,-11.646c-2.976,0 -5.392,1.164 -6.989,3.449c-1.466,2.116 -2.068,4.446 -2.068,8.239Zm-4.529,0.086c0,-4.871 0.949,-8.194 3.105,-10.782c2.458,-2.932 5.649,-4.225 10.439,-4.225c8.88,0 13.623,5.218 13.623,14.879c0,9.617 -4.743,14.964 -13.28,14.964c-5.219,0 -8.324,-1.251 -10.824,-4.269c-2.16,-2.673 -3.063,-5.779 -3.063,-10.567Z" style="fill:#231f20;fill-rule:nonzero;"/><path d="M177.816,54.5l2.332,0c0.301,0 0.56,0.257 0.56,0.562l0,19.623c0,5.91 -3.879,9.315 -10.564,9.315c-7.036,0 -11.001,-3.319 -11.001,-9.143l0,-19.795c0,-0.305 0.258,-0.562 0.559,-0.562l3.194,0c0.298,0 0.562,0.257 0.562,0.562l0,19.193c0,4.01 2.369,6.123 6.855,6.123c4.616,0 6.943,-2.027 6.943,-6.123l0,-19.193c0,-0.305 0.26,-0.562 0.56,-0.562Z" style="fill:#231f20;fill-rule:nonzero;"/><path d="M190.098,68.517l3.02,0c3.966,0 6.034,-1.852 6.034,-5.349c0,-3.493 -2.068,-5.435 -5.733,-5.435l-3.321,0l0,10.784Zm0,3.236l0,10.956c0,0.299 -0.259,0.56 -0.563,0.56l-3.191,0c-0.303,0 -0.56,-0.261 -0.56,-0.56l0,-27.647c0,-0.305 0.257,-0.562 0.56,-0.562l8.065,0c5.782,0 9.275,3.149 9.275,8.28c0,3.237 -0.778,5.264 -2.631,6.774c-1.854,1.552 -4.139,2.199 -7.246,2.199l-3.709,0Z" style="fill:#231f20;fill-rule:nonzero;"/><path d="M257.411,16.434l-29.883,0l-13.953,67.39l5.771,0c0,0 12.919,-40.346 14.679,-46.379c4.595,-15.733 23.386,-21.011 23.386,-21.011Z" style="fill:#231f20;fill-rule:nonzero;"/><path d="M260.693,83.824c0,0 -6.385,-31.554 -6.829,-39.84c-0.407,-7.647 0.182,-11.56 4.635,-16.458c4.451,-4.896 24.966,-11.092 24.966,-11.092l-8.59,0c-0.356,0.071 -25.971,5.437 -27.899,23.484c-0.481,4.486 -1.396,9.218 -2.512,13.849l10.24,30.057l5.989,0Z" style="fill:#231f20;fill-rule:nonzero;"/><path d="M262.864,16.434c-0.335,0.091 -21.106,5.961 -25.648,20.995c-0.626,2.073 -2.558,8.211 -4.829,15.375l-6.422,31.02l5.775,0c0,0 10.323,-24.286 12.421,-43.906c1.943,-18.176 25.04,-23.484 25.04,-23.484l-6.337,0Z" style="fill:#231f20;fill-rule:nonzero;"/><path d="M229.01,7.645c0,-3.718 3.013,-6.736 6.733,-6.736c3.723,0 6.739,3.018 6.739,6.736c0,3.722 -3.016,6.736 -6.739,6.736c-3.72,0 -6.733,-3.014 -6.733,-6.736Z" style="fill:#231f20;fill-rule:nonzero;"/><path d="M248.067,0.909c-1.601,0 -3.069,0.557 -4.225,1.492c1.104,1.459 1.769,3.273 1.769,5.244c0,1.971 -0.665,3.782 -1.769,5.244c1.156,0.932 2.624,1.492 4.225,1.492c3.72,0 6.737,-3.014 6.737,-6.736c0,-3.718 -3.017,-6.736 -6.737,-6.736Z" style="fill:#231f20;fill-rule:nonzero;"/><path d="M260.069,0.909c-1.574,0 -3.02,0.542 -4.168,1.45c1.073,1.444 1.712,3.226 1.712,5.162c0,2.008 -0.686,3.851 -1.827,5.323c1.163,0.961 2.655,1.537 4.283,1.537c3.72,0 6.737,-3.014 6.737,-6.736c0,-3.718 -3.017,-6.736 -6.737,-6.736Z" style="fill:#231f20;fill-rule:nonzero;"/></g></svg>