<?xml version="1.0" encoding="UTF-8"?>
<!-- Generator: Adobe Illustrator 27.1.1, SVG Export Plug-In . SVG Version: 6.00 Build 0)  -->
<svg xmlns="http://www.w3.org/2000/svg" xmlns:xlink="http://www.w3.org/1999/xlink" version="1.1" id="Layer_1" x="0px" y="0px" viewBox="0 0 828.9 379.8" style="enable-background:new 0 0 828.9 379.8;" xml:space="preserve">
<style type="text/css">
	.st0{fill:none;}
	.st1{fill:#FF1C45;}
</style>
<g>
	<rect x="0" class="st0" width="828.9" height="379.8"></rect>
	<g>
		<rect x="255.8" y="105.8" class="st1" width="44.4" height="166.8"></rect>
		<rect x="533.6" y="105.8" class="st1" width="44.4" height="166.8"></rect>
		<path class="st1" d="M300.1,46.5h-44.4v42.6h44.4V46.5z"></path>
		<path class="st1" d="M577.9,46.5h-44.4v42.6h44.4L577.9,46.5z"></path>
		<path class="st1" d="M226.2,41.4v231.3h-38.6l-6.1-22.9c-13.4,15.5-32.9,25.1-57,25.1c-50.9,0-81.2-38.4-81.2-85.7    s31.4-85.7,81.2-85.7c23.9,0,43.5,9.7,57,25.4V41.4H226.2z M166.6,142.1h-63.7c-8.1,0-14.7,6.6-14.7,14.7v63.7    c0,8.1,6.6,14.7,14.7,14.7h63.7c8.1,0,14.7-6.6,14.7-14.7v-63.7C181.3,148.7,174.7,142.1,166.6,142.1z"></path>
		<path class="st1" d="M784.5,105.8v166.8h-38.9l-5.3-22.9c-13.4,15.5-32.8,25.1-56.9,25.1c-50.9,0-81.1-38.4-81.1-85.7    s31.4-85.7,81.1-85.7c23.8,0,43.3,9.6,56.8,25.2l5.4-22.8L784.5,105.8L784.5,105.8z M725.4,142.1h-63.7c-8.1,0-14.7,6.6-14.7,14.7    v63.7c0,8.1,6.6,14.7,14.7,14.7h63.7c8.1,0,14.7-6.6,14.7-14.7v-63.7C740.1,148.7,733.5,142.1,725.4,142.1z"></path>
		<path class="st1" d="M505.2,105.8h-39l-5.4,21.8v1c-13.5-15.6-33-25.2-56.8-25.2c-49.7,0-81.1,38.4-81.1,85.7    c0,47.4,30.3,85.7,81.1,85.7c24,0,43.4-9.6,56.8-25l0.4,0.1v19.4c0,25.8-15.9,40.2-45,40.2c-22.2,0-36.8-8.7-41.4-24.5h-45.4    c3.2,36,34.8,57.6,87.8,57.6c57,0,87.9-26.7,87.9-71.5L505.2,105.8z M446,235.3h-63.7c-8.1,0-14.7-6.6-14.7-14.7v-63.7    c0-8.1,6.6-14.7,14.7-14.7H446c8.1,0,14.7,6.6,14.7,14.7v63.7C460.7,228.7,454.1,235.3,446,235.3z"></path>
	</g>
</g>
</svg>
