<?xml version="1.0" encoding="utf-8"?>
<!-- Generator: Adobe Illustrator 18.1.1, SVG Export Plug-In . SVG Version: 6.00 Build 0)  -->
<svg version="1.1" id="Layer_1" xmlns="http://www.w3.org/2000/svg" xmlns:xlink="http://www.w3.org/1999/xlink" x="0px" y="0px"
	 viewBox="0 287 612 505.1" enable-background="new 0 287 612 505.1" xml:space="preserve">
<rect y="287" fill="#DF192C" width="612" height="505.1"/>
<path fill="#FFFFFF" d="M114.9,567v-50.5c0-6.3,0-11.8,1.4-16.7c11.8-3.8,27.9-5.9,41.8-5.9c8,0,17.8,0.7,24.7,1.7v-40.4H201V567
	c0,5.9,0,11.5-1.4,17.1c-11.1,3.8-28.6,5.9-41.8,5.9c-13.9,0-29.3-2.1-41.5-5.9C115.3,578.8,114.9,572.8,114.9,567 M133.8,511.6
	c-0.3,2.4-0.7,6.3-0.7,11.5v37.3c0,5.9,0,9.8,0.7,11.5c6.6,1.7,16.4,2.4,24.4,2.4c8.7,0,18.5-1,24.4-2.8c0.3-1.7,0.7-5.6,0.7-11.5
	v-49.1c-7-1-17.1-1.7-25.1-1.7C150.1,509.2,140.7,510.2,133.8,511.6"/>
<rect x="224.3" y="494.6" fill="#FFFFFF" width="18.5" height="94.4"/>
<path fill="#FFFFFF" d="M331.3,603.8c0.3-2.1,0.7-4.9,0.7-8.4v-9.8c-7.3,0.7-16.7,1.4-23.7,1.4c-13.9,0-29.3-2.1-40.8-5.9
	c-1-5.6-1.4-11.1-1.4-17.1v-47.6c0-5.9,0.3-11.5,1.4-16.7c11.5-3.8,26.8-5.9,40.8-5.9c13.6,0,28.6,2.1,40.8,5.9
	c1,5.6,1.4,10.8,1.4,16.7V606c-5.2,15.3-21.2,17.8-40.8,17.8c-8.7,0-20.6-1.4-30.3-3.5V606c9.8,1.7,24,3.1,35.5,2.8
	C321.2,608.5,328.1,606.7,331.3,603.8 M331.9,570.5v-47.4c0-5.6,0-9.1-0.7-11.5c-6.3-1.4-15-2.4-23-2.4c-7.7,0-16.4,1-23,2.4
	c-0.7,2.4-1,6.3-1,11.5v35.2c0,5.2,0.3,9.1,1,11.5c5.9,1.7,15,2.4,22.6,2.4C315.6,572.6,324.6,571.8,331.9,570.5"/>
<rect x="373.4" y="494.6" fill="#FFFFFF" width="18.5" height="94.4"/>
<path fill="#FFFFFF" d="M496,499.8c-11.8-4.2-24.4-6.3-38-6.3c-11.8,0-30,2.1-40.8,4.9v17.1h9.1c1.7-1.4,2.8-3.1,3.8-5.2
	c3.5-0.7,10.8-1.7,24.7-1.7c8,0,16.7,1.4,23.7,2.8c0.3,4.5,0.7,8.7,0.7,12.9v7.7h-39.7c-7.3,0-16.7,1-24.7,4.2
	c-1,4.9-1.7,10.8-1.7,14.6v16.4c0,5.9,0.3,11.5,1.7,17.1c12.2,3.8,27.5,5.9,41.5,5.9c13.2,0,28.2-2.1,39.4-5.9
	c1-5.2,1.4-10.8,1.4-17.1v-47C497.4,515.1,497.1,508.5,496,499.8 M443.1,545.1h36.2v11.8c0,4.9,0,11.5-0.7,15.3
	c-5.6,1.7-13.2,2.4-21.9,2.4c-0.3,0-1,0-1.4,0c-7.7,0-17.1-0.7-23.3-2.4c-0.7-3.5-1-8.7-1-11.8V559c0-2.8,0-8.7,1-12.9
	C435.1,545.3,438.5,545.1,443.1,545.1 M414.9,536c-1,4.9-1.7,14.6-1.7,14.6V567"/>
<rect x="224" y="456.5" fill="#FFFFFF" width="18.5" height="19.5"/>
<rect x="373.4" y="456.5" fill="#FFFFFF" width="18.5" height="19.5"/>
</svg>
