<svg width="350" height="140" viewBox="0 0 350 140" fill="none" xmlns="http://www.w3.org/2000/svg">
<path d="M121.31 29.9336H100.344V107.463H121.31V29.9336Z" fill="black"/>
<path d="M252.489 29.9336H231.523V107.463H252.489V29.9336Z" fill="black"/>
<path d="M121.263 2.37051H100.296V22.1713H121.263V2.37051Z" fill="black"/>
<path d="M252.441 2.37051H231.475V22.1713H252.441V2.37051Z" fill="black"/>
<path d="M86.3667 0V107.51H68.1395L65.259 96.8659C58.9315 104.07 49.7234 108.533 38.3432 108.533C14.3079 108.533 0 90.6839 0 68.6985C0 46.7131 14.8273 28.8645 38.3432 28.8645C49.629 28.8645 58.8842 33.3732 65.259 40.6706V0H86.3667ZM58.2232 46.8061H28.1436C24.3187 46.8061 21.2021 49.8738 21.2021 53.6388V83.247C21.2021 87.012 24.3187 90.0797 28.1436 90.0797H58.2232C62.048 90.0797 65.1646 87.012 65.1646 83.247V53.6388C65.1646 49.8738 62.048 46.8061 58.2232 46.8061Z" fill="black"/>
<path d="M350 29.9336V107.463H331.631L329.128 96.8194C322.801 104.024 313.64 108.486 302.26 108.486C278.224 108.486 263.964 90.6374 263.964 68.652C263.964 46.6667 278.791 28.8181 302.26 28.8181C313.498 28.8181 322.706 33.2802 329.081 40.5312L331.631 29.9336H350ZM322.093 46.8061H292.013C288.188 46.8061 285.071 49.8738 285.071 53.6388V83.247C285.071 87.0119 288.188 90.0797 292.013 90.0797H322.093C325.917 90.0797 329.034 87.0119 329.034 83.247V53.6388C329.034 49.8738 325.917 46.8061 322.093 46.8061Z" fill="black"/>
<path d="M218.112 29.9336H199.696L197.146 40.0664V40.5312C190.771 33.2802 181.563 28.8181 170.325 28.8181C146.856 28.8181 132.029 46.6667 132.029 68.652C132.029 90.6839 146.337 108.486 170.325 108.486C181.658 108.486 190.819 104.024 197.146 96.8659L197.335 96.9123V105.93C197.335 117.922 189.827 124.615 176.086 124.615C165.603 124.615 158.709 120.571 156.536 113.227H135.098C136.609 129.96 151.531 140 176.558 140C203.474 140 218.065 127.59 218.065 106.766L218.112 29.9336ZM190.158 90.1261H160.078C156.253 90.1261 153.136 87.0584 153.136 83.2935V53.6852C153.136 49.9203 156.253 46.8526 160.078 46.8526H190.158C193.982 46.8526 197.099 49.9203 197.099 53.6852V83.2935C197.099 87.0584 193.982 90.1261 190.158 90.1261Z" fill="black"/>
</svg>
