<svg width="133" height="32" viewBox="0 0 133 32" fill="none" xmlns="http://www.w3.org/2000/svg">
<path d="M39.7668 15.3987C39.7668 16.6252 39.5424 17.7715 39.0694 18.8376C38.5805 19.9358 37.9552 20.8737 37.1456 21.6993C36.344 22.5009 35.3821 23.1502 34.2839 23.6232C33.2097 24.0961 32.0474 24.3366 30.8209 24.3366H24.873L27.847 21.3386H30.8209C31.6466 21.3386 32.4322 21.1783 33.1456 20.8897C33.859 20.5771 34.5083 20.1522 35.0454 19.5911C35.5825 19.03 36.0073 18.4047 36.3199 17.6913C36.6326 16.9538 36.7929 16.1923 36.7929 15.3907C36.7929 14.5891 36.6326 13.8276 36.3199 13.0901C36.0073 12.3767 35.5825 11.7514 35.0213 11.1903C34.4843 10.6532 33.835 10.2043 33.1215 9.89172C32.4081 9.60314 31.6225 9.44282 30.8209 9.44282H27.847L24.873 6.44482H30.8209C32.0474 6.44482 33.1937 6.69332 34.2839 7.15825C35.358 7.63119 36.3199 8.27248 37.1215 9.0821C37.9472 9.90775 38.5724 10.8456 39.0694 11.9438C39.5424 13.034 39.7668 14.1723 39.7668 15.3987Z" fill="black"/>
<path d="M55.3341 6.46069V17.1541L43.4463 6.46069V6.48474V6.50077V10.9737V24.3445H46.4202V13.6511L58.308 24.3445V24.3204V24.2964V19.8234V6.46069H55.3341Z" fill="black"/>
<path d="M67.6867 21.3465L66.1637 24.3445H62.853L71.7909 6.46069L77.7548 18.3966H74.4041L71.7909 13.1461L69.1536 18.3966L67.6867 21.3465ZM80.7368 24.3445H77.4021L75.9272 21.3705H79.2378L80.7368 24.3445Z" fill="black"/>
<path d="M91.502 14.2765H93.5862C95.2054 14.2765 96.3036 13.3306 96.3036 11.9358C96.3036 10.5651 95.2375 9.69136 93.5702 9.69136C91.9109 9.69136 90.8127 10.6292 90.7165 12.1042H87.4139C87.5341 8.87372 89.9309 6.83765 93.6584 6.83765C97.1614 6.83765 99.6784 8.75348 99.6784 11.4389C99.6784 13.4108 98.4359 14.9499 96.5281 15.3427V15.5591C98.8688 15.8156 100.336 17.3787 100.336 19.6312C100.336 22.6212 97.5221 24.7855 93.6263 24.7855C89.8187 24.7855 87.2375 22.6773 87.0852 19.4629H90.508C90.6123 20.9058 91.8307 21.8196 93.6664 21.8196C95.4539 21.8196 96.6964 20.8176 96.6964 19.3587C96.6964 17.8677 95.5261 16.9459 93.6103 16.9459H91.494V14.2765H91.502Z" fill="black"/>
<path d="M109.562 6.82959C113.121 6.82959 115.606 8.87368 115.606 11.8075C115.606 13.6673 114.604 15.2625 111.646 18.044L108.384 21.1542V21.3707H115.863V24.3366H103.55V21.8436L109.121 16.3927C111.526 14.052 112.127 13.1623 112.127 12.048C112.127 10.6773 111.013 9.70735 109.45 9.70735C107.791 9.70735 106.66 10.7975 106.66 12.3687V12.4408H103.35V12.3847C103.342 9.08209 105.875 6.82959 109.562 6.82959Z" fill="black"/>
<path d="M119.229 19.4869H122.532C122.732 20.9058 123.991 21.8517 125.61 21.8517C127.446 21.8517 128.712 20.6252 128.712 18.7655C128.712 16.8817 127.438 15.6312 125.626 15.6312C124.304 15.6312 123.294 16.2084 122.7 17.1703H119.51L120.36 7.27051H131.093V10.2364H123.133L122.757 14.6292H122.973C123.694 13.5871 124.905 12.9619 126.596 12.9619C129.835 12.9619 132.135 15.3427 132.135 18.6853C132.135 22.3086 129.522 24.7775 125.602 24.7775C121.867 24.7775 119.334 22.5411 119.229 19.4869Z" fill="black"/>
<path d="M12.4323 13.3066L0.905241 6.70142C0.905241 6.70142 0.480392 8.03208 0.223879 9.02607C-0.265099 10.9419 0.440311 12.2806 1.61867 12.9459L7.37418 16.2004L12.4323 13.3066Z" fill="url(#paint0_linear)"/>
<path d="M16.3359 8.80962L0.953178 0C0.953178 0 0.528328 1.33066 0.271815 2.32465C-0.217163 4.24048 0.488247 5.57916 1.65859 6.24449L17.2738 15.0782C17.2738 15.0782 17.4502 14.3006 17.5784 13.5952C17.9151 11.7435 17.9472 9.90782 16.3359 8.80962Z" fill="url(#paint1_linear)"/>
<path d="M16.3361 8.80962L14.8371 7.9519C14.8291 7.9519 14.8291 7.9519 14.8291 7.95992C14.9493 8.28858 15.4944 9.73146 14.6848 10.8377C14.0034 11.7836 12.7048 12.497 12.7048 12.497L17.274 15.0862C17.274 15.0862 17.4503 14.3086 17.5786 13.6032C17.9153 11.7435 17.9473 9.90782 16.3361 8.80962Z" fill="url(#paint2_linear)"/>
<path d="M16.9694 22.7976L0.873211 32C0.873211 32 0.456377 30.6613 0.215896 29.6593C-0.249034 27.7354 0.504475 26.3647 1.73093 25.6673L18.0756 16.4248C18.0756 16.4248 18.244 17.2024 18.3642 17.9238C18.6608 19.7915 18.6688 21.6432 16.9694 22.7976Z" fill="#CD2D3D"/>
<path d="M16.4322 16.3045L0.825025 25.2344C0.825025 25.2344 0.400176 23.9037 0.151679 22.9017C-0.329283 20.9859 0.384143 19.6312 1.57853 18.9658L17.4182 10.0039C17.4182 10.0039 17.5946 10.7815 17.7148 11.4949C18.0435 13.3466 18.0755 15.1823 16.4322 16.3045Z" fill="url(#paint3_linear)"/>
<path d="M16.3201 8.80172C16.3201 8.80172 15.8391 8.52918 15.0535 8.07227C15.3501 8.30473 15.3822 8.92197 15.3902 9.15443C15.4383 11.0622 13.9874 12.1845 12.3842 12.8498L1.58659 18.958C0.3922 19.6314 -0.321226 20.9781 0.159736 22.8939C0.408233 23.8959 0.833082 25.2266 0.833082 25.2266L16.1036 16.4891C17.5625 15.7997 18.5726 14.3087 18.5726 12.5853C18.5726 10.958 17.6587 9.53118 16.3201 8.80172Z" fill="#CD2D3D"/>
<path d="M15.286 8.2085C15.286 8.2085 15.1016 8.09627 15.0455 8.06421C15.0455 8.06421 15.5826 9.15439 15.1096 10.3408C14.789 11.1504 13.8591 11.952 12.793 12.6173L12.2158 12.938L1.57857 18.958C0.384178 19.6313 9.49841 14.5973 12.9213 12.6333C13.9874 12.0241 14.9333 11.2305 15.278 10.4129C15.815 9.18645 15.286 8.2085 15.286 8.2085Z" fill="url(#paint4_linear)"/>
<defs>
<linearGradient id="paint0_linear" x1="0.065804" y1="11.475" x2="12.4417" y2="11.5331" gradientUnits="userSpaceOnUse">
<stop stop-color="#CE2D3C"/>
<stop offset="1" stop-color="#7E1829"/>
</linearGradient>
<linearGradient id="paint1_linear" x1="0.0900279" y1="7.59806" x2="17.79" y2="7.70607" gradientUnits="userSpaceOnUse">
<stop stop-color="#CE2D3C"/>
<stop offset="1" stop-color="#7E1829"/>
</linearGradient>
<linearGradient id="paint2_linear" x1="12.7094" y1="11.5355" x2="17.7666" y2="11.5663" gradientUnits="userSpaceOnUse">
<stop stop-color="#882635"/>
<stop offset="1" stop-color="#7E1829"/>
</linearGradient>
<linearGradient id="paint3_linear" x1="0.00176314" y1="17.6167" x2="17.8963" y2="17.6167" gradientUnits="userSpaceOnUse">
<stop stop-color="#CE2D3C"/>
<stop offset="1" stop-color="#E5384A"/>
</linearGradient>
<linearGradient id="paint4_linear" x1="1.47426" y1="13.5464" x2="15.5202" y2="13.5464" gradientUnits="userSpaceOnUse">
<stop stop-color="#CE2D3C"/>
<stop offset="1" stop-color="#E95256"/>
</linearGradient>
</defs>
</svg>
