<?xml version="1.0"?>
<svg xmlns="http://www.w3.org/2000/svg" xmlns:svg="http://www.w3.org/2000/svg"
viewBox="0 0 1020 400" enable-background="new 0 0 1020 400" width="1020" height="400" xml:space="preserve"
>
 <g id="ea-logo">
   <style>.ea-logo__sign, 
      .ea-logo__dot {
          fill: #0019af;
      }
      #ea-logo--white .ea-logo__sign, 
      #ea-logo--white .ea-logo__dot {
          fill: white;
      }</style>
   <path id="svg_2" d="m371.399994,112.600014c-0.100006,14.799995 1.199982,37.199989 3.600006,60.099998c1.299988,11.599976 2.899994,19 3.599976,22.200012c0.400024,1.599976 1,1.799988 1,1.799988c0.5,0 0.700012,-0.200012 1.5,-1c3.400024,-3.5 7.700012,-15.200012 10.400024,-21.799988c9.599976,-23.200012 16.299988,-48.500023 19.899994,-75.100021c0.5,-3.199989 4.600006,-32.399994 -4.100006,-44.399982c-2.200012,-3.100021 -5.100006,-6.100021 -8.5,-6.5c-0.399994,-0.100021 -1.200012,-0.199989 -2.399994,-0.199989c-6.700012,0 -22.899994,5 -24.200012,42.899982c0.000031,-0.100014 -0.799988,17.5 -0.799988,22zm-158.299988,67.499992c-14.899979,0 -28.199982,5.899994 -28.799988,6.100021c-25.800003,10.799988 -44.100006,28.699997 -52.900009,51.799988c-0.300003,0.800018 -4.299995,9.700012 -1.699997,13c1.899994,2.400009 5.699997,2.200012 10.099991,2.200012l0.5,0c44.300003,-1 76.900009,-5.5 91.699982,-24.300003c0.5,-0.5 13.299988,-15.5 11.799988,-29.199997c-0.599976,-5.300003 -3.199966,-9.700012 -7.699966,-13c-6.200012,-4.400024 -13.899994,-6.600021 -23,-6.600021m680.499908,95c-49.599915,1.100006 -75.399963,7.399994 -88.899963,21.600006c-6.099854,6.399994 -9.699951,14.399994 -10.899841,24.399994c0,0.300018 -1.200012,9.5 4.399841,16.600006c3.700012,4.799988 9.400146,7.399994 16.900146,7.799988c0,0 0.799927,0 2.099854,0c10.800049,0 65.800049,-2.699982 85.900146,-55.399994c0.299927,-0.799988 3.700012,-8.399902 0.700012,-12.800018c-1.200012,-1.699982 -4.80011,-2.399933 -9.30011,-2.399933c-0.399902,0.100037 -0.69989,0.100037 -0.899902,0.199951m-74.200073,120.300049c-16.700012,0 -39.5,-2.5 -53.399963,-14.199951c-24.800049,-21 -19.69989,-64.600067 -19.5,-66.5c3.5,-28.100098 18.699951,-64.800018 71.200012,-80.300018c23.900146,-7.100052 51.199951,-8.5 69.700012,-8.899994l0,0c2.299988,0 10.799988,-0.200012 11.900085,-3.700012c1.100037,-3.5 -6.30011,-9.5 -11.100159,-12.699997c-14.399841,-9.800003 -49.699951,-26.5 -128.099854,-26.5c-0.300049,0 -7.5,0 -10.700073,0c-33.399963,0 -77.299927,5.900009 -100.400024,19.800018c-5.300049,3.199982 -8.600037,6.799988 -9,11.5c-0.699951,7.899979 6.699951,14.199982 7.5,14.899979l0.199951,0.200012c7.200012,5.399994 15,9.699982 20,12.199982l2.100098,1c12.399902,6 35.399963,17.100006 45.700012,40.399933c5.699951,12.700012 8.100098,26.300049 7,39.400024c-8,72.600037 -90.299988,73.499969 -93.799988,73.499969l-0.299988,0c-33.799988,0 -58.5,-12.899994 -73.299988,-23.799988c-0.200012,-0.199982 -23,-14.100006 -32.100098,-42c-0.199951,-0.799988 -1.800049,-5.699982 -2.100037,-6.699982c-1,-4.100006 -3.399963,-13.5 -5.5,-13.700012c-3.499969,-0.399963 -9.199982,11.300018 -10.999969,14.600037c-3.900024,7.100067 -8.700012,15.600067 -10.300049,18c-9,14.800079 -32.399963,53.600006 -67.799957,53.600006c-9.099976,0 -18.5,-2.600006 -28,-7.799988c-22.799988,-12.399963 -29.399994,-31.300018 -34.799988,-46.499969c-1.399994,-4.100098 -2.600006,-8.699982 -4,-12.899994c-5.700012,-17.200012 -6.899994,-17.700012 -19.899994,-6c-12.399994,11.200012 -24.399994,22.200012 -34.899994,30.399994c-16.700012,13.100006 -50.400009,35.899933 -87.699997,40.699951c-9.399994,1.199982 -18.600021,2.100006 -27.200012,2.100006c-34.699982,0 -60.399994,-10 -76.400002,-29.199951c-12.599983,-15.200012 -22.599983,-34.200012 -28.899986,-54.899994c-3.799995,-12.600006 -4.899986,-10.800018 -15.5,-13c-12.700005,-2.600006 -22.099995,-4 -36.899998,-7.300018c-6.199999,-1.399994 -11.599998,-5.199982 -14.999998,-10.699982c-3.5,-5.600006 -4.700001,-12.200012 -3.400001,-18.700012c2.3,-11.399994 12.100011,-19.699982 23.200002,-19.699982c1.599998,0 3.299999,0.199982 4.899998,0.5c2.39999,0.5 4.600002,1 6.599979,1.5c5.70002,1.299988 16.700024,3.5 20.400013,4c0.5,0.099976 1.699997,0.199982 2.099976,0.199982c7.800011,0.399994 7.800011,-0.399994 10.400024,-9.799988c0.300011,-1 0.5,-2.300034 0.899986,-3.600021c11.199989,-44.300018 42.800003,-78.200027 86.100006,-94.700027c10.499985,-4 27.599991,-7.399963 46.400009,-7.399963c16.699982,0 39.300003,3 53.199982,14.700012c24.100006,20.399948 24.399994,50.100021 22.5,66.199982c-2.199982,18.199997 -13.799988,62.400024 -74.199982,80.300018c-18.600006,5.5 -40.5,8.299988 -70.900009,8.899963c-4.100006,0.100037 -8.600006,-0.299988 -9.900009,2.299988c-2,3.800049 2.300003,9.800049 2.600021,10.200012c6.5,11.299988 22.399979,30.5 54.899979,30.5c5.800018,0 11.899994,-0.700012 18.300018,-1.899963c29.399994,-5.399994 54.699982,-21.100037 75.099976,-37.100037c15.700043,-12.299988 35.200012,-31.5 44.100067,-41.399963c0.600037,-0.600037 2.899963,-2.899994 4.699982,-7.100037c0.899963,-2.100006 1.699982,-4.700012 2,-7.800003c0.300018,-3.100006 0.300018,-6.700012 -0.5,-10.800018c-0.5,-2.399994 -7.699982,-48.100006 -8.199982,-51.699982c-4.100037,-32.700012 -5.300018,-59.400009 -4.699951,-76.299988c0,-0.900002 0.699951,-85.300009 51.799988,-104.599998c0.5,-0.20001 7.600006,-2.8 18.5,-2.5c18.200012,0.39998 34.700012,6.89998 45,19c23.200012,27.099998 22.399994,58.199997 19.099976,82.299988c-8,57.999992 -28.299988,109.800011 -60.199982,154.100014c-6.100006,7.5 -4,15.700012 -3.5,17.100006c3.800018,14.699982 8.399994,31.799988 13.700012,46.800018c0.199982,0.600006 6,17.800018 18.199982,18.300018c10.400024,0.399963 29,-29.300018 29,-29.300018c0.799988,-1.300018 43.900024,-64.399979 48.5,-125.800034c0,-0.699966 0.900024,-11.199966 -0.5,-25.100006c0,-0.300003 -1.899963,-14.300034 5,-22.700012c3.5,-4.299988 8.899994,-6.399948 16.100006,-6.399948c24.200012,0 26.700012,28.600006 26.799988,29.799988c0.200012,2.399963 0.299988,4.800018 0.400024,7.200012c0.700012,8.600006 6.700012,83.899963 10.399963,114.800018c0.100037,0.599976 7.400024,65.799957 58.900024,65.899963c0.5,0 2.200012,0.100006 4.799988,0.100006c30.600037,0 49,-12.600006 49.200012,-33.600006c0.400024,-3 0.299988,-16.600006 -27.599976,-31.100006c-8.5,-4.200012 -26.600037,-15.200012 -34.900024,-22.5c-0.400024,-0.299988 -1.599976,-1.299988 -1.599976,-1.299988c-33.800049,-28.400055 -23.100037,-58.900055 -19,-67.700027c13.799988,-29.399994 47.399963,-48.5 100,-56.899979c25,-4 48.199951,-4.600021 59.899963,-4.600021c4,0 6.700012,-0.100021 7.799988,-0.100021c143.600098,0.100021 175.900024,52 180.900024,62.399994c3.69989,7.400009 6.69989,15.200012 9.099976,23.100006c1.69989,5.600021 1.899963,8 10.399963,8.399994c4.299927,0.200012 7.600037,0.600006 10.5,0.900009c7.900085,0.599991 12.600037,0.899963 25.799927,3.599991c6,1.200012 11.200073,4.900009 14.600159,10.400009c3.5,5.599991 4.699951,12.699982 3.299866,19.199997c-2.400024,11.300018 -12.199951,19.199951 -23.900024,19.199951c-1.599976,0 -3.099976,-0.100006 -4.69989,-0.399933c-8.399902,-1.5 -11.899902,-1.900024 -16.19989,-2.300018c-1.200012,-0.100067 -2.5,-0.199982 -4,-0.399994c-0.60022,-0.100006 -1.200012,-0.100006 -1.700012,-0.100006c-8.5,-0.100067 -9.299988,1.699951 -10.299988,8.300018c-1.30011,8 -3.60022,15.799988 -6.5,23.399933c-13.900085,37 -43.600098,66.300049 -81.30011,80.399994c-8.399963,3 -24.299988,6.099976 -46.099976,6.400024" class="ea-logo__sign"/>
   <path id="svg_3" d="m519.900024,33.5c-14.799988,0 -26.099976,11.60001 -26.400024,26.89999c-0.299988,16.900013 12.700012,32.10001 29,33.900013c1.100037,0.099976 2.100037,0.199997 3.100037,0.199997c14.799988,0 26.099976,-11.600014 26.399963,-26.899986c0.300049,-16.900013 -12.699951,-32.100014 -29,-33.900013c-1,-0.200001 -2.099976,-0.200001 -3.099976,-0.200001" class="ea-logo__dot"/>
 </g>
 <script>var modifier = window.location.hash.replace('#', '');
    var svg = document.getElementById('ea-logo');
    svg.setAttribute('id', modifier);</script>
</svg>
