<?xml version="1.0" encoding="UTF-8"?><svg id="Layer_1" xmlns="http://www.w3.org/2000/svg" viewBox="0 0 1920 661.88"><defs><style>.cls-1{fill:#11284c;}</style></defs><path class="cls-1" d="m288.12,39.66v13.54c0,14.74-11.95,26.69-26.69,26.69H19.1c-3.77,0-6.82-3.05-6.82-6.82v-7.87c0-28.84,23.38-52.22,52.22-52.22h196.94c14.74,0,26.69,11.95,26.69,26.69Zm907.61-26.69h-250.73c-14.74,0-26.69,11.95-26.69,26.69v13.54c0,14.74,11.95,26.69,26.69,26.69h250.73c14.74,0,26.69-11.95,26.69-26.69v-13.54c0-14.74-11.95-26.69-26.69-26.69Zm-98.59,135.9h-53.55c-7.38,0-13.36,5.98-13.36,13.36v175.3c0,14.74,11.95,26.69,26.69,26.69h26.89c14.74,0,26.69-11.95,26.69-26.69v-175.3c0-7.38-5.98-13.36-13.36-13.36ZM825.74,12.98h-26.89c-14.74,0-26.69,11.95-26.69,26.69v297.86c0,14.74,11.95,26.69,26.69,26.69h26.89c14.74,0,26.69-11.95,26.69-26.69V39.67c0-14.74-11.95-26.69-26.69-26.69ZM261.44,297.3H105.94c-7.4,0-13.39-6-13.39-13.39v-61.42c0-3.7,3-6.7,6.7-6.7h142.41c14.74,0,26.69-11.95,26.69-26.69v-13.54c0-14.74-11.95-26.69-26.69-26.69H25.26c-7.17,0-12.98,5.81-12.98,12.98v148.78c0,29.59,23.99,53.58,53.58,53.58h195.58c14.74,0,26.69-11.95,26.69-26.69v-13.54c0-14.74-11.95-26.69-26.69-26.69ZM1532.42,12.98h-196.94c-28.84,0-52.22,23.38-52.22,52.22v7.87c0,3.77,3.05,6.82,6.82,6.82h242.33c14.74,0,26.69-11.95,26.69-26.69v-13.54c0-14.74-11.95-26.69-26.69-26.69Zm0,284.33h-155.5c-7.4,0-13.39-6-13.39-13.39v-61.42c0-3.7,3-6.7,6.7-6.7h142.41c14.74,0,26.69-11.95,26.69-26.69v-13.54c0-14.74-11.95-26.69-26.69-26.69h-216.39c-7.17,0-12.98,5.81-12.98,12.98v148.78c0,29.59,23.99,53.58,53.58,53.58h195.58c14.74,0,26.69-11.95,26.69-26.69v-13.54c0-14.74-11.95-26.69-26.69-26.69ZM677.94,12.98h-40.09c-10.57,0-19.81,7.14-22.48,17.36l-64.36,246.54c-2.69,10.3-11.99,17.49-22.64,17.49h0c-10.65,0-19.95-7.19-22.64-17.49L441.38,30.34c-2.67-10.23-11.91-17.36-22.48-17.36h-40.09c-8.76,0-15.15,8.28-12.94,16.75l70.01,268.19c10.99,42.09,49,71.45,92.5,71.45h0c43.5,0,81.51-29.37,92.5-71.45L690.88,29.73c2.21-8.48-4.18-16.75-12.94-16.75Zm1199.68,279.75c-31.88,5.01-72.92,11.56-107.4,9.52-39.8-2.35-62.16-24.08-62.67-62.14-.2-15.33-.61-89.16.38-106.91,1.39-25.01,11.83-46.59,38.1-53.65,22.81-6.13,64.07-5.36,84.99-3.24,16.05,1.63,31.57,5.76,46.1,10.49,15.64,5.09,26.32-.36,29.26-13.54,5.33-23.9-5.21-45.56-34.18-55-34-11.08-95.64-12.81-130.36-7.64-57.5,8.55-100.56,44.9-108.93,100.1-8.09,53.34-8.31,114.94,1.29,168.41,6.16,34.32,28,60.55,61.52,74.39,50.87,21,130.33,19.61,183.12,4.86,24-6.71,28.75-16.08,28.17-42.77-.48-22.4-6.7-26.46-29.4-22.89Zm-96.33,199.8h59.46c.36,0,.73,0,1.09,0,4.93,0,10.3.12,15.96.36,5.59.24,11.32.56,17.04.97,5.49.39,10.41.91,14.62,1.53,3.07.44,6.2-1.04,7.72-4.02.57-1.11.78-2.36.78-3.6v-9.42c0-3.92-2.8-7.27-6.66-7.97-3.53-.64-8.05-1.25-13.46-1.81-5.7-.58-11.87-1.01-18.34-1.26-6.43-.25-12.86-.37-19.13-.37-10.26,0-19.41.6-27.19,1.8-8.42,1.3-15.57,3.81-21.24,7.46-5.57,3.59-9.16,7.96-12.17,13.84-.58,1.14.24,2.5,1.52,2.5Zm125.23,105.64c0,9.74-.91,18.05-2.7,24.69-1.95,7.22-5.02,13.06-9.13,17.37-4.02,4.22-8.85,7.42-14.35,9.52-5.15,1.96-10.96,3.19-17.28,3.65-5.8.42-12.2.63-19.01.63-5.93,0-12.53-.13-19.59-.37-7.1-.25-14.07-.62-20.72-1.12-6.41-.48-12.25-.96-17.37-1.43-4.11-.38-7.24-3.83-7.24-7.96v-10.16c0-1.31.23-2.65.86-3.8,1.46-2.7,4.31-4.18,7.21-3.91,5.47.48,11.57.97,18.13,1.46,6.54.48,13.03.89,19.28,1.21,6.15.32,11.54.48,16.02.48,8.17,0,15-.31,20.31-.93,4.62-.53,8.83-1.8,12.53-3.76,1.76-1.04,3-2.34,3.8-3.98,1.08-2.21,1.79-4.95,2.11-8.14.38-3.83.57-7.95.57-12.23,0-6.72-.19-12.11-.58-16.04-.36-3.63-1.24-5.28-1.74-5.94-.22-.3-1.22-1.35-4.48-2.13-3.75-.9-9.06-1.75-15.77-2.54l-43.97-4.64c-8.79-.92-15.63-2.64-20.89-5.27-5.7-2.85-10-6.71-12.76-11.47-1.21-2.07-1.85-3.25-2.57-5.49-.41-1.28.55-2.6,1.89-2.57,28.22.55,61.64,1.54,78.6,3.22l1.96.21c7.08.51,13.41,1.33,18.81,2.45,6.15,1.27,11.34,3.42,15.45,6.39,4.53,3.29,7.9,8.18,10.03,14.55.02.06.04.12.06.17.77,2.51,1.35,5.26,1.73,8.19.35,2.76.58,5.85.67,9.2.08,3.2.13,6.72.13,10.48ZM17.88,490.02c3.02-5.88,6.61-10.26,12.17-13.84,5.67-3.65,12.82-6.16,21.24-7.46,7.78-1.2,16.93-1.8,27.19-1.8,6.27,0,12.7.13,19.13.37,6.47.25,12.63.67,18.34,1.26,5.41.56,9.93,1.17,13.46,1.81,3.86.7,6.66,4.05,6.66,7.97v9.42c0,1.24-.21,2.5-.78,3.6-1.52,2.97-4.65,4.46-7.72,4.02-4.21-.62-9.13-1.14-14.62-1.53-5.71-.41-11.44-.73-17.04-.97-5.66-.24-11.03-.36-15.96-.36-.35,0-.72,0-1.09,0H19.41c-1.28,0-2.11-1.36-1.52-2.5Zm126.75,108.14c0,9.74-.91,18.05-2.7,24.69-1.95,7.22-5.02,13.06-9.13,17.37-4.02,4.22-8.85,7.42-14.35,9.52-5.15,1.96-10.96,3.19-17.28,3.65-5.8.42-12.2.63-19.01.63-5.93,0-12.53-.13-19.59-.37-7.1-.25-14.07-.62-20.72-1.12-6.41-.48-12.25-.96-17.37-1.43-4.11-.38-7.24-3.83-7.24-7.96v-10.16c0-1.31.23-2.65.86-3.8,1.46-2.7,4.31-4.18,7.21-3.91,5.47.48,11.57.97,18.13,1.46,6.54.48,13.03.89,19.28,1.21,6.15.32,11.54.48,16.02.48,8.17,0,15-.31,20.31-.93,4.62-.53,8.83-1.8,12.53-3.76,1.76-1.04,3-2.34,3.8-3.98,1.08-2.21,1.79-4.95,2.11-8.14.38-3.83.57-7.95.57-12.23,0-6.72-.19-12.11-.58-16.04-.36-3.63-1.24-5.28-1.74-5.94-.22-.3-1.22-1.35-4.48-2.13-3.75-.9-9.06-1.75-15.77-2.54l-43.97-4.64c-8.79-.92-15.63-2.64-20.89-5.27-5.7-2.85-10-6.71-12.76-11.47-1.21-2.07-1.85-3.25-2.57-5.49-.41-1.28.55-2.6,1.89-2.57,28.22.55,61.64,1.54,78.6,3.22l1.96.21c7.08.51,13.41,1.33,18.81,2.45,6.15,1.27,11.34,3.42,15.45,6.39,4.53,3.29,7.9,8.18,10.03,14.55.02.06.04.12.06.17.77,2.51,1.35,5.26,1.73,8.19.35,2.76.58,5.85.67,9.2.08,3.2.13,6.72.13,10.48Zm242.96-76.21c-.71-10.99-2.28-19.78-4.83-26.87-2.81-7.81-7.31-13.91-13.39-18.14-5.75-3.99-13.43-6.71-22.85-8.1-8.64-1.27-19.62-1.92-32.65-1.92s-24.01.64-32.65,1.92c-9.42,1.38-17.11,4.11-22.85,8.1-6.08,4.23-10.59,10.33-13.39,18.14-2.55,7.09-4.13,15.88-4.83,26.87-.66,10.29-.99,23.25-.99,38.53s.33,28.25.99,38.53c.7,10.99,2.28,19.79,4.82,26.87,2.8,7.82,7.31,13.92,13.39,18.14,5.73,3.99,13.42,6.71,22.86,8.1,8.64,1.27,19.62,1.91,32.65,1.91s24.01-.64,32.65-1.91c9.43-1.39,17.11-4.11,22.85-8.1,6.08-4.22,10.58-10.33,13.39-18.15,2.54-7.09,4.12-15.87,4.83-26.87.66-10.34.99-23.31.99-38.53s-.33-28.17-.99-38.53Zm-26.43,74.42c-.53,8.6-1.69,15.32-3.45,19.97-1.43,3.78-3.38,6.34-5.96,7.84-3.11,1.8-7.54,2.96-13.18,3.43-6.5.55-14.82.83-24.7.83s-18.4-.28-24.82-.83c-5.56-.47-9.95-1.63-13.06-3.43-2.58-1.49-4.53-4.06-5.96-7.84-1.77-4.66-2.93-11.37-3.45-19.97-.56-9.14-.84-21.21-.84-35.89s.28-26.74.84-35.89c.52-8.59,1.68-15.31,3.45-19.97,1.43-3.77,3.38-6.34,5.96-7.83,3.1-1.8,7.5-2.95,13.06-3.43,6.47-.55,14.82-.83,24.82-.83s18.15.28,24.7.83c5.64.48,10.08,1.63,13.18,3.43,2.58,1.5,4.53,4.06,5.97,7.84,1.76,4.66,2.92,11.38,3.45,19.97.56,9.21.84,21.29.84,35.89s-.28,26.68-.84,35.89Zm241.3,48.29v-10.77c0-4.1-3.32-7.42-7.42-7.42h-76.52v-150.18c0-4.1-3.32-7.42-7.42-7.42h-11.75c-4.1,0-7.42,3.32-7.42,7.42v168.36c0,4.1,3.32,7.42,7.42,7.42h95.68c4.1,0,7.42-3.32,7.42-7.42Zm188.2,7.17c8.74-1.58,15.9-4.36,21.27-8.27,5.61-4.08,9.88-9.7,12.68-16.7,2.55-6.38,4.2-14.28,4.91-23.48.66-8.67,1-19.15,1-31.16v-95.93c0-4.1-3.32-7.42-7.42-7.42h-11.75c-4.1,0-7.42,3.32-7.42,7.42v103.51c0,11.08-.4,20.23-1.18,27.19-.66,5.84-2.2,10.34-4.58,13.38-2.18,2.77-5.83,4.76-10.87,5.91-6.19,1.42-15.14,2.14-26.61,2.14s-20.29-.72-26.65-2.15c-5.15-1.15-8.82-3.11-10.9-5.83-2.36-3.08-3.92-7.64-4.65-13.54-.86-6.91-1.29-16.03-1.29-27.11v-103.51c0-4.1-3.32-7.42-7.42-7.42h-11.75c-4.1,0-7.42,3.32-7.42,7.42v95.93c0,12.06.34,22.54,1,31.16.71,9.22,2.41,17.15,5.07,23.56,2.88,6.97,7.18,12.56,12.77,16.62,5.38,3.91,12.54,6.7,21.28,8.28,8.07,1.46,18.15,2.2,29.95,2.2s21.87-.74,29.95-2.2Zm385.64-7.17v-168.36c0-4.1-3.32-7.42-7.42-7.42h-11.75c-4.1,0-7.42,3.32-7.42,7.42v168.36c0,4.1,3.32,7.42,7.42,7.42h11.75c4.1,0,7.42-3.32,7.42-7.42Zm252.04-122.71c-.71-10.99-2.28-19.78-4.83-26.87-2.81-7.81-7.31-13.91-13.39-18.14-5.75-3.99-13.43-6.71-22.85-8.1-8.64-1.27-19.62-1.92-32.65-1.92s-24.01.64-32.65,1.92c-9.42,1.38-17.11,4.11-22.85,8.1-6.08,4.23-10.59,10.33-13.39,18.14-2.55,7.09-4.13,15.88-4.83,26.87-.66,10.29-.99,23.25-.99,38.53s.33,28.25.99,38.53c.7,10.99,2.28,19.79,4.82,26.87,2.8,7.82,7.31,13.92,13.39,18.14,5.73,3.99,13.42,6.71,22.86,8.1,8.64,1.27,19.62,1.91,32.65,1.91s24.01-.64,32.65-1.91c9.43-1.39,17.11-4.11,22.85-8.1,6.08-4.22,10.58-10.33,13.39-18.15,2.54-7.09,4.12-15.87,4.83-26.87.66-10.34.99-23.31.99-38.53s-.33-28.17-.99-38.53Zm-26.43,74.42c-.53,8.6-1.69,15.32-3.45,19.97-1.43,3.78-3.38,6.34-5.96,7.84-3.11,1.8-7.54,2.96-13.18,3.43-6.5.55-14.82.83-24.7.83s-18.4-.28-24.82-.83c-5.56-.47-9.95-1.63-13.06-3.43-2.58-1.49-4.53-4.06-5.96-7.84-1.77-4.66-2.93-11.37-3.45-19.97-.56-9.14-.84-21.21-.84-35.89s.28-26.74.84-35.89c.52-8.59,1.68-15.31,3.45-19.97,1.43-3.77,3.38-6.34,5.96-7.83,3.1-1.8,7.5-2.95,13.06-3.43,6.47-.55,14.82-.83,24.82-.83s18.15.28,24.7.83c5.64.48,10.08,1.63,13.18,3.43,2.58,1.5,4.53,4.06,5.97,7.84,1.76,4.66,2.92,11.38,3.45,19.97.56,9.21.84,21.29.84,35.89s-.28,26.68-.84,35.89Zm271.4,48.29v-168.36c0-4.1-3.32-7.42-7.42-7.42h-11.26c-4.1,0-7.42,3.32-7.42,7.42v124.31l-89.27-128.54c-1.39-2-3.66-3.19-6.09-3.19h-11.75c-4.1,0-7.42,3.32-7.42,7.42v168.36c0,4.1,3.32,7.42,7.42,7.42h11.5c4.1,0,7.42-3.32,7.42-7.42v-125l89.51,129.23c1.39,2,3.66,3.19,6.1,3.19h11.26c4.1,0,7.42-3.32,7.42-7.42Zm-622.38-175.78h-123.83c-4.1,0-7.42,3.32-7.42,7.42v10.77c0,4.1,3.32,7.42,7.42,7.42h123.83c4.1,0,7.42-3.32,7.42-7.42v-10.77c0-4.1-3.32-7.42-7.42-7.42Zm-75.2,71.61v104.17c0,4.1,3.32,7.42,7.42,7.42h11.75c4.1,0,7.42-3.32,7.42-7.42v-104.17c0-2.34-1.89-4.23-4.23-4.23h-18.12c-2.34,0-4.23,1.89-4.23,4.23Z"/></svg>