<?xml version="1.0" encoding="UTF-8" standalone="no"?><!DOCTYPE svg PUBLIC "-//W3C//DTD SVG 1.1//EN" "http://www.w3.org/Graphics/SVG/1.1/DTD/svg11.dtd"><svg width="100%" height="100%" viewBox="0 0 122 26" version="1.1" xmlns="http://www.w3.org/2000/svg" xmlns:xlink="http://www.w3.org/1999/xlink" xml:space="preserve" xmlns:serif="http://www.serif.com/" style="fill-rule:evenodd;clip-rule:evenodd;stroke-linejoin:round;stroke-miterlimit:1.41421;"><path d="M29.18,8.71l5.98,0l0,-2.99l-9.13,0l0,14.17l3.18,0l0,-5.3l5.23,0l0,-2.88l-5.26,0l0,-3Z" style="fill:#c33a32;fill-rule:nonzero;"/><path d="M40.12,9.65c-2.887,0.005 -5.26,2.383 -5.26,5.27c0,2.891 2.379,5.27 5.27,5.27c2.891,0 5.27,-2.379 5.27,-5.27c0,-0.003 0,-0.007 0,-0.01c0.001,-0.044 0.002,-0.088 0.002,-0.132c0,-2.814 -2.316,-5.13 -5.13,-5.13c-0.051,0 -0.101,0.001 -0.152,0.002Zm0,7.74c-0.001,0 -0.001,0 -0.002,0c-1.234,0 -2.25,-1.016 -2.25,-2.25c0,-0.077 0.004,-0.154 0.012,-0.23c-0.007,-0.07 -0.01,-0.141 -0.01,-0.212c0,-1.234 1.016,-2.25 2.25,-2.25c1.234,0 2.25,1.016 2.25,2.25c0,0.071 -0.003,0.142 -0.01,0.212c0.009,0.083 0.014,0.167 0.014,0.25c0,1.223 -1.007,2.23 -2.23,2.23c-0.008,0 -0.016,0 -0.024,0Z" style="fill:#c33a32;fill-rule:nonzero;"/><path d="M49.31,11.29l0,-1.29l-2.94,0l0,9.93l3,0l0,-4.38c0,-2 1.1,-2.7 2.32,-2.7c0.336,-0.008 0.672,0.026 1,0.1l0,-2.95c-0.261,-0.069 -0.53,-0.103 -0.8,-0.1c-1.051,-0.057 -2.05,0.481 -2.58,1.39Z" style="fill:#c33a32;fill-rule:nonzero;"/><path d="M65.3,9.65c-1.232,-0.076 -2.413,0.522 -3.08,1.56c-0.588,-1.05 -1.741,-1.662 -2.94,-1.56c-1.13,-0.017 -2.2,0.522 -2.86,1.44l0,-1.09l-2.9,0l0,9.93l3,0l0,-5.76c-0.003,-0.037 -0.004,-0.074 -0.004,-0.11c0,-0.884 0.727,-1.61 1.61,-1.61c0.011,0 0.023,0 0.034,0c0.033,-0.002 0.067,-0.003 0.1,-0.003c0.828,0 1.51,0.681 1.51,1.51c0,0.058 -0.003,0.115 -0.01,0.173l0,5.76l3,0l0,-5.74c-0.002,-0.03 -0.003,-0.061 -0.003,-0.091c0,-0.883 0.727,-1.61 1.61,-1.61c0.018,0 0.035,0 0.053,0.001c0.027,-0.001 0.053,-0.002 0.08,-0.002c0.828,0 1.51,0.682 1.51,1.51c0,0.057 -0.003,0.115 -0.01,0.172l0,5.76l2.98,0l0,-6.44c0.01,-0.109 0.015,-0.218 0.015,-0.327c0,-1.909 -1.571,-3.48 -3.48,-3.48c-0.071,0 -0.143,0.003 -0.215,0.007Z" style="fill:#c33a32;fill-rule:nonzero;"/><rect x="70.55" y="9.95" width="3.04" height="9.93" style="fill:#c33a32;"/><path d="M72.05,5.14c-0.969,0.011 -1.76,0.811 -1.76,1.78c0,0.976 0.804,1.78 1.78,1.78c0.976,0 1.78,-0.804 1.78,-1.78c0,0 0,0 0,0c0,-0.977 -0.804,-1.78 -1.78,-1.78c-0.007,0 -0.013,0 -0.02,0Z" style="fill:#c33a32;fill-rule:nonzero;"/><path d="M85.02,5.42l-3,0l0,5.32c-0.24,-0.38 -1,-1 -2.68,-1c-2.654,0.01 -4.831,2.196 -4.831,4.85c0,0.11 0.004,0.22 0.011,0.33c-0.006,0.1 -0.009,0.2 -0.009,0.3c0,2.699 2.221,4.92 4.92,4.92c0.003,0 0.006,0 0.009,0c1.023,0.054 2.013,-0.385 2.66,-1.18c0.002,0.335 0.029,0.669 0.08,1l2.92,0c0,-0.22 -0.08,-0.88 -0.08,-1.78l0,-12.76Zm-5.2,12c-0.005,0 -0.011,0 -0.016,0c-1.229,0 -2.24,-1.011 -2.24,-2.24c0,-0.09 0.005,-0.18 0.016,-0.27c-0.007,-0.07 -0.01,-0.141 -0.01,-0.212c0,-1.234 1.016,-2.25 2.25,-2.25c1.234,0 2.25,1.016 2.25,2.25c0,0.071 -0.003,0.142 -0.01,0.212c0.009,0.08 0.013,0.16 0.013,0.24c0,1.229 -1.011,2.24 -2.24,2.24c-0.004,0 -0.009,0 -0.013,0l0,0.03Z" style="fill:#c33a32;fill-rule:nonzero;"/><path d="M95.02,13.49c0,-2 -1.18,-3.84 -4.4,-3.84c-2.92,0 -4.24,1.88 -4.36,3.3l2.64,0.54c0.059,-0.867 0.813,-1.535 1.68,-1.49c0.078,-0.015 0.157,-0.023 0.237,-0.023c0.627,0 1.158,0.479 1.223,1.103c0,0 0,0.001 0,0.001c0,0.373 -0.307,0.68 -0.68,0.68c-0.013,0 -0.027,0 -0.04,-0.001l-2.34,0.36c-1.613,0.058 -2.915,1.386 -2.94,3c0.229,1.721 1.713,3.021 3.45,3.021c1.098,0 2.134,-0.52 2.79,-1.401c-0.011,0.376 0.023,0.752 0.1,1.12l2.74,0c-0.081,-0.509 -0.121,-1.024 -0.12,-1.54l0,-4.83l0.02,0Zm-3,2.5c0.017,0.098 0.026,0.196 0.026,0.295c0,0.938 -0.772,1.71 -1.71,1.71c-0.046,0 -0.091,-0.001 -0.136,-0.005c-0.059,0.011 -0.12,0.016 -0.18,0.016c-0.549,0 -1,-0.451 -1,-1l0,-0.016c0,-0.604 0.497,-1.1 1.1,-1.1c0.007,0 0.013,0 0.02,0l1.88,-0.3l0,0.41l0,-0.01Z" style="fill:#c33a32;fill-rule:nonzero;"/><path d="M102.44,9.71c-1.082,-0.062 -2.136,0.373 -2.86,1.18l0,-5.47l-3,0l0,14.47l2.94,0l0,-1.12c0.639,0.899 1.699,1.406 2.8,1.34c2.78,0 4.74,-2.18 4.74,-5.22c0,-3.04 -1.74,-5.18 -4.62,-5.18Zm-0.66,7.68c-0.004,0 -0.007,0 -0.011,0c-1.24,0 -2.26,-1.02 -2.26,-2.26c0,-0.073 0.004,-0.147 0.011,-0.22c-0.007,-0.071 -0.01,-0.141 -0.01,-0.212c0,-1.24 1.02,-2.26 2.26,-2.26c1.24,0 2.26,1.02 2.26,2.26c0,0.071 -0.003,0.141 -0.01,0.212c0.009,0.083 0.014,0.167 0.014,0.25c0,1.223 -1.007,2.23 -2.23,2.23c-0.008,0 -0.016,0 -0.024,0Z" style="fill:#c33a32;fill-rule:nonzero;"/><rect x="108.03" y="5.42" width="3.04" height="14.47" style="fill:#c33a32;"/><path d="M121.96,14.75c0,-3.2 -1.9,-5.1 -5,-5.1c-0.002,0 -0.004,0 -0.006,0c-2.743,0 -5,2.257 -5,5c0,0.08 0.002,0.16 0.006,0.24c-0.004,0.08 -0.006,0.161 -0.006,0.242c0,2.775 2.284,5.06 5.06,5.06c0.042,0 0.084,-0.001 0.126,-0.002c2.099,0.17 4.047,-1.169 4.64,-3.19l-2.54,-0.72c-0.283,0.842 -1.115,1.383 -2,1.3c-1.138,0.065 -2.14,-0.786 -2.26,-1.92l6.92,0c0.043,-0.301 0.063,-0.606 0.06,-0.91Zm-6.92,-1c0.11,-0.999 0.997,-1.744 2,-1.68c0.074,-0.009 0.148,-0.014 0.222,-0.014c0.944,0 1.732,0.751 1.778,1.694l-4,0Z" style="fill:#c33a32;fill-rule:nonzero;"/><path d="M5.58,0l-5.58,22.95l5.58,-6.76l0,-16.19Z" style="fill:#c33a32;fill-rule:nonzero;"/><path d="M5.58,0l12.83,12l-12.83,4.19l0,-16.19Z" style="fill:#c33a32;fill-opacity:0.15;fill-rule:nonzero;"/><path d="M5.58,25.32l12.83,-13.32l-12.83,4.19l0,9.13Z" style="fill:#c33a32;fill-opacity:0.45;fill-rule:nonzero;"/><path d="M0,22.95l5.58,-6.76l0,9.13l-5.58,-2.37Z" style="fill:#c33a32;fill-opacity:0.7;fill-rule:nonzero;"/></svg>