<?xml version="1.0" encoding="UTF-8" standalone="no"?><!DOCTYPE svg PUBLIC "-//W3C//DTD SVG 1.1//EN" "http://www.w3.org/Graphics/SVG/1.1/DTD/svg11.dtd"><svg width="100%" height="100%" viewBox="0 0 1250 1250" version="1.1" xmlns="http://www.w3.org/2000/svg" xmlns:xlink="http://www.w3.org/1999/xlink" xml:space="preserve" xmlns:serif="http://www.serif.com/" style="fill-rule:evenodd;clip-rule:evenodd;stroke-linejoin:round;stroke-miterlimit:2;"><g id="Logo"><rect x="0" y="0" width="1250" height="1250" style="fill:#fff;"/><g id="Tiltes"><path d="M0,78.125l0,-78.125l78.125,0l-78.125,78.125Z" style="fill:#d33a3a;"/><path d="M78.125,0l78.125,78.125l-78.125,78.125l-78.125,-78.125l78.125,-78.125Z" style="fill:#f00;fill-opacity:0.04;fill-rule:nonzero;"/><path d="M78.125,0l156.25,0l-78.125,78.125l-78.125,-78.125Z" style="fill:#f00;fill-opacity:0.7;"/><path d="M234.375,0l78.125,78.125l-78.125,78.125l-78.125,-78.125l78.125,-78.125Z" style="fill:#f00;fill-opacity:0.04;fill-rule:nonzero;"/><path d="M234.375,0l156.25,0l-78.125,78.125l-78.125,-78.125Z" style="fill:#f00;fill-opacity:0.7;"/><path d="M390.625,0l78.125,78.125l-78.125,78.125l-78.125,-78.125l78.125,-78.125Z" style="fill:#f00;fill-opacity:0.09;fill-rule:nonzero;"/><path d="M390.625,0l156.25,0l-78.125,78.125l-78.125,-78.125Z" style="fill:#f00;fill-opacity:0.55;"/><path d="M546.875,0l78.125,78.125l-78.125,78.125l-78.125,-78.125l78.125,-78.125Z" style="fill:#f00;fill-opacity:0.02;fill-rule:nonzero;"/><path d="M546.875,0l156.25,0l-78.125,78.125l-78.125,-78.125Z" style="fill:#f00;fill-opacity:0.8;"/><path d="M703.125,0l78.125,78.125l-78.125,78.125l-78.125,-78.125l78.125,-78.125Z" style="fill:#f00;fill-opacity:0.04;fill-rule:nonzero;"/><path d="M703.125,0l156.25,0l-78.125,78.125l-78.125,-78.125Z" style="fill:#f00;fill-opacity:0.75;"/><path d="M859.375,0l78.125,78.125l-78.125,78.125l-78.125,-78.125l78.125,-78.125Z" style="fill:#f00;fill-opacity:0.07;fill-rule:nonzero;"/><path d="M859.375,0l156.25,0l-78.125,78.125l-78.125,-78.125Z" style="fill:#f00;fill-opacity:0.5;"/><path d="M1015.62,0l78.125,78.125l-78.125,78.125l-78.125,-78.125l78.125,-78.125Z" style="fill:#f00;fill-opacity:0.01;fill-rule:nonzero;"/><path d="M1015.62,0l156.25,0l-78.125,78.125l-78.125,-78.125Z" style="fill:#f00;fill-opacity:0.55;"/><path d="M1171.88,0l78.125,78.125l-78.125,78.125l-78.125,-78.125l78.125,-78.125Z" style="fill:#f00;fill-opacity:0.06;fill-rule:nonzero;"/><path d="M1171.88,0l78.125,0l-0,78.125l-78.125,-78.125Z" style="fill:#f00;fill-opacity:0.6;"/><path d="M78.125,0l78.125,78.125l-78.125,78.125l-78.125,-78.125l78.125,-78.125Z" style="fill:#f00;fill-opacity:0.65;fill-rule:nonzero;"/><path d="M156.25,78.125l78.125,78.125l-78.125,78.125l-78.125,-78.125l78.125,-78.125Z" style="fill:#f00;fill-opacity:0.06;fill-rule:nonzero;"/><path d="M234.375,0l78.125,78.125l-78.125,78.125l-78.125,-78.125l78.125,-78.125Z" style="fill:#f00;fill-opacity:0.65;fill-rule:nonzero;"/><path d="M312.5,78.125l78.125,78.125l-78.125,78.125l-78.125,-78.125l78.125,-78.125Z" style="fill:#f00;fill-opacity:0.06;fill-rule:nonzero;"/><path d="M390.625,0l78.125,78.125l-78.125,78.125l-78.125,-78.125l78.125,-78.125Z" style="fill:#f00;fill-opacity:0.65;fill-rule:nonzero;"/><path d="M468.75,78.125l78.125,78.125l-78.125,78.125l-78.125,-78.125l78.125,-78.125Z" style="fill:#f00;fill-opacity:0.01;fill-rule:nonzero;"/><path d="M546.875,0l78.125,78.125l-78.125,78.125l-78.125,-78.125l78.125,-78.125Z" style="fill:#f00;fill-opacity:0.55;fill-rule:nonzero;"/><path d="M625,78.125l78.125,78.125l-78.125,78.125l-78.125,-78.125l78.125,-78.125Z" style="fill:#f00;fill-opacity:0.02;fill-rule:nonzero;"/><path d="M703.125,0l78.125,78.125l-78.125,78.125l-78.125,-78.125l78.125,-78.125Z" style="fill:#f00;fill-opacity:0.55;fill-rule:nonzero;"/><path d="M781.25,78.125l78.125,78.125l-78.125,78.125l-78.125,-78.125l78.125,-78.125Z" style="fill:#f00;fill-opacity:0.06;fill-rule:nonzero;"/><path d="M859.375,0l78.125,78.125l-78.125,78.125l-78.125,-78.125l78.125,-78.125Z" style="fill:#f00;fill-opacity:0.35;fill-rule:nonzero;"/><path d="M937.5,78.125l78.125,78.125l-78.125,78.125l-78.125,-78.125l78.125,-78.125Z" style="fill:#f00;fill-opacity:0.03;fill-rule:nonzero;"/><path d="M1015.62,0l78.125,78.125l-78.125,78.125l-78.125,-78.125l78.125,-78.125Z" style="fill:#f00;fill-opacity:0.6;fill-rule:nonzero;"/><path d="M1093.75,78.125l78.125,78.125l-78.125,78.125l-78.125,-78.125l78.125,-78.125Z" style="fill:#f00;fill-opacity:0.02;fill-rule:nonzero;"/><path d="M1171.88,0l78.125,78.125l-78.125,78.125l-78.125,-78.125l78.125,-78.125Z" style="fill:#f00;fill-opacity:0.65;fill-rule:nonzero;"/><path d="M0,78.125l0,156.25l78.125,-78.125l-78.125,-78.125Z" style="fill:#f00;fill-opacity:0.47;"/><path d="M78.125,156.25l78.125,78.125l-78.125,78.125l-78.125,-78.125l78.125,-78.125Z" style="fill:#f00;fill-opacity:0.05;fill-rule:nonzero;"/><path d="M156.25,78.125l78.125,78.125l-78.125,78.125l-78.125,-78.125l78.125,-78.125Z" style="fill:#f00;fill-opacity:0.45;fill-rule:nonzero;"/><path d="M234.375,156.25l78.125,78.125l-78.125,78.125l-78.125,-78.125l78.125,-78.125Z" style="fill:#f00;fill-opacity:0.09;fill-rule:nonzero;"/><path d="M312.5,78.125l78.125,78.125l-78.125,78.125l-78.125,-78.125l78.125,-78.125Z" style="fill:#f00;fill-opacity:0.6;fill-rule:nonzero;"/><path d="M390.625,156.25l78.125,78.125l-78.125,78.125l-78.125,-78.125l78.125,-78.125Z" style="fill:#f00;fill-opacity:0.08;fill-rule:nonzero;"/><path d="M468.75,78.125l78.125,78.125l-78.125,78.125l-78.125,-78.125l78.125,-78.125Z" style="fill:#f00;fill-opacity:0.55;fill-rule:nonzero;"/><path d="M546.875,156.25l78.125,78.125l-78.125,78.125l-78.125,-78.125l78.125,-78.125Z" style="fill:#f00;fill-opacity:0.06;fill-rule:nonzero;"/><path d="M625,78.125l78.125,78.125l-78.125,78.125l-78.125,-78.125l78.125,-78.125Z" style="fill:#f00;fill-opacity:0.65;fill-rule:nonzero;"/><path d="M703.125,156.25l78.125,78.125l-78.125,78.125l-78.125,-78.125l78.125,-78.125Z" style="fill:#f00;fill-opacity:0.09;fill-rule:nonzero;"/><path d="M781.25,78.125l78.125,78.125l-78.125,78.125l-78.125,-78.125l78.125,-78.125Z" style="fill:#f00;fill-opacity:0.4;fill-rule:nonzero;"/><path d="M859.375,156.25l78.125,78.125l-78.125,78.125l-78.125,-78.125l78.125,-78.125Z" style="fill:#f00;fill-opacity:0.02;fill-rule:nonzero;"/><path d="M937.5,78.125l78.125,78.125l-78.125,78.125l-78.125,-78.125l78.125,-78.125Z" style="fill:#f00;fill-opacity:0.7;fill-rule:nonzero;"/><path d="M1015.62,156.25l78.125,78.125l-78.125,78.125l-78.125,-78.125l78.125,-78.125Z" style="fill:#f00;fill-opacity:0.07;fill-rule:nonzero;"/><path d="M1093.75,78.125l78.125,78.125l-78.125,78.125l-78.125,-78.125l78.125,-78.125Z" style="fill:#f00;fill-opacity:0.55;fill-rule:nonzero;"/><path d="M1171.88,156.25l78.125,78.125l-78.125,78.125l-78.125,-78.125l78.125,-78.125Z" style="fill:#f00;fill-opacity:0.07;fill-rule:nonzero;"/><path d="M1250,78.125l-0,156.25l-78.125,-78.125l78.125,-78.125Z" style="fill:#f00;fill-opacity:0.6;"/><path d="M78.125,156.25l78.125,78.125l-78.125,78.125l-78.125,-78.125l78.125,-78.125Z" style="fill:#f00;fill-opacity:0.4;fill-rule:nonzero;"/><path d="M156.25,234.375l78.125,78.125l-78.125,78.125l-78.125,-78.125l78.125,-78.125Z" style="fill:#f00;fill-opacity:0.04;fill-rule:nonzero;"/><path d="M234.375,156.25l78.125,78.125l-78.125,78.125l-78.125,-78.125l78.125,-78.125Z" style="fill:#f00;fill-opacity:0.55;fill-rule:nonzero;"/><path d="M312.5,234.375l78.125,78.125l-78.125,78.125l-78.125,-78.125l78.125,-78.125Z" style="fill:#f00;fill-opacity:0.01;fill-rule:nonzero;"/><path d="M390.625,156.25l78.125,78.125l-78.125,78.125l-78.125,-78.125l78.125,-78.125Z" style="fill:#f00;fill-opacity:0.45;fill-rule:nonzero;"/><path d="M468.75,234.375l78.125,78.125l-78.125,78.125l-78.125,-78.125l78.125,-78.125Z" style="fill:#f00;fill-opacity:0.06;fill-rule:nonzero;"/><path d="M546.875,156.25l78.125,78.125l-78.125,78.125l-78.125,-78.125l78.125,-78.125Z" style="fill:#f00;fill-opacity:0.75;fill-rule:nonzero;"/><path d="M625,234.375l78.125,78.125l-78.125,78.125l-78.125,-78.125l78.125,-78.125Z" style="fill:#f00;fill-opacity:0.04;fill-rule:nonzero;"/><path d="M703.125,156.25l78.125,78.125l-78.125,78.125l-78.125,-78.125l78.125,-78.125Z" style="fill:#f00;fill-opacity:0.4;fill-rule:nonzero;"/><path d="M781.25,234.375l78.125,78.125l-78.125,78.125l-78.125,-78.125l78.125,-78.125Z" style="fill:#f00;fill-opacity:0.03;fill-rule:nonzero;"/><path d="M859.375,156.25l78.125,78.125l-78.125,78.125l-78.125,-78.125l78.125,-78.125Z" style="fill:#f00;fill-opacity:0.65;fill-rule:nonzero;"/><path d="M937.5,234.375l78.125,78.125l-78.125,78.125l-78.125,-78.125l78.125,-78.125Z" style="fill:#f00;fill-opacity:0.06;fill-rule:nonzero;"/><path d="M1015.62,156.25l78.125,78.125l-78.125,78.125l-78.125,-78.125l78.125,-78.125Z" style="fill:#f00;fill-opacity:0.4;fill-rule:nonzero;"/><path d="M1093.75,234.375l78.125,78.125l-78.125,78.125l-78.125,-78.125l78.125,-78.125Z" style="fill:#f00;fill-opacity:0.02;fill-rule:nonzero;"/><path d="M1171.88,156.25l78.125,78.125l-78.125,78.125l-78.125,-78.125l78.125,-78.125Z" style="fill:#f00;fill-opacity:0.45;fill-rule:nonzero;"/><path d="M0,234.375l0,156.25l78.125,-78.125l-78.125,-78.125Z" style="fill:#f00;fill-opacity:0.45;"/><path d="M78.125,312.5l78.125,78.125l-78.125,78.125l-78.125,-78.125l78.125,-78.125Z" style="fill:#f00;fill-opacity:0.01;fill-rule:nonzero;"/><path d="M156.25,234.375l78.125,78.125l-78.125,78.125l-78.125,-78.125l78.125,-78.125Z" style="fill:#f00;fill-opacity:0.45;fill-rule:nonzero;"/><path d="M234.375,312.5l78.125,78.125l-78.125,78.125l-78.125,-78.125l78.125,-78.125Z" style="fill:#f00;fill-opacity:0.03;fill-rule:nonzero;"/><path d="M312.5,234.375l78.125,78.125l-78.125,78.125l-78.125,-78.125l78.125,-78.125Z" style="fill:#f00;fill-opacity:0.5;fill-rule:nonzero;"/><path d="M390.625,312.5l78.125,78.125l-78.125,78.125l-78.125,-78.125l78.125,-78.125Z" style="fill:#f00;fill-opacity:0.06;fill-rule:nonzero;"/><path d="M468.75,234.375l78.125,78.125l-78.125,78.125l-78.125,-78.125l78.125,-78.125Z" style="fill:#f00;fill-opacity:0.55;fill-rule:nonzero;"/><path d="M546.875,312.5l78.125,78.125l-78.125,78.125l-78.125,-78.125l78.125,-78.125Z" style="fill:#f00;fill-opacity:0.09;fill-rule:nonzero;"/><path d="M625,234.375l78.125,78.125l-78.125,78.125l-78.125,-78.125l78.125,-78.125Z" style="fill:#f00;fill-opacity:0.55;fill-rule:nonzero;"/><path d="M703.125,312.5l78.125,78.125l-78.125,78.125l-78.125,-78.125l78.125,-78.125Z" style="fill:#f00;fill-opacity:0.07;fill-rule:nonzero;"/><path d="M781.25,234.375l78.125,78.125l-78.125,78.125l-78.125,-78.125l78.125,-78.125Z" style="fill:#f00;fill-opacity:0.45;fill-rule:nonzero;"/><path d="M859.375,312.5l78.125,78.125l-78.125,78.125l-78.125,-78.125l78.125,-78.125Z" style="fill:#f00;fill-opacity:0.07;fill-rule:nonzero;"/><path d="M937.5,234.375l78.125,78.125l-78.125,78.125l-78.125,-78.125l78.125,-78.125Z" style="fill:#f00;fill-opacity:0.55;fill-rule:nonzero;"/><path d="M1015.62,312.5l78.125,78.125l-78.125,78.125l-78.125,-78.125l78.125,-78.125Z" style="fill:#f00;fill-opacity:0.02;fill-rule:nonzero;"/><path d="M1093.75,234.375l78.125,78.125l-78.125,78.125l-78.125,-78.125l78.125,-78.125Z" style="fill:#f00;fill-opacity:0.75;fill-rule:nonzero;"/><path d="M1171.88,312.5l78.125,78.125l-78.125,78.125l-78.125,-78.125l78.125,-78.125Z" style="fill:#f00;fill-opacity:0.02;fill-rule:nonzero;"/><path d="M1250,234.375l-0,156.25l-78.125,-78.125l78.125,-78.125Z" style="fill:#f00;fill-opacity:0.5;"/><path d="M78.125,312.5l78.125,78.125l-78.125,78.125l-78.125,-78.125l78.125,-78.125Z" style="fill:#f00;fill-opacity:0.5;fill-rule:nonzero;"/><path d="M156.25,390.625l78.125,78.125l-78.125,78.125l-78.125,-78.125l78.125,-78.125Z" style="fill:#f00;fill-opacity:0.03;fill-rule:nonzero;"/><path d="M234.375,312.5l78.125,78.125l-78.125,78.125l-78.125,-78.125l78.125,-78.125Z" style="fill:#f00;fill-opacity:0.6;fill-rule:nonzero;"/><path d="M312.5,390.625l78.125,78.125l-78.125,78.125l-78.125,-78.125l78.125,-78.125Z" style="fill:#f00;fill-opacity:0.05;fill-rule:nonzero;"/><path d="M390.625,312.5l78.125,78.125l-78.125,78.125l-78.125,-78.125l78.125,-78.125Z" style="fill:#f00;fill-opacity:0.75;fill-rule:nonzero;"/><path d="M468.75,390.625l78.125,78.125l-78.125,78.125l-78.125,-78.125l78.125,-78.125Z" style="fill:#f00;fill-opacity:0.08;fill-rule:nonzero;"/><path d="M546.875,312.5l78.125,78.125l-78.125,78.125l-78.125,-78.125l78.125,-78.125Z" style="fill:#f00;fill-opacity:0.4;fill-rule:nonzero;"/><path d="M625,390.625l78.125,78.125l-78.125,78.125l-78.125,-78.125l78.125,-78.125Z" style="fill:#f00;fill-opacity:0.04;fill-rule:nonzero;"/><path d="M703.125,312.5l78.125,78.125l-78.125,78.125l-78.125,-78.125l78.125,-78.125Z" style="fill:#f00;fill-opacity:0.37;fill-rule:nonzero;"/><path d="M781.25,390.625l78.125,78.125l-78.125,78.125l-78.125,-78.125l78.125,-78.125Z" style="fill:#f00;fill-opacity:0.06;fill-rule:nonzero;"/><path d="M859.375,312.5l78.125,78.125l-78.125,78.125l-78.125,-78.125l78.125,-78.125Z" style="fill:#f00;fill-opacity:0.6;fill-rule:nonzero;"/><path d="M937.5,390.625l78.125,78.125l-78.125,78.125l-78.125,-78.125l78.125,-78.125Z" style="fill:#f00;fill-opacity:0.04;fill-rule:nonzero;"/><path d="M1015.62,312.5l78.125,78.125l-78.125,78.125l-78.125,-78.125l78.125,-78.125Z" style="fill:#f00;fill-opacity:0.7;fill-rule:nonzero;"/><path d="M1093.75,390.625l78.125,78.125l-78.125,78.125l-78.125,-78.125l78.125,-78.125Z" style="fill:#f00;fill-opacity:0;fill-rule:nonzero;"/><path d="M1171.88,312.5l78.125,78.125l-78.125,78.125l-78.125,-78.125l78.125,-78.125Z" style="fill:#f00;fill-opacity:0.6;fill-rule:nonzero;"/><path d="M0,390.625l0,156.25l78.125,-78.125l-78.125,-78.125Z" style="fill:#d33a3a;"/><path d="M78.125,468.75l78.125,78.125l-78.125,78.125l-78.125,-78.125l78.125,-78.125Z" style="fill:#f00;fill-opacity:0;fill-rule:nonzero;"/><path d="M156.25,390.625l78.125,78.125l-78.125,78.125l-78.125,-78.125l78.125,-78.125Z" style="fill:#f00;fill-opacity:0.45;fill-rule:nonzero;"/><path d="M234.375,468.75l78.125,78.125l-78.125,78.125l-78.125,-78.125l78.125,-78.125Z" style="fill:#f00;fill-opacity:0.04;fill-rule:nonzero;"/><path d="M312.5,390.625l78.125,78.125l-78.125,78.125l-78.125,-78.125l78.125,-78.125Z" style="fill:#f00;fill-opacity:0.55;fill-rule:nonzero;"/><path d="M390.625,468.75l78.125,78.125l-78.125,78.125l-78.125,-78.125l78.125,-78.125Z" style="fill:#f00;fill-opacity:0.04;fill-rule:nonzero;"/><path d="M468.75,390.625l78.125,78.125l-78.125,78.125l-78.125,-78.125l78.125,-78.125Z" style="fill:#f00;fill-opacity:0.45;fill-rule:nonzero;"/><path d="M546.875,468.75l78.125,78.125l-78.125,78.125l-78.125,-78.125l78.125,-78.125Z" style="fill:#f00;fill-opacity:0;fill-rule:nonzero;"/><path d="M625,390.625l78.125,78.125l-78.125,78.125l-78.125,-78.125l78.125,-78.125Z" style="fill:#f00;fill-opacity:0.55;fill-rule:nonzero;"/><path d="M703.125,468.75l78.125,78.125l-78.125,78.125l-78.125,-78.125l78.125,-78.125Z" style="fill:#f00;fill-opacity:0.08;fill-rule:nonzero;"/><path d="M781.25,390.625l78.125,78.125l-78.125,78.125l-78.125,-78.125l78.125,-78.125Z" style="fill:#f00;fill-opacity:0.7;fill-rule:nonzero;"/><path d="M859.375,468.75l78.125,78.125l-78.125,78.125l-78.125,-78.125l78.125,-78.125Z" style="fill:#f00;fill-opacity:0.01;fill-rule:nonzero;"/><path d="M937.5,390.625l78.125,78.125l-78.125,78.125l-78.125,-78.125l78.125,-78.125Z" style="fill:#f00;fill-opacity:0.47;fill-rule:nonzero;"/><path d="M1015.62,468.75l78.125,78.125l-78.125,78.125l-78.125,-78.125l78.125,-78.125Z" style="fill:#f00;fill-opacity:0.06;fill-rule:nonzero;"/><path d="M1093.75,390.625l78.125,78.125l-78.125,78.125l-78.125,-78.125l78.125,-78.125Z" style="fill:#f00;fill-opacity:0.49;fill-rule:nonzero;"/><path d="M1171.88,468.75l78.125,78.125l-78.125,78.125l-78.125,-78.125l78.125,-78.125Z" style="fill:#f00;fill-opacity:0.01;fill-rule:nonzero;"/><path d="M1250,390.625l-0,156.25l-78.125,-78.125l78.125,-78.125Z" style="fill:#f00;fill-opacity:0.4;"/><path d="M78.125,468.75l78.125,78.125l-78.125,78.125l-78.125,-78.125l78.125,-78.125Z" style="fill:#f00;fill-opacity:0.75;fill-rule:nonzero;"/><path d="M156.25,546.875l78.125,78.125l-78.125,78.125l-78.125,-78.125l78.125,-78.125Z" style="fill:#f00;fill-opacity:0.02;fill-rule:nonzero;"/><path d="M234.375,468.75l78.125,78.125l-78.125,78.125l-78.125,-78.125l78.125,-78.125Z" style="fill:#f00;fill-opacity:0.65;fill-rule:nonzero;"/><path d="M312.5,546.875l78.125,78.125l-78.125,78.125l-78.125,-78.125l78.125,-78.125Z" style="fill:#f00;fill-opacity:0.06;fill-rule:nonzero;"/><path d="M390.625,468.75l78.125,78.125l-78.125,78.125l-78.125,-78.125l78.125,-78.125Z" style="fill:#f00;fill-opacity:0.13;fill-rule:nonzero;"/><path d="M468.75,546.875l78.125,78.125l-78.125,78.125l-78.125,-78.125l78.125,-78.125Z" style="fill:#f00;fill-opacity:0.01;fill-rule:nonzero;"/><path d="M546.875,468.75l78.125,78.125l-78.125,78.125l-78.125,-78.125l78.125,-78.125Z" style="fill:#f00;fill-opacity:0.55;fill-rule:nonzero;"/><path d="M625,546.875l78.125,78.125l-78.125,78.125l-78.125,-78.125l78.125,-78.125Z" style="fill:#f00;fill-opacity:0.06;fill-rule:nonzero;"/><path d="M703.125,468.75l78.125,78.125l-78.125,78.125l-78.125,-78.125l78.125,-78.125Z" style="fill:#f00;fill-opacity:0.65;fill-rule:nonzero;"/><path d="M781.25,546.875l78.125,78.125l-78.125,78.125l-78.125,-78.125l78.125,-78.125Z" style="fill:#f00;fill-opacity:0.01;fill-rule:nonzero;"/><path d="M859.375,468.75l78.125,78.125l-78.125,78.125l-78.125,-78.125l78.125,-78.125Z" style="fill:#f00;fill-opacity:0.03;fill-rule:nonzero;"/><path d="M937.5,546.875l78.125,78.125l-78.125,78.125l-78.125,-78.125l78.125,-78.125Z" style="fill:#f00;fill-opacity:0.03;fill-rule:nonzero;"/><path d="M1015.62,468.75l78.125,78.125l-78.125,78.125l-78.125,-78.125l78.125,-78.125Z" style="fill:#f00;fill-opacity:0.65;fill-rule:nonzero;"/><path d="M1093.75,546.875l78.125,78.125l-78.125,78.125l-78.125,-78.125l78.125,-78.125Z" style="fill:#f00;fill-opacity:0.08;fill-rule:nonzero;"/><path d="M1171.88,468.75l78.125,78.125l-78.125,78.125l-78.125,-78.125l78.125,-78.125Z" style="fill:#f00;fill-opacity:0.4;fill-rule:nonzero;"/><path d="M0,546.875l0,156.25l78.125,-78.125l-78.125,-78.125Z" style="fill:#f00;fill-opacity:0.04;"/><path d="M78.125,625l78.125,78.125l-78.125,78.125l-78.125,-78.125l78.125,-78.125Z" style="fill:#f00;fill-opacity:0.06;fill-rule:nonzero;"/><path d="M156.25,546.875l78.125,78.125l-78.125,78.125l-78.125,-78.125l78.125,-78.125Z" style="fill:#f00;fill-opacity:0.65;fill-rule:nonzero;"/><path d="M234.375,625l78.125,78.125l-78.125,78.125l-78.125,-78.125l78.125,-78.125Z" style="fill:#f00;fill-opacity:0.05;fill-rule:nonzero;"/><path d="M312.5,546.875l78.125,78.125l-78.125,78.125l-78.125,-78.125l78.125,-78.125Z" style="fill:#f00;fill-opacity:0.04;fill-rule:nonzero;"/><path d="M390.625,625l78.125,78.125l-78.125,78.125l-78.125,-78.125l78.125,-78.125Z" style="fill:#f00;fill-opacity:0.01;fill-rule:nonzero;"/><path d="M468.75,546.875l78.125,78.125l-78.125,78.125l-78.125,-78.125l78.125,-78.125Z" style="fill:#f00;fill-opacity:0.01;fill-rule:nonzero;"/><path d="M546.875,625l78.125,78.125l-78.125,78.125l-78.125,-78.125l78.125,-78.125Z" style="fill:#f00;fill-opacity:0.08;fill-rule:nonzero;"/><path d="M625,546.875l78.125,78.125l-78.125,78.125l-78.125,-78.125l78.125,-78.125Z" style="fill:#f00;fill-opacity:0.45;fill-rule:nonzero;"/><path d="M703.125,625l78.125,78.125l-78.125,78.125l-78.125,-78.125l78.125,-78.125Z" style="fill:#f00;fill-opacity:0.07;fill-rule:nonzero;"/><path d="M781.25,546.875l78.125,78.125l-78.125,78.125l-78.125,-78.125l78.125,-78.125Z" style="fill:#f00;fill-opacity:0.01;fill-rule:nonzero;"/><path d="M859.375,625l78.125,78.125l-78.125,78.125l-78.125,-78.125l78.125,-78.125Z" style="fill:#f00;fill-opacity:0.06;fill-rule:nonzero;"/><path d="M937.5,546.875l78.125,78.125l-78.125,78.125l-78.125,-78.125l78.125,-78.125Z" style="fill:#f00;fill-opacity:0.07;fill-rule:nonzero;"/><path d="M1015.62,625l78.125,78.125l-78.125,78.125l-78.125,-78.125l78.125,-78.125Z" style="fill:#f00;fill-opacity:0.03;fill-rule:nonzero;"/><path d="M1093.75,546.875l78.125,78.125l-78.125,78.125l-78.125,-78.125l78.125,-78.125Z" style="fill:#f00;fill-opacity:0.55;fill-rule:nonzero;"/><path d="M1171.88,625l78.125,78.125l-78.125,78.125l-78.125,-78.125l78.125,-78.125Z" style="fill:#f00;fill-opacity:0.06;fill-rule:nonzero;"/><path d="M1250,546.875l0,156.25l-78.125,-78.125l78.125,-78.125Z" style="fill:#f00;fill-opacity:0.06;"/><path d="M78.125,625l78.125,78.125l-78.125,78.125l-78.125,-78.125l78.125,-78.125Z" style="fill:#f00;fill-opacity:0.06;fill-rule:nonzero;"/><path d="M156.25,703.125l78.125,78.125l-78.125,78.125l-78.125,-78.125l78.125,-78.125Z" style="fill:#f00;fill-opacity:0.06;fill-rule:nonzero;"/><path d="M234.375,625l78.125,78.125l-78.125,78.125l-78.125,-78.125l78.125,-78.125Z" style="fill:#f00;fill-opacity:0.05;fill-rule:nonzero;"/><path d="M312.5,703.125l78.125,78.125l-78.125,78.125l-78.125,-78.125l78.125,-78.125Z" style="fill:#f00;fill-opacity:0.08;fill-rule:nonzero;"/><path d="M390.625,625l78.125,78.125l-78.125,78.125l-78.125,-78.125l78.125,-78.125Z" style="fill:#f00;fill-opacity:0.09;fill-rule:nonzero;"/><path d="M468.75,703.125l78.125,78.125l-78.125,78.125l-78.125,-78.125l78.125,-78.125Z" style="fill:#f00;fill-opacity:0.06;fill-rule:nonzero;"/><path d="M546.875,625l78.125,78.125l-78.125,78.125l-78.125,-78.125l78.125,-78.125Z" style="fill:#f00;fill-opacity:0.06;fill-rule:nonzero;"/><path d="M625,703.125l78.125,78.125l-78.125,78.125l-78.125,-78.125l78.125,-78.125Z" style="fill:#f00;fill-opacity:0.06;fill-rule:nonzero;"/><path d="M703.125,625l78.125,78.125l-78.125,78.125l-78.125,-78.125l78.125,-78.125Z" style="fill:#f00;fill-opacity:0.04;fill-rule:nonzero;"/><path d="M781.25,703.125l78.125,78.125l-78.125,78.125l-78.125,-78.125l78.125,-78.125Z" style="fill:#f00;fill-opacity:0.04;fill-rule:nonzero;"/><path d="M859.375,625l78.125,78.125l-78.125,78.125l-78.125,-78.125l78.125,-78.125Z" style="fill:#f00;fill-opacity:0.06;fill-rule:nonzero;"/><path d="M937.5,703.125l78.125,78.125l-78.125,78.125l-78.125,-78.125l78.125,-78.125Z" style="fill:#f00;fill-opacity:0.01;fill-rule:nonzero;"/><path d="M1015.62,625l78.125,78.125l-78.125,78.125l-78.125,-78.125l78.125,-78.125Z" style="fill:#f00;fill-opacity:0.08;fill-rule:nonzero;"/><path d="M1093.75,703.125l78.125,78.125l-78.125,78.125l-78.125,-78.125l78.125,-78.125Z" style="fill:#f00;fill-opacity:0.07;fill-rule:nonzero;"/><path d="M1171.88,625l78.125,78.125l-78.125,78.125l-78.125,-78.125l78.125,-78.125Z" style="fill:#f00;fill-opacity:0.08;fill-rule:nonzero;"/><path d="M0,703.125l0,156.25l78.125,-78.125l-78.125,-78.125Z" style="fill:#f00;fill-opacity:0.04;"/><path d="M78.125,781.25l78.125,78.125l-78.125,78.125l-78.125,-78.125l78.125,-78.125Z" style="fill:#f00;fill-opacity:0.01;fill-rule:nonzero;"/><path d="M156.25,703.125l78.125,78.125l-78.125,78.125l-78.125,-78.125l78.125,-78.125Z" style="fill:#f00;fill-opacity:0.01;fill-rule:nonzero;"/><path d="M234.375,781.25l78.125,78.125l-78.125,78.125l-78.125,-78.125l78.125,-78.125Z" style="fill:#f00;fill-opacity:0.06;fill-rule:nonzero;"/><path d="M312.5,703.125l78.125,78.125l-78.125,78.125l-78.125,-78.125l78.125,-78.125Z" style="fill:#f00;fill-opacity:0.01;fill-rule:nonzero;"/><path d="M390.625,781.25l78.125,78.125l-78.125,78.125l-78.125,-78.125l78.125,-78.125Z" style="fill:#f00;fill-opacity:0.01;fill-rule:nonzero;"/><path d="M468.75,703.125l78.125,78.125l-78.125,78.125l-78.125,-78.125l78.125,-78.125Z" style="fill:#f00;fill-opacity:0.06;fill-rule:nonzero;"/><path d="M546.875,781.25l78.125,78.125l-78.125,78.125l-78.125,-78.125l78.125,-78.125Z" style="fill:#f00;fill-opacity:0.05;fill-rule:nonzero;"/><path d="M625,703.125l78.125,78.125l-78.125,78.125l-78.125,-78.125l78.125,-78.125Z" style="fill:#f00;fill-opacity:0.09;fill-rule:nonzero;"/><path d="M703.125,781.25l78.125,78.125l-78.125,78.125l-78.125,-78.125l78.125,-78.125Z" style="fill:#f00;fill-opacity:0.01;fill-rule:nonzero;"/><path d="M781.25,703.125l78.125,78.125l-78.125,78.125l-78.125,-78.125l78.125,-78.125Z" style="fill:#f00;fill-opacity:0.07;fill-rule:nonzero;"/><path d="M859.375,781.25l78.125,78.125l-78.125,78.125l-78.125,-78.125l78.125,-78.125Z" style="fill:#f00;fill-opacity:0.02;fill-rule:nonzero;"/><path d="M937.5,703.125l78.125,78.125l-78.125,78.125l-78.125,-78.125l78.125,-78.125Z" style="fill:#f00;fill-opacity:0.03;fill-rule:nonzero;"/><path d="M1015.62,781.25l78.125,78.125l-78.125,78.125l-78.125,-78.125l78.125,-78.125Z" style="fill:#f00;fill-opacity:0.02;fill-rule:nonzero;"/><path d="M1093.75,703.125l78.125,78.125l-78.125,78.125l-78.125,-78.125l78.125,-78.125Z" style="fill:#f00;fill-opacity:0.09;fill-rule:nonzero;"/><path d="M1171.88,781.25l78.125,78.125l-78.125,78.125l-78.125,-78.125l78.125,-78.125Z" style="fill:#f00;fill-opacity:0.06;fill-rule:nonzero;"/><path d="M1250,703.125l0,156.25l-78.125,-78.125l78.125,-78.125Z" style="fill:#f00;fill-opacity:0.07;"/><path d="M78.125,781.25l78.125,78.125l-78.125,78.125l-78.125,-78.125l78.125,-78.125Z" style="fill:#f00;fill-opacity:0.03;fill-rule:nonzero;"/><path d="M156.25,859.375l78.125,78.125l-78.125,78.125l-78.125,-78.125l78.125,-78.125Z" style="fill:#f00;fill-opacity:0.07;fill-rule:nonzero;"/><path d="M234.375,781.25l78.125,78.125l-78.125,78.125l-78.125,-78.125l78.125,-78.125Z" style="fill:#f00;fill-opacity:0.03;fill-rule:nonzero;"/><path d="M312.5,859.375l78.125,78.125l-78.125,78.125l-78.125,-78.125l78.125,-78.125Z" style="fill:#f00;fill-opacity:0.01;fill-rule:nonzero;"/><path d="M390.625,781.25l78.125,78.125l-78.125,78.125l-78.125,-78.125l78.125,-78.125Z" style="fill:#f00;fill-opacity:0.05;fill-rule:nonzero;"/><path d="M468.75,859.375l78.125,78.125l-78.125,78.125l-78.125,-78.125l78.125,-78.125Z" style="fill:#f00;fill-opacity:0.07;fill-rule:nonzero;"/><path d="M546.875,781.25l78.125,78.125l-78.125,78.125l-78.125,-78.125l78.125,-78.125Z" style="fill:#f00;fill-opacity:0.03;fill-rule:nonzero;"/><path d="M625,859.375l78.125,78.125l-78.125,78.125l-78.125,-78.125l78.125,-78.125Z" style="fill:#f00;fill-opacity:0.06;fill-rule:nonzero;"/><path d="M703.125,781.25l78.125,78.125l-78.125,78.125l-78.125,-78.125l78.125,-78.125Z" style="fill:#f00;fill-opacity:0.03;fill-rule:nonzero;"/><path d="M781.25,859.375l78.125,78.125l-78.125,78.125l-78.125,-78.125l78.125,-78.125Z" style="fill:#f00;fill-opacity:0.05;fill-rule:nonzero;"/><path d="M859.375,781.25l78.125,78.125l-78.125,78.125l-78.125,-78.125l78.125,-78.125Z" style="fill:#f00;fill-opacity:0.05;fill-rule:nonzero;"/><path d="M937.5,859.375l78.125,78.125l-78.125,78.125l-78.125,-78.125l78.125,-78.125Z" style="fill:#f00;fill-opacity:0.06;fill-rule:nonzero;"/><path d="M1015.62,781.25l78.125,78.125l-78.125,78.125l-78.125,-78.125l78.125,-78.125Z" style="fill:#f00;fill-opacity:0.06;fill-rule:nonzero;"/><path d="M1093.75,859.375l78.125,78.125l-78.125,78.125l-78.125,-78.125l78.125,-78.125Z" style="fill:#f00;fill-opacity:0.03;fill-rule:nonzero;"/><path d="M1171.88,781.25l78.125,78.125l-78.125,78.125l-78.125,-78.125l78.125,-78.125Z" style="fill:#f00;fill-opacity:0.04;fill-rule:nonzero;"/><path d="M0,859.375l0,156.25l78.125,-78.125l-78.125,-78.125Z" style="fill:#f00;fill-opacity:0.04;"/><path d="M78.125,937.5l78.125,78.125l-78.125,78.125l-78.125,-78.125l78.125,-78.125Z" style="fill:#f00;fill-opacity:0.02;fill-rule:nonzero;"/><path d="M156.25,859.375l78.125,78.125l-78.125,78.125l-78.125,-78.125l78.125,-78.125Z" style="fill:#f00;fill-opacity:0.09;fill-rule:nonzero;"/><path d="M234.375,937.5l78.125,78.125l-78.125,78.125l-78.125,-78.125l78.125,-78.125Z" style="fill:#f00;fill-opacity:0.01;fill-rule:nonzero;"/><path d="M312.5,859.375l78.125,78.125l-78.125,78.125l-78.125,-78.125l78.125,-78.125Z" style="fill:#f00;fill-opacity:0.06;fill-rule:nonzero;"/><path d="M390.625,937.5l78.125,78.125l-78.125,78.125l-78.125,-78.125l78.125,-78.125Z" style="fill:#f00;fill-opacity:0.05;fill-rule:nonzero;"/><path d="M468.75,859.375l78.125,78.125l-78.125,78.125l-78.125,-78.125l78.125,-78.125Z" style="fill:#f00;fill-opacity:0.08;fill-rule:nonzero;"/><path d="M546.875,937.5l78.125,78.125l-78.125,78.125l-78.125,-78.125l78.125,-78.125Z" style="fill:#f00;fill-opacity:0.04;fill-rule:nonzero;"/><path d="M625,859.375l78.125,78.125l-78.125,78.125l-78.125,-78.125l78.125,-78.125Z" style="fill:#f00;fill-opacity:0.05;fill-rule:nonzero;"/><path d="M703.125,937.5l78.125,78.125l-78.125,78.125l-78.125,-78.125l78.125,-78.125Z" style="fill:#f00;fill-opacity:0.05;fill-rule:nonzero;"/><path d="M781.25,859.375l78.125,78.125l-78.125,78.125l-78.125,-78.125l78.125,-78.125Z" style="fill:#f00;fill-opacity:0.07;fill-rule:nonzero;"/><path d="M859.375,937.5l78.125,78.125l-78.125,78.125l-78.125,-78.125l78.125,-78.125Z" style="fill:#f00;fill-opacity:0.06;fill-rule:nonzero;"/><path d="M937.5,859.375l78.125,78.125l-78.125,78.125l-78.125,-78.125l78.125,-78.125Z" style="fill:#f00;fill-opacity:0.02;fill-rule:nonzero;"/><path d="M1015.62,937.5l78.125,78.125l-78.125,78.125l-78.125,-78.125l78.125,-78.125Z" style="fill:#f00;fill-opacity:0.07;fill-rule:nonzero;"/><path d="M1093.75,859.375l78.125,78.125l-78.125,78.125l-78.125,-78.125l78.125,-78.125Z" style="fill:#f00;fill-opacity:0.05;fill-rule:nonzero;"/><path d="M1171.88,937.5l78.125,78.125l-78.125,78.125l-78.125,-78.125l78.125,-78.125Z" style="fill:#f00;fill-opacity:0.03;fill-rule:nonzero;"/><path d="M1250,859.375l-0,156.25l-78.125,-78.125l78.125,-78.125Z" style="fill:#f00;fill-opacity:0.03;"/><path d="M78.125,937.5l78.125,78.125l-78.125,78.125l-78.125,-78.125l78.125,-78.125Z" style="fill:#f00;fill-opacity:0.06;fill-rule:nonzero;"/><path d="M156.25,1015.62l78.125,78.125l-78.125,78.125l-78.125,-78.125l78.125,-78.125Z" style="fill:#f00;fill-opacity:0.09;fill-rule:nonzero;"/><path d="M234.375,937.5l78.125,78.125l-78.125,78.125l-78.125,-78.125l78.125,-78.125Z" style="fill:#f00;fill-opacity:0.02;fill-rule:nonzero;"/><path d="M312.5,1015.62l78.125,78.125l-78.125,78.125l-78.125,-78.125l78.125,-78.125Z" style="fill:#f00;fill-opacity:0.06;fill-rule:nonzero;"/><path d="M390.625,937.5l78.125,78.125l-78.125,78.125l-78.125,-78.125l78.125,-78.125Z" style="fill:#f00;fill-opacity:0.03;fill-rule:nonzero;"/><path d="M468.75,1015.62l78.125,78.125l-78.125,78.125l-78.125,-78.125l78.125,-78.125Z" style="fill:#f00;fill-opacity:0.03;fill-rule:nonzero;"/><path d="M546.875,937.5l78.125,78.125l-78.125,78.125l-78.125,-78.125l78.125,-78.125Z" style="fill:#f00;fill-opacity:0.02;fill-rule:nonzero;"/><path d="M625,1015.62l78.125,78.125l-78.125,78.125l-78.125,-78.125l78.125,-78.125Z" style="fill:#f00;fill-opacity:0.03;fill-rule:nonzero;"/><path d="M703.125,937.5l78.125,78.125l-78.125,78.125l-78.125,-78.125l78.125,-78.125Z" style="fill:#f00;fill-opacity:0.03;fill-rule:nonzero;"/><path d="M781.25,1015.62l78.125,78.125l-78.125,78.125l-78.125,-78.125l78.125,-78.125Z" style="fill:#f00;fill-opacity:0.01;fill-rule:nonzero;"/><path d="M859.375,937.5l78.125,78.125l-78.125,78.125l-78.125,-78.125l78.125,-78.125Z" style="fill:#f00;fill-opacity:0.05;fill-rule:nonzero;"/><path d="M937.5,1015.62l78.125,78.125l-78.125,78.125l-78.125,-78.125l78.125,-78.125Z" style="fill:#f00;fill-opacity:0.07;fill-rule:nonzero;"/><path d="M1015.62,937.5l78.125,78.125l-78.125,78.125l-78.125,-78.125l78.125,-78.125Z" style="fill:#f00;fill-opacity:0.06;fill-rule:nonzero;"/><path d="M1093.75,1015.62l78.125,78.125l-78.125,78.125l-78.125,-78.125l78.125,-78.125Z" style="fill:#f00;fill-opacity:0.01;fill-rule:nonzero;"/><path d="M1171.88,937.5l78.125,78.125l-78.125,78.125l-78.125,-78.125l78.125,-78.125Z" style="fill:#f00;fill-opacity:0.05;fill-rule:nonzero;"/><path d="M0,1015.62l0,156.25l78.125,-78.125l-78.125,-78.125Z" style="fill:#f00;fill-opacity:0.06;"/><path d="M78.125,1093.75l78.125,78.125l-78.125,78.125l-78.125,-78.125l78.125,-78.125Z" style="fill:#f00;fill-opacity:0;fill-rule:nonzero;"/><path d="M156.25,1015.62l78.125,78.125l-78.125,78.125l-78.125,-78.125l78.125,-78.125Z" style="fill:#f00;fill-opacity:0.04;fill-rule:nonzero;"/><path d="M234.375,1093.75l78.125,78.125l-78.125,78.125l-78.125,-78.125l78.125,-78.125Z" style="fill:#f00;fill-opacity:0.09;fill-rule:nonzero;"/><path d="M312.5,1015.62l78.125,78.125l-78.125,78.125l-78.125,-78.125l78.125,-78.125Z" style="fill:#f00;fill-opacity:0.08;fill-rule:nonzero;"/><path d="M390.625,1093.75l78.125,78.125l-78.125,78.125l-78.125,-78.125l78.125,-78.125Z" style="fill:#f00;fill-opacity:0;fill-rule:nonzero;"/><path d="M468.75,1015.62l78.125,78.125l-78.125,78.125l-78.125,-78.125l78.125,-78.125Z" style="fill:#f00;fill-opacity:0.06;fill-rule:nonzero;"/><path d="M546.875,1093.75l78.125,78.125l-78.125,78.125l-78.125,-78.125l78.125,-78.125Z" style="fill:#f00;fill-opacity:0.09;fill-rule:nonzero;"/><path d="M625,1015.62l78.125,78.125l-78.125,78.125l-78.125,-78.125l78.125,-78.125Z" style="fill:#f00;fill-opacity:0.05;fill-rule:nonzero;"/><path d="M703.125,1093.75l78.125,78.125l-78.125,78.125l-78.125,-78.125l78.125,-78.125Z" style="fill:#f00;fill-opacity:0.02;fill-rule:nonzero;"/><path d="M781.25,1015.62l78.125,78.125l-78.125,78.125l-78.125,-78.125l78.125,-78.125Z" style="fill:#f00;fill-opacity:0.08;fill-rule:nonzero;"/><path d="M859.375,1093.75l78.125,78.125l-78.125,78.125l-78.125,-78.125l78.125,-78.125Z" style="fill:#f00;fill-opacity:0.07;fill-rule:nonzero;"/><path d="M937.5,1015.62l78.125,78.125l-78.125,78.125l-78.125,-78.125l78.125,-78.125Z" style="fill:#f00;fill-opacity:0.07;fill-rule:nonzero;"/><path d="M1015.62,1093.75l78.125,78.125l-78.125,78.125l-78.125,-78.125l78.125,-78.125Z" style="fill:#f00;fill-opacity:0.06;fill-rule:nonzero;"/><path d="M1093.75,1015.62l78.125,78.125l-78.125,78.125l-78.125,-78.125l78.125,-78.125Z" style="fill:#f00;fill-opacity:0.05;fill-rule:nonzero;"/><path d="M1171.88,1093.75l78.125,78.125l-78.125,78.125l-78.125,-78.125l78.125,-78.125Z" style="fill:#f00;fill-opacity:0.06;fill-rule:nonzero;"/><path d="M1250,1015.62l-0,156.25l-78.125,-78.125l78.125,-78.125Z" style="fill:#f00;fill-opacity:0.06;"/><path d="M78.125,1093.75l78.125,78.125l-78.125,78.125l-78.125,-78.125l78.125,-78.125Z" style="fill:#f00;fill-opacity:0.09;fill-rule:nonzero;"/><path d="M234.375,1093.75l78.125,78.125l-78.125,78.125l-78.125,-78.125l78.125,-78.125Z" style="fill:#f00;fill-opacity:0.06;fill-rule:nonzero;"/><path d="M390.625,1093.75l78.125,78.125l-78.125,78.125l-78.125,-78.125l78.125,-78.125Z" style="fill:#f00;fill-opacity:0.07;fill-rule:nonzero;"/><path d="M546.875,1093.75l78.125,78.125l-78.125,78.125l-78.125,-78.125l78.125,-78.125Z" style="fill:#f00;fill-opacity:0.08;fill-rule:nonzero;"/><path d="M703.125,1093.75l78.125,78.125l-78.125,78.125l-78.125,-78.125l78.125,-78.125Z" style="fill:#f00;fill-opacity:0.03;fill-rule:nonzero;"/><path d="M859.375,1093.75l78.125,78.125l-78.125,78.125l-78.125,-78.125l78.125,-78.125Z" style="fill:#f00;fill-opacity:0.08;fill-rule:nonzero;"/><path d="M1015.62,1093.75l78.125,78.125l-78.125,78.125l-78.125,-78.125l78.125,-78.125Z" style="fill:#f00;fill-opacity:0.01;fill-rule:nonzero;"/><path d="M1171.88,1093.75l78.125,78.125l-78.125,78.125l-78.125,-78.125l78.125,-78.125Z" style="fill:#f00;fill-opacity:0.09;fill-rule:nonzero;"/><path d="M78.086,1250.04l-78.086,-0l0,-78.164l78.125,78.125l-0.039,0.039Z" style="fill:#f00;fill-opacity:0.05;"/><path d="M78.164,1250.04l-0.039,-0.039l78.125,-78.125l78.125,78.125l-0.039,0.039l-156.172,-0Z" style="fill:#f00;fill-opacity:0.04;"/><path d="M234.414,1250.04l-0.039,-0.039l78.125,-78.125l78.125,78.125l-0.039,0.039l-156.172,-0Z" style="fill:#f00;fill-opacity:0.08;"/><path d="M390.664,1250.04l-0.039,-0.039l78.125,-78.125l78.125,78.125l-0.039,0.039l-156.172,-0Z" style="fill:#f00;fill-opacity:0.05;"/><path d="M546.914,1250.04l-0.039,-0.039l78.125,-78.125l78.125,78.125l-0.039,0.039l-156.172,-0Z" style="fill:#f00;fill-opacity:0.03;"/><path d="M703.164,1250.04l-0.039,-0.039l78.125,-78.125l78.125,78.125l-0.039,0.039l-156.172,-0Z" style="fill:#f00;fill-opacity:0.03;"/><path d="M859.414,1250.04l-0.039,-0.039l78.125,-78.125l78.125,78.125l-0.039,0.039l-156.172,-0Z" style="fill:#f00;fill-opacity:0.04;"/><path d="M1015.66,1250.04l-0.039,-0.039l78.125,-78.125l78.125,78.125l-0.039,0.039l-156.172,-0Z" style="fill:#f00;fill-opacity:0.05;"/><path d="M1171.91,1250.04l-0.039,-0.039l78.125,-78.125l0,78.164l-78.086,-0Z" style="fill:#f00;fill-opacity:0.03;"/></g><g id="JS"><g id="Arial-Curves" serif:id="Arial Curves"><path d="M733.851,766.65l81.494,0l0,256.362c0,33.518 -2.947,59.302 -8.84,77.35c-7.919,23.574 -22.284,42.497 -43.095,56.77c-20.811,14.273 -48.252,21.409 -82.323,21.409c-39.965,0 -70.721,-11.188 -92.268,-33.564c-21.548,-22.376 -32.414,-55.204 -32.598,-98.484l77.074,-8.84c0.921,23.205 4.328,39.596 10.222,49.173c8.84,14.549 22.284,21.824 40.332,21.824c18.233,-0 31.125,-5.203 38.676,-15.608c7.55,-10.406 11.326,-32 11.326,-64.781l-0,-261.611Z" style="fill:#f88;fill-rule:nonzero;"/><path d="M881.645,1039.86l79.561,-7.735c4.788,26.704 14.503,46.318 29.145,58.842c14.641,12.523 34.393,18.785 59.256,18.785c26.336,-0 46.18,-5.571 59.532,-16.713c13.352,-11.143 20.028,-24.172 20.028,-39.09c0,-9.577 -2.809,-17.726 -8.426,-24.448c-5.617,-6.722 -15.424,-12.57 -29.42,-17.542c-9.577,-3.315 -31.401,-9.209 -65.472,-17.68c-43.832,-10.866 -74.588,-24.218 -92.268,-40.057c-24.863,-22.284 -37.294,-49.449 -37.294,-81.494c-0,-20.627 5.847,-39.918 17.542,-57.875c11.694,-17.956 28.546,-31.631 50.554,-41.023c22.008,-9.393 48.574,-14.089 79.698,-14.089c50.831,-0 89.092,11.142 114.783,33.426c25.691,22.285 39.182,52.028 40.471,89.23l-81.771,3.591c-3.499,-20.811 -11.004,-35.775 -22.514,-44.891c-11.511,-9.116 -28.776,-13.674 -51.797,-13.674c-23.758,-0 -42.359,4.88 -55.803,14.641c-8.656,6.262 -12.984,14.641 -12.984,25.139c0,9.577 4.052,17.772 12.155,24.586c10.314,8.656 35.36,17.68 75.141,27.073c39.78,9.392 69.201,19.107 88.262,29.144c19.061,10.038 33.979,23.758 44.753,41.162c10.774,17.404 16.161,38.905 16.161,64.505c-0,23.205 -6.446,44.937 -19.338,65.195c-12.892,20.259 -31.124,35.314 -54.698,45.167c-23.573,9.853 -52.948,14.78 -88.124,14.78c-51.199,-0 -90.519,-11.833 -117.96,-35.499c-27.441,-23.665 -43.832,-58.151 -49.173,-103.456Z" style="fill:#f88;fill-rule:nonzero;"/></g><g id="Poppins"><path d="M798.7,765.414l0,286.8c0,44.4 -12.5,78.6 -37.5,102.6c-25,24 -58.7,36 -101.1,36c-44.4,-0 -80,-12.6 -106.8,-37.8c-26.8,-25.2 -40.2,-61 -40.2,-107.4l102,-0c0,17.6 3.6,30.9 10.8,39.9c7.2,9 17.6,13.5 31.2,13.5c12.4,-0 22,-4 28.8,-12c6.8,-8 10.2,-19.6 10.2,-34.8l0,-286.8l102.6,-0Z" style="fill:#ff4040;fill-rule:nonzero;"/><path d="M1033.9,1190.81c-30.8,-0 -58.4,-5 -82.8,-15c-24.4,-10 -43.9,-24.8 -58.5,-44.4c-14.6,-19.6 -22.3,-43.2 -23.1,-70.8l109.2,-0c1.6,15.6 7,27.5 16.2,35.7c9.2,8.2 21.2,12.3 36,12.3c15.2,-0 27.2,-3.5 36,-10.5c8.8,-7 13.2,-16.7 13.2,-29.1c0,-10.4 -3.5,-19 -10.5,-25.8c-7,-6.8 -15.6,-12.4 -25.8,-16.8c-10.2,-4.4 -24.7,-9.4 -43.5,-15c-27.2,-8.4 -49.4,-16.8 -66.6,-25.2c-17.2,-8.4 -32,-20.8 -44.4,-37.2c-12.4,-16.4 -18.6,-37.8 -18.6,-64.2c0,-39.2 14.2,-69.9 42.6,-92.1c28.4,-22.2 65.4,-33.3 111,-33.3c46.4,-0 83.8,11.1 112.2,33.3c28.4,22.2 43.6,53.1 45.6,92.7l-111,-0c-0.8,-13.6 -5.8,-24.3 -15,-32.1c-9.2,-7.8 -21,-11.7 -35.4,-11.7c-12.4,-0 -22.4,3.3 -30,9.9c-7.6,6.6 -11.4,16.1 -11.4,28.5c0,13.6 6.4,24.2 19.2,31.8c12.8,7.6 32.8,15.8 60,24.6c27.2,9.2 49.3,18 66.3,26.4c17,8.4 31.7,20.6 44.1,36.6c12.4,16 18.6,36.6 18.6,61.8c0,24 -6.1,45.8 -18.3,65.4c-12.2,19.6 -29.9,35.2 -53.1,46.8c-23.2,11.6 -50.6,17.4 -82.2,17.4Z" style="fill:#ff4040;fill-rule:nonzero;"/></g></g></g></svg>