<svg height="40" viewBox="0 0 169 34" fill="#202020" xmlns="http://www.w3.org/2000/svg"><path d="M0 17.053v-1.647c1.479 0 2.51-.31 3.095-.93.593-.62.89-1.655.89-3.107v-4.25c0-1.222.114-2.28.345-3.174.239-.895.624-1.634 1.155-2.218C6.016 1.142 6.725.708 7.61.425 8.496.142 9.59 0 10.89 0v2.603c-1.026 0-1.837.16-2.43.478-.584.319-1 .815-1.248 1.488-.24.664-.359 1.514-.359 2.55v5.312c0 .69-.093 1.32-.279 1.886a3.077 3.077 0 0 1-.996 1.461c-.487.407-1.182.722-2.085.943-.894.221-2.059.332-3.493.332ZM10.89 34c-1.3 0-2.394-.142-3.28-.425-.885-.283-1.594-.717-2.125-1.302-.531-.584-.916-1.323-1.155-2.218-.23-.894-.346-1.952-.346-3.174v-4.25c0-1.452-.296-2.488-.89-3.108-.584-.62-1.615-.93-3.094-.93v-1.646c1.434 0 2.599.11 3.493.332.903.221 1.598.536 2.085.943.487.407.82.894.996 1.46.186.568.28 1.196.28 1.887v5.312c0 1.036.119 1.886.358 2.55.248.664.664 1.156 1.248 1.474.593.328 1.404.492 2.43.492V34ZM0 18.594v-3.188h3.134v3.188H0Zm14.7-7.323a2.244 2.244 0 1 1-4.487 0 2.244 2.244 0 0 1 4.488 0Zm6.436 12.942c-1.103 0-2.057-.234-2.862-.703a4.811 4.811 0 0 1-1.854-1.975c-.435-.847-.653-1.83-.653-2.947 0-1.127.218-2.112.654-2.955a4.755 4.755 0 0 1 1.853-1.974c.805-.473 1.76-.71 2.862-.71 1.104 0 2.055.237 2.855.71a4.741 4.741 0 0 1 1.861 1.974c.436.843.654 1.828.654 2.955 0 1.117-.218 2.1-.654 2.947a4.797 4.797 0 0 1-1.86 1.975c-.8.469-1.752.703-2.856.703Zm.015-2.344c.502 0 .92-.142 1.257-.426.336-.289.59-.682.76-1.179.175-.497.262-1.063.262-1.697 0-.635-.087-1.2-.262-1.698-.17-.497-.424-.89-.76-1.179-.337-.288-.756-.433-1.257-.433-.507 0-.933.145-1.279.433-.34.29-.599.682-.774 1.18-.17.496-.256 1.062-.256 1.697 0 .634.086 1.2.256 1.697.175.497.433.89.774 1.18.346.283.772.425 1.279.425Zm10.348-4.176V24h-3.026V9.455h2.94v5.56h.128a3.088 3.088 0 0 1 1.193-1.512c.55-.37 1.238-.554 2.067-.554.758 0 1.418.166 1.982.497a3.32 3.32 0 0 1 1.32 1.413c.318.611.474 1.343.47 2.195V24h-3.026v-6.406c.005-.673-.166-1.196-.511-1.57-.341-.374-.82-.56-1.435-.56-.412 0-.777.087-1.094.262-.312.175-.559.43-.738.767-.176.331-.266.731-.27 1.2Zm9.454-4.603h3.026v11.45c0 .843-.166 1.524-.497 2.045-.332.521-.807.902-1.428 1.144-.615.241-1.352.362-2.209.362-.104 0-.203-.003-.298-.007-.1 0-.203-.003-.312-.007v-2.365c.08.004.151.007.213.007.057.005.118.007.184.007.488 0 .83-.104 1.023-.313.199-.203.298-.511.298-.923v-11.4Zm1.506-1.405c-.445 0-.828-.15-1.15-.448a1.44 1.44 0 0 1-.483-1.086c0-.417.16-.775.483-1.073a1.621 1.621 0 0 1 1.15-.454c.455 0 .84.151 1.158.454.322.298.483.656.483 1.073 0 .421-.161.783-.483 1.086a1.628 1.628 0 0 1-1.158.448Zm8.915 12.528c-1.122 0-2.088-.227-2.897-.682a4.668 4.668 0 0 1-1.861-1.946c-.436-.843-.654-1.84-.654-2.99 0-1.122.218-2.107.654-2.954a4.83 4.83 0 0 1 1.84-1.982c.795-.473 1.727-.71 2.798-.71.72 0 1.39.116 2.01.348.624.227 1.169.57 1.633 1.03.469.459.833 1.037 1.094 1.733.26.69.39 1.5.39 2.429v.83H47.17v-1.874h6.363c0-.436-.094-.822-.284-1.158a2.035 2.035 0 0 0-.788-.788 2.248 2.248 0 0 0-1.158-.292c-.459 0-.866.107-1.221.32a2.24 2.24 0 0 0-.824.845c-.2.35-.3.741-.306 1.172v1.783c0 .54.1 1.006.299 1.399.203.393.49.696.86.909.368.213.806.32 1.313.32.336 0 .644-.048.923-.142a1.842 1.842 0 0 0 1.172-1.123l2.799.185a3.822 3.822 0 0 1-.874 1.761c-.436.498-1 .886-1.69 1.165-.687.275-1.48.412-2.38.412ZM61.381 9.455V24h-3.025V9.455h3.025ZM63.805 24V13.09h2.884v1.926h.127a3.027 3.027 0 0 1 1.137-1.513c.53-.37 1.165-.554 1.903-.554.748 0 1.385.187 1.91.56.526.37.877.872 1.052 1.507h.114a2.903 2.903 0 0 1 1.207-1.499c.587-.379 1.28-.568 2.08-.568 1.019 0 1.845.324 2.48.973.639.644.958 1.558.958 2.741V24H76.64v-6.74c0-.606-.161-1.06-.483-1.364-.322-.303-.725-.454-1.208-.454-.549 0-.977.175-1.285.525-.308.346-.462.803-.462 1.371V24h-2.933v-6.804c0-.535-.154-.961-.462-1.278-.303-.318-.703-.476-1.2-.476a1.67 1.67 0 0 0-.909.255c-.265.166-.476.4-.632.704a2.234 2.234 0 0 0-.234 1.05V24h-3.026Zm18.242 0V13.09h3.026V24h-3.026Zm1.52-12.315c-.45 0-.836-.15-1.158-.448a1.45 1.45 0 0 1-.475-1.086c0-.417.158-.775.475-1.073a1.63 1.63 0 0 1 1.158-.454c.45 0 .833.151 1.15.454.323.298.484.656.484 1.073 0 .421-.161.783-.483 1.086a1.62 1.62 0 0 1-1.15.448Zm13.006 4.517-2.77.17a1.432 1.432 0 0 0-.305-.639 1.62 1.62 0 0 0-.618-.462 2.099 2.099 0 0 0-.902-.177c-.469 0-.864.1-1.186.298-.322.194-.483.455-.483.781 0 .26.104.48.313.66.208.18.565.325 1.072.434l1.974.398c1.06.218 1.852.568 2.372 1.05.521.484.782 1.118.782 1.904 0 .715-.211 1.343-.632 1.882-.417.54-.99.962-1.72 1.265-.724.298-1.56.447-2.506.447-1.444 0-2.595-.3-3.452-.902-.852-.606-1.352-1.43-1.499-2.471l2.976-.157c.09.44.308.777.654 1.009.345.227.788.34 1.328.34.53 0 .956-.101 1.278-.305.327-.208.493-.476.498-.802a.835.835 0 0 0-.349-.675c-.227-.18-.577-.317-1.05-.412l-1.89-.376c-1.065-.213-1.858-.583-2.38-1.108-.515-.526-.773-1.196-.773-2.01 0-.701.19-1.305.568-1.811.383-.507.92-.898 1.612-1.172.696-.275 1.51-.412 2.443-.412 1.378 0 2.462.291 3.253.873.796.583 1.26 1.376 1.392 2.38Zm7.956-3.112v2.274h-6.57V13.09h6.57Zm-5.078-2.613h3.026v10.17c0 .28.043.498.128.654a.701.701 0 0 0 .355.32c.156.061.336.092.54.092.142 0 .284-.012.426-.035.142-.029.251-.05.326-.064l.476 2.251a8.391 8.391 0 0 1-.639.163 5.113 5.113 0 0 1-1.001.121c-.729.029-1.369-.069-1.918-.291a2.68 2.68 0 0 1-1.271-1.037c-.303-.469-.452-1.06-.448-1.776V10.478Zm11.861 13.736c-1.103 0-2.057-.234-2.862-.703a4.816 4.816 0 0 1-1.854-1.975c-.435-.847-.653-1.83-.653-2.947 0-1.127.218-2.112.653-2.955a4.759 4.759 0 0 1 1.854-1.974c.805-.473 1.759-.71 2.862-.71 1.103 0 2.055.237 2.855.71a4.743 4.743 0 0 1 1.861 1.974c.436.843.653 1.828.653 2.955 0 1.117-.217 2.1-.653 2.947a4.8 4.8 0 0 1-1.861 1.975c-.8.469-1.752.703-2.855.703Zm.014-2.344c.502 0 .921-.142 1.257-.426.337-.289.59-.682.76-1.179.176-.497.263-1.063.263-1.697 0-.635-.087-1.2-.263-1.698-.17-.497-.423-.89-.76-1.179-.336-.288-.755-.433-1.257-.433-.506 0-.932.145-1.278.433-.341.29-.599.682-.774 1.18-.171.496-.256 1.062-.256 1.697 0 .634.085 1.2.256 1.697.175.497.433.89.774 1.18.346.283.772.425 1.278.425Zm13.189-8.779v2.274h-6.733V13.09h6.733ZM119.324 24V12.303c0-.791.153-1.447.461-1.968a2.97 2.97 0 0 1 1.279-1.172c.539-.26 1.152-.39 1.839-.39.464 0 .888.035 1.271.106.389.071.677.135.867.192l-.54 2.273a3.77 3.77 0 0 0-.44-.107 2.76 2.76 0 0 0-.526-.05c-.445 0-.755.105-.93.313-.175.204-.263.49-.263.86V24h-3.018Zm7.04 0V13.09h2.933v1.904h.114c.198-.677.532-1.188 1.001-1.534a2.631 2.631 0 0 1 1.619-.525 4.55 4.55 0 0 1 .952.106v2.685a3.954 3.954 0 0 0-.59-.114c-.25-.033-.48-.05-.688-.05-.446 0-.843.098-1.194.292-.345.19-.62.454-.823.795a2.296 2.296 0 0 0-.299 1.18V24h-3.025Zm8.183 0V13.09h3.026V24h-3.026Zm1.52-12.315c-.45 0-.836-.15-1.158-.448a1.45 1.45 0 0 1-.475-1.086c0-.417.158-.775.475-1.073a1.63 1.63 0 0 1 1.158-.454c.45 0 .833.151 1.151.454.322.298.483.656.483 1.073 0 .421-.161.783-.483 1.086a1.621 1.621 0 0 1-1.151.448ZM139.996 24V13.09h3.026V24h-3.026Zm1.52-12.315c-.449 0-.835-.15-1.157-.448a1.448 1.448 0 0 1-.476-1.086c0-.417.158-.775.476-1.073a1.63 1.63 0 0 1 1.157-.454c.45 0 .834.151 1.151.454.322.298.483.656.483 1.073 0 .421-.161.783-.483 1.086a1.62 1.62 0 0 1-1.151.448Zm6.671 9.175.007-3.628h.441l3.494-4.141h3.473l-4.695 5.483h-.717l-2.003 2.287ZM145.446 24V9.455h3.025V24h-3.025Zm6.818 0-3.21-4.751 2.017-2.138L155.808 24h-3.544Zm4.822 0V13.09h3.026V24h-3.026Zm1.52-12.315c-.45 0-.836-.15-1.157-.448a1.448 1.448 0 0 1-.476-1.086c0-.417.158-.775.476-1.073a1.626 1.626 0 0 1 1.157-.454c.45 0 .834.151 1.151.454.322.298.483.656.483 1.073 0 .421-.161.783-.483 1.086a1.62 1.62 0 0 1-1.151.448Zm9.732 1.405v2.274h-6.57V13.09h6.57Zm-5.078-2.613h3.026v10.17c0 .28.042.498.127.654a.71.71 0 0 0 .355.32c.157.061.337.092.54.092.142 0 .284-.012.426-.035.142-.029.251-.05.327-.064l.476 2.251a8.65 8.65 0 0 1-.639.163 5.134 5.134 0 0 1-1.002.121c-.729.029-1.368-.069-1.917-.291a2.676 2.676 0 0 1-1.272-1.037c-.303-.469-.452-1.06-.447-1.776V10.478Z"></path></svg>