<?xml version="1.0" encoding="UTF-8"?>
<svg width="448px" height="90px" viewBox="0 0 448 90" version="1.1" xmlns="http://www.w3.org/2000/svg" xmlns:xlink="http://www.w3.org/1999/xlink">
    <!-- Generator: Sketch 49.1 (51147) - http://www.bohemiancoding.com/sketch -->
    <title>futurice-logo-black</title>
    <desc>Created with Sketch.</desc>
    <defs></defs>
    <g id="Page-1" stroke="none" stroke-width="1" fill="none" fill-rule="evenodd">
        <g id="Artboard" transform="translate(-57.000000, -58.000000)" fill="#000000">
            <path d="M345.537142,146.801201 L361.907123,146.801201 L361.907123,85.6009372 L345.537142,85.6009372 L345.537142,146.801201 Z M353.845303,59.1987992 C348.265186,59.1987992 343.801893,63.5195285 343.801893,68.9193417 C343.801893,74.319155 348.265186,78.6404335 353.845303,78.6404335 C359.42542,78.6404335 363.890428,74.319155 363.890428,68.9193417 C363.890428,63.5195285 359.42542,59.1987992 353.845303,59.1987992 Z M489.004389,109.599436 C489.004389,103.35942 486.026002,97.0007871 475.982592,97.0007871 C467.302918,97.0007871 463.209422,103.239156 462.465254,109.599436 L489.004389,109.599436 Z M505,120.160731 L462.216627,120.160731 C462.589282,130.121802 468.541483,135.161371 476.10662,135.161371 C483.049902,135.161371 488.381963,131.801109 491.234035,126.041052 L504.379288,132.521597 C498.799171,141.999963 490.242954,148 476.476989,148 C456.140398,148 445.600875,135.521615 445.600875,115.840001 C445.600875,96.2802995 457.505849,84.3999414 475.608221,84.3999414 C492.970999,84.3999414 505,93.4005455 505,112.959698 L505,120.160731 Z M408.406764,97.7190782 C414.358965,97.7190782 418.201547,100.839361 420.30888,106.959662 L435.43801,103.35942 C431.3468,90.6405067 423.03921,84.3999414 407.91008,84.3999414 C388.812626,84.3999414 377.280308,96.4005638 377.280308,116.200245 C377.280308,135.999927 388.812626,148 407.91008,148 C423.03921,148 431.3468,141.761631 435.43801,129.04107 L420.30888,125.44028 C418.201547,131.560581 414.358965,134.680863 408.406764,134.680863 C398.981779,134.680863 394.392171,128.560562 394.392171,116.200245 C394.392171,103.839379 399.103521,97.7190782 408.406764,97.7190782 Z M295.815631,146.801201 L312.183326,146.801201 L312.183326,98.920074 L334.133424,98.920074 L334.133424,85.6009372 L295.815631,85.6009372 L295.815631,146.801201 Z M81.3054873,71.3191367 C84.6542434,71.3191367 86.8856043,72.2796039 88.9929372,73.9611078 L95.4418217,62.9193051 C90.8545003,59.7990225 85.1503554,58 78.8260704,58 C64.6874498,58 57,66.1593029 57,78.1599253 L57,146.801201 L73.3676953,146.801201 L73.3676953,98.920074 L92.3416932,98.920074 L92.3416932,85.6009372 L73.3676953,85.6009372 L73.3676953,79.9589478 C73.3676953,74.5591345 75.973998,71.3191367 81.3054873,71.3191367 Z M198.481656,134.680863 C193.76802,134.680863 190.17178,132.639665 190.17178,126.041052 L190.17178,98.920074 L210.384343,98.920074 L210.384343,85.6009372 L190.17178,85.6009372 L190.17178,62.7990408 L173.801798,62.7990408 L173.801798,127.960339 C173.801798,139.960412 181.491534,148 195.627297,148 C203.193005,148 209.021178,145.48049 213.23813,142.360207 L206.913845,131.080072 C204.309829,133.360152 202.20021,134.680863 198.481656,134.680863 Z M262.091445,121.719774 C262.091445,131.080072 258.248864,134.680863 250.931212,134.680863 C243.614131,134.680863 239.647521,131.080072 239.647521,121.719774 L239.647521,85.6009372 L223.27754,85.6009372 L223.27754,121.599509 C223.27754,139.360189 232.701953,148 250.931212,148 C269.16047,148 278.461427,139.360189 278.461427,121.599509 L278.461427,85.6009372 L262.091445,85.6009372 L262.091445,121.719774 Z M141.320751,85.6009372 L157.690732,85.6009372 L157.690732,121.599509 C157.690732,139.360189 148.388061,148 130.160517,148 C111.929544,148 102.506845,139.360189 102.506845,121.599509 L102.506845,85.6009372 L118.874541,85.6009372 L118.874541,121.719774 C118.874541,131.080072 122.843437,134.680863 130.160517,134.680863 C137.475883,134.680863 141.320751,131.080072 141.320751,121.719774 L141.320751,85.6009372 Z" id="futurice-logo-black"></path>
        </g>
    </g>
</svg>