<svg width="109" height="85" viewBox="0 0 109 85" fill="none" xmlns="http://www.w3.org/2000/svg">
<path d="M80.7371 28.6497C80.5518 31.0083 80.0481 33.3309 79.2395 35.5543C77.5769 40.1363 74.6699 44.1642 70.845 47.1857C66.1998 50.8826 60.4358 52.8908 54.499 52.8806C51.0428 52.8807 47.6204 52.2 44.4272 50.8774C41.2341 49.5548 38.3327 47.6162 35.8887 45.1723C33.4448 42.7284 31.5062 39.827 30.1836 36.6338C28.861 33.4407 28.1804 30.0183 28.1805 26.562C28.1816 19.5829 30.955 12.89 35.8907 7.95557C40.8263 3.02117 47.5199 0.249419 54.499 0.250025C58.2042 0.244959 61.8683 1.02451 65.2505 2.53737C68.6327 4.05022 71.6562 6.26209 74.1221 9.02745L69.025 13.3657C67.187 11.3391 64.9448 9.72021 62.4429 8.61324C59.941 7.50627 57.2349 6.93583 54.499 6.93867C49.2952 6.94041 44.305 9.00838 40.6253 12.688C36.9457 16.3677 34.8777 21.3579 34.876 26.5617C34.8767 31.7659 36.9443 36.7567 40.6242 40.4366C44.3041 44.1165 49.2949 46.1841 54.499 46.1848C59.2665 46.1937 63.8723 44.457 67.4469 41.3025C69.2919 39.6852 70.816 37.7351 71.9397 35.554H58.401L59.7443 28.6494L80.7371 28.6497Z" fill="black"/>
<path d="M57.1179 18.2875C57.1164 19.957 56.452 21.5577 55.2708 22.7376C54.0896 23.9176 52.4883 24.5803 50.8187 24.5801C49.1501 24.5789 47.5503 23.9156 46.3704 22.7357C45.1906 21.5559 44.5272 19.956 44.5261 18.2875C44.5258 16.6179 45.1885 15.0165 46.3685 13.8353C47.5484 12.6542 49.1491 11.9898 50.8187 11.9883C52.4893 11.9884 54.0914 12.6521 55.2727 13.8334C56.454 15.0147 57.1177 16.6169 57.1179 18.2875Z" fill="#61DBFB"/>
<path d="M25.581 26.5634C25.578 21.8195 26.7432 17.1478 28.9738 12.9611C31.2044 8.77429 34.4318 5.20127 38.3708 2.55762C25.5809 6.21288 12.7907 14.2148 0 26.5634C12.7899 38.9162 25.5802 46.9183 38.3708 50.5698C34.4318 47.926 31.2044 44.3529 28.9738 40.166C26.7432 35.9792 25.578 31.3074 25.581 26.5634Z" fill="#61DBFB"/>
<path d="M70.6296 2.55762C74.5687 5.20121 77.7962 8.77419 80.027 12.961C82.2578 17.1477 83.4231 21.8194 83.4202 26.5634C83.4232 31.3075 82.2578 35.9793 80.027 40.1661C77.7963 44.353 74.5687 47.9261 70.6296 50.5698C83.4197 46.9138 96.2098 38.9116 109 26.5634C96.2102 14.2112 83.42 6.20926 70.6296 2.55762Z" fill="#61DBFB"/>
<path d="M1.91949 73.8141V70.663L12.0461 65.9375V69.6734L6.57786 72.1487L12.0461 74.6242V78.5396L1.91949 73.8141Z" fill="#61DBFB"/>
<path d="M107.122 70.664V73.8151L96.9958 78.5402V74.8049L102.464 72.3296L96.9958 69.8539V65.9385L107.122 70.664Z" fill="#61DBFB"/>
<path d="M25.6151 84.7284C21.5637 84.7284 19.314 83.7381 19.314 81.9374C19.314 80.9471 20.1243 80.1822 21.4748 79.9119C20.5523 79.3944 19.9896 78.5843 19.9896 77.7067C19.9896 76.5363 20.7772 75.6589 22.2404 75.1414C21.7045 74.7938 21.2648 74.3168 20.962 73.7543C20.6592 73.1919 20.503 72.5622 20.5078 71.9235C20.4986 71.3501 20.6242 70.7825 20.8744 70.2665C21.1246 69.7505 21.4924 69.3004 21.9483 68.9525C22.916 68.1647 24.1762 67.7598 25.7064 67.7598C27.3269 67.7598 28.6994 68.2324 29.6677 69.1324C30.2979 68.3221 31.2429 67.9398 32.6157 67.9398V70.8208C31.9994 70.8001 31.3837 70.876 30.791 71.0457C30.8601 71.3334 30.8978 71.6277 30.9033 71.9235C30.915 72.5004 30.7906 73.072 30.5404 73.592C30.2901 74.1119 29.921 74.5657 29.4628 74.9165C28.4952 75.7039 27.2574 76.0869 25.7048 76.0869C25.1598 76.0827 24.6168 76.0224 24.0842 75.9068C23.544 76.0646 23.2514 76.2669 23.2514 76.5594C23.2514 76.9868 23.5215 77.1222 24.1742 77.1222H28.6074C31.1952 77.1222 32.6587 78.3148 32.6587 80.3633C32.6587 83.0855 30.0034 84.7284 25.6151 84.7284ZM25.6601 82.2754C28.0681 82.2754 29.2158 81.893 29.2158 81.105C29.2158 80.6774 28.8331 80.4298 28.2031 80.4298H24.872C23.3643 80.4298 22.7341 80.6774 22.7341 81.3072C22.7347 81.9605 23.6798 82.2754 25.6601 82.2754ZM25.7276 70.2361C24.67 70.2361 24.0622 70.8437 24.0622 71.924C24.0622 72.9817 24.715 73.6346 25.7276 73.6346C26.7403 73.6346 27.3705 73.0044 27.3705 71.924C27.3705 70.8437 26.7853 70.2354 25.7276 70.2354V70.2361Z" fill="black"/>
<path d="M35.0204 78.2024C33.94 77.0997 33.3998 75.6371 33.3998 73.7918C33.3998 72.0366 33.9625 70.5965 35.0652 69.4703C36.1677 68.3226 37.5861 67.7598 39.3181 67.7598C40.916 67.7598 42.221 68.2548 43.1894 69.2674C44.1798 70.2801 44.6746 71.6082 44.6746 73.2954C44.6746 73.8356 44.6295 74.3307 44.607 74.7134H37.114C37.3615 76.1758 38.1491 76.8741 39.747 76.8741C40.7772 76.8347 41.7525 76.3993 42.4697 75.6587L44.4504 77.8641C43.2575 79.2145 41.6594 79.8219 39.3871 79.8219C37.5641 79.8226 36.1008 79.2828 35.0204 78.2024ZM37.1811 72.4192H40.9842C40.9624 71.159 40.3322 70.5055 39.2518 70.5055C38.1715 70.5055 37.4512 71.159 37.1811 72.4192Z" fill="black"/>
<path d="M47.7575 78.2024C46.6771 77.0997 46.137 75.6371 46.137 73.7918C46.137 72.0366 46.6993 70.5965 47.8022 69.4703C48.9049 68.3226 50.323 67.7598 52.0552 67.7598C53.6531 67.7598 54.9582 68.2548 55.9265 69.2674C56.9169 70.2801 57.4119 71.6082 57.4119 73.2954C57.4119 73.8356 57.3668 74.3307 57.3443 74.7134H49.8504C50.098 76.1758 50.8855 76.8741 52.4834 76.8741C53.5137 76.8347 54.489 76.3993 55.2063 75.6587L57.187 77.8641C55.9941 79.2145 54.396 79.8219 52.1236 79.8219C50.3005 79.8226 48.8377 79.2828 47.7575 78.2024ZM49.9183 72.4192H53.7215C53.699 71.1588 53.0688 70.5061 51.9886 70.5061C50.9084 70.5061 50.188 71.159 49.9179 72.4192H49.9183Z" fill="black"/>
<path d="M66.8169 72.5541L71.3402 79.5527H66.8387L64.0938 75.0521L63.2614 75.9293V79.5527H59.4801V63.125H63.2614V71.6541L66.637 68.0308H71.1825L66.8169 72.5541Z" fill="black"/>
<path d="M72.5783 79.5527V63.125H76.3596V79.5527H72.5783Z" fill="black"/>
<path d="M79.9814 78.2024C78.901 77.0997 78.3608 75.6371 78.3608 73.7918C78.3608 72.0366 78.9235 70.5965 80.0262 69.4703C81.1289 68.3226 82.5471 67.7598 84.2793 67.7598C85.8771 67.7598 87.1822 68.2548 88.1506 69.2674C89.1409 70.2801 89.6357 71.6082 89.6357 73.2954C89.6357 73.8356 89.5909 74.3307 89.5684 74.7134H82.0741C82.3216 76.1758 83.1092 76.8741 84.7071 76.8741C85.7374 76.8346 86.7127 76.3993 87.43 75.6587L89.4107 77.8641C88.2179 79.2145 86.6197 79.8219 84.3473 79.8219C82.5242 79.8226 81.0618 79.2828 79.9814 78.2024ZM82.1421 72.4192H85.9452C85.9227 71.1588 85.2927 70.5061 84.2125 70.5061C83.1323 70.5061 82.4122 71.159 82.1421 72.4192Z" fill="black"/>
</svg>
