<svg xmlns="http://www.w3.org/2000/svg" width="624" height="190">
  <g fill="#000" fill-rule="evenodd">
    <path d="M604 124.399V136h20V36h-20v11.5c-7.7-8.7-18.7-14.5-32.3-14.5-29.6 0-52.2 23.2-52.2 53.2-.1 29.4 22.8 52.8 52.2 52.8 14.3 0 24.4-5.3 32.3-14.601zM572 53c18 0 32 13.5 32 33.1s-14 33.1-32 33.1-32-14.1-32-33.1S554 53 572 53M510 64V46h-30V15l-20 7.2V46h-40V15l-20 7.2v71.7c0 27.9 19.4 45.1 42.7 45.1h1.3v-20h-.699C429.7 119 420 109.3 420 93.1V64h40v29.9c0 27.9 19.4 45.1 42.7 45.1h1.3v-20h-.7c-13.6 0-23.3-9.7-23.3-25.9V64h30zM333 33c29.601 0 52 23.6 52 53 0 2.4-.1 4.8-.3 7h-82.5c2.1 15 15.601 26.5 30.8 26.5 13.601 0 23.2-5.9 29-14.3l18.2 9.1C371 129.7 353.7 139 333 139c-29.899 0-52-23.601-52-53 0-29.4 22.4-53 52-53m0 19.6c-14.399 0-27.399 10.6-30.3 24.4h60.7c-2.799-14.9-16-24.4-30.4-24.4M188 47.3V36h-20v100h20V85.7c0-21.1 12.5-33.2 29.1-33.2 19 0 28.9 13.3 28.9 34.9V136h20V85.2c0-31.8-18.3-52.2-45.1-52.2-14.3 0-24.9 5.9-32.9 14.3zM126 136h20V36h-20v100zm10-110c-7.8 0-13-5.2-13-13s5.2-13 13-13 13 5.2 13 13-5.2 13-13 13zM84 36v11.5C76.33 38.8 65.27 33 52 33 22.513 33 0 56.2 0 86.2 0 115.6 22.812 139 52 139c14.245 0 24.13-5.2 32-14.5v8.5c0 23.2-11.08 36-31.701 36-15.341 0-25.9-9.2-30.084-22l-18.728 7.7c7.172 20.4 25.601 33.9 49.21 33.9 31.38 0 51.303-20.4 51.303-53.4V36H84zm-31.602 83.2c-17.93 0-31.877-14.1-31.877-33.1S34.467 53 52.398 53c17.932 0 31.878 13.5 31.878 33.1s-13.946 33.1-31.878 33.1z"/>
  </g>
</svg>
