<svg width="481" height="149" viewBox="0 0 481 149" fill="none" xmlns="http://www.w3.org/2000/svg">
<g clip-path="url(#clip0_170_2)">
<path fill-rule="evenodd" clip-rule="evenodd" d="M74.0447 3.56931e-06C104.004 -0.00929133 131.019 18.1359 142.49 45.9735C153.962 73.811 147.631 105.858 126.449 127.17C105.268 148.481 73.4083 154.859 45.7284 143.329C18.0485 131.799 1.42522e-06 104.633 0 74.4988C-1.94554e-06 33.3633 33.1474 0.0126919 74.0447 3.56931e-06ZM71.9891 108.899V123.651H96.8914C98.5201 123.618 100.139 123.387 101.712 122.962C103.375 122.517 104.93 121.735 106.281 120.664C107.374 119.695 108.24 118.494 108.817 117.148C109.617 115.19 109.991 113.083 109.914 110.967V77.7388H128.351V61.3315H72.9715V77.7388H91.4999V102.258C91.4838 103.105 91.4073 103.95 91.2712 104.785C91.1259 105.754 90.6586 106.645 89.9463 107.313C89.3448 107.99 88.5446 108.457 87.6615 108.646C86.8311 108.784 85.9903 108.853 85.1485 108.853L71.9891 108.899ZM62.8499 123.652V108.9H61.3876C57.7034 108.945 54.0464 108.259 50.6272 106.877C47.0618 105.211 44.2316 102.282 42.6767 98.6507C41.4716 96.1646 40.6253 93.5184 40.1635 90.7919C39.7982 88.8158 39.4555 86.4945 39.1811 83.898C38.8869 80.7972 38.7496 77.6833 38.77 74.5682C38.7515 71.4996 38.8889 68.4314 39.1811 65.3769C39.4555 62.7571 39.7982 60.5051 40.1635 58.6438C40.4562 57.0797 40.8763 55.5426 41.4201 54.0478C41.7816 52.9995 42.2484 51.9907 42.8138 51.0375C44.663 47.5807 47.5488 44.7983 51.061 43.0867C55.2539 41.1468 59.8362 40.211 64.4489 40.3523H107.857V25.2778H59.2402C50.9562 24.9373 42.7537 27.0377 35.6399 31.3212C32.1895 33.4851 29.2561 36.3882 27.0498 39.8236C24.9524 43.1807 23.3516 46.8264 22.2978 50.647C21.2283 54.5936 20.5322 58.6327 20.2187 62.7112C19.876 66.8933 19.7161 70.9836 19.7161 75.0051C19.7161 78.4747 19.7161 82.0826 20.0817 85.8283C20.302 89.5439 20.837 93.2339 21.6809 96.8584C22.5221 100.447 23.8117 103.914 25.519 107.176C27.2802 110.518 29.6791 113.477 32.5786 115.885C35.2951 118.053 38.3025 119.825 41.5113 121.147C45.8653 122.902 50.5307 123.739 55.2193 123.606L62.8499 123.652Z" fill="url(#paint0_linear_170_2)"/>
<path fill-rule="evenodd" clip-rule="evenodd" d="M470.861 49.5682C470.671 49.8847 470.517 50.2234 470.406 50.5776L458.193 83.1872C457.83 84.1028 457.489 84.9478 457.15 85.6522C456.839 86.339 456.416 86.9663 455.901 87.5068C455.392 88.034 454.769 88.4284 454.086 88.6574C453.234 88.9333 452.344 89.0602 451.452 89.033C450.5 89.0621 449.547 88.8946 448.66 88.5399C447.963 88.2549 447.335 87.8139 446.82 87.2487C446.315 86.713 445.901 86.0944 445.596 85.4174C445.264 84.6532 444.973 83.8695 444.733 83.0697L432.655 50.5307C432.534 50.1763 432.376 49.8376 432.181 49.5209L432.154 49.4687C431.967 49.1035 431.871 48.9107 431.522 48.9107C431.156 48.9107 430.885 49.1688 430.885 49.5915V50.3897L431.091 88.352H422.193V45.4361C422.114 44.13 422.477 42.8363 423.213 41.7739C423.814 40.9575 424.591 40.2983 425.483 39.8484C426.274 39.4555 427.13 39.2091 428.003 39.1207H429.798C430.95 39.0928 432.099 39.2591 433.203 39.6138C434.042 39.8859 434.817 40.3423 435.471 40.952C436.082 41.5422 436.597 42.2321 436.991 42.9942C437.409 43.75 437.77 44.5347 438.083 45.3422L450.271 77.8811C450.461 78.3238 450.673 78.7547 450.909 79.1726C451.111 79.5247 451.315 79.6891 451.544 79.6891C451.77 79.6891 451.996 79.5247 452.2 79.1726C452.436 78.7547 452.647 78.3238 452.835 77.8811L465.026 45.3422C465.42 44.1605 465.976 43.0452 466.683 42.032C467.224 41.2855 467.895 40.6489 468.66 40.1538C469.357 39.7234 470.127 39.429 470.928 39.2851C471.731 39.1421 472.544 39.0709 473.357 39.0738C475.288 39.0001 477.195 39.5324 478.828 40.5996C480.312 41.7347 481.127 43.5796 480.983 45.483V88.3991H472.085L472.356 50.4365C472.356 49.7795 472.246 49.3801 472.039 49.2159C471.904 49.0787 471.729 48.9888 471.541 48.9576C471.315 48.9576 471.089 49.1688 470.861 49.5682ZM275.801 39.0719H280.341C282.015 39.1262 283.684 39.3069 285.334 39.6119C287.025 39.9455 288.677 40.4648 290.259 41.1613C291.873 41.8645 293.345 42.876 294.596 44.143C295.813 45.3674 296.799 46.8168 297.501 48.4156C298.218 50.0417 298.766 51.7415 299.136 53.4867C299.526 55.2543 299.769 57.0528 299.863 58.8632V63.9342C299.863 65.5069 299.863 67.2678 299.704 69.0757C299.593 70.8673 299.358 72.6483 298.999 74.4049C298.638 76.1496 298.097 77.8494 297.388 79.4759C296.686 81.0752 295.7 82.5242 294.483 83.7488C293.225 85.0081 291.755 86.0187 290.146 86.7303C288.566 87.4303 286.914 87.9425 285.221 88.2566C283.566 88.5815 281.888 88.7699 280.204 88.8199H271.125C269.456 88.7689 267.792 88.5805 266.152 88.2566C264.459 87.9456 262.806 87.4335 261.226 86.7303C259.617 86.0187 258.148 85.0081 256.892 83.7488C255.555 82.4155 254.49 80.8188 253.759 79.0534C253.02 77.363 252.472 75.5906 252.123 73.7711C251.796 72.0365 251.599 70.2783 251.534 68.5121V63.8167C251.534 62.3846 251.534 60.4361 251.671 58.6284C251.76 56.8517 251.989 55.0851 252.352 53.3459C252.703 51.6136 253.244 49.9285 253.963 48.3219C254.699 46.7005 255.733 45.2415 257.006 44.0254C258.249 42.8245 259.694 41.8697 261.272 41.2084C262.84 40.5119 264.478 39.9923 266.152 39.6588C267.787 39.354 269.442 39.1738 271.101 39.1188H275.642L275.801 39.0719ZM208.54 64.4762H208.608L208.54 64.1943V64.4762ZM208.54 81.8255V64.4762H186.839V73.0687H199.71V77.7641C199.741 78.1859 199.741 78.61 199.71 79.0318C199.626 79.504 199.405 79.9383 199.075 80.2762C198.767 80.6177 198.361 80.8479 197.917 80.9332C197.517 80.9693 197.114 80.9693 196.714 80.9332H185.182C183.41 80.9484 181.652 80.6054 180.007 79.9239C178.283 79.1 176.917 77.6446 176.171 75.8389C175.94 75.3498 175.736 74.8483 175.558 74.3364C175.292 73.5724 175.087 72.787 174.945 71.9887C174.763 71.0026 174.604 69.8522 174.468 68.5374C174.32 66.9772 174.252 65.4098 174.264 63.842C174.249 62.2743 174.317 60.7067 174.468 59.1468C174.604 57.832 174.763 56.7991 174.945 55.7895C175.085 54.9909 175.29 54.2055 175.558 53.4418C175.739 52.9239 175.959 52.4216 176.216 51.9393C177.119 50.2274 178.515 48.8487 180.211 47.9951C182.238 47.0338 184.451 46.5681 186.68 46.6337H207.632V39.3319H184.093C180.11 39.1661 176.166 40.2019 172.743 42.3136C171.083 43.3927 169.673 44.8351 168.611 46.5395C167.591 48.1914 166.825 49.9972 166.342 51.8924C165.814 53.8568 165.472 55.8695 165.32 57.9026C165.161 59.9684 165.093 61.9874 165.093 63.983C165.093 65.9784 165.093 67.5047 165.252 69.3593C165.359 71.2018 165.617 73.0317 166.024 74.8295C166.427 76.6115 167.053 78.3322 167.885 79.9474C168.736 81.6035 169.893 83.0714 171.29 84.2672C172.597 85.3487 174.05 86.2266 175.603 86.873C177.722 87.7533 179.995 88.1691 182.277 88.0939H202.253C203.018 88.0696 203.779 87.9595 204.522 87.7653C205.347 87.5567 206.12 87.173 206.792 86.6385C207.325 86.1653 207.745 85.5702 208.018 84.9009C208.396 83.924 208.574 82.8769 208.54 81.8255ZM252.965 81.1221V88.3765L221.345 88.4233C220.582 88.4092 219.822 88.3231 219.075 88.1652C218.335 88.0064 217.643 87.6687 217.054 87.179C216.626 86.7437 216.253 86.2547 215.942 85.7233C215.54 84.9279 215.344 84.0382 215.374 83.1411V39.6617H224.273V79.4785C224.316 79.908 224.53 80.2992 224.863 80.5586C225.072 80.696 225.292 80.8143 225.521 80.9109C226.026 81.0801 226.557 81.1522 227.087 81.1221H252.965ZM260.93 69.2185C260.765 67.4869 260.688 65.747 260.704 64.0068H260.772C260.69 61.0739 260.95 58.1415 261.544 55.2733C261.929 53.5054 262.655 51.8364 263.679 50.3666C264.976 48.6367 266.842 47.4589 268.922 47.0561C271.164 46.5954 273.446 46.3674 275.731 46.3755C278.018 46.3719 280.298 46.5998 282.542 47.0561C284.646 47.4467 286.537 48.6254 287.854 50.3666C288.273 50.9056 288.638 51.4877 288.944 52.1036C289.341 52.9525 289.653 53.8414 289.875 54.7568C290.178 56.0223 290.389 57.309 290.51 58.607C290.685 60.4008 290.769 62.2034 290.76 64.0068C290.767 65.7316 290.685 67.4559 290.51 69.1716C290.387 70.4614 290.175 71.7404 289.875 72.9982C289.656 73.9338 289.35 74.8456 288.966 75.7216C288.677 76.3962 288.304 77.0277 287.854 77.5999C287.186 78.4882 286.363 79.2368 285.425 79.8068C284.509 80.3552 283.523 80.7664 282.496 81.0274C281.419 81.3096 280.315 81.4826 279.204 81.5439H272.078C270.967 81.4843 269.863 81.311 268.785 81.0274C267.77 80.7537 266.794 80.3432 265.88 79.8068C264.985 79.2389 264.213 78.4877 263.61 77.5999C263.162 77.0434 262.787 76.4274 262.499 75.7687C262.104 74.8939 261.791 73.9816 261.568 73.0453C261.282 71.7839 261.07 70.5059 260.93 69.2185ZM306.719 88.3991H315.618V50.4365C315.582 49.9597 315.582 49.481 315.618 49.0044C315.733 48.481 316.031 48.0208 316.457 47.7132C316.738 47.3861 317.109 47.1564 317.525 47.0557C317.953 47.0148 318.388 47.0148 318.816 47.0557H333.232C334.067 47.0689 334.901 47.1316 335.728 47.2436C336.674 47.3606 337.549 47.818 338.203 48.5348C338.795 49.1998 339.216 50.0066 339.43 50.8826C339.798 52.3293 339.959 53.8243 339.906 55.3199V56.8692C339.906 57.4794 339.906 58.0901 339.771 58.7003C339.701 59.3268 339.588 59.9468 339.43 60.5551C339.314 61.0677 339.124 61.5589 338.862 62.0105C338.355 62.8946 337.544 63.5485 336.592 63.8417C335.762 64.057 334.906 64.1674 334.047 64.1705H325.175C324.103 64.0945 323.037 64.4382 322.2 65.1332C321.546 65.722 321.176 66.5831 321.2 67.4809V68.5842C321.221 69.3787 321.476 70.148 321.926 70.7911C322.364 71.476 322.857 72.1201 323.403 72.7161L338.905 88.5161H350.098L332.167 71.3076V70.9555H338.249C339.43 70.9798 340.606 70.8296 341.743 70.5092C342.636 70.2461 343.485 69.8505 344.264 69.3355C344.916 68.8887 345.495 68.3425 345.988 67.7157C346.426 67.1719 346.808 66.5816 347.126 65.9549C348.04 64.2407 348.626 62.3589 348.85 60.4142C349.047 58.5979 349.146 56.7717 349.143 54.944C349.136 53.1236 349.03 51.3053 348.826 49.4971C348.576 47.5901 347.874 45.7757 346.784 44.2148C346.202 43.2237 345.43 42.3682 344.514 41.7032C343.725 41.1187 342.852 40.6672 341.926 40.3648C341.046 40.0909 340.139 39.9178 339.223 39.8482H314.3C313.34 39.8467 312.378 39.957 311.438 40.1769C310.375 40.4389 309.403 40.9993 308.626 41.7969C307.746 42.6078 307.157 43.6984 306.945 44.8959C306.767 45.966 306.676 47.0499 306.674 48.1357V88.6103L306.719 88.3991ZM365.079 39.6369V88.3991H356.181V39.6369H365.079ZM393.658 81.6364H391.39C390.548 81.5626 389.711 81.4211 388.893 81.2139C388.049 80.9976 387.234 80.6826 386.464 80.275C385.675 79.8458 384.959 79.2824 384.353 78.6079C383.28 77.4666 382.578 76.0044 382.354 74.4289C382.162 72.9975 382.061 71.5541 382.058 70.1093V39.7297H373.16V71.3532C373.177 73.502 373.412 75.6428 373.864 77.7393C374.432 80.0596 375.611 82.1723 377.27 83.8433C378.4 85.0588 379.742 86.0458 381.219 86.7543C382.631 87.438 384.107 87.9655 385.625 88.3275C387.041 88.6682 388.482 88.8802 389.935 88.9612H397.359C398.812 88.8802 400.255 88.6682 401.671 88.3275C403.191 87.9655 404.665 87.438 406.077 86.7543C407.559 86.0516 408.898 85.0639 410.026 83.8433C411.683 82.1723 412.862 80.0596 413.429 77.7393C413.896 75.6447 414.131 73.5027 414.134 71.3532V39.7297H405.235V72.1283C405.221 72.9182 405.127 73.7046 404.964 74.476C404.805 75.2782 404.576 76.0638 404.281 76.8237C403.985 77.5673 403.561 78.2503 403.032 78.8427C402.388 79.5408 401.616 80.1065 400.764 80.5095C399.973 80.926 399.134 81.2413 398.268 81.4485C397.441 81.658 396.599 81.7991 395.748 81.871H393.477L393.658 81.6364Z" fill="url(#paint1_linear_170_2)"/>
<path d="M175.128 123.561V104.259H166.877V100.848H187.403V104.259H179.108V123.561H175.128Z" fill="url(#paint2_linear_170_2)"/>
<path d="M199.71 123.527C198.801 123.659 197.879 123.4 197.163 122.814C196.542 122.079 196.246 121.116 196.345 120.151V104.126C196.314 103.265 196.587 102.421 197.117 101.748C197.84 101.08 198.81 100.76 199.78 100.868H214.034V104.269H202.024C201.618 104.229 201.212 104.339 200.879 104.578C200.607 104.88 200.479 105.288 200.528 105.695V110.236H213.73V113.637H200.528V118.939C200.519 119.264 200.637 119.58 200.855 119.818C201.112 120.08 201.627 120.104 202.281 120.104H214.174V123.504L199.71 123.527Z" fill="url(#paint3_linear_170_2)"/>
<path d="M230.279 123.536C227.796 123.733 225.356 122.758 223.601 120.869C221.936 118.464 221.145 115.494 221.375 112.511C221.088 109.417 221.812 106.312 223.423 103.724C225.237 101.733 227.774 100.689 230.368 100.867H238.872V104.272H232.194C229.834 104.272 227.742 104.439 226.629 106.367C225.675 108.228 225.264 110.351 225.449 112.464C225.279 114.362 225.627 116.272 226.45 117.964C227.541 119.75 229.478 120.131 231.994 120.131H239.161V123.536H230.279Z" fill="url(#paint4_linear_170_2)"/>
<path d="M267.717 123.561H263.79V113.564H252.927V123.561H248.978V100.848H252.927V110.152H263.79V100.848H267.717V123.561Z" fill="url(#paint5_linear_170_2)"/>
<path d="M298.944 120.393C299.011 121.272 298.691 122.136 298.076 122.745C297.46 123.355 296.611 123.647 295.764 123.539C294.353 123.648 293.004 122.915 292.292 121.651L283.273 106.9C282.982 106.411 282.845 106.364 282.778 106.364C282.503 106.432 282.318 106.702 282.349 106.993V123.306H278.427V103.87C278.427 101.983 279.689 100.864 281.719 100.864C283.083 100.731 284.401 101.408 285.122 102.612L294.141 117.48C294.3 117.69 294.367 118.016 294.637 118.016C294.908 118.016 294.976 117.62 294.976 117.48V101.167H298.898L298.944 120.393Z" fill="url(#paint6_linear_170_2)"/>
<path fill-rule="evenodd" clip-rule="evenodd" d="M331.077 112.204C331.077 109.283 330.875 105.521 328.59 103.184C326.219 100.847 322.66 100.847 320.021 100.848C319.997 100.848 319.971 100.848 319.947 100.848C317.299 100.848 313.626 100.894 311.277 103.184C308.927 105.474 308.768 109.19 308.768 112.204C308.768 114.705 308.881 118.888 311.277 121.224C313.672 123.561 317.438 123.561 319.947 123.561C322.453 123.561 326.356 123.444 328.59 121.224C330.829 119.004 331.077 115.125 331.077 112.204ZM319.901 120.243C317.862 120.577 315.796 119.89 314.333 118.397H314.403C313.256 116.558 312.758 114.373 312.989 112.204C312.746 110.029 313.22 107.833 314.333 105.965C315.815 104.514 317.874 103.849 319.901 104.165C321.941 103.87 324.002 104.53 325.512 105.965C326.662 107.818 327.14 110.027 326.861 112.204C327.106 114.364 326.633 116.547 325.512 118.397C324.03 119.882 321.95 120.566 319.901 120.243Z" fill="url(#paint7_linear_170_2)"/>
<path d="M342.886 123.558C342.145 123.59 341.416 123.381 340.808 122.961C340.271 122.487 339.978 121.795 340.004 121.076V100.848H344.23V118.906C344.175 119.262 344.288 119.623 344.538 119.884C344.841 120.093 345.209 120.186 345.574 120.146H357.85V123.558H342.886Z" fill="url(#paint8_linear_170_2)"/>
<path fill-rule="evenodd" clip-rule="evenodd" d="M385.514 112.204C385.514 109.283 385.307 105.521 383.028 103.184C380.656 100.847 377.097 100.847 374.459 100.848C374.432 100.848 374.408 100.848 374.384 100.848C371.736 100.848 368.066 100.894 365.714 103.184C363.364 105.474 363.203 109.19 363.203 112.204C363.203 114.705 363.319 118.888 365.714 121.224C368.109 123.561 371.873 123.561 374.384 123.561C376.89 123.561 380.793 123.444 383.028 121.224C385.262 119.004 385.514 115.125 385.514 112.204ZM374.338 120.244C372.294 120.574 370.219 119.889 368.749 118.398C367.65 116.541 367.183 114.362 367.424 112.205C367.191 110.033 367.655 107.842 368.749 105.966C370.243 104.517 372.304 103.853 374.338 104.167C376.378 103.871 378.436 104.531 379.949 105.966C381.099 107.819 381.575 110.028 381.294 112.205C381.544 114.366 381.065 116.549 379.949 118.398C378.468 119.883 376.387 120.567 374.338 120.244Z" fill="url(#paint9_linear_170_2)"/>
<path d="M414.064 120.636C414.117 121.465 413.821 122.278 413.246 122.868C412.614 123.329 411.851 123.571 411.075 123.557H401.621C399.747 123.618 397.914 122.985 396.462 121.776C393.756 119.401 393.545 115.554 393.545 112.277C393.545 108.572 393.872 104.416 397.14 102.255C398.759 101.27 400.622 100.784 402.51 100.854H413.549V104.25H403.698C401.748 104.028 399.841 104.948 398.775 106.625C398.03 108.341 397.71 110.216 397.84 112.087C397.727 113.983 398.03 115.881 398.727 117.644C399.526 119.264 401.229 120.211 403.001 120.019H408.415C408.824 120.072 409.23 119.942 409.535 119.662C409.807 119.343 409.935 118.92 409.887 118.499V112.324H414.064V120.636Z" fill="url(#paint10_linear_170_2)"/>
<path d="M422.994 123.561V100.848H427.457V123.561H422.994Z" fill="url(#paint11_linear_170_2)"/>
<path d="M441.548 123.527C440.639 123.659 439.718 123.4 439.001 122.814C438.381 122.079 438.085 121.116 438.184 120.151V104.126C438.153 103.265 438.427 102.421 438.956 101.748C439.677 101.08 440.646 100.76 441.618 100.868H455.873V104.269H443.864C443.456 104.229 443.051 104.339 442.72 104.578C442.445 104.88 442.318 105.288 442.368 105.695V110.236H455.572V113.637H442.368V118.939C442.359 119.264 442.477 119.58 442.693 119.818C442.953 120.08 443.465 120.104 444.119 120.104H456.012V123.504L441.548 123.527Z" fill="url(#paint12_linear_170_2)"/>
<path d="M462.58 120.05H474.675C476.647 120.05 476.738 118.36 476.738 117.669C476.738 116.978 476.51 115.716 474.605 115.097L466 112.287C465 111.983 464.102 111.398 463.405 110.596C462.578 109.348 462.181 107.846 462.282 106.333C462.145 104.781 462.664 103.243 463.706 102.119C464.694 101.23 465.978 100.777 467.284 100.856H479.86V104.262H468.684C468.066 104.187 467.443 104.376 466.964 104.785C466.565 105.266 466.366 105.891 466.411 106.524C466.411 107.524 466.685 108.5 468.431 109.072L476.418 111.692C477.558 111.992 478.624 112.544 479.54 113.311C480.557 114.517 481.077 116.092 480.986 117.693C481.082 119.186 480.695 120.67 479.882 121.908C478.937 123.105 477.462 123.716 475.981 123.527H462.58V120.05Z" fill="url(#paint13_linear_170_2)"/>
<path d="M175.125 123.56V104.258H166.875V100.846H187.4V104.258H179.106V123.56H175.125Z" fill="#333333"/>
<path d="M199.708 123.526C198.798 123.657 197.876 123.399 197.161 122.813C196.539 122.078 196.243 121.114 196.343 120.15V104.125C196.311 103.263 196.585 102.42 197.114 101.747C197.837 101.079 198.807 100.759 199.778 100.867H214.032V104.267H202.021C201.615 104.228 201.209 104.337 200.876 104.576C200.605 104.879 200.476 105.287 200.526 105.694V110.235H213.728V113.635H200.526V118.937C200.517 119.263 200.634 119.579 200.853 119.817C201.11 120.079 201.624 120.102 202.278 120.102H214.172V123.502L199.708 123.526Z" fill="#333333"/>
<path d="M230.277 123.535C227.793 123.732 225.354 122.757 223.599 120.868C221.933 118.463 221.142 115.492 221.373 112.51C221.085 109.416 221.809 106.311 223.421 103.723C225.235 101.732 227.772 100.688 230.366 100.866H238.87V104.271H232.191C229.832 104.271 227.739 104.437 226.626 106.366C225.672 108.227 225.261 110.35 225.446 112.462C225.277 114.361 225.625 116.271 226.448 117.963C227.539 119.748 229.475 120.13 231.991 120.13H239.159V123.535H230.277Z" fill="#333333"/>
<path d="M267.715 123.56H263.788V113.563H252.924V123.56H248.975V100.846H252.924V110.151H263.788V100.846H267.715V123.56Z" fill="#333333"/>
<path d="M298.942 120.391C299.009 121.271 298.689 122.134 298.073 122.744C297.458 123.354 296.609 123.645 295.762 123.538C294.35 123.647 293.001 122.914 292.289 121.65L283.271 106.899C282.98 106.409 282.842 106.363 282.775 106.363C282.501 106.431 282.316 106.701 282.347 106.992V123.305H278.424V103.869C278.424 101.981 279.687 100.863 281.717 100.863C283.081 100.73 284.398 101.407 285.12 102.611L294.139 117.479C294.295 117.688 294.365 118.014 294.634 118.014C294.906 118.014 294.973 117.618 294.973 117.479V101.166H298.896L298.942 120.391Z" fill="#333333"/>
<path fill-rule="evenodd" clip-rule="evenodd" d="M331.075 112.203C331.075 109.282 330.873 105.52 328.588 103.183C326.217 100.846 322.657 100.846 320.019 100.846C319.995 100.846 319.968 100.846 319.944 100.846C317.296 100.846 313.624 100.893 311.274 103.183C308.925 105.473 308.766 109.189 308.766 112.203C308.766 114.703 308.879 118.886 311.274 121.223C313.67 123.56 317.436 123.56 319.944 123.56C322.45 123.56 326.354 123.443 328.588 121.223C330.827 119.003 331.075 115.124 331.075 112.203ZM319.899 120.241C317.859 120.576 315.793 119.889 314.331 118.395H314.401C313.254 116.556 312.756 114.372 312.987 112.203C312.744 110.027 313.218 107.831 314.331 105.964C315.813 104.512 317.871 103.848 319.899 104.164C321.938 103.868 323.999 104.529 325.51 105.964C326.659 107.817 327.138 110.026 326.859 112.203C327.104 114.363 326.63 116.546 325.51 118.395C324.028 119.881 321.948 120.565 319.899 120.241Z" fill="#333333"/>
<path d="M342.881 123.556C342.143 123.589 341.414 123.38 340.805 122.96C340.269 122.486 339.976 121.794 340 121.075V100.846H344.228V118.904C344.172 119.261 344.285 119.622 344.535 119.883C344.839 120.091 345.206 120.184 345.572 120.145H357.847V123.556H342.881Z" fill="#333333"/>
<path fill-rule="evenodd" clip-rule="evenodd" d="M385.512 112.203C385.512 109.282 385.305 105.52 383.025 103.183C380.654 100.846 377.094 100.846 374.456 100.846C374.43 100.846 374.406 100.846 374.382 100.846C371.734 100.846 368.064 100.893 365.712 103.183C363.362 105.473 363.201 109.189 363.201 112.203C363.201 114.703 363.316 118.886 365.712 121.223C368.107 123.56 371.871 123.56 374.382 123.56C376.888 123.56 380.791 123.443 383.025 121.223C385.259 119.003 385.512 115.124 385.512 112.203ZM374.336 120.243C372.292 120.573 370.216 119.888 368.747 118.397C367.648 116.54 367.181 114.361 367.421 112.204C367.188 110.032 367.652 107.841 368.747 105.965C370.24 104.516 372.301 103.852 374.336 104.165C376.375 103.869 378.434 104.53 379.947 105.965C381.096 107.818 381.572 110.027 381.291 112.204C381.541 114.364 381.063 116.547 379.947 118.397C378.465 119.882 376.385 120.566 374.336 120.243Z" fill="#333333"/>
<path d="M414.062 120.635C414.115 121.463 413.819 122.276 413.244 122.867C412.611 123.328 411.849 123.57 411.072 123.556H401.618C399.745 123.617 397.912 122.984 396.459 121.775C393.754 119.4 393.542 115.553 393.542 112.276C393.542 108.571 393.869 104.415 397.138 102.254C398.756 101.269 400.62 100.782 402.506 100.853H413.547V104.249H403.696C401.746 104.027 399.838 104.947 398.773 106.624C398.028 108.339 397.705 110.215 397.838 112.086C397.724 113.982 398.027 115.88 398.725 117.642C399.523 119.263 401.226 120.209 402.999 120.017H408.412C408.821 120.071 409.228 119.941 409.533 119.661C409.805 119.341 409.932 118.918 409.882 118.498V112.323H414.062V120.635Z" fill="#333333"/>
<path d="M422.991 123.56V100.846H427.453V123.56H422.991Z" fill="#333333"/>
<path d="M441.546 123.526C440.634 123.657 439.716 123.399 438.999 122.813C438.379 122.078 438.083 121.114 438.181 120.15V104.125C438.15 103.263 438.424 102.42 438.953 101.747C439.675 101.079 440.644 100.759 441.616 100.867H455.87V104.267H443.862C443.453 104.228 443.049 104.337 442.717 104.576C442.443 104.879 442.316 105.287 442.366 105.694V110.235H455.569V113.635H442.366V118.937C442.356 119.263 442.474 119.579 442.691 119.817C442.95 120.079 443.463 120.102 444.117 120.102H456.01V123.502L441.546 123.526Z" fill="#333333"/>
<path d="M462.578 120.049H474.672C476.645 120.049 476.736 118.358 476.736 117.668C476.736 116.977 476.507 115.715 474.6 115.096L465.998 112.286C464.997 111.982 464.1 111.397 463.403 110.595C462.575 109.347 462.178 107.844 462.279 106.332C462.142 104.779 462.662 103.242 463.703 102.117C464.692 101.229 465.976 100.776 467.282 100.855H479.858V104.26H468.682C468.064 104.186 467.441 104.375 466.962 104.784C466.563 105.264 466.363 105.89 466.409 106.523C466.409 107.523 466.683 108.499 468.429 109.071L476.416 111.69C477.556 111.991 478.621 112.543 479.538 113.31C480.555 114.516 481.075 116.09 480.983 117.692C481.079 119.185 480.692 120.669 479.879 121.907C478.934 123.104 477.46 123.715 475.978 123.526H462.578V120.049Z" fill="#333333"/>
</g>
<defs>
<linearGradient id="paint0_linear_170_2" x1="240.5" y1="0" x2="240.5" y2="149" gradientUnits="userSpaceOnUse">
<stop stop-color="#318BE0"/>
<stop offset="1" stop-color="#1F69BA"/>
</linearGradient>
<linearGradient id="paint1_linear_170_2" x1="240.5" y1="2.27592e-05" x2="240.5" y2="149" gradientUnits="userSpaceOnUse">
<stop stop-color="#318BE0"/>
<stop offset="1" stop-color="#1F69BA"/>
</linearGradient>
<linearGradient id="paint2_linear_170_2" x1="240.5" y1="2.89792e-05" x2="240.5" y2="149" gradientUnits="userSpaceOnUse">
<stop stop-color="#318BE0"/>
<stop offset="1" stop-color="#1F69BA"/>
</linearGradient>
<linearGradient id="paint3_linear_170_2" x1="240.5" y1="-8.76367e-06" x2="240.5" y2="149" gradientUnits="userSpaceOnUse">
<stop stop-color="#318BE0"/>
<stop offset="1" stop-color="#1F69BA"/>
</linearGradient>
<linearGradient id="paint4_linear_170_2" x1="240.5" y1="-1.70767e-05" x2="240.5" y2="149" gradientUnits="userSpaceOnUse">
<stop stop-color="#318BE0"/>
<stop offset="1" stop-color="#1F69BA"/>
</linearGradient>
<linearGradient id="paint5_linear_170_2" x1="240.5" y1="2.89792e-05" x2="240.5" y2="149" gradientUnits="userSpaceOnUse">
<stop stop-color="#318BE0"/>
<stop offset="1" stop-color="#1F69BA"/>
</linearGradient>
<linearGradient id="paint6_linear_170_2" x1="240.5" y1="9.96769e-06" x2="240.5" y2="149" gradientUnits="userSpaceOnUse">
<stop stop-color="#318BE0"/>
<stop offset="1" stop-color="#1F69BA"/>
</linearGradient>
<linearGradient id="paint7_linear_170_2" x1="240.5" y1="3.21704e-05" x2="240.5" y2="149" gradientUnits="userSpaceOnUse">
<stop stop-color="#318BE0"/>
<stop offset="1" stop-color="#1F69BA"/>
</linearGradient>
<linearGradient id="paint8_linear_170_2" x1="240.5" y1="2.32893e-05" x2="240.5" y2="149" gradientUnits="userSpaceOnUse">
<stop stop-color="#318BE0"/>
<stop offset="1" stop-color="#1F69BA"/>
</linearGradient>
<linearGradient id="paint9_linear_170_2" x1="240.5" y1="3.21704e-05" x2="240.5" y2="149" gradientUnits="userSpaceOnUse">
<stop stop-color="#318BE0"/>
<stop offset="1" stop-color="#1F69BA"/>
</linearGradient>
<linearGradient id="paint10_linear_170_2" x1="240.5" y1="5.02984e-05" x2="240.5" y2="149" gradientUnits="userSpaceOnUse">
<stop stop-color="#318BE0"/>
<stop offset="1" stop-color="#1F69BA"/>
</linearGradient>
<linearGradient id="paint11_linear_170_2" x1="240.5" y1="2.89792e-05" x2="240.5" y2="149" gradientUnits="userSpaceOnUse">
<stop stop-color="#318BE0"/>
<stop offset="1" stop-color="#1F69BA"/>
</linearGradient>
<linearGradient id="paint12_linear_170_2" x1="240.5" y1="-8.76367e-06" x2="240.5" y2="149" gradientUnits="userSpaceOnUse">
<stop stop-color="#318BE0"/>
<stop offset="1" stop-color="#1F69BA"/>
</linearGradient>
<linearGradient id="paint13_linear_170_2" x1="240.5" y1="-4.45216e-05" x2="240.5" y2="149" gradientUnits="userSpaceOnUse">
<stop stop-color="#318BE0"/>
<stop offset="1" stop-color="#1F69BA"/>
</linearGradient>
<clipPath id="clip0_170_2">
<rect width="481" height="149" fill="white"/>
</clipPath>
</defs>
</svg>
