<?xml version="1.0" encoding="utf-8"?>
<!-- Generator: Adobe Illustrator 24.1.0, SVG Export Plug-In . SVG Version: 6.00 Build 0)  -->
<svg version="1.1" id="Layer_1" xmlns="http://www.w3.org/2000/svg" xmlns:xlink="http://www.w3.org/1999/xlink" x="0px" y="0px"
	 viewBox="0 0 605 200" style="enable-background:new 0 0 605 200;" xml:space="preserve">
<style type="text/css">
	.st0{fill:#7F72B1;}
	.st1{fill:#FFE900;}
</style>
<g>
	<path d="M426.23,125.4c-5.81,0.54-14.05,1.35-20.8,1.35c-24.32,0-36.76-2.98-43.65-10.95l-4.74-5.13
		c9.73-5.94,18.24-15,18.24-30.67c0-21.9-13.93-28.92-34.87-28.92h-27.71c-4.2,0-6.75,2.57-7.3,6.21l-11.07,84.59
		c-0.54,3.65,1.35,7.02,5.55,7.02h13.78c4.32,0,7.02-3.51,7.58-7.16l3.1-24.05h6.21l10.68,13.51c8.38,10.54,20.94,18.79,57.16,18.79
		c11.36,0,19.45-0.95,24.73-1.49c4.72-0.54,7.02-3.79,7.43-7.16l1.35-10C432.32,127.84,430.83,125,426.23,125.4z M336.23,97.03
		h-9.19l2.96-22.71h7.97c7.16,0,12.57,3.11,12.57,9.87C350.56,92.97,344.08,97.03,336.23,97.03z"/>
	<path d="M262.06,50c-32.02,0-45.67,22.29-45.67,62.56c0,25.95,10.68,37.42,32.57,37.42c28.91,0,37.97-17.03,40.27-35.81l1.35-10.27
		c0.41-3.64-1.62-6.35-5.81-6.35H262.2c-5.14,0-7.02,3.11-7.57,7.3l-0.41,2.98c-0.54,4.18,1.89,6.35,5.81,6.35h4.6l-0.14,0.95
		c-1.08,7.7-4.59,10.94-12.43,10.94c-5.54,0-8.38-4.99-8.38-16.21c0-17.7,3.25-35.95,15.27-35.95c5.13,0,8.92,4.74,8.92,12.17
		c0,5.13,2.03,5.67,6.9,4.86l11.61-1.89c5.81-0.95,7.02-2.71,7.02-9.87C293.41,62.84,286.52,50,262.06,50z"/>
	<path d="M437.58,51.08h-9.87c-4.33,0-7.02,2.71-7.43,6.35l-4.45,33.65c-0.95,7.3-3.25,11.08-7.84,11.08
		c-4.59,0-6.08-3.79-5.14-11.08l4.33-32.97c0.54-3.64-1.22-7.02-5.54-7.02h-9.87c-4.32,0-6.89,3.37-7.43,7.02l-4.2,31.62
		c-2.71,20.41,4.6,31.62,25.27,31.62c20.8,0,30.94-11.22,33.65-31.62l4.18-31.75C443.81,54.33,441.91,51.08,437.58,51.08z"/>
	<path d="M592.94,134.01c-5.31,0-9.1,3.74-9.1,9.14c0,4.16,2.63,6.84,7,6.84c5.35,0,9.17-3.65,9.17-9.05
		C599.99,136.76,597.31,134.01,592.94,134.01z M591.12,147.82c-3.03,0-4.85-1.93-4.85-4.92c0-3.97,2.61-6.69,6.37-6.69
		c3.05,0,4.9,1.94,4.9,5.01C597.55,145.19,594.89,147.82,591.12,147.82z"/>
	<path d="M592.68,137.31h-1.87c-0.97,0-1.34,0.58-1.44,1.29l-0.9,6.79c-0.09,0.63-0.02,0.87,0.69,0.87h1c0.65,0,0.81-0.25,0.9-0.9
		l0.27-1.96h0.32l0.58,2.01c0.18,0.6,0.34,0.84,1.13,0.84h1.03c0.58,0,0.58-0.34,0.42-0.9l-0.74-2.4c1.05-0.53,1.8-1.45,1.8-3
		C595.83,137.96,594.57,137.31,592.68,137.31z M592.18,141.4h-0.6l0.23-1.82h0.49c0.65,0,1.02,0.26,1.02,0.76
		C593.33,141.05,592.8,141.4,592.18,141.4z"/>
	<path d="M599.99,80.01c0-21.9-13.91-28.92-34.87-28.92h-29.05c-3.52,0-6.75,2.57-7.3,6.21l-11.08,84.46
		c-0.54,4.32,1.75,7.16,5.67,7.16h13.52c4.05,0,7.16-2.69,7.7-7.02l2.84-21.62h8.38C580.67,120.27,599.99,107.02,599.99,80.01z
		 M560.95,97.03h-10.54l2.98-22.71h9.31c7.31,0,12.57,3.11,12.57,9.87C575.27,92.97,568.79,97.03,560.95,97.03z"/>
	<path d="M482.3,72.56c6.35,0,10.14,3.52,10.14,10.14c0,2.44,2.03,2.71,5.54,2.17l13.37-2.17c4.87-0.81,6.62-3.92,6.48-7.43
		C517.29,59.73,506.88,50,484.59,50c-26.49,0-38.79,18.24-38.79,34.05c0,30.81,39.86,23.65,39.86,35.14c0,3.64-1.62,8.38-10.54,8.38
		c-7.16,0-9.6-4.6-9.6-8.65c0-3.65-2.57-3.79-6.62-3.11l-12.43,2.03c-5.41,0.95-6.21,4.45-6.09,7.43c0.81,12.98,9.33,25,31.09,24.73
		c31.21-0.27,41.35-15,41.35-31.62c0-30.54-39.74-25.68-39.74-37.29C473.11,76.35,475.95,72.56,482.3,72.56z"/>
</g>
<g>
	<path d="M30.32,102.8c0,11.6,7.54,25.35,18.64,33.08c11.53,8.04,30.05,9.92,44.87,9.96c6.74,5.47,19.1,9.16,33.22,9.16
		c14.25,0,26.7-3.74,33.4-9.31c2.52,0.26,5.07,0.17,7.63-0.33c17.96-3.56,28.67-25.87,23.93-49.81c-1.9-9.56-5.97-17.93-11.31-24.3
		L161.41,5l-14.62,50.21c-15.4-2.81-29.02-2.76-29.02-2.76c-17.06,0.36-30.86,3.19-41.65,6.76H5l26.63,35.63
		C30.77,97.42,30.32,100.1,30.32,102.8z M156.54,89.47l1.71-0.34c1.03,0.21,1.81,1.12,1.81,2.22c0,1.25-1.01,2.26-2.26,2.26
		c-1.25,0-2.26-1.02-2.26-2.26C155.54,90.56,155.94,89.87,156.54,89.47z M103.44,88.93l2.29,0.46c0.81,0.54,1.34,1.46,1.34,2.51
		c0,1.67-1.35,3.02-3.02,3.02s-3.02-1.35-3.02-3.02C101.01,90.43,102.06,89.21,103.44,88.93z"/>
	<g>
		<path class="st0" d="M187.74,94.85c-2.15-11.27-7.61-21.31-14.99-27.53l-0.18-0.15l-0.1-0.1c-0.41-0.34-1.3-0.88-2.37-1.5
			c-2.85,6.34-8.84,9.06-8.84,9.06c-0.32-5.1-5.35-11.56-9.12-15.72c-2.48-0.57-4.96-1.05-7.38-1.45
			c0.81,14.41-8.04,24.99-8.04,24.99c-6.39-11.4-31.01-20.98-40.81-24.41c-3.89,0.81-7.49,1.75-10.8,2.79
			c5.2,8.78,3.56,18.24,3.56,18.24c-4.63-2.76-12.66-3.06-20.2-2.55c-6.21,0.43-12.08,1.41-15.51,2.05
			c-7.87,7.1-12.19,15.11-12.19,22.69c0,10.32,6.77,22.71,16.11,29.48c2.7,1.96,6.05,3.61,9.98,4.96
			c8.08,2.77,18.64,4.21,31.22,4.21c14.07,0,27.32-5.68,36.34-15.6l3.6-3.96l2.94,4.51c6.14,9.42,14.82,15.05,23.24,15.05
			c1.31,0,2.62-0.14,3.9-0.4C183.02,136.42,191.85,116.39,187.74,94.85z M98.6,124.3c-1.59,0.32-3.36-0.62-3.97-2.08
			c-0.61-1.46,0.19-2.91,1.77-3.23c1.59-0.32,3.36,0.62,3.97,2.08C100.98,122.54,100.18,123.99,98.6,124.3z M96.78,91.89
			c0-1.49,0.46-2.88,1.23-4.04l13.13,2.61c0.1,0.46,0.14,0.94,0.14,1.43c0,4-3.25,7.25-7.25,7.25
			C100.03,99.15,96.78,95.89,96.78,91.89z M110.68,135.17c-1.59,0.32-3.36-0.62-3.97-2.08c-0.61-1.46,0.18-2.91,1.78-3.23
			c1.59-0.32,3.36,0.62,3.96,2.08C113.05,133.4,112.26,134.85,110.68,135.17z M113.26,121.35c-1.59,0.32-3.36-0.62-3.97-2.08
			s0.18-2.91,1.77-3.21c1.59-0.32,3.36,0.62,3.97,2.08C115.64,119.6,114.84,121.05,113.26,121.35z M144.62,114.36
			c-1.78,2.22-5.13,4.94-6.48,4.94c-0.01,0-0.03,0-0.04,0s-0.03,0-0.04,0c-0.88,0-1.31-0.65-2.17-1.92
			c-0.52-0.77-1.23-1.83-2.18-3.01c-0.91-1.13-1.9-2.19-2.69-3.05c-1.53-1.65-2-2.15-1.82-2.98c0.01-0.08,0.04-0.15,0.07-0.22
			c0.3-0.98,1.67-1.08,3.34-1.2c1.46-0.11,3.41-0.17,5.47-0.17s4.01,0.06,5.47,0.17c1.59,0.11,2.9,0.21,3.28,1.06
			c0.08,0.14,0.14,0.28,0.18,0.44C147.32,109.53,146.59,111.93,144.62,114.36z M152.55,119.49c-1.27-0.25-1.9-1.41-1.42-2.58
			c0.48-1.17,1.9-1.92,3.17-1.65c1.27,0.25,1.9,1.41,1.41,2.58C155.23,118.99,153.81,119.74,152.55,119.49z M157.79,128.87
			c-0.48,1.17-1.9,1.92-3.17,1.67c-1.27-0.25-1.9-1.41-1.42-2.58s1.9-1.92,3.17-1.67C157.63,126.55,158.27,127.69,157.79,128.87z
			 M157.8,96.79c-3.01,0-5.43-2.44-5.43-5.43c0-0.37,0.04-0.73,0.11-1.08l9.85-1.96c0.58,0.87,0.92,1.9,0.92,3.03
			C163.25,94.35,160.81,96.79,157.8,96.79z M167.45,120.18c-0.48,1.17-1.9,1.92-3.17,1.67c-1.27-0.25-1.9-1.41-1.42-2.58
			c0.48-1.17,1.9-1.92,3.17-1.67C167.3,117.85,167.94,119.01,167.45,120.18z"/>
		<path class="st0" d="M135.35,128.87c-7.21,7.63-17.28,13.32-28.81,15.72c5.79,3.14,14.22,5.13,23.61,5.13
			c9.68,0,18.33-2.11,24.13-5.43C147.07,141.79,140.41,136.34,135.35,128.87z"/>
	</g>
	<path class="st1" d="M111.15,90.46c0.1,0.46,0.14,0.94,0.14,1.43c0,4-3.25,7.25-7.25,7.25c-4,0-7.25-3.25-7.25-7.25
		c0-1.49,0.46-2.88,1.23-4.04l-17.1-3.41c-1.12,2.55-1.72,5.36-1.72,8.32c0,11.53,9.34,20.88,20.87,20.88s20.87-9.35,20.87-20.88
		c0-0.12-0.01-0.23-0.01-0.36L111.15,90.46z M175.15,85.76l-12.83,2.55c0.58,0.87,0.92,1.9,0.92,3.03c0,3.01-2.44,5.43-5.43,5.43
		c-3.01,0-5.43-2.44-5.43-5.43c0-0.37,0.04-0.73,0.11-1.08l-7.34,1.46c0,0.1,0,0.18,0,0.28c0,8.65,7.01,15.65,15.65,15.65
		s15.65-7.01,15.65-15.65C176.44,89.78,175.98,87.67,175.15,85.76z"/>
</g>
</svg>
