<?xml version="1.0" encoding="utf-8"?>
<svg version="1.1" id="Layer_1" xmlns="http://www.w3.org/2000/svg" xmlns:xlink="http://www.w3.org/1999/xlink" x="0px" y="0px"
	 viewBox="0 0 400 250" style="enable-background:new 0 0 400 250;" xml:space="preserve">
<style type="text/css">
	.st0{fill:#FFFFFF;}
	.st1{fill-rule:evenodd;clip-rule:evenodd;fill:#FFFFFF;}
	.st2{fill-rule:evenodd;clip-rule:evenodd;fill:#D72027;}
	.st3{fill-rule:evenodd;clip-rule:evenodd;fill:#2E4B9F;}
	.st4{fill-rule:evenodd;clip-rule:evenodd;}
</style>
<g>
	<polygon class="st0" points="284.2,101.3 288.8,101.3 295.8,101.3 300.5,101.3 300.5,108.2 302.8,119.9 305.1,138.5 307.4,150.2
		309.8,164.1 309.8,166.5 310.7,167.5 310.8,168.5 312.1,175.8 312.3,177.8 312.1,178.1 311,178.6 309.5,179.1 308.9,179.2
		308.5,179.2 305.1,180.4 300.5,180.4 300.5,180.4 300,177.3 298.1,168.8 295.8,161.8 293.5,152.5 291.1,143.2 291.1,138.5
		288.8,138.5 288.8,140.8 288.8,145.5 288.3,146.2 288.2,146.8 288.8,147.8 287.4,148.9 287.7,151.9 287.5,154 287.9,155.9
		286.5,166.5 284.2,178.1 281.8,178.1 271.6,178.3 271.6,176.2 272.5,166.5 273.7,152.1 277.2,129.2 279.5,112.9 281.8,101.3 	"/>
	<g>
		<path class="st1" d="M131.2,122.3c3.4,0.2,6.8,0.5,9.7,0.3c1.5,0.5,5.2,1.2,6.3-0.4c0.8-1.2,0.6-3.4,0.6-5c0-1.1,0.2-2.2-0.3-3
			c0.6-1.3,0.2-2.6,0.4-3.9c0.2-1.7,1.4-3.2,1.4-5c0.8-0.6,0.8-2.1,1.6-3c0.3-0.4,1-0.8,1.4-1.2c0.4-0.5,0.7-1.1,1.1-1.4
			c2-1.3,4.6,0,7.6,0.1c1.5,1.4,3.6,2.2,4.9,3.8c0.5,0.6,0.5,1.5,1.4,1.9c-1.1,1.8-3.1,2.7-4.2,4.5c-1.5-0.1-2.4-1-3.8-0.8
			c-2.7,0.4-4.2,4.8-4.4,6.9c-0.2,2.3,0,5.3,0.3,7.3c4.2,0.4,6.9,0.9,11.3,0.8c-0.7,4.2-1.5,7.8-1.3,12.4c-3.7,0.3-6.5-0.6-10.6-0.3
			c-1.6,1.7-0.9,5.9-0.6,9.1c0.1,0.8-0.2,1.7-0.1,2.4c0.1,2.5,0.4,5.2,0.8,7.6c0.1,0.6,0.2,1.4,0.3,2c0.5,6.3,0,15,0.6,21.8
			c-0.8,0.5-5.6,1.1-7.6,0.1c0.6-2.4-0.2-4.4-0.3-6.7c-0.1-2.5,0.2-5,0.1-7.3c-0.2-5.7-0.4-10.4-1.1-15.2c0.5-4.2,0.7-10.2,0-15.2
			c-0.4,0-0.4-0.5-0.7-0.7c-1.8,0.3-3.9,0.5-6.8,0.7c-3.7,0.2-6.7,1.3-8.2-0.7c-1-1.8-0.2-4.5-0.7-6.3
			C131.6,126.8,130.2,123.7,131.2,122.3z"/>
		<path class="st1" d="M19.6,69.8c0.1,1.5-0.4,2.8-0.6,4.2c-0.3,3.3,0.4,6.6,0.1,10c-0.1,0.9,0,1.6,0,2.4c0,0.8,0.4,1.5,0.4,2.3
			c0.3,3.5,0.3,7.3,0.4,11c0.1,1.7,0.2,3.1,0,4.7c-0.3,3.3,0.5,6.7,0.6,10c0,2.6-0.5,5,1.1,6.9c1.9-0.9,5-0.5,7.5-1
			c3.1-0.7,5.9-1.4,8.6-2.3c-0.1-1.5,0.7-2.5,1-3.7c0.4-1.6-0.2-26.2-0.3-29c0-1.9,0.5-2.9-0.1-4.7c0.6-3,0.4-9-0.8-11.6
			c4.5,0,9.7-0.3,14,0.1c-0.8,10.5-0.1,20.5,0,31.6c0,0.4,0.1,0.8,0.1,1.3c0.3,3.8,1.2,33.1,1.1,34.1c-0.1,1.9,0.3,3.8,0.3,5.8
			c-0.1,4.5-0.4,8.6-0.1,13.4c0.1,1.2,0,2.3,0,3.5c-0.1,7,1.9,13.8,1.6,20c-3.7-0.2-6.9-0.1-10,0.4c-0.9,0.2-1.8,0.7-2.8,0.4
			c-0.7-0.9-1-15.3-1.1-16.1c-0.2-1.7-0.3-3.8-0.3-5.5c0-0.5-0.3-2.3-0.4-3c-0.1-0.5,0.1-1.4,0-2.1c-0.3-3.9-0.9-8.4-1.4-12.5
			c-0.1-1.1-0.1-11-0.4-14.7c-0.7-1.2-2.9,0.2-4.5,0.7c-3.6,1.3-8.1,2.8-11.3,3.7c-1.1,3.5-0.9,6.8-0.8,10.4c0.1,3-0.3,6,0.1,8.5
			c1.4,7.2,0.5,19,0.8,29c-1.5,0-3.1,0.4-4.8,0.7c-2.8,0.6-5.7,1.1-8.6,1.6C7.9,170.9,9.1,160,8,151c0.8-3,0.2-6.7,0.1-10
			c0-0.5,0.3-1,0.3-1.5c0-0.6-0.3-1.2-0.4-1.8c-0.4-2.9,0-5.9-0.1-8.6c-0.1-2.6-0.3-6.2-0.4-9.4c0-0.4-0.4-0.8-0.4-1.3
			c-0.1-1.1,0.2-2.5,0.1-3.7c-0.1-2.7-0.5-5.5-0.6-8c-0.1-2.2,0.4-4.5,0.3-6.8c0-0.5-0.4-1-0.4-1.6c-0.1-1.3,0.1-2.7,0-4.1
			c-0.2-4.5-1.2-8.9-1.4-13.4c0-1,0.3-1.9,0.3-2.8c0-2-0.6-5.3-0.8-7.5c0-0.1,0.1-0.1,0.1-0.3c3.5-0.3,7.1-1.1,10.4-0.3
			C16.5,69.4,18,69.4,19.6,69.8z"/>
		<path class="st1" d="M62.7,165.3c0.1-0.9,0.4-1.5,0.3-2.4c-0.1-0.7,0.3-1.8,0.4-2.7c0.4-3.4,0.8-8,1.6-11
			c0.9-13,3.5-24.8,5.2-37.4c0.4-2.6,1.4-5.2,1.6-7.9c2.6-1.7,6.4-0.7,10.2-1c2.1-0.2,4-1.2,5.8-0.8c1.4,3.2,0.8,8.1,2.1,11.7
			c0.3,3.2,1.1,6.3,1.7,9.3c0.8,4.5,7.7,43.6,7.8,45.4c1,2.1,0.7,4.9,1.3,7c0.2,0.9,1.1,1.6,0.6,2.5c-2.8,1.5-6.1,3-9.4,2.7
			c-0.7-3-1.1-5.8-1.8-9c-0.8-3.6-4.4-16.3-4.9-20.6c-1.2-2.3-1-5.3-2-7.8c0.2-1.6-0.1-2.5-0.7-3.9c-1-0.6-2.7-0.6-3.9,0
			c-0.4,4.2-1.3,10.4-1.7,14.4c-0.3,2.8,0.1,5.7-0.3,8.5c-0.2,1.3-0.6,2.6-0.7,3.9c-0.5,4.4-0.8,9-1.4,12.7
			c-1.5,0.3-9.7,0.3-12.3-0.3C61.7,177.8,62.5,167.1,62.7,165.3z M78.5,120.4c-0.8,1.1-2.3,7.9-1.8,13c1.6-0.4,3,0.4,4.4-0.3
			c0.1-0.6-0.2-4.4-0.3-6.1c-0.1-1.1-0.4-3.4-0.4-3.7c-0.2-1.4,0.3-3.1-1.6-3.1C78.8,120.3,78.7,120.4,78.5,120.4z"/>
		<path class="st1" d="M359.3,101.8c3.1-0.8,7.2-0.7,10.9-0.8c-1.1,4.8-1,9.9-1.4,14.6c-0.2,2.6-0.2,4.9-0.3,7.6
			c0,3.8,0.4,7.5,0.8,11.8c0.2,0.3,0.6,0.4,0.9,0.5c1-0.6,1.2-2,1.8-3c2.1-1.8,3.2-4.6,5.2-6.5c0-0.7,9.6-15.2,12-18.5
			c0.5,0.5,1,1.1,1.3,1.9c1.9,0.5,2.1,2.6,3.8,3.3c0,1,0.8,1.1,1.1,1.6c-0.8,1.8-20.5,26.4-22.8,29.4c-0.9,1.8,1.1,3.3,2.2,4.5
			c1,1.2,1.7,2.6,2.8,3c0.9,1.7,2.4,2.8,3.7,4.2c1.3,1.4,2.7,2.9,4.2,4.2c0.7,1.5,2.2,2.1,2.9,3.6c1.3,0.4,1.7,1.8,2.8,2.4
			c0.3,1.2,0.9,1.9,1.8,2.5c-0.1,1.3-1.3,1.7-2.2,2.8c-0.2,0.2-0.1,0.7-0.3,0.9c-0.3,0.5-0.9,0.6-1.3,1.1c-0.5,0.6-0.4,1.4-1.6,1.3
			c-0.6-1.3-1.6-2.3-2-3.7c-1.9-2-2.9-4.7-4.7-6.9c-1.2-1.4-2.7-2.6-3.9-4c-0.3-0.3-0.5-0.9-0.8-1.2c-0.3-0.4-0.7-0.6-1-0.9
			c-2-2.3-4-5-7.1-6.2c-0.4-0.2-0.1-1.1-0.6-1.2c-2.1,0-0.6,16.8-0.4,22.4c0.1,1.8,0.1,3.7,0.6,5.4c-0.9,1.1-2.8,0.8-4.2,0.7
			c-1.8-0.1-4.1,0.7-6.2,0.1c0-0.1,0-0.2,0-0.3c0.7-3.6-0.1-8.5,0.4-12.7c0.1-0.7,0.4-1.4,0.5-2.1c0.3-2.7-0.1-5.2-0.1-7.7
			c1-3.3,0-6.9,0.9-9.9c-0.1-0.4-0.1-0.8-0.4-1.1c0.6-7,0.6-13.2,0.9-18.7c0-0.7-0.1-1.5-0.1-2.1c0-1,0.3-1.7,0.1-2.6
			c-0.1-0.7-0.5-1.5,0.1-2.5c-0.2-3.1-0.2-5.6-0.3-8.3c-0.1-2,0.4-4.4,0.3-6.6C359.5,103.3,359.2,102.7,359.3,101.8z"/>
		<path class="st1" d="M107.1,102.7c1.8-0.6,4,0.6,5.8,0.6c0.4,0,0.4-0.4,0.7-0.6c1.1,0.5,2.4,0.9,3.7,1.3
			c0.7,0.8-0.4,20.3-0.6,23.4c-0.2,4,1,31.5,1.3,33.1c0.3,2-0.1,4.1,1.1,5.9c5.7-0.9,15-0.1,21.1-1.1c0.8,1.7,0,4.1-0.1,6.3
			c-0.1,2.2,0.3,4.7-0.4,6.5c-0.4,0.6-1,0-1.4,0c-4.3-0.2-8.4,0.2-12.3,0.3c-5.6,0.1-11.9,1-17.5,0.4c0.5-2.6,0-5.3,0.4-7.9
			c0.2-1.1,0.3-11.2,0.1-12.1c-0.6-3.9-0.7-12.7-0.7-13.1c0-0.8-0.8-22.7-0.8-23.5C107.1,116,107.1,109.4,107.1,102.7z"/>
		<path class="st1" d="M178.4,132.1c2.7,0.2,4,2.3,6.5,2.3c0.8,1.7,3.8,1.1,4.1,3.3c-2.3,4-5.1,11-5.3,15.8
			c-0.3,5.4,5.2,13.9,15.5,8.8c1.9-1,3.5-2.6,4.9-3.6c3-4.4,4.5-20.9,3.8-24.1c-1-1.8-2-3.7-3-5.5c-6.1-7.1-16.5-9.8-23-16.5
			c-1.8-2.6-3.4-5.5-4.8-8.5c-0.1-2.2-1.2-5.8-1.1-8.6c0.7-0.5,0.3-1.3,0.3-2.2c0.1-2.6,1.4-4.7,1.6-7.9c1.4-1.7,2.1-4.2,3.8-5.6
			c0-0.7,0.5-0.8,0.4-1.6c2.3-2.6,4.6-5.3,7.6-7.2c0.8-0.2,1.5-0.3,1.8-1c4.1-0.6,8.7-1.7,12.3,0.7c3.1,0.5,6.1,2.2,7.6,4.7
			c1-0.2,1,0.7,1.6,1c-2.3,2.4-3.2,6.3-5.5,8.6c-4.3-1.6-8.6-5.1-13.3-3.6c-1.9,1.5-4.1,3.5-5.2,6c-1.1,2.6-1.1,6.7-0.6,9.6
			c0.4,1.7,1.3,3.4,2.7,4.3c1.4,3.1,4.3,4.8,7.3,6.3c0.1,0.4,0.4,0.5,0.4,0.9c3.2,1.6,6.3,3,9,5c1.7,1.2,3,3,4.9,3.9
			c2.7,3.1,6.7,4.9,8.2,9.3c0.1,0.5,0.6,0.6,0.8,1c0.6,2.3,0.6,4,1.6,5.9c0.5,6.9-1.1,15.1-3.1,20.6c-1,2.8-2.5,5.2-3.5,8.1
			c-0.7,0.2-0.8,1-1.4,1.3c-1.4,3.4-4,5.6-5.9,8.5c-0.9,0.4-1.5,1.2-2.1,2c-1.6,0.6-3.2,2.1-5.1,2c-1.1,1.5-4.4,0.8-5.5,2.3
			c-2.6,0.4-7.3,0.7-9.6-0.4c-0.6-0.3-1.1-0.8-1.7-1c-7.1-2.9-18.6-13.7-15.6-27.2c0.3-1.4,1-2.6,1.1-4.2
			C173,140.8,175,135.7,178.4,132.1z"/>
		<path class="st1" d="M239.7,122c-0.2-7.2,0.4-14-0.1-20.5c3.7-0.1,7.7,0.1,12,0.3c-0.2,1.4-1.7,13.1-1.6,15c0,1.6-0.2,3.4,1.1,4.4
			c3.2-0.6,6.4,0.6,10.2,0.5c-0.1,2.9-0.9,5.6-0.6,9.2c-0.4,0.4-1.5,0.1-1.9,0.5c-1.5-0.9-8.5-1.3-9.4,0.5
			c0.2,4.9,0.6,18.8,0.8,20.9c0.5,5.6,1.1,11.9,3.9,16.2c1.2,0,1.8,0.9,2.9,0.9c1.1,0,2.8-1.2,3.8-1.9c1.7-1.3,3.3-3.3,4.2-4.3
			c1,0.3,0.9,1.6,1.3,2.8c0.3,1,1.8,3,1.6,4.3c-0.1,0.6-1.2,1.2-1.9,1.9c-0.8,0.7-1.2,1.6-1.8,2c-0.7,0.6-2.3,1.5-3.7,2.3
			c-2.5,1.4-6.4,2.5-9.4,1.9c-2.1-0.4-3.4-1.9-4.8-3c-8.5-5.8-6.7-39.4-6.7-41.4c0-0.8,0.4-1.6-0.1-2.3c-0.9-0.2-1,0.1-1.6,0.4
			c-2.6,0.1-4.6,0.5-7,1c-1-0.8-1.7-10.4-1.6-11.5c1.8-0.2,3.6-0.2,5.5,0C236.4,122.1,238.2,123.4,239.7,122z"/>
		<path class="st1" d="M346.1,112.6c-1.6,1.2-2.8,2.2-4.4,3.8c-0.7,0.7-1.6,2.1-2.3,2.2c-0.8,0.1-1.5-0.8-2.2-1
			c-3.1-0.9-4.2,0.9-5.2,2.7c-1,1.7-2,3.2-2.8,5.3c-1.2,7.7-2.5,15.8-2,24.6c0.1,1.8-0.1,3.6,0.1,4.9c0.1,0.5,0.4,1,0.5,1.5
			c0.5,3,0.9,5.7,2.5,7.6c0.9,1.1,3.8,2.9,5.3,2.5c1.1-0.2,2.4-1.4,3.4-2.3c2.8-2.5,4.9-6.7,7.6-9.1c1,0.7,1.8,1.6,2.5,2.7
			c0.6,0.9,1.8,2.4,1.8,3.3c0,1.4-2,3.4-2.9,4.6c-1.2,1.6-1.7,3.1-2.9,4.6c-1.8,2.2-4.2,3.6-5.5,5.6c-2.6,1.9-6.6,4.2-10.4,2
			c-2.2-1.2-20.1-11.5-7.2-58.7c1.1-2.6,2.3-5.4,3.8-8.2c1.3-2.4,3.4-3.9,5.1-6.1c1.9-0.9,3.7-1.5,6.6-1.1c1.9,0.2,4.2,1.8,4.9,2.9
			c0.3,0.4,0.2,1,0.5,1.4c0.4,0.7,1.3,1.2,1.8,1.9C345.4,110.8,345.7,111.7,346.1,112.6z"/>
		<path class="st1" d="M367.7,168.6c0.6,0.1-0.1,0.8,0.5,0.9c-0.1,0.4-0.1,0.9-0.3,1.3C367.6,170.3,367.9,169.1,367.7,168.6z"/>
		<path class="st1" d="M367.9,173.2c-0.3-0.7,0.1-1.3-0.1-2.1C368.4,171.4,367.9,172.7,367.9,173.2z"/>
		<path class="st2" d="M54.8,146.8c0-1.1-0.1-2.2-0.2-3.4c0-0.4,0-0.7,0.2-1h-18c0,0.4,0,0.8-0.2,1.1c0.2,0.3,0.4,0.5,0.5,0.9
			c0.4,0.9,0.1,1.7-0.5,2.3H54.8z"/>
		<path class="st2" d="M78.8,144.7c-0.5-0.6-0.5-1.5-0.2-2.2H64.3c0,1.4,0.1,2.9,0.1,4.3h14.1C78.3,146.1,78.3,145.3,78.8,144.7z"/>
		<path class="st2" d="M98,146.8c-0.4-1-0.7-1.9-1-3c-0.1-0.5-0.1-1,0.1-1.4H82c0.3,0.7,0.3,1.6-0.2,2.2c0.4,0.6,0.5,1.4,0.2,2.1H98
			z"/>
		<path class="st3" d="M187.2,144.3c0.1-0.4,0.2-0.7,0.3-1.1c0-0.2,0.1-0.3,0.2-0.5c0-0.1,0-0.1,0.1-0.2h-17.1
			c-0.3,1.5-0.9,2.9-1.5,4.3h16.8C185.5,145.8,186,144.6,187.2,144.3z"/>
		<path class="st3" d="M223.2,146.8c0.1-0.5,0.1-1,0.2-1.5c0-0.6,0.3-1.1,0.6-1.4c0-0.5,0-0.9,0-1.4h-17.5c0.4,1.3,0.6,2.8,0.6,4.3
			H223.2z"/>
		<path class="st3" d="M251.1,142.5h-14.3c0,0.1,0,0.2,0,0.3c0,1.3,0,2.7,0,4h14.4C251.3,145.4,251.2,143.9,251.1,142.5z"/>
		<path class="st3" d="M288.4,146.8c0-1,0.1-1.9,0.1-2.9c0-0.5,0.2-1,0.6-1.4h-14.2c-0.2,1.1-0.6,2.2-1,3.2c0.1,0.3,0.2,0.7,0.1,1.1
			H288.4z"/>
		<path class="st3" d="M307.7,146.8c-0.4-1.4-0.7-2.8-0.9-4.3h-15c0.4,0.4,0.6,0.9,0.6,1.4c0,1-0.1,1.9-0.1,2.9H307.7z"/>
		<path class="st3" d="M329.8,145.2c-1.2-0.3-1.6-1.7-1.1-2.7h-12.8c0.3,1.4,0.4,2.9,0.6,4.3h12.5
			C329.1,146.1,329.4,145.6,329.8,145.2z"/>
		<path class="st3" d="M356.9,146.8h18.2c-0.1-0.5,0-1.1,0.3-1.6c-0.8-0.7-0.7-1.9-0.1-2.7h-18.5
			C357.9,143.8,358.3,145.5,356.9,146.8z"/>
		<path class="st2" d="M156.4,146.8c-0.1-1.2-0.2-2.5-0.2-3.7c0-0.2,0-0.4,0.1-0.6H146c0.4,0.6,0.4,1.4,0,2c0.4,0.6,0.6,1.5,0.2,2.3
			H156.4z"/>
		<path class="st2" d="M119.8,144.5c-0.3-0.6-0.4-1.3-0.1-1.9h-14.1c0.2,1.4,0.1,2.9-0.2,4.3h13
			C118.2,145.8,118.7,144.7,119.8,144.5z"/>
		<path class="st2" d="M22.1,146.8c-0.1-1.2-0.1-2.3-0.1-3.5c0-0.3,0.1-0.6,0.2-0.8H6.6c0.5,1.4,0.5,2.9,0,4.3H22.1z"/>
		<path class="st2" d="M7.2,178.9c0,0,0,0.1,0,0.1H23c0.2-1.4,0.3-2.9,0.3-4.3H6.6c0.5,0.4,0.8,0.9,0.7,1.5
			C7.2,177.2,7.2,178.1,7.2,178.9z"/>
		<path class="st2" d="M56.1,178.9c0-1-0.4-1.9-0.3-2.9c0-0.5,0.1-0.9,0.2-1.2H39.7c0.1,1.4,0.1,2.9,0.1,4.3h16.2
			C56.1,179,56.1,179,56.1,178.9z"/>
		<path class="st2" d="M75,179.1c0-1.4,0.1-2.9,0.3-4.3H60.7c0.4,1.4,0.3,2.8,0.3,4.3H75z"/>
		<path class="st2" d="M102.1,176.2c-0.5-0.3-0.7-0.8-0.8-1.4H88c0.2,1.4,0.5,2.9,0.8,4.3h14C101.7,178.5,101.5,177.1,102.1,176.2z"
			/>
		<path class="st2" d="M141,179.1c-0.1-1.4-0.1-2.8,0.1-4.2c0,0,0,0,0-0.1h-33.6c0.4,0.8,0.3,1.9-0.4,2.5c0.3,0.5,0.4,1.2,0.2,1.8
			H141z"/>
		<path class="st2" d="M158.4,176.4c0-0.5,0-1.1,0-1.6h-12.2c0,1.4,0,2.9-0.1,4.3h12.2C158.4,178.2,158.4,177.3,158.4,176.4z"/>
		<path class="st3" d="M198,178.2c1.5-0.5,3-1.1,4.5-1.6c1.3-0.4,2.6-0.7,3.8-1.3c0.1-0.1,0.3-0.1,0.4-0.2c0-0.1,0.1-0.2,0.1-0.3
			h-27.2c0.2,0.1,0.3,0.3,0.4,0.5c0.1,0.2,0.2,0.5,0.3,0.7c0.2,0,0.4,0,0.6,0.1c0.9,0.4,1.8,0.6,2.8,0.8c0.7,0.1,1.2,0.8,1.4,1.5
			c0.1,0,0.2,0.1,0.3,0.1c0.4,0.1,0.7,0.3,0.9,0.6h9C196.3,178.8,197.2,178.5,198,178.2z"/>
		<path class="st3" d="M259.2,177.8c1.6-1.2,3.4-2,5.1-3h-21.6c0.1,0.1,0.1,0.1,0.2,0.2c0.1,0,0.2,0,0.3,0c1.1,0,1.7,0.7,1.9,1.5
			c0.6,0.1,1.1,0.4,1.3,0.8c0.4,0.1,0.8,0.4,1,0.7c0.2,0.1,0.4,0.2,0.6,0.3c0.6,0,1,0.3,1.3,0.6c0.1,0,0.3,0.1,0.4,0.2h6.4
			C257.2,178.8,258.3,178.5,259.2,177.8z"/>
		<path class="st3" d="M285.2,177.8c0-0.6,0.2-1,0.5-1.3c-0.1-0.3-0.2-0.5-0.2-0.8c0-0.3,0.1-0.6,0.2-0.9h-14.9
			c0.1,0.3,0.1,0.7,0.1,1.1c0,0.2-0.1,0.3-0.1,0.5c0.6,0.3,1,1,1.1,1.7c0,0.3,0.1,0.6,0.1,0.9h13.6
			C285.3,178.7,285.2,178.3,285.2,177.8z"/>
		<path class="st3" d="M310.8,178.9c0.5-0.6,1.3-1,2.1-1.2c0,0,0.1,0,0.1,0c0-0.1-0.1-0.1-0.1-0.2c-0.2-0.5-0.5-0.9-0.5-1.4
			c-0.1-0.5,0-0.9,0.1-1.3H298c0.2,0.2,0.3,0.5,0.4,0.8c0.4,1.2,0.6,2.3,0.7,3.5h11.5C310.7,179,310.7,179,310.8,178.9z"/>
		<path class="st3" d="M339.9,177c0.2-0.4,0.6-0.8,1.1-0.9c0.1-0.5,0.3-1,0.7-1.3h-16.6c1.7,1.3,2.9,3.1,4.6,4.3h7.5
			c0.2-0.3,0.5-0.6,0.8-0.8C338.3,177.6,338.9,177,339.9,177C339.9,177,339.9,177,339.9,177z"/>
		<path class="st3" d="M368.5,179.1c-0.2-0.8,0.1-1.7,0.8-2.2c0-0.1-0.1-0.3-0.1-0.4c-0.1-0.6,0-1.2,0.3-1.7h-13.7
			c0,1.4-0.1,2.9-0.2,4.3L368.5,179.1C368.5,179.1,368.5,179.1,368.5,179.1z"/>
		<path class="st2" d="M22.7,166.4H7.2c0,0.2,0,0.4,0,0.6c-0.2,1.2-0.1,2.5-0.1,3.7H23C22.9,169.3,22.8,167.8,22.7,166.4z"/>
		<path class="st2" d="M75.9,170.7c0.3-1.4,0.5-2.9,0.8-4.3H61.6c0,1.4,0,2.9-0.1,4.3H75.9z"/>
		<path class="st2" d="M141.5,170.7c0.2-1.4,0.4-2.7,0.3-4.1c0-0.1,0-0.1,0-0.2h-34.3c0,0.1,0,0.1,0,0.2c0,1.5-0.1,2.8-0.4,4.1
			H141.5z"/>
		<path class="st3" d="M268.3,167.2c-0.4-0.2-0.7-0.4-0.9-0.8h-6.2c-0.2,0.6-0.7,1-1.5,1.1c-0.7,0.6-1.4,1.1-2.4,1.5
			c-0.9,0.4-1.5,0.1-2-0.5c-0.4-0.2-0.7-0.5-0.9-1c-0.5-0.3-0.7-0.7-0.9-1.2h-14c0,0.5-0.2,1.1-0.6,1.4c0.1,1,0.4,2,0.7,2.9h28.5
			c-0.4-0.8-0.2-1.9,0.5-2.5C268.4,168,268.3,167.6,268.3,167.2z"/>
		<path class="st3" d="M285.9,170.7c0-0.3,0.1-0.6,0.2-0.9c0.5-0.9,0.3-2.2,0.4-3.2c0-0.1,0-0.1,0-0.2H272c0.2,0.8,0,1.7-0.6,2.2
			c0.4,0.6,0.5,1.5,0.2,2.1H285.9z"/>
		<path class="st3" d="M310.7,168c-0.1-0.6,0-1.1,0.3-1.5h-13.7c0.7,1.3,0.8,2.8,0.8,4.3h13.8C311.3,169.9,310.9,169,310.7,168z"/>
		<path class="st3" d="M345.6,170.7c1-1.6,2.5-2.9,3.8-4.3h-30.2c0.5,1.5,1.2,2.9,2.2,4.2c0,0,0.1,0.1,0.1,0.1L345.6,170.7
			C345.6,170.7,345.6,170.7,345.6,170.7z"/>
		<path class="st3" d="M356.1,170.7h13c0-0.3-0.1-0.6-0.2-0.9c-0.1-0.4-0.2-0.7-0.3-1.1c0,0.1-0.4-0.6-0.1-0.2
			c-0.5-0.6-0.7-1.4-0.4-2.1h-12.3c0,0.3,0,0.7,0,1c0.4,0.4,0.6,0.9,0.6,1.4C356.3,169.5,356.2,170.1,356.1,170.7L356.1,170.7z"/>
		<path class="st3" d="M392.9,169.7c0.4-0.5,0.8-1,1.3-1.4c-0.1-0.1-0.2-0.1-0.3-0.2c-0.6-0.4-1-1.1-1-1.7h-13.5
			c0.6,0.4,1.2,0.9,1.6,1.5c0.8,0.9,1.4,1.9,2.1,2.9h9.4C392.6,170.4,392.7,170,392.9,169.7z"/>
		<path class="st3" d="M215.3,166.4H171c0.5,0.8,1,1.6,1.9,2.1c1,0.6,1.9,1.2,2.4,2.2h36.2C212.7,169.2,213.9,167.7,215.3,166.4z"/>
		<path class="st2" d="M157.4,170.7c0.1-1.4,0.1-2.9,0.1-4.3h-11.7c0,0.1,0,0.1,0,0.2c0.1,1.4-0.1,2.7-0.3,4.1H157.4z"/>
		<path class="st2" d="M100.8,166.4H86.5c0,0.1,0,0.2,0,0.4c0,1.4,0.2,2.7,0.6,4h14.6C101.3,169.3,101,167.9,100.8,166.4z"/>
		<path class="st2" d="M55.3,166.6c0-0.1,0-0.1,0-0.2H39.2c0.1,0.8,0.2,1.7,0.2,2.6c0,0.6,0,1.2,0.1,1.7H56
			C55.5,169.4,55.2,168.1,55.3,166.6z"/>
		<path class="st2" d="M22.6,158.4H6.8v4.3h15.7C22.5,161.3,22.5,159.8,22.6,158.4z"/>
		<path class="st2" d="M76.6,159.9c0-0.6,0.3-1.1,0.7-1.5H62.5c-0.1,1.4-0.2,2.9-0.5,4.3h14.3C76.5,161.8,76.7,160.8,76.6,159.9z"/>
		<path class="st2" d="M99.6,158.8c0-0.2,0-0.3,0.1-0.5H84.5c0,0.1,0,0.1,0.1,0.2c0.3,1.3,1,2.7,1.1,4.1H100
			C99.6,161.4,99.6,160,99.6,158.8z"/>
		<path class="st2" d="M119.8,160.6c-0.3-0.7-0.2-1.6,0.3-2.2h-13.3c0.1,1.4,0.2,2.8,0.5,4.2c0,0.1,0,0.1,0,0.1H120
			C119.6,162,119.5,161.2,119.8,160.6z"/>
		<path class="st2" d="M157.1,162.7c-0.2-1.4-0.4-2.8-0.4-4.3c0,0,0,0,0-0.1h-11.5c0.2,0.4,0.4,0.8,0.4,1.2c1,0.6,1.4,2.2,0.6,3.1
			H157.1z"/>
		<path class="st3" d="M217.6,161.9c0.7-1,1.5-1.9,2-3c0.1-0.2,0.2-0.4,0.4-0.5h-17.2c-0.1,0.2-0.3,0.3-0.5,0.4
			c-2.5,1.6-4.7,3.2-7.7,3.3c-0.2,0.2-0.4,0.4-0.6,0.6h23.3C217.3,162.4,217.4,162.2,217.6,161.9z"/>
		<path class="st3" d="M252,162.7c-0.1-0.1-0.1-0.3-0.1-0.4c-0.3-1.3-0.5-2.6-0.6-3.9h-13c0,0.1,0,0.3,0,0.5v3.9H252z"/>
		<path class="st3" d="M287.9,158.4h-15.5v4.3h14.5C287,161.1,287.1,159.6,287.9,158.4z"/>
		<path class="st3" d="M310.4,160.4c-0.1-0.7-0.2-1.3-0.4-2h-14.8c0,0.1,0.1,0.2,0.1,0.3c0.2,0.7,0,1.4-0.4,1.8
			c0.1,0.8,0.2,1.5,0.4,2.2h15.4C310.7,161.9,310.6,161.1,310.4,160.4z"/>
		<path class="st3" d="M330.7,160.1c-0.3-0.3-0.7-0.6-0.9-1c-0.2-0.2-0.3-0.5-0.3-0.7h-11.2c0.1,0.2,0.2,0.5,0.2,0.8
			c0,1.1,0.4,2.2,0.6,3.3c0,0,0,0.1,0,0.1h11.8C330.2,162,330.2,160.9,330.7,160.1z"/>
		<path class="st3" d="M352.4,161.8c0.1-0.8-0.2-1.7-0.7-2.2c-0.4-0.4-0.6-0.8-0.6-1.2H343c0,0.5-0.2,1-0.5,1.4
			c-0.4,0.5-0.9,1-1.4,1.4c-0.1,0.6-0.3,1.2-0.9,1.5h11.3C351.7,162.3,352,162,352.4,161.8z"/>
		<path class="st3" d="M368.5,162.7c-0.2-1.4-0.2-2.8-0.2-4.2c0,0,0-0.1,0-0.1h-12.6c0.6,1.3,0.9,2.9,0.6,4.3H368.5z"/>
		<path class="st3" d="M389.3,160.6c-0.2,0-0.4,0-0.5,0c-1.4,0-2-1.2-1.9-2.2H374c0.4,0.4,0.7,0.9,0.7,1.5c0.6,0,1.2,0.3,1.5,0.9
			c0.2,0.4,0.4,0.5,0.9,0.8c0.5,0.2,0.8,0.7,0.9,1.1h11.9C389.2,162.3,389,161.4,389.3,160.6z"/>
		<path class="st3" d="M169.9,162.7h22.5c-0.1,0-0.2-0.1-0.3-0.2c-1.6-1.1-3.6-1.3-5.1-2.5c-0.6-0.5-1.1-1-1.4-1.7h-17.4
			c0,0.6,0,1.2-0.1,1.8C169.6,160.3,170.2,161.6,169.9,162.7z"/>
		<path class="st2" d="M36.5,134.7c0,1.4,0.1,2.8,0.1,4.2H55c-0.1-1.3,0-2.6-0.2-3.8c0-0.2,0-0.3-0.1-0.5L36.5,134.7
			C36.5,134.7,36.5,134.7,36.5,134.7z"/>
		<path class="st2" d="M22,135.1c0-0.2,0-0.3,0.1-0.5H6.5c0,0.4,0,0.7,0,1.1c0,1.1,0,2.2,0,3.2h15.3C22,137.7,22,136.4,22,135.1z"/>
		<path class="st3" d="M187.8,135.2c-0.1-0.2-0.2-0.4-0.2-0.6h-12.8c0,0.3-0.1,0.5-0.3,0.8c-0.6,0.8-1.2,1.6-2,2.3
			c-0.2,0.4-0.4,0.8-0.5,1.2h16.9c0.1-0.6,0.4-1.2,1.1-1.5C189.1,136.8,188.4,136.1,187.8,135.2z"/>
		<path class="st3" d="M224,139c0-1.3-0.1-2.6-0.1-4c0-0.1,0-0.2,0-0.4h-17.6c0.5,1.5,0.8,3,0.5,4.3H224z"/>
		<path class="st2" d="M36.6,130.6h17.7c-0.1-1.4-0.1-2.9-0.1-4.3H6.9c0.1,1.4,0,2.9-0.1,4.3h18.8c0.1-0.1,0.2-0.2,0.3-0.3
			c2-1.3,4.3-1.8,6.7-2c0.2,0,0.5,0,0.7,0.1c0.5-1,1.8-1.2,2.7-0.7c1,0.6,1.2,1.7,0.7,2.7C36.7,130.5,36.7,130.6,36.6,130.6z"/>
		<path class="st3" d="M222.1,127.1c-0.2-0.2-0.3-0.5-0.3-0.8H200c0.5,0.4,1,0.8,1.4,1.1c1.2,0.9,2.3,1.9,3.1,3.2h19.2
			C223.5,129.3,222.9,128.2,222.1,127.1z"/>
		<path class="st2" d="M55.3,158.7c0-0.1,0-0.2,0-0.3H37.7c0.1,0.6,0.1,1.2,0.3,1.8c0.2,0.9,0.4,1.7,0.5,2.6h16.9
			C55.3,161.4,55.3,160,55.3,158.7z"/>
		<path class="st2" d="M55.5,150.3H37.5c0.1,1.4,0.1,2.9,0,4.3h18.2v-4c0,0,0,0,0,0C55.7,150.5,55.6,150.4,55.5,150.3z"/>
		<path class="st2" d="M77.4,152.1c0-0.7,0.4-1.3,0.9-1.7c0,0,0,0,0-0.1H64c0.2,0.5,0.2,1-0.1,1.5c-0.4,0.8-0.3,1.8-0.2,2.8h13.7
			V152.1z"/>
		<path class="st2" d="M99.2,150.4C99.2,150.4,99.2,150.3,99.2,150.4l-17,0c0,0,0,0.1,0,0.1c0,1.4,0.2,2.8,0.3,4.2h16.7
			C99,153.2,99,151.8,99.2,150.4z"/>
		<path class="st2" d="M119.7,152.4c-0.4-0.6-0.6-1.4-0.3-2.1h-13.3c0.1,0.2,0.1,0.4,0.1,0.7c0,0.9,0.2,2.3,0.2,3.6h12.7
			C118.9,153.9,119.1,153,119.7,152.4z"/>
		<path class="st2" d="M156.9,154.7c0-1,0.1-2,0.2-3c-0.1-0.4-0.1-0.9-0.2-1.3h-11.5c0.5,0.8,0.3,1.9-0.4,2.6
			c0.3,0.6,0.4,1.2,0.2,1.7H156.9z"/>
		<path class="st3" d="M185,150.3h-16.8c0,0.3-0.2,0.7-0.3,0.9c0.4,1.1,0.5,2.2,0.5,3.4h16.1C184.4,153.1,184.5,151.8,185,150.3z"/>
		<path class="st3" d="M251.6,153.5c-0.1-1.1-0.1-2.1-0.1-3.2h-14.5c0,1.4,0,2.9,0.1,4.3h14.7c0-0.1,0.1-0.2,0.1-0.4
			C251.7,154.1,251.6,153.8,251.6,153.5z"/>
		<path class="st3" d="M287.5,154.7c0.1-1.1,0.2-2.2,0.3-3.3c0-0.4,0.1-0.7,0.3-1h-13.9c0,0.1,0,0.2,0,0.3c-0.1,1.4-0.1,2.7-0.4,4
			H287.5z"/>
		<path class="st3" d="M308.7,150.3h-15.5c0.1,0.2,0.1,0.4,0.1,0.6c0.1,1.3,0.4,2.5,0.7,3.7h15.4
			C309.3,153.2,309.1,151.8,308.7,150.3z"/>
		<path class="st3" d="M328.6,151.1c0-0.3,0.1-0.6,0.2-0.8h-12.1c0.1,1.4,0.1,2.9,0.1,4.3h13.6C329.3,154,328.6,153,328.6,151.1z"/>
		<path class="st3" d="M381.9,154.7c-0.3-0.6-0.4-1.2-0.1-1.8c-0.2,0-0.4,0-0.5-0.1c-1.4-0.1-2-1.4-1.9-2.5h-22.6
			c0.5,0.7,0.8,1.7,0.6,3c-0.1,0.5-0.2,1-0.5,1.3h10c-0.1-1.1,0.5-2.2,1.9-2.2c1.4,0,2,1.2,1.9,2.2H381.9z"/>
		<path class="st3" d="M222.3,150.4C222.3,150.4,222.3,150.3,222.3,150.4l-15.7,0c-0.2,0.7-0.4,1.3-0.7,1.9c0.1,0.5,0,0.9-0.2,1.4
			c-0.2,0.3-0.4,0.7-0.6,1h16.3C221.5,153.2,221.9,151.8,222.3,150.4z"/>
		<path class="st2" d="M23.3,154.7c-0.3-1.4-0.5-2.8-0.6-4.2c0,0,0-0.1,0-0.1H6.3c0.7,1.3,0.9,2.9,0.6,4.3H23.3z"/>
		<path class="st4" d="M37.2,68.9c0.2,0-0.2-0.7,0.1-0.8c6,0.2,11.3-0.3,16.6,0.6c-0.1,2.1,1.7,79.1,1.7,80.4c0,1.9,0.5,3.7,0.1,5.6
			c-0.3,2,0.3,3.9,0.3,5.9c0,2-0.2,4-0.1,6.2c0,0.9,0.3,1.8,0.3,2.7c0.1,3.1-0.1,6.9,0.3,9.8c0,0.7-4.6,0.3-7.1,0.3
			c-0.9,0-1.8,0.5-2.8,0.6c-0.6,0.1-1.3-0.1-1.8,0c-1.7,0.3-3.3,1.6-5.4,1c-1-1.5-0.5-3.2-0.7-4.9c-0.5-4.1-1.2-8.2-1.3-12.7
			c-0.1-3.5-0.7-7.3-1-10.6c-0.2-2.1,0.1-4.4-0.1-6.5c-0.1-0.8-0.6-5.9-0.8-7.5c-0.1-0.9-0.9-8.8-0.4-10.7c-3.8,1-7.5,2.7-12,3.4
			c-0.1,0.9-0.1,2.3-0.7,3.1c0.5,1.3-0.1,2.9-0.1,4.4c0,0.4,0.4,0.8,0.4,1.1c0,0.4-0.1,1.1-0.1,1.6c0,2.1-0.1,4.5,0.1,7
			c0.1,1.3,0.6,2.8,0.6,4.1c0,0.8-0.1,1.8,0,3c0,0.7-0.2,1.3-0.1,2c0.1,2.4,0.6,4.7,0.6,7.2c0,1.3-0.2,2.6-0.3,3.9
			c-0.1,2.6,0.4,7.7-0.3,10.8c-5.3,1.1-10.2,1.4-15.2,2.5c-0.8-1.2-0.7-2.4-0.8-4.1c-0.4-3.9-0.6-10.7-0.6-14.9
			c0-1.8-0.4-9.5-0.4-11.3c0-1.7-0.4-3.1-0.3-4.8c0.3-4.2-1.3-37.4-1.3-44.3c0-1.9-0.5-8-0.6-9c-0.1-1.4-0.8-12.7-0.8-16.8
			c-0.1-2.7-1-6,0.1-8c6.5-0.7,11.8-0.6,18.2-0.6c0.9,1.2,0.5,2.5,0.6,3.8c0.1,3.9,0.1,8,0.4,12.1c0.3,3.2,0.9,21.5,1.4,27.2
			c0.1,0.6-0.4,5.3-0.1,7.2c4.1-0.2,7.3-1.9,12.3-2.1c0.1-3.7-0.2-13.4-0.1-13.8c0-0.7-0.1-8.1-0.3-10.3c-0.4-4.6-0.2-9.3,0-14.5
			c0.1-2.9-0.1-5.8,0.1-8.7C36.1,69.3,36.7,68.5,37.2,68.9z M15.1,69.9c-3.3-0.8-6.9,0-10.4,0.3c0,0.1-0.1,0.2-0.1,0.3
			c0.3,2.2,0.8,5.5,0.8,7.5c0,0.9-0.3,1.9-0.3,2.8c0.2,4.5,1.2,8.9,1.4,13.4c0.1,1.3-0.1,2.8,0,4.1c0.1,0.5,0.4,1,0.4,1.6
			c0.1,2.2-0.4,4.5-0.3,6.8c0.1,2.5,0.5,5.4,0.6,8c0,1.2-0.3,2.6-0.1,3.7c0.1,0.4,0.4,0.8,0.4,1.3c0.2,3.2,0.3,6.8,0.4,9.4
			c0.1,2.7-0.2,5.7,0.1,8.6c0.1,0.6,0.1,2.8,0.1,3.4c0.1,3.3,0.6,7-0.1,10c1.1,9-0.2,20,0.8,29.4c2.9-0.4,5.8-1,8.6-1.6
			c1.7-0.3,3.3-0.7,4.8-0.7c-0.4-10,0.6-21.8-0.8-29c-0.5-2.4-0.1-5.5-0.1-8.5c-0.1-3.7-0.2-6.9,0.8-10.4c3.2-0.8,7.7-2.4,11.3-3.7
			c1.6-0.6,3.8-1.9,4.5-0.7c0.4,3.6-0.3,7.7,0.7,11.6c-0.5,0.9-0.4,2-0.3,3.1c0.6,4.1,1.8,17.1,1.8,17.6c0,1.7,0.1,3.8,0.3,5.5
			c0.1,0.7,0.4,15.1,1.1,16.1c1,0.3,1.9-0.3,2.8-0.4c3.1-0.5,6.3-0.6,10-0.4c0.3-6.2-1.7-13-1.6-20c0-1.3,0.1-2.3,0-3.5
			c-0.3-4.8,0.1-8.9,0.1-13.4c0-2-0.4-3.9-0.3-5.8c0.1-1-0.9-30.3-1.1-34.1c0-0.4-0.1-0.8-0.1-1.3c-0.1-11.1-0.8-21.1,0-31.6
			c-4.3-0.5-9.5-0.1-14-0.1c1.2,2.5,1.4,8.5,0.8,11.6c0.7,1.8,0.1,2.8,0.1,4.7c0.1,2.8-0.1,5.5,0.1,8.9c0.2,3.2,0.5,12.3,0.3,14.5
			c-0.2,1.9,0.2,4.1-0.1,5.6c-0.3,1.2-1.1,2.1-1,3.7c-2.7,0.8-5.5,1.6-8.6,2.3c-2.5,0.5-5.6,0.1-7.5,1c-1.6-1.9-1.1-4.3-1.1-6.9
			c0-3.3-0.9-6.7-0.6-10c0.2-1.6,0.1-3,0-4.7c-0.2-3.7-0.1-7.5-0.4-11c-0.1-0.8-0.4-1.5-0.4-2.3c0-0.8-0.1-1.5,0-2.4
			c0.2-3.4-0.4-6.7-0.1-10c0.1-1.4,0.6-2.8,0.6-4.2C18,69.4,16.5,69.4,15.1,69.9z"/>
		<path class="st4" d="M71,102c2.2-0.2,4.6-0.7,7-0.7c1.9,0,4.1,0.3,5.8,0c0.5-0.1,0.9-0.5,1.4-0.6c1.1-0.2,2.4-0.1,3.5-0.3
			c0.7-0.1,1.4-0.3,2.1-0.4c0.3,1.4,1.5,3.2,0.7,4.8c1.1,4.2,2.4,13.1,2.4,13.5c1.1,1.2,8.2,53.5,8.2,57c0.7,1.2,1,2.1,1.1,3.5
			c-3.8,2.1-8.7,3.1-13.4,3.7c-1.8-3.7-3.1-8.2-3.8-13.1c-0.6-4-2.3-7.4-2.7-11.4c-1.2-2.7-2.6-14.2-3.4-17.5
			c-2,2.9-0.7,8.8-2.3,12.4c0.1,10.1-1.9,18.4-2.4,27.1c-2.8,0.7-6.1-0.1-9.4,0c-1.4,0-3.5-0.1-5.5,0c-0.2,0-0.2-0.1-0.4-0.1
			c0.6-5.6,1.1-10.9,1.8-16.4c0.2-1.7-0.2-3.6,0.7-5.4c1.2-12.4,2.9-25.7,5.4-38.5c0.3-1.6,0.3-3.1,0.6-4.7
			C69.2,110.6,70.1,106.2,71,102z M61.9,178.7c2.5,0.6,10.7,0.5,12.3,0.3c0.6-3.7,1-8.3,1.4-12.7c0.1-1.3,0.5-2.6,0.7-3.9
			c0.3-2.8,0-5.7,0.3-8.5c0.4-4,1.3-10.2,1.7-14.4c1.2-0.6,2.9-0.6,3.9,0c0.6,1.5,0.9,2.4,0.7,3.9c1,2.5,0.8,5.4,2,7.8
			c0.6,4.3,4.2,17,4.9,20.6c0.7,3.3,1.2,6,1.8,9c3.3,0.3,6.7-1.2,9.4-2.7c0.5-0.9-0.3-1.7-0.6-2.5c-0.6-2.2-0.3-4.9-1.3-7
			c-0.1-1.8-6.9-40.9-7.8-45.4c-0.6-3-1.4-6.1-1.7-9.3c-1.3-3.6-0.7-8.5-2.1-11.7c-1.8-0.3-3.7,0.7-5.8,0.8c-3.8,0.3-7.6-0.7-10.2,1
			c-0.2,2.7-1.2,5.3-1.6,7.9c-1.7,12.6-4.3,24.3-5.2,37.4c-0.8,3-1.1,7.6-1.6,11c-0.1,0.9-0.5,2-0.4,2.7c0.1,0.9-0.2,1.5-0.3,2.4
			C62.5,167.1,61.7,177.8,61.9,178.7z"/>
		<path class="st4" d="M78.8,120.2c1.8,0,1.4,1.7,1.6,3.1c0,0.2,0.4,2.6,0.4,3.7c0.1,1.7,0.4,5.4,0.3,6.1c-1.4,0.7-2.8-0.1-4.4,0.3
			c-0.7-4.1,1-11.9,1.8-13C78.7,120.4,78.8,120.3,78.8,120.2z M77.5,132.1c0.5,0.2,1.6,0.2,2.4,0.1c0.5-1.6-0.1-7.2-0.8-8.8
			C77.9,124.3,78,130.7,77.5,132.1z"/>
		<path class="st4" d="M104.5,100.3c5.1,0.3,10.2,1.4,15.1,2c0.1,0.5,0.5,0.6,0.8,0.8c-0.5,1.8-0.1,3.9-0.6,5.5
			c0.3,3.6,0.5,7.7,0.3,11.6c-0.1,3-0.3,43,0.9,44.6c1.3-0.3,4.9,0.1,6.8,0.3c5.2,0.4,9.5-0.8,14.4-0.4c0.3,2.9-0.2,5.1,0,7.9
			c0,0.5-0.3,0.6-0.6,0.8c0.9,1.4-0.1,2.8,0,3.9c0.1,0.8,0.7,1,0.6,1.8c-1.7,0.6-3.7,0.4-5.6,0.3c-4.8-0.2-9.9,0.3-14.8,0.6
			c-2.5,0.1-5.2-0.5-7.5,0.6c-1.3-0.7-3.3-0.1-5.4-0.6c-0.8,0.3-1,0.7-2.1,0.4c0.3-7.8-0.6-22.1-0.8-23.8
			C105.6,153.4,103.9,106.3,104.5,100.3z M107.6,122.2c0.1,0.8,0.8,22.7,0.8,23.5c0,0.4,0.1,9.2,0.7,13.1c0.1,0.9,0,11.1-0.1,12.1
			c-0.4,2.6,0.1,5.3-0.4,7.9c5.6,0.6,11.8-0.3,17.5-0.4c3.8-0.1,7.9-0.5,12.3-0.3c0.4,0,1,0.6,1.4,0c0.7-1.8,0.3-4.2,0.4-6.5
			c0.1-2.3,1-4.7,0.1-6.3c-6.1,1-15.5,0.2-21.1,1.1c-1.2-1.8-0.8-3.9-1.1-5.9c-0.2-1.7-0.3-4.1-0.4-5.5c0-0.6-1-23.6-0.8-27.6
			c0.1-3.1,1.2-22.7,0.6-23.4c-1.2-0.4-2.5-0.8-3.7-1.3c-0.3,0.1-0.3,0.5-0.7,0.6c-1.8,0-3.9-1.1-5.8-0.6
			C107.1,109.4,107.1,116,107.6,122.2z"/>
		<path class="st4" d="M177.7,129.9c0.8,0,1.2,0.9,1.8,1.3c1.7,0.9,4.1,1.2,5.9,2.2c0.9,0.5,1.3,1.6,2.7,1.3c0.5,1,2.2,0.9,2.4,2
			c0.3,1.2-0.9,1.7-1.7,2.6c-1.3,3.5-3.2,9.2-4.1,13.5c-0.3,5,5.9,14.8,17.2,6.2c3.7-3.6,3.8-8.4,4.4-10.8
			c-0.2-1.7,1.6-12.1-3.4-17.7c-2.9-4-7.6-7.1-12.2-9.7c-0.9-0.5-1.8-1.4-2.7-1.9c-2.9-1.7-5.6-2.6-7.9-4.9
			c-2.1-2.2-3.9-4.2-5.4-7.5c-0.6-3.2-1.7-5.4-1.4-9.5c0.3-4.3,1.4-8.9,3-12.5c0.6-1.5,1.7-2.6,2.5-3.9c0.2-0.4,0.2-0.9,0.4-1.3
			c0.8-1.3,2.1-2.8,3.2-4c2.5-2.6,4.1-4.7,7.6-5.9c1-1,3.3-1.3,4.8-1.3c2.4-1.3,7.1-0.2,10,1c3.7,1.6,7.2,4.2,9.4,6.5
			c-0.1,0.8,0.1,1.2,0.3,1.7c-1.3,3.6-4,6-4.7,9.7c-1.4,1.6-2.2,0.6-3.6,0.2c-1.6-2-4.8-2.4-6.8-4c-2.1-0.4-3.3-0.6-4.9-0.4
			c-1,0.7-2.3,1.5-3.1,2.6c-0.1,0.1-0.7,1.1-0.7,1.2c-0.7,1.3-1.1,3.5-1.3,4.6c-0.2,1.3,0.2,2.4-0.4,3.9c2,8.4,9.5,12.4,16.8,15.8
			c0.8,1.8,3.3,1.7,3.9,3.6c4,2,6.7,5.4,10.1,7.9c1.4,3.2,4,6,3.9,10.2c0.1,0.3,0.4,0.6,0.6,1c0.7,2.2-0.1,6-0.3,7.9
			c-0.2,2.3-0.1,5.1-0.8,7.3c-0.2,0.5-3.9,15.8-13.1,24.3c-0.5,0-0.5,0.4-1,0.4c-0.4,0.6-1,1-1.3,1.7c-3.4,2.1-7.7,3.3-11.7,4.7
			c-2.6-0.3-5.1,0.2-7.8-0.1c-6.2-0.7-26-12.4-20-33.5c1.3-4.3,2.4-6.2,4.2-10.1C174.6,134.3,175.5,131.4,177.7,129.9z M171,145.7
			c-0.1,1.6-0.7,2.8-1.1,4.2c-2.4,7.4,2.7,21.8,17.3,28.2c2.4,1,7,0.8,9.6,0.4c1.1-1.5,4.4-0.8,5.5-2.3c1.8,0,3.4-1.4,5.1-2
			c0.6-0.8,1.2-1.6,2.1-2c1.9-2.9,4.5-5.1,5.9-8.5c0.6-0.3,0.7-1.1,1.4-1.3c1-2.9,2.5-5.2,3.5-8.1c2-5.4,3.6-13.7,3.1-20.6
			c-0.9-1.9-1-3.6-1.6-5.9c-0.2-0.4-0.7-0.5-0.8-1c-1.4-4.4-5.4-6.2-8.2-9.3c-2-0.8-3.2-2.7-4.9-3.9c-2.8-2-5.8-3.4-9-5
			c0-0.4-0.4-0.5-0.4-0.9c-3-1.6-5.9-3.2-7.3-6.3c-1.4-1-2.3-2.6-2.7-4.3c-0.6-2.9-0.6-7.1,0.6-9.6c1.1-2.6,3.3-4.5,5.2-6
			c4.7-1.5,8.9,2,13.3,3.6c2.3-2.4,3.2-6.2,5.5-8.6c-0.5-0.3-0.5-1.2-1.6-1c-1.5-2.6-4.6-4.2-7.6-4.7c-3.5-2.4-8.1-1.3-12.3-0.7
			c-0.3,0.7-1.1,0.8-1.8,1c-3.1,1.9-5.3,4.6-7.6,7.2c0.1,0.8-0.5,0.9-0.4,1.6c-1.7,1.4-2.4,3.9-3.8,5.6c-0.1,3.2-1.5,5.3-1.6,7.9
			c0,0.9,0.4,1.7-0.3,2.2c-0.1,2.9,1.1,6.5,1.1,8.6c1.4,3,3,5.9,4.8,8.5c6.5,6.7,16.8,9.5,23,16.5c1,1.8,2,3.6,3,5.5
			c3.5,14.8-3.3,22.9-3.8,24.1c-1.5,1-3,2.6-4.9,3.6c-10.3,5.2-15.8-3.3-15.5-8.8c0.3-4.8,3.1-11.7,5.3-15.8
			c-0.3-2.2-3.3-1.6-4.1-3.3c-2.5,0-3.8-2.1-6.5-2.3C175,135.7,173,140.8,171,145.7z"/>
		<path class="st4" d="M237.1,121.6c0.9-1,0.3-2.7,0.3-4c0-1,0-1.8-0.1-2.9c-0.4-2.9,0.5-5.4,0.3-8.7c-0.1-1.2-0.4-2.4-0.3-3.6
			c0.4-0.7,1-1.3,1.4-2c4.9-0.2,10.3,0.4,14.9,0.3c0.1,1.6-0.9,16.4-1.6,19.3c3.7,0.5,7.4,0.6,11.1,1.3c0,3.3-0.1,7.8-0.9,11.5
			c-3.7,0.9-6.6-1.3-10.1-0.4c-0.5,1.1-0.1,3.4,0.1,5.7c0.1,0.7-0.1,3.3-0.1,3.9c0,1.3-1.3,26,4.5,27.2c1.5,0.3,2.4-1.6,3.9-1.9
			c1.9-1.9,3.4-4.2,5.9-5.5c0.5,1,0.7,2.1,1.3,3.3c0.3,0.7,0.5,1.8,0.9,2.8c0.8,2.1,1.6,2.5-0.1,4.2c-1.7,1.6-3.6,3.8-5.8,5
			c-0.8,0.4-1.6,0.8-2.4,1.4c-0.7,0.5-3.7,1.1-4.8,1.3c-0.5,0.1-0.8,0.5-1.1,0.5c-1.5,0.1-3.6-0.4-4.5-0.8c-2-0.7-3.3-2.1-5.3-2.9
			c-8.1-3.3-7.4-26.2-7.4-27.4c-0.1-4.9-0.8-10.3,0-15.2c-2.2-0.5-5.2,1-7.2,0.5c-0.4,0.4-0.9,0.7-1.8,0.6c-0.8-3-0.6-7.4-1-10.9
			c-0.1-1.2,0-2.1,0.9-2.8C231.1,121,234.7,121.1,237.1,121.6z M234.5,122c-2-0.2-3.8-0.2-5.5,0c-0.1,1.1,0.7,10.7,1.6,11.5
			c2.4-0.5,4.4-0.9,7-1c0.6-0.3,0.8-0.6,1.6-0.4c0.6,0.6,0.1,1.5,0.1,2.3c0,2.1-2,36.8,6.7,41.4c1.4,1.1,2.7,2.6,4.8,3
			c3,0.6,6.9-0.5,9.4-1.9c1.4-0.8,3-1.7,3.7-2.3c0.5-0.4,1-1.3,1.8-2c0.7-0.7,1.8-1.2,1.9-1.9c0.2-1.3-1.3-3.2-1.6-4.3
			c-0.4-1.2-0.2-2.5-1.3-2.8c-0.9,1-2.4,2.9-4.2,4.3c-0.9,0.7-2.7,1.9-3.8,1.9c-1.1,0-1.7-0.9-2.9-0.9c-2.8-4.4-3.4-10.6-3.9-16.2
			c-0.2-2-0.5-16-0.8-20.9c0.9-1.8,7.9-1.4,9.4-0.5c0.4-0.4,1.5-0.1,1.9-0.5c-0.2-3.6,0.5-6.2,0.6-9.2c-3.8,0.1-7-1.1-10.2-0.5
			c-1.3-1-1.1-2.8-1.1-4.4c0-1.9,1.5-13.6,1.6-15c-4.2-0.1-8.3-0.3-12-0.3c0.5,6.5,0,13.3,0.1,20.5
			C238.2,123.4,236.4,122.1,234.5,122z"/>
		<path class="st4" d="M347.3,113.8c-2.8,1.5-4.8,3.7-6.8,6c-1.6-0.3-3.1-1.2-4.7-1.5c-0.8,0.2-1.1,0.9-1.9,1.1
			c-0.2,1-0.6,1.9-1.4,2.4c-1.2,3.3-1.4,6.9-2.3,10.4c0.1,1.2-0.3,3.1-0.1,4.8c-1.2,5,0.1,10.6,0.5,16.2c0,0.6-0.2,1.1-0.1,1.6
			c0,0.3,0.3,0.6,0.4,0.9c0.1,0.6-0.1,1.3,0,1.9c0.3,3,1.6,6.3,2.9,8c1.7,0.4,3.5-0.8,4.9-2c0.5-0.4,1.1-0.9,1.5-1.4
			c0.8-0.8,1-2,1.6-2.8c0.5-0.7,1.6-1.8,2.3-2.7c0.1-0.2,0.2-0.4,0.4-0.5c0.4-0.4,1.7-2.1,2.4-2.2c0.9,0,2.7,2.3,3.3,2.9
			c1.1,1.3,1.8,2.3,2.5,3.6c-0.4,1.7-1.1,3.2-2.3,4.1c-0.5,1.6-1.5,2.7-2.7,3.7c-1,2.6-2.7,4.5-4.8,6.1c-1.1,1.4-2.1,2.5-3.7,3.6
			c-1,0.7-1.9,1.3-3.2,1.6c-1.7,0.5-3.4,0.5-5.3-0.1c-2.3-0.8-4.6-1.9-6.2-3.4c-0.5-0.4-0.9-1.3-1.4-1.9c-0.8-1-1.1-1.3-1.6-2.4
			c-0.1-0.3-0.5-0.4-0.6-0.6c-1-2-1.2-3.9-2.3-5.7c-1.6-6.6-3.3-13.6-2.9-21.3c0.1-2.8,0.1-5.8,0.3-8.5c0.1-2.1,0.5-4.1,1-5.8
			c0.7-2.1,0.8-4.7,1.5-7c0.6-2,1.4-4.9,2.7-6.3c1.6-4.8,5.1-8.7,8.4-12.2c0.9-0.6,1.9-1.1,2.8-1.6c0.7,0.4,1.2-0.3,1.8-0.4
			c0.7-0.1,2.5,0,3.4,0.1c1.8,0.2,2.9,1.2,4.3,2.3c0.7,0.6,1.6,1.2,2,1.8c0.2,0.3,0.2,0.7,0.4,1c0.8,1,2.1,1.9,2.8,3
			c0.1,0.2,0.9,1.7,0.9,1.9C347.9,113,347.2,113.4,347.3,113.8z M344.9,110c-0.5-0.7-1.3-1.2-1.8-1.9c-0.3-0.4-0.2-1-0.5-1.4
			c-0.7-1.1-3.1-2.7-4.9-2.9c-2.9-0.3-4.7,0.3-6.6,1.1c-1.6,2.1-3.8,3.6-5.1,6.1c-8.4,16.3-10.9,42.4-2.9,59.8
			c1.2,2.6,4.1,5.9,6.3,7.2c3.8,2.1,7.8-0.2,10.4-2c1.2-2,3.7-3.4,5.5-5.6c1.2-1.5,1.7-3,2.9-4.6c0.9-1.2,2.9-3.2,2.9-4.6
			c0-0.9-1.2-2.4-1.8-3.3c-0.7-1.1-1.6-2-2.5-2.7c-2.7,2.4-4.8,6.6-7.6,9.1c-1,0.9-2.3,2.1-3.4,2.3c-1.6,0.3-4.4-1.5-5.3-2.5
			c-1.6-1.9-2-4.6-2.5-7.6c-0.1-0.5-0.4-1-0.5-1.5c-0.2-1.3,0-3.2-0.1-4.9c-0.5-8.8,0.8-16.9,2-24.6c0.8-2.1,1.8-3.6,2.8-5.3
			c1-1.7,2.1-3.6,5.2-2.7c0.7,0.2,1.3,1.1,2.2,1c0.7-0.1,1.6-1.5,2.3-2.2c1.6-1.6,2.8-2.6,4.4-3.8
			C345.7,111.7,345.4,110.8,344.9,110z"/>
		<path class="st4" d="M168.3,105.4c-1.1,2.4-3.1,3.8-4.4,6c-1.7,0.1-2.4-0.9-3.7-1.2c-3.4,1.7-2.9,7.1-2.7,11
			c1.4,3.2,8.6,0.9,11,2.7c-1.2,5-1.2,8.7-1.6,13.7c-1,0.8-2,0.1-3.1,0c-2.3-0.3-4.6-0.1-6.9-0.4c-1.4,2.4,0.6,7.8-0.3,11
			c0.6,0.9,0.5,6.8,0.7,8.2c0.1,0.5,1.7,23.2,0.7,24.1c-1.2,0.1-6.1,0.2-7.5,0.3c-1,0-4-0.8-4.8-0.2c-0.2,0.5,0-2.3-0.3-4.7
			c-0.1-0.8-1-30.6-1-31.5c0-1.3-0.4-2.5-0.3-3.9c0.1-1.3,0.3-3.2,0-4.6c-4.9-0.4-9.9,1-15.5,0.8c-0.8-3.7-0.4-7.3-0.3-10.9
			c0-1.5-0.5-3.8,1.1-4.4c1.2-0.4,4.3,0,5.2,0.1c1.5,0.1,3.2-0.2,4.8-0.1c2.3,0.1,4.7,1.2,5.8-1c-0.7-2.4-0.4-5-0.1-7.6
			c0.1-1.4,0.7-5.1,1-6c1-3.8,3.5-5.9,6.1-8.3c1.2,0.3,1.9-0.6,3-0.7c3.3-0.2,6.8,1.4,9.3,3.1C166.4,102.1,167.3,103.9,168.3,105.4z
			 M130.5,128c0.5,1.7-0.3,4.4,0.7,6.3c1.4,2,4.5,0.9,8.2,0.7c2.9-0.1,4.9-0.3,6.8-0.7c0.3,0.2,0.3,0.6,0.7,0.7c0.7,5,0.5,11,0,15.2
			c0.7,4.8,0.9,9.5,1.1,15.2c0.1,2.4-0.3,4.9-0.1,7.3c0.1,2.2,0.9,4.3,0.3,6.7c2,1,6.7,0.1,7.6-0.1c-0.6-6.8-0.1-15.5-0.6-21.8
			c0-0.6-0.2-1.5-0.3-2c-0.5-2.4-0.7-5.1-0.8-7.6c0-0.8,0.2-1.6,0.1-2.4c-0.3-3.2-1.1-7.4,0.6-9.1c4.1-0.3,6.8,0.5,10.6,0.3
			c-0.2-4.5,0.6-8.1,1.3-12.4c-4.4,0.1-7.1-0.4-11.3-0.8c-0.3-2.1-0.5-5-0.3-7.3c0.2-2.1,1.7-6.5,4.4-6.9c1.5-0.2,2.3,0.7,3.8,0.8
			c1.1-1.8,3.1-2.7,4.2-4.5c-0.9-0.4-0.9-1.3-1.4-1.9c-1.3-1.6-3.4-2.4-4.9-3.8c-3-0.2-5.6-1.5-7.6-0.1c-0.4,0.3-0.7,0.9-1.1,1.4
			c-0.4,0.5-1.1,0.8-1.4,1.2c-0.7,0.9-0.8,2.4-1.6,3c0,1.8-1.2,3.3-1.4,5c-0.2,1.3,0.2,2.7-0.4,3.9c0.5,0.8,0.3,1.9,0.3,3
			c0,1.7,0.3,3.9-0.6,5c-1.2,1.6-4.8,0.9-6.3,0.4c-3,0.2-6.4,0-9.7-0.3C130.2,123.7,131.6,126.8,130.5,128z"/>
		<path class="st4" d="M357.9,100.6c4.4-0.5,9.4-0.6,13.4-0.9c0.1,0.7,0.8,0,1,0.5c-0.4,2.6-0.1,5.7-0.6,8.3c0.8,3-0.2,6.4-0.4,9
			c-0.2,4.3,0.2,8.9-0.3,13.2c0.9,0.2,1.6-0.8,2-1.5c1.5-2,10.8-14.4,11.4-17c0.5,0,0.2-0.9,0.9-0.8c0.8-2.4,2.6-3.8,3.4-6.1
			c2.8,0.5,2.9,3.7,5.2,4.8c0.6,1,1.5,1.8,2.4,2.5c0.1,0.7,0.7,0.9,0.9,1.6c-0.9,2.3-21.7,28.4-22.3,29.8c1.6,2,2.9,4.2,4.8,5.8
			c1,2.2,3.3,3.1,4.3,5.3c2.1,1.7,3.3,4.3,5.6,5.8c0,0.5,0.5,0.5,0.5,1.1c1.5,0.8,2.3,2.4,2.9,4.1c0.8,0.3,1.2,0.9,1.8,1.5
			c-1.2,2.6-3.5,4.2-4.8,6.6c-1.2,0.3-1.3,1.7-2.4,2.1c-0.8-0.2-2.3-1.7-2.3-2.1c-4-4.4-7-9.9-10.8-14.6c-2.5-1.7-3.4-5-6.1-6.5
			c0.8,3.2,0.1,6.2,0.5,9.8c0.1,0.7-0.1,10.3,0.8,14c-0.2,0.5-0.2,1.7-0.8,2.1c-0.2,0.1-0.7,0-1.3,0c-0.7,0.1-1.4,0.4-1.8,0.4
			c-1.7,0.2-5.2,0-7.4,0.1c-1.3,0.1-2.6,0.6-3.3-0.5c0-8.1,0-14.4,0.5-23.4c-0.3-1-0.3-1.9,0.1-2.8c-0.1-3.9,0.2-9.4,0.1-14
			c0-1.8,0.5-3.6,0.5-5.4c0-0.3-0.1-0.5-0.1-0.8c0.1-2.2,0.6-4.3,0.1-5.8c0.3-4.2,0.2-8.3,0.1-12.9c0-2,0.3-4.2,0.3-6.4
			C356.9,104.9,356.9,102.5,357.9,100.6z M359.5,103.9c0.2,2.2-0.3,4.6-0.3,6.6c0.1,2.8,0,5.2,0.3,8.3c-0.6,1-0.2,1.8-0.1,2.5
			c0.2,1-0.1,1.7-0.1,2.6c0,0.6,0.2,1.4,0.1,2.1c-0.3,5.5-0.3,11.7-0.9,18.7c0.2,0.2,0.3,0.7,0.4,1.1c-0.9,3.1,0.1,6.6-0.9,9.9
			c0.1,2.5,0.4,4.9,0.1,7.7c-0.1,0.7-0.4,1.4-0.5,2.1c-0.5,4.3,0.3,9.1-0.4,12.7c0,0.1,0,0.2,0,0.3c2.1,0.6,4.4-0.3,6.2-0.1
			c1.3,0.1,3.3,0.4,4.2-0.7c-0.5-1.7-0.5-3.6-0.6-5.4c-0.3-5.6-1.7-22.4,0.4-22.4c0.5,0.1,0.3,1,0.6,1.2c3.1,1.3,5.1,4,7.1,6.2
			c0.3,0.4,0.7,0.6,1,0.9c0.3,0.3,0.5,0.8,0.8,1.2c1.2,1.4,2.8,2.6,3.9,4c1.8,2.1,2.8,4.8,4.7,6.9c0.5,1.4,1.4,2.4,2,3.7
			c1.2,0.1,1.2-0.7,1.6-1.3c0.4-0.5,1-0.6,1.3-1.1c0.2-0.3,0.1-0.7,0.3-0.9c0.8-1.1,2.1-1.5,2.2-2.8c-0.8-0.6-1.5-1.4-1.8-2.5
			c-1.1-0.6-1.5-2-2.8-2.4c-0.7-1.5-2.2-2.1-2.9-3.6c-1.5-1.3-2.9-2.9-4.2-4.2c-1.3-1.4-2.8-2.5-3.7-4.2c-1.1-0.4-1.8-1.8-2.8-3
			c-1-1.2-3-2.7-2.2-4.5c3.3-4.7,22-27.6,22.8-29.4c-0.4-0.5-1.2-0.6-1.1-1.6c-1.7-0.7-2-2.8-3.8-3.3c-0.3-0.8-0.7-1.3-1.3-1.9
			c-2.5,3.4-15.1,23.3-17.2,25c-0.5,1.1-0.8,2.4-1.8,3c-0.3-0.1-0.7-0.2-0.9-0.5c-0.4-4.3-0.8-8-0.8-11.8c0-2.6,0.1-4.9,0.3-7.6
			c0.4-4.6,0.2-9.8,1.4-14.6c-3.7,0.1-7.8,0-10.9,0.8C359.2,102.7,359.5,103.3,359.5,103.9z"/>
		<path class="st4" d="M281.2,101.2c2.2-0.2,4.6-0.7,7-0.7c1.9,0,4.1,0.3,5.8,0c0.5-0.1,0.9-0.5,1.4-0.6c1.1-0.2,2.4-0.1,3.5-0.3
			c0.7-0.1,1.4-0.3,2.1-0.4c0.3,1.4,1.5,3.2,0.7,4.8c1.1,4.2,2.4,13.1,2.4,13.5c1.1,1.2,8.2,53.5,8.2,57c0.7,1.2,1,2.1,1.1,3.5
			c-3.8,2.1-8.7,3.1-13.4,3.7c-1.8-3.7-3.1-8.2-3.8-13.1c-0.6-4-2.3-7.4-2.7-11.4c-1.2-2.8-2.6-14.2-3.4-17.5
			c-2,2.9-0.7,8.8-2.3,12.4c0.1,10.1-1.9,18.4-2.4,27.1c-2.8,0.7-6.1-0.1-9.4,0c-1.4,0-3.5-0.1-5.5,0c-0.2,0-0.2-0.1-0.4-0.1
			c0.6-5.6,1.1-10.9,1.8-16.4c0.2-1.7-0.2-3.6,0.7-5.4c1.2-12.4,2.9-25.7,5.4-38.5c0.3-1.6,0.3-3.1,0.6-4.7
			C279.4,109.7,280.2,105.4,281.2,101.2z M272,177.9c2.5,0.6,10.7,0.5,12.3,0.3c0.6-3.7,1-8.3,1.4-12.7c0.1-1.3,0.5-2.6,0.7-3.9
			c0.3-2.8,0-5.7,0.3-8.5c0.4-4,1.3-10.2,1.7-14.4c1.2-0.6,2.9-0.6,3.9,0c0.6,1.5,0.9,2.4,0.7,3.9c1,2.5,0.8,5.4,2,7.8
			c0.6,4.3,4.2,17,4.9,20.6c0.7,3.3,1.2,6,1.8,9c3.3,0.3,6.7-1.2,9.4-2.7c0.6-0.9-0.3-1.7-0.6-2.5c-0.6-2.2-0.3-4.9-1.3-7
			c-0.1-1.8-6.9-40.9-7.8-45.4c-0.6-3-1.4-6.1-1.7-9.3c-1.3-3.6-0.7-8.5-2.1-11.7c-1.8-0.3-3.7,0.7-5.8,0.8c-3.8,0.3-7.6-0.7-10.2,1
			c-0.2,2.7-1.2,5.3-1.6,7.9c-1.7,12.6-4.3,24.3-5.2,37.4c-0.8,3-1.1,7.6-1.6,11c-0.1,0.9-0.5,2-0.4,2.7c0.1,0.9-0.2,1.5-0.3,2.4
			C272.7,166.3,271.9,176.9,272,177.9z"/>
		<path class="st4" d="M289,119.4c1.8,0,1.4,1.7,1.6,3.1c0,0.2,0.4,2.6,0.4,3.7c0.1,1.7,0.4,5.4,0.3,6.1c-1.4,0.7-2.8-0.1-4.4,0.3
			c-0.7-4.1,1-11.9,1.8-13C288.8,119.5,288.9,119.5,289,119.4z M287.6,131.2c0.5,0.2,1.6,0.2,2.4,0.1c0.5-1.6-0.1-7.2-0.8-8.8
			C288.1,123.5,288.2,129.8,287.6,131.2z"/>
	</g>
</g>
</svg>
