<svg viewBox="0 0 349 54" fill="none" xmlns="http://www.w3.org/2000/svg"><path d="M27.032 25.37c0 6.289-4.598 10.28-11.924 10.28-3.27 0-6.012-1.191-7.625-3.33v2.67H.514v-.43l2.699-3.992V4.379L0 .431V0h11.367c8.425 0 12.067 2.47 12.067 7.81 0 3.906-3.128 6.95-8.054 7.955 6.869 0 11.638 3.948 11.638 9.62l.014-.015zM7.57 1.436V15.52h3.313c5.012 0 8.525-2.613 8.525-7.624 0-4.38-2.6-6.476-8.054-6.476H7.569v.015zm14.965 24.509c0-5.715-3.498-9.003-9.51-9.003H7.583v13.095c1.328 2.426 3.927 3.804 7.154 3.804 5.155 0 7.812-3.087 7.812-7.896m9.411 1.665v-6.475c0-3.475-.286-5.184-1.8-6.088l4.598-2.283h1.085v14.76c0 3.474 1.471 6.088 4.97 6.088 4.355 0 5.826-3.044 5.826-6.045v-6.432c0-3.475-.514-5.14-1.985-6.088l4.827-2.283h1.042v18.134l1.9 3.575v.517h-5.684v-2.384c-1.042 1.58-2.513 3.044-6.297 3.044-3.499 0-8.468-1.622-8.468-8.04m28.16 6.705l-2.456 1.005h-.614v-6.432h1.085c1.086 3.288 3.742 5.427 6.955 5.427 3.413 0 4.927-1.666 4.927-3.905 0-5.47-13.067-4.422-13.067-12.19 0-3.762 3.784-5.8 7.954-5.8s7.24 1.378 8.611 4.048l-4.313 3.188-.613-.431c.185-.474.328-1.048.328-1.522 0-1.91-1.185-4.049-4.17-4.049-2.128 0-3.927 1.235-3.927 3.575 0 5.758 13.452 4.566 13.452 12.233 0 4.135-3.984 6.188-8.811 6.188-2.27 0-4.17-.517-5.355-1.335m18.05.245l2.414-3.662V21.38c0-3.518-.857-5.14-2.37-6.145l5.154-2.814h1.086v18.464l2.37 3.661v.431h-8.668v-.43l.014.014zm.857-29.09l2.985-3.144 3.027 3.145-3.027 3.144-2.985-3.144zM91.15 34.56l2.27-3.662v-9.806c0-3.475-.856-5.14-2.37-6.088l5.213-2.283h1.042v3.374c1.471-2.326 3.841-3.66 6.769-3.66 2.927 0 7.954 1.579 7.954 8.097v10.38l2.271 3.662v.43h-8.426v-.43l2.271-3.661v-9.807c0-3.948-1.614-6.475-5.255-6.475-3.642 0-5.584 2.9-5.584 5.47v10.812l2.27 3.66v.432H91.15v-.445zm46.811-11.573h-16.622c.186 4.767 2.599 10.136 8.34 10.136 2.313 0 5.069-.99 6.726-3.805l1.371.575c-.243.517-2.185 5.757-9.04 5.757-6.854 0-11.881-4.853-11.881-11.902 0-4.092 2.185-11.228 11.125-11.329 6.34 0 9.981 3.575 9.981 9.807v.76zm-16.622-1.235l12.41-.718c-.043-4.566-2.699-7.38-5.912-7.38-4.113 0-6.255 3.518-6.484 8.098m23.905 12.563l-2.456 1.005h-.614v-6.432h1.085c1.086 3.288 3.742 5.427 6.955 5.427 3.413 0 4.927-1.666 4.927-3.905 0-5.47-13.067-4.422-13.067-12.19 0-3.762 3.784-5.8 7.954-5.8s7.24 1.378 8.611 4.048l-4.312 3.188-.614-.431c.185-.474.328-1.048.328-1.522 0-1.91-1.185-4.049-4.17-4.049-2.128 0-3.927 1.235-3.927 3.575 0 5.758 13.452 4.566 13.452 12.233 0 4.135-3.97 6.188-8.811 6.188-2.27 0-4.17-.517-5.355-1.335m21.421 0l-2.457 1.005h-.614v-6.432h1.086c1.085 3.288 3.742 5.427 6.955 5.427 3.412 0 4.926-1.666 4.926-3.905 0-5.47-13.067-4.422-13.067-12.19 0-3.762 3.784-5.8 7.955-5.8 4.168 0 7.239 1.378 8.61 4.048l-4.312 3.188-.615-.431c.186-.474.329-1.048.329-1.522 0-1.91-1.184-4.049-4.17-4.049-2.127 0-3.926 1.235-3.926 3.575 0 5.758 13.451 4.566 13.451 12.233 0 4.135-3.984 6.188-8.811 6.188-2.271 0-4.17-.517-5.355-1.335m26.082-16.138C192.732 7.237 199.829 0 209.968 0c4.598 0 12.781 2.096 15.337 9.806l-4.356 3.992c-.428-4.566-3.698-12.563-11.452-12.563s-12.353 5.815-12.353 14.99c0 10.38 5.584 17.516 13.724 17.516 5.769 0 9.796-3.374 11.024-7.28h1.328v9.19h-.657l-2.799-2.054c-1.556 1.235-4.641 2.714-9.61 2.714-10.325 0-17.422-7.423-17.422-18.134zm34.372 6.533c0-7.567 6.012-11.615 11.781-11.615 5.77 0 11.881 3.948 11.881 11.328 0 7.38-5.869 11.902-11.509 11.902-6.584 0-12.167-4.092-12.167-11.615h.014zm19.021.43c0-6.374-3.07-10.81-7.525-10.81-4.213 0-6.869 3.761-6.869 9.662 0 6.562 3.213 11.084 7.954 11.084 3.927 0 6.44-3.862 6.44-9.95m7.212 10.051l2.456-3.619V9.62c0-3.518-.857-5.14-2.371-6.145L258.635.66h1.042v30.898l2.371 3.662v.43h-8.711v-.473zm13.066 0l2.456-3.619V9.62c0-3.518-.856-5.14-2.37-6.145L271.701.66h1.043v30.898l2.37 3.662v.43h-8.711v-.473zm33.302-11.515h-16.622c.185 4.752 2.599 10.136 8.325 10.136 2.313 0 5.069-1.005 6.726-3.804l1.371.574c-.243.531-2.185 5.757-9.04 5.757-6.854 0-11.881-4.852-11.881-11.902 0-4.092 2.185-11.228 11.125-11.328 6.34 0 9.996 3.575 9.996 9.806v.761zm-16.622-1.235l12.395-.718c-.043-4.566-2.699-7.38-5.912-7.38-4.113 0-6.255 3.518-6.483 8.098zm42.54-3.905l-3.984-1.048c.514 1.048.8 2.24.8 3.517 0 4.954-3.742 8.285-9.183 8.285-1.142 0-2.184-.144-3.127-.431l-1.899 3.661c8.339.043 16.379.474 16.379 6.705 0 5.715-6.055 7.093-10.367 7.093-4.07 0-8.054-1.048-11.082-3.618l3.556-7.093c-1.428-.574-2.313-1.522-2.313-3.245 0-1.952 1.756-3.517 4.541-3.905-3.071-1.278-4.97-3.992-4.97-7.423 0-4.71 3.785-7.954 9.282-7.954 2.985 0 5.498 1.005 7.098 2.67l4.455-2.326h.8v5.097l.014.015zm-18.079 17.33a10.724 10.724 0 00-.471 3.187c0 3.704 2.599 5.858 7.426 5.858 2.313 0 6.869-.574 6.869-4.236 0-5.57-8.897-3.517-13.824-4.81zm10.839-13.712c0-4.666-2.228-7.81-5.541-7.81-2.842 0-4.784 2.282-4.784 5.714 0 4.522 2.414 7.896 5.684 7.896 2.799 0 4.641-2.34 4.641-5.815M349 23.662h-16.622c.185 4.752 2.599 10.136 8.325 10.136 2.313 0 5.07-1.005 6.726-3.804l1.371.574c-.243.531-2.185 5.757-9.039 5.757-6.855 0-11.881-4.852-11.881-11.902 0-4.092 2.17-11.228 11.124-11.328 6.34 0 9.982 3.575 9.982 9.806v.761H349zm-16.622-1.235l12.395-.718c-.043-4.566-2.699-7.38-5.912-7.38-4.127 0-6.255 3.518-6.483 8.098zM200.114 45.96h.586v3.675h5.055V45.96h.585v7.94h-.585v-3.72H200.7v3.72h-.586v-7.94zm14.766 0h5.627v.545h-5.041v3.116h4.526v.546h-4.526v3.187h5.098v.546h-5.684v-7.94zm13.752 0h.586v7.394h4.641v.546h-5.227v-7.94zm12.666 6.79l.386-.444c.871.804 1.671 1.177 2.827 1.177 1.157 0 2-.675 2-1.58v-.028c0-.833-.443-1.32-2.228-1.694-1.899-.388-2.656-1.034-2.656-2.24v-.029c0-1.177 1.071-2.082 2.542-2.082 1.157 0 1.899.316 2.713.962l-.371.46c-.743-.646-1.485-.89-2.356-.89-1.157 0-1.928.674-1.928 1.493 0 .861.428 1.378 2.299 1.752 1.828.373 2.599 1.033 2.599 2.196v.029c0 1.278-1.1 2.168-2.614 2.168-1.256 0-2.227-.416-3.184-1.278m14.566-6.762h-.586v7.94h.586v-7.94zm8.625 0h.557l5.44 6.92v-6.92h.572v7.94h-.443l-5.555-7.05v7.05h-.571v-7.94zm15.109 0h.585v5.226l5.041-5.226h.8l-3.456 3.503 3.599 4.437h-.771l-3.242-4.006-1.971 1.996v2.01h-.585v-7.94zm14.923 0h-.586v7.94h.586v-7.94z" fill="#69013B"></path></svg>