<svg xmlns="http://www.w3.org/2000/svg" viewBox="0 0 1119.0559 231.88613">
  <defs>
    <style>
      .cls-1 {
        fill: #ff6a48;
      }
    </style>
  </defs>
  <g id="Layer_2" data-name="Layer 2">
    <g id="Layer_1-2" data-name="Layer 1">
      <g>
        <path class="cls-1" d="M411.82265,144.24169a52.59541,52.59541,0,1,1-105.19081,0V67.89748h-35.049v76.34421a87.66263,87.66263,0,0,0,53.8225,80.87257c1.59137.66592,3.19809,1.2775,4.81742,1.84615a87.657,87.657,0,0,0,116.649-82.71872V67.89748h-35.049Z"/>
        <path class="cls-1" d="M63.96137,226.96041v.00827H99.00961v-72.809a52.62532,52.62532,0,0,1,74.33328-47.90282c19.03347,8.6416,30.85735,28.0695,30.85757,48.97286l.00075,71.7307h35.049v-72.794a87.5668,87.5668,0,0,0-87.64562-87.64444,88.6989,88.6989,0,0,0-15.5738,1.37556A86.68287,86.68287,0,0,0,99.00961,84.04309V0H23.07C10.81537,0,.10608,10.01408.00087,22.2683A22.25781,22.25781,0,0,0,7.45453,39.19244a21.88977,21.88977,0,0,0,18.06466,5.15373,23.462,23.462,0,0,0,11.62566-5.64643l20.0414-17.38536a4.093,4.093,0,0,1,6.77512,3.09184V226.96041Z"/>
        <path class="cls-1" d="M787.21906,185.21158,781.12149,201.015a5.72264,5.72264,0,0,1-10.678.00006l-6.0978-15.80343L720.38564,67.89748H682.95527l48.59749,129.689,11.33489,29.37391h65.791L819.95016,197.746l.03111-.07955,48.627-129.769H831.17911Z"/>
        <path class="cls-1" d="M622.69077,144.24169a52.62565,52.62565,0,0,1-48.8389,52.4052c-1.24639.0886-2.48885.1902-3.7569.1902a52.54507,52.54507,0,0,1-52.5958-52.5954V67.89748H482.44935v76.34421a87.66657,87.66657,0,0,0,53.82329,80.87257c1.591.66592,3.19809,1.2775,4.817,1.84615a87.18671,87.18671,0,0,0,29.00531,4.92572q1.88376,0,3.7569-.07877A87.64744,87.64744,0,0,0,657.739,144.24169V67.89748H622.69077Z"/>
        <path class="cls-1" d="M1082.88206,189.44574,1063.881,206.25937a4.093,4.093,0,0,1-6.80543-3.06528V70.89748h-31.04845V84.776a4.97227,4.97227,0,0,1-8.53719,3.4529l-.09521-.09537a83.14014,83.14014,0,0,0-59.14576-24.4986c-.06813,0-.13527.00394-.20359.00394-.06971,0-.13665-.00394-.20636-.00394a83.28942,83.28942,0,0,0-64.52553,30.3999,83.72355,83.72355,0,0,0,38.96877,132.92557,83.85279,83.85279,0,0,0,25.55676,3.96286c.06971,0,.13665-.00433.20636-.00433.06832,0,.13546.00433.20359.00433a83.19512,83.19512,0,0,0,59.14576-24.4986l.09521-.09537a4.97227,4.97227,0,0,1,8.53719,3.4529v17.17821h71.18485a21.84447,21.84447,0,0,0,21.844-21.84475h0a21.6161,21.6161,0,0,0-6.21326-15.26818,21.37314,21.37314,0,0,0-19.18442-5.86011A22.53253,22.53253,0,0,0,1082.88206,189.44574ZM958.0454,199.69963a52.421,52.421,0,1,1,52.20343-52.42052A52.48233,52.48233,0,0,1,958.0454,199.69963Z"/>
      </g>
    </g>
  </g>
</svg>
