<svg version="1.1" id="Livello_1" xmlns="http://www.w3.org/2000/svg" xmlns:xlink="http://www.w3.org/1999/xlink" x="0px" y="0px" viewBox="0 0 220 60" style="enable-background:new 0 0 220 60;" xml:space="preserve" width="200px" height="60px">
<style type="text/css">
	.st0{fill:#000000;}
</style>
<g>
	<path class="st0" d="M38.29,46.73c0.99,1.72,3.19,2.3,4.9,1.31c1.72-0.99,2.3-3.19,1.31-4.9c0,0,0,0,0-0.01l-8.97-15.53l-8.61-0.55
		L38.29,46.73C38.29,46.73,38.29,46.73,38.29,46.73z M52.28,51.22l25.06-43.3c1.37-2.37,3.31-4.2,5.56-5.42h-3.52
		c-4.65,0-8.7,2.53-10.88,6.28L46.06,47.63c-1.49,2.57-4.78,3.46-7.35,1.97c-0.85-0.49-1.51-1.18-1.97-1.97L25.38,27.95l-3.82,7.73
		l8.97,15.54c2.17,3.75,6.23,6.28,10.88,6.28C46.05,57.5,50.1,54.97,52.28,51.22z M92.81,13.27c-0.3-0.53-0.75-0.99-1.31-1.31
		c-1.72-0.99-3.91-0.4-4.9,1.31c-0.66,1.15-0.62,2.51,0,3.59v0l8.97,15.54l8.61,0.56L92.81,13.27L92.81,13.27z M100.6,8.78
		C98.43,5.03,94.37,2.5,89.73,2.5c-4.65,0-8.7,2.53-10.88,6.28l-25.06,43.3c-1.37,2.37-3.31,4.2-5.56,5.41h3.52
		c4.65,0,8.7-2.53,10.88-6.28l22.43-38.85c1.49-2.57,4.78-3.46,7.35-1.97c0.85,0.49,1.51,1.18,1.97,1.97l11.36,19.68l3.82-7.73
		L100.6,8.78z"></path>
	<g>
		<path class="st0" d="M118.12,43.61l1.11-3.59c0.43,0.36,0.89,0.52,1.57,0.52c1,0,1.64-0.61,1.64-2.04V22.47h5.16V38.5
			c0,3.63-1.78,5.96-6.16,5.96C119.87,44.45,119.05,44.2,118.12,43.61z M122.04,18.26c0-1.52,1.32-2.72,2.99-2.72
			c1.64,0,2.99,1.2,2.99,2.72c0,1.49-1.35,2.72-2.99,2.72C123.36,20.98,122.04,19.75,122.04,18.26z"></path>
		<path class="st0" d="M129.73,36.23l2.07-3.27c1.14,0.97,3.17,1.88,4.88,1.88c1.49,0,2.21-0.48,2.21-1.23
			c0-2.04-8.51-0.58-8.51-6.57c0-2.62,2.28-4.95,6.69-4.95c2.53,0,4.77,0.81,6.37,2.01l-2,3.24c-0.82-0.78-2.49-1.59-4.31-1.59
			c-1.14,0-1.96,0.49-1.96,1.13c0,1.81,8.62,0.58,8.62,6.6c0,2.92-2.67,5.02-6.98,5.02C133.82,38.5,131.23,37.56,129.73,36.23z"></path>
		<path class="st0" d="M156.11,38.11v-1.85c-1.1,1.52-2.71,2.23-4.31,2.23c-3.88,0-6.51-2.98-6.51-8.22c0-5.08,2.6-8.19,6.51-8.19
			c1.6,0,3.28,0.68,4.31,2.23v-7.8h5.13v21.59H156.11z M156.11,32.9v-5.24c-0.53-0.84-1.6-1.42-2.6-1.42
			c-1.89,0-2.96,1.65-2.96,4.05c0,2.43,1.07,4.08,2.96,4.08C154.51,34.36,155.58,33.77,156.11,32.9z"></path>
		<path class="st0" d="M174.63,38.11v-1.85c-1.1,1.52-2.71,2.23-4.31,2.23c-3.88,0-6.52-2.98-6.52-8.22c0-5.08,2.6-8.19,6.52-8.19
			c1.6,0,3.24,0.68,4.27,2.23v-1.85h5.16v15.64H174.63z M174.63,32.9v-5.21c-0.54-0.84-1.6-1.46-2.6-1.46
			c-1.89,0-2.96,1.65-2.96,4.05c0,2.43,1.07,4.08,2.96,4.08C173.03,34.36,174.09,33.77,174.63,32.9z"></path>
		<path class="st0" d="M183.85,40.08c0.28,0.17,0.75,0.23,1.07,0.23c0.96,0,1.6-0.26,1.89-0.9l0.39-1.04l-5.91-15.9h5.45l3.1,10
			l3.17-10h5.45l-6.73,17.97c-1.21,3.2-3.24,3.98-6.34,4.01c-0.57,0-1.75-0.09-2.28-0.26L183.85,40.08z"></path>
	</g>
</g>
</svg>