<?xml version="1.0" encoding="UTF-8"?>
<!-- Generated by Pixelmator Pro 3.6.15 -->
<svg width="800" height="315" viewBox="0 0 800 315" xmlns="http://www.w3.org/2000/svg">
    <path id="Path" fill="#fef502" stroke="none" d="M 0 0 L 0 279.220001 L 179.679993 279.220001 L 218.770004 314.440002 L 218.770004 279.220001 L 278.029999 279.220001 L 278.029999 0 L 0 0 Z"/>
    <path id="path1" fill="#000000" stroke="none" d="M 198.460007 248.639999 C 188.919998 248.639999 180.639999 247.130005 173.630005 244.110001 C 166.610001 241.089996 161.139999 236.710007 157.199997 230.970001 C 153.259995 225.229996 151.130005 218.339996 150.789993 210.300003 L 171.589996 210.300003 C 171.869995 214.850006 173.210007 218.619995 175.619995 221.610001 C 178.029999 224.610001 181.220001 226.869995 185.190002 228.389999 C 189.149994 229.919998 193.520004 230.679993 198.289993 230.679993 C 203.449997 230.679993 207.970001 229.899994 211.850006 228.350006 C 215.729996 226.800003 218.779999 224.610001 221 221.779999 C 223.220001 218.949997 224.330002 215.679993 224.330002 211.960007 C 224.330002 208.630005 223.389999 205.860001 221.5 203.639999 C 219.610001 201.419998 216.949997 199.580002 213.509995 198.110001 C 210.070007 196.639999 206.020004 195.300003 201.360001 194.080002 L 187.300003 190.419998 C 176.710007 187.699997 168.529999 183.649994 162.759995 178.270004 C 156.990005 172.889999 154.110001 165.869995 154.110001 157.220001 C 154.110001 149.949997 156.039993 143.600006 159.889999 138.169998 C 163.740005 132.740005 169.070007 128.509995 175.860001 125.480011 C 182.649994 122.459991 190.320007 120.949997 198.860001 120.949997 C 207.399994 120.949997 215.289993 122.480011 221.860001 125.529999 C 228.429993 128.580002 233.589996 132.779999 237.330002 138.130005 C 241.070007 143.479996 243.029999 149.679993 243.199997 156.720001 L 222.979996 156.720001 C 222.369995 151.059998 219.889999 146.669998 215.529999 143.529999 C 211.179993 140.399994 205.529999 138.830002 198.600006 138.830002 C 193.830002 138.830002 189.660004 139.570007 186.080002 141.029999 C 182.5 142.5 179.759995 144.539993 177.839996 147.139999 C 175.929993 149.75 174.970001 152.690002 174.970001 155.960007 C 174.970001 159.509995 176.050003 162.419998 178.210007 164.699997 C 180.369995 166.979996 183.130005 168.820007 186.490005 170.229996 C 189.850006 171.639999 193.300003 172.800003 196.850006 173.679993 L 208.75 176.759995 C 213.460007 177.809998 217.970001 179.270004 222.270004 181.130005 C 226.570007 182.990005 230.440002 185.289993 233.880005 188.039993 C 237.320007 190.789993 240.039993 194.130005 242.029999 198.070007 C 244.029999 202.009995 245.029999 206.610001 245.029999 211.880005 C 245.029999 219.089996 243.190002 225.470001 239.5 231.020004 C 235.809998 236.570007 230.5 240.889999 223.570007 244 C 216.639999 247.110001 208.259995 248.660004 198.440002 248.660004 L 198.460007 248.639999 Z"/>
    <path id="path2" fill="#000000" stroke="none" d="M 119.160004 122.76001 L 119.160004 196.009995 C 119.160004 213.850006 104.650002 228.360001 86.809799 228.360001 C 80.539803 228.360001 74.509804 226.520004 69.359802 223.220001 L 56.5298 238.509995 C 65.269798 244.729996 75.819801 248.229996 86.809799 248.229996 C 115.599998 248.229996 139.029999 224.809998 139.029999 196.009995 L 139.029999 122.76001 L 119.169998 122.76001 L 119.160004 122.76001 Z"/>
    <path id="path3" fill="#f0c814" stroke="none" d="M 110.910004 122.76001 L 90.929703 122.76001 L 90.929703 142.619995 L 110.910004 142.619995 L 110.910004 122.76001 Z"/>
    <path id="path4" fill="#f0c814" stroke="none" d="M 82.679703 122.76001 L 62.699699 122.76001 L 62.699699 142.619995 L 82.679703 142.619995 L 82.679703 122.76001 Z"/>
    <path id="path5" fill="#f0c814" stroke="none" d="M 54.449799 122.76001 L 34.589802 122.76001 L 34.589802 142.619995 L 54.449799 142.619995 L 54.449799 122.76001 Z"/>
    <path id="path6" fill="#f0c814" stroke="none" d="M 54.449799 150.869995 L 34.589802 150.869995 L 34.589802 170.729996 L 54.449799 170.729996 L 54.449799 150.869995 Z"/>
    <path id="path7" fill="#f0c814" stroke="none" d="M 54.5098 197.509995 C 54.489799 197.009995 54.449799 196.509995 54.449799 196 L 54.449799 178.970001 L 34.589802 178.970001 L 34.589802 196 C 34.589802 197.669998 34.699799 199.330002 34.8498 200.970001 L 54.5098 197.5 L 54.5098 197.509995 Z"/>
    <path id="path8" fill="#f0c814" stroke="none" d="M 55.909801 205.639999 L 36.2798 209.100006 C 37.819801 215.059998 40.389801 220.720001 43.969799 225.860001 C 45.8298 228.520004 47.9198 230.979996 50.1898 233.220001 L 63.0298 217.919998 C 62.039799 216.850006 60.2598 214.490005 60.2598 214.490005 C 58.3498 211.75 56.889801 208.770004 55.9198 205.639999 L 55.909801 205.639999 Z"/>
    <path id="path9" fill="#000000" stroke="none" d="M 72.690002 179.380005 C 77.086197 179.380005 80.650002 175.815994 80.650002 171.419998 C 80.650002 167.024002 77.086197 163.460007 72.690002 163.460007 C 68.2938 163.460007 64.730003 167.024002 64.730003 171.419998 C 64.730003 175.815994 68.2938 179.380005 72.690002 179.380005 Z"/>
    <path id="path10" fill="#000000" stroke="none" d="M 100.919998 179.380005 C 105.316002 179.380005 108.879997 175.815994 108.879997 171.419998 C 108.879997 167.024002 105.316002 163.460007 100.919998 163.460007 C 96.523804 163.460007 92.959999 167.024002 92.959999 171.419998 C 92.959999 175.815994 96.523804 179.380005 100.919998 179.380005 Z"/>
    <path id="path11" fill="#000000" stroke="none" d="M 86.8097 215.740005 C 78.369698 215.740005 70.929703 210.039993 68.7397 201.880005 L 77.589699 199.5 C 78.709702 203.660004 82.499702 206.570007 86.8097 206.570007 C 91.119698 206.570007 94.899696 203.660004 96.009804 199.509995 L 104.870003 201.869995 C 102.690002 210.039993 95.269699 215.740005 86.8097 215.740005 Z"/>
    <path id="path12" fill="#000000" stroke="none" d="M 312.630005 246.720001 L 312.630005 122.76001 L 336.339996 122.76001 L 379.850006 191.899994 C 381.350006 194.229996 383.320007 197.529999 385.76001 201.800003 C 388.200012 206.070007 390.670013 210.429993 393.160004 214.860001 C 392.98999 210.199997 392.869995 205.559998 392.790009 200.929993 C 392.709991 196.300003 392.660004 192.759995 392.660004 190.320007 L 392.660004 122.769989 L 414.709991 122.769989 L 414.709991 246.729996 L 390.920013 246.729996 L 351.649994 184.5 C 349.869995 181.729996 347.429993 177.720001 344.329987 172.479996 C 341.220001 167.240005 337.779999 161.259995 334.01001 154.550003 C 334.290009 161.429993 334.450012 167.449997 334.51001 172.600006 C 334.559998 177.759995 334.589996 181.699997 334.589996 184.410004 L 334.589996 246.720001 L 312.630005 246.720001 Z"/>
    <path id="path13" fill="#000000" stroke="none" d="M 459.429993 248.130005 C 450.670013 248.130005 443.410004 245.929993 437.670013 241.520004 C 431.929993 237.110001 429.059998 230.520004 429.059998 221.759995 C 429.059998 215.100006 430.679993 209.960007 433.929993 206.330002 C 437.170013 202.699997 441.420013 200.050003 446.660004 198.380005 C 451.899994 196.710007 457.540009 195.580002 463.589996 194.970001 C 471.73999 194.029999 477.429993 193.199997 480.640015 192.470001 C 483.859985 191.75 485.470001 189.889999 485.470001 186.899994 L 485.470001 186.229996 C 485.470001 182.460007 484.040009 179.380005 481.190002 177 C 478.329987 174.619995 474.410004 173.419998 469.420013 173.419998 C 464.429993 173.419998 460.170013 174.610001 456.980011 177 C 453.790009 179.389999 452.059998 182.440002 451.779999 186.149994 L 431.559998 186.149994 C 432.059998 177.440002 435.690002 170.429993 442.459991 165.100006 C 449.220001 159.779999 458.350006 157.110001 469.829987 157.110001 C 481.309998 157.110001 490.179993 159.770004 496.619995 165.100006 C 503.049988 170.419998 506.269989 177.660004 506.269989 186.809998 L 506.269989 246.710007 L 485.640015 246.710007 L 485.640015 234.309998 L 485.309998 234.309998 C 483.200012 238.190002 480.149994 241.460007 476.160004 244.130005 C 472.170013 246.800003 466.589996 248.119995 459.440002 248.119995 L 459.429993 248.130005 Z M 464.589996 232.570007 C 471.470001 232.570007 476.679993 230.779999 480.230011 227.199997 C 483.779999 223.619995 485.549988 219.279999 485.549988 214.179993 L 485.549988 204.699997 C 484.269989 205.529999 481.799988 206.300003 478.140015 206.990005 C 474.480011 207.679993 470.48999 208.360001 466.160004 209.029999 C 461.670013 209.699997 457.769989 210.960007 454.470001 212.820007 C 451.170013 214.679993 449.519989 217.600006 449.519989 221.600006 C 449.519989 225.039993 450.880005 227.729996 453.600006 229.669998 C 456.320007 231.610001 459.980011 232.580002 464.579987 232.580002 L 464.589996 232.570007 Z"/>
    <path id="path14" fill="#000000" stroke="none" d="M 570.099976 158.860001 L 570.099976 175.75 L 552.210022 175.75 L 552.210022 221.509995 C 552.210022 224.669998 552.849976 226.850006 554.119995 228.039993 C 555.400024 229.229996 557.719971 229.830002 561.109985 229.830002 L 570.099976 229.830002 L 570.099976 246.720001 L 557.450012 246.720001 C 548.52002 246.720001 541.909973 244.919998 537.609985 241.309998 C 533.309998 237.710007 531.159973 232.130005 531.159973 224.589996 L 531.159973 175.75 L 515.849976 175.75 L 515.849976 158.860001 L 531.159973 158.860001 L 531.159973 134.899994 L 552.210022 134.899994 L 552.210022 158.860001 L 570.099976 158.860001 Z"/>
    <path id="path15" fill="#000000" stroke="none" d="M 596.419983 145.800003 C 592.809998 145.800003 589.820007 144.649994 587.429993 142.350006 C 585.039978 140.050003 583.849976 137.210007 583.849976 133.820007 C 583.849976 130.429993 585.039978 127.610001 587.429993 125.330002 C 589.809998 123.059998 592.809998 121.919998 596.419983 121.919998 C 600.030029 121.919998 602.940002 123.059998 605.320007 125.330002 C 607.700012 127.610001 608.900024 130.429993 608.900024 133.820007 C 608.900024 137.210007 607.710022 140.050003 605.320007 142.350006 C 602.940002 144.649994 599.969971 145.800003 596.419983 145.800003 Z M 585.940002 246.720001 L 585.940002 158.869995 L 606.909973 158.869995 L 606.909973 246.720001 L 585.940002 246.720001 Z"/>
    <path id="path16" fill="#000000" stroke="none" d="M 664.02002 248.710007 C 655.369995 248.710007 647.799988 246.779999 641.309998 242.929993 C 634.820007 239.080002 629.76001 233.710007 626.130005 226.830002 C 622.5 219.949997 620.679993 211.970001 620.679993 202.869995 C 620.679993 193.770004 622.5 185.770004 626.130005 178.869995 C 629.76001 171.960007 634.820007 166.570007 641.309998 162.690002 C 647.799988 158.809998 655.369995 156.869995 664.02002 156.869995 C 672.669983 156.869995 680.169983 158.809998 686.690002 162.690002 C 693.210022 166.570007 698.280029 171.970001 701.919983 178.869995 C 705.549988 185.779999 707.369995 193.779999 707.369995 202.869995 C 707.369995 211.960007 705.549988 219.949997 701.919983 226.830002 C 698.289978 233.710007 693.210022 239.070007 686.690002 242.929993 C 680.169983 246.789993 672.619995 248.710007 664.02002 248.710007 Z M 664.02002 231.160004 C 670.72998 231.160004 676.080017 228.639999 680.080017 223.589996 C 684.070007 218.539993 686.070007 211.639999 686.070007 202.869995 C 686.070007 194.100006 684.070007 187.169998 680.080017 182.070007 C 676.090027 176.970001 670.72998 174.419998 664.02002 174.419998 C 657.309998 174.419998 651.869995 176.960007 647.880005 182.029999 C 643.890015 187.100006 641.890015 194.050003 641.890015 202.869995 C 641.890015 211.690002 643.890015 218.539993 647.880005 223.589996 C 651.869995 228.639999 657.25 231.160004 664.02002 231.160004 Z"/>
    <path id="path17" fill="#000000" stroke="none" d="M 742.01001 197.050003 L 742.01001 246.720001 L 721.039978 246.720001 L 721.039978 158.869995 L 741.669983 158.869995 L 741.669983 172.350006 C 747.77002 162.199997 756.76001 157.130005 768.630005 157.130005 C 777.840027 157.130005 785.369995 160.100006 791.219971 166.029999 C 797.070007 171.970001 800 180.559998 800 191.820007 L 800 246.729996 L 778.950012 246.729996 L 778.950012 195.149994 C 778.950012 188.720001 777.400024 183.839996 774.289978 180.509995 C 771.179993 177.179993 766.830017 175.520004 761.22998 175.520004 C 755.630005 175.520004 751.159973 177.240005 747.5 180.679993 C 743.840027 184.119995 742.01001 189.580002 742.01001 197.070007 L 742.01001 197.050003 Z"/>
</svg>
