<svg width="472" height="239" viewBox="0 0 472 239" fill="none" xmlns="http://www.w3.org/2000/svg">
<path d="M56.3945 111V47.5869H75.0273V74.4814H75.3789L94.9785 47.5869H114.534L93.6602 75.7119L115.501 111H93.8359L79.9932 87.665L75.0273 94.3887V111H56.3945ZM139.221 112.055C123.313 112.055 113.733 102.914 113.733 86.7861V86.6982C113.733 70.8779 123.664 61.4297 139.221 61.4297C154.821 61.4297 164.753 70.7461 164.753 86.6982V86.7861C164.753 102.958 155.085 112.055 139.221 112.055ZM139.265 98.6953C143.747 98.6953 146.472 94.4326 146.472 86.7861V86.6982C146.472 79.1836 143.615 74.7891 139.221 74.7891C134.782 74.7891 132.014 79.1836 132.014 86.6982V86.7861C132.014 94.4766 134.695 98.6953 139.265 98.6953ZM169.884 111V62.4844H187.902V71.4932H188.253C190.626 64.9453 195.592 61.4297 202.931 61.4297C213.61 61.4297 219.586 68.1973 219.586 79.8428V111H201.569V83.7979C201.569 78.9199 199.284 75.9316 194.757 75.9316C190.495 75.9316 187.902 79.2275 187.902 83.7539V111H169.884ZM250.337 127.436C235.704 127.436 226.475 121.107 225.552 112.714L225.508 112.318H242.823L242.911 112.538C243.482 113.9 245.943 115.922 250.469 115.922C255.655 115.922 258.16 113.505 258.16 110.077V101.464H257.808C255.567 106.298 250.294 109.242 243.262 109.242C231.177 109.242 224.454 100.937 224.454 85.9951V85.9512C224.454 70.0869 231.265 61.4297 243.482 61.4297C250.337 61.4297 255.479 64.9453 257.764 70.8779H258.16V62.4844H276.177V109.638C276.177 120.053 266.246 127.436 250.337 127.436ZM250.469 97.2012C255.215 97.2012 258.248 93.334 258.248 86.6104V86.5664C258.248 79.7988 255.171 75.9316 250.469 75.9316C245.811 75.9316 242.735 79.7988 242.735 86.5225V86.5664C242.735 93.2021 245.767 97.2012 250.469 97.2012ZM282.627 111V62.4844H300.644V71.1855H300.996C302.226 64.8574 305.962 61.4297 311.762 61.4297C313.301 61.4297 314.751 61.6494 316.113 62.1328V77.2939C314.575 76.6348 312.729 76.2832 310.884 76.2832C304.116 76.2832 300.644 79.7109 300.644 86.4785V111H282.627ZM343.173 112.055C327.44 112.055 317.86 102.519 317.86 86.7422V86.6982C317.86 70.9219 327.44 61.4297 342.602 61.4297C357.719 61.4297 367.387 70.9219 367.387 85.6875V90.7852H335.438C335.614 96.3662 338.603 99.6621 343.524 99.6621C348.271 99.6621 350.6 96.8057 351.083 95.3994L351.127 95.2676H367.167L367.035 95.8389C365.585 102.167 360.048 112.055 343.173 112.055ZM343.085 73.8223C339.174 73.8223 336.449 76.2832 335.658 80.5898H350.512C349.721 76.2832 346.996 73.8223 343.085 73.8223ZM394.93 112.055C379.637 112.055 371.639 105.507 370.54 95.8389L370.496 95.4434H387.899L387.987 95.7949C388.69 98.6074 390.887 100.277 394.93 100.277C398.402 100.277 400.555 99.0908 400.555 97.1572V97.1133C400.555 95.3555 399.105 94.3447 395.106 93.5977L386.317 91.9717C376.693 90.2139 371.595 85.0723 371.595 77.5576V77.5137C371.595 67.4502 380.164 61.4297 394.271 61.4297C409.3 61.4297 416.946 68.9004 416.946 77.7334V78.041H400.599L400.555 77.6455C400.291 75.3604 398.138 73.207 394.271 73.207C390.975 73.207 388.821 74.4375 388.821 76.5029V76.5469C388.821 78.2607 390.052 79.2275 394.446 80.0625L403.236 81.6885C413.695 83.6221 418.397 87.709 418.397 95.0479V95.0918C418.397 105.551 408.992 112.055 394.93 112.055ZM56.3945 192V128.587H71.9072L94.3193 161.019H94.627V128.587H113.26V192H97.9229L75.335 159.041H75.0273V192H56.3945ZM144.67 193.055C128.938 193.055 119.358 183.519 119.358 167.742V167.698C119.358 151.922 128.938 142.43 144.099 142.43C159.216 142.43 168.884 151.922 168.884 166.688V171.785H136.936C137.112 177.366 140.1 180.662 145.022 180.662C149.768 180.662 152.097 177.806 152.58 176.399L152.624 176.268H168.664L168.532 176.839C167.082 183.167 161.545 193.055 144.67 193.055ZM144.582 154.822C140.671 154.822 137.946 157.283 137.155 161.59H152.009C151.218 157.283 148.493 154.822 144.582 154.822ZM170.587 192L184.562 167.918L170.543 143.484H190.934L196.867 158.206H197.218L203.107 143.484H222.487L208.468 167.566L222.487 192H203.063L196.12 176.751H195.768L189.088 192H170.587ZM248.448 193.055C235.879 193.055 230.211 188.748 230.211 177.322V156.492H223.795V143.484H230.211V132.85H248.228V143.484H256.754V156.492H248.228V174.554C248.228 178.465 249.986 180.047 253.677 180.047C255.04 180.047 255.787 179.959 256.754 179.827V192.396C254.82 192.747 252.271 193.055 248.448 193.055ZM270.849 192.879C265.708 192.879 261.621 188.792 261.621 183.65C261.621 178.509 265.708 174.422 270.849 174.422C275.991 174.422 280.078 178.509 280.078 183.65C280.078 188.792 275.991 192.879 270.849 192.879ZM294.789 139.134C289.735 139.134 285.868 135.223 285.868 130.564C285.868 125.906 289.735 121.995 294.789 121.995C299.843 121.995 303.71 125.906 303.71 130.564C303.71 135.223 299.843 139.134 294.789 139.134ZM284.198 207.645C282.353 207.645 279.716 207.513 278.661 207.381V194.812C279.188 194.9 279.936 194.944 280.727 194.944C284.242 194.944 285.78 193.802 285.78 191.209V143.484H303.798V192.044C303.798 201.888 296.547 207.645 284.198 207.645ZM332.615 193.055C317.322 193.055 309.324 186.507 308.226 176.839L308.182 176.443H325.584L325.672 176.795C326.375 179.607 328.572 181.277 332.615 181.277C336.087 181.277 338.24 180.091 338.24 178.157V178.113C338.24 176.355 336.79 175.345 332.791 174.598L324.002 172.972C314.378 171.214 309.28 166.072 309.28 158.558V158.514C309.28 148.45 317.85 142.43 331.956 142.43C346.986 142.43 354.632 149.9 354.632 158.733V159.041H338.284L338.24 158.646C337.977 156.36 335.823 154.207 331.956 154.207C328.66 154.207 326.507 155.438 326.507 157.503V157.547C326.507 159.261 327.738 160.228 332.132 161.062L340.921 162.688C351.38 164.622 356.082 168.709 356.082 176.048V176.092C356.082 186.551 346.678 193.055 332.615 193.055Z" fill="url(#paint0_linear_64_2317)"/>
<defs>
<linearGradient id="paint0_linear_64_2317" x1="52" y1="119.5" x2="420" y2="119.5" gradientUnits="userSpaceOnUse">
<stop stop-color="#0647FF"/>
<stop offset="0.28125" stop-color="#C51292"/>
<stop offset="0.536458" stop-color="#FD036D"/>
<stop offset="0.755208" stop-color="#FE841F"/>
<stop offset="1" stop-color="#FE841F"/>
</linearGradient>
</defs>
</svg>
