<svg width="790" height="157" viewBox="0 0 790 157" fill="none" xmlns="http://www.w3.org/2000/svg">
<mask id="mask0_64_24" style="mask-type:alpha" maskUnits="userSpaceOnUse" x="0" y="0" width="790" height="157">
<rect width="790" height="157" fill="white"/>
</mask>
<g mask="url(#mask0_64_24)">
<path d="M54.5855 111V47.5869H73.2184V74.4814H73.5699L93.1695 47.5869H112.725L91.8512 75.7119L113.692 111H92.0269L78.1842 87.665L73.2184 94.3887V111H54.5855ZM137.412 112.055C121.504 112.055 111.924 102.914 111.924 86.7861V86.6982C111.924 70.8779 121.855 61.4297 137.412 61.4297C153.012 61.4297 162.944 70.7461 162.944 86.6982V86.7861C162.944 102.958 153.276 112.055 137.412 112.055ZM137.456 98.6953C141.938 98.6953 144.663 94.4326 144.663 86.7861V86.6982C144.663 79.1836 141.806 74.7891 137.412 74.7891C132.973 74.7891 130.205 79.1836 130.205 86.6982V86.7861C130.205 94.4766 132.886 98.6953 137.456 98.6953ZM168.075 111V62.4844H186.093V71.4932H186.444C188.817 64.9453 193.783 61.4297 201.122 61.4297C211.801 61.4297 217.777 68.1973 217.777 79.8428V111H199.76V83.7979C199.76 78.9199 197.475 75.9316 192.948 75.9316C188.686 75.9316 186.093 79.2275 186.093 83.7539V111H168.075ZM248.529 127.436C233.895 127.436 224.666 121.107 223.743 112.714L223.699 112.318H241.014L241.102 112.538C241.673 113.9 244.134 115.922 248.66 115.922C253.846 115.922 256.351 113.505 256.351 110.077V101.464H255.999C253.758 106.298 248.485 109.242 241.453 109.242C229.368 109.242 222.645 100.937 222.645 85.9951V85.9512C222.645 70.0869 229.456 61.4297 241.673 61.4297C248.529 61.4297 253.67 64.9453 255.955 70.8779H256.351V62.4844H274.368V109.638C274.368 120.053 264.437 127.436 248.529 127.436ZM248.66 97.2012C253.406 97.2012 256.439 93.334 256.439 86.6104V86.5664C256.439 79.7988 253.362 75.9316 248.66 75.9316C244.002 75.9316 240.926 79.7988 240.926 86.5225V86.5664C240.926 93.2021 243.958 97.2012 248.66 97.2012ZM280.818 111V62.4844H298.835V71.1855H299.187C300.417 64.8574 304.153 61.4297 309.954 61.4297C311.492 61.4297 312.942 61.6494 314.304 62.1328V77.2939C312.766 76.6348 310.92 76.2832 309.075 76.2832C302.307 76.2832 298.835 79.7109 298.835 86.4785V111H280.818ZM341.364 112.055C325.631 112.055 316.051 102.519 316.051 86.7422V86.6982C316.051 70.9219 325.631 61.4297 340.793 61.4297C355.91 61.4297 365.578 70.9219 365.578 85.6875V90.7852H333.629C333.805 96.3662 336.794 99.6621 341.715 99.6621C346.462 99.6621 348.791 96.8057 349.274 95.3994L349.318 95.2676H365.358L365.226 95.8389C363.776 102.167 358.239 112.055 341.364 112.055ZM341.276 73.8223C337.365 73.8223 334.64 76.2832 333.849 80.5898H348.703C347.912 76.2832 345.187 73.8223 341.276 73.8223ZM393.121 112.055C377.828 112.055 369.83 105.507 368.731 95.8389L368.687 95.4434H386.09L386.178 95.7949C386.881 98.6074 389.078 100.277 393.121 100.277C396.593 100.277 398.746 99.0908 398.746 97.1572V97.1133C398.746 95.3555 397.296 94.3447 393.297 93.5977L384.508 91.9717C374.884 90.2139 369.786 85.0723 369.786 77.5576V77.5137C369.786 67.4502 378.355 61.4297 392.462 61.4297C407.491 61.4297 415.137 68.9004 415.137 77.7334V78.041H398.79L398.746 77.6455C398.482 75.3604 396.329 73.207 392.462 73.207C389.166 73.207 387.012 74.4375 387.012 76.5029V76.5469C387.012 78.2607 388.243 79.2275 392.637 80.0625L401.427 81.6885C411.886 83.6221 416.588 87.709 416.588 95.0479V95.0918C416.588 105.551 407.183 112.055 393.121 112.055ZM438.671 111V47.5869H454.184L476.596 80.0186H476.904V47.5869H495.536V111H480.199L457.612 78.041H457.304V111H438.671ZM526.947 112.055C511.214 112.055 501.634 102.519 501.634 86.7422V86.6982C501.634 70.9219 511.214 61.4297 526.375 61.4297C541.493 61.4297 551.161 70.9219 551.161 85.6875V90.7852H519.212C519.388 96.3662 522.376 99.6621 527.298 99.6621C532.044 99.6621 534.373 96.8057 534.857 95.3994L534.901 95.2676H550.941L550.809 95.8389C549.359 102.167 543.822 112.055 526.947 112.055ZM526.859 73.8223C522.948 73.8223 520.223 76.2832 519.432 80.5898H534.286C533.495 76.2832 530.77 73.8223 526.859 73.8223ZM552.864 111L566.838 86.918L552.82 62.4844H573.211L579.143 77.2061H579.495L585.383 62.4844H604.763L590.745 86.5664L604.763 111H585.339L578.396 95.751H578.045L571.365 111H552.864ZM630.724 112.055C618.156 112.055 612.487 107.748 612.487 96.3223V75.4922H606.071V62.4844H612.487V51.8496H630.505V62.4844H639.03V75.4922H630.505V93.5537C630.505 97.4648 632.262 99.0469 635.954 99.0469C637.316 99.0469 638.063 98.959 639.03 98.8271V111.396C637.096 111.747 634.548 112.055 630.724 112.055ZM653.126 111.879C647.984 111.879 643.897 107.792 643.897 102.65C643.897 97.5088 647.984 93.4219 653.126 93.4219C658.268 93.4219 662.354 97.5088 662.354 102.65C662.354 107.792 658.268 111.879 653.126 111.879ZM677.066 58.1338C672.012 58.1338 668.145 54.2227 668.145 49.5645C668.145 44.9062 672.012 40.9951 677.066 40.9951C682.119 40.9951 685.987 44.9062 685.987 49.5645C685.987 54.2227 682.119 58.1338 677.066 58.1338ZM666.475 126.645C664.629 126.645 661.992 126.513 660.938 126.381V113.812C661.465 113.9 662.212 113.944 663.003 113.944C666.519 113.944 668.057 112.802 668.057 110.209V62.4844H686.074V111.044C686.074 120.888 678.823 126.645 666.475 126.645ZM714.892 112.055C699.599 112.055 691.601 105.507 690.502 95.8389L690.458 95.4434H707.861L707.949 95.7949C708.652 98.6074 710.849 100.277 714.892 100.277C718.364 100.277 720.517 99.0908 720.517 97.1572V97.1133C720.517 95.3555 719.067 94.3447 715.068 93.5977L706.279 91.9717C696.655 90.2139 691.557 85.0723 691.557 77.5576V77.5137C691.557 67.4502 700.126 61.4297 714.233 61.4297C729.262 61.4297 736.909 68.9004 736.909 77.7334V78.041H720.561L720.517 77.6455C720.253 75.3604 718.1 73.207 714.233 73.207C710.937 73.207 708.784 74.4375 708.784 76.5029V76.5469C708.784 78.2607 710.014 79.2275 714.409 80.0625L723.198 81.6885C733.657 83.6221 738.359 87.709 738.359 95.0479V95.0918C738.359 105.551 728.954 112.055 714.892 112.055Z" fill="url(#paint0_linear_64_24)"/>
</g>
<defs>
<linearGradient id="paint0_linear_64_24" x1="50" y1="78.9999" x2="740" y2="79" gradientUnits="userSpaceOnUse">
<stop stop-color="#0647FF"/>
<stop offset="0.28125" stop-color="#C51292"/>
<stop offset="0.536458" stop-color="#FD036D"/>
<stop offset="0.755208" stop-color="#FE841F"/>
<stop offset="1" stop-color="#FE841F"/>
</linearGradient>
</defs>
</svg>
