<?xml version="1.0" encoding="UTF-8" standalone="no"?><!DOCTYPE svg PUBLIC "-//W3C//DTD SVG 1.1//EN" "http://www.w3.org/Graphics/SVG/1.1/DTD/svg11.dtd"><svg width="100%" height="100%" viewBox="0 0 842 596" version="1.1" xmlns="http://www.w3.org/2000/svg" xmlns:xlink="http://www.w3.org/1999/xlink" xml:space="preserve" xmlns:serif="http://www.serif.com/" style="fill-rule:evenodd;clip-rule:evenodd;stroke-linecap:round;stroke-miterlimit:10;"><g id="Layer-1" serif:id="Layer 1"><g transform="matrix(0.30167,-0.953412,0.953412,0.30167,7.85374,153.127)"><text x="-25.41px" y="165.478px" style="font-family:'ProximaNova-Bold', 'Proxima Nova';font-weight:700;font-size:30.617px;fill:#00a1c7;">K</text></g><g transform="matrix(0.472656,-0.881247,0.881247,0.472656,-5.55253,133.125)"><text x="20.279px" y="184.178px" style="font-family:'ProximaNova-Bold', 'Proxima Nova';font-weight:700;font-size:30.617px;fill:#00a1c7;">O</text></g><g transform="matrix(0.642949,-0.765909,0.765909,0.642949,-15.8097,108.491)"><text x="76.368px" y="194.193px" style="font-family:'ProximaNova-Bold', 'Proxima Nova';font-weight:700;font-size:30.617px;fill:#00a1c7;">O</text></g><g transform="matrix(0.782892,-0.622158,0.622158,0.782892,-20.7521,82.9359)"><text x="132.752px" y="192.69px" style="font-family:'ProximaNova-Bold', 'Proxima Nova';font-weight:700;font-size:30.617px;fill:#00a1c7;">D</text></g><g transform="matrix(0.868947,-0.494906,0.494906,0.868947,-21.0247,63.0072)"><text x="181.192px" y="184.044px" style="font-family:'ProximaNova-Bold', 'Proxima Nova';font-weight:700;font-size:30.617px;fill:#00a1c7;">I</text></g><g transform="matrix(0.933685,-0.358094,0.358094,0.933685,-18.3048,43.5595)"><text x="214.031px" y="169.396px" style="font-family:'ProximaNova-Bold', 'Proxima Nova';font-weight:700;font-size:30.617px;fill:#00a1c7;">A</text></g><g transform="matrix(0.997211,-0.0746305,0.0746305,0.997211,-5.01139,8.29275)"><text x="282.446px" y="125.487px" style="font-family:'ProximaNova-Bold', 'Proxima Nova';font-weight:700;font-size:30.617px;fill:#00a1c7;">S</text></g><g transform="matrix(0.993923,0.110079,-0.110079,0.993923,8.49697,-11.5061)"><text x="315.738px" y="88.218px" style="font-family:'ProximaNova-Bold', 'Proxima Nova';font-weight:700;font-size:30.617px;fill:#00a1c7;">U</text></g><g transform="matrix(0.950825,0.30973,-0.30973,0.950825,27.3868,-30.0909)"><text x="345.046px" y="40.289px" style="font-family:'ProximaNova-Bold', 'Proxima Nova';font-weight:700;font-size:30.617px;fill:#00a1c7;">O</text></g><g transform="matrix(0.862377,0.506267,-0.506267,0.862377,50.9735,-45.1091)"><text x="363.891px" y="-15.727px" style="font-family:'ProximaNova-Bold', 'Proxima Nova';font-weight:700;font-size:30.617px;fill:#00a1c7;">M</text></g><g transform="matrix(0.746643,0.665225,-0.665225,0.746643,74.8437,-54.1086)"><text x="375.886px" y="-69.55px" style="font-family:'ProximaNova-Bold', 'Proxima Nova';font-weight:700;font-size:30.617px;fill:#00a1c7;">E</text></g><g transform="matrix(0.621853,0.783134,-0.783134,0.621853,96.7734,-58.0114)"><text x="373.786px" y="-117.013px" style="font-family:'ProximaNova-Bold', 'Proxima Nova';font-weight:700;font-size:30.617px;fill:#00a1c7;">S</text></g><g transform="matrix(0.480361,0.877071,-0.877071,0.480361,118.808,-58.125)"><text x="364.154px" y="-162.965px" style="font-family:'ProximaNova-Bold', 'Proxima Nova';font-weight:700;font-size:30.617px;fill:#00a1c7;">T</text></g><g transform="matrix(0.325472,0.945552,-0.945552,0.325472,140.482,-54.5238)"><text x="344.94px" y="-206.44px" style="font-family:'ProximaNova-Bold', 'Proxima Nova';font-weight:700;font-size:30.617px;fill:#00a1c7;">A</text></g><path d="M228.772,408.189c-51.096,-27.712 -85.788,-81.822 -85.788,-144.032c0,-9.87 0.871,-19.533 2.546,-28.922" style="fill:none;stroke:#00a1c7;stroke-width:4.2px;"/><path d="M385.109,408.189c51.096,-27.712 85.788,-81.822 85.788,-144.032c0,-9.87 -0.871,-19.533 -2.546,-28.922" style="fill:none;stroke:#00a1c7;stroke-width:4.2px;"/><path d="M248.062,421.883c0,-2.224 -0.683,-4.204 -2.593,-4.204c-1.91,0 -2.594,1.98 -2.594,4.204c0,2.227 0.684,4.227 2.594,4.227c1.91,0 2.593,-2 2.593,-4.227m-7.274,0c0,-2.943 1.404,-6.027 4.681,-6.027c3.277,0 4.677,3.084 4.677,6.027c0,2.947 -1.4,6.047 -4.677,6.047c-3.277,0 -4.681,-3.1 -4.681,-6.047" style="fill:#00a1c7;fill-rule:nonzero;"/><path d="M261.531,172.778c0,-2.224 -0.684,-4.204 -2.594,-4.204c-1.91,0 -2.594,1.98 -2.594,4.204c0,2.227 0.684,4.226 2.594,4.226c1.91,0 2.594,-1.999 2.594,-4.226m-7.274,0c0,-2.944 1.403,-6.028 4.68,-6.028c3.277,0 4.677,3.084 4.677,6.028c0,2.946 -1.4,6.047 -4.677,6.047c-3.277,0 -4.68,-3.101 -4.68,-6.047" style="fill:#00a1c7;fill-rule:nonzero;"/><path d="M269.697,178.615l0,-9.027l-1.91,1.983l-1.191,-1.244l3.364,-3.403l1.787,0l0,11.691l-2.05,0Z" style="fill:#00a1c7;fill-rule:nonzero;"/><path d="M321.622,154.92c0,-2.224 -0.683,-4.204 -2.593,-4.204c-1.911,0 -2.594,1.98 -2.594,4.204c0,2.227 0.683,4.227 2.594,4.227c1.91,0 2.593,-2 2.593,-4.227m-7.274,0c0,-2.944 1.403,-6.027 4.681,-6.027c3.277,0 4.677,3.083 4.677,6.027c0,2.947 -1.4,6.047 -4.677,6.047c-3.278,0 -4.681,-3.1 -4.681,-6.047" style="fill:#00a1c7;fill-rule:nonzero;"/><path d="M329.788,160.757l0,-9.027l-1.91,1.983l-1.19,-1.243l3.364,-3.403l1.787,0l0,11.69l-2.051,0Z" style="fill:#00a1c7;fill-rule:nonzero;"/><path d="M343.073,154.92c0,-2.224 -0.684,-4.204 -2.594,-4.204c-1.91,0 -2.596,1.98 -2.596,4.204c0,2.227 0.686,4.227 2.596,4.227c1.91,0 2.594,-2 2.594,-4.227m-7.274,0c0,-2.944 1.403,-6.027 4.68,-6.027c3.277,0 4.677,3.083 4.677,6.027c0,2.947 -1.4,6.047 -4.677,6.047c-3.277,0 -4.68,-3.1 -4.68,-6.047" style="fill:#00a1c7;fill-rule:nonzero;"/><path d="M351.239,160.757l0,-9.027l-1.91,1.983l-1.191,-1.243l3.364,-3.403l1.787,0l0,11.69l-2.05,0Z" style="fill:#00a1c7;fill-rule:nonzero;"/><path d="M316.775,279.58c0,-2.224 -0.683,-4.205 -2.593,-4.205c-1.911,0 -2.594,1.981 -2.594,4.205c0,2.226 0.683,4.226 2.594,4.226c1.91,0 2.593,-2 2.593,-4.226m-7.274,0c0,-2.944 1.404,-6.028 4.681,-6.028c3.277,0 4.677,3.084 4.677,6.028c0,2.946 -1.4,6.047 -4.677,6.047c-3.277,0 -4.681,-3.101 -4.681,-6.047" style="fill:#00a1c7;fill-rule:nonzero;"/><path d="M324.941,285.417l0,-9.027l-1.91,1.983l-1.19,-1.244l3.364,-3.403l1.787,0l0,11.691l-2.051,0Z" style="fill:#00a1c7;fill-rule:nonzero;"/><path d="M338.226,279.58c0,-2.224 -0.684,-4.205 -2.594,-4.205c-1.913,0 -2.596,1.981 -2.596,4.205c0,2.226 0.683,4.226 2.596,4.226c1.91,0 2.594,-2 2.594,-4.226m-7.274,0c0,-2.944 1.403,-6.028 4.68,-6.028c3.277,0 4.678,3.084 4.678,6.028c0,2.946 -1.401,6.047 -4.678,6.047c-3.277,0 -4.68,-3.101 -4.68,-6.047" style="fill:#00a1c7;fill-rule:nonzero;"/><path d="M346.392,285.417l0,-9.027l-1.911,1.983l-1.19,-1.244l3.364,-3.403l1.787,0l0,11.691l-2.05,0Z" style="fill:#00a1c7;fill-rule:nonzero;"/><path d="M359.674,279.58c0,-2.224 -0.684,-4.205 -2.594,-4.205c-1.91,0 -2.596,1.981 -2.596,4.205c0,2.226 0.686,4.226 2.596,4.226c1.91,0 2.594,-2 2.594,-4.226m-7.274,0c0,-2.944 1.403,-6.028 4.68,-6.028c3.277,0 4.677,3.084 4.677,6.028c0,2.946 -1.4,6.047 -4.677,6.047c-3.277,0 -4.68,-3.101 -4.68,-6.047" style="fill:#00a1c7;fill-rule:nonzero;"/><path d="M367.84,285.417l0,-9.027l-1.91,1.983l-1.191,-1.244l3.364,-3.403l1.787,0l0,11.691l-2.05,0Z" style="fill:#00a1c7;fill-rule:nonzero;"/><path d="M310.198,178.442l0,-9.027l-1.91,1.983l-1.19,-1.244l3.364,-3.403l1.787,0l0,11.691l-2.051,0Z" style="fill:#00a1c7;fill-rule:nonzero;"/><path d="M323.483,172.605c0,-2.224 -0.684,-4.205 -2.594,-4.205c-1.91,0 -2.596,1.981 -2.596,4.205c0,2.226 0.686,4.226 2.596,4.226c1.91,0 2.594,-2 2.594,-4.226m-7.274,0c0,-2.944 1.403,-6.028 4.68,-6.028c3.277,0 4.678,3.084 4.678,6.028c0,2.946 -1.401,6.047 -4.678,6.047c-3.277,0 -4.68,-3.101 -4.68,-6.047" style="fill:#00a1c7;fill-rule:nonzero;"/><path d="M342.778,172.605c0,-2.224 -0.684,-4.205 -2.594,-4.205c-1.91,0 -2.594,1.981 -2.594,4.205c0,2.226 0.684,4.226 2.594,4.226c1.91,0 2.594,-2 2.594,-4.226m-7.274,0c0,-2.944 1.403,-6.028 4.68,-6.028c3.277,0 4.678,3.084 4.678,6.028c0,2.946 -1.401,6.047 -4.678,6.047c-3.277,0 -4.68,-3.101 -4.68,-6.047" style="fill:#00a1c7;fill-rule:nonzero;"/><path d="M299.312,303.235l0,-9.027l-1.91,1.983l-1.19,-1.244l3.364,-3.403l1.787,0l0,11.691l-2.051,0Z" style="fill:#00a1c7;fill-rule:nonzero;"/><path d="M312.597,297.398c0,-2.224 -0.684,-4.205 -2.594,-4.205c-1.913,0 -2.596,1.981 -2.596,4.205c0,2.226 0.683,4.226 2.596,4.226c1.91,0 2.594,-2 2.594,-4.226m-7.274,0c0,-2.944 1.403,-6.028 4.68,-6.028c3.277,0 4.677,3.084 4.677,6.028c0,2.946 -1.4,6.047 -4.677,6.047c-3.277,0 -4.68,-3.101 -4.68,-6.047" style="fill:#00a1c7;fill-rule:nonzero;"/><path d="M331.892,297.398c0,-2.224 -0.684,-4.205 -2.594,-4.205c-1.91,0 -2.594,1.981 -2.594,4.205c0,2.226 0.684,4.226 2.594,4.226c1.91,0 2.594,-2 2.594,-4.226m-7.274,0c0,-2.944 1.403,-6.028 4.68,-6.028c3.277,0 4.677,3.084 4.677,6.028c0,2.946 -1.4,6.047 -4.677,6.047c-3.277,0 -4.68,-3.101 -4.68,-6.047" style="fill:#00a1c7;fill-rule:nonzero;"/><path d="M340.055,303.235l0,-9.027l-1.91,1.983l-1.19,-1.244l3.364,-3.403l1.787,0l0,11.691l-2.051,0Z" style="fill:#00a1c7;fill-rule:nonzero;"/><path d="M348.712,303.235l0,-9.027l-1.91,1.983l-1.19,-1.244l3.363,-3.403l1.787,0l0,11.691l-2.05,0Z" style="fill:#00a1c7;fill-rule:nonzero;"/><path d="M361.996,297.398c0,-2.224 -0.683,-4.205 -2.593,-4.205c-1.91,0 -2.597,1.981 -2.597,4.205c0,2.226 0.687,4.226 2.597,4.226c1.91,0 2.593,-2 2.593,-4.226m-7.273,0c0,-2.944 1.403,-6.028 4.68,-6.028c3.277,0 4.677,3.084 4.677,6.028c0,2.946 -1.4,6.047 -4.677,6.047c-3.277,0 -4.68,-3.101 -4.68,-6.047" style="fill:#00a1c7;fill-rule:nonzero;"/><path d="M370.163,303.235l0,-9.027l-1.911,1.983l-1.19,-1.244l3.364,-3.403l1.787,0l0,11.691l-2.05,0Z" style="fill:#00a1c7;fill-rule:nonzero;"/><path d="M274.001,196.339l0,-9.027l-1.91,1.983l-1.19,-1.244l3.363,-3.403l1.787,0l0,11.691l-2.05,0Z" style="fill:#00a1c7;fill-rule:nonzero;"/><path d="M282.658,196.339l0,-9.027l-1.911,1.983l-1.19,-1.244l3.364,-3.403l1.787,0l0,11.691l-2.05,0Z" style="fill:#00a1c7;fill-rule:nonzero;"/><path d="M295.942,190.502c0,-2.224 -0.684,-4.205 -2.594,-4.205c-1.91,0 -2.596,1.981 -2.596,4.205c0,2.226 0.686,4.226 2.596,4.226c1.91,0 2.594,-2 2.594,-4.226m-7.274,0c0,-2.944 1.403,-6.028 4.68,-6.028c3.277,0 4.678,3.084 4.678,6.028c0,2.946 -1.401,6.047 -4.678,6.047c-3.277,0 -4.68,-3.101 -4.68,-6.047" style="fill:#00a1c7;fill-rule:nonzero;"/><path d="M304.108,196.339l0,-9.027l-1.91,1.983l-1.191,-1.244l3.364,-3.403l1.787,0l0,11.691l-2.05,0Z" style="fill:#00a1c7;fill-rule:nonzero;"/><path d="M317.392,190.502c0,-2.224 -0.683,-4.205 -2.593,-4.205c-1.911,0 -2.594,1.981 -2.594,4.205c0,2.226 0.683,4.226 2.594,4.226c1.91,0 2.593,-2 2.593,-4.226m-7.274,0c0,-2.944 1.404,-6.028 4.681,-6.028c3.277,0 4.677,3.084 4.677,6.028c0,2.946 -1.4,6.047 -4.677,6.047c-3.277,0 -4.681,-3.101 -4.681,-6.047" style="fill:#00a1c7;fill-rule:nonzero;"/><path d="M330.186,190.502c0,-2.224 -0.683,-4.205 -2.593,-4.205c-1.91,0 -2.594,1.981 -2.594,4.205c0,2.226 0.684,4.226 2.594,4.226c1.91,0 2.593,-2 2.593,-4.226m-7.274,0c0,-2.944 1.404,-6.028 4.681,-6.028c3.277,0 4.677,3.084 4.677,6.028c0,2.946 -1.4,6.047 -4.677,6.047c-3.277,0 -4.681,-3.101 -4.681,-6.047" style="fill:#00a1c7;fill-rule:nonzero;"/><path d="M338.353,196.339l0,-9.027l-1.911,1.983l-1.19,-1.244l3.364,-3.403l1.787,0l0,11.691l-2.05,0Z" style="fill:#00a1c7;fill-rule:nonzero;"/><path d="M272.726,386.48c0,-2.224 -0.684,-4.204 -2.594,-4.204c-1.913,0 -2.596,1.98 -2.596,4.204c0,2.227 0.683,4.227 2.596,4.227c1.91,0 2.594,-2 2.594,-4.227m-7.274,0c0,-2.943 1.403,-6.027 4.68,-6.027c3.277,0 4.677,3.084 4.677,6.027c0,2.947 -1.4,6.047 -4.677,6.047c-3.277,0 -4.68,-3.1 -4.68,-6.047" style="fill:#00a1c7;fill-rule:nonzero;"/><path d="M280.892,392.318l0,-9.028l-1.91,1.983l-1.191,-1.243l3.364,-3.403l1.787,0l0,11.691l-2.05,0Z" style="fill:#00a1c7;fill-rule:nonzero;"/><path d="M294.176,386.48c0,-2.224 -0.683,-4.204 -2.593,-4.204c-1.911,0 -2.594,1.98 -2.594,4.204c0,2.227 0.683,4.227 2.594,4.227c1.91,0 2.593,-2 2.593,-4.227m-7.274,0c0,-2.943 1.403,-6.027 4.681,-6.027c3.277,0 4.677,3.084 4.677,6.027c0,2.947 -1.4,6.047 -4.677,6.047c-3.278,0 -4.681,-3.1 -4.681,-6.047" style="fill:#00a1c7;fill-rule:nonzero;"/><path d="M306.97,386.48c0,-2.224 -0.683,-4.204 -2.593,-4.204c-1.911,0 -2.594,1.98 -2.594,4.204c0,2.227 0.683,4.227 2.594,4.227c1.91,0 2.593,-2 2.593,-4.227m-7.274,0c0,-2.943 1.404,-6.027 4.681,-6.027c3.277,0 4.677,3.084 4.677,6.027c0,2.947 -1.4,6.047 -4.677,6.047c-3.277,0 -4.681,-3.1 -4.681,-6.047" style="fill:#00a1c7;fill-rule:nonzero;"/><path d="M315.136,392.318l0,-9.028l-1.91,1.983l-1.19,-1.243l3.364,-3.403l1.787,0l0,11.691l-2.051,0Z" style="fill:#00a1c7;fill-rule:nonzero;"/><path d="M334.919,386.48c0,-2.224 -0.683,-4.204 -2.593,-4.204c-1.913,0 -2.597,1.98 -2.597,4.204c0,2.227 0.684,4.227 2.597,4.227c1.91,0 2.593,-2 2.593,-4.227m-7.274,0c0,-2.943 1.404,-6.027 4.681,-6.027c3.277,0 4.677,3.084 4.677,6.027c0,2.947 -1.4,6.047 -4.677,6.047c-3.277,0 -4.681,-3.1 -4.681,-6.047" style="fill:#00a1c7;fill-rule:nonzero;"/><path d="M343.085,392.318l0,-9.028l-1.91,1.983l-1.19,-1.243l3.364,-3.403l1.787,0l0,11.691l-2.051,0Z" style="fill:#00a1c7;fill-rule:nonzero;"/><path d="M351.742,392.318l0,-9.028l-1.91,1.983l-1.19,-1.243l3.363,-3.403l1.787,0l0,11.691l-2.05,0Z" style="fill:#00a1c7;fill-rule:nonzero;"/><path d="M365.026,386.48c0,-2.224 -0.683,-4.204 -2.593,-4.204c-1.91,0 -2.597,1.98 -2.597,4.204c0,2.227 0.687,4.227 2.597,4.227c1.91,0 2.593,-2 2.593,-4.227m-7.273,0c0,-2.943 1.403,-6.027 4.68,-6.027c3.277,0 4.677,3.084 4.677,6.027c0,2.947 -1.4,6.047 -4.677,6.047c-3.277,0 -4.68,-3.1 -4.68,-6.047" style="fill:#00a1c7;fill-rule:nonzero;"/><path d="M373.193,392.318l0,-9.028l-1.911,1.983l-1.19,-1.243l3.364,-3.403l1.787,0l0,11.691l-2.05,0Z" style="fill:#00a1c7;fill-rule:nonzero;"/><path d="M291.307,315.289c0,-2.224 -0.683,-4.204 -2.593,-4.204c-1.91,0 -2.594,1.98 -2.594,4.204c0,2.226 0.684,4.226 2.594,4.226c1.91,0 2.593,-2 2.593,-4.226m-7.273,0c0,-2.944 1.403,-6.028 4.68,-6.028c3.277,0 4.677,3.084 4.677,6.028c0,2.946 -1.4,6.047 -4.677,6.047c-3.277,0 -4.68,-3.101 -4.68,-6.047" style="fill:#00a1c7;fill-rule:nonzero;"/><path d="M304.101,315.289c0,-2.224 -0.683,-4.204 -2.593,-4.204c-1.911,0 -2.594,1.98 -2.594,4.204c0,2.226 0.683,4.226 2.594,4.226c1.91,0 2.593,-2 2.593,-4.226m-7.274,0c0,-2.944 1.404,-6.028 4.681,-6.028c3.277,0 4.677,3.084 4.677,6.028c0,2.946 -1.4,6.047 -4.677,6.047c-3.277,0 -4.681,-3.101 -4.681,-6.047" style="fill:#00a1c7;fill-rule:nonzero;"/><path d="M312.267,321.126l0,-9.027l-1.91,1.983l-1.19,-1.244l3.364,-3.403l1.787,0l0,11.691l-2.051,0Z" style="fill:#00a1c7;fill-rule:nonzero;"/><path d="M332.051,315.289c0,-2.224 -0.684,-4.204 -2.594,-4.204c-1.913,0 -2.596,1.98 -2.596,4.204c0,2.226 0.683,4.226 2.596,4.226c1.91,0 2.594,-2 2.594,-4.226m-7.274,0c0,-2.944 1.403,-6.028 4.68,-6.028c3.277,0 4.677,3.084 4.677,6.028c0,2.946 -1.4,6.047 -4.677,6.047c-3.277,0 -4.68,-3.101 -4.68,-6.047" style="fill:#00a1c7;fill-rule:nonzero;"/><path d="M340.217,321.126l0,-9.027l-1.91,1.983l-1.191,-1.244l3.364,-3.403l1.787,0l0,11.691l-2.05,0Z" style="fill:#00a1c7;fill-rule:nonzero;"/><path d="M348.873,321.126l0,-9.027l-1.91,1.983l-1.19,-1.244l3.363,-3.403l1.787,0l0,11.691l-2.05,0Z" style="fill:#00a1c7;fill-rule:nonzero;"/><path d="M362.157,315.289c0,-2.224 -0.683,-4.204 -2.593,-4.204c-1.91,0 -2.597,1.98 -2.597,4.204c0,2.226 0.687,4.226 2.597,4.226c1.91,0 2.593,-2 2.593,-4.226m-7.273,0c0,-2.944 1.403,-6.028 4.68,-6.028c3.277,0 4.677,3.084 4.677,6.028c0,2.946 -1.4,6.047 -4.677,6.047c-3.277,0 -4.68,-3.101 -4.68,-6.047" style="fill:#00a1c7;fill-rule:nonzero;"/><path d="M370.324,321.126l0,-9.027l-1.911,1.983l-1.19,-1.244l3.364,-3.403l1.787,0l0,11.691l-2.05,0Z" style="fill:#00a1c7;fill-rule:nonzero;"/><path d="M378.978,321.126l0,-9.027l-1.91,1.983l-1.19,-1.244l3.363,-3.403l1.787,0l0,11.691l-2.05,0Z" style="fill:#00a1c7;fill-rule:nonzero;"/><path d="M293.727,208.166c0,-2.224 -0.683,-4.204 -2.593,-4.204c-1.913,0 -2.597,1.98 -2.597,4.204c0,2.227 0.684,4.227 2.597,4.227c1.91,0 2.593,-2 2.593,-4.227m-7.274,0c0,-2.943 1.404,-6.027 4.681,-6.027c3.277,0 4.677,3.084 4.677,6.027c0,2.947 -1.4,6.047 -4.677,6.047c-3.277,0 -4.681,-3.1 -4.681,-6.047" style="fill:#00a1c7;fill-rule:nonzero;"/><path d="M301.893,214.004l0,-9.028l-1.91,1.983l-1.19,-1.243l3.364,-3.403l1.787,0l0,11.691l-2.051,0Z" style="fill:#00a1c7;fill-rule:nonzero;"/><path d="M310.55,214.004l0,-9.028l-1.91,1.983l-1.191,-1.243l3.364,-3.403l1.787,0l0,11.691l-2.05,0Z" style="fill:#00a1c7;fill-rule:nonzero;"/><path d="M323.834,208.166c0,-2.224 -0.683,-4.204 -2.593,-4.204c-1.911,0 -2.597,1.98 -2.597,4.204c0,2.227 0.686,4.227 2.597,4.227c1.91,0 2.593,-2 2.593,-4.227m-7.274,0c0,-2.943 1.404,-6.027 4.681,-6.027c3.277,0 4.677,3.084 4.677,6.027c0,2.947 -1.4,6.047 -4.677,6.047c-3.277,0 -4.681,-3.1 -4.681,-6.047" style="fill:#00a1c7;fill-rule:nonzero;"/><path d="M332,214.004l0,-9.028l-1.91,1.983l-1.19,-1.243l3.364,-3.403l1.787,0l0,11.691l-2.051,0Z" style="fill:#00a1c7;fill-rule:nonzero;"/><path d="M340.655,214.004l0,-9.028l-1.911,1.983l-1.19,-1.243l3.364,-3.403l1.787,0l0,11.691l-2.05,0Z" style="fill:#00a1c7;fill-rule:nonzero;"/><path d="M349.311,214.004l0,-9.028l-1.91,1.983l-1.19,-1.243l3.364,-3.403l1.786,0l0,11.691l-2.05,0Z" style="fill:#00a1c7;fill-rule:nonzero;"/><path d="M362.595,208.166c0,-2.224 -0.683,-4.204 -2.593,-4.204c-1.91,0 -2.597,1.98 -2.597,4.204c0,2.227 0.687,4.227 2.597,4.227c1.91,0 2.593,-2 2.593,-4.227m-7.273,0c0,-2.943 1.403,-6.027 4.68,-6.027c3.277,0 4.677,3.084 4.677,6.027c0,2.947 -1.4,6.047 -4.677,6.047c-3.277,0 -4.68,-3.1 -4.68,-6.047" style="fill:#00a1c7;fill-rule:nonzero;"/><path d="M261.858,410.154l0,-9.027l-1.91,1.983l-1.19,-1.244l3.364,-3.403l1.787,0l0,11.691l-2.051,0Z" style="fill:#00a1c7;fill-rule:nonzero;"/><path d="M270.515,410.154l0,-9.027l-1.911,1.983l-1.19,-1.244l3.364,-3.403l1.787,0l0,11.691l-2.05,0Z" style="fill:#00a1c7;fill-rule:nonzero;"/><path d="M283.799,404.317c0,-2.224 -0.683,-4.205 -2.593,-4.205c-1.911,0 -2.597,1.981 -2.597,4.205c0,2.226 0.686,4.226 2.597,4.226c1.91,0 2.593,-2 2.593,-4.226m-7.274,0c0,-2.944 1.404,-6.028 4.681,-6.028c3.277,0 4.677,3.084 4.677,6.028c0,2.946 -1.4,6.047 -4.677,6.047c-3.277,0 -4.681,-3.101 -4.681,-6.047" style="fill:#00a1c7;fill-rule:nonzero;"/><path d="M303.094,404.317c0,-2.224 -0.683,-4.205 -2.594,-4.205c-1.91,0 -2.593,1.981 -2.593,4.205c0,2.226 0.683,4.226 2.593,4.226c1.911,0 2.594,-2 2.594,-4.226m-7.274,0c0,-2.944 1.403,-6.028 4.68,-6.028c3.277,0 4.678,3.084 4.678,6.028c0,2.946 -1.401,6.047 -4.678,6.047c-3.277,0 -4.68,-3.101 -4.68,-6.047" style="fill:#00a1c7;fill-rule:nonzero;"/><path d="M311.26,410.154l0,-9.027l-1.91,1.983l-1.19,-1.244l3.364,-3.403l1.787,0l0,11.691l-2.051,0Z" style="fill:#00a1c7;fill-rule:nonzero;"/><path d="M319.917,410.154l0,-9.027l-1.91,1.983l-1.191,-1.244l3.364,-3.403l1.787,0l0,11.691l-2.05,0Z" style="fill:#00a1c7;fill-rule:nonzero;"/><path d="M333.199,404.317c0,-2.224 -0.684,-4.205 -2.594,-4.205c-1.913,0 -2.596,1.981 -2.596,4.205c0,2.226 0.683,4.226 2.596,4.226c1.91,0 2.594,-2 2.594,-4.226m-7.274,0c0,-2.944 1.403,-6.028 4.68,-6.028c3.277,0 4.678,3.084 4.678,6.028c0,2.946 -1.401,6.047 -4.678,6.047c-3.277,0 -4.68,-3.101 -4.68,-6.047" style="fill:#00a1c7;fill-rule:nonzero;"/><path d="M345.993,404.317c0,-2.224 -0.684,-4.205 -2.594,-4.205c-1.91,0 -2.596,1.981 -2.596,4.205c0,2.226 0.686,4.226 2.596,4.226c1.91,0 2.594,-2 2.594,-4.226m-7.274,0c0,-2.944 1.403,-6.028 4.68,-6.028c3.277,0 4.678,3.084 4.678,6.028c0,2.946 -1.401,6.047 -4.678,6.047c-3.277,0 -4.68,-3.101 -4.68,-6.047" style="fill:#00a1c7;fill-rule:nonzero;"/><path d="M358.787,404.317c0,-2.224 -0.684,-4.205 -2.594,-4.205c-1.91,0 -2.596,1.981 -2.596,4.205c0,2.226 0.686,4.226 2.596,4.226c1.91,0 2.594,-2 2.594,-4.226m-7.274,0c0,-2.944 1.403,-6.028 4.68,-6.028c3.277,0 4.677,3.084 4.677,6.028c0,2.946 -1.4,6.047 -4.677,6.047c-3.277,0 -4.68,-3.101 -4.68,-6.047" style="fill:#00a1c7;fill-rule:nonzero;"/><path d="M291.624,226.208c0,-2.224 -0.683,-4.204 -2.594,-4.204c-1.913,0 -2.593,1.98 -2.593,4.204c0,2.227 0.68,4.227 2.593,4.227c1.911,0 2.594,-2 2.594,-4.227m-7.274,0c0,-2.944 1.403,-6.027 4.68,-6.027c3.277,0 4.678,3.083 4.678,6.027c0,2.947 -1.401,6.047 -4.678,6.047c-3.277,0 -4.68,-3.1 -4.68,-6.047" style="fill:#00a1c7;fill-rule:nonzero;"/><path d="M299.79,232.045l0,-9.027l-1.91,1.983l-1.19,-1.243l3.363,-3.403l1.787,0l0,11.69l-2.05,0Z" style="fill:#00a1c7;fill-rule:nonzero;"/><path d="M308.447,232.045l0,-9.027l-1.91,1.983l-1.191,-1.243l3.364,-3.403l1.787,0l0,11.69l-2.05,0Z" style="fill:#00a1c7;fill-rule:nonzero;"/><path d="M321.729,226.208c0,-2.224 -0.684,-4.204 -2.594,-4.204c-1.91,0 -2.596,1.98 -2.596,4.204c0,2.227 0.686,4.227 2.596,4.227c1.91,0 2.594,-2 2.594,-4.227m-7.274,0c0,-2.944 1.403,-6.027 4.68,-6.027c3.277,0 4.678,3.083 4.678,6.027c0,2.947 -1.401,6.047 -4.678,6.047c-3.277,0 -4.68,-3.1 -4.68,-6.047" style="fill:#00a1c7;fill-rule:nonzero;"/><path d="M334.523,226.208c0,-2.224 -0.684,-4.204 -2.594,-4.204c-1.91,0 -2.596,1.98 -2.596,4.204c0,2.227 0.686,4.227 2.596,4.227c1.91,0 2.594,-2 2.594,-4.227m-7.274,0c0,-2.944 1.403,-6.027 4.68,-6.027c3.277,0 4.677,3.083 4.677,6.027c0,2.947 -1.4,6.047 -4.677,6.047c-3.277,0 -4.68,-3.1 -4.68,-6.047" style="fill:#00a1c7;fill-rule:nonzero;"/><path d="M347.317,226.208c0,-2.224 -0.684,-4.204 -2.594,-4.204c-1.91,0 -2.596,1.98 -2.596,4.204c0,2.227 0.686,4.227 2.596,4.227c1.91,0 2.594,-2 2.594,-4.227m-7.274,0c0,-2.944 1.403,-6.027 4.68,-6.027c3.277,0 4.678,3.083 4.678,6.027c0,2.947 -1.401,6.047 -4.678,6.047c-3.277,0 -4.68,-3.1 -4.68,-6.047" style="fill:#00a1c7;fill-rule:nonzero;"/><path d="M355.483,232.045l0,-9.027l-1.91,1.983l-1.191,-1.243l3.364,-3.403l1.787,0l0,11.69l-2.05,0Z" style="fill:#00a1c7;fill-rule:nonzero;"/><path d="M364.139,232.045l0,-9.027l-1.91,1.983l-1.19,-1.243l3.364,-3.403l1.787,0l0,11.69l-2.051,0Z" style="fill:#00a1c7;fill-rule:nonzero;"/><path d="M265.662,338.928l0,-9.027l-1.91,1.983l-1.191,-1.244l3.364,-3.403l1.787,0l0,11.691l-2.05,0Z" style="fill:#00a1c7;fill-rule:nonzero;"/><path d="M278.946,333.09c0,-2.223 -0.683,-4.204 -2.594,-4.204c-1.91,0 -2.596,1.981 -2.596,4.204c0,2.227 0.686,4.227 2.596,4.227c1.911,0 2.594,-2 2.594,-4.227m-7.274,0c0,-2.943 1.403,-6.027 4.68,-6.027c3.278,0 4.678,3.084 4.678,6.027c0,2.947 -1.4,6.048 -4.678,6.048c-3.277,0 -4.68,-3.101 -4.68,-6.048" style="fill:#00a1c7;fill-rule:nonzero;"/><path d="M298.241,333.09c0,-2.223 -0.683,-4.204 -2.593,-4.204c-1.911,0 -2.594,1.981 -2.594,4.204c0,2.227 0.683,4.227 2.594,4.227c1.91,0 2.593,-2 2.593,-4.227m-7.274,0c0,-2.943 1.404,-6.027 4.681,-6.027c3.277,0 4.677,3.084 4.677,6.027c0,2.947 -1.4,6.048 -4.677,6.048c-3.277,0 -4.681,-3.101 -4.681,-6.048" style="fill:#00a1c7;fill-rule:nonzero;"/><path d="M306.408,338.928l0,-9.027l-1.911,1.983l-1.19,-1.244l3.364,-3.403l1.787,0l0,11.691l-2.05,0Z" style="fill:#00a1c7;fill-rule:nonzero;"/><path d="M315.064,338.928l0,-9.027l-1.91,1.983l-1.191,-1.244l3.364,-3.403l1.787,0l0,11.691l-2.05,0Z" style="fill:#00a1c7;fill-rule:nonzero;"/><path d="M328.346,333.09c0,-2.223 -0.684,-4.204 -2.594,-4.204c-1.91,0 -2.596,1.981 -2.596,4.204c0,2.227 0.686,4.227 2.596,4.227c1.91,0 2.594,-2 2.594,-4.227m-7.274,0c0,-2.943 1.403,-6.027 4.68,-6.027c3.277,0 4.678,3.084 4.678,6.027c0,2.947 -1.401,6.048 -4.678,6.048c-3.277,0 -4.68,-3.101 -4.68,-6.048" style="fill:#00a1c7;fill-rule:nonzero;"/><path d="M341.14,333.09c0,-2.223 -0.683,-4.204 -2.594,-4.204c-1.91,0 -2.596,1.981 -2.596,4.204c0,2.227 0.686,4.227 2.596,4.227c1.911,0 2.594,-2 2.594,-4.227m-7.274,0c0,-2.943 1.403,-6.027 4.68,-6.027c3.277,0 4.678,3.084 4.678,6.027c0,2.947 -1.401,6.048 -4.678,6.048c-3.277,0 -4.68,-3.101 -4.68,-6.048" style="fill:#00a1c7;fill-rule:nonzero;"/><path d="M353.934,333.09c0,-2.223 -0.684,-4.204 -2.594,-4.204c-1.91,0 -2.596,1.981 -2.596,4.204c0,2.227 0.686,4.227 2.596,4.227c1.91,0 2.594,-2 2.594,-4.227m-7.274,0c0,-2.943 1.403,-6.027 4.68,-6.027c3.277,0 4.678,3.084 4.678,6.027c0,2.947 -1.401,6.048 -4.678,6.048c-3.277,0 -4.68,-3.101 -4.68,-6.048" style="fill:#00a1c7;fill-rule:nonzero;"/><path d="M362.1,338.928l0,-9.027l-1.91,1.983l-1.191,-1.244l3.364,-3.403l1.787,0l0,11.691l-2.05,0Z" style="fill:#00a1c7;fill-rule:nonzero;"/><path d="M370.757,338.928l0,-9.027l-1.911,1.983l-1.19,-1.244l3.364,-3.403l1.787,0l0,11.691l-2.05,0Z" style="fill:#00a1c7;fill-rule:nonzero;"/><path d="M390.539,333.09c0,-2.223 -0.683,-4.204 -2.593,-4.204c-1.91,0 -2.597,1.981 -2.597,4.204c0,2.227 0.687,4.227 2.597,4.227c1.91,0 2.593,-2 2.593,-4.227m-7.273,0c0,-2.943 1.403,-6.027 4.68,-6.027c3.277,0 4.677,3.084 4.677,6.027c0,2.947 -1.4,6.048 -4.677,6.048c-3.277,0 -4.68,-3.101 -4.68,-6.048" style="fill:#00a1c7;fill-rule:nonzero;"/><path d="M398.706,338.928l0,-9.027l-1.91,1.983l-1.191,-1.244l3.364,-3.403l1.787,0l0,11.691l-2.05,0Z" style="fill:#00a1c7;fill-rule:nonzero;"/><path d="M269.06,427.93l0,-9.027l-1.911,1.983l-1.19,-1.244l3.364,-3.403l1.787,0l0,11.691l-2.05,0Z" style="fill:#00a1c7;fill-rule:nonzero;"/><path d="M277.716,427.93l0,-9.027l-1.91,1.983l-1.19,-1.244l3.364,-3.403l1.786,0l0,11.691l-2.05,0Z" style="fill:#00a1c7;fill-rule:nonzero;"/><path d="M297.499,422.093c0,-2.224 -0.683,-4.204 -2.593,-4.204c-1.913,0 -2.597,1.98 -2.597,4.204c0,2.227 0.684,4.226 2.597,4.226c1.91,0 2.593,-1.999 2.593,-4.226m-7.274,0c0,-2.944 1.404,-6.028 4.681,-6.028c3.277,0 4.677,3.084 4.677,6.028c0,2.946 -1.4,6.047 -4.677,6.047c-3.277,0 -4.681,-3.101 -4.681,-6.047" style="fill:#00a1c7;fill-rule:nonzero;"/><path d="M305.666,427.93l0,-9.027l-1.911,1.983l-1.19,-1.244l3.364,-3.403l1.787,0l0,11.691l-2.05,0Z" style="fill:#00a1c7;fill-rule:nonzero;"/><path d="M314.322,427.93l0,-9.027l-1.91,1.983l-1.191,-1.244l3.364,-3.403l1.787,0l0,11.691l-2.05,0Z" style="fill:#00a1c7;fill-rule:nonzero;"/><path d="M327.606,422.093c0,-2.224 -0.683,-4.204 -2.593,-4.204c-1.911,0 -2.597,1.98 -2.597,4.204c0,2.227 0.686,4.226 2.597,4.226c1.91,0 2.593,-1.999 2.593,-4.226m-7.274,0c0,-2.944 1.404,-6.028 4.681,-6.028c3.277,0 4.677,3.084 4.677,6.028c0,2.946 -1.4,6.047 -4.677,6.047c-3.277,0 -4.681,-3.101 -4.681,-6.047" style="fill:#00a1c7;fill-rule:nonzero;"/><path d="M291.49,243.982c0,-2.224 -0.683,-4.205 -2.594,-4.205c-1.91,0 -2.596,1.981 -2.596,4.205c0,2.226 0.686,4.226 2.596,4.226c1.911,0 2.594,-2 2.594,-4.226m-7.274,0c0,-2.944 1.403,-6.028 4.68,-6.028c3.277,0 4.678,3.084 4.678,6.028c0,2.946 -1.401,6.047 -4.678,6.047c-3.277,0 -4.68,-3.101 -4.68,-6.047" style="fill:#00a1c7;fill-rule:nonzero;"/><path d="M299.656,249.819l0,-9.027l-1.91,1.983l-1.19,-1.244l3.364,-3.403l1.787,0l0,11.691l-2.051,0Z" style="fill:#00a1c7;fill-rule:nonzero;"/><path d="M308.313,249.819l0,-9.027l-1.91,1.983l-1.191,-1.244l3.364,-3.403l1.787,0l0,11.691l-2.05,0Z" style="fill:#00a1c7;fill-rule:nonzero;"/><path d="M321.597,243.982c0,-2.224 -0.683,-4.205 -2.593,-4.205c-1.911,0 -2.597,1.981 -2.597,4.205c0,2.226 0.686,4.226 2.597,4.226c1.91,0 2.593,-2 2.593,-4.226m-7.274,0c0,-2.944 1.404,-6.028 4.681,-6.028c3.277,0 4.677,3.084 4.677,6.028c0,2.946 -1.4,6.047 -4.677,6.047c-3.277,0 -4.681,-3.101 -4.681,-6.047" style="fill:#00a1c7;fill-rule:nonzero;"/><path d="M329.763,249.819l0,-9.027l-1.91,1.983l-1.19,-1.244l3.364,-3.403l1.787,0l0,11.691l-2.051,0Z" style="fill:#00a1c7;fill-rule:nonzero;"/><path d="M343.048,243.982c0,-2.224 -0.684,-4.205 -2.594,-4.205c-1.91,0 -2.594,1.981 -2.594,4.205c0,2.226 0.684,4.226 2.594,4.226c1.91,0 2.594,-2 2.594,-4.226m-7.274,0c0,-2.944 1.403,-6.028 4.68,-6.028c3.277,0 4.678,3.084 4.678,6.028c0,2.946 -1.401,6.047 -4.678,6.047c-3.277,0 -4.68,-3.101 -4.68,-6.047" style="fill:#00a1c7;fill-rule:nonzero;"/><path d="M355.841,243.982c0,-2.224 -0.683,-4.205 -2.593,-4.205c-1.91,0 -2.594,1.981 -2.594,4.205c0,2.226 0.684,4.226 2.594,4.226c1.91,0 2.593,-2 2.593,-4.226m-7.273,0c0,-2.944 1.403,-6.028 4.68,-6.028c3.277,0 4.677,3.084 4.677,6.028c0,2.946 -1.4,6.047 -4.677,6.047c-3.277,0 -4.68,-3.101 -4.68,-6.047" style="fill:#00a1c7;fill-rule:nonzero;"/><path d="M364.005,249.819l0,-9.027l-1.91,1.983l-1.19,-1.244l3.364,-3.403l1.787,0l0,11.691l-2.051,0Z" style="fill:#00a1c7;fill-rule:nonzero;"/><path d="M257.575,356.704l0,-9.027l-1.91,1.983l-1.19,-1.244l3.364,-3.403l1.787,0l0,11.691l-2.051,0Z" style="fill:#00a1c7;fill-rule:nonzero;"/><path d="M270.86,350.866c0,-2.223 -0.684,-4.204 -2.594,-4.204c-1.91,0 -2.596,1.981 -2.596,4.204c0,2.227 0.686,4.227 2.596,4.227c1.91,0 2.594,-2 2.594,-4.227m-7.274,0c0,-2.943 1.403,-6.027 4.68,-6.027c3.277,0 4.678,3.084 4.678,6.027c0,2.947 -1.401,6.048 -4.678,6.048c-3.277,0 -4.68,-3.101 -4.68,-6.048" style="fill:#00a1c7;fill-rule:nonzero;"/><path d="M279.026,356.704l0,-9.027l-1.911,1.983l-1.19,-1.244l3.364,-3.403l1.787,0l0,11.691l-2.05,0Z" style="fill:#00a1c7;fill-rule:nonzero;"/><path d="M292.31,350.866c0,-2.223 -0.683,-4.204 -2.593,-4.204c-1.913,0 -2.594,1.981 -2.594,4.204c0,2.227 0.681,4.227 2.594,4.227c1.91,0 2.593,-2 2.593,-4.227m-7.274,0c0,-2.943 1.404,-6.027 4.681,-6.027c3.277,0 4.677,3.084 4.677,6.027c0,2.947 -1.4,6.048 -4.677,6.048c-3.277,0 -4.681,-3.101 -4.681,-6.048" style="fill:#00a1c7;fill-rule:nonzero;"/><path d="M305.104,350.866c0,-2.223 -0.683,-4.204 -2.594,-4.204c-1.913,0 -2.593,1.981 -2.593,4.204c0,2.227 0.68,4.227 2.593,4.227c1.911,0 2.594,-2 2.594,-4.227m-7.274,0c0,-2.943 1.403,-6.027 4.68,-6.027c3.277,0 4.678,3.084 4.678,6.027c0,2.947 -1.401,6.048 -4.678,6.048c-3.277,0 -4.68,-3.101 -4.68,-6.048" style="fill:#00a1c7;fill-rule:nonzero;"/><path d="M313.268,356.704l0,-9.027l-1.91,1.983l-1.191,-1.244l3.364,-3.403l1.787,0l0,11.691l-2.05,0Z" style="fill:#00a1c7;fill-rule:nonzero;"/><path d="M333.053,350.866c0,-2.223 -0.683,-4.204 -2.593,-4.204c-1.91,0 -2.597,1.981 -2.597,4.204c0,2.227 0.687,4.227 2.597,4.227c1.91,0 2.593,-2 2.593,-4.227m-7.274,0c0,-2.943 1.404,-6.027 4.681,-6.027c3.277,0 4.677,3.084 4.677,6.027c0,2.947 -1.4,6.048 -4.677,6.048c-3.277,0 -4.681,-3.101 -4.681,-6.048" style="fill:#00a1c7;fill-rule:nonzero;"/><path d="M341.22,356.704l0,-9.027l-1.911,1.983l-1.19,-1.244l3.364,-3.403l1.787,0l0,11.691l-2.05,0Z" style="fill:#00a1c7;fill-rule:nonzero;"/><path d="M349.876,356.704l0,-9.027l-1.91,1.983l-1.191,-1.244l3.364,-3.403l1.787,0l0,11.691l-2.05,0Z" style="fill:#00a1c7;fill-rule:nonzero;"/><path d="M358.533,356.704l0,-9.027l-1.911,1.983l-1.19,-1.244l3.364,-3.403l1.787,0l0,11.691l-2.05,0Z" style="fill:#00a1c7;fill-rule:nonzero;"/><path d="M371.815,350.866c0,-2.223 -0.684,-4.204 -2.594,-4.204c-1.91,0 -2.596,1.981 -2.596,4.204c0,2.227 0.686,4.227 2.596,4.227c1.91,0 2.594,-2 2.594,-4.227m-7.274,0c0,-2.943 1.403,-6.027 4.68,-6.027c3.277,0 4.677,3.084 4.677,6.027c0,2.947 -1.4,6.048 -4.677,6.048c-3.277,0 -4.68,-3.101 -4.68,-6.048" style="fill:#00a1c7;fill-rule:nonzero;"/><path d="M379.981,356.704l0,-9.027l-1.91,1.983l-1.191,-1.244l3.364,-3.403l1.787,0l0,11.691l-2.05,0Z" style="fill:#00a1c7;fill-rule:nonzero;"/><path d="M393.265,350.866c0,-2.223 -0.683,-4.204 -2.594,-4.204c-1.91,0 -2.593,1.981 -2.593,4.204c0,2.227 0.683,4.227 2.593,4.227c1.911,0 2.594,-2 2.594,-4.227m-7.274,0c0,-2.943 1.403,-6.027 4.68,-6.027c3.277,0 4.678,3.084 4.678,6.027c0,2.947 -1.401,6.048 -4.678,6.048c-3.277,0 -4.68,-3.101 -4.68,-6.048" style="fill:#00a1c7;fill-rule:nonzero;"/><path d="M274.627,368.685c0,-2.224 -0.683,-4.204 -2.593,-4.204c-1.911,0 -2.594,1.98 -2.594,4.204c0,2.227 0.683,4.227 2.594,4.227c1.91,0 2.593,-2 2.593,-4.227m-7.274,0c0,-2.944 1.404,-6.027 4.681,-6.027c3.277,0 4.677,3.083 4.677,6.027c0,2.947 -1.4,6.047 -4.677,6.047c-3.277,0 -4.681,-3.1 -4.681,-6.047" style="fill:#00a1c7;fill-rule:nonzero;"/><path d="M282.793,374.522l0,-9.027l-1.91,1.983l-1.19,-1.243l3.364,-3.404l1.787,0l0,11.691l-2.051,0Z" style="fill:#00a1c7;fill-rule:nonzero;"/><path d="M296.078,368.685c0,-2.224 -0.684,-4.204 -2.594,-4.204c-1.91,0 -2.596,1.98 -2.596,4.204c0,2.227 0.686,4.227 2.596,4.227c1.91,0 2.594,-2 2.594,-4.227m-7.274,0c0,-2.944 1.403,-6.027 4.68,-6.027c3.277,0 4.677,3.083 4.677,6.027c0,2.947 -1.4,6.047 -4.677,6.047c-3.277,0 -4.68,-3.1 -4.68,-6.047" style="fill:#00a1c7;fill-rule:nonzero;"/><path d="M304.244,374.522l0,-9.027l-1.91,1.983l-1.191,-1.243l3.364,-3.404l1.787,0l0,11.691l-2.05,0Z" style="fill:#00a1c7;fill-rule:nonzero;"/><path d="M317.526,368.685c0,-2.224 -0.684,-4.204 -2.594,-4.204c-1.91,0 -2.596,1.98 -2.596,4.204c0,2.227 0.686,4.227 2.596,4.227c1.91,0 2.594,-2 2.594,-4.227m-7.274,0c0,-2.944 1.403,-6.027 4.68,-6.027c3.277,0 4.678,3.083 4.678,6.027c0,2.947 -1.401,6.047 -4.678,6.047c-3.277,0 -4.68,-3.1 -4.68,-6.047" style="fill:#00a1c7;fill-rule:nonzero;"/><path d="M325.692,374.522l0,-9.027l-1.91,1.983l-1.19,-1.243l3.363,-3.404l1.787,0l0,11.691l-2.05,0Z" style="fill:#00a1c7;fill-rule:nonzero;"/><path d="M334.349,374.522l0,-9.027l-1.91,1.983l-1.191,-1.243l3.364,-3.404l1.787,0l0,11.691l-2.05,0Z" style="fill:#00a1c7;fill-rule:nonzero;"/><path d="M347.633,368.685c0,-2.224 -0.683,-4.204 -2.594,-4.204c-1.91,0 -2.596,1.98 -2.596,4.204c0,2.227 0.686,4.227 2.596,4.227c1.911,0 2.594,-2 2.594,-4.227m-7.274,0c0,-2.944 1.403,-6.027 4.68,-6.027c3.277,0 4.678,3.083 4.678,6.027c0,2.947 -1.401,6.047 -4.678,6.047c-3.277,0 -4.68,-3.1 -4.68,-6.047" style="fill:#00a1c7;fill-rule:nonzero;"/><path d="M366.928,368.685c0,-2.224 -0.684,-4.204 -2.594,-4.204c-1.91,0 -2.593,1.98 -2.593,4.204c0,2.227 0.683,4.227 2.593,4.227c1.91,0 2.594,-2 2.594,-4.227m-7.274,0c0,-2.944 1.403,-6.027 4.68,-6.027c3.277,0 4.678,3.083 4.678,6.027c0,2.947 -1.401,6.047 -4.678,6.047c-3.277,0 -4.68,-3.1 -4.68,-6.047" style="fill:#00a1c7;fill-rule:nonzero;"/><path d="M375.092,374.522l0,-9.027l-1.91,1.983l-1.191,-1.243l3.364,-3.404l1.787,0l0,11.691l-2.05,0Z" style="fill:#00a1c7;fill-rule:nonzero;"/><path d="M383.748,374.522l0,-9.027l-1.91,1.983l-1.19,-1.243l3.364,-3.404l1.786,0l0,11.691l-2.05,0Z" style="fill:#00a1c7;fill-rule:nonzero;"/><path d="M261.833,368.685c0,-2.224 -0.683,-4.204 -2.593,-4.204c-1.91,0 -2.594,1.98 -2.594,4.204c0,2.227 0.684,4.227 2.594,4.227c1.91,0 2.593,-2 2.593,-4.227m-7.274,0c0,-2.944 1.404,-6.027 4.681,-6.027c3.277,0 4.677,3.083 4.677,6.027c0,2.947 -1.4,6.047 -4.677,6.047c-3.277,0 -4.681,-3.1 -4.681,-6.047" style="fill:#00a1c7;fill-rule:nonzero;"/><path d="M297.247,261.69c0,-2.224 -0.684,-4.205 -2.594,-4.205c-1.913,0 -2.596,1.981 -2.596,4.205c0,2.226 0.683,4.226 2.596,4.226c1.91,0 2.594,-2 2.594,-4.226m-7.274,0c0,-2.944 1.403,-6.028 4.68,-6.028c3.277,0 4.678,3.084 4.678,6.028c0,2.946 -1.401,6.047 -4.678,6.047c-3.277,0 -4.68,-3.101 -4.68,-6.047" style="fill:#00a1c7;fill-rule:nonzero;"/><path d="M305.413,267.527l0,-9.027l-1.91,1.983l-1.191,-1.244l3.364,-3.403l1.787,0l0,11.691l-2.05,0Z" style="fill:#00a1c7;fill-rule:nonzero;"/><path d="M314.07,267.527l0,-9.027l-1.911,1.983l-1.19,-1.244l3.364,-3.403l1.787,0l0,11.691l-2.05,0Z" style="fill:#00a1c7;fill-rule:nonzero;"/><path d="M322.726,267.527l0,-9.027l-1.91,1.983l-1.191,-1.244l3.364,-3.403l1.787,0l0,11.691l-2.05,0Z" style="fill:#00a1c7;fill-rule:nonzero;"/><path d="M336.008,261.69c0,-2.224 -0.683,-4.205 -2.594,-4.205c-1.91,0 -2.596,1.981 -2.596,4.205c0,2.226 0.686,4.226 2.596,4.226c1.911,0 2.594,-2 2.594,-4.226m-7.274,0c0,-2.944 1.403,-6.028 4.68,-6.028c3.277,0 4.678,3.084 4.678,6.028c0,2.946 -1.401,6.047 -4.678,6.047c-3.277,0 -4.68,-3.101 -4.68,-6.047" style="fill:#00a1c7;fill-rule:nonzero;"/><path d="M344.174,267.527l0,-9.027l-1.91,1.983l-1.19,-1.244l3.363,-3.403l1.787,0l0,11.691l-2.05,0Z" style="fill:#00a1c7;fill-rule:nonzero;"/><path d="M357.458,261.69c0,-2.224 -0.683,-4.205 -2.593,-4.205c-1.91,0 -2.594,1.981 -2.594,4.205c0,2.226 0.684,4.226 2.594,4.226c1.91,0 2.593,-2 2.593,-4.226m-7.273,0c0,-2.944 1.403,-6.028 4.68,-6.028c3.277,0 4.677,3.084 4.677,6.028c0,2.946 -1.4,6.047 -4.677,6.047c-3.277,0 -4.68,-3.101 -4.68,-6.047" style="fill:#00a1c7;fill-rule:nonzero;"/><path d="M370.253,261.69c0,-2.224 -0.684,-4.205 -2.594,-4.205c-1.91,0 -2.594,1.981 -2.594,4.205c0,2.226 0.684,4.226 2.594,4.226c1.91,0 2.594,-2 2.594,-4.226m-7.274,0c0,-2.944 1.403,-6.028 4.68,-6.028c3.277,0 4.677,3.084 4.677,6.028c0,2.946 -1.4,6.047 -4.677,6.047c-3.277,0 -4.68,-3.101 -4.68,-6.047" style="fill:#00a1c7;fill-rule:nonzero;"/></g></svg>