<?xml version="1.0" encoding="UTF-8" standalone="no"?><!DOCTYPE svg PUBLIC "-//W3C//DTD SVG 1.1//EN" "http://www.w3.org/Graphics/SVG/1.1/DTD/svg11.dtd"><svg width="100%" height="100%" viewBox="0 0 463 463" version="1.1" xmlns="http://www.w3.org/2000/svg" xmlns:xlink="http://www.w3.org/1999/xlink" xml:space="preserve" xmlns:serif="http://www.serif.com/" style="fill-rule:evenodd;clip-rule:evenodd;stroke-linecap:round;stroke-miterlimit:10;"><g id="Layer-1" serif:id="Layer 1"><path d="M62.704,166.284l1.885,-5.957l-15.099,5.821l-7.801,-12.393l-1.885,5.957l7.603,11.244l-10.145,-3.21l-1.53,4.834l22.707,7.185l1.529,-4.834l-6.979,-2.208l-1.55,-2.438l11.265,-4.001Z" style="fill:#00a1c7;fill-rule:nonzero;"/><path d="M57.598,146.207c6.325,3.392 13.337,1.197 16.729,-5.128c3.409,-6.356 1.359,-13.412 -4.966,-16.804c-6.324,-3.392 -13.336,-1.197 -16.745,5.159c-3.393,6.325 -1.342,13.38 4.982,16.773Zm9.299,-17.338c3.902,2.093 5.541,6.213 3.465,10.084c-2.076,3.87 -6.398,4.752 -10.3,2.66c-3.933,-2.11 -5.558,-6.182 -3.482,-10.052c2.076,-3.871 6.384,-4.802 10.317,-2.692Z" style="fill:#00a1c7;fill-rule:nonzero;"/><path d="M77.471,112.308c5.497,4.615 12.809,3.9 17.424,-1.596c4.637,-5.525 4.074,-12.85 -1.423,-17.465c-5.497,-4.614 -12.81,-3.9 -17.447,1.624c-4.614,5.497 -4.051,12.823 1.446,17.437Zm12.649,-15.068c3.391,2.847 4.153,7.215 1.329,10.579c-2.824,3.364 -7.235,3.343 -10.626,0.497c-3.419,-2.87 -4.176,-7.188 -1.352,-10.552c2.824,-3.364 7.231,-3.394 10.649,-0.524Z" style="fill:#00a1c7;fill-rule:nonzero;"/><path d="M112.175,91.827l7.352,-5.842c5.842,-4.643 6.963,-11.554 2.498,-17.173c-4.465,-5.618 -11.473,-6.115 -17.315,-1.472l-7.352,5.842l14.817,18.645Zm1.193,-6.648l-9.264,-11.657l3.383,-2.688c3.829,-3.043 7.864,-2.099 10.485,1.199c2.51,3.159 2.468,7.525 -1.222,10.458l-3.382,2.688Z" style="fill:#00a1c7;fill-rule:nonzero;"/><path d="M140.884,71.204l4.406,-2.509l-11.786,-20.694l-4.406,2.509l11.786,20.694Z" style="fill:#00a1c7;fill-rule:nonzero;"/><path d="M173.733,56.017l5.168,-1.982l-17.096,-18.95l-5.935,2.276l-0.073,25.535l5.201,-1.995l-0.07,-4.37l9.935,-3.811l2.87,3.297Zm-13.323,-15.694l7.58,8.795l-7.368,2.826l-0.212,-11.621Z" style="fill:#00a1c7;fill-rule:nonzero;"/><path d="M207.529,44.587c2.411,2.076 5.802,3.362 10.359,3.02c6.409,-0.479 9.262,-3.987 8.937,-8.331c-0.395,-5.27 -5.467,-6.071 -9.451,-6.668c-2.789,-0.436 -4.821,-0.785 -4.94,-2.388c-0.107,-1.424 1.029,-2.512 3.308,-2.682c2.314,-0.173 4.939,0.454 6.995,2.09l2.536,-3.913c-2.513,-1.997 -5.731,-2.901 -9.506,-2.619c-5.59,0.418 -8.768,3.879 -8.472,7.831c0.397,5.305 5.461,6.001 9.409,6.6c2.79,0.436 4.9,0.887 5.034,2.667c0.101,1.353 -1.154,2.772 -3.931,2.98c-3.276,0.245 -5.984,-1.021 -7.788,-2.64l-2.49,4.053Z" style="fill:#00a1c7;fill-rule:nonzero;"/><path d="M241.468,37.152c-0.644,5.821 2.279,10.24 9.519,11.042c7.169,0.794 10.984,-2.843 11.637,-8.734l1.572,-14.196l-5.111,-0.566l-1.556,14.054c-0.366,3.3 -2.427,5.371 -6.047,4.97c-3.691,-0.409 -5.249,-2.881 -4.884,-6.181l1.557,-14.054l-5.111,-0.566l-1.576,14.231Z" style="fill:#00a1c7;fill-rule:nonzero;"/><path d="M278.349,40.252c-2.223,6.823 1.175,13.338 7.999,15.561c6.858,2.234 13.441,-1.029 15.664,-7.853c2.223,-6.824 -1.175,-13.339 -8.033,-15.573c-6.824,-2.222 -13.407,1.041 -15.63,7.865Zm18.706,6.093c-1.371,4.21 -5.138,6.55 -9.313,5.19c-4.176,-1.36 -5.808,-5.459 -4.436,-9.669c1.382,-4.244 5.104,-6.561 9.279,-5.201c4.176,1.36 5.853,5.436 4.47,9.68Z" style="fill:#00a1c7;fill-rule:nonzero;"/><path d="M328.11,75.064l4.403,2.585l12.058,-20.538l-6.159,-3.616l-12.508,9.881l2.532,-15.737l-6.128,-3.598l-12.057,20.538l4.372,2.567l8.677,-14.78l-2.888,18.179l1.909,1.121l14.466,-11.382l-8.677,14.78Z" style="fill:#00a1c7;fill-rule:nonzero;"/><path d="M343.818,86.478l12.583,11.212l2.922,-3.28l-8.798,-7.838l3.682,-4.132l8.611,7.672l2.898,-3.252l-8.611,-7.673l3.444,-3.865l8.797,7.838l2.898,-3.252l-12.583,-11.211l-15.843,17.781Z" style="fill:#00a1c7;fill-rule:nonzero;"/><path d="M367.39,104.302c-0.363,3.161 0.478,6.688 3.32,10.267c3.996,5.034 8.501,5.424 11.912,2.715c4.138,-3.286 1.953,-7.934 0.209,-11.565c-1.206,-2.553 -2.058,-4.429 -0.8,-5.429c1.119,-0.888 2.657,-0.559 4.078,1.231c1.443,1.817 2.399,4.341 2.199,6.962l4.663,-0.101c0.24,-3.2 -0.819,-6.371 -3.173,-9.335c-3.486,-4.39 -8.134,-5.076 -11.238,-2.611c-4.166,3.308 -1.897,7.889 -0.176,11.492c1.207,2.553 2.019,4.552 0.621,5.662c-1.062,0.844 -2.941,0.603 -4.673,-1.578c-2.042,-2.573 -2.517,-5.524 -2.19,-7.927l-4.752,0.217Z" style="fill:#00a1c7;fill-rule:nonzero;"/><path d="M386.534,137.249l2.453,4.478l16.973,-9.296l3.328,6.075l3.914,-2.143l-9.124,-16.661l-3.915,2.144l3.345,6.107l-16.974,9.296Z" style="fill:#00a1c7;fill-rule:nonzero;"/><path d="M402.117,173.384l1.801,5.233l19.532,-16.428l-2.068,-6.01l-25.518,-0.959l1.813,5.267l4.371,0.082l3.463,10.06l-3.394,2.755Zm16.146,-12.771l-9.052,7.27l-2.569,-7.461l11.621,0.191Z" style="fill:#00a1c7;fill-rule:nonzero;"/><path d="M140.313,392.999c-59.589,-32.318 -100.047,-95.422 -100.047,-167.972c0,-11.511 1.016,-22.78 2.969,-33.729" style="fill:none;stroke:#00a1c7;stroke-width:4.9px;"/><path d="M322.636,392.999c59.589,-32.318 100.047,-95.422 100.047,-167.972c0,-11.511 -1.016,-22.78 -2.969,-33.729" style="fill:none;stroke:#00a1c7;stroke-width:4.9px;"/><path d="M162.81,408.97c0,-2.594 -0.797,-4.903 -3.025,-4.903c-2.227,0 -3.024,2.309 -3.024,4.903c0,2.596 0.797,4.929 3.024,4.929c2.228,0 3.025,-2.333 3.025,-4.929m-8.483,0c0,-3.433 1.637,-7.03 5.458,-7.03c3.822,0 5.455,3.597 5.455,7.03c0,3.436 -1.633,7.052 -5.455,7.052c-3.821,0 -5.458,-3.616 -5.458,-7.052" style="fill:#00a1c7;fill-rule:nonzero;"/><path d="M178.517,118.459c0,-2.593 -0.797,-4.903 -3.025,-4.903c-2.228,0 -3.025,2.31 -3.025,4.903c0,2.597 0.797,4.929 3.025,4.929c2.228,0 3.025,-2.332 3.025,-4.929m-8.483,0c0,-3.433 1.636,-7.029 5.458,-7.029c3.822,0 5.455,3.596 5.455,7.029c0,3.436 -1.633,7.052 -5.455,7.052c-3.822,0 -5.458,-3.616 -5.458,-7.052" style="fill:#00a1c7;fill-rule:nonzero;"/><path d="M188.04,125.267l0,-10.528l-2.227,2.313l-1.389,-1.451l3.923,-3.968l2.084,0l0,13.634l-2.391,0Z" style="fill:#00a1c7;fill-rule:nonzero;"/><path d="M248.596,97.633c0,-2.593 -0.797,-4.903 -3.024,-4.903c-2.228,0 -3.025,2.31 -3.025,4.903c0,2.597 0.797,4.929 3.025,4.929c2.227,0 3.024,-2.332 3.024,-4.929m-8.482,0c0,-3.433 1.636,-7.029 5.458,-7.029c3.821,0 5.455,3.596 5.455,7.029c0,3.436 -1.634,7.052 -5.455,7.052c-3.822,0 -5.458,-3.616 -5.458,-7.052" style="fill:#00a1c7;fill-rule:nonzero;"/><path d="M258.12,104.441l0,-10.528l-2.228,2.313l-1.388,-1.451l3.923,-3.968l2.084,0l0,13.634l-2.391,0Z" style="fill:#00a1c7;fill-rule:nonzero;"/><path d="M273.612,97.633c0,-2.593 -0.797,-4.903 -3.024,-4.903c-2.228,0 -3.028,2.31 -3.028,4.903c0,2.597 0.8,4.929 3.028,4.929c2.227,0 3.024,-2.332 3.024,-4.929m-8.483,0c0,-3.433 1.637,-7.029 5.459,-7.029c3.821,0 5.455,3.596 5.455,7.029c0,3.436 -1.634,7.052 -5.455,7.052c-3.822,0 -5.459,-3.616 -5.459,-7.052" style="fill:#00a1c7;fill-rule:nonzero;"/><path d="M283.136,104.441l0,-10.528l-2.228,2.313l-1.388,-1.451l3.923,-3.968l2.084,0l0,13.634l-2.391,0Z" style="fill:#00a1c7;fill-rule:nonzero;"/><path d="M242.944,243.013c0,-2.594 -0.797,-4.903 -3.025,-4.903c-2.227,0 -3.024,2.309 -3.024,4.903c0,2.597 0.797,4.929 3.024,4.929c2.228,0 3.025,-2.332 3.025,-4.929m-8.483,0c0,-3.433 1.637,-7.029 5.458,-7.029c3.822,0 5.455,3.596 5.455,7.029c0,3.436 -1.633,7.052 -5.455,7.052c-3.821,0 -5.458,-3.616 -5.458,-7.052" style="fill:#00a1c7;fill-rule:nonzero;"/><path d="M252.467,249.82l0,-10.527l-2.227,2.312l-1.388,-1.45l3.923,-3.969l2.083,0l0,13.634l-2.391,0Z" style="fill:#00a1c7;fill-rule:nonzero;"/><path d="M267.96,243.013c0,-2.594 -0.797,-4.903 -3.025,-4.903c-2.231,0 -3.028,2.309 -3.028,4.903c0,2.597 0.797,4.929 3.028,4.929c2.228,0 3.025,-2.332 3.025,-4.929m-8.483,0c0,-3.433 1.636,-7.029 5.458,-7.029c3.822,0 5.455,3.596 5.455,7.029c0,3.436 -1.633,7.052 -5.455,7.052c-3.822,0 -5.458,-3.616 -5.458,-7.052" style="fill:#00a1c7;fill-rule:nonzero;"/><path d="M277.483,249.82l0,-10.527l-2.228,2.312l-1.388,-1.45l3.923,-3.969l2.084,0l0,13.634l-2.391,0Z" style="fill:#00a1c7;fill-rule:nonzero;"/><path d="M292.973,243.013c0,-2.594 -0.797,-4.903 -3.025,-4.903c-2.228,0 -3.028,2.309 -3.028,4.903c0,2.597 0.8,4.929 3.028,4.929c2.228,0 3.025,-2.332 3.025,-4.929m-8.483,0c0,-3.433 1.636,-7.029 5.458,-7.029c3.822,0 5.455,3.596 5.455,7.029c0,3.436 -1.633,7.052 -5.455,7.052c-3.822,0 -5.458,-3.616 -5.458,-7.052" style="fill:#00a1c7;fill-rule:nonzero;"/><path d="M302.496,249.82l0,-10.527l-2.227,2.312l-1.389,-1.45l3.923,-3.969l2.084,0l0,13.634l-2.391,0Z" style="fill:#00a1c7;fill-rule:nonzero;"/><path d="M235.274,125.065l0,-10.528l-2.228,2.312l-1.388,-1.45l3.923,-3.968l2.084,0l0,13.634l-2.391,0Z" style="fill:#00a1c7;fill-rule:nonzero;"/><path d="M250.766,118.257c0,-2.594 -0.797,-4.903 -3.024,-4.903c-2.228,0 -3.028,2.309 -3.028,4.903c0,2.597 0.8,4.929 3.028,4.929c2.227,0 3.024,-2.332 3.024,-4.929m-8.483,0c0,-3.433 1.637,-7.029 5.459,-7.029c3.821,0 5.455,3.596 5.455,7.029c0,3.436 -1.634,7.052 -5.455,7.052c-3.822,0 -5.459,-3.616 -5.459,-7.052" style="fill:#00a1c7;fill-rule:nonzero;"/><path d="M273.268,118.257c0,-2.594 -0.797,-4.903 -3.024,-4.903c-2.228,0 -3.025,2.309 -3.025,4.903c0,2.597 0.797,4.929 3.025,4.929c2.227,0 3.024,-2.332 3.024,-4.929m-8.483,0c0,-3.433 1.637,-7.029 5.459,-7.029c3.821,0 5.455,3.596 5.455,7.029c0,3.436 -1.634,7.052 -5.455,7.052c-3.822,0 -5.459,-3.616 -5.459,-7.052" style="fill:#00a1c7;fill-rule:nonzero;"/><path d="M222.578,270.6l0,-10.528l-2.227,2.313l-1.388,-1.45l3.923,-3.969l2.083,0l0,13.634l-2.391,0Z" style="fill:#00a1c7;fill-rule:nonzero;"/><path d="M238.071,263.792c0,-2.593 -0.797,-4.902 -3.025,-4.902c-2.231,0 -3.028,2.309 -3.028,4.902c0,2.597 0.797,4.929 3.028,4.929c2.228,0 3.025,-2.332 3.025,-4.929m-8.483,0c0,-3.433 1.636,-7.029 5.458,-7.029c3.822,0 5.455,3.596 5.455,7.029c0,3.437 -1.633,7.053 -5.455,7.053c-3.822,0 -5.458,-3.616 -5.458,-7.053" style="fill:#00a1c7;fill-rule:nonzero;"/><path d="M260.573,263.792c0,-2.593 -0.797,-4.902 -3.025,-4.902c-2.228,0 -3.025,2.309 -3.025,4.902c0,2.597 0.797,4.929 3.025,4.929c2.228,0 3.025,-2.332 3.025,-4.929m-8.483,0c0,-3.433 1.636,-7.029 5.458,-7.029c3.822,0 5.455,3.596 5.455,7.029c0,3.437 -1.633,7.053 -5.455,7.053c-3.822,0 -5.458,-3.616 -5.458,-7.053" style="fill:#00a1c7;fill-rule:nonzero;"/><path d="M270.094,270.6l0,-10.528l-2.228,2.313l-1.388,-1.45l3.923,-3.969l2.084,0l0,13.634l-2.391,0Z" style="fill:#00a1c7;fill-rule:nonzero;"/><path d="M280.189,270.6l0,-10.528l-2.227,2.313l-1.389,-1.45l3.923,-3.969l2.084,0l0,13.634l-2.391,0Z" style="fill:#00a1c7;fill-rule:nonzero;"/><path d="M295.682,263.792c0,-2.593 -0.797,-4.902 -3.025,-4.902c-2.228,0 -3.028,2.309 -3.028,4.902c0,2.597 0.8,4.929 3.028,4.929c2.228,0 3.025,-2.332 3.025,-4.929m-8.483,0c0,-3.433 1.636,-7.029 5.458,-7.029c3.822,0 5.455,3.596 5.455,7.029c0,3.437 -1.633,7.053 -5.455,7.053c-3.822,0 -5.458,-3.616 -5.458,-7.053" style="fill:#00a1c7;fill-rule:nonzero;"/><path d="M305.205,270.6l0,-10.528l-2.228,2.313l-1.388,-1.45l3.923,-3.969l2.084,0l0,13.634l-2.391,0Z" style="fill:#00a1c7;fill-rule:nonzero;"/><path d="M193.06,145.936l0,-10.527l-2.227,2.312l-1.389,-1.45l3.923,-3.969l2.084,0l0,13.634l-2.391,0Z" style="fill:#00a1c7;fill-rule:nonzero;"/><path d="M203.155,145.936l0,-10.527l-2.227,2.312l-1.389,-1.45l3.923,-3.969l2.084,0l0,13.634l-2.391,0Z" style="fill:#00a1c7;fill-rule:nonzero;"/><path d="M218.648,139.129c0,-2.594 -0.797,-4.903 -3.025,-4.903c-2.228,0 -3.028,2.309 -3.028,4.903c0,2.597 0.8,4.929 3.028,4.929c2.228,0 3.025,-2.332 3.025,-4.929m-8.483,0c0,-3.433 1.636,-7.03 5.458,-7.03c3.822,0 5.455,3.597 5.455,7.03c0,3.436 -1.633,7.052 -5.455,7.052c-3.822,0 -5.458,-3.616 -5.458,-7.052" style="fill:#00a1c7;fill-rule:nonzero;"/><path d="M228.171,145.936l0,-10.527l-2.227,2.312l-1.389,-1.45l3.923,-3.969l2.084,0l0,13.634l-2.391,0Z" style="fill:#00a1c7;fill-rule:nonzero;"/><path d="M243.664,139.129c0,-2.594 -0.797,-4.903 -3.025,-4.903c-2.228,0 -3.025,2.309 -3.025,4.903c0,2.597 0.797,4.929 3.025,4.929c2.228,0 3.025,-2.332 3.025,-4.929m-8.483,0c0,-3.433 1.636,-7.03 5.458,-7.03c3.822,0 5.455,3.597 5.455,7.03c0,3.436 -1.633,7.052 -5.455,7.052c-3.822,0 -5.458,-3.616 -5.458,-7.052" style="fill:#00a1c7;fill-rule:nonzero;"/><path d="M258.584,139.129c0,-2.594 -0.797,-4.903 -3.025,-4.903c-2.227,0 -3.024,2.309 -3.024,4.903c0,2.597 0.797,4.929 3.024,4.929c2.228,0 3.025,-2.332 3.025,-4.929m-8.483,0c0,-3.433 1.637,-7.03 5.458,-7.03c3.822,0 5.455,3.597 5.455,7.03c0,3.436 -1.633,7.052 -5.455,7.052c-3.821,0 -5.458,-3.616 -5.458,-7.052" style="fill:#00a1c7;fill-rule:nonzero;"/><path d="M268.108,145.936l0,-10.527l-2.228,2.312l-1.388,-1.45l3.923,-3.969l2.084,0l0,13.634l-2.391,0Z" style="fill:#00a1c7;fill-rule:nonzero;"/><path d="M191.573,367.682c0,-2.593 -0.797,-4.903 -3.025,-4.903c-2.231,0 -3.028,2.31 -3.028,4.903c0,2.597 0.797,4.929 3.028,4.929c2.228,0 3.025,-2.332 3.025,-4.929m-8.483,0c0,-3.433 1.636,-7.029 5.458,-7.029c3.822,0 5.455,3.596 5.455,7.029c0,3.436 -1.633,7.052 -5.455,7.052c-3.822,0 -5.458,-3.616 -5.458,-7.052" style="fill:#00a1c7;fill-rule:nonzero;"/><path d="M201.096,374.49l0,-10.528l-2.227,2.313l-1.389,-1.451l3.923,-3.968l2.084,0l0,13.634l-2.391,0Z" style="fill:#00a1c7;fill-rule:nonzero;"/><path d="M216.589,367.682c0,-2.593 -0.797,-4.903 -3.025,-4.903c-2.228,0 -3.025,2.31 -3.025,4.903c0,2.597 0.797,4.929 3.025,4.929c2.228,0 3.025,-2.332 3.025,-4.929m-8.483,0c0,-3.433 1.636,-7.029 5.458,-7.029c3.822,0 5.455,3.596 5.455,7.029c0,3.436 -1.633,7.052 -5.455,7.052c-3.822,0 -5.458,-3.616 -5.458,-7.052" style="fill:#00a1c7;fill-rule:nonzero;"/><path d="M231.509,367.682c0,-2.593 -0.797,-4.903 -3.025,-4.903c-2.227,0 -3.024,2.31 -3.024,4.903c0,2.597 0.797,4.929 3.024,4.929c2.228,0 3.025,-2.332 3.025,-4.929m-8.483,0c0,-3.433 1.637,-7.029 5.458,-7.029c3.822,0 5.455,3.596 5.455,7.029c0,3.436 -1.633,7.052 -5.455,7.052c-3.821,0 -5.458,-3.616 -5.458,-7.052" style="fill:#00a1c7;fill-rule:nonzero;"/><path d="M241.033,374.49l0,-10.528l-2.228,2.313l-1.388,-1.451l3.923,-3.968l2.084,0l0,13.634l-2.391,0Z" style="fill:#00a1c7;fill-rule:nonzero;"/><path d="M264.104,367.682c0,-2.593 -0.797,-4.903 -3.025,-4.903c-2.231,0 -3.028,2.31 -3.028,4.903c0,2.597 0.797,4.929 3.028,4.929c2.228,0 3.025,-2.332 3.025,-4.929m-8.483,0c0,-3.433 1.636,-7.029 5.458,-7.029c3.822,0 5.455,3.596 5.455,7.029c0,3.436 -1.633,7.052 -5.455,7.052c-3.822,0 -5.458,-3.616 -5.458,-7.052" style="fill:#00a1c7;fill-rule:nonzero;"/><path d="M273.627,374.49l0,-10.528l-2.227,2.313l-1.389,-1.451l3.923,-3.968l2.084,0l0,13.634l-2.391,0Z" style="fill:#00a1c7;fill-rule:nonzero;"/><path d="M283.723,374.49l0,-10.528l-2.228,2.313l-1.388,-1.451l3.923,-3.968l2.084,0l0,13.634l-2.391,0Z" style="fill:#00a1c7;fill-rule:nonzero;"/><path d="M299.215,367.682c0,-2.593 -0.797,-4.903 -3.025,-4.903c-2.227,0 -3.028,2.31 -3.028,4.903c0,2.597 0.801,4.929 3.028,4.929c2.228,0 3.025,-2.332 3.025,-4.929m-8.483,0c0,-3.433 1.637,-7.029 5.458,-7.029c3.822,0 5.455,3.596 5.455,7.029c0,3.436 -1.633,7.052 -5.455,7.052c-3.821,0 -5.458,-3.616 -5.458,-7.052" style="fill:#00a1c7;fill-rule:nonzero;"/><path d="M308.739,374.49l0,-10.528l-2.228,2.313l-1.388,-1.451l3.923,-3.968l2.084,0l0,13.634l-2.391,0Z" style="fill:#00a1c7;fill-rule:nonzero;"/><path d="M213.243,284.657c0,-2.593 -0.797,-4.903 -3.025,-4.903c-2.227,0 -3.024,2.31 -3.024,4.903c0,2.597 0.797,4.929 3.024,4.929c2.228,0 3.025,-2.332 3.025,-4.929m-8.483,0c0,-3.433 1.637,-7.029 5.458,-7.029c3.822,0 5.455,3.596 5.455,7.029c0,3.437 -1.633,7.053 -5.455,7.053c-3.821,0 -5.458,-3.616 -5.458,-7.053" style="fill:#00a1c7;fill-rule:nonzero;"/><path d="M228.163,284.657c0,-2.593 -0.797,-4.903 -3.024,-4.903c-2.228,0 -3.025,2.31 -3.025,4.903c0,2.597 0.797,4.929 3.025,4.929c2.227,0 3.024,-2.332 3.024,-4.929m-8.482,0c0,-3.433 1.636,-7.029 5.458,-7.029c3.821,0 5.455,3.596 5.455,7.029c0,3.437 -1.634,7.053 -5.455,7.053c-3.822,0 -5.458,-3.616 -5.458,-7.053" style="fill:#00a1c7;fill-rule:nonzero;"/><path d="M237.687,291.465l0,-10.528l-2.228,2.313l-1.388,-1.45l3.923,-3.969l2.084,0l0,13.634l-2.391,0Z" style="fill:#00a1c7;fill-rule:nonzero;"/><path d="M260.758,284.657c0,-2.593 -0.797,-4.903 -3.024,-4.903c-2.231,0 -3.028,2.31 -3.028,4.903c0,2.597 0.797,4.929 3.028,4.929c2.227,0 3.024,-2.332 3.024,-4.929m-8.483,0c0,-3.433 1.637,-7.029 5.459,-7.029c3.821,0 5.455,3.596 5.455,7.029c0,3.437 -1.634,7.053 -5.455,7.053c-3.822,0 -5.459,-3.616 -5.459,-7.053" style="fill:#00a1c7;fill-rule:nonzero;"/><path d="M270.282,291.465l0,-10.528l-2.228,2.313l-1.388,-1.45l3.923,-3.969l2.084,0l0,13.634l-2.391,0Z" style="fill:#00a1c7;fill-rule:nonzero;"/><path d="M280.377,291.465l0,-10.528l-2.228,2.313l-1.388,-1.45l3.923,-3.969l2.084,0l0,13.634l-2.391,0Z" style="fill:#00a1c7;fill-rule:nonzero;"/><path d="M295.869,284.657c0,-2.593 -0.797,-4.903 -3.024,-4.903c-2.228,0 -3.028,2.31 -3.028,4.903c0,2.597 0.8,4.929 3.028,4.929c2.227,0 3.024,-2.332 3.024,-4.929m-8.483,0c0,-3.433 1.637,-7.029 5.459,-7.029c3.821,0 5.455,3.596 5.455,7.029c0,3.437 -1.634,7.053 -5.455,7.053c-3.822,0 -5.459,-3.616 -5.459,-7.053" style="fill:#00a1c7;fill-rule:nonzero;"/><path d="M305.393,291.465l0,-10.528l-2.228,2.313l-1.388,-1.45l3.923,-3.969l2.084,0l0,13.634l-2.391,0Z" style="fill:#00a1c7;fill-rule:nonzero;"/><path d="M315.486,291.465l0,-10.528l-2.228,2.313l-1.388,-1.45l3.923,-3.969l2.084,0l0,13.634l-2.391,0Z" style="fill:#00a1c7;fill-rule:nonzero;"/><path d="M216.065,159.73c0,-2.594 -0.797,-4.903 -3.025,-4.903c-2.231,0 -3.028,2.309 -3.028,4.903c0,2.596 0.797,4.929 3.028,4.929c2.228,0 3.025,-2.333 3.025,-4.929m-8.483,0c0,-3.433 1.637,-7.03 5.458,-7.03c3.822,0 5.455,3.597 5.455,7.03c0,3.436 -1.633,7.052 -5.455,7.052c-3.821,0 -5.458,-3.616 -5.458,-7.052" style="fill:#00a1c7;fill-rule:nonzero;"/><path d="M225.588,166.537l0,-10.527l-2.227,2.312l-1.388,-1.45l3.923,-3.969l2.083,0l0,13.634l-2.391,0Z" style="fill:#00a1c7;fill-rule:nonzero;"/><path d="M235.684,166.537l0,-10.527l-2.228,2.312l-1.388,-1.45l3.923,-3.969l2.084,0l0,13.634l-2.391,0Z" style="fill:#00a1c7;fill-rule:nonzero;"/><path d="M251.176,159.73c0,-2.594 -0.797,-4.903 -3.024,-4.903c-2.228,0 -3.028,2.309 -3.028,4.903c0,2.596 0.8,4.929 3.028,4.929c2.227,0 3.024,-2.333 3.024,-4.929m-8.483,0c0,-3.433 1.637,-7.03 5.459,-7.03c3.821,0 5.454,3.597 5.454,7.03c0,3.436 -1.633,7.052 -5.454,7.052c-3.822,0 -5.459,-3.616 -5.459,-7.052" style="fill:#00a1c7;fill-rule:nonzero;"/><path d="M260.7,166.537l0,-10.527l-2.228,2.312l-1.388,-1.45l3.923,-3.969l2.084,0l0,13.634l-2.391,0Z" style="fill:#00a1c7;fill-rule:nonzero;"/><path d="M270.792,166.537l0,-10.527l-2.227,2.312l-1.389,-1.45l3.923,-3.969l2.084,0l0,13.634l-2.391,0Z" style="fill:#00a1c7;fill-rule:nonzero;"/><path d="M280.888,166.537l0,-10.527l-2.228,2.312l-1.388,-1.45l3.923,-3.969l2.084,0l0,13.634l-2.391,0Z" style="fill:#00a1c7;fill-rule:nonzero;"/><path d="M296.38,159.73c0,-2.594 -0.797,-4.903 -3.025,-4.903c-2.227,0 -3.027,2.309 -3.027,4.903c0,2.596 0.8,4.929 3.027,4.929c2.228,0 3.025,-2.333 3.025,-4.929m-8.483,0c0,-3.433 1.637,-7.03 5.458,-7.03c3.822,0 5.455,3.597 5.455,7.03c0,3.436 -1.633,7.052 -5.455,7.052c-3.821,0 -5.458,-3.616 -5.458,-7.052" style="fill:#00a1c7;fill-rule:nonzero;"/><path d="M178.899,395.291l0,-10.528l-2.228,2.312l-1.388,-1.45l3.923,-3.968l2.084,0l0,13.634l-2.391,0Z" style="fill:#00a1c7;fill-rule:nonzero;"/><path d="M188.994,395.291l0,-10.528l-2.228,2.312l-1.388,-1.45l3.923,-3.968l2.084,0l0,13.634l-2.391,0Z" style="fill:#00a1c7;fill-rule:nonzero;"/><path d="M204.487,388.483c0,-2.594 -0.797,-4.903 -3.025,-4.903c-2.228,0 -3.028,2.309 -3.028,4.903c0,2.597 0.8,4.929 3.028,4.929c2.228,0 3.025,-2.332 3.025,-4.929m-8.483,0c0,-3.433 1.636,-7.029 5.458,-7.029c3.822,0 5.455,3.596 5.455,7.029c0,3.436 -1.633,7.052 -5.455,7.052c-3.822,0 -5.458,-3.616 -5.458,-7.052" style="fill:#00a1c7;fill-rule:nonzero;"/><path d="M226.989,388.483c0,-2.594 -0.797,-4.903 -3.025,-4.903c-2.228,0 -3.025,2.309 -3.025,4.903c0,2.597 0.797,4.929 3.025,4.929c2.228,0 3.025,-2.332 3.025,-4.929m-8.483,0c0,-3.433 1.636,-7.029 5.458,-7.029c3.822,0 5.455,3.596 5.455,7.029c0,3.436 -1.633,7.052 -5.455,7.052c-3.822,0 -5.458,-3.616 -5.458,-7.052" style="fill:#00a1c7;fill-rule:nonzero;"/><path d="M236.512,395.291l0,-10.528l-2.227,2.312l-1.389,-1.45l3.923,-3.968l2.084,0l0,13.634l-2.391,0Z" style="fill:#00a1c7;fill-rule:nonzero;"/><path d="M246.608,395.291l0,-10.528l-2.228,2.312l-1.388,-1.45l3.923,-3.968l2.084,0l0,13.634l-2.391,0Z" style="fill:#00a1c7;fill-rule:nonzero;"/><path d="M262.097,388.483c0,-2.594 -0.797,-4.903 -3.025,-4.903c-2.23,0 -3.027,2.309 -3.027,4.903c0,2.597 0.797,4.929 3.027,4.929c2.228,0 3.025,-2.332 3.025,-4.929m-8.483,0c0,-3.433 1.637,-7.029 5.458,-7.029c3.822,0 5.455,3.596 5.455,7.029c0,3.436 -1.633,7.052 -5.455,7.052c-3.821,0 -5.458,-3.616 -5.458,-7.052" style="fill:#00a1c7;fill-rule:nonzero;"/><path d="M277.018,388.483c0,-2.594 -0.797,-4.903 -3.025,-4.903c-2.228,0 -3.028,2.309 -3.028,4.903c0,2.597 0.8,4.929 3.028,4.929c2.228,0 3.025,-2.332 3.025,-4.929m-8.483,0c0,-3.433 1.636,-7.029 5.458,-7.029c3.822,0 5.455,3.596 5.455,7.029c0,3.436 -1.633,7.052 -5.455,7.052c-3.822,0 -5.458,-3.616 -5.458,-7.052" style="fill:#00a1c7;fill-rule:nonzero;"/><path d="M291.938,388.483c0,-2.594 -0.797,-4.903 -3.025,-4.903c-2.227,0 -3.027,2.309 -3.027,4.903c0,2.597 0.8,4.929 3.027,4.929c2.228,0 3.025,-2.332 3.025,-4.929m-8.483,0c0,-3.433 1.637,-7.029 5.458,-7.029c3.822,0 5.455,3.596 5.455,7.029c0,3.436 -1.633,7.052 -5.455,7.052c-3.821,0 -5.458,-3.616 -5.458,-7.052" style="fill:#00a1c7;fill-rule:nonzero;"/><path d="M213.612,180.77c0,-2.593 -0.797,-4.903 -3.025,-4.903c-2.231,0 -3.024,2.31 -3.024,4.903c0,2.597 0.793,4.929 3.024,4.929c2.228,0 3.025,-2.332 3.025,-4.929m-8.483,0c0,-3.433 1.637,-7.029 5.458,-7.029c3.822,0 5.455,3.596 5.455,7.029c0,3.437 -1.633,7.052 -5.455,7.052c-3.821,0 -5.458,-3.615 -5.458,-7.052" style="fill:#00a1c7;fill-rule:nonzero;"/><path d="M223.136,187.578l0,-10.528l-2.228,2.313l-1.388,-1.45l3.923,-3.969l2.084,0l0,13.634l-2.391,0Z" style="fill:#00a1c7;fill-rule:nonzero;"/><path d="M233.231,187.578l0,-10.528l-2.227,2.313l-1.389,-1.45l3.923,-3.969l2.084,0l0,13.634l-2.391,0Z" style="fill:#00a1c7;fill-rule:nonzero;"/><path d="M248.721,180.77c0,-2.593 -0.797,-4.903 -3.025,-4.903c-2.227,0 -3.028,2.31 -3.028,4.903c0,2.597 0.801,4.929 3.028,4.929c2.228,0 3.025,-2.332 3.025,-4.929m-8.483,0c0,-3.433 1.636,-7.029 5.458,-7.029c3.822,0 5.455,3.596 5.455,7.029c0,3.437 -1.633,7.052 -5.455,7.052c-3.822,0 -5.458,-3.615 -5.458,-7.052" style="fill:#00a1c7;fill-rule:nonzero;"/><path d="M263.641,180.77c0,-2.593 -0.797,-4.903 -3.024,-4.903c-2.228,0 -3.028,2.31 -3.028,4.903c0,2.597 0.8,4.929 3.028,4.929c2.227,0 3.024,-2.332 3.024,-4.929m-8.483,0c0,-3.433 1.637,-7.029 5.459,-7.029c3.821,0 5.454,3.596 5.454,7.029c0,3.437 -1.633,7.052 -5.454,7.052c-3.822,0 -5.459,-3.615 -5.459,-7.052" style="fill:#00a1c7;fill-rule:nonzero;"/><path d="M278.562,180.77c0,-2.593 -0.797,-4.903 -3.025,-4.903c-2.228,0 -3.028,2.31 -3.028,4.903c0,2.597 0.8,4.929 3.028,4.929c2.228,0 3.025,-2.332 3.025,-4.929m-8.483,0c0,-3.433 1.636,-7.029 5.458,-7.029c3.822,0 5.455,3.596 5.455,7.029c0,3.437 -1.633,7.052 -5.455,7.052c-3.822,0 -5.458,-3.615 -5.458,-7.052" style="fill:#00a1c7;fill-rule:nonzero;"/><path d="M288.085,187.578l0,-10.528l-2.227,2.313l-1.388,-1.45l3.922,-3.969l2.084,0l0,13.634l-2.391,0Z" style="fill:#00a1c7;fill-rule:nonzero;"/><path d="M298.181,187.578l0,-10.528l-2.228,2.313l-1.388,-1.45l3.923,-3.969l2.084,0l0,13.634l-2.391,0Z" style="fill:#00a1c7;fill-rule:nonzero;"/><path d="M183.335,312.226l0,-10.528l-2.228,2.313l-1.388,-1.451l3.923,-3.968l2.084,0l0,13.634l-2.391,0Z" style="fill:#00a1c7;fill-rule:nonzero;"/><path d="M198.827,305.418c0,-2.593 -0.797,-4.903 -3.025,-4.903c-2.227,0 -3.028,2.31 -3.028,4.903c0,2.597 0.801,4.929 3.028,4.929c2.228,0 3.025,-2.332 3.025,-4.929m-8.483,0c0,-3.433 1.637,-7.029 5.458,-7.029c3.822,0 5.455,3.596 5.455,7.029c0,3.436 -1.633,7.052 -5.455,7.052c-3.821,0 -5.458,-3.616 -5.458,-7.052" style="fill:#00a1c7;fill-rule:nonzero;"/><path d="M221.329,305.418c0,-2.593 -0.797,-4.903 -3.024,-4.903c-2.228,0 -3.025,2.31 -3.025,4.903c0,2.597 0.797,4.929 3.025,4.929c2.227,0 3.024,-2.332 3.024,-4.929m-8.482,0c0,-3.433 1.636,-7.029 5.458,-7.029c3.821,0 5.455,3.596 5.455,7.029c0,3.436 -1.634,7.052 -5.455,7.052c-3.822,0 -5.458,-3.616 -5.458,-7.052" style="fill:#00a1c7;fill-rule:nonzero;"/><path d="M230.853,312.226l0,-10.528l-2.228,2.313l-1.388,-1.451l3.923,-3.968l2.084,0l0,13.634l-2.391,0Z" style="fill:#00a1c7;fill-rule:nonzero;"/><path d="M240.948,312.226l0,-10.528l-2.228,2.313l-1.388,-1.451l3.923,-3.968l2.084,0l0,13.634l-2.391,0Z" style="fill:#00a1c7;fill-rule:nonzero;"/><path d="M256.438,305.418c0,-2.593 -0.797,-4.903 -3.025,-4.903c-2.228,0 -3.028,2.31 -3.028,4.903c0,2.597 0.8,4.929 3.028,4.929c2.228,0 3.025,-2.332 3.025,-4.929m-8.483,0c0,-3.433 1.636,-7.029 5.458,-7.029c3.822,0 5.455,3.596 5.455,7.029c0,3.436 -1.633,7.052 -5.455,7.052c-3.822,0 -5.458,-3.616 -5.458,-7.052" style="fill:#00a1c7;fill-rule:nonzero;"/><path d="M271.358,305.418c0,-2.593 -0.797,-4.903 -3.024,-4.903c-2.228,0 -3.028,2.31 -3.028,4.903c0,2.597 0.8,4.929 3.028,4.929c2.227,0 3.024,-2.332 3.024,-4.929m-8.482,0c0,-3.433 1.636,-7.029 5.458,-7.029c3.821,0 5.455,3.596 5.455,7.029c0,3.436 -1.634,7.052 -5.455,7.052c-3.822,0 -5.458,-3.616 -5.458,-7.052" style="fill:#00a1c7;fill-rule:nonzero;"/><path d="M286.279,305.418c0,-2.593 -0.797,-4.903 -3.025,-4.903c-2.228,0 -3.028,2.31 -3.028,4.903c0,2.597 0.8,4.929 3.028,4.929c2.228,0 3.025,-2.332 3.025,-4.929m-8.483,0c0,-3.433 1.636,-7.029 5.458,-7.029c3.822,0 5.455,3.596 5.455,7.029c0,3.436 -1.633,7.052 -5.455,7.052c-3.822,0 -5.458,-3.616 -5.458,-7.052" style="fill:#00a1c7;fill-rule:nonzero;"/><path d="M295.802,312.226l0,-10.528l-2.227,2.313l-1.389,-1.451l3.923,-3.968l2.084,0l0,13.634l-2.391,0Z" style="fill:#00a1c7;fill-rule:nonzero;"/><path d="M305.898,312.226l0,-10.528l-2.228,2.313l-1.388,-1.451l3.923,-3.968l2.084,0l0,13.634l-2.391,0Z" style="fill:#00a1c7;fill-rule:nonzero;"/><path d="M328.969,305.418c0,-2.593 -0.797,-4.903 -3.025,-4.903c-2.228,0 -3.028,2.31 -3.028,4.903c0,2.597 0.8,4.929 3.028,4.929c2.228,0 3.025,-2.332 3.025,-4.929m-8.483,0c0,-3.433 1.636,-7.029 5.458,-7.029c3.822,0 5.455,3.596 5.455,7.029c0,3.436 -1.633,7.052 -5.455,7.052c-3.822,0 -5.458,-3.616 -5.458,-7.052" style="fill:#00a1c7;fill-rule:nonzero;"/><path d="M338.492,312.226l0,-10.528l-2.227,2.313l-1.388,-1.451l3.923,-3.968l2.083,0l0,13.634l-2.391,0Z" style="fill:#00a1c7;fill-rule:nonzero;"/><path d="M187.297,416.021l0,-10.527l-2.227,2.312l-1.389,-1.45l3.923,-3.969l2.084,0l0,13.634l-2.391,0Z" style="fill:#00a1c7;fill-rule:nonzero;"/><path d="M197.393,416.021l0,-10.527l-2.228,2.312l-1.388,-1.45l3.923,-3.969l2.084,0l0,13.634l-2.391,0Z" style="fill:#00a1c7;fill-rule:nonzero;"/><path d="M220.464,409.214c0,-2.594 -0.797,-4.903 -3.025,-4.903c-2.231,0 -3.028,2.309 -3.028,4.903c0,2.597 0.797,4.929 3.028,4.929c2.228,0 3.025,-2.332 3.025,-4.929m-8.483,0c0,-3.433 1.637,-7.029 5.458,-7.029c3.822,0 5.455,3.596 5.455,7.029c0,3.436 -1.633,7.052 -5.455,7.052c-3.821,0 -5.458,-3.616 -5.458,-7.052" style="fill:#00a1c7;fill-rule:nonzero;"/><path d="M229.988,416.021l0,-10.527l-2.228,2.312l-1.388,-1.45l3.923,-3.969l2.084,0l0,13.634l-2.391,0Z" style="fill:#00a1c7;fill-rule:nonzero;"/><path d="M240.083,416.021l0,-10.527l-2.228,2.312l-1.388,-1.45l3.923,-3.969l2.084,0l0,13.634l-2.391,0Z" style="fill:#00a1c7;fill-rule:nonzero;"/><path d="M255.575,409.214c0,-2.594 -0.797,-4.903 -3.025,-4.903c-2.227,0 -3.028,2.309 -3.028,4.903c0,2.597 0.801,4.929 3.028,4.929c2.228,0 3.025,-2.332 3.025,-4.929m-8.483,0c0,-3.433 1.637,-7.029 5.458,-7.029c3.822,0 5.455,3.596 5.455,7.029c0,3.436 -1.633,7.052 -5.455,7.052c-3.821,0 -5.458,-3.616 -5.458,-7.052" style="fill:#00a1c7;fill-rule:nonzero;"/><path d="M213.456,201.498c0,-2.594 -0.797,-4.903 -3.025,-4.903c-2.227,0 -3.028,2.309 -3.028,4.903c0,2.597 0.801,4.929 3.028,4.929c2.228,0 3.025,-2.332 3.025,-4.929m-8.483,0c0,-3.433 1.637,-7.029 5.458,-7.029c3.822,0 5.455,3.596 5.455,7.029c0,3.436 -1.633,7.052 -5.455,7.052c-3.821,0 -5.458,-3.616 -5.458,-7.052" style="fill:#00a1c7;fill-rule:nonzero;"/><path d="M222.98,208.306l0,-10.528l-2.228,2.313l-1.388,-1.451l3.923,-3.968l2.084,0l0,13.634l-2.391,0Z" style="fill:#00a1c7;fill-rule:nonzero;"/><path d="M233.075,208.306l0,-10.528l-2.228,2.313l-1.388,-1.451l3.923,-3.968l2.084,0l0,13.634l-2.391,0Z" style="fill:#00a1c7;fill-rule:nonzero;"/><path d="M248.567,201.498c0,-2.594 -0.797,-4.903 -3.024,-4.903c-2.228,0 -3.028,2.309 -3.028,4.903c0,2.597 0.8,4.929 3.028,4.929c2.227,0 3.024,-2.332 3.024,-4.929m-8.483,0c0,-3.433 1.637,-7.029 5.459,-7.029c3.821,0 5.455,3.596 5.455,7.029c0,3.436 -1.634,7.052 -5.455,7.052c-3.822,0 -5.459,-3.616 -5.459,-7.052" style="fill:#00a1c7;fill-rule:nonzero;"/><path d="M258.091,208.306l0,-10.528l-2.228,2.313l-1.388,-1.451l3.923,-3.968l2.084,0l0,13.634l-2.391,0Z" style="fill:#00a1c7;fill-rule:nonzero;"/><path d="M273.583,201.498c0,-2.594 -0.797,-4.903 -3.024,-4.903c-2.228,0 -3.025,2.309 -3.025,4.903c0,2.597 0.797,4.929 3.025,4.929c2.227,0 3.024,-2.332 3.024,-4.929m-8.483,0c0,-3.433 1.637,-7.029 5.459,-7.029c3.821,0 5.454,3.596 5.454,7.029c0,3.436 -1.633,7.052 -5.454,7.052c-3.822,0 -5.459,-3.616 -5.459,-7.052" style="fill:#00a1c7;fill-rule:nonzero;"/><path d="M288.504,201.498c0,-2.594 -0.797,-4.903 -3.025,-4.903c-2.228,0 -3.025,2.309 -3.025,4.903c0,2.597 0.797,4.929 3.025,4.929c2.228,0 3.025,-2.332 3.025,-4.929m-8.483,0c0,-3.433 1.636,-7.029 5.458,-7.029c3.822,0 5.455,3.596 5.455,7.029c0,3.436 -1.633,7.052 -5.455,7.052c-3.822,0 -5.458,-3.616 -5.458,-7.052" style="fill:#00a1c7;fill-rule:nonzero;"/><path d="M298.025,208.306l0,-10.528l-2.228,2.313l-1.388,-1.451l3.923,-3.968l2.084,0l0,13.634l-2.391,0Z" style="fill:#00a1c7;fill-rule:nonzero;"/><path d="M173.904,332.956l0,-10.527l-2.227,2.312l-1.389,-1.45l3.923,-3.969l2.084,0l0,13.634l-2.391,0Z" style="fill:#00a1c7;fill-rule:nonzero;"/><path d="M189.397,326.149c0,-2.594 -0.797,-4.903 -3.025,-4.903c-2.228,0 -3.028,2.309 -3.028,4.903c0,2.596 0.8,4.929 3.028,4.929c2.228,0 3.025,-2.333 3.025,-4.929m-8.483,0c0,-3.433 1.636,-7.03 5.458,-7.03c3.822,0 5.455,3.597 5.455,7.03c0,3.436 -1.633,7.052 -5.455,7.052c-3.822,0 -5.458,-3.616 -5.458,-7.052" style="fill:#00a1c7;fill-rule:nonzero;"/><path d="M198.92,332.956l0,-10.527l-2.228,2.312l-1.388,-1.45l3.923,-3.969l2.084,0l0,13.634l-2.391,0Z" style="fill:#00a1c7;fill-rule:nonzero;"/><path d="M214.412,326.149c0,-2.594 -0.797,-4.903 -3.024,-4.903c-2.231,0 -3.025,2.309 -3.025,4.903c0,2.596 0.794,4.929 3.025,4.929c2.227,0 3.024,-2.333 3.024,-4.929m-8.482,0c0,-3.433 1.636,-7.03 5.458,-7.03c3.821,0 5.455,3.597 5.455,7.03c0,3.436 -1.634,7.052 -5.455,7.052c-3.822,0 -5.458,-3.616 -5.458,-7.052" style="fill:#00a1c7;fill-rule:nonzero;"/><path d="M229.333,326.149c0,-2.594 -0.797,-4.903 -3.025,-4.903c-2.231,0 -3.025,2.309 -3.025,4.903c0,2.596 0.794,4.929 3.025,4.929c2.228,0 3.025,-2.333 3.025,-4.929m-8.483,0c0,-3.433 1.636,-7.03 5.458,-7.03c3.822,0 5.455,3.597 5.455,7.03c0,3.436 -1.633,7.052 -5.455,7.052c-3.822,0 -5.458,-3.616 -5.458,-7.052" style="fill:#00a1c7;fill-rule:nonzero;"/><path d="M238.854,332.956l0,-10.527l-2.228,2.312l-1.388,-1.45l3.923,-3.969l2.084,0l0,13.634l-2.391,0Z" style="fill:#00a1c7;fill-rule:nonzero;"/><path d="M261.928,326.149c0,-2.594 -0.797,-4.903 -3.025,-4.903c-2.228,0 -3.028,2.309 -3.028,4.903c0,2.596 0.8,4.929 3.028,4.929c2.228,0 3.025,-2.333 3.025,-4.929m-8.483,0c0,-3.433 1.636,-7.03 5.458,-7.03c3.822,0 5.455,3.597 5.455,7.03c0,3.436 -1.633,7.052 -5.455,7.052c-3.822,0 -5.458,-3.616 -5.458,-7.052" style="fill:#00a1c7;fill-rule:nonzero;"/><path d="M271.451,332.956l0,-10.527l-2.227,2.312l-1.389,-1.45l3.923,-3.969l2.084,0l0,13.634l-2.391,0Z" style="fill:#00a1c7;fill-rule:nonzero;"/><path d="M281.546,332.956l0,-10.527l-2.227,2.312l-1.389,-1.45l3.923,-3.969l2.084,0l0,13.634l-2.391,0Z" style="fill:#00a1c7;fill-rule:nonzero;"/><path d="M291.642,332.956l0,-10.527l-2.228,2.312l-1.388,-1.45l3.923,-3.969l2.084,0l0,13.634l-2.391,0Z" style="fill:#00a1c7;fill-rule:nonzero;"/><path d="M307.132,326.149c0,-2.594 -0.797,-4.903 -3.025,-4.903c-2.228,0 -3.028,2.309 -3.028,4.903c0,2.596 0.8,4.929 3.028,4.929c2.228,0 3.025,-2.333 3.025,-4.929m-8.483,0c0,-3.433 1.636,-7.03 5.458,-7.03c3.822,0 5.455,3.597 5.455,7.03c0,3.436 -1.633,7.052 -5.455,7.052c-3.822,0 -5.458,-3.616 -5.458,-7.052" style="fill:#00a1c7;fill-rule:nonzero;"/><path d="M316.655,332.956l0,-10.527l-2.228,2.312l-1.388,-1.45l3.923,-3.969l2.084,0l0,13.634l-2.391,0Z" style="fill:#00a1c7;fill-rule:nonzero;"/><path d="M332.147,326.149c0,-2.594 -0.797,-4.903 -3.024,-4.903c-2.228,0 -3.025,2.309 -3.025,4.903c0,2.596 0.797,4.929 3.025,4.929c2.227,0 3.024,-2.333 3.024,-4.929m-8.482,0c0,-3.433 1.636,-7.03 5.458,-7.03c3.821,0 5.455,3.597 5.455,7.03c0,3.436 -1.634,7.052 -5.455,7.052c-3.822,0 -5.458,-3.616 -5.458,-7.052" style="fill:#00a1c7;fill-rule:nonzero;"/><path d="M193.79,346.929c0,-2.594 -0.797,-4.903 -3.024,-4.903c-2.228,0 -3.025,2.309 -3.025,4.903c0,2.597 0.797,4.929 3.025,4.929c2.227,0 3.024,-2.332 3.024,-4.929m-8.483,0c0,-3.433 1.637,-7.029 5.459,-7.029c3.821,0 5.454,3.596 5.454,7.029c0,3.436 -1.633,7.052 -5.454,7.052c-3.822,0 -5.459,-3.616 -5.459,-7.052" style="fill:#00a1c7;fill-rule:nonzero;"/><path d="M203.314,353.736l0,-10.527l-2.228,2.312l-1.388,-1.45l3.923,-3.969l2.084,0l0,13.634l-2.391,0Z" style="fill:#00a1c7;fill-rule:nonzero;"/><path d="M218.806,346.929c0,-2.594 -0.797,-4.903 -3.025,-4.903c-2.227,0 -3.028,2.309 -3.028,4.903c0,2.597 0.801,4.929 3.028,4.929c2.228,0 3.025,-2.332 3.025,-4.929m-8.483,0c0,-3.433 1.637,-7.029 5.458,-7.029c3.822,0 5.455,3.596 5.455,7.029c0,3.436 -1.633,7.052 -5.455,7.052c-3.821,0 -5.458,-3.616 -5.458,-7.052" style="fill:#00a1c7;fill-rule:nonzero;"/><path d="M228.33,353.736l0,-10.527l-2.228,2.312l-1.388,-1.45l3.923,-3.969l2.084,0l0,13.634l-2.391,0Z" style="fill:#00a1c7;fill-rule:nonzero;"/><path d="M243.819,346.929c0,-2.594 -0.797,-4.903 -3.024,-4.903c-2.228,0 -3.028,2.309 -3.028,4.903c0,2.597 0.8,4.929 3.028,4.929c2.227,0 3.024,-2.332 3.024,-4.929m-8.483,0c0,-3.433 1.637,-7.029 5.459,-7.029c3.821,0 5.455,3.596 5.455,7.029c0,3.436 -1.634,7.052 -5.455,7.052c-3.822,0 -5.459,-3.616 -5.459,-7.052" style="fill:#00a1c7;fill-rule:nonzero;"/><path d="M253.343,353.736l0,-10.527l-2.228,2.312l-1.388,-1.45l3.923,-3.969l2.084,0l0,13.634l-2.391,0Z" style="fill:#00a1c7;fill-rule:nonzero;"/><path d="M263.438,353.736l0,-10.527l-2.227,2.312l-1.389,-1.45l3.923,-3.969l2.084,0l0,13.634l-2.391,0Z" style="fill:#00a1c7;fill-rule:nonzero;"/><path d="M278.931,346.929c0,-2.594 -0.797,-4.903 -3.025,-4.903c-2.228,0 -3.028,2.309 -3.028,4.903c0,2.597 0.8,4.929 3.028,4.929c2.228,0 3.025,-2.332 3.025,-4.929m-8.483,0c0,-3.433 1.636,-7.029 5.458,-7.029c3.822,0 5.455,3.596 5.455,7.029c0,3.436 -1.633,7.052 -5.455,7.052c-3.822,0 -5.458,-3.616 -5.458,-7.052" style="fill:#00a1c7;fill-rule:nonzero;"/><path d="M301.433,346.929c0,-2.594 -0.797,-4.903 -3.025,-4.903c-2.228,0 -3.025,2.309 -3.025,4.903c0,2.597 0.797,4.929 3.025,4.929c2.228,0 3.025,-2.332 3.025,-4.929m-8.483,0c0,-3.433 1.636,-7.029 5.458,-7.029c3.822,0 5.455,3.596 5.455,7.029c0,3.436 -1.633,7.052 -5.455,7.052c-3.822,0 -5.458,-3.616 -5.458,-7.052" style="fill:#00a1c7;fill-rule:nonzero;"/><path d="M310.954,353.736l0,-10.527l-2.228,2.312l-1.388,-1.45l3.923,-3.969l2.084,0l0,13.634l-2.391,0Z" style="fill:#00a1c7;fill-rule:nonzero;"/><path d="M321.049,353.736l0,-10.527l-2.228,2.312l-1.388,-1.45l3.923,-3.969l2.084,0l0,13.634l-2.391,0Z" style="fill:#00a1c7;fill-rule:nonzero;"/><path d="M178.87,346.929c0,-2.594 -0.797,-4.903 -3.025,-4.903c-2.227,0 -3.024,2.309 -3.024,4.903c0,2.597 0.797,4.929 3.024,4.929c2.228,0 3.025,-2.332 3.025,-4.929m-8.483,0c0,-3.433 1.636,-7.029 5.458,-7.029c3.822,0 5.455,3.596 5.455,7.029c0,3.436 -1.633,7.052 -5.455,7.052c-3.822,0 -5.458,-3.616 -5.458,-7.052" style="fill:#00a1c7;fill-rule:nonzero;"/><path d="M220.169,222.149c0,-2.593 -0.797,-4.903 -3.024,-4.903c-2.231,0 -3.028,2.31 -3.028,4.903c0,2.597 0.797,4.929 3.028,4.929c2.227,0 3.024,-2.332 3.024,-4.929m-8.482,0c0,-3.433 1.636,-7.029 5.458,-7.029c3.821,0 5.455,3.596 5.455,7.029c0,3.437 -1.634,7.052 -5.455,7.052c-3.822,0 -5.458,-3.615 -5.458,-7.052" style="fill:#00a1c7;fill-rule:nonzero;"/><path d="M229.693,228.957l0,-10.528l-2.228,2.313l-1.388,-1.451l3.923,-3.968l2.084,0l0,13.634l-2.391,0Z" style="fill:#00a1c7;fill-rule:nonzero;"/><path d="M239.789,228.957l0,-10.528l-2.228,2.313l-1.388,-1.451l3.923,-3.968l2.084,0l0,13.634l-2.391,0Z" style="fill:#00a1c7;fill-rule:nonzero;"/><path d="M249.884,228.957l0,-10.528l-2.228,2.313l-1.388,-1.451l3.923,-3.968l2.084,0l0,13.634l-2.391,0Z" style="fill:#00a1c7;fill-rule:nonzero;"/><path d="M265.373,222.149c0,-2.593 -0.797,-4.903 -3.024,-4.903c-2.228,0 -3.028,2.31 -3.028,4.903c0,2.597 0.8,4.929 3.028,4.929c2.227,0 3.024,-2.332 3.024,-4.929m-8.482,0c0,-3.433 1.636,-7.029 5.458,-7.029c3.821,0 5.455,3.596 5.455,7.029c0,3.437 -1.634,7.052 -5.455,7.052c-3.822,0 -5.458,-3.615 -5.458,-7.052" style="fill:#00a1c7;fill-rule:nonzero;"/><path d="M274.897,228.957l0,-10.528l-2.228,2.313l-1.388,-1.451l3.923,-3.968l2.084,0l0,13.634l-2.391,0Z" style="fill:#00a1c7;fill-rule:nonzero;"/><path d="M290.389,222.149c0,-2.593 -0.797,-4.903 -3.024,-4.903c-2.228,0 -3.025,2.31 -3.025,4.903c0,2.597 0.797,4.929 3.025,4.929c2.227,0 3.024,-2.332 3.024,-4.929m-8.483,0c0,-3.433 1.637,-7.029 5.459,-7.029c3.821,0 5.454,3.596 5.454,7.029c0,3.437 -1.633,7.052 -5.454,7.052c-3.822,0 -5.459,-3.615 -5.459,-7.052" style="fill:#00a1c7;fill-rule:nonzero;"/><path d="M305.31,222.149c0,-2.593 -0.797,-4.903 -3.025,-4.903c-2.227,0 -3.024,2.31 -3.024,4.903c0,2.597 0.797,4.929 3.024,4.929c2.228,0 3.025,-2.332 3.025,-4.929m-8.483,0c0,-3.433 1.637,-7.029 5.458,-7.029c3.822,0 5.455,3.596 5.455,7.029c0,3.437 -1.633,7.052 -5.455,7.052c-3.821,0 -5.458,-3.615 -5.458,-7.052" style="fill:#00a1c7;fill-rule:nonzero;"/></g></svg>