<?xml version="1.0" encoding="utf-8"?>
<!-- Generator: Adobe Illustrator 24.3.0, SVG Export Plug-In . SVG Version: 6.00 Build 0)  -->
<svg version="1.1" id="Layer_1" xmlns="http://www.w3.org/2000/svg" xmlns:xlink="http://www.w3.org/1999/xlink" x="0px" y="0px"
	 viewBox="0 0 1372.56 443.52" style="enable-background:new 0 0 1372.56 443.52;" xml:space="preserve">
<style type="text/css">
	.st0{fill:#FFFFFF;}
	.st1{fill:#B496CD;}
</style>
<g>
	<g>
		<g>
			<path class="st1" d="M889.75,141.1h-61.63v148.26h61.63c44.05,0,76.04-32.19,76.04-74.13C965.79,173.3,933.8,141.1,889.75,141.1z
				 M886.57,257.59h-22.45v-84.72h22.45c25.21,0,41.94,17.58,41.94,42.36C928.51,239.8,911.78,257.59,886.57,257.59z"/>
		</g>
		<g>
			<rect x="572.95" y="105.1" class="st1" width="36.01" height="148.26"/>
		</g>
		<g>
			<path class="st1" d="M461.24,138.99c-44.27,0-78.37,33.25-78.37,76.25s34.1,76.25,78.37,76.25c44.27,0,78.37-33.25,78.37-76.25
				S505.51,138.99,461.24,138.99z M461.24,258.44c-23.3,0-41.09-18.85-41.09-43.21s17.79-43.21,41.09-43.21
				c23.3,0,41.09,18.85,41.09,43.21S484.54,258.44,461.24,258.44z"/>
		</g>
		<g>
			<rect x="260.14" y="141.1" class="st1" width="36.01" height="112.25"/>
		</g>
		<g>
			<rect x="296.15" y="253.36" class="st1" width="76.64" height="36.01"/>
		</g>
		<g>
			<polygon class="st1" points="748,196.83 688.7,196.83 688.7,141.1 652.69,141.1 652.69,289.36 688.7,289.36 688.7,232.52 
				748,232.52 748,289.36 784.01,289.36 784.01,141.1 748,141.1 			"/>
		</g>
		<g>
			<polygon class="st1" points="1040.53,177.12 1004.52,177.12 1004.52,289.32 1039.84,289.32 1039.84,289.36 1116.78,289.36 
				1116.78,253.36 1040.53,253.36 1040.53,233.24 1116.78,233.24 1116.78,197.23 1040.53,197.23 			"/>
		</g>
		<g>
			<rect x="1040.53" y="141.1" class="st1" width="76.25" height="36.01"/>
		</g>
	</g>
	<g>
		<path class="st1" d="M840.4,411.01v-65.1h41.48v11.81H853.7v16.28h27.25v11.81H853.7v25.2H840.4z"/>
		<path class="st1" d="M931.64,411.01l-4.65-14.14h-30.6l-4.56,14.14h-13.49l21.95-65.1h23.62l21.95,65.1H931.64z M900.2,385.06
			h22.97l-11.44-35.25L900.2,385.06z"/>
		<path class="st1" d="M978.69,344.98c15.16,0,26.04,9.11,30.41,18.88l-12.28,4.74c-3.07-6.42-9.67-11.44-18.14-11.44
			c-11.53,0-20.46,9.3-20.46,21.3c0,12,8.93,21.3,20.46,21.3c8.46,0,15.07-5.02,18.14-11.44l12.28,4.74
			c-4.37,9.77-15.25,18.88-30.41,18.88c-19.34,0-34.22-14.6-34.22-33.48S959.35,344.98,978.69,344.98z"/>
		<path class="st1" d="M1029.84,411.01v-53.29h-19.9v-11.81h53.2v11.81h-20v53.29H1029.84z"/>
		<path class="st1" d="M1098.2,344.98c19.34,0,34.22,14.6,34.22,33.48s-14.88,33.48-34.22,33.48s-34.22-14.6-34.22-33.48
			S1078.85,344.98,1098.2,344.98z M1098.2,399.76c11.63,0,20.46-9.3,20.46-21.3c0-12-8.83-21.3-20.46-21.3
			c-11.53,0-20.46,9.3-20.46,21.3C1077.74,390.46,1086.66,399.76,1098.2,399.76z"/>
		<path class="st1" d="M1193.33,411.01h-15.81l-15.25-23.16h-8.37v23.16h-13.3v-65.1h27.99c13.95,0,22.97,8.93,22.97,20.93
			c0,9.3-5.39,16.83-14.42,19.72L1193.33,411.01z M1153.9,357.72v17.95h14.69c5.58,0,9.3-3.81,9.3-8.93c0-5.21-3.72-9.02-9.3-9.02
			H1153.9z"/>
	</g>
</g>
</svg>
