<?xml version="1.0" encoding="iso-8859-1"?>
<!-- Generator: Adobe Illustrator 22.0.0, SVG Export Plug-In . SVG Version: 6.00 Build 0)  -->
<svg version="1.1" id="Layer_1" xmlns="http://www.w3.org/2000/svg" xmlns:xlink="http://www.w3.org/1999/xlink" x="0px" y="0px"
	 viewBox="0 0 300 68.168" style="enable-background:new 0 0 300 68.168;" xml:space="preserve">
<path style="fill:#353435;" d="M77.566,62.871H61.662V25.266L46.256,62.871H35.984L20.659,25.266v37.605H5.501V6.544h21.538
	l14.413,35.122L55.864,6.544h21.702V62.871z M103.224,19.632v8.946h30.649v12.094h-30.649v9.112h36.034v13.088H87.32V6.544h51.938
	v13.088H103.224z M149.012,6.544h15.904v56.327h-15.904V6.544z M200.847,39.264l-10.273,9.857v13.751h-15.904V6.544h15.904v23.94
	l23.774-23.94h20.377l-22.447,21.704l23.276,34.624h-18.803L200.847,39.264z M234.114,34.708c0-17.644,12.343-29.156,31.146-29.156
	c18.886,0,31.146,11.512,31.146,29.156s-12.26,29.158-31.146,29.158C246.457,63.866,234.114,52.352,234.114,34.708z M280.252,34.708
	c0-9.195-5.964-15.325-14.992-15.325c-8.946,0-14.909,6.13-14.909,15.325s5.964,15.325,14.909,15.325
	C274.289,50.032,280.252,43.903,280.252,34.708z"/>
<g>
</g>
<g>
</g>
<g>
</g>
<g>
</g>
<g>
</g>
<g>
</g>
</svg>
