<svg width="840" height="234" viewBox="0 0 840 234" fill="none" xmlns="http://www.w3.org/2000/svg">
<g clip-path="url(#clip0_1421_111)">
<path d="M14.924 16.2H34.112L55.432 64.088H49.528L70.848 16.2H90.2L95.776 131H80.196L76.26 26.204L79.704 26.86L56.252 79.832H48.872L25.256 26.86L28.7 26.204L24.764 131H9.348L14.924 16.2ZM155.742 132.64C143.606 132.64 134.258 128.813 127.698 121.16C121.138 113.397 117.858 102.464 117.858 88.36C117.858 72.7253 121.466 60.644 128.682 52.116C135.898 43.4787 146.012 39.16 159.022 39.16C171.158 39.16 180.506 42.9867 187.066 50.64C193.736 58.2933 197.07 69.172 197.07 83.276C197.07 99.02 193.462 111.211 186.246 119.848C179.03 128.376 168.862 132.64 155.742 132.64ZM157.382 119.028C163.396 119.028 168.152 117.935 171.65 115.748C175.149 113.561 177.664 110.063 179.194 105.252C180.834 100.332 181.654 93.772 181.654 85.572C181.654 77.4813 180.834 71.0853 179.194 66.384C177.664 61.5733 175.149 58.1293 171.65 56.052C168.152 53.8653 163.396 52.772 157.382 52.772C151.478 52.772 146.777 53.8653 143.278 56.052C139.78 58.2387 137.21 61.7373 135.57 66.548C134.04 71.3587 133.274 77.864 133.274 86.064C133.274 94.264 134.04 100.769 135.57 105.58C137.21 110.281 139.78 113.725 143.278 115.912C146.777 117.989 151.478 119.028 157.382 119.028ZM284.589 68.352C284.589 62.776 283.386 58.6213 280.981 55.888C278.685 53.1547 275.022 51.788 269.993 51.788C264.854 51.788 259.934 53.592 255.233 57.2C250.641 60.6987 244.901 66.9853 238.013 76.06L236.373 67.86C241.293 58.4573 246.923 51.3507 253.265 46.54C259.715 41.62 266.877 39.16 274.749 39.16C282.511 39.16 288.525 41.456 292.789 46.048C297.162 50.64 299.349 57.4187 299.349 66.384V131H284.589V68.352ZM226.041 40.8H237.193L240.801 68.352V131H226.041V40.8ZM365.547 132.64C353.411 132.64 344.063 128.813 337.503 121.16C330.943 113.397 327.663 102.464 327.663 88.36C327.663 72.7253 331.271 60.644 338.487 52.116C345.703 43.4787 355.816 39.16 368.827 39.16C380.963 39.16 390.311 42.9867 396.871 50.64C403.54 58.2933 406.875 69.172 406.875 83.276C406.875 99.02 403.267 111.211 396.051 119.848C388.835 128.376 378.667 132.64 365.547 132.64ZM367.187 119.028C373.2 119.028 377.956 117.935 381.455 115.748C384.954 113.561 387.468 110.063 388.999 105.252C390.639 100.332 391.459 93.772 391.459 85.572C391.459 77.4813 390.639 71.0853 388.999 66.384C387.468 61.5733 384.954 58.1293 381.455 56.052C377.956 53.8653 373.2 52.772 367.187 52.772C361.283 52.772 356.582 53.8653 353.083 56.052C349.584 58.2387 347.015 61.7373 345.375 66.548C343.844 71.3587 343.079 77.864 343.079 86.064C343.079 94.264 343.844 100.769 345.375 105.58C347.015 110.281 349.584 113.725 353.083 115.912C356.582 117.989 361.283 119.028 367.187 119.028ZM437.485 16.2H452.901V123.62L446.341 117.224H514.893V131H437.485V16.2ZM574.86 47.36L581.748 53.92H547.308V40.8H589.62V125.26H574.86V47.36ZM542.388 117.88H614.548V131H542.388V117.88ZM572.236 0.291992H592.244V22.268H572.236V0.291992ZM647.946 111.812C658.333 116.623 668.774 119.028 679.27 119.028C686.705 119.028 692.117 117.989 695.506 115.912C699.005 113.725 700.754 110.773 700.754 107.056C700.754 104.104 699.77 101.753 697.802 100.004C695.943 98.1453 693.593 96.724 690.75 95.74C687.907 94.756 683.917 93.6627 678.778 92.46C672.327 91.0387 667.025 89.508 662.87 87.868C658.715 86.228 655.162 83.7133 652.21 80.324C649.258 76.8253 647.782 72.1787 647.782 66.384C647.782 58.184 650.679 51.624 656.474 46.704C662.378 41.6747 670.797 39.16 681.73 39.16C686.65 39.16 691.789 39.652 697.146 40.636C702.503 41.62 707.533 43.096 712.234 45.064V59.004C706.767 56.5987 701.847 54.9587 697.474 54.084C693.101 53.2093 688.563 52.772 683.862 52.772C676.427 52.772 671.07 53.8653 667.79 56.052C664.51 58.2387 662.87 61.2453 662.87 65.072C662.87 68.352 663.854 70.976 665.822 72.944C667.79 74.8027 670.25 76.2787 673.202 77.372C676.263 78.356 680.363 79.3947 685.502 80.488C692.062 82.0187 697.365 83.5493 701.41 85.08C705.565 86.6107 709.063 89.0707 711.906 92.46C714.749 95.74 716.17 100.277 716.17 106.072C716.17 114.053 713.109 120.504 706.986 125.424C700.973 130.235 692.171 132.64 680.582 132.64C675.006 132.64 669.375 132.093 663.69 131C658.114 130.016 652.866 128.321 647.946 125.916V111.812ZM776.136 132.64C767.499 132.64 760.775 130.508 755.964 126.244C751.154 121.871 748.748 115.803 748.748 108.04C748.748 97.7627 753.231 90.0547 762.196 84.916C771.271 79.668 786.086 77.044 806.64 77.044V86.884C791.443 86.884 780.564 88.3053 774.004 91.148C767.444 93.8813 764.164 98.6373 764.164 105.416C764.164 109.789 765.422 113.179 767.936 115.584C770.56 117.88 774.442 119.028 779.58 119.028C784.719 119.028 789.202 117.989 793.028 115.912C796.964 113.725 800.026 110.719 802.212 106.892C804.399 103.065 805.492 98.8013 805.492 94.1V69.336C805.492 63.76 803.962 59.6053 800.9 56.872C797.948 54.1387 793.302 52.772 786.96 52.772C781.494 52.772 776.41 53.3733 771.708 54.576C767.116 55.7787 762.142 57.7467 756.784 60.48V46.376C767.936 41.5653 778.596 39.16 788.764 39.16C798.714 39.16 806.422 41.7293 811.888 46.868C817.464 51.8973 820.252 58.8947 820.252 67.86V110.664L818.94 96.068L825.336 131H810.74L806.148 105.908L809.592 107.876C806.64 116.295 802.431 122.527 796.964 126.572C791.607 130.617 784.664 132.64 776.136 132.64Z" fill="black"/>
<path d="M13.826 180.52C13.826 177.296 14.5287 174.733 15.934 172.832C17.3393 170.931 19.592 169.567 22.692 168.74C25.792 167.872 30.008 167.438 35.34 167.438V172.646C30.8347 172.646 27.466 172.853 25.234 173.266C23.0433 173.679 21.514 174.444 20.646 175.56C19.8193 176.635 19.406 178.309 19.406 180.582V180.644H35.278V185.418H19.406V214H13.826V185.418H5.022V180.644H13.826V180.52ZM58.8782 214.62C54.2902 214.62 50.7562 213.173 48.2762 210.28C45.7962 207.345 44.5562 203.212 44.5562 197.88C44.5562 191.969 45.9202 187.402 48.6482 184.178C51.3762 180.913 55.1995 179.28 60.1182 179.28C64.7062 179.28 68.2402 180.727 70.7202 183.62C73.2415 186.513 74.5022 190.626 74.5022 195.958C74.5022 201.91 73.1382 206.519 70.4102 209.784C67.6822 213.008 63.8382 214.62 58.8782 214.62ZM59.4982 209.474C61.7715 209.474 63.5695 209.061 64.8922 208.234C66.2149 207.407 67.1655 206.085 67.7442 204.266C68.3642 202.406 68.6742 199.926 68.6742 196.826C68.6742 193.767 68.3642 191.349 67.7442 189.572C67.1655 187.753 66.2149 186.451 64.8922 185.666C63.5695 184.839 61.7715 184.426 59.4982 184.426C57.2662 184.426 55.4889 184.839 54.1662 185.666C52.8435 186.493 51.8722 187.815 51.2522 189.634C50.6735 191.453 50.3842 193.912 50.3842 197.012C50.3842 200.112 50.6735 202.571 51.2522 204.39C51.8722 206.167 52.8435 207.469 54.1662 208.296C55.4889 209.081 57.2662 209.474 59.4982 209.474ZM107.588 190.316C107.588 188.208 107.134 186.637 106.224 185.604C105.356 184.571 103.972 184.054 102.07 184.054C100.252 184.054 98.5157 184.633 96.8624 185.79C95.2504 186.947 93.3077 188.973 91.0344 191.866V214H85.4544V179.9H89.6704L90.7244 187.774C94.3204 182.111 98.7017 179.28 103.868 179.28C106.803 179.28 109.076 180.148 110.688 181.884C112.342 183.62 113.168 186.183 113.168 189.572V214H107.588V190.316ZM143.961 214.62C139.869 214.62 136.789 213.607 134.723 211.582C132.656 209.515 131.623 206.746 131.623 203.274V184.86H123.749V181.264L131.623 179.9L132.925 172.274H137.203V179.9H152.083V184.86H137.203V202.53C137.203 204.886 137.761 206.643 138.877 207.8C139.993 208.916 141.873 209.474 144.519 209.474C147.164 209.474 149.685 208.937 152.083 207.862V213.194C149.355 214.145 146.647 214.62 143.961 214.62ZM212.117 180.52C212.117 177.296 212.82 174.733 214.225 172.832C215.63 170.931 217.883 169.567 220.983 168.74C224.083 167.872 228.299 167.438 233.631 167.438V172.646C229.126 172.646 225.757 172.853 223.525 173.266C221.334 173.679 219.805 174.444 218.937 175.56C218.11 176.635 217.697 178.309 217.697 180.582V180.644H233.569V185.418H217.697V214H212.117V185.418H203.313V180.644H212.117V180.52ZM257.169 214.62C252.581 214.62 249.047 213.173 246.567 210.28C244.087 207.345 242.847 203.212 242.847 197.88C242.847 191.969 244.211 187.402 246.939 184.178C249.667 180.913 253.491 179.28 258.409 179.28C262.997 179.28 266.531 180.727 269.011 183.62C271.533 186.513 272.793 190.626 272.793 195.958C272.793 201.91 271.429 206.519 268.701 209.784C265.973 213.008 262.129 214.62 257.169 214.62ZM257.789 209.474C260.063 209.474 261.861 209.061 263.183 208.234C264.506 207.407 265.457 206.085 266.035 204.266C266.655 202.406 266.965 199.926 266.965 196.826C266.965 193.767 266.655 191.349 266.035 189.572C265.457 187.753 264.506 186.451 263.183 185.666C261.861 184.839 260.063 184.426 257.789 184.426C255.557 184.426 253.78 184.839 252.457 185.666C251.135 186.493 250.163 187.815 249.543 189.634C248.965 191.453 248.675 193.912 248.675 197.012C248.675 200.112 248.965 202.571 249.543 204.39C250.163 206.167 251.135 207.469 252.457 208.296C253.78 209.081 255.557 209.474 257.789 209.474ZM305.073 214.62C301.188 214.62 298.212 213.442 296.145 211.086C294.079 208.689 293.045 205.134 293.045 200.422V173.08H280.955V168.12H298.625V199.926C298.625 206.291 301.105 209.474 306.065 209.474C308.793 209.474 311.418 208.689 313.939 207.118V212.512C311.046 213.917 308.091 214.62 305.073 214.62ZM344.732 214.62C340.846 214.62 337.87 213.442 335.804 211.086C333.737 208.689 332.704 205.134 332.704 200.422V173.08H320.614V168.12H338.284V199.926C338.284 206.291 340.764 209.474 345.724 209.474C348.452 209.474 351.076 208.689 353.598 207.118V212.512C350.704 213.917 347.749 214.62 344.732 214.62ZM376.144 214.62C371.556 214.62 368.022 213.173 365.542 210.28C363.062 207.345 361.822 203.212 361.822 197.88C361.822 191.969 363.186 187.402 365.914 184.178C368.642 180.913 372.465 179.28 377.384 179.28C381.972 179.28 385.506 180.727 387.986 183.62C390.507 186.513 391.768 190.626 391.768 195.958C391.768 201.91 390.404 206.519 387.676 209.784C384.948 213.008 381.104 214.62 376.144 214.62ZM376.764 209.474C379.037 209.474 380.835 209.061 382.158 208.234C383.48 207.407 384.431 206.085 385.01 204.266C385.63 202.406 385.94 199.926 385.94 196.826C385.94 193.767 385.63 191.349 385.01 189.572C384.431 187.753 383.48 186.451 382.158 185.666C380.835 184.839 379.037 184.426 376.764 184.426C374.532 184.426 372.754 184.839 371.432 185.666C370.109 186.493 369.138 187.815 368.518 189.634C367.939 191.453 367.65 193.912 367.65 197.012C367.65 200.112 367.939 202.571 368.518 204.39C369.138 206.167 370.109 207.469 371.432 208.296C372.754 209.081 374.532 209.474 376.764 209.474ZM405.634 214C404.022 208.544 402.761 202.819 401.852 196.826C400.943 190.833 400.467 185.191 400.426 179.9H405.882C405.923 184.86 406.192 189.593 406.688 194.098C407.184 198.603 408.011 203.667 409.168 209.288L415.554 190.006H417.29L423.676 209.288C424.833 203.749 425.66 198.727 426.156 194.222C426.652 189.717 426.921 184.943 426.962 179.9H432.418C432.335 185.232 431.839 190.915 430.93 196.95C430.021 202.943 428.781 208.627 427.21 214H420.762L416.422 200.98L412.082 214H405.634ZM443.246 206.746C447.173 208.565 451.12 209.474 455.088 209.474C457.899 209.474 459.945 209.081 461.226 208.296C462.549 207.469 463.21 206.353 463.21 204.948C463.21 203.832 462.838 202.943 462.094 202.282C461.392 201.579 460.503 201.042 459.428 200.67C458.354 200.298 456.845 199.885 454.902 199.43C452.464 198.893 450.459 198.314 448.888 197.694C447.318 197.074 445.974 196.123 444.858 194.842C443.742 193.519 443.184 191.763 443.184 189.572C443.184 186.472 444.28 183.992 446.47 182.132C448.702 180.231 451.885 179.28 456.018 179.28C457.878 179.28 459.821 179.466 461.846 179.838C463.872 180.21 465.773 180.768 467.55 181.512V186.782C465.484 185.873 463.624 185.253 461.97 184.922C460.317 184.591 458.602 184.426 456.824 184.426C451.534 184.426 448.888 185.976 448.888 189.076C448.888 190.316 449.26 191.308 450.004 192.052C450.748 192.755 451.678 193.313 452.794 193.726C453.952 194.098 455.502 194.491 457.444 194.904C459.924 195.483 461.929 196.061 463.458 196.64C465.029 197.219 466.352 198.149 467.426 199.43C468.501 200.67 469.038 202.385 469.038 204.576C469.038 207.593 467.881 210.032 465.566 211.892C463.293 213.711 459.966 214.62 455.584 214.62C450.872 214.62 446.76 213.773 443.246 212.078V206.746ZM517.355 221.13C520.041 221.13 522.087 220.696 523.493 219.828C524.939 219.001 525.869 217.493 526.283 215.302L531.367 186.038H522.501L523.369 181.264H532.235L532.359 180.52C532.937 177.296 534.095 174.733 535.831 172.832C537.567 170.931 540.067 169.567 543.333 168.74C546.639 167.872 550.938 167.438 556.229 167.438L555.299 172.646C550.793 172.646 547.383 172.853 545.069 173.266C542.795 173.679 541.121 174.444 540.047 175.56C539.013 176.635 538.311 178.309 537.939 180.582L537.815 181.264H553.625L552.757 186.038H537.009L531.863 215.116C531.201 218.836 529.507 221.647 526.779 223.548C524.051 225.449 520.599 226.4 516.425 226.4L517.355 221.13ZM565.383 203.584C565.259 204.328 565.197 204.989 565.197 205.568C565.197 206.973 565.569 208.048 566.313 208.792C567.057 209.495 568.235 209.846 569.847 209.846C571.624 209.846 573.422 209.267 575.241 208.11C577.101 206.953 579.436 204.948 582.247 202.096L586.215 179.9H591.733L585.719 214H581.565L581.875 206.064C577.328 211.768 572.43 214.62 567.181 214.62C564.66 214.62 562.717 214 561.353 212.76C560.03 211.52 559.369 209.681 559.369 207.242C559.369 206.457 559.472 205.485 559.679 204.328L564.019 179.9H569.537L565.383 203.584ZM624.385 190.316C624.509 189.572 624.571 188.911 624.571 188.332C624.571 186.927 624.199 185.873 623.455 185.17C622.711 184.426 621.533 184.054 619.921 184.054C618.144 184.054 616.325 184.633 614.465 185.79C612.646 186.947 610.332 188.952 607.521 191.804L603.553 214H598.035L604.049 179.9H608.203L607.893 187.836C612.44 182.132 617.338 179.28 622.587 179.28C625.108 179.28 627.03 179.9 628.353 181.14C629.717 182.38 630.399 184.219 630.399 186.658C630.399 187.443 630.296 188.415 630.089 189.572L625.749 214H620.231L624.385 190.316ZM664.477 192.238C664.643 191.411 664.725 190.564 664.725 189.696C664.725 187.836 664.167 186.472 663.051 185.604C661.977 184.695 660.344 184.24 658.153 184.24C654.103 184.24 650.941 185.749 648.667 188.766C646.394 191.783 645.257 195.855 645.257 200.98C645.257 204.121 645.877 206.333 647.117 207.614C648.399 208.854 650.631 209.474 653.813 209.474C655.963 209.474 657.967 209.205 659.827 208.668C661.687 208.089 663.733 207.139 665.965 205.816L665.035 211.21C660.943 213.483 656.686 214.62 652.263 214.62C648.13 214.62 644.947 213.545 642.715 211.396C640.525 209.205 639.429 205.981 639.429 201.724C639.429 197.632 640.277 193.871 641.971 190.44C643.666 187.009 645.981 184.302 648.915 182.318C651.85 180.293 655.136 179.28 658.773 179.28C662.369 179.28 665.221 180.21 667.329 182.07C669.437 183.889 670.491 186.389 670.491 189.572C670.491 190.523 670.409 191.411 670.243 192.238H664.477ZM692.541 172.274H696.757L695.393 179.9H710.335L709.467 184.86H694.525L691.425 202.592C691.301 203.336 691.239 204.018 691.239 204.638C691.239 206.209 691.715 207.407 692.665 208.234C693.616 209.061 695.207 209.474 697.439 209.474C700.002 209.474 702.647 208.937 705.375 207.862L704.445 213.194C701.511 214.145 698.741 214.62 696.137 214.62C692.583 214.62 689.917 213.835 688.139 212.264C686.362 210.652 685.473 208.482 685.473 205.754C685.473 205.258 685.556 204.431 685.721 203.274L689.069 184.86H681.133L681.753 181.264L689.875 179.9L692.541 172.274ZM738.152 214.62C734.969 214.62 732.51 213.793 730.774 212.14C729.079 210.445 728.232 207.965 728.232 204.7C728.232 203.667 728.376 202.241 728.666 200.422L731.394 184.86H719.924L720.854 179.9H737.842L734.308 199.926C734.06 201.414 733.936 202.716 733.936 203.832C733.936 205.816 734.39 207.263 735.3 208.172C736.209 209.04 737.697 209.474 739.764 209.474C742.698 209.474 745.571 208.689 748.382 207.118L747.39 212.574C744.414 213.938 741.334 214.62 738.152 214.62ZM733.75 164.586H741.314L739.826 172.894H732.262L733.75 164.586ZM769.688 214.62C765.803 214.62 762.847 213.587 760.822 211.52C758.797 209.453 757.784 206.477 757.784 202.592C757.784 198.252 758.59 194.325 760.202 190.812C761.855 187.257 764.129 184.447 767.022 182.38C769.957 180.313 773.284 179.28 777.004 179.28C780.889 179.28 783.845 180.313 785.87 182.38C787.895 184.447 788.908 187.402 788.908 191.246C788.908 195.586 788.081 199.533 786.428 203.088C784.816 206.643 782.543 209.453 779.608 211.52C776.715 213.587 773.408 214.62 769.688 214.62ZM771.114 209.474C774.958 209.474 777.913 207.862 779.98 204.638C782.088 201.414 783.142 197.053 783.142 191.556C783.142 188.993 782.543 187.175 781.344 186.1C780.145 184.984 778.223 184.426 775.578 184.426C771.693 184.426 768.717 186.038 766.65 189.262C764.583 192.486 763.55 196.826 763.55 202.282C763.55 204.845 764.149 206.684 765.348 207.8C766.547 208.916 768.469 209.474 771.114 209.474ZM822.676 190.316C822.8 189.572 822.862 188.911 822.862 188.332C822.862 186.927 822.49 185.873 821.746 185.17C821.002 184.426 819.824 184.054 818.212 184.054C816.435 184.054 814.616 184.633 812.756 185.79C810.937 186.947 808.623 188.952 805.812 191.804L801.844 214H796.326L802.34 179.9H806.494L806.184 187.836C810.731 182.132 815.629 179.28 820.878 179.28C823.399 179.28 825.321 179.9 826.644 181.14C828.008 182.38 828.69 184.219 828.69 186.658C828.69 187.443 828.587 188.415 828.38 189.572L824.04 214H818.522L822.676 190.316Z" fill="black"/>
</g>
<defs>
<clipPath id="clip0_1421_111">
<rect width="840" height="234" fill="white"/>
</clipPath>
</defs>
</svg>
