<svg width="149" height="90" viewBox="0 0 149 90" fill="none" xmlns="http://www.w3.org/2000/svg">
<g clip-path="url(#clip0_524:10761)">
<path fill-rule="evenodd" clip-rule="evenodd" d="M34.2206 13.2886V49.2676H26.0013V32.5124L21.2068 43.2273H12.9875L8.21926 32.5649V49.2676H0V13.2886H8.21926L17.0971 33.1952L26.0013 13.2886H34.2206Z" fill="#238692"/>
<path fill-rule="evenodd" clip-rule="evenodd" d="M12.9084 72.5881V89.5534H10.195V82.2788H2.76608V89.5534H0.07901V72.5881H2.79242V79.8889H10.2214V72.5881H12.9084ZM25.0529 72.5881V89.5534H22.3659V72.5881H25.0529ZM51.8709 81.0707C51.8709 86.008 47.893 89.9998 42.9667 89.9998C38.0404 89.9998 34.0625 86.008 34.0625 81.0707C34.0625 76.1334 38.0404 72.1416 42.9667 72.1416C45.4167 72.1416 47.6559 73.1396 49.2629 74.7678L47.4715 76.5536C46.3387 75.3193 44.7581 74.5314 42.9931 74.5314C39.5684 74.5314 36.8023 77.4728 36.8023 81.097C36.8023 84.7211 39.5684 87.6625 42.9931 87.6625C46.0226 87.6625 48.5516 85.3514 49.1048 82.305H42.9667V79.9414H51.7655C51.8446 80.2828 51.8709 80.6505 51.8709 81.0707ZM73.7099 72.5881V89.5534H70.9965V82.2788H63.5676V89.5534H60.8542V72.5881H63.5676V79.8889H70.9965V72.5881H73.7099ZM101.16 72.5881H104.032L99.0263 89.5534H96.3393L92.8092 77.2364L89.2528 89.5534H86.5657L81.5604 72.5881H84.4319L87.9092 84.8524L91.4393 72.5881H94.1L97.6301 84.8787L101.16 72.5881ZM119.337 72.5881L126.029 89.5534H123.105L121.419 85.1676H114.49L112.804 89.5534H109.906L116.598 72.5881H119.337ZM115.386 82.804H120.523L117.968 76.1597L115.386 82.804ZM145.233 72.5881H148.474L141.73 81.4384V89.5534H139.016V81.4121L132.299 72.5881H135.539L140.36 78.9435L145.233 72.5881Z" fill="#238692"/>
<path d="M55.6381 49.7928L57.6666 48.1908C62.9617 54.9139 70.9966 58.932 79.7164 58.932C95.2065 58.932 107.773 46.3262 107.773 30.7791C107.773 15.232 95.2065 2.59994 79.7164 2.59994C71.0756 2.59994 63.0934 6.53925 57.7983 13.1835L55.7698 11.5553C61.5391 4.30697 70.2853 0 79.7164 0C96.6554 0 110.381 13.7613 110.381 30.7528C110.381 47.7444 96.6554 61.5057 79.7427 61.5057C70.2063 61.5319 61.4338 57.1462 55.6381 49.7928Z" fill="#238692"/>
<path d="M57.5612 49.189L57.8773 48.9526C56.3231 46.8779 55.0586 44.5931 54.0838 42.1507L51.6866 43.1224C52.4505 45.0658 53.3989 46.9042 54.5317 48.6375C46.6549 46.5365 40.8593 39.3144 40.8593 30.753C40.8593 22.1391 46.7076 14.917 54.6371 12.8423C53.5306 14.5493 52.5822 16.3614 51.8183 18.2523L54.2156 19.224C55.2166 16.7816 56.5075 14.5231 58.0881 12.4484L57.8773 12.2908C58.3515 12.2645 58.8257 12.2383 59.2999 12.2383C69.4686 12.2383 77.7406 20.5108 77.7406 30.7268C77.7406 40.9427 69.495 49.2152 59.2999 49.2152C58.694 49.2677 58.1144 49.2415 57.5612 49.189ZM49.6054 26.446C49.421 27.8905 49.3156 29.3349 49.3156 30.8055C49.3156 32.1974 49.3946 33.5631 49.5527 34.9024L52.1344 34.5873C51.9763 33.353 51.8973 32.0924 51.8973 30.8055C51.8973 29.4399 51.9763 28.1006 52.1607 26.7874L49.6054 26.446Z" fill="#238692"/>
<path fill-rule="evenodd" clip-rule="evenodd" d="M147.92 13.2886V49.2676H139.701L126.319 28.8357V49.2676H118.099V13.2886H126.319L139.701 33.6679V13.2886H147.92Z" fill="#238692"/>
</g>
<defs>
<clipPath id="clip0_524:10761">
<rect width="148.5" height="90" fill="white"/>
</clipPath>
</defs>
</svg>
