<?xml version="1.0" encoding="UTF-8" standalone="no"?><!DOCTYPE svg PUBLIC "-//W3C//DTD SVG 1.1//EN" "http://www.w3.org/Graphics/SVG/1.1/DTD/svg11.dtd"><svg width="100%" height="100%" viewBox="0 0 426 96" version="1.1" xmlns="http://www.w3.org/2000/svg" xmlns:xlink="http://www.w3.org/1999/xlink" xml:space="preserve" xmlns:serif="http://www.serif.com/" style="fill-rule:evenodd;clip-rule:evenodd;stroke-linejoin:round;stroke-miterlimit:1.41421;"><g><path d="M49,54.7c0,-7.3 -3.9,-10.1 -10.2,-10.1c-6,0 -9,3.1 -11.2,5.5l0,43.4l-26.3,0l0,-70.3l26.2,0l0,8c4.1,-4.7 11.8,-9.8 24.2,-9.8c16.3,0 23.5,9.9 23.5,22.1l0,50l-26.2,0l0,-38.8Z" style="fill:#3aaa35;fill-rule:nonzero;"/><path d="M121.2,21.5c20.7,0 36.6,14.9 36.6,39.6l0,5.4l-47.8,0c1.5,4.5 6.6,8.9 15.4,8.9c6,0 12.4,-2.2 15.9,-5l10.8,16.2c-7,6 -19.5,8.7 -30,8.7c-22,0 -39.2,-13.8 -39.2,-37c0,-20.4 15.6,-36.8 38.3,-36.8Zm-11.5,28.4l23.2,0c-0.7,-3.1 -3.2,-8.4 -11.7,-8.4c-8,-0.1 -10.6,5.2 -11.5,8.4Z" style="fill:#3aaa35;fill-rule:nonzero;"/><path d="M173.2,73.2l0,-31.2l-11.7,0l0,-22.8l11.7,0l0,-19.2l26.2,0l0,19.2l42.4,0l-28.1,22.8l-14.3,0l0,23.7c0,3.6 2.3,6.6 5.8,6.6c2.3,0 4.7,-0.7 5.2,-1.3l4.7,19.8c-2.8,2.5 -8.9,4.7 -17.8,4.7c-15.5,-0.2 -24.1,-7.6 -24.1,-22.3Z" style="fill:#3aaa35;fill-rule:nonzero;"/><path d="M271,85.7c-4.1,4.5 -11.8,9.6 -24.2,9.6c-16.3,0 -23.3,-9.8 -23.3,-21.9l0,-28.1l26.2,-22.1l0,39c0,7.1 3.8,9.9 10.2,9.9c5.8,0 8.9,-3.1 11.1,-5.5l0,-43.4l26.2,0l0,70.4l-26.2,0l0,-7.9Z" style="fill:#3aaa35;fill-rule:nonzero;"/><path d="M397.7,52.5c0,-4.2 -2.2,-7.9 -8,-7.9c-5.8,0 -9,3.5 -10.8,5.5l0,43.4l-26.2,0l0,-41c0,-4.2 -2,-7.9 -8,-7.9c-5.7,0 -8.9,3.5 -10.6,5.5l0,43.4l-26.2,0l0,-70.3l26.1,0l0,8c3.1,-3.9 11.9,-9.8 23.3,-9.8c9.9,0 17,3.6 20.2,12.4c4.1,-6.1 13.3,-12.4 24.6,-12.4c13,0 21.7,6.6 21.7,21.1l0,51l-26.2,0l0,-41l0.1,0Z" style="fill:#3aaa35;fill-rule:nonzero;"/></g></svg>