<svg xmlns="http://www.w3.org/2000/svg" height="36.28" width="205.31" viewBox="0 0 205.31 36.280021"><g><g><path d="M5.55 5.57l-1.8-1.8A5.55 5.55 0 0 0 0 2.09V.53h6.64l20.93 21.22V8.35c-.1-3.26-.76-6.26-4.89-6.26V.53h11v1.56c-3.07 0-4.38 2.54-4.38 6.27v12.81c0 4.09.78 5 .94 7.62h-2.7a36.17 36.17 0 0 0-3.28-4l-17-17.37v14.24c0 3.73 1.64 5.24 5 5.24v1.56H.6V26.9c3.6 0 5-1.11 5-4.46zM39.59 0a2.21 2.21 0 1 1-2.21 2.21A2.2 2.2 0 0 1 39.59 0M38 14.09l-3.11-1.56v-.94l5.53-2h1v14.12c0 2.25 1.07 3.24 2.54 3.28v1.47h-8.93v-1.47a2.78 2.78 0 0 0 2.95-3zM54.83 21.09c2.33 0 3.52-1.8 3.52-4.55 0-3.69-2.42-5.24-4.1-5.24-1.84 0-3.48 1.76-3.48 4.51s1.44 5.28 4.06 5.28m.08 7.78a29 29 0 0 1-4.05-.33c-1.39 1.39-1.93 2-1.93 2.91 0 2.38 4.63 2.7 5.73 2.7 2.62 0 7.37-.78 7.37-3.11 0-1.56-1.48-2.17-5.08-2.17zm10.36-15.44a11.05 11.05 0 0 1-3.93-.24 6.82 6.82 0 0 1 .66 2.9c0 4.63-4.46 6.59-7.58 6.59a12.77 12.77 0 0 1-2.58-.33c-.82.7-1.23 1.07-1.23 1.56 0 1 .94 1.31 4.34 1.31h3.28c3.77 0 6.51 1.6 6.51 4.3 0 3.93-4.55 6.76-10.77 6.76-5.78 0-7.95-2.33-7.95-3.77 0-1.15.94-2.33 3.48-4.26-1.56-.7-2.34-1.43-2.34-2.33 0-.9 1.06-2.25 3.4-4.18a6 6 0 0 1-3.36-5.49c0-3.77 3-6.68 7.17-6.68a16.07 16.07 0 0 1 4 .57 20.33 20.33 0 0 0 5.16.65 12.29 12.29 0 0 0 1.76-.12zM85.18 23.83c0 2.21 1.27 3.16 3 3.16v1.47h-9.5v-1.47a2.75 2.75 0 0 0 3.07-3v-7.7a3.73 3.73 0 0 0-4-4 8.24 8.24 0 0 0-5 1.88v9.22c0 2.5.86 3.56 3.28 3.56v1.47h-9.79v-1.43c2.42 0 3.07-1.56 3.07-3.28V4.54l-3.07-1.72v-.94L71.73 0h1v12.65c2.58-2.29 4.34-3.07 6.8-3.07 2.95 0 5.61 1.6 5.61 5.94zM95.34 23.96c0 1.88.45 2.46 2.87 2.46a22.07 22.07 0 0 0 2.91-.2v2a35.66 35.66 0 0 1-5.37.7c-2.7 0-3.85-1.11-3.85-3.6V12.09h-3.07v-1.12a11.72 11.72 0 0 0 5.12-4.22h1.39v3.28h5.57v2h-5.57zM108.2 0a2.21 2.21 0 1 1-2.2 2.21A2.2 2.2 0 0 1 108.21 0m-1.57 14.09l-3.11-1.56v-.94l5.53-2h1v14.12c0 2.25 1.07 3.24 2.54 3.28v1.47h-8.93v-1.47a2.78 2.78 0 0 0 2.95-3zM121.14 23.63c0 2.25.9 3.36 3.32 3.36v1.47h-9.79v-1.47c2-.08 3-1.07 3-3.11V14L115 12.45v-.94l5.16-1.92h1v3.5h.08a8.65 8.65 0 0 1 6.55-3.48c3.81 0 6 1.92 6 6.35v7.78c0 2 .57 3 2.91 3.28v1.47H127v-1.5c2.38 0 3.32-1.15 3.32-3.36v-6.8c0-2.58-1.19-4.51-3.85-4.51-1.88 0-3.6.94-5.36 2.42zM147.72 21.09c2.33 0 3.52-1.8 3.52-4.55 0-3.69-2.42-5.24-4.1-5.24-1.84 0-3.48 1.76-3.48 4.51s1.44 5.28 4.06 5.28m.08 7.78a29 29 0 0 1-4.05-.33c-1.39 1.39-1.92 2-1.92 2.91 0 2.38 4.63 2.7 5.73 2.7 2.62 0 7.37-.78 7.37-3.11 0-1.56-1.48-2.17-5.08-2.17zm10.36-15.44a11.05 11.05 0 0 1-3.93-.24 6.82 6.82 0 0 1 .61 2.87c0 4.63-4.46 6.59-7.58 6.59a12.77 12.77 0 0 1-2.58-.33c-.82.7-1.23 1.07-1.23 1.56 0 1 .94 1.31 4.34 1.31h3.28c3.77 0 6.51 1.6 6.51 4.3 0 3.93-4.55 6.76-10.77 6.76-5.78 0-7.95-2.33-7.95-3.77 0-1.15.94-2.33 3.48-4.26-1.56-.7-2.33-1.43-2.33-2.33 0-.9 1.06-2.25 3.4-4.18a6 6 0 0 1-3.36-5.49c0-3.77 3-6.68 7.17-6.68a16.07 16.07 0 0 1 4 .57 20.33 20.33 0 0 0 5.16.65 12.29 12.29 0 0 0 1.76-.12zM168.24 19.74c-3.32 1.23-4.83 2-4.83 3.77a2.61 2.61 0 0 0 2.87 2.66 5.56 5.56 0 0 0 4.14-2.13v-5.12zm2.17-5.16c0-2.42-2.42-3.23-3.77-3.23-1.6 0-3.15 1-3.15 1.92 0 .92 1.68 2.29.61 2.79l-2.42 1.15c-.24.12-1.35-1.92-1.35-2.83 0-1.92 2.17-4.79 7.54-4.79 3.89 0 6 1.27 6 4.38v10.48c0 1.52.9 2 2.29 1.07l.37 1.47c-1.19 1.35-2.21 1.92-3.32 1.92-1.56 0-2.58-1.06-2.78-2.95-2.38 2.13-4.06 2.95-6.06 2.95a4.34 4.34 0 0 1-4.59-4.38c0-2.54 1.72-4.09 6.27-5.65l4.38-1.52zM185 23.59c0 2 .7 3.28 2.54 3.4v1.47h-8.81v-1.47c2-.12 2.83-1.35 2.83-3.11V4.38l-2.83-1.56v-.94L183.97 0h1zM201 15.64c-.33-2.91-1.8-4.55-4.05-4.55s-4.1 1.76-4.46 4.55zm-8.76 1.45c-.21 5.49 3.28 8.52 7.09 8.52a7.45 7.45 0 0 0 5.12-2l.86.78a8.82 8.82 0 0 1-7.62 4.46c-5 0-8.52-4-8.52-9.46 0-5.46 3.73-9.87 8.56-9.87a7.59 7.59 0 0 1 7.58 7.57z"/></g></g></svg>
