<svg xmlns="http://www.w3.org/2000/svg" width="128" height="24" fill="none" viewBox="0 0 128 24"><path fill="currentColor" d="M30.117 23.93V0h-6.024v13.205a13 13 0 0 0-1.028-.573L9.745 6A6.67 6.67 0 0 1 6.024.002H0V24h6.024V10.795c.332.203.674.397 1.028.573L20.372 18a6.67 6.67 0 0 1 3.721 5.998h6.024v-.069M42.164 6H51.2v17.998h6.024V6h9.033V0H42.164zM99.389 0v23.998h6.023v-7.5h9.034l6.024 7.5H128l-6.549-8.153c2.965-1.256 5.045-4.183 5.045-7.594 0-4.556-3.708-8.249-8.283-8.249H99.391zm6.023 10.5V6h12.799a2.253 2.253 0 0 1 2.259 2.25c0 1.243-1.01 2.25-2.259 2.25zM39.153 0h-6.024v23.998h6.024zM85.083 0H79.06c-6.653 0-12.047 5.373-12.047 11.999s5.394 11.999 12.047 11.999h6.024c6.653 0 12.048-5.373 12.048-11.999S91.736 0 85.083 0m6.024 11.999c0 3.313-2.697 6-6.024 6H79.06c-3.326 0-6.023-2.687-6.023-6s2.697-6 6.023-6h6.024c3.327 0 6.024 2.687 6.024 6"></path></svg>