<svg width="277" height="129" viewBox="0 0 277 129" fill="none" xmlns="http://www.w3.org/2000/svg"><path d="M41.62 75.95v29.603c0 .82-1.031 1.18-1.543.541L14.914 74.479a3.473 3.473 0 00-2.709-1.302h-9.43A2.774 2.774 0 000 75.95v49.929a2.774 2.774 0 002.775 2.774h8.324a2.774 2.774 0 002.774-2.774V96.278c0-.82 1.032-1.181 1.544-.541l25.163 31.615a3.475 3.475 0 002.709 1.302h9.43a2.774 2.774 0 002.775-2.774V75.95a2.774 2.774 0 00-2.775-2.773h-8.324a2.774 2.774 0 00-2.775 2.774zM85.149 125.88V75.95a2.774 2.774 0 00-2.775-2.773h-8.15a2.774 2.774 0 00-2.776 2.774v49.929a2.774 2.774 0 002.775 2.774h8.15a2.774 2.774 0 002.776-2.774zM144.251 73.177H97.775A2.774 2.774 0 0095 75.95v7.454a2.782 2.782 0 002.775 2.774h16.301v39.701a2.774 2.774 0 002.775 2.774h8.324a2.774 2.774 0 002.775-2.774v-39.7h16.301a2.774 2.774 0 002.775-2.775v-7.454a2.774 2.774 0 00-2.775-2.774zM258.348 109.18c8.221-1.755 14.388-9.057 14.388-17.8 0-9.762-7.688-17.73-17.342-18.182v-.021h-33.643a2.774 2.774 0 00-2.775 2.774v49.929a2.774 2.774 0 002.775 2.774h8.324a2.774 2.774 0 002.775-2.774v-14.563c0-.957.777-1.734 1.734-1.734h4.405c1.613 0 3.149.68 4.235 1.873l14.4 15.835a4.167 4.167 0 003.08 1.363h11.559c1.508 0 2.297-1.793 1.278-2.906l-15.193-16.568zM232.85 95.194v-7.628c0-.957.777-1.734 1.734-1.734h20.81v.063c2.941.421 5.203 2.429 5.203 5.485 0 3.056-2.262 5.064-5.203 5.485v.063h-20.81a1.735 1.735 0 01-1.734-1.734zM180.356 72.83c-15.325 0-28.441 12.764-28.441 28.085 0 15.32 13.116 28.085 28.441 28.085s28.44-12.765 28.44-28.085-13.115-28.085-28.44-28.085zm0 42.647c-7.662 0-13.874-6.903-13.874-14.562 0-7.66 6.212-14.563 13.874-14.563 7.661 0 13.873 6.903 13.873 14.563 0 7.659-6.212 14.562-13.873 14.562z" fill="#26273A"></path><path fill-rule="evenodd" clip-rule="evenodd" d="M126.669 61.047c-.229-.144-.468-.179-.728-.248-12.295-3.006-16.128-16.801-8.684-26.471 8.626-11.205 9.596-20.178 4.392-32.894a.527.527 0 00-.534-.319l-.018.001a.539.539 0 00-.453.455c-1.849 12.687-13.606 24.26-17.858 35.895-5.844 15.657 8.495 25.582 23.696 24.612l.018-.001a.504.504 0 00.458-.382c.104-.28-.059-.503-.289-.648z" fill="#26273A"></path><path fill-rule="evenodd" clip-rule="evenodd" d="M130.357 22.553c-.054-.213-.172-.33-.3-.338l-.054.005c-.143.03-.27.24-.286.495-.398 5.31-3.887 8.334-5.62 11.088-2.724 4.376-7.074 7.965-3.18 20.702.053.195.171.312.297.302l.072-.006c.141-.048.251-.256.267-.511.251-4.185 3.761-7.657 5.428-10.333 2.663-4.244 6.872-8.434 3.376-21.404zM137.31 36.962c-.029-.125-.108-.209-.18-.203l-.036.003c-.089.026-.17.141-.175.305-.291 3.306-2.264 5.118-3.358 6.822-1.737 2.7-6.413 5.622-4.11 13.575.029.125.107.191.179.185l.036-.003c.088-.025.168-.159.173-.322.213-3.373 3.533-5.132 5.42-7.119 2.138-2.242 4.095-5.141 2.051-13.243z" fill="#26273A"></path></svg>