<svg version="1.1" id="Layer_1" xmlns="http://www.w3.org/2000/svg" x="0" y="0" viewBox="0 0 334.9 81.4" xml:space="preserve">
  <path d="M131.8 81.5h30l4.3-4.3V60.1h-17.2l-4.3 4.3v4.3h12.9V73h-21.4v-8.6l8.5-8.5h17.1l4.3-4.3v-4.3h-25.7l-12.9 12.8v17l4.4 4.4zm176.3-25.7h22.6l4.3-4.3v-4.3h-38.5v8.6l10 12.8H320l3.3 4.3h-22.5l-4.3 4.3v4.3H335V73l-10-12.8h-13.5l-3.4-4.4zm-42.5 0h22.6l4.3-4.3v-4.3H254v8.6l10 12.8h13.5l3.3 4.3h-22.5l-4.3 4.2v4.3h38.5v-8.5l-10-12.8H269l-3.4-4.3zM115 81.5h8.5V47.3h-8.6v21.4L93.5 47.3H85v34.2h8.6V60.1L115 81.5zm0-42.2h8.5V5.1h-8.6v21.4L93.6 5.1H85v34.2h8.6V17.9L115 39.3zm55 0h25.7l11.7-12.8V18L195.7 5.1H170v34.2zm21.4-25.7l7.4 8.5-7.4 8.6h-12.8V13.6h12.8zm20 67.9h38.5v-4.3l-4.3-4.3h-25.7v-4.3h20v-8.5h-20v-4.3h25.7l4.3-4.3v-4.3h-38.5v34.3zm0-42.2h38.5V35l-4.3-4.3h-25.7v-4.3h20v-8.5h-20v-4.3h25.7l4.3-4.3V5.1h-38.5v34.2zM8.6 72.9V60.1l4.3-4.3h21.4l4.3-4.3v-4.3h-30L0 55.9v25.6h38.5v-4.4l-4.3-4.3-25.6.1zM200 81.5h8.6v-4.3l-10.7-10.7c3.5-3.6 6-7.1 9.5-10.7v-8.6H170v34.2h8.6V68.6h8.5L200 81.5zm-21.4-21.4v-4.3h17.1l-4.3 4.3h-12.8zM51.1 73V55.9h21.4V73H51.1zm30-25.7H46.8l-4.3 4.3v29.9h34.3l4.3-4.3V47.3z" fill="#000"/>
  <path d="M166 11.1v22.2l-19.3 11.1-19.3-11.1V11.1L146.6 0 166 11.1zm-19.2-1.9l-11.3 6.4v13l11.2 6.5 11.3-6.5v-13l-11.2-6.4z" fill="#bf0"/>
</svg>