<svg width="228" height="46" viewBox="0 0 228 46" fill="none" xmlns="http://www.w3.org/2000/svg">
<rect width="100%" height="100%" fill="#011627"/>
<path d="M0 23.0717V20.8434C2.00082 20.8434 3.39557 20.424 4.18697 19.5852C4.98919 18.7464 5.39098 17.3461 5.39098 15.3816V9.63159C5.39098 7.97829 5.5452 6.54688 5.8577 5.33735C6.18103 4.12647 6.70186 3.12665 7.42021 2.33653C8.13856 1.54506 9.0977 0.957882 10.2949 0.575C11.4935 0.192118 12.9735 0 14.7322 0V3.52171C13.3442 3.52171 12.2471 3.73818 11.4448 4.16841C10.6548 4.6 10.092 5.27106 9.75653 6.18159C9.43185 7.07994 9.27087 8.22994 9.27087 9.63159V16.8184C9.27087 17.7519 9.14505 18.6043 8.89343 19.3701C8.64734 20.1466 8.17886 20.8339 7.54602 21.3467C6.8872 21.8974 5.94699 22.3235 4.7254 22.6225C3.51598 22.9215 1.93994 23.0717 0 23.0717ZM14.7322 46C12.9735 46 11.4935 45.8079 10.2949 45.425C9.0977 45.0421 8.13856 44.4549 7.42021 43.6635C6.70186 42.8734 6.18103 41.8735 5.8577 40.6626C5.54656 39.4531 5.38963 38.0217 5.38963 36.3684V30.6184C5.38963 28.6539 4.9892 27.2523 4.18562 26.4135C3.39557 25.5746 2.00082 25.1552 0 25.1552V22.9283C1.93994 22.9283 3.51598 23.0771 4.7254 23.3775C5.94699 23.6765 6.8872 24.1026 7.54602 24.6533C8.20484 25.2039 8.65533 25.8628 8.89343 26.6286C9.14505 27.3971 9.27222 28.2467 9.27222 29.1816V36.3684C9.27222 37.7701 9.4332 38.9201 9.75653 39.8184C10.092 40.7168 10.6548 41.3824 11.4448 41.8126C12.2471 42.2564 13.3442 42.4783 14.7322 42.4783V46ZM0 25.1552V20.8434H4.23973V25.1566L0 25.1552ZM19.8864 15.249C19.895 15.653 19.8228 16.0546 19.6741 16.4304C19.5254 16.8061 19.3032 17.1483 19.0205 17.4371C18.7378 17.7258 18.4004 17.9552 18.0279 18.1118C17.6554 18.2684 17.2554 18.3491 16.8514 18.3491C16.4473 18.3491 16.0473 18.2684 15.6749 18.1118C15.3024 17.9552 14.9649 17.7258 14.6823 17.4371C14.3996 17.1483 14.1774 16.8061 14.0287 16.4304C13.88 16.0546 13.8078 15.653 13.8163 15.249C13.8163 14.4438 14.1362 13.6716 14.7055 13.1022C15.2748 12.5329 16.0469 12.213 16.8521 12.213C17.6572 12.213 18.4293 12.5329 18.9986 13.1022C19.568 13.6716 19.8878 14.4438 19.8878 15.249H19.8864ZM28.5932 32.7588C27.101 32.7588 25.8104 32.4422 24.7214 31.8076C23.6467 31.1756 22.7762 30.2481 22.2133 29.1356C21.6248 27.9896 21.3299 26.6597 21.3299 25.1485C21.3299 23.6237 21.6248 22.2911 22.2146 21.1505C22.7738 20.0362 23.6447 19.1083 24.7214 18.4798C25.8104 17.8399 27.1024 17.5192 28.5932 17.5192C30.0867 17.5192 31.3732 17.8399 32.4555 18.4798C33.5369 19.1058 34.4119 20.034 34.9731 21.1505C35.5629 22.2911 35.8578 23.6237 35.8578 25.1485C35.8578 26.6597 35.5629 27.9896 34.9731 29.1356C34.4089 30.2499 33.5352 31.1777 32.4568 31.8076C31.3746 32.4422 30.0867 32.7588 28.5932 32.7588ZM28.6135 29.5875C29.2926 29.5875 29.8581 29.3954 30.314 29.0111C30.7685 28.6201 31.1121 28.0884 31.3421 27.416C31.5788 26.7436 31.6965 25.9778 31.6965 25.1201C31.6965 24.2609 31.5788 23.4965 31.3421 22.8228C31.1121 22.1504 30.7685 21.6186 30.314 21.2276C29.8581 20.838 29.2912 20.6418 28.6135 20.6418C27.9276 20.6418 27.3513 20.838 26.8832 21.2276C26.4233 21.62 26.0729 22.1504 25.8361 22.8241C25.6061 23.4952 25.4898 24.2609 25.4898 25.1201C25.4898 25.9778 25.6061 26.7436 25.8361 27.416C26.0729 28.0884 26.4219 28.6201 26.8832 29.0125C27.3513 29.3954 27.9276 29.5875 28.6135 29.5875ZM42.6124 23.9376V32.4706H38.5188V12.7921H42.4961V20.3144H42.6693C42.9754 19.4779 43.5409 18.7611 44.2832 18.2688C45.0272 17.7682 45.958 17.5192 47.0794 17.5192C48.1049 17.5192 48.9977 17.7438 49.7607 18.1916C50.5324 18.6376 51.1541 19.303 51.5464 20.1034C51.9766 20.93 52.1877 21.9204 52.1823 23.0731V32.4706H48.0886V23.8036C48.0954 22.8931 47.8641 22.1855 47.3974 21.6795C46.936 21.1735 46.288 20.9219 45.4561 20.9219C44.8987 20.9219 44.4049 21.0396 43.9761 21.2764C43.554 21.5131 43.2198 21.8581 42.9777 22.3141C42.7396 22.7619 42.6178 23.3031 42.6124 23.9376ZM55.402 17.71H59.4956V33.2012C59.4956 34.3417 59.271 35.2631 58.8233 35.9679C58.3741 36.6728 57.7315 37.1883 56.8914 37.5157C56.0595 37.8418 55.0624 38.0055 53.9031 38.0055C53.7624 38.0055 53.6284 38.0014 53.4999 37.996C53.3646 37.996 53.2253 37.9919 53.0778 37.9865V34.7868C53.1861 34.7922 53.2821 34.7963 53.366 34.7963C53.4431 34.8031 53.5256 34.8058 53.6149 34.8058C54.2751 34.8058 54.7377 34.6651 54.9988 34.3823C55.2681 34.1076 55.402 33.6909 55.402 33.1335V17.71ZM57.4393 15.8091C56.8373 15.8091 56.3192 15.6062 55.8836 15.203C55.6764 15.0187 55.5109 14.7923 55.3982 14.5389C55.2855 14.2855 55.2283 14.011 55.2302 13.7337C55.2302 13.1695 55.4466 12.6852 55.8836 12.282C56.3007 11.8797 56.86 11.6589 57.4393 11.6678C58.0549 11.6678 58.5757 11.8721 59.0059 12.282C59.4415 12.6852 59.6593 13.1695 59.6593 13.7337C59.6593 14.3033 59.4415 14.7931 59.0059 15.203C58.5843 15.6041 58.0211 15.822 57.4393 15.8091ZM69.4997 32.7588C67.9818 32.7588 66.675 32.4516 65.5806 31.8361C64.501 31.2248 63.6254 30.3091 63.063 29.2032C62.4732 28.0627 62.1783 26.7138 62.1783 25.1579C62.1783 23.6399 62.4732 22.3073 63.063 21.1614C63.6205 20.0487 64.4841 19.1184 65.5522 18.4798C66.6277 17.8399 67.8885 17.5192 69.3374 17.5192C70.3114 17.5192 71.2178 17.6762 72.0565 17.9901C72.9007 18.2972 73.638 18.7612 74.2657 19.3836C74.9002 20.0046 75.3926 20.7866 75.7457 21.7282C76.0974 22.6618 76.2733 23.7576 76.2733 25.0145V26.1375H63.8125V23.6021H72.4204C72.4204 23.0122 72.2933 22.4899 72.0362 22.0354C71.787 21.5877 71.4178 21.2185 70.9702 20.9692C70.4932 20.6987 69.9519 20.5622 69.4037 20.5742C68.7827 20.5742 68.2321 20.7189 67.7519 21.0071C67.2848 21.2817 66.8998 21.6765 66.6371 22.1504C66.3666 22.6239 66.2313 23.1529 66.2232 23.736V26.1483C66.2232 26.8789 66.3585 27.5094 66.6277 28.0411C66.9023 28.5728 67.2906 28.9827 67.7911 29.2709C68.2889 29.5591 68.8815 29.7038 69.5673 29.7038C70.0219 29.7038 70.4386 29.6389 70.816 29.5117C71.1787 29.3964 71.5103 29.1995 71.7851 28.9361C72.06 28.6727 72.2708 28.3499 72.4015 27.9924L76.188 28.2426C76.0084 29.1263 75.6008 29.9477 75.0057 30.6252C74.4158 31.2989 73.6529 31.8239 72.7194 32.2014C71.79 32.5734 70.7172 32.7588 69.4997 32.7588ZM83.0374 12.7921V32.4706H78.9451V12.7921H83.0374ZM86.3166 32.4706V17.71H90.2181V20.3158H90.3899C90.6707 19.4865 91.2098 18.7691 91.9281 18.2688C92.6451 17.7682 93.5041 17.5192 94.5025 17.5192C95.5144 17.5192 96.3762 17.7722 97.0864 18.2769C97.798 18.7775 98.2728 19.4566 98.5095 20.3158H98.6638C98.9616 19.4737 99.5376 18.7584 100.297 18.2877C101.091 17.7749 102.028 17.5192 103.11 17.5192C104.489 17.5192 105.606 17.9576 106.465 18.8356C107.33 19.7069 107.761 20.9435 107.761 22.5441V32.4706H103.68V23.3518C103.68 22.5319 103.462 21.9176 103.027 21.5064C102.591 21.0964 102.046 20.8921 101.392 20.8921C100.65 20.8921 100.071 21.1289 99.654 21.6024C99.2374 22.0705 99.029 22.6888 99.029 23.4573V32.4706H95.0612V23.2652C95.0612 22.5414 94.8529 21.965 94.4362 21.5361C94.0263 21.1059 93.4852 20.8921 92.8128 20.8921C92.3783 20.8864 91.9513 21.0062 91.5831 21.2371C91.2246 21.4617 90.9392 21.7783 90.7281 22.1896C90.5085 22.6303 90.3998 23.1179 90.4116 23.6102V32.4706H86.3166ZM110.995 32.4706V17.71H115.088V32.4706H110.995ZM113.051 15.8091C112.442 15.8091 111.92 15.6062 111.484 15.203C111.28 15.0172 111.117 14.7902 111.006 14.537C110.895 14.2838 110.839 14.0101 110.842 13.7337C110.842 13.1695 111.056 12.6852 111.484 12.282C111.905 11.8782 112.468 11.6574 113.051 11.6678C113.66 11.6678 114.178 11.8721 114.607 12.282C115.044 12.6852 115.261 13.1695 115.261 13.7337C115.261 14.3033 115.044 14.7931 114.608 15.203C114.19 15.6024 113.629 15.8203 113.051 15.8091ZM130.646 21.9204L126.898 22.1504C126.835 21.8322 126.694 21.5349 126.486 21.2858C126.262 21.0132 125.975 20.7987 125.65 20.6608C125.266 20.4918 124.849 20.41 124.43 20.4213C123.795 20.4213 123.261 20.5566 122.825 20.8245C122.389 21.0869 122.172 21.4401 122.172 21.8811C122.172 22.2329 122.312 22.5305 122.595 22.7741C122.877 23.0176 123.359 23.2138 124.045 23.3612L126.716 23.8997C128.15 24.1946 129.221 24.6682 129.925 25.3203C130.63 25.9751 130.983 26.8329 130.983 27.8963C130.983 28.8636 130.697 29.7133 130.128 30.4425C129.564 31.1731 128.788 31.7441 127.801 32.154C126.821 32.5572 125.69 32.7588 124.411 32.7588C122.457 32.7588 120.9 32.3529 119.741 31.5384C118.588 30.7185 117.912 29.6037 117.713 28.1953L121.739 27.9829C121.861 28.5782 122.155 29.0341 122.624 29.348C123.09 29.6551 123.69 29.808 124.42 29.808C125.137 29.808 125.713 29.6714 126.149 29.3954C126.591 29.1139 126.816 28.7514 126.823 28.3103C126.822 28.1316 126.779 27.9556 126.697 27.7969C126.614 27.6381 126.496 27.5011 126.351 27.3971C126.043 27.1535 125.57 26.9682 124.93 26.8396L122.373 26.3309C120.933 26.0428 119.86 25.5422 119.154 24.8319C118.457 24.1202 118.108 23.2138 118.108 22.1125C118.108 21.1641 118.365 20.3469 118.876 19.6623C119.394 18.9764 120.121 18.4474 121.057 18.0766C121.999 17.7046 123.1 17.5192 124.362 17.5192C126.226 17.5192 127.693 17.9129 128.763 18.7004C129.839 19.4891 130.467 20.562 130.646 21.9204ZM141.409 17.71V20.7866H132.521V17.71H141.409ZM134.539 14.1748H138.633V27.9342C138.633 28.313 138.691 28.6079 138.806 28.819C138.91 29.0151 139.08 29.1683 139.286 29.2519C139.497 29.3345 139.741 29.3764 140.017 29.3764C140.209 29.3764 140.401 29.3602 140.593 29.3291C140.785 29.2898 140.933 29.2614 141.034 29.2425L141.678 32.2879C141.393 32.3727 141.104 32.4463 140.814 32.5085C140.369 32.6075 139.915 32.6624 139.459 32.6722C138.473 32.7114 137.607 32.5788 136.865 32.2785C136.159 32.002 135.558 31.5114 135.145 30.8755C134.735 30.2409 134.534 29.4414 134.539 28.4726V14.1748ZM150.585 32.7588C149.093 32.7588 147.802 32.4422 146.713 31.8076C145.639 31.1753 144.768 30.2479 144.205 29.1356C143.617 27.9896 143.322 26.6597 143.322 25.1485C143.322 23.6237 143.617 22.2911 144.205 21.1505C144.765 20.0362 145.636 19.1084 146.713 18.4798C147.802 17.8399 149.093 17.5192 150.585 17.5192C152.077 17.5192 153.365 17.8399 154.447 18.4798C155.529 19.1059 156.404 20.0341 156.965 21.1505C157.555 22.2911 157.848 23.6237 157.848 25.1485C157.848 26.6597 157.555 27.9896 156.965 29.1356C156.4 30.2499 155.526 31.1777 154.447 31.8076C153.365 32.4422 152.077 32.7588 150.585 32.7588ZM150.604 29.5875C151.283 29.5875 151.85 29.3954 152.304 29.0111C152.76 28.6201 153.103 28.0884 153.333 27.416C153.571 26.7436 153.688 25.9778 153.688 25.1201C153.688 24.2609 153.571 23.4965 153.333 22.8228C153.103 22.1504 152.76 21.6186 152.304 21.2276C151.85 20.838 151.283 20.6418 150.604 20.6418C149.919 20.6418 149.343 20.838 148.875 21.2276C148.414 21.62 148.065 22.1504 147.828 22.8241C147.597 23.4952 147.482 24.2609 147.482 25.1201C147.482 25.9778 147.597 26.7436 147.828 27.416C148.065 28.0884 148.414 28.6201 148.875 29.0125C149.343 29.3954 149.919 29.5875 150.604 29.5875ZM168.446 17.71V20.7866H159.338V17.71H168.446ZM161.424 32.4706V16.6452C161.424 15.5751 161.631 14.6875 162.047 13.9826C162.453 13.2937 163.056 12.7416 163.778 12.397C164.507 12.0452 165.336 11.8694 166.265 11.8694C166.893 11.8694 167.467 11.9167 167.985 12.0128C168.511 12.1088 168.901 12.1954 169.158 12.2725L168.427 15.3478C168.232 15.2876 168.033 15.2393 167.832 15.203C167.598 15.1577 167.359 15.1351 167.12 15.1354C166.518 15.1354 166.099 15.2774 165.862 15.5588C165.626 15.8348 165.507 16.2218 165.507 16.7224V32.4706H161.424ZM170.948 32.4706V17.71H174.915V20.286H175.07C175.337 19.3701 175.789 18.6787 176.424 18.2106C177.055 17.7377 177.825 17.4878 178.614 17.5003C179.047 17.5026 179.479 17.5507 179.902 17.6437V21.2764C179.64 21.2048 179.373 21.1532 179.104 21.1221C178.766 21.0775 178.454 21.0545 178.173 21.0545C177.57 21.0545 177.033 21.1871 176.558 21.4495C176.091 21.7066 175.719 22.0638 175.444 22.5251C175.168 23.0112 175.029 23.5627 175.04 24.1216V32.4706H170.948ZM182.018 32.4706V17.71H186.111V32.4706H182.018ZM184.074 15.8091C183.465 15.8091 182.943 15.6062 182.507 15.203C182.303 15.0172 182.14 14.7902 182.029 14.537C181.918 14.2838 181.862 14.0101 181.865 13.7337C181.865 13.1695 182.079 12.6852 182.507 12.282C182.928 11.8782 183.491 11.6574 184.074 11.6678C184.683 11.6678 185.201 11.8721 185.631 12.282C186.067 12.6852 186.284 13.1695 186.284 13.7337C186.284 14.3033 186.067 14.7931 185.631 15.203C185.212 15.6026 184.653 15.8205 184.074 15.8091ZM189.389 32.4706V17.71H193.483V32.4706H189.389ZM191.445 15.8091C190.838 15.8091 190.316 15.6062 189.88 15.203C189.675 15.0174 189.512 14.7905 189.401 14.5373C189.29 14.2841 189.234 14.0102 189.236 13.7337C189.236 13.1695 189.45 12.6852 189.88 12.282C190.3 11.8786 190.863 11.6577 191.445 11.6678C192.054 11.6678 192.574 11.8721 193.003 12.282C193.438 12.6852 193.656 13.1695 193.656 13.7337C193.656 14.3033 193.438 14.7931 193.003 15.203C192.584 15.6028 192.024 15.8206 191.445 15.8091ZM200.47 28.2224L200.48 23.3139H201.076L205.803 17.7114H210.501L204.15 25.1295H203.18L200.47 28.2224ZM196.762 32.4706V12.7921H200.854V32.4706H196.762ZM205.986 32.4706L201.643 26.0428L204.372 23.1502L210.78 32.4706H205.986ZM212.509 32.4706V17.71H216.602V32.4706H212.509ZM214.565 15.8091C213.956 15.8091 213.434 15.6062 213 15.203C212.795 15.0174 212.632 14.7905 212.521 14.5373C212.41 14.2841 212.354 14.0102 212.356 13.7337C212.356 13.1695 212.57 12.6852 213 12.282C213.42 11.878 213.983 11.6571 214.565 11.6678C215.174 11.6678 215.693 11.8721 216.122 12.282C216.558 12.6852 216.776 13.1695 216.776 13.7337C216.776 14.3033 216.558 14.7931 216.122 15.203C215.704 15.6028 215.144 15.8206 214.565 15.8091ZM227.731 17.71V20.7866H218.843V17.71H227.731ZM220.861 14.1748H224.955V27.9342C224.955 28.313 225.012 28.6079 225.127 28.819C225.232 29.0145 225.402 29.1675 225.607 29.2519C225.819 29.3345 226.063 29.3764 226.337 29.3764C226.529 29.3764 226.722 29.3602 226.914 29.3291C227.106 29.2898 227.253 29.2614 227.356 29.2425L228 32.2879C227.715 32.3724 227.426 32.446 227.136 32.5085C226.69 32.6074 226.236 32.6623 225.78 32.6722C224.794 32.7114 223.929 32.5788 223.187 32.2785C222.48 32.0026 221.878 31.5118 221.466 30.8755C221.056 30.2409 220.854 29.4414 220.861 28.4726V14.1748Z" fill="white"></path>
<path d="M0 23.0717V20.8434C2.01211 20.8434 3.41473 20.424 4.2106 19.5852C5.01735 18.7464 5.4214 17.3461 5.4214 15.3816V9.63159C5.4214 7.97829 5.57649 6.54688 5.89076 5.33735C6.2159 4.12647 6.73968 3.12665 7.46208 2.33653C8.18448 1.54506 9.14904 0.957882 10.353 0.575C11.5584 0.192118 13.0467 0 14.8153 0V3.52171C13.4195 3.52171 12.3162 3.73818 11.5094 4.16841C10.7149 4.6 10.149 5.27106 9.81158 6.18159C9.48507 7.07994 9.32318 8.22994 9.32318 9.63159V16.8184C9.32318 17.7519 9.19665 18.6043 8.94361 19.3701C8.69613 20.1466 8.22501 20.8339 7.5886 21.3467C6.92606 21.8974 5.98055 22.3235 4.75206 22.6225C3.53581 22.9215 1.95089 23.0717 0 23.0717ZM14.8153 46C13.0467 46 11.5584 45.8079 10.353 45.425C9.14904 45.0421 8.18448 44.4549 7.46208 43.6635C6.73968 42.8734 6.2159 41.8735 5.89076 40.6626C5.57785 39.4531 5.42004 38.0217 5.42004 36.3684V30.6184C5.42004 28.6539 5.01735 27.2523 4.20924 26.4135C3.41473 25.5746 2.01211 25.1552 0 25.1552V22.9283C1.95089 22.9283 3.53581 23.0771 4.75206 23.3775C5.98055 23.6765 6.92606 24.1026 7.5886 24.6533C8.25114 25.2039 8.70417 25.8628 8.94361 26.6286C9.19665 27.3971 9.32454 28.2467 9.32454 29.1816V36.3684C9.32454 37.7701 9.48643 38.9201 9.81158 39.8184C10.149 40.7168 10.7149 41.3824 11.5094 41.8126C12.3162 42.2564 13.4195 42.4783 14.8153 42.4783V46ZM0 25.1552V20.8434H4.26366V25.1566L0 25.1552ZM19.9986 15.249C20.0072 15.653 19.9346 16.0546 19.7851 16.4304C19.6355 16.8061 19.4121 17.1483 19.1278 17.4371C18.8436 17.7258 18.5042 17.9552 18.1296 18.1118C17.755 18.2684 17.3528 18.3491 16.9465 18.3491C16.5401 18.3491 16.1379 18.2684 15.7633 18.1118C15.3887 17.9552 15.0494 17.7258 14.7651 17.4371C14.4808 17.1483 14.2574 16.8061 14.1079 16.4304C13.9583 16.0546 13.8857 15.653 13.8943 15.249C13.8943 14.4438 14.2159 13.6716 14.7885 13.1022C15.361 12.5329 16.1375 12.213 16.9471 12.213C17.7568 12.213 18.5333 12.5329 19.1058 13.1022C19.6784 13.6716 20 14.4438 20 15.249H19.9986Z" fill="#F2FF66"></path>
</svg>
