<?xml version="1.0" encoding="UTF-8" standalone="no"?>
<svg
   xmlns:dc="http://purl.org/dc/elements/1.1/"
   xmlns:cc="http://creativecommons.org/ns#"
   xmlns:rdf="http://www.w3.org/1999/02/22-rdf-syntax-ns#"
   xmlns:svg="http://www.w3.org/2000/svg"
   xmlns="http://www.w3.org/2000/svg"
   xmlns:sodipodi="http://sodipodi.sourceforge.net/DTD/sodipodi-0.dtd"
   xmlns:inkscape="http://www.inkscape.org/namespaces/inkscape"
   width="325.64139"
   height="128"
   viewBox="0 0 325.64139 128"
   version="1.1"
   id="svg3767"
   sodipodi:docname="prisma.svg"
   style="fill:none"
   inkscape:version="0.92.2 2405546, 2018-03-11">
  <metadata
     id="metadata3773">
    <rdf:RDF>
      <cc:Work
         rdf:about="">
        <dc:format>image/svg+xml</dc:format>
        <dc:type
           rdf:resource="http://purl.org/dc/dcmitype/StillImage" />
        <dc:title></dc:title>
      </cc:Work>
    </rdf:RDF>
  </metadata>
  <defs
     id="defs3771" />
  <sodipodi:namedview
     pagecolor="#ffffff"
     bordercolor="#666666"
     borderopacity="1"
     objecttolerance="10"
     gridtolerance="10"
     guidetolerance="10"
     inkscape:pageopacity="0"
     inkscape:pageshadow="2"
     inkscape:window-width="2556"
     inkscape:window-height="1389"
     id="namedview3769"
     showgrid="false"
     inkscape:zoom="4.7070312"
     inkscape:cx="162.7164"
     inkscape:cy="64.0001"
     inkscape:window-x="0"
     inkscape:window-y="49"
     inkscape:window-maximized="0"
     inkscape:current-layer="svg3767" />
  <path
     d="m 207.5563,85.7499 h -8.638 v -31.662 h 8.638 z m -4.3039,-44.066 c -3.134,0 -4.701,1.406 -4.701,4.219 0,2.832 1.567,4.248 4.701,4.248 1.567,0 2.742,-0.372 3.526,-1.118 0.783,-0.746 1.175,-1.789 1.175,-3.13 0,-2.813 -1.568,-4.219 -4.701,-4.219 z m 110.466,29.5091 3.342,-0.113 v 2.605 c 0,1.908 -0.6,3.437 -1.799,4.588 -1.198,1.152 -2.799,1.728 -4.8,1.728 -2.794,0 -4.191,-1.218 -4.191,-3.653 0,-1.7 0.613,-2.964 1.841,-3.795 1.227,-0.831 3.096,-1.284 5.607,-1.36 z m 4.22,10.252 1.671,4.305 h 6.032 V 64.651 c 0,-3.776 -1.133,-6.589 -3.398,-8.439 -2.266,-1.85 -5.523,-2.776 -9.771,-2.776 -4.436,0 -8.477,0.954 -12.121,2.861 l 2.86,5.834 c 3.417,-1.53 6.391,-2.294 8.921,-2.294 3.285,0 4.928,1.605 4.928,4.814 v 1.388 l -5.494,0.17 c -4.739,0.17 -8.283,1.053 -10.635,2.648 -2.35,1.596 -3.525,4.074 -3.525,7.434 0,3.21 0.873,5.683 2.619,7.42 1.747,1.737 4.139,2.605 7.18,2.605 2.473,0 4.479,-0.354 6.017,-1.062 1.539,-0.708 3.035,-1.977 4.489,-3.809 z m -54.391,4.3049 h 8.638 v -15.888 c 0,-3.285 0.524,-5.682 1.571,-7.193 1.049,-1.51 2.63,-2.266 4.744,-2.266 1.643,0 2.846,0.572 3.612,1.714 0.763,1.142 1.146,2.856 1.146,5.14 v 18.493 h 8.666 v -20.646 c 0,-4.059 -0.92,-7.009 -2.761,-8.85 -1.84,-1.84 -4.555,-2.761 -8.142,-2.761 -2.077,0 -3.941,0.406 -5.593,1.218 -1.652,0.812 -2.903,1.954 -3.753,3.427 h -0.764 c -1.681,-3.096 -4.89,-4.645 -9.629,-4.645 -2.077,0 -3.918,0.411 -5.523,1.232 -1.604,0.821 -2.832,1.959 -3.681,3.413 h -0.482 l -1.161,-4.05 h -6.599 v 31.662 h 8.638 v -14.896 c 0,-3.72 0.5,-6.391 1.501,-8.015 1.001,-1.624 2.606,-2.436 4.814,-2.436 1.643,0 2.846,0.572 3.612,1.714 0.763,1.142 1.146,2.856 1.146,5.14 z m -25.5805,-9.4023 c 0,3.248 -1.128,5.721 -3.385,7.42 -2.256,1.699 -5.631,2.549 -10.124,2.549 -2.304,0 -4.266,-0.156 -5.89,-0.468 -1.624,-0.311 -3.144,-0.769 -4.56,-1.373 v -7.137 c 1.605,0.756 3.412,1.388 5.424,1.898 2.01,0.509 3.78,0.764 5.309,0.764 3.134,0 4.702,-0.906 4.702,-2.718 0,-0.68 -0.208,-1.232 -0.623,-1.657 -0.416,-0.425 -1.133,-0.906 -2.153,-1.445 -1.019,-0.538 -2.379,-1.165 -4.078,-1.883 -2.435,-1.019 -4.225,-1.963 -5.366,-2.832 -1.143,-0.868 -1.974,-1.864 -2.492,-2.988 -0.52,-1.123 -0.78,-2.506 -0.78,-4.149 0,-2.813 1.09,-4.988 3.272,-6.527 2.18,-1.539 5.271,-2.308 9.274,-2.308 3.814,0 7.524,0.831 11.13,2.492 l -2.605,6.23 c -1.586,-0.68 -3.069,-1.236 -4.447,-1.671 -1.378,-0.434 -2.785,-0.651 -4.219,-0.651 -2.549,0 -3.824,0.689 -3.824,2.067 0,0.775 0.412,1.445 1.232,2.011 0.822,0.566 2.62,1.407 5.395,2.521 2.474,1.001 4.287,1.935 5.438,2.803 1.151,0.869 2.001,1.869 2.549,3.002 0.548,1.133 0.821,2.483 0.821,4.05 z M 191.4191,53.4931 c 1.171,0 2.143,0.085 2.917,0.255 l -0.651,8.099 c -0.699,-0.188 -1.548,-0.283 -2.549,-0.283 -2.757,0 -4.904,0.708 -6.444,2.124 -1.538,1.416 -2.307,3.399 -2.307,5.948 v 16.114 h -8.638 v -31.662 h 6.542 l 1.275,5.324 h 0.424 c 0.982,-1.774 2.308,-3.205 3.98,-4.291 1.67,-1.085 3.487,-1.628 5.451,-1.628 z M 151.2125,63.83 h -2.88905 V 51.539 h 3.99305 c 2.3979,0 4.158,0.491 5.2819,1.473 1.1231,0.982 1.685,2.502 1.685,4.559 0,2.039 -0.6699,3.592 -2.0109,4.659 -1.341,1.067 -3.3601,1.6 -6.06,1.6 z m 12.7569,3.653 c 2.786,-2.36 4.178,-5.767 4.178,-10.223 0,-4.286 -1.307,-7.51 -3.922,-9.672 -2.615,-2.161 -6.433,-3.242 -11.456,-3.242 h -13.225 V 85.75 h 8.77899 V 71.023 h 3.76701 c 5.135,0 9.095,-1.179 11.879,-3.54 z"
     id="path3763"
     inkscape:connector-curvature="0"
     style="clip-rule:evenodd;fill:#0c344b;fill-rule:evenodd" />
  <path
     d="M 105.306,97.5187 61.284301,4.03669 v -0.002 c -1.104,-2.337 -3.408,-3.87899899 -6.019,-4.02199919 -2.679,-0.1559998 -5.079,1.13599919 -6.433,3.33499919 L 1.0882708,80.6777 c -1.47899799,2.41 -1.44999799,5.382 0.084,7.763 L 24.510301,124.593 c 1.391,2.158 3.801,3.407 6.306,3.407 0.71,0 1.424,-0.1 2.126,-0.308 L 100.686,107.656 c 2.075,-0.614 3.772,-2.082 4.66,-4.028 0.885,-1.947 0.871,-4.1753 -0.04,-6.1093 z m -9.856699,4.0103 -57.479,17 c -1.756,0.52 -3.439,-0.999 -3.07,-2.77 l 20.534,-98.3393 c 0.384,-1.839 2.926,-2.131 3.728,-0.428 l 38.02,80.736 c 0.717,1.523 -0.101,3.3193 -1.733,3.8013 z"
     id="path3765"
     inkscape:connector-curvature="0"
     style="clip-rule:evenodd;fill:#0c344b;fill-rule:evenodd" />
</svg>
