<svg xmlns="http://www.w3.org/2000/svg" viewBox="0 0 278.12 369.61"><defs><style>.cls-1{fill:#231f20;}</style></defs><title>React India Logo Black</title><g id="Layer_2" data-name="Layer 2"><g id="Layer_1-2" data-name="Layer 1"><path class="cls-1" d="M113.26,60.91q-2.22,2.93-4.43,6a273.77,273.77,0,0,0-28,3.89q-3.48.68-6.78,1.44c-27.81,6.36-45.9,16.71-45.9,28.39s18.09,22,45.9,28.39c-.8,2.05-1.57,4.08-2.28,6.08-36.53-7.13-60.87-19.9-60.87-34.47S35.28,73.24,71.81,66.12c2.31-.46,4.66-.89,7.07-1.29A341.94,341.94,0,0,1,113.26,60.91Z"/><path class="cls-1" d="M161.39,134.9q-2.26,3-4.55,5.78c-5.81.25-11.75.39-17.78.39s-12-.14-17.77-.39q-4-.18-8-.43a339.26,339.26,0,0,1-34.39-3.92c.6-1.94,1.27-3.92,2-5.93a273.67,273.67,0,0,0,28,3.9c2.6.23,5.23.43,7.91.6,7.21.47,14.67.71,22.32.71S154.17,135.37,161.39,134.9Z"/><path class="cls-1" d="M199.24,64.83c-.61,1.94-1.27,3.92-2,5.92A205.22,205.22,0,0,1,187.07,94.2c1.24,2.13,2.43,4.26,3.59,6.38A254.84,254.84,0,0,0,204,72.19q1.2-3.07,2.27-6.07C204,65.66,201.65,65.23,199.24,64.83Zm-60.18,95.4c-1.59,1.56-3.19,3.05-4.78,4.49,1.59,1.65,3.19,3.25,4.78,4.8,1.6-1.55,3.19-3.15,4.79-4.8C142.26,163.28,140.66,161.79,139.06,160.23Z"/><path class="cls-1" d="M206.31,66.12c-2.31-.46-4.66-.89-7.07-1.29a341.94,341.94,0,0,0-34.38-3.92q2.23,2.93,4.43,6a274.37,274.37,0,0,1,28,3.89c2.31.45,4.58.93,6.78,1.44,27.81,6.36,45.89,16.71,45.89,28.39S231.85,122.61,204,129q1.2,3.08,2.28,6.08c36.53-7.13,60.87-19.9,60.87-34.47S242.85,73.24,206.31,66.12Zm-9.06,64.28a270.91,270.91,0,0,1-28,3.9c-1.46,2-2.94,4-4.43,5.95a339.05,339.05,0,0,0,34.38-3.92Q198.33,133.42,197.25,130.4ZM156.84,60.48c-5.81-.25-11.75-.39-17.78-.39s-12,.14-17.77.39q-2.3,2.82-4.55,5.78c7.21-.47,14.67-.72,22.32-.72s15.11.25,22.32.72C159.88,64.29,158.36,62.36,156.84,60.48Z"/><path class="cls-1" d="M187.07,107q-4,6.9-8.51,13.86t-9.27,13.48c-1.46,2-2.94,4-4.43,5.95a276.6,276.6,0,0,1-21,24.47c-1.59-1.44-3.19-2.93-4.79-4.49a224.68,224.68,0,0,0,17.78-19.55q2.28-2.82,4.55-5.78c4.06-5.31,8-10.92,11.85-16.8s7.32-11.74,10.47-17.52Q185.46,103.79,187.07,107Z"/><path class="cls-1" d="M206.31,66.12c-2.31-.46-4.66-.89-7.07-1.29,7.7-24.57,6.65-43.65-4.74-49.49S164,18.24,143.85,36.43h0c-1.59,1.44-3.19,2.93-4.79,4.49a223,223,0,0,0-17.77,19.55q-2.3,2.82-4.55,5.78c-4.06,5.31-8,10.93-11.86,16.8S97.56,94.8,94.42,100.58c-1.17,2.14-2.3,4.27-3.37,6.38A204,204,0,0,0,80.87,130.4c-.72,2-1.39,4-2,5.93-7.7,24.56-6.65,43.65,4.74,49.49s30.54-2.9,50.66-21.1c1.59,1.65,3.19,3.25,4.78,4.8C113.84,194,89.21,206.37,75,199.08s-14.5-32.38-3.19-64c.71-2,1.48-4,2.28-6.08a253.06,253.06,0,0,1,13.38-28.39c1.15-2.12,2.35-4.25,3.58-6.38q4-6.9,8.51-13.86t9.27-13.48q2.2-3,4.43-6a278.23,278.23,0,0,1,21-24.48c1.6-1.64,3.19-3.24,4.79-4.78C164.29,7.12,188.92-5.21,203.12,2.08S217.62,34.46,206.31,66.12Z"/><path class="cls-1" d="M75,2.08c-14.21,7.28-14.5,32.38-3.19,64,2.31-.46,4.66-.89,7.07-1.29-7.7-24.57-6.65-43.65,4.74-49.49s30.54,2.9,50.65,21.09c1.6-1.64,3.19-3.24,4.79-4.78C113.84,7.12,89.21-5.21,75,2.08Zm-.91,70.11a253.06,253.06,0,0,0,13.38,28.39c1.15-2.12,2.35-4.25,3.58-6.38A203.32,203.32,0,0,1,80.87,70.75Q77.39,71.43,74.09,72.19Zm65,88a223,223,0,0,1-17.77-19.55q-4-.18-8-.43a273.31,273.31,0,0,0,21,24.47c1.59,1.65,3.19,3.25,4.78,4.8,1.6-1.55,3.19-3.15,4.79-4.8C142.26,163.28,140.66,161.79,139.06,160.23Z"/><path class="cls-1" d="M116.74,134.9c-2.68-.17-5.31-.37-7.91-.6q-4.72-6.51-9.27-13.48T91.05,107c1.07-2.11,2.2-4.24,3.37-6.38,3.14,5.78,6.64,11.64,10.46,17.52S112.68,129.59,116.74,134.9Z"/><path class="cls-1" d="M203.12,199.08c-14.2,7.29-38.83-5.05-64.06-29.56,1.6-1.55,3.19-3.15,4.79-4.8,20.11,18.2,39.25,26.94,50.65,21.1s12.44-24.93,4.74-49.49q-.92-2.91-2-5.93A204,204,0,0,0,187.07,107q-1.6-3.17-3.36-6.38c-3.15-5.78-6.65-11.64-10.47-17.52s-7.79-11.49-11.86-16.8c-1.5-2-3-3.9-4.54-5.78a224.68,224.68,0,0,0-17.78-19.55c1.6-1.56,3.2-3,4.79-4.49a276.37,276.37,0,0,1,21,24.47q2.23,2.93,4.43,6,4.72,6.51,9.27,13.48t8.51,13.86c1.24,2.13,2.43,4.26,3.59,6.38A254.84,254.84,0,0,1,204,129q1.2,3.08,2.28,6.08C217.62,166.7,217.34,191.8,203.12,199.08Z"/><path class="cls-1" d="M142.56,102.05c1.36.44,2.68.93,4,1.43l.49.19.49.2c.31.16.59.35.89.52l1.75,1.09,3.46,2.26,1.72,1.14,1.71,1.15-.13.21-2-.75-2-.75c-1.31-.51-2.63-1-3.93-1.53l-1.94-.8a10.19,10.19,0,0,1-1-.43,4,4,0,0,1-.44-.27l-.43-.28c-1.15-.76-2.29-1.53-3.39-2.35Z"/><path class="cls-1" d="M142.79,100.29c1.42-.22,2.84-.39,4.26-.53l.53-.06.54,0c.35,0,.71,0,1.06.06.71,0,1.42.1,2.13.16l4.27.42,2.13.23,2.13.23V101l-2.13.23-2.13.23-4.27.42-2.13.16c-.35,0-.71.07-1.06.06l-.54,0-.53-.06c-1.42-.14-2.84-.31-4.26-.53Z"/><path class="cls-1" d="M139.06,77.3c-14.48,0-26.22,10.43-26.22,23.28s11.74,23.28,26.22,23.28,26.22-10.42,26.22-23.28S153.54,77.3,139.06,77.3Zm0,43.42c-12.53,0-22.69-9-22.69-20.14s10.16-20.14,22.69-20.14,22.69,9,22.69,20.14S151.59,120.72,139.06,120.72Z"/><path class="cls-1" d="M139.06,95.55c3.13,0,5.67,2.25,5.67,5s-2.54,5-5.67,5-5.67-2.25-5.67-5,2.54-5,5.67-5"/><path class="cls-1" d="M138.39,97.41c-.25-1.27-.43-2.53-.6-3.79l-.06-.47a3.89,3.89,0,0,1,0-.47c0-.32,0-.64.06-1,.05-.63.11-1.26.19-1.89.14-1.26.31-2.53.47-3.79l.25-1.89.27-1.89h.26l.27,1.89.25,1.89c.16,1.26.33,2.53.47,3.79.08.63.14,1.26.19,1.89,0,.31.07.63.06,1a3.89,3.89,0,0,1,0,.47l-.07.47c-.16,1.26-.34,2.52-.59,3.79Z"/><path class="cls-1" d="M136.56,98.11c-.93-1-1.8-2-2.65-3l-.32-.38c-.11-.13-.21-.25-.31-.39a8.76,8.76,0,0,1-.47-.85c-.31-.57-.62-1.14-.91-1.72-.58-1.15-1.15-2.32-1.72-3.48l-.85-1.75-.83-1.76.23-.12L130,86.17l1.29,1.53c.84,1,1.7,2,2.54,3.07.42.51.82,1,1.23,1.55.19.26.41.52.58.79a4.5,4.5,0,0,1,.23.43l.21.44c.57,1.17,1.12,2.34,1.61,3.54Z"/><path class="cls-1" d="M135.37,99.54c-1.35-.44-2.68-.93-4-1.43l-.49-.19-.49-.2c-.31-.15-.59-.35-.89-.52l-1.75-1.09c-1.16-.74-2.3-1.5-3.46-2.26l-1.72-1.14-1.71-1.15.13-.2,2,.74,2,.75c1.31.51,2.63,1,3.93,1.53.66.26,1.3.53,1.94.8.32.14.65.27,1,.43.15.08.29.18.43.27l.44.28c1.14.76,2.28,1.53,3.39,2.36Z"/><path class="cls-1" d="M135.15,101.3c-1.42.23-2.85.39-4.27.54l-.53,0a4.73,4.73,0,0,1-.53,0c-.36,0-.71,0-1.07-.05-.71,0-1.42-.1-2.13-.17-1.42-.13-2.84-.28-4.26-.42l-2.13-.22-2.14-.24v-.23l2.14-.24,2.13-.22c1.42-.14,2.84-.29,4.26-.42.71-.07,1.42-.12,2.13-.17.36,0,.71-.06,1.07,0a4.73,4.73,0,0,1,.53,0l.53,0c1.42.15,2.85.31,4.27.53Z"/><path class="cls-1" d="M135.94,102.93c-1.1.83-2.24,1.6-3.39,2.36l-.43.28c-.14.09-.29.19-.44.27-.3.16-.63.29-1,.43l-1.94.8c-1.3.52-2.62,1-3.93,1.53l-2,.75-2,.74-.13-.2,1.71-1.15,1.72-1.14c1.15-.76,2.3-1.52,3.46-2.26.57-.37,1.16-.73,1.75-1.09.29-.17.58-.37.89-.52l.49-.2.49-.19c1.31-.5,2.63-1,4-1.43Z"/><path class="cls-1" d="M137.55,104c-.49,1.2-1,2.38-1.61,3.54l-.21.44-.23.43c-.17.27-.39.53-.59.79-.4.52-.81,1-1.22,1.55-.84,1-1.7,2.05-2.54,3.07l-1.29,1.53-1.29,1.52-.24-.12.84-1.75.85-1.75c.57-1.17,1.14-2.33,1.72-3.49.29-.58.6-1.15.9-1.72.16-.29.3-.58.48-.85l.31-.39.32-.38c.85-1,1.72-2,2.65-3Z"/><path class="cls-1" d="M139.54,104.19c.25,1.26.43,2.52.6,3.78l.06.47c0,.16,0,.32.05.48,0,.31,0,.63-.07.94-.05.63-.11,1.27-.18,1.9-.15,1.26-.32,2.52-.48,3.78l-.25,1.89-.26,1.9h-.27l-.27-1.9-.25-1.89c-.16-1.26-.32-2.52-.47-3.78-.07-.63-.13-1.27-.19-1.9,0-.31-.07-.63-.06-.94,0-.16,0-.32.05-.48l.06-.47c.16-1.26.35-2.52.6-3.78Z"/><path class="cls-1" d="M141.37,103.48c.93,1,1.8,2,2.65,3l.32.38c.11.13.22.26.31.39s.32.57.48.85c.31.57.61,1.14.9,1.72.59,1.16,1.15,2.33,1.72,3.49l.85,1.75.84,1.75-.23.12-1.3-1.52-1.28-1.52c-.85-1-1.71-2-2.54-3.07q-.63-.78-1.23-1.56a9,9,0,0,1-.59-.79c-.08-.14-.15-.28-.22-.43l-.22-.44c-.57-1.16-1.12-2.34-1.61-3.54Z"/><path class="cls-1" d="M142,98.66c1.1-.82,2.24-1.59,3.39-2.35l.43-.28.44-.28c.3-.16.63-.28.95-.42.65-.28,1.29-.55,1.94-.8L153.07,93l2-.76,2-.74.14.21-1.72,1.15L153.72,94l-3.45,2.25c-.58.37-1.17.73-1.76,1.09a9.85,9.85,0,0,1-.89.52,4,4,0,0,1-.48.2l-.49.19c-1.32.51-2.64,1-4,1.43Z"/><path class="cls-1" d="M140.38,97.61c.49-1.21,1.05-2.38,1.61-3.55l.22-.43a4.32,4.32,0,0,1,.22-.43c.17-.28.39-.53.59-.8.4-.52.81-1,1.23-1.55.83-1,1.69-2,2.54-3.07l1.28-1.53,1.3-1.52.23.12-.84,1.76-.84,1.75c-.58,1.16-1.14,2.33-1.73,3.49-.29.57-.59,1.15-.9,1.72-.16.28-.29.57-.48.84a3,3,0,0,1-.31.39l-.32.39c-.85,1-1.72,2-2.65,3Z"/><path class="cls-1" d="M14.29,267.88q11,0,16.82,3.91T37,283.93a13.76,13.76,0,0,1-2.36,8.34,15.58,15.58,0,0,1-6.79,5c1,1.22,2,2.61,3.1,4.18s2.14,3.22,3.2,4.93,2.07,3.5,3.06,5.35,1.9,3.67,2.74,5.45H27.63l-2.72-4.85q-1.38-2.46-2.83-4.79c-1-1.55-1.91-3-2.86-4.4s-1.88-2.63-2.82-3.76H11v17.8H0V269.15a62.58,62.58,0,0,1,7.42-1Q11.26,267.88,14.29,267.88Zm.63,9.36c-.8,0-1.51,0-2.15.07l-1.79.14v13.23h3.1c4.12,0,7.08-.51,8.86-1.55s2.68-2.79,2.68-5.27a5.39,5.39,0,0,0-2.71-5.11C21.1,277.75,18.44,277.24,14.92,277.24Z"/><path class="cls-1" d="M61,317.21V268.44H94v9.22H72v9.57h19.5v9H72V308H95.57v9.22Z"/><path class="cls-1" d="M150.46,317.21q-.83-2.54-1.75-5.22t-1.87-5.33h-19q-.92,2.67-1.85,5.35c-.62,1.79-1.19,3.52-1.73,5.2h-11.4q2.76-7.87,5.22-14.56t4.84-12.6q2.37-5.91,4.66-11.23t4.76-10.38H142.7q2.4,5.07,4.74,10.38t4.7,11.23q2.37,5.91,4.84,12.6t5.23,14.56Zm-13.19-37.72c-.25.71-.61,1.68-1.08,2.89s-1,2.63-1.61,4.23-1.28,3.36-2,5.28-1.5,3.93-2.27,6h14q-1.12-3.17-2.17-6.06t-2-5.29c-.63-1.6-1.18-3-1.65-4.22S137.56,280.19,137.27,279.49Z"/><path class="cls-1" d="M203,318.2q-11.9,0-18.12-6.62t-6.23-18.79a29,29,0,0,1,1.9-10.8,23.34,23.34,0,0,1,5.21-8,21.74,21.74,0,0,1,7.88-5,28.36,28.36,0,0,1,9.93-1.69,32.36,32.36,0,0,1,5.63.45,37.21,37.21,0,0,1,4.43,1.06,22.46,22.46,0,0,1,3.17,1.23q1.26.63,1.83,1l-3.17,8.87a26.88,26.88,0,0,0-5.24-2.05,25.19,25.19,0,0,0-6.79-.84,15,15,0,0,0-5,.84,11.34,11.34,0,0,0-4.3,2.71,13.59,13.59,0,0,0-3,4.82,20.26,20.26,0,0,0-1.13,7.18,25.79,25.79,0,0,0,.74,6.3,13.28,13.28,0,0,0,2.4,5,11.44,11.44,0,0,0,4.32,3.35,15.48,15.48,0,0,0,6.48,1.23,30.68,30.68,0,0,0,4.29-.28,31.56,31.56,0,0,0,3.38-.67,17.5,17.5,0,0,0,2.6-.88l2-.92,3,8.8a25.7,25.7,0,0,1-6.54,2.53A38.24,38.24,0,0,1,203,318.2Z"/><path class="cls-1" d="M278.12,268.44v9.36h-14.7v39.41h-11V277.8H237.73v-9.36Z"/><path class="cls-1" d="M47.82,347.41h4v21.95h-4Z"/><path class="cls-1" d="M97.19,369.36c-.72-1.2-1.52-2.5-2.41-3.88S93,362.71,92,361.3s-1.92-2.76-2.9-4.08-1.92-2.51-2.8-3.57v15.71H82.4V347.41h3.26c.84.89,1.75,1.94,2.72,3.15s2,2.48,2.93,3.79,1.94,2.62,2.85,3.94,1.74,2.55,2.46,3.69V347.41h4v21.95Z"/><path class="cls-1" d="M149.79,358.37a12.59,12.59,0,0,1-.89,5,9.44,9.44,0,0,1-2.51,3.51,10.44,10.44,0,0,1-3.93,2.09,17.64,17.64,0,0,1-5.08.68c-.89,0-1.89,0-3-.11a19,19,0,0,1-3.2-.46V347.73a19.07,19.07,0,0,1,3.23-.44c1.14-.07,2.15-.1,3-.1a18.48,18.48,0,0,1,5,.65,10.33,10.33,0,0,1,3.91,2,9.17,9.17,0,0,1,2.51,3.48A12.76,12.76,0,0,1,149.79,358.37Zm-14.63,7.7.92,0c.38,0,.9,0,1.55,0q4,0,6-2a9.36,9.36,0,0,0,.05-11.45c-1.29-1.33-3.28-2-6-2a23.78,23.78,0,0,0-2.53.1Z"/><path class="cls-1" d="M179.5,347.41h4v21.95h-4Z"/><path class="cls-1" d="M228.68,369.36c-.3-.86-.6-1.72-.92-2.56s-.63-1.71-.92-2.6h-9.27c-.3.89-.6,1.76-.91,2.61s-.61,1.71-.9,2.55h-4.15c.82-2.34,1.6-4.51,2.34-6.49s1.46-3.86,2.17-5.64,1.41-3.46,2.1-5.07,1.41-3.18,2.15-4.75h3.81q1.11,2.35,2.16,4.75t2.1,5.07c.71,1.78,1.44,3.65,2.19,5.64s1.53,4.15,2.36,6.49Zm-6.48-17.7c-.48,1.12-1,2.48-1.66,4.08s-1.27,3.35-1.95,5.23h7.22c-.67-1.88-1.33-3.63-2-5.26S222.67,352.73,222.2,351.66Z"/></g></g></svg>