<svg id="Layer_1" data-name="Layer 1" xmlns="http://www.w3.org/2000/svg" viewBox="0 0 1440 969.84"><defs><style>.cls-1{fill:#2eace3;}.cls-2{fill:#f79425;}</style></defs><path class="cls-1" d="M513.15,636.52l-8.34-12.46h-6.73v12.46h-8.57V597.58h17.8q7,0,10.82,3.39t3.87,9.46v.11a12.19,12.19,0,0,1-2.31,7.7,13.37,13.37,0,0,1-6,4.37l9.51,13.91Zm.17-25.65a5,5,0,0,0-1.78-4.17,7.85,7.85,0,0,0-5-1.39h-8.51v11.18h8.68a7.1,7.1,0,0,0,4.86-1.5,5.07,5.07,0,0,0,1.7-4Z"/><path class="cls-1" d="M526.56,636.52V597.58h29.32v7.62H535v7.9h18.36v7.62H535v8.18h21.14v7.62Z"/><path class="cls-1" d="M590.76,636.52l-3.56-8.74H570.74l-3.57,8.74h-8.73l16.69-39.22H583l16.69,39.22ZM579,607.59l-5.17,12.63h10.34Z"/><path class="cls-1" d="M630.32,633.13a18.65,18.65,0,0,1-3.53,2.19,18.17,18.17,0,0,1-4.2,1.39,25,25,0,0,1-5.12.48,20.15,20.15,0,0,1-8-1.56,19.55,19.55,0,0,1-6.34-4.26A19.34,19.34,0,0,1,599,625a20.54,20.54,0,0,1-1.51-7.84v-.11a20.33,20.33,0,0,1,1.51-7.82,20.12,20.12,0,0,1,4.17-6.4,19.43,19.43,0,0,1,6.4-4.34,20.93,20.93,0,0,1,8.23-1.58,26.29,26.29,0,0,1,5,.44,20.9,20.9,0,0,1,4.09,1.23,18,18,0,0,1,3.39,1.89,22.77,22.77,0,0,1,2.9,2.45l-5.46,6.28a20.46,20.46,0,0,0-4.64-3.22,11.83,11.83,0,0,0-5.31-1.17,10.85,10.85,0,0,0-4.54.94,10.64,10.64,0,0,0-3.59,2.62,12.07,12.07,0,0,0-2.33,3.86,13.12,13.12,0,0,0-.84,4.71v.11a13.31,13.31,0,0,0,.84,4.73,12.13,12.13,0,0,0,2.31,3.89,10.75,10.75,0,0,0,8.15,3.62,11.87,11.87,0,0,0,5.64-1.23,21.67,21.67,0,0,0,4.59-3.34l5.45,5.51A28.92,28.92,0,0,1,630.32,633.13Z"/><path class="cls-1" d="M655.85,605.47v31h-8.56v-31H635.44v-7.89H667.7v7.89Z"/><path class="cls-2" d="M707.22,598.27a12.54,12.54,0,0,1,4,2,8.35,8.35,0,0,1,2.55,3.06,9,9,0,0,1,.89,4,9.89,9.89,0,0,1-.53,3.39,8.92,8.92,0,0,1-1.41,2.56,9.36,9.36,0,0,1-2,1.87,12.8,12.8,0,0,1-2.25,1.25,16.86,16.86,0,0,1,3.25,1.31,10.79,10.79,0,0,1,2.64,1.92,8.3,8.3,0,0,1,1.77,2.67,8.87,8.87,0,0,1,.67,3.56,10,10,0,0,1-1,4.5,9.27,9.27,0,0,1-2.86,3.37,13.79,13.79,0,0,1-4.47,2.09,21.73,21.73,0,0,1-5.78.72H685.45V597.58H702A18.43,18.43,0,0,1,707.22,598.27Zm.55,14.88a6.08,6.08,0,0,0,2.49-5.26A5.64,5.64,0,0,0,708,603.2a10.19,10.19,0,0,0-6.38-1.73H689.85v13.46h11.48A10.82,10.82,0,0,0,707.77,613.15Zm2.11,17.63a6,6,0,0,0,2.55-5.19,5.68,5.68,0,0,0-2.61-5c-1.73-1.18-4.3-1.76-7.71-1.76H689.85v13.79h13A11.72,11.72,0,0,0,709.88,630.78Z"/><path class="cls-2" d="M749.26,636.52,738,621.39H726.84v15.13h-4.39V597.58h16.74a18.85,18.85,0,0,1,5.82.83,13,13,0,0,1,4.42,2.37,10.59,10.59,0,0,1,2.84,3.67,11.21,11.21,0,0,1,1,4.76,11.54,11.54,0,0,1-.78,4.37,10,10,0,0,1-2.2,3.34,12.44,12.44,0,0,1-3.36,2.36,15.73,15.73,0,0,1-4.23,1.34l12,15.9Zm-3-32.85q-2.62-2-7.36-2h-12v15.85h12a13.57,13.57,0,0,0,4-.56,9.69,9.69,0,0,0,3.18-1.59,7.24,7.24,0,0,0,2.09-2.54,7.52,7.52,0,0,0,.75-3.4A6.84,6.84,0,0,0,746.25,603.67Z"/><path class="cls-2" d="M791.32,619.88a22,22,0,0,1-1.17,7.51,14.61,14.61,0,0,1-3.31,5.4,13.69,13.69,0,0,1-5.12,3.26,20.83,20.83,0,0,1-13.24,0,13.84,13.84,0,0,1-5.11-3.23,14.35,14.35,0,0,1-3.31-5.31,21,21,0,0,1-1.17-7.29V597.58h4.39v22.36q0,6.34,3.15,9.74t8.76,3.39a11.5,11.5,0,0,0,8.57-3.23q3.16-3.23,3.17-9.62V597.58h4.39Z"/><path class="cls-2" d="M802.39,609.77a5,5,0,0,0,1.62,2,11.69,11.69,0,0,0,3.22,1.67,39.56,39.56,0,0,0,5.29,1.42q6.51,1.44,9.59,4A8.7,8.7,0,0,1,825.2,626a10.31,10.31,0,0,1-3.71,8.08,12.43,12.43,0,0,1-4.19,2.23,17.8,17.8,0,0,1-5.34.78,23.46,23.46,0,0,1-8.54-1.51,24.16,24.16,0,0,1-7.37-4.67l2.73-3.23a22.68,22.68,0,0,0,6.17,4.15,17.75,17.75,0,0,0,7.18,1.36,10,10,0,0,0,6.31-1.84,5.83,5.83,0,0,0,2.37-4.85,6.49,6.49,0,0,0-.45-2.48,5,5,0,0,0-1.56-2,11,11,0,0,0-3.1-1.62,39.28,39.28,0,0,0-5-1.39,40.23,40.23,0,0,1-5.83-1.67,14.71,14.71,0,0,1-4.1-2.29,8.35,8.35,0,0,1-2.4-3.12,10.51,10.51,0,0,1-.78-4.23,9.71,9.71,0,0,1,1-4.29,9.88,9.88,0,0,1,2.67-3.37,12.94,12.94,0,0,1,4.06-2.23,15.53,15.53,0,0,1,5.12-.81,21.51,21.51,0,0,1,7.48,1.18,22.54,22.54,0,0,1,6.2,3.55l-2.56,3.39a19,19,0,0,0-5.48-3.23,16.84,16.84,0,0,0-5.75-1,11.14,11.14,0,0,0-3.43.5,8.9,8.9,0,0,0-2.61,1.34,5.84,5.84,0,0,0-1.67,2,5.5,5.5,0,0,0-.58,2.5A6.64,6.64,0,0,0,802.39,609.77Z"/><path class="cls-2" d="M834.27,609.77a5.08,5.08,0,0,0,1.61,2,11.91,11.91,0,0,0,3.23,1.67,39.14,39.14,0,0,0,5.29,1.42q6.51,1.44,9.59,4a8.7,8.7,0,0,1,3.09,7.08,10.31,10.31,0,0,1-3.71,8.08,12.43,12.43,0,0,1-4.19,2.23,17.8,17.8,0,0,1-5.34.78,23.42,23.42,0,0,1-8.54-1.51,24,24,0,0,1-7.37-4.67l2.72-3.23a22.87,22.87,0,0,0,6.18,4.15,17.75,17.75,0,0,0,7.18,1.36,10,10,0,0,0,6.31-1.84,5.83,5.83,0,0,0,2.37-4.85,6.49,6.49,0,0,0-.45-2.48,5,5,0,0,0-1.56-2,11,11,0,0,0-3.1-1.62,39.28,39.28,0,0,0-5-1.39,40.23,40.23,0,0,1-5.83-1.67,14.71,14.71,0,0,1-4.1-2.29,8.35,8.35,0,0,1-2.4-3.12,10.51,10.51,0,0,1-.78-4.23,9.71,9.71,0,0,1,1-4.29,9.88,9.88,0,0,1,2.67-3.37,12.94,12.94,0,0,1,4.06-2.23,15.53,15.53,0,0,1,5.12-.81,21.51,21.51,0,0,1,7.48,1.18,22.54,22.54,0,0,1,6.2,3.55l-2.56,3.39a19,19,0,0,0-5.48-3.23,16.85,16.85,0,0,0-5.76-1,11.07,11.07,0,0,0-3.42.5,8.9,8.9,0,0,0-2.61,1.34,5.84,5.84,0,0,0-1.67,2,5.5,5.5,0,0,0-.58,2.5A6.64,6.64,0,0,0,834.27,609.77Z"/><path class="cls-2" d="M891,601.58H867.26v13.3h21.25v4H867.26v13.63h24v4H862.87V597.58H891Z"/><path class="cls-2" d="M897,597.58h4.39v34.88h21.92v4.06H897Z"/><path class="cls-2" d="M932.07,609.77a5,5,0,0,0,1.62,2,11.83,11.83,0,0,0,3.22,1.67,40,40,0,0,0,5.29,1.42q6.51,1.44,9.6,4a8.72,8.72,0,0,1,3.08,7.08,10.44,10.44,0,0,1-1,4.57,10.26,10.26,0,0,1-2.72,3.51A12.33,12.33,0,0,1,947,636.3a17.8,17.8,0,0,1-5.34.78,23.46,23.46,0,0,1-8.54-1.51,24.16,24.16,0,0,1-7.37-4.67l2.73-3.23a23,23,0,0,0,6.17,4.15,17.75,17.75,0,0,0,7.18,1.36,10,10,0,0,0,6.31-1.84,5.83,5.83,0,0,0,2.37-4.85A6.49,6.49,0,0,0,950,624a4.84,4.84,0,0,0-1.56-2,10.77,10.77,0,0,0-3.09-1.62,39.49,39.49,0,0,0-5-1.39,40.6,40.6,0,0,1-5.83-1.67,14.86,14.86,0,0,1-4.1-2.29A8.35,8.35,0,0,1,928,612a10.51,10.51,0,0,1-.78-4.23,9.71,9.71,0,0,1,.95-4.29,9.88,9.88,0,0,1,2.67-3.37,12.94,12.94,0,0,1,4.06-2.23A15.53,15.53,0,0,1,940,597a21.47,21.47,0,0,1,7.48,1.18,22.74,22.74,0,0,1,6.21,3.55l-2.56,3.39a19.28,19.28,0,0,0-5.48-3.23,16.94,16.94,0,0,0-5.76-1,11.07,11.07,0,0,0-3.42.5,9.09,9.09,0,0,0-2.62,1.34,5.84,5.84,0,0,0-1.67,2,5.5,5.5,0,0,0-.58,2.5A6.85,6.85,0,0,0,932.07,609.77Z"/><path class="cls-1" d="M781,385.26l.05,0v-.06Z"/><path class="cls-1" d="M781.08,385.29c-.15,0,.06,0,0,0Z"/><path class="cls-1" d="M849.87,432.06c-3.15-7.82-9.35-14-16.11-18.77a100.06,100.06,0,0,0-19-10.29c-1.2-.5-2.41-1-3.63-1.45,0,.16,0,.31,0,.47A19.71,19.71,0,0,1,808,412.73c1.14.45,2.28.92,3.41,1.41A85.3,85.3,0,0,1,828.75,424c4.68,3.63,9.23,8.07,10.93,13.92a15.42,15.42,0,0,1-2.29,12.65c-3.57,5.44-8.9,9.42-14.37,12.8a98.89,98.89,0,0,1-14,6.93c-1.21.49-2.42,1-3.64,1.42A19.61,19.61,0,0,1,810.8,482c1.15-.45,2.3-.91,3.44-1.38a103.46,103.46,0,0,0,18.62-9.89c6.81-4.69,13.1-10.64,16.54-18.29A25.6,25.6,0,0,0,849.87,432.06Z"/><path class="cls-1" d="M611.7,459.79c-4.65-3.54-9.17-7.82-11.14-13.47a15.32,15.32,0,0,1,2-13.32c3.56-5.48,8.9-9.51,14.41-12.88a92.75,92.75,0,0,1,10.61-5.51c1.12-.5,2.24-1,3.37-1.44a19.68,19.68,0,0,1-2.64-9.85c0-.53,0-1.05.07-1.57-1.24.48-2.48,1-3.71,1.51a89.91,89.91,0,0,0-23.06,13.65c-5.69,4.84-10.57,11-12.53,18.35a26,26,0,0,0,2.57,19.32c4.91,9,13.41,15.35,22.17,20.31a108.12,108.12,0,0,0,11.37,5.49c1.14.48,2.29.94,3.44,1.39A19.67,19.67,0,0,1,634,471.45c-1.22-.46-2.42-.94-3.62-1.43A88.3,88.3,0,0,1,611.7,459.79Z"/><path class="cls-1" d="M795.33,334.51A25.22,25.22,0,0,0,777.7,324c-8.31-1.06-16.64,1.31-24.11,4.81a105.09,105.09,0,0,0-21.11,13.58c-1,.79-2,1.59-2.92,2.41a19.79,19.79,0,0,1,7.48,9c1-.81,1.93-1.62,2.91-2.41a108.38,108.38,0,0,1,11.19-7.95c7.06-4.26,14.9-8.16,23.34-8.05a14.56,14.56,0,0,1,12.65,7.94c3.9,7.33,4.32,15.92,4.1,24.06a107,107,0,0,1-1,11.31c-.18,1.23-.38,2.47-.59,3.7a17.73,17.73,0,0,1,1.79-.09,19.61,19.61,0,0,1,9.67,2.54c.23-1.26.43-2.52.62-3.79a108.79,108.79,0,0,0,1.25-20.64C802.52,351.36,800.7,342,795.33,334.51Z"/><path class="cls-1" d="M801,502.87a19.61,19.61,0,0,1-9.55,2.46c-.56,0-1.1,0-1.65-.07.21,1.23.41,2.46.58,3.7a112.19,112.19,0,0,1,1.14,14.3c0,6.92-.6,14.06-3.57,20.4-1.92,4.2-5.57,7.76-10.17,8.75-6.14,1.35-12.41-.61-18-3A95.57,95.57,0,0,1,740,536.9c-1-.8-2-1.6-2.92-2.42a19.53,19.53,0,0,1-3,5.08l-1.7,1.64a19.83,19.83,0,0,1-2.59,2.1l.11.1c.93.78,1.85,1.55,2.79,2.31l.11.09c.86.69,1.73,1.36,2.6,2l.43.33,1.55,1.16c1,.76,2.08,1.51,3.14,2.24a100.44,100.44,0,0,0,10.29,6.22c7.13,3.69,15,6.51,23.08,6.49a26,26,0,0,0,16.47-5.52c7.59-6.13,10.95-16,12.06-25.38a102.63,102.63,0,0,0-.82-26.72C801.39,505.39,801.17,504.13,801,502.87Z"/><path class="cls-1" d="M638.91,385.83a19.59,19.59,0,0,1,9.12-2.24,18.92,18.92,0,0,1,2.14.12c-.23-1.24-.43-2.47-.62-3.71a94.23,94.23,0,0,1-1-22.13c.57-5.66,1.74-11.53,5.06-16.27a14.36,14.36,0,0,1,10.66-6.14c6.12-.48,12.08,1.65,17.53,4.24a94.39,94.39,0,0,1,16.42,10.43c1,.76,1.95,1.53,2.91,2.32a19.78,19.78,0,0,1,7.9-8.33c-1-.83-2-1.64-3-2.44a117.13,117.13,0,0,0-14.51-9.85c-7-4-14.76-7.12-22.89-7.76a27.13,27.13,0,0,0-17.92,4.47c-7.5,5.23-11.33,14.19-12.85,22.94-1.71,10.16-1.18,20.46.41,30.6Q638.58,384,638.91,385.83Z"/><path class="cls-1" d="M704,540.08a19.5,19.5,0,0,1-3-4.51c-1,.79-1.93,1.57-2.91,2.33a95.28,95.28,0,0,1-15.92,10.16c-5.54,2.68-11.61,4.91-17.87,4.44a14.27,14.27,0,0,1-11.1-6.81c-3.34-5.37-4.34-11.82-4.7-18a100.41,100.41,0,0,1,1.07-19.06c.18-1.24.38-2.47.6-3.71A18.4,18.4,0,0,1,648,505a19.55,19.55,0,0,1-9.38-2.37c-.22,1.26-.43,2.51-.62,3.77a112.13,112.13,0,0,0-1.3,21.27c.45,9.1,2.32,18.56,7.81,26a25.38,25.38,0,0,0,19.07,10.45c10.06.69,19.77-3.18,28.37-8,1.92-1.11,3.81-2.27,5.65-3.49,1.08-.71,2.14-1.45,3.19-2.19,1.73-1.24,3.44-2.51,5.11-3.83l.11-.09c1-.77,1.93-1.54,2.89-2.34l.11-.09a19.65,19.65,0,0,1-3.3-2.39Z"/><path class="cls-2" d="M672.17,496c-.91-.55-1.81-1.11-2.71-1.67a23.08,23.08,0,0,1-5.83,8.21c5.41,3.41,10.93,6.85,16.23,9.9s10.87,6.15,16.34,9a23,23,0,0,1,4.59-9.13C691.39,507.35,681.78,501.85,672.17,496Z"/><path class="cls-2" d="M740.24,511l-3.19,1.72a23.15,23.15,0,0,1,4.24,8.56c11.51-6.22,23.32-13.05,33.52-19.37a23.13,23.13,0,0,1-5.17-8.1C760.28,499.65,750.41,505.42,740.24,511Z"/><path class="cls-2" d="M669.19,393.66c4.68-2.94,9.14-5.65,13.54-8.22,5.69-3.32,11.63-6.63,17.71-9.86a23.09,23.09,0,0,1-4.3-8.95c-11,6-22.31,12.95-32.51,19.44A23.29,23.29,0,0,1,669.19,393.66Z"/><path class="cls-2" d="M787.7,462.64a22.8,22.8,0,0,1,3.7-.3,23.35,23.35,0,0,1,6.06.81c.15-4.84.23-9.9.23-15.1,0-7.69-.17-15.57-.49-23.51a23.19,23.19,0,0,1-9.53.44c.25,7.24.37,13.24.37,18.85,0,1.69,0,3.39,0,5.08C787.94,453.94,787.85,458.36,787.7,462.64Z"/><path class="cls-2" d="M753,383.87c5.47,3.15,11,6.51,16.64,10a23.31,23.31,0,0,1,5.32-8.28c-9.25-5.68-20.49-12-33.54-18.88a23.25,23.25,0,0,1-4,8.54C742.76,378.13,748,381,753,383.87Z"/><path class="cls-2" d="M648,426.58a23.3,23.3,0,0,1-7-1.08c-.21,7.35-.41,16-.41,24.76,0,4.64,0,8.9.16,12.92A23.06,23.06,0,0,1,648,462a23.91,23.91,0,0,1,2.67.16c-.17-4.58-.3-9.62-.3-14.73,0-1.43,0-2.88,0-4.2s0-2.77,0-4.17c0-4.1.09-8.12.23-12.64A22.53,22.53,0,0,1,648,426.58Z"/><circle class="cls-2" cx="718.78" cy="361.27" r="19.73"/><path class="cls-2" d="M746.21,443.84a27.43,27.43,0,1,0-34,26.64l-.43,5.6L708,506.48a23.16,23.16,0,0,1,21.63.06l-4.28-30.46v-5.62A27.43,27.43,0,0,0,746.21,443.84Z"/><circle class="cls-2" cx="718.78" cy="527.09" r="19.73"/><circle class="cls-2" cx="791.4" cy="402.02" r="19.73" transform="translate(117.13 979.33) rotate(-67.5)"/><circle class="cls-2" cx="791.4" cy="485.61" r="19.73" transform="translate(-125.59 339.82) rotate(-22.5)"/><circle class="cls-2" cx="648.03" cy="403.32" r="19.73" transform="translate(146.12 978.38) rotate(-80.78)"/><circle class="cls-2" cx="648.03" cy="485.28" r="19.73" transform="translate(-48.3 898.27) rotate(-67.5)"/><path class="cls-2" d="M724.93,413.49V383.68a23.12,23.12,0,0,1-6.15.85,22.68,22.68,0,0,1-5.3-.64v29.47a29.9,29.9,0,0,1,11.45.13Z"/><path class="cls-2" d="M670.08,410.7a23.35,23.35,0,0,1-6.23,9.63l25.31,14.49a30.82,30.82,0,0,1,5.34-10.14Z"/><path class="cls-2" d="M774,470.21,747.6,455.09a31.07,31.07,0,0,1-6.09,9.71l27.24,15.59A23.2,23.2,0,0,1,774,470.21Z"/><path class="cls-2" d="M769,408.09l-27,15.24a30.92,30.92,0,0,1,5.88,9.83l26.79-15.1A23.2,23.2,0,0,1,769,408.09Z"/><path class="cls-2" d="M669.8,477.14l24.81-14a31,31,0,0,1-5.4-10.11l-26,14.66A23.37,23.37,0,0,1,669.8,477.14Z"/><path class="cls-2" d="M736.51,552.2a64.92,64.92,0,0,1-6.43-4.81,23,23,0,0,1-21.85.4,48.62,48.62,0,0,1-6.78,5l.55,2-1.79,13.08h13.42V554.81h3.16v2H721v-2h3.16v13.08h13.5l-2-13.08Z"/></svg>