<?xml version="1.0" encoding="UTF-8" standalone="no"?>
<!DOCTYPE svg PUBLIC "-//W3C//DTD SVG 1.1//EN" "http://www.w3.org/Graphics/SVG/1.1/DTD/svg11.dtd">
<svg width="100%" height="100%" viewBox="0 0 156 141" version="1.1" xmlns="http://www.w3.org/2000/svg" xmlns:xlink="http://www.w3.org/1999/xlink" xml:space="preserve" xmlns:serif="http://www.serif.com/" style="fill-rule:evenodd;clip-rule:evenodd;stroke-linejoin:round;stroke-miterlimit:1.41421;">
    <g>
        <path d="M147.959,70.65C147.959,60.966 136.273,52.407 118.375,47.188C122.798,29.103 121.216,14.718 112.817,9.876C104.417,5.035 91.15,10.859 77.674,23.726C64.199,10.859 50.932,5.035 42.532,9.876C34.133,14.718 32.551,29.103 36.974,47.188C19.076,52.407 7.389,60.966 7.389,70.65C7.389,80.334 19.076,88.894 36.974,94.112C32.551,112.197 34.133,126.582 42.532,131.423C50.932,136.265 64.199,130.44 77.674,117.573C91.15,130.44 104.417,136.265 112.817,131.423C121.216,126.582 122.798,112.197 118.375,94.112C136.273,88.894 147.959,80.334 147.959,70.65" style="fill:white;"/>
        <g transform="matrix(1,0,0,1,0,0.3)">
            <path d="M77.674,107.064L82.782,111.941C91.581,120.344 103.577,127.932 109.122,124.733C114.668,121.537 114.085,107.371 111.196,95.561L109.52,88.706L116.304,86.729C127.991,83.322 140.57,76.743 140.57,70.35C140.57,63.957 127.991,57.378 116.304,53.97L109.52,51.993L111.196,45.138C114.085,33.329 114.668,19.163 109.122,15.967C103.577,12.771 91.581,20.356 82.781,28.759L77.674,33.635L72.568,28.759C63.768,20.356 51.772,12.769 46.226,15.967C40.681,19.162 41.265,33.328 44.153,45.138L45.829,51.993L39.046,53.97C27.358,57.378 14.779,63.957 14.779,70.35C14.779,76.743 27.358,83.322 39.046,86.729L45.829,88.706L44.153,95.561C41.265,107.372 40.681,121.537 46.226,124.733C51.772,127.93 63.768,120.344 72.567,111.941L77.674,107.064ZM106.195,140.18C97.771,140.18 87.936,135.734 77.674,127.175C62.85,139.539 48.915,143.32 38.837,137.513C28.76,131.704 25.073,117.763 28.386,98.762C10.249,92.127 0,81.968 0,70.35C0,58.732 10.249,48.573 28.386,41.938C25.073,22.937 28.76,8.996 38.837,3.187C48.915,-2.621 62.85,1.161 77.674,13.525C92.499,1.161 106.434,-2.621 116.512,3.187C126.589,8.996 130.276,22.937 126.963,41.938C145.1,48.574 155.349,58.732 155.349,70.35C155.349,81.968 145.1,92.127 126.963,98.762C130.276,117.762 126.589,131.704 116.512,137.513C113.41,139.301 109.942,140.179 106.195,140.18Z" style="fill:white;"/>
        </g>
        <path d="M49.317,10.626C47.238,10.626 45.372,11.079 43.763,12.006C37.042,15.881 35.232,27.799 38.793,44.128C45.373,42.374 52.532,41.091 60.127,40.304C64.606,34.131 69.298,28.583 74.11,23.769C64.689,15.216 55.929,10.626 49.317,10.626ZM35.192,50.27L34.581,47.772C29.657,27.636 32.106,13.048 41.3,7.747C50.496,2.446 64.373,7.623 79.377,21.949L81.238,23.727L79.377,25.504C73.9,30.734 68.552,36.98 63.482,44.069L62.831,44.98L61.715,45.088C53.03,45.928 44.938,47.429 37.664,49.549L35.192,50.27ZM81.239,117.53C93.621,128.774 104.864,133.167 111.585,129.293C118.307,125.419 120.117,113.5 116.556,97.172C109.976,98.926 102.817,100.21 95.222,100.996C90.743,107.169 86.05,112.718 81.239,117.53M106.086,135.586C97.642,135.586 87.117,129.993 75.972,119.35L74.111,117.573L75.972,115.796C81.449,110.566 86.797,104.32 91.867,97.23L92.519,96.32L93.634,96.212C102.319,95.372 110.411,93.871 117.685,91.75L120.157,91.03L120.768,93.528C125.692,113.664 123.244,128.253 114.048,133.553C111.684,134.916 109.01,135.586 106.086,135.586" style="fill:rgb(35,44,61);"/>
        <path d="M38.794,97.172C35.232,113.501 37.042,125.419 43.764,129.294C50.485,133.168 61.727,128.774 74.11,117.53C69.298,112.716 64.606,107.169 60.127,100.996C52.532,100.209 45.374,98.926 38.794,97.172M49.262,135.586C46.338,135.586 43.666,134.916 41.3,133.553C32.105,128.253 29.657,113.664 34.582,93.528L35.193,91.029L37.665,91.751C44.938,93.871 53.03,95.372 61.715,96.212L62.831,96.319L63.483,97.231C68.552,104.319 73.9,110.566 79.377,115.796L81.238,117.573L79.377,119.351C68.233,129.992 57.707,135.586 49.262,135.586M95.222,40.304C102.817,41.091 109.976,42.374 116.556,44.128C120.118,27.799 118.306,15.881 111.585,12.006C104.865,8.133 93.621,12.526 81.239,23.77C86.051,28.583 90.743,34.131 95.222,40.304ZM120.157,50.27L117.685,49.549C110.411,47.428 102.319,45.927 93.634,45.088L92.518,44.98L91.867,44.069C86.797,36.98 81.449,30.734 75.972,25.504L74.111,23.726L75.972,21.949C90.976,7.623 104.854,2.447 114.048,7.747C123.243,13.047 125.693,27.636 120.768,47.772L120.157,50.27Z" style="fill:rgb(35,44,61);"/>
        <path d="M91.867,44.069C87.323,37.716 82.557,32.041 77.674,27.166C72.792,32.041 68.025,37.717 63.482,44.069L59.473,41.211C64.721,33.872 70.272,27.392 75.972,21.949L77.674,20.324L79.377,21.949C85.076,27.391 90.627,33.872 95.876,41.211L91.867,44.069ZM77.674,120.976L75.972,119.351C70.273,113.908 64.722,107.428 59.473,100.089L63.483,97.231C68.025,103.583 72.792,109.259 77.674,114.133C82.556,109.259 87.323,103.583 91.867,97.231L95.876,100.089C90.627,107.428 85.076,113.908 79.376,119.351L77.674,120.976ZM112.77,70.65C115.885,77.61 118.351,84.441 120.12,91.008C136.064,85.923 145.496,78.399 145.496,70.65C145.496,62.901 136.064,55.377 120.12,50.292C118.351,56.859 115.885,63.69 112.77,70.65ZM116.594,97.192L115.982,94.695C114.185,87.344 111.44,79.598 107.826,71.669L107.362,70.65L107.826,69.631C111.44,61.702 114.185,53.955 115.982,46.605L116.594,44.108L119.066,44.827C138.994,50.638 150.423,60.05 150.423,70.65C150.423,81.251 138.994,90.663 119.066,96.473L116.594,97.192ZM35.229,50.292C19.285,55.377 9.853,62.901 9.853,70.65C9.853,78.399 19.285,85.924 35.229,91.008C36.999,84.44 39.464,77.609 42.579,70.65C39.464,63.691 36.999,56.86 35.229,50.292ZM38.756,97.192L36.284,96.472C16.356,90.663 4.927,81.251 4.927,70.65C4.927,60.05 16.356,50.638 36.284,44.827L38.756,44.108L39.367,46.605C41.165,53.957 43.909,61.704 47.523,69.631L47.987,70.65L47.523,71.669C43.909,79.596 41.165,87.343 39.367,94.695L38.756,97.192Z" style="fill:rgb(35,44,61);"/>
        <path d="M43.039,71.669C39.298,63.462 36.453,55.422 34.581,47.772L34.022,45.487L36.283,44.828C43.852,42.621 52.249,41.062 61.24,40.193L61.716,45.088C53.932,45.84 46.625,47.124 39.958,48.909C41.744,55.568 44.285,62.527 47.523,69.632L43.039,71.669ZM94.109,101.107L93.634,96.212C101.417,95.459 108.723,94.176 115.391,92.392C113.605,85.733 111.065,78.774 107.826,71.669L112.31,69.632C116.051,77.839 118.897,85.879 120.767,93.528L121.327,95.813L119.065,96.472C111.497,98.679 103.1,100.238 94.109,101.107" style="fill:rgb(35,44,61);"/>
        <path d="M112.31,71.669L107.826,69.632C111.065,62.526 113.605,55.567 115.391,48.909C108.723,47.124 101.417,45.84 93.634,45.088L94.109,40.193C103.1,41.062 111.497,42.621 119.065,44.828L121.327,45.487L120.768,47.772C118.897,55.421 116.051,63.46 112.31,71.669M61.241,101.107C52.249,100.238 43.852,98.679 36.284,96.472L34.023,95.813L34.582,93.528C36.452,85.878 39.298,77.838 43.039,69.632L47.522,71.669C44.285,78.773 41.745,85.732 39.958,92.392C46.626,94.176 53.932,95.459 61.715,96.212L61.241,101.107Z" style="fill:rgb(35,44,61);"/>
        <path d="M47.599,88.988C50.005,93.545 53.15,98.575 57.048,104.112C64.183,114.247 71.433,122.567 71.504,122.646L73.343,124.752C74.434,126.002 76.014,126.72 77.675,126.72C79.336,126.72 80.915,126.002 82.006,124.752L83.862,122.627C83.916,122.567 91.167,114.247 98.302,104.112C102.146,98.652 105.257,93.683 107.651,89.175" style="fill:white;"/>
        <path d="M105.494,69.975C105.494,85.315 77.675,117.163 77.675,117.163C77.675,117.163 49.855,85.315 49.855,69.975C49.855,54.635 62.31,42.199 77.675,42.199C93.039,42.199 105.494,54.635 105.494,69.975" style="fill:rgb(251,142,130);"/>
        <path d="M77.675,44.658C63.693,44.658 52.318,56.015 52.318,69.975C52.318,80.932 69.174,103.259 77.675,113.377C86.174,103.256 103.031,80.925 103.031,69.975C103.031,56.015 91.656,44.658 77.675,44.658ZM77.675,120.905L75.818,118.779C75.748,118.699 68.698,110.607 61.749,100.736C52.223,87.203 47.392,76.853 47.392,69.975C47.392,53.303 60.977,39.74 77.675,39.74C94.372,39.74 107.957,53.303 107.957,69.975C107.957,76.853 103.126,87.203 93.6,100.736C86.651,110.607 79.602,118.699 79.531,118.779L77.675,120.905Z" style="fill:rgb(35,44,61);"/>
        <path d="M77.675,60.081C83.294,60.081 87.849,64.629 87.849,70.24C87.849,75.85 83.294,80.399 77.675,80.399C72.055,80.399 67.5,75.85 67.5,70.24C67.5,64.629 72.055,60.081 77.675,60.081" style="fill:white;"/>
        <path d="M77.675,62.541C73.422,62.541 69.963,65.994 69.963,70.24C69.963,74.486 73.422,77.939 77.675,77.939C81.927,77.939 85.386,74.486 85.386,70.24C85.386,65.994 81.927,62.541 77.675,62.541M77.675,82.858C70.706,82.858 65.037,77.197 65.037,70.24C65.037,63.283 70.706,57.622 77.675,57.622C84.643,57.622 90.312,63.283 90.312,70.24C90.312,77.197 84.643,82.858 77.675,82.858" style="fill:rgb(35,44,61);"/>
    </g>
</svg>
