<?xml version="1.0" encoding="UTF-8" standalone="no"?><!DOCTYPE svg PUBLIC "-//W3C//DTD SVG 1.1//EN" "http://www.w3.org/Graphics/SVG/1.1/DTD/svg11.dtd"><svg width="100%" height="100%" viewBox="0 0 1589 549" version="1.1" xmlns="http://www.w3.org/2000/svg" xmlns:xlink="http://www.w3.org/1999/xlink" xml:space="preserve" xmlns:serif="http://www.serif.com/" style="fill-rule:evenodd;clip-rule:evenodd;stroke-linejoin:round;stroke-miterlimit:1.41421;"><g id="Warstwa-1" serif:id="Warstwa 1"><path d="M333.909,320.631l-15.474,0c-1.059,0 -1.587,0.53 -1.587,1.588l0,34.201c0,1.059 0.528,1.587 1.587,1.587l15.474,0c4.972,0 9.336,-1.852 13.093,-5.555c3.756,-3.702 5.606,-8.094 5.554,-13.172c0.052,-5.08 -1.773,-9.47 -5.476,-13.173c-3.703,-3.702 -8.092,-5.527 -13.171,-5.476m-5.555,52.85l-9.919,0c-1.059,0 -1.587,0.528 -1.587,1.587l0,40.628c0,0.899 -0.317,1.666 -0.952,2.3c-0.635,0.636 -1.402,0.953 -2.301,0.953l-8.967,0c-0.846,0 -1.587,-0.317 -2.222,-0.953c-0.634,-0.634 -0.979,-1.401 -1.032,-2.3l0,-107.284c0,-0.846 0.318,-1.587 0.952,-2.223c0.636,-0.634 1.402,-0.977 2.302,-1.032l29.281,0c9.416,0 17.457,3.334 24.123,9.999c6.665,6.666 9.998,14.708 9.998,24.124c0,6.083 -1.535,11.691 -4.602,16.822c-3.07,5.133 -7.169,9.232 -12.3,12.299c-3.015,1.746 -3.941,3.81 -2.777,6.189l19.203,39.52c0.634,1.217 0.661,2.328 0.079,3.332c-0.583,1.005 -1.64,1.507 -3.174,1.507l-9.126,0c-2.062,0 -3.623,-1.083 -4.681,-3.253l-19.203,-40.311c-0.635,-1.27 -1.666,-1.904 -3.095,-1.904" style="fill:#e94f51;fill-rule:nonzero;"/><path d="M402.945,367.604c0,1.01 0.528,1.54 1.587,1.59l33.804,0c1.057,0 1.613,-0.528 1.667,-1.59c0,-5.202 -1.546,-9.319 -4.633,-12.352c-3.089,-3.029 -7.443,-4.546 -13.062,-4.546c-5.62,0 -10.266,1.591 -13.938,4.773c-3.617,3.234 -5.425,7.275 -5.425,12.125m-0.317,17.064c0,7.142 1.751,12.486 5.256,16.029c3.503,3.492 7.869,5.239 13.097,5.239c5.228,0 9.483,-0.953 12.764,-2.858c3.17,-1.904 5.256,-4.364 6.258,-7.38c0.485,-1.851 1.63,-2.777 3.43,-2.777l7.664,0c2.019,0 2.871,1.085 2.554,3.254c-0.945,7.142 -4.327,12.987 -10.147,17.536c-5.822,4.552 -13.136,6.824 -21.948,6.824c-9.398,0 -17.111,-2.961 -23.142,-8.888c-6.03,-5.924 -9.337,-12.96 -9.919,-21.106c-0.582,-8.147 -0.582,-16.294 0,-24.441c0.582,-8.147 3.915,-15.209 9.999,-21.188c6.083,-5.871 14.188,-8.808 24.315,-8.808c10.126,0 17.945,2.911 23.455,8.729c5.559,5.821 8.339,13.728 8.339,23.727l0,11.189c0,0.846 -0.332,1.586 -0.995,2.221c-0.665,0.636 -1.466,0.98 -2.406,1.032l-46.922,0c-1.102,0.053 -1.652,0.609 -1.652,1.666" style="fill:#e94f51;fill-rule:nonzero;"/><path d="M527.05,383.161l-21.107,0c-8.148,0 -12.221,3.707 -12.221,11.118c0,3.967 1.242,7.049 3.73,9.24c2.486,2.193 6.082,3.263 10.792,3.21c7.246,0 12.458,-1.383 15.632,-4.151c3.174,-2.765 4.787,-6.994 4.84,-12.683l0,-5.089c-0.053,-1.097 -0.608,-1.645 -1.666,-1.645m-14.759,-33.248c-9.947,0 -14.998,3.108 -15.157,9.326c0,1.876 -1.271,2.814 -3.813,2.814l-7.462,0c-2.217,0 -3.326,-1.194 -3.326,-3.586c0,-6.933 3.068,-12.405 9.204,-16.42c6.189,-3.961 13.305,-5.942 21.347,-5.942c8.04,0 15.076,2.169 21.104,6.507c6.028,4.338 9.071,10.819 9.129,19.441l0,53.643c-0.059,0.899 -0.435,1.666 -1.13,2.3c-0.696,0.636 -1.506,0.953 -2.434,0.953l-6.084,0c-0.928,0 -1.621,-0.241 -2.085,-0.724c-0.464,-0.484 -1.014,-1.236 -1.651,-2.256c-0.696,-1.018 -1.389,-1.555 -2.079,-1.61c-0.743,0 -1.884,0.509 -3.423,1.524c-4.709,3.102 -9.946,4.652 -15.711,4.652c-9.523,0 -16.85,-2.512 -21.981,-7.541c-5.078,-5.026 -7.617,-11.176 -7.617,-18.45c0,-7.272 2.407,-13.289 7.22,-18.049c4.814,-4.76 11.348,-7.142 19.601,-7.142l19.836,0c1.059,0 1.588,-0.543 1.588,-1.633l0,-5.288c0,-4.197 -1.402,-7.333 -4.206,-9.409c-2.804,-2.073 -6.426,-3.11 -10.87,-3.11" style="fill:#e94f51;fill-rule:nonzero;"/><path d="M599.974,405.936c5.079,0 9.178,-1.271 12.3,-3.81c3.067,-2.539 4.602,-5.765 4.602,-9.68c0,-1.852 1.014,-2.778 3.045,-2.778l8.354,0c0.833,0.054 1.561,0.396 2.186,1.032c0.625,0.634 0.964,1.377 1.016,2.221c0,7.935 -2.941,14.522 -8.82,19.759c-5.882,5.237 -13.416,7.855 -22.603,7.855c-9.205,0 -16.718,-2.908 -22.537,-8.728c-5.819,-5.818 -9.019,-12.855 -9.601,-21.107c-0.583,-8.253 -0.583,-16.506 0,-24.759c0.582,-8.252 3.782,-15.286 9.601,-21.108c5.819,-5.818 13.332,-8.728 22.537,-8.728c9.205,0 16.755,2.619 22.655,7.855c5.845,5.239 8.768,11.824 8.768,19.761c0,2.169 -0.911,3.253 -2.733,3.253l-8.665,0c-2.03,0 -3.044,-0.873 -3.044,-2.619c0,-3.915 -1.535,-7.168 -4.602,-9.76c-3.069,-2.592 -7.196,-3.889 -12.379,-3.889c-5.185,0 -9.312,1.56 -12.379,4.682c-3.122,3.122 -4.868,6.983 -5.238,11.586c-0.529,7.565 -0.529,15.129 0,22.694c0.318,4.497 2.064,8.331 5.238,11.506c3.174,3.174 7.273,4.762 12.299,4.762" style="fill:#e94f51;fill-rule:nonzero;"/><path d="M688.054,354.752l0,39.835c0,3.016 1.084,5.661 3.253,7.935c2.169,2.275 4.867,3.414 8.095,3.414c3.226,0 5.951,-1.139 8.173,-3.414c2.168,-2.274 3.252,-4.919 3.252,-7.935c0,-0.897 0.319,-1.666 0.953,-2.3c0.635,-0.635 1.401,-0.953 2.301,-0.953l8.094,0c0.9,0 1.666,0.318 2.301,0.953c0.635,0.634 0.953,1.403 0.953,2.3c0,7.142 -2.54,13.253 -7.618,18.331c-5.079,5.078 -11.216,7.617 -18.409,7.617c-7.196,0 -13.306,-2.539 -18.33,-7.617c-5.08,-5.078 -7.619,-11.189 -7.619,-18.331l0,-39.835c0,-1.057 -0.555,-1.587 -1.667,-1.587l-16.266,0c-0.847,-0.051 -1.587,-0.394 -2.222,-1.025c-0.635,-0.631 -0.979,-1.368 -1.032,-2.211l0,-8.129c0,-0.841 0.318,-1.578 0.953,-2.209c0.634,-0.631 1.401,-0.972 2.301,-1.027l16.266,0c1.059,0 1.614,-0.528 1.667,-1.59l0,-25.302c0,-0.848 0.318,-1.59 0.953,-2.228c0.634,-0.635 1.4,-0.98 2.3,-1.033l8.094,0c0.846,0.053 1.588,0.398 2.222,1.033c0.635,0.638 0.979,1.38 1.032,2.228l0,25.302c0,1.062 0.528,1.59 1.587,1.59l26.028,0c0.898,0 1.666,0.316 2.3,0.947c0.635,0.633 0.953,1.397 0.953,2.289l0,8.129c0,0.843 -0.318,1.58 -0.953,2.211c-0.634,0.631 -1.402,0.974 -2.3,1.025l-26.028,0c-1.059,0 -1.587,0.53 -1.587,1.587" style="fill:#e94f51;fill-rule:nonzero;"/><path d="M891.43,308.411l0,107.284c0,0.9 -0.316,1.666 -0.946,2.3c-0.63,0.637 -1.392,0.953 -2.284,0.953l-13.391,0c-1.629,0 -2.757,-0.924 -3.387,-2.777l-32.044,-80.463c-0.212,-0.318 -0.478,-0.448 -0.795,-0.397c-0.319,0.053 -0.505,0.318 -0.557,0.793l0,79.591c0,0.9 -0.314,1.666 -0.942,2.3c-0.628,0.637 -1.36,0.953 -2.197,0.953l-8.243,0c-0.838,0 -1.596,-0.316 -2.277,-0.953c-0.628,-0.634 -0.942,-1.4 -0.942,-2.3l0,-107.284c0,-0.846 0.316,-1.587 0.945,-2.223c0.63,-0.634 1.393,-0.977 2.286,-1.031l13.39,0c1.628,0 2.758,0.927 3.387,2.777l32.124,80.145c0.211,0.318 0.476,0.451 0.795,0.398c0.317,-0.051 0.477,-0.29 0.477,-0.714l0,-79.352c0,-0.846 0.314,-1.587 0.941,-2.223c0.627,-0.634 1.388,-0.977 2.278,-1.031l8.163,0c0.838,0 1.57,0.317 2.199,0.952c0.627,0.636 0.968,1.403 1.02,2.302" style="fill:#e94f51;fill-rule:nonzero;"/><path d="M963.8,383.161l-21.108,0c-8.147,0 -12.22,3.707 -12.22,11.118c0,3.967 1.242,7.049 3.73,9.24c2.486,2.193 6.082,3.263 10.791,3.21c7.247,0 12.458,-1.383 15.633,-4.151c3.174,-2.765 4.787,-6.994 4.84,-12.683l0,-5.089c-0.053,-1.097 -0.609,-1.645 -1.666,-1.645m-14.759,-33.248c-9.947,0 -14.998,3.108 -15.158,9.326c0,1.876 -1.27,2.814 -3.812,2.814l-7.462,0c-2.218,0 -3.326,-1.194 -3.326,-3.586c0,-6.933 3.068,-12.405 9.204,-16.42c6.189,-3.961 13.305,-5.942 21.347,-5.942c8.04,0 15.075,2.169 21.103,6.507c6.029,4.338 9.072,10.819 9.129,19.441l0,53.643c-0.058,0.899 -0.434,1.666 -1.129,2.3c-0.696,0.636 -1.507,0.953 -2.434,0.953l-6.084,0c-0.928,0 -1.621,-0.241 -2.085,-0.724c-0.464,-0.484 -1.014,-1.236 -1.652,-2.256c-0.695,-1.018 -1.388,-1.555 -2.078,-1.61c-0.743,0 -1.884,0.509 -3.424,1.524c-4.708,3.102 -9.945,4.652 -15.71,4.652c-9.523,0 -16.851,-2.512 -21.981,-7.541c-5.078,-5.026 -7.617,-11.176 -7.617,-18.45c0,-7.272 2.406,-13.289 7.22,-18.049c4.813,-4.76 11.347,-7.142 19.6,-7.142l19.837,0c1.059,0 1.588,-0.543 1.588,-1.633l0,-5.288c0,-4.197 -1.402,-7.333 -4.206,-9.409c-2.804,-2.073 -6.427,-3.11 -10.87,-3.11" style="fill:#e94f51;fill-rule:nonzero;"/><path d="M1035.45,354.752l0,39.835c0,3.016 1.084,5.661 3.253,7.935c2.169,2.275 4.867,3.414 8.094,3.414c3.227,0 5.952,-1.139 8.174,-3.414c2.167,-2.274 3.252,-4.919 3.252,-7.935c0,-0.897 0.318,-1.666 0.953,-2.3c0.635,-0.635 1.401,-0.953 2.301,-0.953l8.094,0c0.9,0 1.666,0.318 2.301,0.953c0.635,0.634 0.953,1.403 0.953,2.3c0,7.142 -2.54,13.253 -7.618,18.331c-5.079,5.078 -11.216,7.617 -18.41,7.617c-7.195,0 -13.305,-2.539 -18.33,-7.617c-5.079,-5.078 -7.618,-11.189 -7.618,-18.331l0,-39.835c0,-1.057 -0.555,-1.587 -1.667,-1.587l-16.266,0c-0.847,-0.051 -1.588,-0.394 -2.222,-1.025c-0.635,-0.631 -0.979,-1.368 -1.032,-2.211l0,-8.129c0,-0.841 0.318,-1.578 0.953,-2.209c0.634,-0.631 1.401,-0.972 2.301,-1.027l16.266,0c1.059,0 1.614,-0.528 1.667,-1.59l0,-25.302c0,-0.848 0.318,-1.59 0.953,-2.228c0.634,-0.635 1.4,-0.98 2.3,-1.033l8.094,0c0.846,0.053 1.587,0.398 2.222,1.033c0.635,0.638 0.979,1.38 1.032,2.228l0,25.302c0,1.062 0.528,1.59 1.587,1.59l26.028,0c0.898,0 1.666,0.316 2.3,0.947c0.635,0.633 0.952,1.397 0.952,2.289l0,8.129c0,0.843 -0.317,1.58 -0.952,2.211c-0.634,0.631 -1.402,0.974 -2.3,1.025l-26.028,0c-1.059,0 -1.587,0.53 -1.587,1.587" style="fill:#e94f51;fill-rule:nonzero;"/><path d="M1136.86,306.513l0,10.54c0,1.645 -0.856,2.468 -2.568,2.468l-10.813,0c-1.713,0 -2.568,-0.823 -2.568,-2.468l0,-10.54c0,-0.646 0.233,-1.221 0.7,-1.719c0.467,-0.499 1.089,-0.747 1.868,-0.747l10.813,0c0.727,0 1.349,0.248 1.869,0.747c0.519,0.498 0.751,1.073 0.699,1.719m-16.764,44.986l-19.933,0c-0.858,0 -1.634,-0.318 -2.331,-0.952c-0.644,-0.635 -0.965,-1.402 -0.965,-2.301l0,-7.3c0,-0.9 0.318,-1.667 0.952,-2.303c0.635,-0.634 1.401,-0.952 2.302,-0.952l33.01,0c0.846,0 1.587,0.318 2.222,0.952c0.634,0.636 0.951,1.403 0.951,2.303l0,62.528c0,1.06 0.563,1.615 1.688,1.668l20.888,0c0.91,0 1.687,0.316 2.329,0.952c0.642,0.634 0.964,1.401 0.964,2.301l0,7.3c0,0.9 -0.32,1.666 -0.957,2.3c-0.637,0.637 -1.408,0.953 -2.311,0.953l-60.436,0c-0.85,0 -1.595,-0.316 -2.232,-0.953c-0.638,-0.634 -0.984,-1.4 -1.036,-2.3l0,-7.3c0,-0.9 0.321,-1.667 0.963,-2.301c0.642,-0.636 1.42,-0.952 2.33,-0.952l21.604,0c1.071,0 1.606,-0.557 1.606,-1.668l0,-50.309c0,-1.111 -0.536,-1.666 -1.608,-1.666" style="fill:#e94f51;fill-rule:nonzero;"/><path d="M1238.04,337.692l10.077,0c1.217,0 2.116,0.397 2.698,1.19c0.582,0.794 0.715,1.64 0.397,2.539l-28.646,75.068c-0.634,1.64 -1.639,2.46 -3.015,2.46l-8.967,0c-1.428,0 -2.459,-0.82 -3.094,-2.46l-28.805,-75.068c-0.317,-0.793 -0.158,-1.613 0.476,-2.459c0.635,-0.846 1.508,-1.27 2.618,-1.27l10.078,0c1.534,0 2.566,0.821 3.095,2.461l18.886,54.118c0.264,0.528 0.66,0.794 1.19,0.794c0.528,0 0.899,-0.266 1.111,-0.794l18.806,-54.118c0.529,-1.64 1.56,-2.461 3.095,-2.461" style="fill:#e94f51;fill-rule:nonzero;"/><path d="M1286.44,367.604c0,1.01 0.528,1.54 1.588,1.59l33.803,0c1.057,0 1.613,-0.528 1.667,-1.59c0,-5.202 -1.545,-9.319 -4.633,-12.352c-3.089,-3.029 -7.443,-4.546 -13.062,-4.546c-5.619,0 -10.266,1.591 -13.938,4.773c-3.617,3.234 -5.425,7.275 -5.425,12.125m-0.317,17.064c0,7.142 1.752,12.486 5.256,16.029c3.504,3.492 7.87,5.239 13.097,5.239c5.228,0 9.483,-0.953 12.765,-2.858c3.169,-1.904 5.255,-4.364 6.257,-7.38c0.485,-1.851 1.63,-2.777 3.43,-2.777l7.664,0c2.02,0 2.871,1.085 2.554,3.254c-0.945,7.142 -4.327,12.987 -10.147,17.536c-5.822,4.552 -13.136,6.824 -21.947,6.824c-9.398,0 -17.112,-2.961 -23.142,-8.888c-6.031,-5.924 -9.337,-12.96 -9.919,-21.106c-0.583,-8.147 -0.583,-16.294 0,-24.441c0.582,-8.147 3.914,-15.209 9.998,-21.188c6.083,-5.871 14.188,-8.808 24.315,-8.808c10.126,0 17.945,2.911 23.455,8.729c5.559,5.821 8.339,13.728 8.339,23.727l0,11.189c0,0.846 -0.332,1.586 -0.995,2.221c-0.665,0.636 -1.466,0.98 -2.406,1.032l-46.921,0c-1.102,0.053 -1.653,0.609 -1.653,1.666" style="fill:#e94f51;fill-rule:nonzero;"/><path d="M1451.17,322.214l0,29.209c0,1.057 0.528,1.611 1.587,1.663l38.564,0c0.846,0 1.588,0.319 2.223,0.957c0.634,0.639 0.978,1.409 1.031,2.314l0,8.932c-0.053,0.853 -0.397,1.596 -1.031,2.234c-0.635,0.639 -1.377,0.985 -2.223,1.037l-38.564,0c-1.059,0 -1.587,0.556 -1.587,1.666l0,31.662c0,1.058 0.528,1.586 1.587,1.586l40.628,0c0.846,0.055 1.587,0.398 2.222,1.032c0.634,0.636 0.978,1.376 1.031,2.223l0,8.966c0,0.9 -0.317,1.666 -0.952,2.301c-0.635,0.636 -1.402,0.952 -2.301,0.952l-54.435,0c-0.847,0 -1.614,-0.316 -2.301,-0.952c-0.635,-0.635 -0.953,-1.401 -0.953,-2.301l0,-107.284c0,-0.846 0.318,-1.587 0.953,-2.222c0.635,-0.635 1.4,-0.977 2.301,-1.032l54.117,0c0.846,0 1.588,0.318 2.222,0.952c0.635,0.636 0.979,1.403 1.032,2.302l0,8.967c0,0.846 -0.318,1.586 -0.953,2.221c-0.634,0.636 -1.402,0.98 -2.301,1.032l-40.31,0c-1.059,0 -1.587,0.528 -1.587,1.583" style="fill:#e94f51;fill-rule:nonzero;"/><path d="M1531.24,308.408l0,77.941c0,6.08 2.063,10.653 6.19,13.717c4.073,3.12 9.125,4.679 15.156,4.679c6.03,0 11.029,-1.771 14.997,-5.312c3.968,-3.541 5.924,-7.903 5.872,-13.084l0,-77.941c0.052,-0.845 0.397,-1.583 1.032,-2.219c0.635,-0.635 1.375,-0.977 2.222,-1.032l8.967,0c0.899,0 1.666,0.318 2.301,0.952c0.634,0.636 0.952,1.403 0.952,2.302l0,78.003c0,9.629 -3.598,17.67 -10.792,24.124c-7.195,6.454 -15.923,9.681 -26.186,9.681c-10.264,0 -18.859,-3.175 -25.789,-9.523c-6.931,-6.349 -10.395,-14.443 -10.395,-24.282l0,-78.003c0,-0.846 0.317,-1.586 0.952,-2.222c0.634,-0.635 1.401,-0.977 2.301,-1.032l8.967,0c0.846,0 1.587,0.318 2.222,0.952c0.634,0.636 0.978,1.402 1.031,2.299" style="fill:#e94f51;fill-rule:nonzero;"/><path d="M317.027,252.605c2.374,0 4.388,-0.656 6.042,-1.968c1.653,-1.313 2.48,-3.112 2.48,-5.396c0,-1.482 0.436,-2.211 1.308,-2.191l3.573,0c0.362,0 0.67,0.128 0.926,0.381c0.254,0.254 0.382,0.562 0.382,0.921c0,3.986 -1.328,7.392 -3.985,10.212c-2.657,2.821 -6.084,4.23 -10.281,4.23c-4.197,0 -7.622,-1.206 -10.271,-3.619c-2.628,-2.433 -4.194,-5.734 -4.699,-9.902c-0.336,-2.645 -0.515,-5.904 -0.536,-9.777c0,-3.872 0.179,-7.11 0.538,-9.713c0.421,-3.766 1.94,-6.961 4.556,-9.585c2.616,-2.623 6.012,-3.937 10.19,-3.937c4.224,0 7.695,1.301 10.412,3.896c2.717,2.597 4.076,6.103 4.076,10.515c0,0.348 -0.128,0.651 -0.382,0.911c-0.256,0.26 -0.564,0.401 -0.926,0.422l-3.573,0c-0.362,0 -0.67,-0.127 -0.925,-0.382c-0.256,-0.254 -0.383,-0.562 -0.383,-0.923c0,-2.357 -0.721,-4.321 -2.162,-5.893c-1.442,-1.57 -3.403,-2.356 -5.883,-2.356c-2.48,0 -4.505,0.635 -6.074,1.904c-1.569,1.292 -2.512,3.185 -2.829,5.683c-0.298,2.497 -0.446,5.661 -0.446,9.49c0,3.809 0.138,6.898 0.414,9.268c0.275,2.37 1.166,4.265 2.67,5.683c1.506,1.417 3.435,2.126 5.788,2.126" style="fill:#1d1d1b;fill-rule:nonzero;"/><path d="M352.338,253.08c2.159,0 3.915,-0.623 5.269,-1.871c1.334,-1.249 2.074,-2.795 2.222,-4.636c0.211,-3.026 0.211,-6.05 0,-9.078c-0.106,-1.797 -0.836,-3.332 -2.19,-4.602c-1.354,-1.269 -3.111,-1.903 -5.269,-1.903c-2.158,0 -3.915,0.624 -5.269,1.871c-1.355,1.249 -2.095,2.794 -2.222,4.634c-0.212,3.028 -0.212,6.052 0,9.078c0.127,1.82 0.857,3.365 2.19,4.636c1.354,1.248 3.111,1.871 5.269,1.871m-9.3,-24.376c2.433,-2.37 5.534,-3.556 9.3,-3.556c3.766,0 6.867,1.186 9.3,3.556c2.433,2.37 3.767,5.184 3.999,8.442c0.233,3.259 0.233,6.518 0,9.776c-0.232,3.26 -1.566,6.085 -3.999,8.475c-2.433,2.349 -5.534,3.525 -9.3,3.525c-3.766,0 -6.867,-1.186 -9.3,-3.556c-2.433,-2.37 -3.767,-5.184 -3.999,-8.444c-0.233,-3.258 -0.233,-6.517 0,-9.776c0.232,-3.258 1.566,-6.072 3.999,-8.442" style="fill:#1d1d1b;fill-rule:nonzero;"/><path d="M382.014,227.275c0.423,0 1.271,-0.359 2.54,-1.078c1.269,-0.721 2.772,-1.068 4.507,-1.048c3.47,0 6.39,1.164 8.76,3.491c2.37,2.328 3.566,5.28 3.587,8.855l0,19.489c0,0.361 -0.127,0.667 -0.381,0.921c-0.254,0.255 -0.561,0.381 -0.921,0.381l-3.237,0c-0.339,0 -0.646,-0.126 -0.92,-0.381c-0.255,-0.254 -0.381,-0.56 -0.381,-0.921l0,-19.489c0,-1.883 -0.689,-3.438 -2.063,-4.665c-1.377,-1.227 -3.079,-1.84 -5.111,-1.84c-2.052,0 -3.755,0.559 -5.109,1.681c-1.355,1.123 -2.032,2.613 -2.032,4.475l0,19.838c0,0.361 -0.128,0.667 -0.381,0.921c-0.254,0.255 -0.562,0.381 -0.921,0.381l-3.238,0c-0.338,0 -0.645,-0.126 -0.92,-0.381c-0.254,-0.254 -0.381,-0.56 -0.381,-0.921l0,-29.899c0,-0.36 0.127,-0.666 0.381,-0.921c0.255,-0.254 0.561,-0.381 0.92,-0.381l2.857,0c0.297,0 0.603,0.149 0.921,0.445c0.592,0.697 1.1,1.047 1.523,1.047" style="fill:#1d1d1b;fill-rule:nonzero;"/><path d="M419.025,231.973l-8.126,0c-0.339,-0.021 -0.635,-0.159 -0.889,-0.411c-0.254,-0.252 -0.392,-0.547 -0.412,-0.884l0,-3.251c0,-0.337 0.126,-0.631 0.381,-0.885c0.253,-0.252 0.56,-0.389 0.92,-0.411l8.126,0c0.422,0 0.634,-0.21 0.634,-0.631l0,-0.98c0,-3.46 1.154,-6.358 3.46,-8.693c2.306,-2.334 5.163,-3.502 8.57,-3.502l3.904,0c0.338,0 0.635,0.128 0.889,0.384c0.253,0.257 0.391,0.569 0.413,0.931l0,3.083c0,0.364 -0.127,0.674 -0.382,0.93c-0.254,0.257 -0.56,0.384 -0.92,0.384l-3.904,0c-1.693,0 -3.143,0.655 -4.349,1.961c-1.206,1.307 -1.819,2.814 -1.84,4.522l0,0.98c0,0.421 0.222,0.631 0.666,0.631l10.538,0c0.338,0 0.635,0.128 0.888,0.38c0.255,0.253 0.392,0.558 0.413,0.916l0,3.251c0,0.337 -0.127,0.632 -0.38,0.884c-0.254,0.252 -0.561,0.39 -0.921,0.411l-10.538,0c-0.424,0 -0.645,0.21 -0.666,0.634l0,24.376c0,0.362 -0.128,0.668 -0.381,0.921c-0.255,0.255 -0.562,0.381 -0.921,0.381l-3.237,0c-0.339,0 -0.646,-0.126 -0.921,-0.381c-0.253,-0.253 -0.381,-0.559 -0.381,-0.921l0,-24.376c0,-0.424 -0.212,-0.634 -0.634,-0.634" style="fill:#1d1d1b;fill-rule:nonzero;"/><path d="M452.416,237.748c0,0.404 0.211,0.616 0.635,0.636l13.521,0c0.424,0 0.646,-0.212 0.667,-0.636c0,-2.082 -0.618,-3.728 -1.852,-4.94c-1.236,-1.213 -2.978,-1.819 -5.226,-1.819c-2.248,0 -4.106,0.636 -5.576,1.908c-1.446,1.294 -2.169,2.912 -2.169,4.851m-0.126,6.826c0,2.857 0.7,4.995 2.102,6.411c1.401,1.397 3.148,2.095 5.238,2.095c2.091,0 3.794,-0.381 5.106,-1.143c1.268,-0.762 2.102,-1.746 2.503,-2.951c0.195,-0.741 0.653,-1.112 1.372,-1.112l3.066,0c0.808,0 1.149,0.434 1.022,1.302c-0.379,2.857 -1.732,5.196 -4.059,7.014c-2.329,1.82 -5.255,2.731 -8.779,2.731c-3.759,0 -6.844,-1.186 -9.257,-3.556c-2.412,-2.37 -3.735,-5.183 -3.967,-8.443c-0.234,-3.258 -0.234,-6.517 0,-9.777c0.232,-3.257 1.565,-6.083 3.999,-8.475c2.432,-2.348 5.675,-3.522 9.726,-3.522c4.05,0 7.178,1.164 9.381,3.491c2.225,2.329 3.337,5.492 3.337,9.492l0,4.475c0,0.338 -0.134,0.634 -0.399,0.888c-0.265,0.254 -0.586,0.392 -0.962,0.414l-18.769,0c-0.44,0.02 -0.66,0.243 -0.66,0.666" style="fill:#1d1d1b;fill-rule:nonzero;"/><path d="M504.28,236.195c0,-1.524 -0.615,-2.772 -1.842,-3.747c-1.227,-0.972 -2.814,-1.459 -4.761,-1.459c-1.967,0 -3.724,0.57 -5.269,1.713c-1.544,1.143 -2.317,2.625 -2.317,4.444l0,19.838c0,0.361 -0.126,0.667 -0.381,0.92c-0.253,0.255 -0.56,0.381 -0.92,0.381l-3.238,0c-0.338,0 -0.645,-0.126 -0.919,-0.381c-0.255,-0.253 -0.382,-0.559 -0.382,-0.92l0,-29.9c0,-0.359 0.127,-0.666 0.382,-0.921c0.253,-0.253 0.559,-0.381 0.919,-0.381l2.857,0c0.296,0 0.603,0.149 0.92,0.446c0.614,0.697 1.132,1.047 1.556,1.047c0.423,0 1.344,-0.36 2.761,-1.079c1.418,-0.72 3.054,-1.068 4.907,-1.048c3.203,0 5.941,1.058 8.217,3.175c2.276,2.115 3.392,4.74 3.35,7.872c0,0.338 -0.126,0.634 -0.377,0.888c-0.251,0.253 -0.555,0.392 -0.911,0.412l-3.265,0c-0.356,-0.02 -0.66,-0.159 -0.911,-0.412c-0.251,-0.254 -0.376,-0.55 -0.376,-0.888" style="fill:#1d1d1b;fill-rule:nonzero;"/><path d="M523.895,237.748c0,0.404 0.211,0.616 0.635,0.636l13.521,0c0.424,0 0.646,-0.212 0.667,-0.636c0,-2.082 -0.617,-3.728 -1.852,-4.94c-1.236,-1.213 -2.978,-1.819 -5.226,-1.819c-2.248,0 -4.106,0.636 -5.576,1.908c-1.446,1.294 -2.169,2.912 -2.169,4.851m-0.126,6.826c0,2.857 0.7,4.995 2.102,6.411c1.401,1.397 3.148,2.095 5.238,2.095c2.092,0 3.794,-0.381 5.107,-1.143c1.267,-0.762 2.101,-1.746 2.502,-2.951c0.195,-0.741 0.653,-1.112 1.372,-1.112l3.066,0c0.808,0 1.149,0.434 1.022,1.302c-0.379,2.857 -1.732,5.196 -4.059,7.014c-2.329,1.82 -5.255,2.731 -8.779,2.731c-3.759,0 -6.844,-1.186 -9.257,-3.556c-2.412,-2.37 -3.734,-5.183 -3.967,-8.443c-0.234,-3.258 -0.234,-6.517 0,-9.777c0.233,-3.257 1.565,-6.083 3.999,-8.475c2.432,-2.348 5.675,-3.522 9.726,-3.522c4.05,0 7.178,1.164 9.381,3.491c2.225,2.329 3.337,5.492 3.337,9.492l0,4.475c0,0.338 -0.134,0.634 -0.398,0.888c-0.266,0.254 -0.587,0.392 -0.963,0.414l-18.769,0c-0.44,0.02 -0.66,0.243 -0.66,0.666" style="fill:#1d1d1b;fill-rule:nonzero;"/><path d="M560.715,227.275c0.423,0 1.27,-0.359 2.54,-1.078c1.269,-0.721 2.772,-1.068 4.507,-1.048c3.47,0 6.39,1.164 8.76,3.491c2.37,2.328 3.566,5.28 3.587,8.855l0,19.489c0,0.361 -0.127,0.667 -0.381,0.921c-0.254,0.255 -0.561,0.381 -0.921,0.381l-3.237,0c-0.339,0 -0.646,-0.126 -0.92,-0.381c-0.255,-0.254 -0.381,-0.56 -0.381,-0.921l0,-19.489c0,-1.883 -0.689,-3.438 -2.063,-4.665c-1.377,-1.227 -3.079,-1.84 -5.111,-1.84c-2.052,0 -3.756,0.559 -5.11,1.681c-1.354,1.123 -2.031,2.613 -2.031,4.475l0,19.838c0,0.361 -0.128,0.667 -0.381,0.921c-0.254,0.255 -0.562,0.381 -0.921,0.381l-3.238,0c-0.339,0 -0.645,-0.126 -0.92,-0.381c-0.254,-0.254 -0.381,-0.56 -0.381,-0.921l0,-29.899c0,-0.36 0.127,-0.666 0.381,-0.921c0.254,-0.254 0.561,-0.381 0.92,-0.381l2.857,0c0.297,0 0.603,0.149 0.921,0.445c0.592,0.697 1.1,1.047 1.523,1.047" style="fill:#1d1d1b;fill-rule:nonzero;"/><path d="M602.708,253.08c2.031,0 3.671,-0.507 4.92,-1.523c1.227,-1.016 1.841,-2.306 1.841,-3.873c0,-0.74 0.406,-1.111 1.218,-1.111l3.342,0c0.333,0.022 0.624,0.159 0.874,0.414c0.25,0.253 0.386,0.55 0.406,0.888c0,3.175 -1.177,5.808 -3.528,7.903c-2.352,2.095 -5.366,3.144 -9.041,3.144c-3.682,0 -6.687,-1.165 -9.014,-3.493c-2.329,-2.328 -3.609,-5.141 -3.841,-8.442c-0.233,-3.303 -0.233,-6.603 0,-9.904c0.232,-3.301 1.512,-6.115 3.841,-8.443c2.327,-2.328 5.332,-3.492 9.014,-3.492c3.682,0 6.702,1.049 9.062,3.144c2.338,2.093 3.507,4.728 3.507,7.903c0,0.868 -0.364,1.3 -1.093,1.3l-3.466,0c-0.812,0 -1.218,-0.349 -1.218,-1.046c0,-1.566 -0.613,-2.868 -1.841,-3.904c-1.227,-1.037 -2.877,-1.555 -4.951,-1.555c-2.074,0 -3.724,0.624 -4.952,1.871c-1.248,1.249 -1.947,2.794 -2.094,4.634c-0.212,3.028 -0.212,6.052 0,9.078c0.127,1.8 0.825,3.334 2.094,4.603c1.27,1.27 2.909,1.904 4.92,1.904" style="fill:#1d1d1b;fill-rule:nonzero;"/><path d="M631.115,237.748c0,0.404 0.211,0.616 0.635,0.636l13.521,0c0.424,0 0.646,-0.212 0.667,-0.636c0,-2.082 -0.618,-3.728 -1.852,-4.94c-1.236,-1.213 -2.978,-1.819 -5.226,-1.819c-2.248,0 -4.106,0.636 -5.576,1.908c-1.446,1.294 -2.169,2.912 -2.169,4.851m-0.126,6.826c0,2.857 0.7,4.995 2.102,6.411c1.401,1.397 3.148,2.095 5.238,2.095c2.092,0 3.794,-0.381 5.106,-1.143c1.268,-0.762 2.102,-1.746 2.503,-2.951c0.195,-0.741 0.653,-1.112 1.372,-1.112l3.066,0c0.808,0 1.149,0.434 1.022,1.302c-0.379,2.857 -1.732,5.196 -4.059,7.014c-2.329,1.82 -5.255,2.731 -8.779,2.731c-3.759,0 -6.844,-1.186 -9.257,-3.556c-2.412,-2.37 -3.735,-5.183 -3.967,-8.443c-0.234,-3.258 -0.234,-6.517 0,-9.777c0.232,-3.257 1.565,-6.083 3.999,-8.475c2.432,-2.348 5.675,-3.522 9.726,-3.522c4.05,0 7.178,1.164 9.381,3.491c2.225,2.329 3.337,5.492 3.337,9.492l0,4.475c0,0.338 -0.134,0.634 -0.398,0.888c-0.266,0.254 -0.587,0.392 -0.963,0.414l-18.769,0c-0.44,0.02 -0.66,0.243 -0.66,0.666" style="fill:#1d1d1b;fill-rule:nonzero;"/><path d="M715.895,224.684c0,-1.865 -0.615,-3.423 -1.845,-4.674c-1.231,-1.272 -2.726,-1.908 -4.487,-1.908c-1.782,0 -3.31,0.656 -4.583,1.968c-1.272,1.311 -1.919,2.845 -1.939,4.602l0,0.984c0,0.338 -0.125,0.634 -0.374,0.888c-0.249,0.255 -0.548,0.392 -0.9,0.414l-3.294,0c-0.849,0 -1.273,-0.434 -1.273,-1.302l0,-0.984c0,-3.449 1.174,-6.379 3.525,-8.792c2.349,-2.412 5.263,-3.619 8.743,-3.619c3.478,0 6.393,1.197 8.742,3.59c2.351,2.394 3.525,5.338 3.525,8.833c0,4.727 -1.668,9.01 -5.006,12.847l-12.257,13.992c-0.17,0.212 -0.201,0.435 -0.095,0.667c0.106,0.234 0.318,0.361 0.636,0.383l16.466,0c0.827,0 1.24,0.429 1.24,1.287l0,3.138c0,0.858 -0.433,1.287 -1.298,1.287l-23.462,0c-0.339,0 -0.644,-0.126 -0.919,-0.377c-0.253,-0.252 -0.379,-0.555 -0.379,-0.913l0,-4.185c0,-0.692 0.2,-1.228 0.601,-1.605l14.592,-16.95c2.694,-3.074 4.041,-6.263 4.041,-9.571" style="fill:#1d1d1b;fill-rule:nonzero;"/><path d="M736.811,235.528c0,3.746 0.159,6.845 0.478,9.299c0.296,2.457 1.123,4.424 2.48,5.905c1.356,1.481 3.201,2.223 5.533,2.223c2.332,0 4.208,-0.678 5.629,-2.032c1.44,-1.353 2.341,-3.323 2.702,-5.905c0.361,-2.559 0.551,-5.724 0.573,-9.49c0,-3.745 -0.17,-6.845 -0.51,-9.3c-0.339,-2.454 -1.186,-4.412 -2.543,-5.873c-1.314,-1.459 -3.137,-2.199 -5.469,-2.221c-2.332,-0.021 -4.229,0.656 -5.692,2.031c-1.484,1.376 -2.386,3.334 -2.703,5.873c-0.319,2.539 -0.478,5.702 -0.478,9.49m8.522,-23.267c3.986,0 7.225,1.208 9.717,3.62c2.493,2.413 4.008,5.713 4.544,9.902c0.3,2.688 0.451,5.935 0.451,9.745c0,3.809 -0.149,7.057 -0.448,9.745c-0.428,3.851 -1.86,7.067 -4.296,9.649c-2.436,2.582 -5.674,3.873 -9.714,3.873c-3.973,0 -7.186,-1.206 -9.638,-3.62c-2.452,-2.411 -3.931,-5.713 -4.438,-9.902c-0.339,-2.645 -0.519,-5.904 -0.539,-9.777c0.02,-3.872 0.2,-7.11 0.537,-9.713c0.485,-3.851 1.908,-7.067 4.271,-9.65c2.384,-2.58 5.569,-3.872 9.553,-3.872" style="fill:#1d1d1b;fill-rule:nonzero;"/><path d="M780.392,251.906l0,-29.28c0.021,-0.171 -0.052,-0.297 -0.219,-0.383c-0.167,-0.085 -0.293,-0.053 -0.376,0.096l-9.169,10.363c-0.209,0.255 -0.48,0.34 -0.814,0.255c-0.333,-0.084 -0.51,-0.318 -0.531,-0.699l0,-5.088c0,-0.783 0.433,-1.673 1.301,-2.67l9.363,-11.126c0.381,-0.383 0.815,-0.583 1.302,-0.604l4.03,0c0.339,0 0.635,0.127 0.89,0.381c0.253,0.255 0.39,0.561 0.412,0.922l0,37.833c0,0.424 0.218,0.646 0.656,0.667l7.65,0c0.354,0 0.655,0.126 0.905,0.376c0.249,0.252 0.374,0.555 0.374,0.911l0,3.139c0,0.356 -0.127,0.659 -0.38,0.91c-0.254,0.25 -0.561,0.376 -0.92,0.376l-24.695,0c-0.339,0 -0.646,-0.126 -0.921,-0.376c-0.253,-0.251 -0.38,-0.554 -0.38,-0.91l0,-3.139c0,-0.356 0.127,-0.659 0.38,-0.911c0.255,-0.25 0.561,-0.376 0.921,-0.376l9.554,0c0.444,-0.021 0.667,-0.243 0.667,-0.667" style="fill:#1d1d1b;fill-rule:nonzero;"/><path d="M811.449,234.085c1.265,1.406 2.937,2.11 5.014,2.11c2.079,0 3.733,-0.639 4.962,-1.918c1.929,-1.939 2.693,-4.922 2.29,-8.951c-0.254,-2.087 -1.018,-3.815 -2.29,-5.178c-1.273,-1.364 -2.926,-2.045 -4.962,-2.045c-2.035,0 -3.706,0.681 -5.014,2.045c-1.961,2.089 -2.72,4.987 -2.276,8.695c0.252,2.087 1.01,3.834 2.276,5.242m5.237,18.87c5.555,0 8.333,-4.386 8.333,-13.158c0,-0.289 -0.117,-0.475 -0.35,-0.558c-0.233,-0.082 -0.509,-0.021 -0.826,0.186c-2.206,1.741 -4.676,2.61 -7.412,2.61c-3.604,0 -6.666,-1.285 -9.184,-3.856c-3.153,-3.203 -4.539,-7.459 -4.158,-12.769c0.212,-3.708 1.576,-6.827 4.095,-9.356c2.517,-2.527 5.611,-3.793 9.279,-3.793c3.668,0 6.787,1.277 9.357,3.831c2.568,2.554 4.095,5.774 4.578,9.658c0.308,2.679 0.462,5.914 0.462,9.702c0,3.787 -0.155,7.033 -0.462,9.738c-0.44,3.874 -1.923,7.11 -4.45,9.707c-2.528,2.599 -5.583,3.897 -9.167,3.897c-3.583,0 -6.672,-1.206 -9.265,-3.619c-2.593,-2.411 -3.89,-5.342 -3.89,-8.793c0.021,-0.337 0.154,-0.634 0.402,-0.887c0.246,-0.254 0.535,-0.391 0.865,-0.412l3.306,0c0.329,0 0.618,0.126 0.866,0.38c0.247,0.254 0.38,0.56 0.402,0.919c0,1.652 0.741,3.165 2.225,4.54c1.506,1.355 3.171,2.033 4.994,2.033" style="fill:#1d1d1b;fill-rule:nonzero;"/><path d="M264.463,177.134c-28.512,10.685 -66.49,16.582 -106.938,16.604l-0.257,0c-89.075,0 -148.923,-27.465 -148.934,-53.118c-0.013,-13.269 15.362,-26.648 42.183,-36.704c28.5,-10.685 66.478,-16.582 106.938,-16.605l0.258,0c89.058,0 148.909,27.465 148.934,53.116c0,13.277 -15.376,26.655 -42.184,36.707m2.964,-81.116c-29.37,-10.988 -68.335,-17.039 -109.714,-17.039l-0.267,0c-41.432,0.022 -80.447,6.108 -109.857,17.138c-30.698,11.509 -47.599,27.317 -47.589,44.512c0.011,17.164 16.899,32.937 47.554,44.414c29.379,10.981 68.344,17.028 109.714,17.028l0.266,0c41.432,-0.022 80.447,-6.108 109.858,-17.139c30.697,-11.513 47.598,-27.317 47.588,-44.5c-0.011,-17.171 -16.899,-32.944 -47.553,-44.414" style="fill:#e94f51;fill-rule:nonzero;"/><path d="M232.386,269.511c-2.932,1.705 -6.376,2.542 -10.247,2.542c-11.271,0.001 -26.17,-7.104 -42.664,-20.62c-23.537,-19.297 -47.69,-49.195 -68.009,-84.187l-0.155,-0.278c-44.651,-77.002 -50.907,-142.553 -28.717,-155.428c11.475,-6.661 30.762,-0.071 52.91,18.077c23.537,19.297 47.69,49.195 68.01,84.187l0.139,0.252c44.655,77.043 50.91,142.579 28.733,155.455m-21.652,-159.85c-20.817,-35.859 -45.655,-66.564 -69.957,-86.49c-18.125,-14.861 -34.616,-22.518 -47.974,-22.518c-5.325,0 -10.149,1.215 -14.385,3.675c-14.853,8.626 -20.032,31.15 -14.581,63.423c5.23,30.908 19.541,67.648 40.296,103.451l0.144,0.253c20.786,35.794 45.619,66.494 69.914,86.426c25.353,20.776 47.506,27.469 62.371,18.841c14.856,-8.628 20.031,-31.147 14.57,-63.411c-5.216,-30.904 -19.523,-67.648 -40.285,-103.462l-0.113,-0.188Z" style="fill:#e94f51;fill-rule:nonzero;"/><path d="M231.052,10.778c11.543,6.549 15.586,26.523 11.093,54.8c-4.779,30.049 -18.405,65.986 -38.367,101.194l-0.123,0.224c-38.452,67.722 -84.141,105.653 -109.932,105.653c-3.703,0 -6.995,-0.782 -9.797,-2.37c-11.545,-6.55 -15.588,-26.524 -11.095,-54.801c4.796,-30.091 18.422,-66.029 38.367,-101.195l0.103,-0.186c44.002,-77.499 97.434,-115.98 119.751,-103.319m-126.955,99.122l-0.098,0.188c-20.479,36.107 -34.45,73.038 -39.387,104.08c-5.153,32.385 0.247,54.885 15.204,63.358c14.935,8.472 36.987,1.573 62.098,-19.419c24.043,-20.111 48.545,-51.007 68.99,-86.996l0.073,-0.143c20.495,-36.134 34.466,-73.069 39.387,-104.089c5.153,-32.379 -0.247,-54.876 -15.204,-63.349c-14.934,-8.472 -36.988,-1.574 -62.099,19.419c-24.052,20.12 -48.544,51 -68.964,86.951" style="fill:#e94f51;fill-rule:nonzero;"/><path d="M165.957,169.386c0,0 0.822,2.022 -1.133,2.022c-1.945,0 -4.355,-3.111 -4.355,-3.111c0,0 5.455,2.845 5.488,1.089m-15.81,2.022c-1.944,0 -1.133,-2.022 -1.133,-2.022c0.044,1.756 5.488,-1.089 5.488,-1.089c0,0 -2.411,3.111 -4.355,3.111m42.441,-33.875c0,0 -0.311,-2.578 -6.143,-5.455c0,0 5.521,0.933 5.599,-2.656c0,0 -2.955,1.722 -5.766,0.467c0,0 5.222,-0.856 6.31,-3.344c0,0 -1.244,-1.012 -3.733,-1.789c0,0 2.178,-0.389 2.256,-3.744c0,0 -2.878,2.722 -5.844,2.488c0,0 3.978,-2.099 5.299,-4.277c0,0 -2.099,-0.934 -4.91,-0.622c0,0 2.033,-1.322 1.244,-4.055c0,0 -1.866,2.733 -4.977,3.821c0,0 3.577,-2.655 4.122,-6.077c0,0 -3.889,0.078 -5.989,1.633c0,0 2.489,-2.255 2.367,-4.788c0,0 -7.944,0.7 -13.555,6.655c-5.599,5.966 -4.2,12.277 0,11.81c0,0 0.356,3.378 -4.556,3.378c-0.055,-2.256 -1.033,-3.267 -1.033,-3.267c0.389,0.311 1.011,-0.156 1.011,-0.156c-1.788,-1.244 -1.322,-5.221 -1.322,-5.221c0.389,0.311 0.945,0.233 0.945,0.233c-1.3,-1.711 -0.089,-6.233 -0.011,-7.866c0.077,-1.633 -0.778,-1.944 -0.778,-1.944c0.622,-0.467 0.778,-2.1 0.778,-2.1c-0.545,0.466 -1.867,0.389 -1.867,0.389c0.778,-0.622 0.311,-2.578 0.311,-2.578c-0.155,0.933 -1.166,1.4 -1.166,1.4c-0.311,-2.411 2.255,-6.378 2.255,-6.378c-1.011,0.156 -3.733,1.167 -3.733,1.167c-0.7,-1.244 -2.211,-2.733 -2.211,-2.733c-0.889,0.7 -2.544,3.045 -2.544,3.045c-0.934,-0.778 -3.589,-1.479 -3.589,-1.479c1.411,1.634 2.344,5.645 2.344,5.645c-1.244,0.11 -1.477,1.755 -1.477,1.755c-4.133,1.011 -1.567,3.966 -1.567,3.966c0,0 0.311,-0.622 0.7,-0.855c1.1,-0.656 1.7,0.233 1.811,0.433c-0.1,0.056 -0.356,0.245 -0.944,0.734c-1.333,1.089 -2.967,0 -2.967,0c0.234,2.577 3.122,1.166 5.222,1.011c2.1,-0.156 2.567,1.411 2.644,3.277c0.078,1.867 -3.266,4.044 -3.266,4.044c0.622,0.078 1.166,0 1.166,0c-0.777,2.578 -4.399,3.667 -4.399,3.667c0.277,0.544 0.966,0.778 0.966,0.778c-1.244,1.399 -0.933,3.033 -0.933,3.033c-4.9,0 -4.555,-3.378 -4.555,-3.378c4.21,0.467 5.61,-5.844 0,-11.81c-5.611,-5.955 -13.555,-6.655 -13.555,-6.655c-0.111,2.533 2.378,4.788 2.378,4.788c-2.1,-1.555 -6,-1.633 -6,-1.633c0.545,3.422 4.133,6.077 4.133,6.077c-3.122,-1.088 -4.988,-3.821 -4.988,-3.821c-0.778,2.733 1.244,4.055 1.244,4.055c-2.8,-0.312 -4.9,0.622 -4.9,0.622c1.322,2.178 5.289,4.277 5.289,4.277c-2.955,0.234 -5.833,-2.488 -5.833,-2.488c0.078,3.344 2.255,3.744 2.255,3.744c-2.488,0.777 -3.744,1.789 -3.744,1.789c1.089,2.488 6.311,3.344 6.311,3.344c-2.8,1.255 -5.766,-0.467 -5.766,-0.467c0.077,3.589 5.61,2.656 5.61,2.656c-5.844,2.877 -6.155,5.455 -6.155,5.455c0.933,0.777 7.944,-0.478 7.944,-0.478c-6.455,4.522 -7.944,3.9 -7.944,3.9c3.044,3.811 8.255,-0.856 8.255,-0.856c-4.666,4.977 -3.966,10.899 -3.966,10.899c4.833,-0.855 8.955,-7.321 8.955,-7.321c-0.623,4.833 -6.466,10.755 -6.466,10.755c3.899,0.622 7.943,-6.7 7.943,-6.7c-1.244,3.655 0,9.344 0,9.344c5.456,-3.733 6.855,-10.977 6.855,-10.977c0,2.333 -1.477,7.01 -1.477,7.01c2.189,-0.155 3.433,-4.91 3.433,-4.91c3.344,-2.334 3.578,-7.789 3.578,-7.789c2.344,0.467 3.899,-0.388 3.899,-0.388c0.389,0.077 0.856,1.788 0.856,1.788c0,0 -0.545,-1.011 -2.733,-0.544c-2.178,0.467 -2.256,3.433 -2.567,4.989c-0.311,1.555 -2.878,3.422 -2.878,3.422l1.012,-0.078c-0.234,0.622 -1.634,2.021 -1.634,2.021l0.778,0.079c-0.467,0.699 -2.267,1.644 -2.267,1.644l1.178,0c-0.555,0.7 -1.878,1.478 -1.878,1.478c1.012,0.933 3.2,1.088 3.2,1.088c-0.311,1.167 -2.066,2.1 -2.066,2.1l0.822,0.078c-0.478,0.4 -2.5,1.644 -2.5,1.644l1.244,0.078c-0.622,0.7 -2.955,1.711 -2.955,1.711l1.322,0.078c-0.7,0.933 -2.41,1.244 -2.41,1.244l0.855,0.389c-1.4,1.322 -5.688,-0.077 -5.688,-0.077c-2.023,-1.712 -3.423,1.244 -3.423,1.244c-1.022,1.877 0.389,2.655 0.389,2.655c0,-1.167 1.167,-1.333 1.167,-1.333c0.778,0.166 2.022,-0.467 2.022,-0.467l1.478,0.156l-1.478,1.011c-3.655,-0.534 -2.689,2.966 -2.689,2.966c0.667,2.255 2.689,1.789 2.689,1.789c-0.933,-0.855 -0.155,-1.867 -0.155,-1.867c0.777,-0.233 0.699,-1.321 0.699,-1.321c0.389,-0.545 2.112,-0.623 2.112,-0.623l-0.401,1.089c0,0 -0.777,-0.078 -1.322,0.544c-1.2,1.378 0,3.034 0,3.034c0.467,1.799 3.278,0.944 3.278,0.944c-1.167,-0.4 -1.089,-1.567 -1.089,-1.567c1.089,-0.777 0.467,-2.488 0.467,-2.488c1.089,-0.311 1.866,-1.711 2.255,-2.023c0.389,-0.311 1.866,0 1.866,0c-0.155,1.712 0.856,1.712 0.856,1.712c0,0.699 -0.856,1.477 -0.856,1.477c2.023,0.545 2.656,-1.477 2.656,-1.477c2.411,-3.9 -2.5,-3.434 -2.5,-3.434l6.544,-7.944c1.011,1.334 2.889,1.556 2.889,1.556c-0.622,-0.7 -0.789,-2.489 -0.789,-2.489l1.022,0.311c-0.145,-4.621 2.255,-7.01 2.255,-7.01c0.622,3.2 -1.866,8.488 -1.866,8.488c0.855,0 1.944,-0.856 1.944,-0.856c-0.311,5.378 -4.6,4.134 -4.6,4.134c-0.155,4.044 3.978,2.488 3.978,2.488c0,0 -1.478,2.422 -3.744,2.345c-2.256,-0.089 -1.478,-2.267 -1.478,-2.267c-4.522,1.478 -1.166,5.3 -1.166,5.3c0,0 -3.311,3.088 -0.156,4.922c4.289,2.477 7.944,-2.667 7.944,-2.667c-1.011,4.6 1.611,7.633 1.611,7.633c0,0 2.622,-3.033 1.611,-7.633c0,0 3.655,5.144 7.944,2.667c3.155,-1.834 -0.155,-4.922 -0.155,-4.922c0,0 3.343,-3.822 -1.167,-5.3c0,0 0.777,2.178 -1.489,2.267c-2.256,0.077 -3.733,-2.345 -3.733,-2.345c0,0 4.122,1.556 3.966,-2.488c0,0 -4.277,1.244 -4.588,-4.134c0,0 1.089,0.856 1.944,0.856c0,0 -2.489,-5.288 -1.867,-8.488c0,0 2.4,2.389 2.256,7.01l1.011,-0.311c0,0 -0.156,1.789 -0.778,2.489c0,0 1.866,-0.222 2.889,-1.556l6.533,7.944c0,0 -4.9,-0.466 -2.489,3.434c0,0 0.622,2.022 2.644,1.477c0,0 -0.855,-0.778 -0.855,-1.477c0,0 1.011,0 0.855,-1.712c0,0 1.489,-0.311 1.878,0c0.389,0.312 1.166,1.712 2.255,2.023c0,0 -0.622,1.711 0.467,2.488c0,0 0.078,1.167 -1.089,1.567c0,0 2.8,0.855 3.267,-0.944c0,0 1.211,-1.656 0,-3.034c-0.545,-0.622 -1.323,-0.544 -1.323,-0.544l-0.388,-1.089c0,0 1.711,0.078 2.099,0.623c0,0 -0.066,1.088 0.711,1.321c0,0 0.778,1.012 -0.155,1.867c0,0 2.022,0.466 2.678,-1.789c0,0 0.977,-3.5 -2.678,-2.966l-1.489,-1.011l1.489,-0.156c0,0 1.244,0.633 2.022,0.467c0,0 1.167,0.166 1.167,1.333c0,0 1.399,-0.778 0.389,-2.655c0,0 -1.4,-2.956 -3.423,-1.244c0,0 -4.288,1.399 -5.688,0.077l0.855,-0.389c0,0 -1.711,-0.311 -2.422,-1.244l1.333,-0.078c0,0 -2.344,-1.011 -2.966,-1.711l1.245,-0.078c0,0 -2.023,-1.244 -2.489,-1.644l0.822,-0.078c0,0 -1.756,-0.933 -2.067,-2.1c0,0 2.178,-0.155 3.189,-1.088c0,0 -1.322,-0.778 -1.866,-1.478l1.166,0c0,0 -1.788,-0.945 -2.255,-1.644l0.778,-0.079c0,0 -1.4,-1.399 -1.634,-2.021l1.012,0.078c0,0 -2.567,-1.867 -2.878,-3.422c-0.311,-1.556 -0.4,-4.522 -2.578,-4.989c-2.177,-0.467 -2.722,0.544 -2.722,0.544c0,0 0.467,-1.711 0.856,-1.788c0,0 1.555,0.855 3.888,0.388c0,0 0.245,5.455 3.589,7.789c0,0 1.244,4.755 3.422,4.91c0,0 -1.478,-4.677 -1.478,-7.01c0,0 1.4,7.244 6.855,10.977c0,0 1.256,-5.689 0,-9.344c0,0 4.056,7.322 7.944,6.7c0,0 -5.844,-5.922 -6.466,-10.755c0,0 4.133,6.466 8.966,7.321c0,0 0.7,-5.922 -3.978,-10.899c0,0 5.223,4.667 8.255,0.856c0,0 -1.477,0.622 -7.944,-3.9c0,0 7.011,1.255 7.944,0.478" style="fill:#e94f51;fill-rule:nonzero;"/><path d="M363.509,498.255c0,-2.667 0.989,-4.815 2.967,-6.446c1.978,-1.632 4.335,-2.447 7.072,-2.447c2.736,0 5.046,0.887 6.93,2.66c1.884,1.773 2.825,3.907 2.825,6.401l0,0.636c0,0.251 -0.094,0.471 -0.282,0.659c-0.188,0.188 -0.416,0.291 -0.682,0.306l-2.66,0c-0.252,-0.015 -0.471,-0.118 -0.659,-0.306c-0.189,-0.188 -0.291,-0.408 -0.306,-0.659l0,-0.636c0,-1.474 -0.527,-2.588 -1.581,-3.342c-1.069,-0.753 -2.351,-1.129 -3.845,-1.129c-1.509,0 -2.752,0.407 -3.727,1.222c-0.975,0.816 -1.463,1.89 -1.463,3.222c0,1.333 0.307,2.281 0.921,2.845c0.361,0.346 0.66,0.628 0.896,0.847c0.236,0.22 0.668,0.431 1.298,0.635c0.629,0.188 1.053,0.329 1.274,0.423c0.219,0.094 0.723,0.228 1.509,0.4c0.786,0.172 1.234,0.274 1.344,0.306c5.92,1.442 8.881,4.765 8.881,9.97c0,2.987 -1.067,5.408 -3.202,7.263c-2.134,1.855 -4.712,2.782 -7.731,2.782c-3.019,0 -5.557,-0.98 -7.613,-2.942c-2.056,-1.961 -3.084,-4.322 -3.084,-7.085l0,-0.752c0,-0.251 0.093,-0.471 0.279,-0.66c0.186,-0.188 0.412,-0.29 0.676,-0.306l2.68,0c0.248,0 0.465,0.094 0.652,0.282c0.186,0.187 0.287,0.414 0.303,0.68l0,0.751c0,1.564 0.589,2.862 1.768,3.894c1.194,1.033 2.688,1.548 4.481,1.548c1.792,0 3.278,-0.524 4.457,-1.575c1.163,-1.05 1.745,-2.351 1.745,-3.904c0,-1.551 -0.409,-2.758 -1.227,-3.621c-0.817,-0.878 -3.112,-1.732 -6.886,-2.563c-2.451,-0.549 -4.399,-1.584 -5.843,-3.104c-1.445,-1.521 -2.167,-3.606 -2.167,-6.255" style="fill:#1d1d1b;fill-rule:nonzero;"/><path d="M399.469,508.261c0,0.299 0.157,0.457 0.471,0.472l10.027,0c0.313,0 0.478,-0.158 0.494,-0.472c0,-1.543 -0.458,-2.765 -1.374,-3.664c-0.916,-0.899 -2.208,-1.349 -3.875,-1.349c-1.667,0 -3.045,0.472 -4.134,1.416c-1.073,0.959 -1.609,2.159 -1.609,3.597m-0.094,5.062c0,2.118 0.519,3.703 1.559,4.754c1.039,1.036 2.334,1.553 3.885,1.553c1.55,0 2.813,-0.282 3.786,-0.847c0.94,-0.565 1.559,-1.294 1.856,-2.189c0.144,-0.549 0.484,-0.824 1.017,-0.824l2.274,0c0.599,0 0.851,0.322 0.757,0.965c-0.28,2.119 -1.283,3.853 -3.01,5.202c-1.726,1.35 -3.896,2.024 -6.509,2.024c-2.788,0 -5.076,-0.878 -6.865,-2.636c-1.789,-1.757 -2.769,-3.844 -2.942,-6.261c-0.173,-2.416 -0.173,-4.833 0,-7.249c0.173,-2.417 1.161,-4.512 2.966,-6.285c1.804,-1.742 4.208,-2.612 7.212,-2.612c3.004,0 5.323,0.863 6.957,2.589c1.649,1.726 2.474,4.072 2.474,7.037l0,3.319c0,0.252 -0.099,0.471 -0.296,0.659c-0.197,0.188 -0.434,0.291 -0.713,0.306l-13.918,0c-0.327,0.016 -0.49,0.181 -0.49,0.495" style="fill:#1d1d1b;fill-rule:nonzero;"/><path d="M440.277,504.661c-1.004,-0.942 -2.307,-1.413 -3.907,-1.413c-1.601,0 -2.895,0.464 -3.884,1.389c-0.988,0.926 -1.538,2.071 -1.647,3.437c-0.157,2.244 -0.157,4.487 0,6.732c0.094,1.333 0.643,2.471 1.647,3.412c1.004,0.942 2.299,1.412 3.884,1.412c1.6,0 2.903,-0.462 3.907,-1.388c0.989,-0.926 1.538,-2.072 1.647,-3.436c0.167,-2.245 0.167,-4.488 0,-6.732c-0.094,-1.334 -0.643,-2.472 -1.647,-3.413m-3.413,-5.743c2.547,0 4.707,0.879 6.481,2.636c1.773,1.757 2.744,3.844 2.911,6.261c0.172,2.416 0.169,4.833 -0.009,7.249c-0.178,2.417 -1.146,4.504 -2.904,6.261c-1.758,1.773 -3.892,2.652 -6.401,2.636c-0.832,0 -1.743,-0.204 -2.734,-0.612c-0.991,-0.408 -1.597,-0.604 -1.816,-0.588c-0.706,0 -1.067,0.4 -1.083,1.2l0,8.215c0,0.251 -0.094,0.47 -0.282,0.659c-0.188,0.188 -0.416,0.29 -0.683,0.306l-2.4,0c-0.268,0 -0.495,-0.094 -0.683,-0.283c-0.188,-0.188 -0.282,-0.416 -0.282,-0.682l0,-31.823c0,-0.266 0.094,-0.494 0.282,-0.682c0.188,-0.188 0.415,-0.282 0.683,-0.282l1.647,0c0.204,0 0.478,0.188 0.824,0.564c0.345,0.377 0.674,0.558 0.988,0.541c0.314,0.017 0.957,-0.242 1.931,-0.776c0.972,-0.533 2.149,-0.8 3.53,-0.8" style="fill:#1d1d1b;fill-rule:nonzero;"/><path d="M467.175,504.449l0,11.815c0,0.895 0.321,1.68 0.965,2.354c0.643,0.675 1.443,1.012 2.401,1.012c0.957,0 1.765,-0.337 2.424,-1.012c0.643,-0.674 0.965,-1.459 0.965,-2.354c0,-0.266 0.094,-0.494 0.283,-0.682c0.188,-0.188 0.415,-0.282 0.682,-0.282l2.401,0c0.266,0 0.494,0.094 0.682,0.282c0.189,0.188 0.283,0.416 0.283,0.682c0,2.119 -0.753,3.931 -2.26,5.437c-1.506,1.507 -3.326,2.26 -5.46,2.26c-2.135,0 -3.947,-0.753 -5.437,-2.26c-1.507,-1.506 -2.26,-3.318 -2.26,-5.437l0,-11.815c0,-0.314 -0.165,-0.471 -0.494,-0.471l-4.825,0c-0.251,-0.015 -0.471,-0.117 -0.66,-0.304c-0.188,-0.187 -0.29,-0.406 -0.305,-0.656l0,-2.411c0,-0.25 0.094,-0.468 0.282,-0.655c0.188,-0.188 0.416,-0.289 0.683,-0.305l4.825,0c0.313,0 0.478,-0.157 0.494,-0.471l0,-7.505c0,-0.252 0.094,-0.472 0.283,-0.661c0.188,-0.189 0.415,-0.291 0.682,-0.307l2.401,0c0.251,0.016 0.47,0.118 0.659,0.307c0.188,0.189 0.29,0.409 0.306,0.661l0,7.505c0,0.314 0.157,0.471 0.471,0.471l7.72,0c0.267,0 0.494,0.094 0.683,0.281c0.188,0.188 0.282,0.414 0.282,0.679l0,2.411c0,0.25 -0.094,0.469 -0.282,0.656c-0.189,0.187 -0.416,0.289 -0.683,0.304l-7.72,0c-0.314,0 -0.471,0.157 -0.471,0.471" style="fill:#1d1d1b;fill-rule:nonzero;"/><path d="M493.438,508.261c0,0.299 0.157,0.457 0.471,0.472l10.027,0c0.313,0 0.478,-0.158 0.494,-0.472c0,-1.543 -0.458,-2.765 -1.374,-3.664c-0.916,-0.899 -2.208,-1.349 -3.875,-1.349c-1.667,0 -3.045,0.472 -4.134,1.416c-1.073,0.959 -1.609,2.159 -1.609,3.597m-0.094,5.062c0,2.118 0.519,3.703 1.559,4.754c1.039,1.036 2.334,1.553 3.885,1.553c1.55,0 2.813,-0.282 3.786,-0.847c0.94,-0.565 1.559,-1.294 1.856,-2.189c0.144,-0.549 0.484,-0.824 1.017,-0.824l2.274,0c0.599,0 0.851,0.322 0.757,0.965c-0.28,2.119 -1.283,3.853 -3.01,5.202c-1.726,1.35 -3.896,2.024 -6.509,2.024c-2.788,0 -5.076,-0.878 -6.865,-2.636c-1.789,-1.757 -2.769,-3.844 -2.942,-6.261c-0.173,-2.416 -0.173,-4.833 0,-7.249c0.173,-2.417 1.161,-4.512 2.966,-6.285c1.804,-1.742 4.208,-2.612 7.212,-2.612c3.004,0 5.323,0.863 6.957,2.589c1.649,1.726 2.474,4.072 2.474,7.037l0,3.319c0,0.252 -0.099,0.471 -0.296,0.659c-0.197,0.188 -0.434,0.291 -0.713,0.306l-13.918,0c-0.327,0.016 -0.49,0.181 -0.49,0.495" style="fill:#1d1d1b;fill-rule:nonzero;"/><path d="M541.049,505.791l0,16.735c0,0.267 -0.094,0.494 -0.283,0.683c-0.188,0.188 -0.415,0.282 -0.682,0.282l-2.401,0c-0.251,0 -0.479,-0.094 -0.682,-0.282c-0.189,-0.188 -0.283,-0.415 -0.283,-0.682l0,-16.715c0,-0.658 -0.22,-1.207 -0.659,-1.646c-0.439,-0.438 -0.957,-0.658 -1.553,-0.658c-0.597,0 -1.13,0.227 -1.601,0.682c-0.455,0.455 -0.682,0.996 -0.682,1.622l0,16.715c0,0.267 -0.094,0.494 -0.283,0.682c-0.188,0.188 -0.416,0.282 -0.683,0.282l-2.4,0c-0.251,0 -0.479,-0.094 -0.683,-0.282c-0.188,-0.188 -0.282,-0.415 -0.282,-0.682l0,-16.715c0,-0.658 -0.221,-1.207 -0.662,-1.646c-0.458,-0.438 -0.987,-0.658 -1.586,-0.658c-0.599,0 -1.128,0.227 -1.585,0.682c-0.458,0.455 -0.678,0.996 -0.663,1.622l0,16.715c-0.015,0.267 -0.117,0.494 -0.305,0.682c-0.187,0.188 -0.405,0.282 -0.655,0.282l-2.411,0c-0.25,0 -0.468,-0.094 -0.656,-0.282c-0.187,-0.189 -0.288,-0.416 -0.303,-0.683l0,-22.172c0,-0.267 0.093,-0.494 0.28,-0.683c0.187,-0.188 0.414,-0.282 0.679,-0.282l1.639,0c0.218,0 0.445,0.11 0.679,0.331c0.187,0.253 0.343,0.379 0.468,0.379c0.125,0 0.517,-0.197 1.176,-0.592c0.663,-0.408 1.451,-0.604 2.364,-0.589c1.448,0 2.589,0.576 3.424,1.726c0.109,0.189 0.274,0.284 0.494,0.284c0.219,0 0.392,-0.095 0.518,-0.284c0.926,-1.166 2.338,-1.741 4.237,-1.726c2.714,0 4.495,1.091 5.342,3.272c0.455,1.162 0.683,2.362 0.683,3.601" style="fill:#1d1d1b;fill-rule:nonzero;"/><path d="M558.052,518.219c0.999,0.941 2.3,1.412 3.904,1.412c1.604,0 2.909,-0.462 3.916,-1.389c0.991,-0.925 1.533,-2.071 1.628,-3.436c0.167,-2.244 0.167,-4.487 0,-6.732c-0.095,-1.333 -0.637,-2.471 -1.628,-3.412c-1.007,-0.942 -2.312,-1.413 -3.916,-1.413c-1.604,0 -2.905,0.464 -3.904,1.389c-0.999,0.926 -1.545,2.071 -1.638,3.436c-0.157,2.245 -0.157,4.488 0,6.732c0.093,1.334 0.639,2.472 1.638,3.413m4.376,5.743c-1.384,0 -2.556,-0.267 -3.515,-0.8c-0.959,-0.533 -1.601,-0.792 -1.926,-0.777c-0.326,0 -0.705,0.259 -1.138,0.777c-0.22,0.22 -0.447,0.329 -0.683,0.329l-1.647,0c-0.252,0 -0.471,-0.094 -0.659,-0.282c-0.189,-0.188 -0.291,-0.416 -0.307,-0.682l0,-32.152c0,-0.267 0.094,-0.495 0.282,-0.683c0.187,-0.188 0.413,-0.283 0.678,-0.283l2.412,0c0.249,0 0.468,0.095 0.655,0.283c0.187,0.188 0.288,0.416 0.305,0.683l0,8.544c0,0.8 0.353,1.2 1.061,1.2c0.22,0 0.817,-0.204 1.793,-0.612c0.975,-0.408 1.88,-0.604 2.717,-0.588c2.542,0 4.699,0.879 6.469,2.636c1.77,1.757 2.736,3.844 2.898,6.261c0.162,2.416 0.164,4.833 0.007,7.249c-0.183,2.417 -1.154,4.504 -2.914,6.261c-1.775,1.758 -3.938,2.636 -6.488,2.636" style="fill:#1d1d1b;fill-rule:nonzero;"/><path d="M587.407,508.261c0,0.299 0.157,0.457 0.471,0.472l10.027,0c0.313,0 0.478,-0.158 0.494,-0.472c0,-1.543 -0.458,-2.765 -1.374,-3.664c-0.916,-0.899 -2.208,-1.349 -3.875,-1.349c-1.667,0 -3.045,0.472 -4.134,1.416c-1.073,0.959 -1.609,2.159 -1.609,3.597m-0.094,5.062c0,2.118 0.519,3.703 1.559,4.754c1.039,1.036 2.334,1.553 3.885,1.553c1.55,0 2.813,-0.282 3.786,-0.847c0.94,-0.565 1.559,-1.294 1.856,-2.189c0.144,-0.549 0.484,-0.824 1.017,-0.824l2.274,0c0.599,0 0.851,0.322 0.757,0.965c-0.28,2.119 -1.283,3.853 -3.01,5.202c-1.726,1.35 -3.896,2.024 -6.509,2.024c-2.788,0 -5.076,-0.878 -6.865,-2.636c-1.789,-1.757 -2.769,-3.844 -2.942,-6.261c-0.173,-2.416 -0.173,-4.833 0,-7.249c0.173,-2.417 1.161,-4.512 2.966,-6.285c1.804,-1.742 4.208,-2.612 7.212,-2.612c3.004,0 5.323,0.863 6.957,2.589c1.649,1.726 2.474,4.072 2.474,7.037l0,3.319c0,0.252 -0.099,0.471 -0.296,0.659c-0.197,0.188 -0.434,0.291 -0.713,0.306l-13.918,0c-0.327,0.016 -0.49,0.181 -0.49,0.495" style="fill:#1d1d1b;fill-rule:nonzero;"/><path d="M630.687,507.109c0,-1.13 -0.455,-2.056 -1.365,-2.777c-0.91,-0.722 -2.087,-1.083 -3.531,-1.083c-1.459,0 -2.761,0.423 -3.907,1.271c-1.145,0.847 -1.718,1.945 -1.718,3.295l0,14.711c0,0.267 -0.094,0.494 -0.282,0.683c-0.189,0.188 -0.416,0.282 -0.683,0.282l-2.401,0c-0.251,0 -0.478,-0.094 -0.682,-0.282c-0.188,-0.189 -0.283,-0.416 -0.283,-0.683l0,-22.172c0,-0.267 0.095,-0.495 0.283,-0.683c0.188,-0.188 0.415,-0.282 0.682,-0.282l2.119,0c0.219,0 0.447,0.11 0.682,0.329c0.455,0.518 0.839,0.777 1.153,0.777c0.314,0 0.997,-0.267 2.048,-0.801c1.052,-0.533 2.265,-0.792 3.639,-0.776c2.374,0 4.406,0.785 6.093,2.354c1.688,1.569 2.515,3.515 2.484,5.837c0,0.251 -0.093,0.471 -0.279,0.659c-0.187,0.188 -0.412,0.291 -0.676,0.306l-2.421,0c-0.264,-0.015 -0.49,-0.118 -0.676,-0.306c-0.186,-0.188 -0.279,-0.408 -0.279,-0.659" style="fill:#1d1d1b;fill-rule:nonzero;"/><path d="M694.58,494.07l-11.956,0c-0.315,0 -0.479,0.157 -0.495,0.472l0,7.246c0,0.283 0.094,0.472 0.282,0.567c0.188,0.094 0.455,0.039 0.799,-0.165c0.955,-0.768 2.168,-1.153 3.64,-1.153c2.928,0 5.322,1.114 7.18,3.342c1.858,2.229 2.787,4.927 2.787,8.097c0,3.17 -0.918,5.861 -2.753,8.073c-1.835,2.213 -4.146,3.319 -6.933,3.319c-2.786,0 -5.156,-0.847 -7.109,-2.542c-1.953,-1.695 -2.929,-3.781 -2.929,-6.261c0,-0.643 0.316,-0.965 0.949,-0.965l2.432,0c0.247,0 0.463,0.094 0.648,0.282c0.186,0.189 0.286,0.417 0.301,0.683c0,1.287 0.532,2.354 1.597,3.201c1.066,0.847 2.413,1.271 4.041,1.271c1.597,0 2.896,-0.659 3.898,-1.977c1.002,-1.318 1.511,-3.02 1.527,-5.108c0,-2.086 -0.509,-3.789 -1.527,-5.107c-1.017,-1.318 -2.387,-1.977 -4.109,-1.977c-0.955,0 -1.816,0.266 -2.583,0.8c-0.768,0.534 -1.347,1.232 -1.738,2.095c-0.157,0.361 -0.475,0.534 -0.955,0.517l-2.757,0c-0.265,0 -0.497,-0.094 -0.695,-0.282c-0.199,-0.188 -0.307,-0.415 -0.323,-0.682l0,-17.112c0,-0.251 0.094,-0.471 0.282,-0.659c0.188,-0.188 0.416,-0.29 0.683,-0.306l15.581,0c0.267,0 0.494,0.094 0.683,0.281c0.188,0.188 0.282,0.414 0.282,0.679l0,2.411c0,0.25 -0.071,0.468 -0.214,0.656c-0.142,0.187 -0.315,0.288 -0.516,0.304" style="fill:#1d1d1b;fill-rule:nonzero;"/><path d="M711.405,508.027l13.157,0c0.251,0 0.471,0.094 0.659,0.282c0.188,0.189 0.29,0.416 0.306,0.683l0,3.272c-0.016,0.251 -0.118,0.471 -0.306,0.659c-0.188,0.188 -0.408,0.29 -0.659,0.306l-13.157,0c-0.267,0 -0.495,-0.095 -0.683,-0.283c-0.188,-0.188 -0.282,-0.416 -0.282,-0.682l0,-3.272c0,-0.251 0.094,-0.479 0.282,-0.683c0.204,-0.188 0.432,-0.282 0.683,-0.282" style="fill:#1d1d1b;fill-rule:nonzero;"/><path d="M744.165,511.573c-0.315,2.781 0.259,4.931 1.722,6.447c0.944,1.011 2.17,1.517 3.68,1.517c1.517,0 2.745,-0.506 3.683,-1.517c1.471,-1.548 2.042,-3.697 1.715,-6.447c-0.203,-1.548 -0.772,-2.845 -1.707,-3.888c-0.935,-1.043 -2.174,-1.564 -3.715,-1.564c-1.541,0 -2.768,0.474 -3.68,1.422c-0.927,0.933 -1.493,2.276 -1.698,4.03m5.402,-9.783c2.668,0 4.935,0.953 6.803,2.86c2.321,2.375 3.349,5.539 3.083,9.492c-0.157,2.75 -1.169,5.062 -3.037,6.937c-1.867,1.859 -4.158,2.789 -6.873,2.789c-2.721,0 -4.989,-0.939 -6.803,-2.817c-1.815,-1.878 -2.902,-4.273 -3.262,-7.184c-0.219,-1.987 -0.328,-4.386 -0.328,-7.195c0,-2.809 0.109,-5.216 0.328,-7.221c0.295,-2.905 1.332,-5.313 3.108,-7.223c1.776,-1.91 3.985,-2.865 6.627,-2.865c2.642,0 4.842,0.894 6.6,2.683c1.774,1.789 2.653,3.962 2.638,6.52c0,0.266 -0.093,0.494 -0.277,0.682c-0.184,0.188 -0.407,0.283 -0.668,0.283l-2.442,0c-0.246,0 -0.468,-0.095 -0.668,-0.283c-0.184,-0.188 -0.276,-0.416 -0.276,-0.682c0,-1.319 -0.425,-2.456 -1.274,-3.413c-0.849,-0.973 -2.06,-1.46 -3.633,-1.46c-1.572,0 -2.776,0.442 -3.609,1.325c-0.834,0.884 -1.408,2.113 -1.722,3.69c-0.315,1.546 -0.448,3.075 -0.401,4.589c0.016,0.189 0.102,0.323 0.259,0.402c0.158,0.079 0.331,0.057 0.52,-0.066c1.666,-1.228 3.436,-1.843 5.307,-1.843" style="fill:#1d1d1b;fill-rule:nonzero;"/><path d="M780.406,504.449l0,11.815c0,0.895 0.321,1.68 0.965,2.354c0.643,0.675 1.443,1.012 2.401,1.012c0.957,0 1.765,-0.337 2.424,-1.012c0.643,-0.674 0.965,-1.459 0.965,-2.354c0,-0.266 0.094,-0.494 0.283,-0.682c0.188,-0.188 0.415,-0.282 0.682,-0.282l2.401,0c0.266,0 0.494,0.094 0.682,0.282c0.189,0.188 0.283,0.416 0.283,0.682c0,2.119 -0.753,3.931 -2.26,5.437c-1.506,1.507 -3.326,2.26 -5.46,2.26c-2.135,0 -3.947,-0.753 -5.437,-2.26c-1.507,-1.506 -2.26,-3.318 -2.26,-5.437l0,-11.815c0,-0.314 -0.165,-0.471 -0.494,-0.471l-4.825,0c-0.251,-0.015 -0.471,-0.117 -0.66,-0.304c-0.188,-0.187 -0.29,-0.406 -0.305,-0.656l0,-2.411c0,-0.25 0.094,-0.468 0.282,-0.655c0.188,-0.188 0.416,-0.289 0.683,-0.305l4.825,0c0.313,0 0.478,-0.157 0.494,-0.471l0,-7.505c0,-0.252 0.094,-0.472 0.283,-0.661c0.188,-0.189 0.415,-0.291 0.682,-0.307l2.401,0c0.251,0.016 0.47,0.118 0.659,0.307c0.188,0.189 0.29,0.409 0.306,0.661l0,7.505c0,0.314 0.157,0.471 0.471,0.471l7.72,0c0.267,0 0.494,0.094 0.683,0.281c0.188,0.188 0.282,0.414 0.282,0.679l0,2.411c0,0.25 -0.094,0.469 -0.282,0.656c-0.189,0.187 -0.416,0.289 -0.683,0.304l-7.72,0c-0.314,0 -0.471,0.157 -0.471,0.471" style="fill:#1d1d1b;fill-rule:nonzero;"/><path d="M806.321,523.491l-2.411,0c-0.25,0 -0.468,-0.094 -0.655,-0.282c-0.188,-0.189 -0.289,-0.416 -0.305,-0.683l0,-32.152c0,-0.267 0.094,-0.494 0.281,-0.682c0.187,-0.189 0.414,-0.283 0.679,-0.283l2.411,0c0.25,0 0.468,0.094 0.656,0.283c0.187,0.188 0.288,0.415 0.304,0.682l0,8.732c0,0.252 0.094,0.479 0.283,0.683c0.173,0.204 0.401,0.306 0.684,0.306c0.283,0 0.897,-0.196 1.84,-0.588c0.944,-0.408 1.84,-0.604 2.689,-0.589c2.545,0 4.713,0.894 6.504,2.683c1.791,1.789 2.679,3.947 2.664,6.473l0,14.452c0,0.267 -0.095,0.494 -0.283,0.683c-0.188,0.188 -0.416,0.282 -0.682,0.282l-2.401,0c-0.251,0 -0.479,-0.094 -0.683,-0.282c-0.188,-0.189 -0.282,-0.416 -0.282,-0.683l0,-14.452c0.015,-1.271 -0.48,-2.393 -1.487,-3.366c-1.006,-0.972 -2.241,-1.459 -3.703,-1.459c-1.463,0 -2.682,0.439 -3.657,1.318c-0.975,0.879 -1.47,1.962 -1.486,3.248l0,14.711c-0.016,0.267 -0.117,0.494 -0.304,0.683c-0.188,0.188 -0.406,0.282 -0.656,0.282" style="fill:#1d1d1b;fill-rule:nonzero;"/><path d="M841.899,523.491l-0.824,0c-0.251,0 -0.479,-0.094 -0.682,-0.282c-0.189,-0.189 -0.283,-0.416 -0.283,-0.683l0,-4.331c0,-0.266 0.094,-0.494 0.283,-0.683c0.188,-0.188 0.415,-0.282 0.682,-0.282l4.331,0c0.266,0 0.494,0.094 0.682,0.282c0.189,0.189 0.283,0.417 0.283,0.683l0,4.331c0,1.098 -0.322,2.095 -0.965,2.989l-2.495,3.531c-0.314,0.486 -0.73,0.721 -1.247,0.706l-0.683,0c-0.456,0 -0.761,-0.173 -0.918,-0.518c-0.157,-0.345 -0.141,-0.698 0.047,-1.059l2.212,-4.048c0.095,-0.173 0.087,-0.323 -0.023,-0.448c-0.11,-0.126 -0.243,-0.188 -0.4,-0.188" style="fill:#1d1d1b;fill-rule:nonzero;"/><path d="M914.661,489.739l2.613,0c0.777,0 1.134,0.338 1.072,1.014l-3.46,32.058c-0.033,0.454 -0.345,0.68 -0.938,0.68l-4.499,0c-0.562,0 -0.875,-0.243 -0.939,-0.729l-2.069,-14.546c-0.032,-0.22 -0.128,-0.22 -0.289,0l-2.767,14.546c-0.096,0.486 -0.401,0.729 -0.914,0.729l-4.499,0c-0.594,0 -0.907,-0.243 -0.938,-0.729l-3.104,-32.058c-0.063,-0.643 0.266,-0.965 0.986,-0.965l2.431,0c0.593,0 0.897,0.244 0.914,0.729l1.963,24.338c0.046,0.141 0.148,0.212 0.304,0.212c0.155,0 0.249,-0.071 0.28,-0.212l2.921,-14.687c0.094,-0.486 0.398,-0.73 0.912,-0.73l2.781,0c0.514,0 0.818,0.244 0.911,0.73l2.571,14.687c0.031,0.141 0.125,0.212 0.28,0.212c0.156,0 0.257,-0.071 0.305,-0.212l2.153,-24.339c0.035,-0.485 0.374,-0.728 1.019,-0.728" style="fill:#1d1d1b;fill-rule:nonzero;"/><path d="M943.917,507.109c0,-1.13 -0.455,-2.056 -1.365,-2.777c-0.91,-0.722 -2.087,-1.083 -3.531,-1.083c-1.459,0 -2.761,0.423 -3.907,1.271c-1.145,0.847 -1.718,1.945 -1.718,3.295l0,14.711c0,0.267 -0.094,0.494 -0.282,0.683c-0.189,0.188 -0.416,0.282 -0.683,0.282l-2.401,0c-0.251,0 -0.478,-0.094 -0.682,-0.282c-0.188,-0.189 -0.283,-0.416 -0.283,-0.683l0,-22.172c0,-0.267 0.095,-0.495 0.283,-0.683c0.188,-0.188 0.415,-0.282 0.682,-0.282l2.119,0c0.219,0 0.447,0.11 0.682,0.329c0.455,0.518 0.839,0.777 1.153,0.777c0.314,0 0.997,-0.267 2.048,-0.801c1.052,-0.533 2.265,-0.792 3.639,-0.776c2.374,0 4.406,0.785 6.093,2.354c1.688,1.569 2.515,3.515 2.484,5.837c0,0.251 -0.093,0.471 -0.279,0.659c-0.187,0.188 -0.412,0.291 -0.676,0.306l-2.421,0c-0.264,-0.015 -0.49,-0.118 -0.676,-0.306c-0.186,-0.188 -0.279,-0.408 -0.279,-0.659" style="fill:#1d1d1b;fill-rule:nonzero;"/><path d="M968.58,519.631c1.601,0 2.903,-0.462 3.907,-1.389c0.989,-0.925 1.538,-2.071 1.648,-3.436c0.156,-2.244 0.156,-4.488 0,-6.732c-0.079,-1.333 -0.62,-2.471 -1.624,-3.412c-1.005,-0.942 -2.307,-1.413 -3.908,-1.413c-1.6,0 -2.903,0.464 -3.907,1.389c-1.004,0.926 -1.553,2.071 -1.647,3.436c-0.157,2.244 -0.157,4.488 0,6.732c0.094,1.35 0.635,2.495 1.624,3.436c1.004,0.927 2.306,1.389 3.907,1.389m-6.896,-18.076c1.804,-1.757 4.103,-2.636 6.896,-2.636c2.792,0 5.092,0.879 6.896,2.636c1.805,1.757 2.793,3.844 2.966,6.261c0.172,2.416 0.172,4.833 0,7.249c-0.173,2.417 -1.161,4.511 -2.966,6.284c-1.804,1.742 -4.104,2.613 -6.896,2.613c-2.793,0 -5.092,-0.878 -6.896,-2.636c-1.805,-1.757 -2.793,-3.844 -2.966,-6.261c-0.173,-2.416 -0.173,-4.833 0,-7.249c0.173,-2.417 1.161,-4.504 2.966,-6.261" style="fill:#1d1d1b;fill-rule:nonzero;"/><path d="M1000.04,519.631c1.506,0 2.722,-0.376 3.648,-1.129c0.91,-0.754 1.365,-1.711 1.365,-2.872c0,-0.549 0.301,-0.824 0.904,-0.824l2.478,0c0.247,0.016 0.462,0.118 0.648,0.306c0.186,0.188 0.286,0.408 0.301,0.659c0,2.354 -0.872,4.307 -2.616,5.861c-1.745,1.553 -3.979,2.33 -6.705,2.33c-2.73,0 -4.958,-0.863 -6.684,-2.589c-1.726,-1.726 -2.675,-3.813 -2.848,-6.261c-0.173,-2.448 -0.173,-4.896 0,-7.343c0.173,-2.449 1.122,-4.535 2.848,-6.262c1.726,-1.726 3.954,-2.588 6.684,-2.588c2.731,0 4.971,0.776 6.72,2.33c1.734,1.553 2.601,3.507 2.601,5.861c0,0.643 -0.27,0.964 -0.81,0.964l-2.57,0c-0.603,0 -0.903,-0.258 -0.903,-0.776c0,-1.161 -0.456,-2.126 -1.366,-2.896c-0.91,-0.768 -2.134,-1.153 -3.672,-1.153c-1.538,0 -2.761,0.464 -3.671,1.389c-0.926,0.926 -1.444,2.071 -1.554,3.436c-0.157,2.244 -0.157,4.488 0,6.732c0.095,1.334 0.612,2.471 1.554,3.413c0.941,0.941 2.157,1.412 3.648,1.412" style="fill:#1d1d1b;fill-rule:nonzero;"/><path d="M1029.34,493.505l-5.06,0c-0.252,0 -0.471,-0.097 -0.659,-0.289c-0.189,-0.193 -0.291,-0.426 -0.306,-0.699l0,-2.12c0.015,-0.273 0.117,-0.506 0.306,-0.699c0.188,-0.193 0.407,-0.289 0.659,-0.289l8.92,0c0.267,0 0.494,0.096 0.683,0.289c0.188,0.193 0.282,0.426 0.282,0.699l0,28.506c0,0.313 0.165,0.477 0.495,0.493l5.437,0c0.25,0 0.471,0.094 0.659,0.282c0.188,0.189 0.29,0.416 0.306,0.683l0,2.165c0,0.267 -0.095,0.495 -0.283,0.683c-0.188,0.188 -0.416,0.282 -0.682,0.282l-16.782,0c-0.251,0 -0.471,-0.094 -0.659,-0.282c-0.189,-0.188 -0.291,-0.416 -0.306,-0.683l0,-2.165c0,-0.267 0.094,-0.494 0.282,-0.683c0.188,-0.188 0.416,-0.282 0.683,-0.282l6.025,0c0.314,0 0.479,-0.164 0.495,-0.493l0,-24.906c-0.016,-0.328 -0.181,-0.492 -0.495,-0.492" style="fill:#1d1d1b;fill-rule:nonzero;"/><path d="M1067.56,512.876l-6.261,0c-2.416,0 -3.624,1.099 -3.624,3.298c0,1.177 0.368,2.091 1.106,2.741c0.737,0.65 1.804,0.967 3.201,0.952c2.149,0 3.695,-0.41 4.637,-1.231c0.941,-0.821 1.42,-2.075 1.435,-3.763l0,-1.509c-0.015,-0.325 -0.18,-0.488 -0.494,-0.488m-4.378,-9.862c-2.95,0 -4.448,0.922 -4.496,2.766c0,0.557 -0.376,0.835 -1.13,0.835l-2.214,0c-0.657,0 -0.986,-0.355 -0.986,-1.064c0,-2.056 0.91,-3.679 2.73,-4.87c1.836,-1.175 3.946,-1.763 6.331,-1.763c2.386,0 4.472,0.644 6.26,1.93c1.788,1.287 2.691,3.21 2.708,5.767l0,15.911c-0.017,0.267 -0.129,0.495 -0.335,0.683c-0.206,0.188 -0.447,0.282 -0.722,0.282l-1.805,0c-0.275,0 -0.481,-0.071 -0.618,-0.215c-0.137,-0.143 -0.301,-0.366 -0.49,-0.669c-0.206,-0.302 -0.412,-0.461 -0.616,-0.477c-0.221,0 -0.559,0.15 -1.016,0.452c-1.396,0.92 -2.95,1.38 -4.66,1.38c-2.824,0 -4.998,-0.746 -6.52,-2.237c-1.506,-1.491 -2.259,-3.315 -2.259,-5.473c0,-2.157 0.714,-3.942 2.142,-5.354c1.427,-1.412 3.366,-2.118 5.813,-2.118l5.885,0c0.313,0 0.47,-0.161 0.47,-0.484l0,-1.568c0,-1.246 -0.416,-2.176 -1.247,-2.791c-0.832,-0.615 -1.907,-0.923 -3.225,-0.923" style="fill:#1d1d1b;fill-rule:nonzero;"/><path d="M1093.13,504.685l1.739,0c0.486,0 0.791,0.243 0.916,0.729l2.397,9.063c0.078,0.187 0.196,0.282 0.352,0.282c0.157,0 0.267,-0.095 0.329,-0.282l2.163,-14.358c0.097,-0.487 0.413,-0.73 0.948,-0.73l2.433,0c0.373,0 0.64,0.11 0.801,0.33c0.161,0.219 0.211,0.478 0.148,0.776l-4.159,22.267c-0.096,0.486 -0.407,0.729 -0.933,0.729l-2.677,0c-0.494,0 -0.805,-0.243 -0.932,-0.729l-2.373,-9.392c-0.032,-0.157 -0.126,-0.235 -0.282,-0.235c-0.157,0 -0.251,0.078 -0.283,0.235l-2.349,9.392c-0.128,0.486 -0.439,0.729 -0.932,0.729l-2.702,0c-0.525,0 -0.836,-0.243 -0.932,-0.729l-4.159,-22.267c-0.063,-0.298 -0.013,-0.557 0.148,-0.776c0.16,-0.22 0.428,-0.33 0.801,-0.33l2.433,0c0.535,0 0.851,0.243 0.949,0.73l2.161,14.358c0.032,0.187 0.141,0.282 0.329,0.282c0.188,0 0.306,-0.095 0.353,-0.282l2.396,-9.063c0.125,-0.486 0.431,-0.729 0.917,-0.729" style="fill:#1d1d1b;fill-rule:nonzero;"/><path d="M1123.81,523.491l-0.824,0c-0.251,0 -0.479,-0.094 -0.682,-0.282c-0.189,-0.189 -0.283,-0.416 -0.283,-0.683l0,-4.331c0,-0.266 0.094,-0.494 0.283,-0.683c0.188,-0.188 0.415,-0.282 0.682,-0.282l4.331,0c0.266,0 0.494,0.094 0.682,0.282c0.189,0.189 0.283,0.417 0.283,0.683l0,4.331c0,1.098 -0.322,2.095 -0.965,2.989l-2.495,3.531c-0.314,0.486 -0.73,0.721 -1.247,0.706l-0.683,0c-0.456,0 -0.761,-0.173 -0.918,-0.518c-0.157,-0.345 -0.141,-0.698 0.047,-1.059l2.212,-4.048c0.095,-0.173 0.087,-0.323 -0.023,-0.448c-0.11,-0.126 -0.243,-0.188 -0.4,-0.188" style="fill:#1d1d1b;fill-rule:nonzero;"/><path d="M1189.05,494.328l-4.556,0c-0.313,0 -0.478,0.157 -0.493,0.471l0,10.144c0,0.314 0.164,0.471 0.493,0.471l4.556,0c1.472,0 2.763,-0.549 3.875,-1.648c1.111,-1.098 1.667,-2.4 1.667,-3.907c0,-1.506 -0.547,-2.808 -1.643,-3.907c-1.096,-1.098 -2.396,-1.64 -3.899,-1.624m-5.049,16.146l0,12.052c0,0.266 -0.095,0.494 -0.284,0.682c-0.189,0.188 -0.418,0.283 -0.686,0.283l-2.649,0c-0.253,0 -0.482,-0.095 -0.687,-0.283c-0.189,-0.188 -0.284,-0.416 -0.284,-0.682l0,-31.823c0,-0.25 0.095,-0.471 0.283,-0.659c0.189,-0.188 0.417,-0.29 0.683,-0.306l8.672,0c2.797,0 5.185,0.989 7.164,2.966c1.979,1.977 2.969,4.362 2.969,7.155c0,2.793 -0.982,5.186 -2.945,7.179c-1.979,1.977 -4.375,2.966 -7.187,2.966l-4.556,0c-0.329,0 -0.493,0.157 -0.493,0.47" style="fill:#1d1d1b;fill-rule:nonzero;"/><path d="M1219.16,519.631c1.601,0 2.903,-0.462 3.907,-1.389c0.989,-0.925 1.538,-2.071 1.648,-3.436c0.156,-2.244 0.156,-4.488 0,-6.732c-0.079,-1.333 -0.62,-2.471 -1.624,-3.412c-1.005,-0.942 -2.307,-1.413 -3.908,-1.413c-1.6,0 -2.903,0.464 -3.907,1.389c-1.004,0.926 -1.553,2.071 -1.647,3.436c-0.157,2.244 -0.157,4.488 0,6.732c0.094,1.35 0.635,2.495 1.624,3.436c1.004,0.927 2.306,1.389 3.907,1.389m-6.896,-18.076c1.804,-1.757 4.103,-2.636 6.896,-2.636c2.792,0 5.092,0.879 6.896,2.636c1.805,1.757 2.793,3.844 2.966,6.261c0.172,2.416 0.172,4.833 0,7.249c-0.173,2.417 -1.161,4.511 -2.966,6.284c-1.804,1.742 -4.104,2.613 -6.896,2.613c-2.793,0 -5.092,-0.878 -6.896,-2.636c-1.805,-1.757 -2.793,-3.844 -2.966,-6.261c-0.173,-2.416 -0.173,-4.833 0,-7.249c0.173,-2.417 1.161,-4.504 2.966,-6.261" style="fill:#1d1d1b;fill-rule:nonzero;"/><path d="M1248.6,493.505l-5.06,0c-0.252,0 -0.471,-0.097 -0.659,-0.289c-0.189,-0.193 -0.291,-0.426 -0.306,-0.699l0,-2.12c0.015,-0.273 0.117,-0.506 0.306,-0.699c0.188,-0.193 0.407,-0.289 0.659,-0.289l8.92,0c0.267,0 0.494,0.096 0.683,0.289c0.188,0.193 0.282,0.426 0.282,0.699l0,28.506c0,0.313 0.165,0.477 0.495,0.493l5.437,0c0.25,0 0.471,0.094 0.659,0.282c0.188,0.189 0.29,0.416 0.306,0.683l0,2.165c0,0.267 -0.095,0.495 -0.283,0.683c-0.188,0.188 -0.416,0.282 -0.682,0.282l-16.782,0c-0.251,0 -0.471,-0.094 -0.659,-0.282c-0.189,-0.188 -0.291,-0.416 -0.306,-0.683l0,-2.165c0,-0.267 0.094,-0.494 0.282,-0.683c0.188,-0.188 0.416,-0.282 0.683,-0.282l6.025,0c0.314,0 0.479,-0.164 0.495,-0.493l0,-24.906c-0.016,-0.328 -0.181,-0.492 -0.495,-0.492" style="fill:#1d1d1b;fill-rule:nonzero;"/><path d="M1286.82,512.876l-6.261,0c-2.416,0 -3.624,1.099 -3.624,3.298c0,1.177 0.368,2.091 1.106,2.741c0.737,0.65 1.804,0.967 3.201,0.952c2.149,0 3.695,-0.41 4.637,-1.231c0.941,-0.821 1.42,-2.075 1.435,-3.763l0,-1.509c-0.015,-0.325 -0.18,-0.488 -0.494,-0.488m-4.378,-9.862c-2.95,0 -4.448,0.922 -4.496,2.766c0,0.557 -0.376,0.835 -1.13,0.835l-2.214,0c-0.657,0 -0.986,-0.355 -0.986,-1.064c0,-2.056 0.91,-3.679 2.73,-4.87c1.836,-1.175 3.946,-1.763 6.331,-1.763c2.386,0 4.472,0.644 6.26,1.93c1.788,1.287 2.691,3.21 2.708,5.767l0,15.911c-0.017,0.267 -0.129,0.495 -0.335,0.683c-0.206,0.188 -0.447,0.282 -0.722,0.282l-1.805,0c-0.275,0 -0.481,-0.071 -0.618,-0.215c-0.137,-0.143 -0.301,-0.366 -0.49,-0.669c-0.206,-0.302 -0.412,-0.461 -0.616,-0.477c-0.221,0 -0.559,0.15 -1.016,0.452c-1.396,0.92 -2.95,1.38 -4.66,1.38c-2.824,0 -4.998,-0.746 -6.52,-2.237c-1.506,-1.491 -2.259,-3.315 -2.259,-5.473c0,-2.157 0.714,-3.942 2.142,-5.354c1.427,-1.412 3.366,-2.118 5.813,-2.118l5.885,0c0.313,0 0.47,-0.161 0.47,-0.484l0,-1.568c0,-1.246 -0.416,-2.176 -1.247,-2.791c-0.832,-0.615 -1.907,-0.923 -3.225,-0.923" style="fill:#1d1d1b;fill-rule:nonzero;"/><path d="M1308.64,500.495c0.313,0 0.941,-0.267 1.883,-0.8c0.941,-0.533 2.055,-0.792 3.342,-0.777c2.573,0 4.739,0.863 6.496,2.589c1.758,1.727 2.644,3.916 2.66,6.567l0,14.452c0,0.267 -0.094,0.494 -0.282,0.683c-0.189,0.188 -0.416,0.282 -0.683,0.282l-2.401,0c-0.251,0 -0.478,-0.094 -0.682,-0.282c-0.188,-0.189 -0.283,-0.416 -0.283,-0.683l0,-14.452c0,-1.396 -0.51,-2.55 -1.529,-3.46c-1.021,-0.91 -2.284,-1.365 -3.79,-1.365c-1.523,0 -2.786,0.416 -3.79,1.247c-1.004,0.832 -1.506,1.938 -1.506,3.319l0,14.711c0,0.267 -0.094,0.494 -0.283,0.683c-0.188,0.188 -0.415,0.282 -0.682,0.282l-2.401,0c-0.251,0 -0.479,-0.094 -0.682,-0.282c-0.189,-0.189 -0.283,-0.416 -0.283,-0.683l0,-22.172c0,-0.267 0.094,-0.494 0.283,-0.683c0.188,-0.188 0.415,-0.282 0.682,-0.282l2.119,0c0.219,0 0.447,0.11 0.682,0.33c0.439,0.517 0.816,0.776 1.13,0.776" style="fill:#1d1d1b;fill-rule:nonzero;"/><path d="M1340.29,518.219c1.002,0.941 2.302,1.412 3.898,1.412c1.597,0 2.897,-0.462 3.899,-1.389c0.987,-0.925 1.527,-2.071 1.621,-3.436c0.157,-2.244 0.157,-4.487 0,-6.732c-0.094,-1.333 -0.634,-2.471 -1.621,-3.412c-0.986,-0.942 -2.278,-1.413 -3.875,-1.413c-1.597,0 -2.897,0.464 -3.899,1.389c-1.002,0.926 -1.557,2.071 -1.667,3.436c-0.167,2.245 -0.167,4.488 0,6.732c0.094,1.334 0.642,2.472 1.644,3.413m3.405,5.743c-2.544,0 -4.701,-0.878 -6.472,-2.636c-1.772,-1.757 -2.741,-3.844 -2.908,-6.261c-0.172,-2.416 -0.17,-4.833 0.008,-7.249c0.178,-2.417 1.145,-4.504 2.901,-6.261c1.755,-1.773 3.886,-2.652 6.392,-2.636c0.829,0 1.739,0.204 2.729,0.612c0.989,0.408 1.601,0.604 1.836,0.588c0.705,0 1.057,-0.4 1.057,-1.2l0,-8.544c0,-0.267 0.094,-0.495 0.282,-0.683c0.188,-0.188 0.416,-0.283 0.683,-0.283l2.4,0c0.267,0 0.495,0.095 0.683,0.283c0.189,0.188 0.283,0.416 0.283,0.683l0,32.152c0,0.266 -0.094,0.494 -0.283,0.682c-0.188,0.188 -0.416,0.282 -0.683,0.282l-1.647,0c-0.204,0 -0.479,-0.188 -0.824,-0.564c-0.345,-0.377 -0.675,-0.557 -0.988,-0.542c-0.313,-0.015 -0.955,0.244 -1.926,0.777c-0.971,0.533 -2.145,0.8 -3.523,0.8" style="fill:#1d1d1b;fill-rule:nonzero;"/><rect x="302.753" y="538.42" width="52.584" height="9.708" style="fill:#e94f51;"/></g></svg>