<?xml version="1.0" encoding="utf-8"?>
<!-- Generator: Adobe Illustrator 23.0.1, SVG Export Plug-In . SVG Version: 6.00 Build 0)  -->
<svg version="1.1" id="Layer_1" xmlns="http://www.w3.org/2000/svg" xmlns:xlink="http://www.w3.org/1999/xlink" x="0px" y="0px"
	 viewBox="0 0 841.9 259.6" style="enable-background:new 0 0 841.9 259.6;" xml:space="preserve">
<style type="text/css">
	.st0{font-family:'Roboto-Black';}
	.st1{font-size:65.607px;}
	.st2{font-family:'Seravek-Bold';}
</style>
<g>
	<g>
		<path d="M236.6,47.8c-6.2,0-11.2,5.1-11.2,11.2v141.5c0,6.2,5.1,11.2,11.2,11.2s11.2-5.1,11.2-11.2V59
			C247.8,52.9,242.8,47.8,236.6,47.8z M239.1,102.4c-3.4,1.2-5.5,2.2-5.5,5.5c0,3,1.3,3.5,4.1,4.1c2.4,0.5,6,1.4,6,6
			c0,4.5-3.7,5.6-6.4,6.4c-3.3,1-5.1,1.7-5.1,5.1c0,3.1,1.5,3.6,4.6,4.4c2.8,0.7,6.9,1.6,6.9,7.1c0,5.7-4.2,7.1-7.3,8.1
			c-3,1-4.2,1.5-4.2,3.4c0,1.8,1.1,2.3,4.1,3.3c3.2,1,7.6,2.4,7.6,8.4c0,5.7-4.2,6.7-7.3,7.5c-3.4,0.8-5.2,1.5-5.2,5.1
			c0,4.1,1.9,4.5,4.8,5.1c2.4,0.5,6.1,1.3,6.1,5.8c0,0.9-0.8,1.7-1.7,1.7s-1.7-0.8-1.7-1.7c0-1.6-0.6-1.9-3.4-2.5
			c-3-0.6-7.5-1.6-7.5-8.4c0-6.5,4.5-7.6,7.8-8.4c3.3-0.8,4.7-1.3,4.7-4.2c0-3.3-1.9-4.1-5.2-5.1c-2.7-0.9-6.5-2-6.5-6.5
			s3.8-5.8,6.5-6.7c3.2-1,5-1.8,5-4.8c0-2.7-1.3-3.1-4.3-3.8c-2.9-0.7-7.2-1.7-7.2-7.7c0-6.1,4.5-7.5,7.5-8.3c2.9-0.9,4-1.3,4-3.2
			c0-1.8-0.6-2.1-3.3-2.7s-6.8-1.5-6.8-7.4s4.5-7.5,7.7-8.7c3-1.1,3.9-1.6,3.9-3c0-1.2-0.8-1.6-3.6-2.5c-3.3-1-8.2-2.5-8.2-9.4
			c0-9,8-13.1,12.2-14.1c0.9-0.2,1.8,0.4,2,1.3s-0.4,1.8-1.3,2c-0.4,0.1-9.6,2.3-9.6,10.8c0,4.2,2.2,5,5.8,6.1c2.7,0.8,6,1.8,6,5.7
			C245.3,100.2,241.9,101.4,239.1,102.4z"/>
		<g>
			<g>
				<path d="M219.5,206.2c-6.2,4.6-12.3,8-17.9,10l0,0c-6.8,2.4-12.2,2.5-15.4,0.6c-6.9-4-9.8-19.4-5.9-40.1c0.5-2.4,1-4.9,1.6-7.3
					c6.3,1.4,13,2.5,20.1,3.3c-0.2-1.7-0.4-3.4-0.4-5.1v-4.4c-6.1-0.8-11.8-1.7-17.2-2.9c1.9-6.3,4.3-12.8,7.1-19.4
					c2,3.8,4.1,7.6,6.2,11.4c1.3,2.2,2.6,4.3,3.9,6.5V140c-1.8-3.3-3.5-6.7-5.1-10c1.6-3.4,3.3-6.8,5.1-10.1V101
					c-1.3,2.2-2.6,4.3-3.9,6.5c-2.2,3.7-4.2,7.5-6.2,11.4c-2.7-6.5-5.1-12.9-7-19c5.4-1.2,11.2-2.2,17.1-3V92c0-1.6,0.1-3.2,0.3-4.8
					c-7,0.9-13.7,2.1-20,3.5c-0.6-2.2-1.1-4.5-1.5-6.8l0,0c-4.1-21.1-1.4-37,5.5-41c6.3-3.6,19,0.3,33.3,10.9c0.9-3.1,2.7-5.8,5-8
					c-16.8-12.4-32.8-17-43-11.1c-11.5,6.6-14.9,26.3-10,51c0.5,2.4,1,4.9,1.6,7.3c-2.8,0.8-5.5,1.7-8.1,2.6
					c-23.3,8.1-38.1,20.8-38.1,34c0,13.6,16,27.3,40.2,35.6c2,0.7,3.9,1.3,5.9,1.9c-0.6,2.6-1.2,5.2-1.7,7.8
					c-4.6,24.2-1,43.4,10.4,50c10.2,5.9,26.5,1.4,43.2-10.8C222.3,212,220.5,209.3,219.5,206.2z M175.4,158
					c-1.8-0.5-3.6-1.1-5.4-1.7c-10.7-3.7-19.6-8.4-25.6-13.6c-5.5-4.7-8.2-9.3-8.2-13.1c0-8,11.9-18.2,31.8-25.2
					c2.5-0.9,5-1.7,7.6-2.4c2.8,8.9,6.4,18.3,10.7,27.8C181.8,139.4,178.1,148.9,175.4,158z"/>
				<path d="M307.4,95.4c-2.3-0.8-4.7-1.5-7.1-2.2c0.4-1.6,0.8-3.2,1.1-4.8c5.4-26,1.9-47-10.1-53.8c-10.1-5.8-25.9-1.2-42.5,11.3
					c2.3,2.2,4.1,4.9,5,8c14.1-10.8,26.7-14.7,32.8-11.2l0,0c7.4,4.2,10.2,21.4,5.6,43.8c-0.3,1.5-0.6,2.9-1,4.4
					c-6.3-1.5-13.1-2.7-20.1-3.6c0.2,1.6,0.3,3.2,0.3,4.8v4.8c6,0.8,11.8,1.9,17.2,3.1c-1.9,6.1-4.3,12.4-7,18.9
					c-2-3.9-4.1-7.7-6.3-11.4c-1.3-2.2-2.6-4.3-3.9-6.5v18.8c1.8,3.3,3.5,6.7,5.2,10c-1.7,3.4-3.4,6.8-5.2,10.2v18.9
					c1.3-2.2,2.6-4.4,3.9-6.6c2.2-3.8,4.3-7.7,6.4-11.6c2.9,6.7,5.4,13.2,7.4,19.3c-5.5,1.3-11.5,2.3-17.7,3.1v4.6
					c0,1.7-0.1,3.3-0.4,4.9c7.2-0.9,14.2-2.1,20.6-3.6c0.4,1.8,0.8,3.6,1.2,5.3c2.2,11.1,2.5,21.2,1.1,29
					c-1.3,7.1-3.9,11.8-7.2,13.6c-6.2,3.6-18.8-0.3-32.9-11.1c-0.9,3.1-2.7,5.8-5,8c16.6,12.6,32.5,17.1,42.7,11.2
					c11.8-6.8,15.6-27.5,10.6-52.6c-0.4-1.9-0.8-3.9-1.3-5.9c1.4-0.4,2.8-0.8,4.1-1.3c25.2-8.3,41.6-21.8,41.6-35.7
					C346.5,116.4,331.2,103.6,307.4,95.4z M302,156.4L302,156.4c-1.2,0.4-2.4,0.8-3.7,1.2c-2.8-8.8-6.5-18.2-11.1-27.8
					c4.4-9.4,8-18.7,10.7-27.4c2.2,0.7,4.4,1.3,6.5,2.1c20.3,7,32.8,17.4,32.8,25.3C337.1,138.1,323.7,149.1,302,156.4z"/>
			</g>
		</g>
		<g>
			<g>
				<g>
					<path d="M249.1,66.9v125.9c9.2-4.6,15.6-14.2,15.6-25.1V92C264.7,81,258.3,71.5,249.1,66.9z"/>
					<path d="M224.1,66.9c-9.2,4.6-15.6,14.2-15.6,25.1v75.6c0,11,6.4,20.5,15.6,25.1V66.9z"/>
				</g>
			</g>
		</g>
	</g>
	<g>
		<text transform="matrix(1 0 0 1 368.9262 113.5584)" class="st0 st1">REACT</text>
		<text transform="matrix(1 0 0 1 368.9262 173.5584)" class="st2 st1">NEW YORK</text>
	</g>
</g>
</svg>
