<?xml version="1.0" encoding="UTF-8" standalone="no"?>
<svg
   xmlns:dc="http://purl.org/dc/elements/1.1/"
   xmlns:cc="http://creativecommons.org/ns#"
   xmlns:rdf="http://www.w3.org/1999/02/22-rdf-syntax-ns#"
   xmlns:svg="http://www.w3.org/2000/svg"
   xmlns="http://www.w3.org/2000/svg"
   xmlns:sodipodi="http://sodipodi.sourceforge.net/DTD/sodipodi-0.dtd"
   xmlns:inkscape="http://www.inkscape.org/namespaces/inkscape"
   viewBox="0 0 509.50265 604.72504"
   height="604.72504"
   width="509.50266"
   xml:space="preserve"
   id="svg2"
   version="1.1"
   sodipodi:docname="reactjsday-logo.svg"
   inkscape:version="0.92.2 (5c3e80d, 2017-08-06)"><sodipodi:namedview
     pagecolor="#ffffff"
     bordercolor="#666666"
     borderopacity="1"
     objecttolerance="10"
     gridtolerance="10"
     guidetolerance="10"
     inkscape:pageopacity="0"
     inkscape:pageshadow="2"
     inkscape:window-width="1920"
     inkscape:window-height="1001"
     id="namedview36"
     showgrid="false"
     fit-margin-top="0"
     fit-margin-left="0"
     fit-margin-right="0"
     fit-margin-bottom="0"
     inkscape:zoom="0.29733907"
     inkscape:cx="-473.37349"
     inkscape:cy="33.307038"
     inkscape:window-x="-9"
     inkscape:window-y="-9"
     inkscape:window-maximized="1"
     inkscape:current-layer="svg2" /><metadata
     id="metadata8"><rdf:RDF><cc:Work
         rdf:about=""><dc:format>image/svg+xml</dc:format><dc:type
           rdf:resource="http://purl.org/dc/dcmitype/StillImage" /><dc:title></dc:title></cc:Work></rdf:RDF></metadata><defs
     id="defs6"><clipPath
       id="clipPath18"
       clipPathUnits="userSpaceOnUse"><path
         id="path16"
         d="M 0,595.28 H 841.89 V 0 H 0 Z"
         inkscape:connector-curvature="0" /></clipPath></defs><g
     transform="matrix(1.3333333,0,0,-1.3333333,-306.50853,699.21825)"
     id="g10"
     inkscape:export-xdpi="94.221153"
     inkscape:export-ydpi="94.221153"><g
       id="g12"><g
         clip-path="url(#clipPath18)"
         id="g14"><g
           transform="translate(441.6849,399.1233)"
           id="g20"><path
             id="path22"
             style="fill:#564ca9;fill-opacity:1;fill-rule:nonzero;stroke:none"
             d="M 0,0 C -7.777,0 -15.087,-2.901 -20.727,-8.198 -26.367,-2.901 -33.677,0 -41.455,0 c -16.717,0 -30.317,-13.601 -30.317,-30.318 0,-14.173 8.484,-30.534 25.218,-48.629 12.375,-13.381 24.925,-22.791 25.05,-22.886 0.231,-0.171 0.504,-0.257 0.777,-0.257 0.274,0 0.547,0.086 0.778,0.257 0.125,0.095 12.675,9.505 25.05,22.886 16.733,18.095 25.217,34.456 25.217,48.629 C 30.318,-13.601 16.717,0 0,0"
             inkscape:connector-curvature="0" /></g><g
           transform="translate(549.2294,314.8127)"
           id="g24"><path
             id="path26"
             style="fill:#50ade5;fill-opacity:1;fill-rule:nonzero;stroke:none"
             d="m 0,0 c -6.699,-2.882 -14.02,-5.453 -21.576,-7.867 -4.439,15.266 -10.281,31.156 -17.525,47.435 7.166,16.201 12.93,32.013 17.292,47.201 7.711,-2.415 15.033,-5.063 21.887,-7.945 C 27.651,67.063 45.487,51.641 45.487,39.412 45.41,27.183 27.573,11.683 0,0 m -41.359,-110.993 c -2.337,-1.403 -5.375,-2.026 -8.958,-2.026 -16.123,0 -40.035,12.853 -65.427,36.297 10.904,11.451 21.809,24.457 32.168,38.868 17.603,1.869 34.272,4.75 49.538,8.567 1.791,-7.866 3.194,-15.422 4.05,-22.665 3.661,-29.755 -0.856,-52.888 -11.371,-59.041 m -86.77,46.423 c -7.244,7.476 -14.487,15.811 -21.653,24.924 7.01,-0.312 14.176,-0.545 21.42,-0.545 7.321,0 14.565,0.156 21.653,0.545 -7.01,-9.113 -14.254,-17.448 -21.42,-24.924 m -77.811,-48.837 c -3.506,0.077 -6.465,0.778 -8.802,2.102 -10.593,6.076 -15.189,29.209 -11.606,58.963 0.857,7.321 2.259,15.032 3.973,22.9 15.266,-3.74 31.935,-6.621 49.459,-8.491 10.516,-14.409 21.42,-27.495 32.403,-38.944 -25.392,-23.601 -49.227,-36.53 -65.427,-36.53 m -28.898,105.462 c -7.711,2.415 -15.033,5.063 -21.809,7.945 -27.573,11.761 -45.41,27.183 -45.41,39.412 0,12.229 17.837,27.729 45.41,39.412 6.699,2.882 14.021,5.452 21.576,7.867 4.439,-15.266 10.281,-31.156 17.525,-47.435 -7.166,-16.201 -12.93,-32.012 -17.292,-47.201 m 19.629,197.762 c 2.336,1.402 5.374,2.025 8.957,2.025 v 0.078 c 16.123,0 40.035,-12.852 65.427,-36.296 -10.904,-11.45 -21.809,-24.458 -32.168,-38.868 -17.603,-1.869 -34.272,-4.751 -49.538,-8.568 -1.792,7.79 -3.115,15.345 -4.051,22.589 -3.66,29.754 0.857,52.887 11.373,59.04 m 108.344,-71.347 c -7.01,0.312 -14.176,0.545 -21.42,0.545 -7.321,0 -14.565,-0.156 -21.653,-0.545 7.01,9.113 14.254,17.447 21.42,24.925 7.244,-7.478 14.487,-15.812 21.653,-24.925 m 47.513,-39.178 c -3.583,6.231 -7.399,12.306 -11.216,18.226 11.06,-1.636 21.731,-3.661 31.935,-6.153 -2.882,-10.048 -6.465,-20.407 -10.515,-30.767 -3.194,6.231 -6.543,12.463 -10.204,18.694 m 0.078,-79.526 c 3.583,6.232 6.932,12.541 10.126,18.772 4.206,-10.437 7.789,-20.875 10.748,-31 -10.204,-2.493 -20.952,-4.596 -32.09,-6.231 3.816,5.997 7.633,12.15 11.216,18.459 m -139.111,39.412 c 4.829,10.438 10.281,20.875 16.123,31.078 6.075,10.515 12.306,20.485 18.771,29.754 11.606,1.013 23.367,1.558 35.206,1.558 11.762,0 23.523,-0.545 35.051,-1.48 6.464,-9.269 12.774,-19.161 18.849,-29.598 5.92,-10.203 11.294,-20.563 16.201,-31 -4.907,-10.437 -10.281,-20.875 -16.123,-31.078 -6.075,-10.515 -12.306,-20.485 -18.772,-29.754 -11.605,-1.012 -23.366,-1.557 -35.206,-1.557 -11.761,0 -23.522,0.545 -35.05,1.479 -6.465,9.269 -12.774,19.161 -18.849,29.598 -5.92,10.204 -11.294,20.563 -16.201,31 m -19.862,52.187 c 10.204,2.414 20.952,4.517 32.09,6.153 -3.816,-5.997 -7.633,-12.151 -11.216,-18.46 -3.583,-6.231 -6.932,-12.462 -10.126,-18.694 -4.206,10.438 -7.788,20.875 -10.748,31.001 m 20.952,-91.833 c 3.661,-6.231 7.399,-12.306 11.216,-18.225 -11.06,1.635 -21.731,3.66 -31.935,6.152 2.883,10.048 6.465,20.408 10.515,30.767 3.194,-6.231 6.543,-12.462 10.204,-18.694 M -50.707,192.23 v -0.076 c 3.583,0 6.465,-0.701 8.88,-2.025 10.593,-6.076 15.189,-29.209 11.606,-58.963 -0.857,-7.321 -2.259,-15.033 -3.973,-22.899 -15.266,3.738 -31.934,6.62 -49.46,8.489 -10.515,14.41 -21.419,27.495 -32.402,38.946 25.352,23.563 49.15,36.487 65.349,36.528 M 62.779,39.412 c 0,25.314 -31.701,49.304 -80.304,64.181 11.216,49.538 6.231,88.95 -15.734,101.569 -5.042,2.947 -10.935,4.348 -17.369,4.359 v 0.08 c -21.42,0 -49.46,-15.266 -77.812,-41.749 -28.352,26.327 -56.393,41.438 -77.812,41.438 v -0.078 c -6.543,0 -12.462,-1.402 -17.603,-4.362 -21.887,-12.618 -26.794,-51.953 -15.5,-101.335 -48.448,-14.954 -79.993,-38.867 -79.993,-64.103 0,-25.314 31.701,-49.304 80.304,-64.182 -11.216,-49.537 -6.231,-88.949 15.734,-101.567 5.063,-2.96 10.982,-4.362 17.525,-4.362 21.42,0 49.46,15.266 77.812,41.749 28.352,-26.327 56.392,-41.438 77.812,-41.438 6.543,0 12.462,1.403 17.603,4.363 21.887,12.618 26.794,51.952 15.5,101.334 48.292,14.877 79.837,38.867 79.837,64.103"
             inkscape:connector-curvature="0" /></g><g
           transform="translate(411.7953,352.1755)"
           id="g28"><path
             id="path30"
             style="fill:#ffffff;fill-opacity:1;fill-rule:nonzero;stroke:none"
             d="M 0,0 0.618,8.489 H 17.707 L 18.325,0 Z M 19.398,-14.729 H -1.074 l 0.619,8.489 H 18.78 Z M 1.073,14.729 1.692,23.218 h 14.941 l 0.618,-8.489 z m 21.088,18.483 c -0.124,1.715 -1.619,3.018 -3.338,2.887 -0.831,-0.061 -1.589,-0.441 -2.135,-1.072 -0.544,-0.631 -0.811,-1.436 -0.75,-2.267 l 0.24,-3.302 H 2.146 l 0.241,3.302 c 0.125,1.716 -1.169,3.214 -2.887,3.339 -1.717,0.132 -3.211,-1.173 -3.336,-2.885 l -4.503,-61.791 c -0.061,-0.831 0.206,-1.636 0.751,-2.267 0.545,-0.63 1.303,-1.011 2.144,-1.072 1.678,-0.115 3.205,1.191 3.328,2.886 l 0.588,8.061 h 21.382 l 0.587,-8.061 c 0.118,-1.622 1.484,-2.893 3.11,-2.893 0.072,0 0.144,0.002 0.228,0.007 0.832,0.061 1.589,0.442 2.135,1.073 0.544,0.63 0.811,1.435 0.751,2.266 z"
             inkscape:connector-curvature="0" /></g><g
           transform="translate(237.0287,85.9856)"
           id="g32"><path
             id="path34"
             style="fill:#564ca9;fill-opacity:1;fill-rule:nonzero;stroke:none"
             d="M 0,0 V 37.247 H 13.881 V 33.16 c 2.313,2.699 7.172,5.167 11.413,5.167 V 25.063 c -0.694,0.231 -1.85,0.385 -3.162,0.385 -2.929,0 -6.709,-0.77 -8.251,-2.622 L 13.881,0 Z"
             inkscape:connector-curvature="0" /></g><g
           transform="translate(284.8402,113.594)"
           id="g36"><path
             id="path38"
             style="fill:#564ca9;fill-opacity:1;fill-rule:nonzero;stroke:none"
             d="M 0,0 C -4.242,0 -5.63,-2.776 -6.093,-4.474 H 6.169 C 5.783,-2.854 4.472,0 0,0 m -20.282,-8.946 c 0,10.796 8.251,19.51 20.282,19.51 10.951,0 19.356,-7.866 19.356,-20.975 v -2.854 H -5.938 c 0.771,-2.39 3.47,-4.704 8.02,-4.704 2.082,0 6.709,1.003 8.56,2.622 l 5.706,-8.559 c -3.701,-3.163 -10.333,-4.627 -15.886,-4.627 -11.645,0 -20.744,7.325 -20.744,19.587"
             inkscape:connector-curvature="0" /></g><g
           transform="translate(333.3446,99.8664)"
           id="g40"><path
             id="path42"
             style="fill:#564ca9;fill-opacity:1;fill-rule:nonzero;stroke:none"
             d="m 0,0 v 9.485 c -1.311,1.619 -3.933,2.468 -5.784,2.468 -3.779,0 -6.94,-2.545 -6.94,-7.172 0,-4.627 3.161,-7.326 6.94,-7.326 1.851,0 4.473,0.926 5.784,2.545 m 0,-13.881 v 3.933 c -3.162,-3.547 -6.709,-4.858 -10.488,-4.858 -9.023,0 -16.426,6.785 -16.426,19.587 0,12.339 7.249,19.511 16.426,19.511 3.779,0 7.48,-1.312 10.411,-4.858 v 3.932 h 13.958 v -37.247 z"
             inkscape:connector-curvature="0" /></g><g
           transform="translate(352.39,104.6477)"
           id="g44"><path
             id="path46"
             style="fill:#564ca9;fill-opacity:1;fill-rule:nonzero;stroke:none"
             d="m 0,0 c 0,11.8 9.1,19.511 20.899,19.511 8.483,0 13.727,-3.856 15.809,-7.018 L 27.763,4.087 C 26.606,5.86 24.447,7.249 21.516,7.249 17.583,7.249 14.19,4.782 14.19,0 c 0,-4.781 3.393,-7.326 7.326,-7.326 2.931,0 5.09,1.542 6.247,3.239 l 8.945,-8.482 C 34.626,-15.655 29.382,-19.587 20.899,-19.587 9.1,-19.587 0,-11.876 0,0"
             inkscape:connector-curvature="0" /></g><g
           transform="translate(396.4999,96.7815)"
           id="g48"><path
             id="path50"
             style="fill:#564ca9;fill-opacity:1;fill-rule:nonzero;stroke:none"
             d="m 0,0 v 14.421 h -6.17 v 12.03 H 0 v 10.18 h 13.881 v -10.18 h 7.557 V 14.421 H 13.881 V 4.011 c 0,-1.929 1.234,-3.471 3.085,-3.471 1.233,0 2.468,0.386 2.776,0.694 l 2.467,-10.487 c -1.465,-1.312 -4.704,-2.468 -9.407,-2.468 C 4.55,-11.721 0,-7.789 0,0"
             inkscape:connector-curvature="0" /></g><g
           transform="translate(422.2543,133.7209)"
           id="g52"><path
             id="path54"
             style="fill:#564ca9;fill-opacity:1;fill-rule:nonzero;stroke:none"
             d="m 0,0 c 0,4.318 3.471,7.788 7.789,7.788 4.319,0 7.789,-3.47 7.789,-7.788 0,-4.318 -3.47,-7.788 -7.789,-7.788 C 3.471,-7.788 0,-4.318 0,0 m -11.182,-60.306 3.317,10.257 c 1.542,-1.157 2.468,-1.465 4.627,-1.465 2.544,0 4.087,1.85 4.087,5.398 v 35.628 H 14.73 v -35.628 c 0,-9.562 -4.704,-16.735 -15.501,-16.735 -5.629,0 -7.403,0.695 -10.411,2.545"
             inkscape:connector-curvature="0" /></g><g
           transform="translate(441.5336,90.7658)"
           id="g56"><path
             id="path58"
             style="fill:#564ca9;fill-opacity:1;fill-rule:nonzero;stroke:none"
             d="m 0,0 5.552,9.332 c 2.931,-2.313 9.254,-4.704 13.419,-4.704 2.853,0 3.701,0.693 3.701,1.62 0,3.547 -21.13,-1.003 -21.13,14.42 0,6.71 5.861,12.725 16.657,12.725 6.247,0 11.8,-1.928 16.118,-4.782 l -5.09,-9.022 c -2.313,1.928 -6.632,3.855 -10.951,3.855 -2.005,0 -3.47,-0.771 -3.47,-1.619 0,-3.085 21.131,0.771 21.131,-14.729 0,-7.404 -6.632,-12.801 -17.661,-12.801 C 11.414,-5.705 4.01,-3.315 0,0"
             inkscape:connector-curvature="0" /></g><g
           transform="translate(511.3993,96.1653)"
           id="g60"><path
             id="path62"
             style="fill:#564ca9;fill-opacity:1;fill-rule:nonzero;stroke:none"
             d="m 0,0 v 16.811 c -2.005,3.239 -6.555,6.015 -11.104,6.015 -7.558,0 -12.031,-6.169 -12.031,-14.421 0,-8.251 4.473,-14.343 12.031,-14.343 4.549,0 9.099,2.699 11.104,5.938 m 0,-10.18 v 5.552 c -2.776,-3.778 -7.326,-6.476 -12.57,-6.476 -9.717,0 -16.58,7.402 -16.58,19.509 0,11.953 6.863,19.588 16.58,19.588 5.012,0 9.563,-2.468 12.57,-6.556 v 19.82 H 5.784 V -10.18 Z"
             inkscape:connector-curvature="0" /></g><g
           transform="translate(555.7396,96.1653)"
           id="g64"><path
             id="path66"
             style="fill:#564ca9;fill-opacity:1;fill-rule:nonzero;stroke:none"
             d="m 0,0 v 16.811 c -2.004,3.239 -6.555,6.015 -11.104,6.015 -7.558,0 -12.031,-6.169 -12.031,-14.421 0,-8.251 4.473,-14.343 12.031,-14.343 4.549,0 9.1,2.699 11.104,5.938 m 0,-10.18 v 5.552 c -2.776,-3.778 -7.326,-6.476 -12.57,-6.476 -9.717,0 -16.58,7.402 -16.58,19.509 0,11.953 6.863,19.588 16.58,19.588 5.012,0 9.563,-2.468 12.57,-6.556 v 5.63 H 5.784 V -10.18 Z"
             inkscape:connector-curvature="0" /></g><g
           transform="translate(571.9325,76.6535)"
           id="g68"><path
             id="path70"
             style="fill:#564ca9;fill-opacity:1;fill-rule:nonzero;stroke:none"
             d="m 0,0 c 0.848,-0.385 2.237,-0.616 3.162,-0.616 2.545,0 4.241,0.848 5.552,3.932 l 2.468,5.63 -15.578,37.633 H 1.928 L 14.267,16.041 26.683,46.579 h 6.246 L 14.267,1.774 c -2.236,-5.398 -6.016,-7.48 -10.951,-7.557 -1.233,0 -3.162,0.231 -4.165,0.54 z"
             inkscape:connector-curvature="0" /></g></g></g></g></svg>