<svg width="600" height="200" viewBox="0 0 600 200" fill="none" xmlns="http://www.w3.org/2000/svg">
<path d="M78.958 108.263L81.7143 111.785L86.1766 111.51L83.6794 115.219L85.3198 119.38L81.0207 118.151L77.5707 120.996L77.4106 116.527L73.6389 114.126L77.839 112.593L78.958 108.263Z" fill="black"/>
<path d="M107.293 106.921C111.503 106.921 114.915 103.508 114.915 99.2986C114.915 95.0888 111.503 91.676 107.293 91.676C103.083 91.676 99.6702 95.0888 99.6702 99.2986C99.6702 103.508 103.083 106.921 107.293 106.921Z" fill="black"/>
<path d="M72.2135 93.1777C72.2744 93.1777 74.0932 96.3914 74.1344 96.4295C74.1755 96.4677 77.8344 96.8778 77.8374 96.9387C77.8405 96.9997 75.3357 99.6829 75.3189 99.7134C75.3021 99.7439 76.0568 103.342 76.0248 103.362C75.9928 103.381 72.6525 101.846 72.6129 101.848C72.5733 101.849 69.3855 103.685 69.3535 103.668C69.3214 103.651 69.7422 100.009 69.7209 99.971C69.6995 99.9329 66.9615 97.4784 66.96 97.4388C66.9584 97.3991 70.5624 96.6338 70.599 96.5911C70.6356 96.5485 72.154 93.1808 72.2135 93.1777Z" fill="black"/>
<path d="M66.8274 78.6323C66.9478 78.6323 68.2497 81.4893 68.3244 81.5716C68.3991 81.6539 71.4238 82.3659 71.4177 82.4863C71.4177 82.5656 69.0989 84.6389 69.0577 84.7015C69.0166 84.764 69.3093 87.8389 69.2407 87.874C69.1721 87.909 66.4965 86.3662 66.4096 86.3617C66.3227 86.3571 63.4917 87.5996 63.4292 87.5599C63.3667 87.5203 63.9963 84.4987 63.9552 84.4255C63.914 84.3523 61.8452 82.0457 61.8483 81.9665C61.8483 81.846 64.9385 81.4664 65.0208 81.3917C65.1031 81.317 66.7069 78.6323 66.8274 78.6323Z" fill="black"/>
<path d="M63.5009 65.2545C63.6793 65.2835 64.5178 67.7166 64.6138 67.8538C64.7099 67.991 67.0683 68.921 67.0378 69.0963C67.018 69.2137 64.9629 70.694 64.8913 70.7733C64.8196 70.8525 64.719 73.365 64.6123 73.4031C64.5056 73.4412 62.4642 71.9715 62.3469 71.9517C62.2295 71.9319 59.8085 72.6301 59.7231 72.5615C59.6378 72.4929 60.3817 70.0994 60.3421 69.9927C60.3025 69.886 58.8633 67.802 58.8831 67.6846C58.9136 67.5077 61.4443 67.4239 61.5815 67.3278C61.7187 67.2318 63.3241 65.224 63.5009 65.2545Z" fill="black"/>
<path d="M62.3696 53.5936C62.5983 53.6699 63.0206 55.6395 63.1212 55.8377C63.2218 56.0359 64.8744 57.097 64.7982 57.3257C64.7494 57.4781 63.0191 58.3928 62.9078 58.495C62.7965 58.5971 62.3757 60.4769 62.2263 60.5012C62.0769 60.5256 60.6652 59.2069 60.5143 59.1566C60.3634 59.1063 58.4348 59.3091 58.3357 59.2024C58.2367 59.0956 59.0279 57.3409 58.9974 57.1915C58.9669 57.0421 58.1376 55.2691 58.1879 55.1197C58.2641 54.891 60.2201 55.0389 60.4198 54.9383C60.6195 54.8376 62.141 53.5189 62.3696 53.5936Z" fill="black"/>
<path d="M63.135 44.1887C63.3927 44.3411 63.4582 45.8001 63.5253 46.0715C63.5924 46.3428 64.4964 47.4115 64.3409 47.6692C64.2388 47.8384 62.9124 48.2454 62.7508 48.3354C62.5892 48.4253 61.9489 49.6068 61.7584 49.6038C61.5678 49.6007 60.7598 48.5077 60.5891 48.4055C60.4183 48.3034 59.0645 48.0884 58.9822 47.9268C58.8999 47.7652 59.6408 46.6523 59.6439 46.4602C59.6469 46.2681 59.3923 44.9113 59.4914 44.7406C59.6439 44.4829 61.0159 44.7878 61.2812 44.7192C61.5465 44.6506 62.8774 44.0347 63.135 44.1887Z" fill="black"/>
<path d="M65.8257 37.217C66.0498 37.4991 65.8791 38.3939 65.8425 38.7263C65.8059 39.0586 65.9461 39.9032 65.6641 40.1289C65.4781 40.2813 64.6594 40.2813 64.4445 40.3209C64.2295 40.3606 63.5801 40.7783 63.3666 40.699C63.1532 40.6198 62.859 39.8849 62.7096 39.6989C62.5602 39.5129 61.9153 39.0525 61.8833 38.833C61.8513 38.6135 62.4092 38.0829 62.4931 37.8695C62.5769 37.6561 62.7721 36.8679 62.9504 36.72C63.2325 36.4944 64.0176 36.8237 64.353 36.8603C64.6884 36.8969 65.597 36.935 65.8257 37.217Z" fill="black"/>
<path d="M69.1797 34.8098C70.0216 34.8098 70.7042 34.1272 70.7042 33.2853C70.7042 32.4433 70.0216 31.7607 69.1797 31.7607C68.3377 31.7607 67.6552 32.4433 67.6552 33.2853C67.6552 34.1272 68.3377 34.8098 69.1797 34.8098Z" fill="black"/>
<path d="M95.054 132.738C95.0219 132.789 91.3448 132.417 91.2899 132.433C91.235 132.448 88.7882 135.194 88.7378 135.162C88.6875 135.129 87.942 131.536 87.9253 131.503C87.9085 131.469 84.5363 130.012 84.5393 129.978C84.5424 129.945 87.724 128.098 87.7408 128.065C87.7576 128.031 88.1021 124.371 88.1357 124.353C88.1692 124.334 90.9042 126.792 90.9423 126.792C90.9804 126.792 94.5707 125.976 94.6012 125.998C94.6317 126.019 93.1788 129.406 93.191 129.46C93.2032 129.513 95.0875 132.687 95.054 132.738Z" fill="black"/>
<path d="M104.954 144.675C104.899 144.781 101.765 144.827 101.658 144.858C101.551 144.888 99.6762 147.372 99.5756 147.317C99.5055 147.282 98.539 144.326 98.4993 144.268C98.4597 144.21 95.528 143.232 95.5234 143.156C95.5189 143.08 98.0145 141.246 98.0511 141.174C98.0877 141.103 98.0953 138.005 98.1563 137.965C98.2173 137.926 100.736 139.714 100.812 139.711C100.888 139.708 103.841 138.738 103.911 138.775C104.018 138.83 103.122 141.806 103.157 141.911C103.192 142.016 105.006 144.566 104.954 144.675Z" fill="black"/>
<path d="M114.88 154.249C114.818 154.418 112.272 154.804 112.121 154.872C111.97 154.941 110.63 157.093 110.462 157.031C110.349 156.988 109.264 154.698 109.192 154.613C109.121 154.528 106.678 153.977 106.66 153.865C106.642 153.752 108.456 152.008 108.489 151.896C108.523 151.785 108.281 149.279 108.366 149.209C108.451 149.138 110.67 150.3 110.782 150.276C110.895 150.251 113.202 149.209 113.315 149.257C113.484 149.321 113.109 151.828 113.177 151.979C113.246 152.13 114.943 154.076 114.88 154.249Z" fill="black"/>
<path d="M124.412 161.056C124.363 161.29 122.459 161.95 122.277 162.072C122.096 162.194 121.241 163.963 121.006 163.914C120.853 163.882 119.725 162.277 119.614 162.178C119.503 162.078 117.591 161.889 117.544 161.745C117.496 161.6 118.64 160.036 118.672 159.88C118.704 159.725 118.265 157.836 118.367 157.726C118.469 157.616 120.3 158.183 120.445 158.139C120.59 158.095 122.248 157.054 122.404 157.086C122.639 157.134 122.73 159.097 122.852 159.283C122.974 159.469 124.46 160.819 124.412 161.056Z" fill="black"/>
<path d="M132.94 165.096C132.94 165.401 131.749 166.231 131.556 166.433C131.362 166.634 130.946 167.966 130.641 167.971C130.443 167.971 129.389 167.073 129.228 166.983C129.066 166.893 127.726 166.983 127.627 166.821C127.528 166.66 128.019 165.39 128.016 165.192C128.013 164.993 127.473 163.742 127.558 163.58C127.644 163.419 128.988 163.454 129.153 163.355C129.318 163.256 130.327 162.313 130.525 162.31C130.83 162.31 131.301 163.621 131.501 163.815C131.7 164.009 132.935 164.794 132.94 165.096Z" fill="black"/>
<path d="M140.322 166.254C140.454 166.59 140.029 167.399 139.895 167.706C139.761 168.012 139.651 168.86 139.315 168.991C139.094 169.078 138.308 168.852 138.096 168.818C137.884 168.785 137.135 169.006 136.957 168.864C136.779 168.722 136.707 167.936 136.62 167.715C136.533 167.494 136.048 166.866 136.082 166.648C136.115 166.43 136.806 166.082 136.948 165.902C137.09 165.722 137.506 165.027 137.727 164.94C138.062 164.807 138.724 165.352 139.03 165.486C139.337 165.62 140.19 165.917 140.322 166.254Z" fill="black"/>
<path d="M145.406 166.837C146.248 166.837 146.93 166.154 146.93 165.312C146.93 164.47 146.248 163.788 145.406 163.788C144.564 163.788 143.881 164.47 143.881 165.312C143.881 166.154 144.564 166.837 145.406 166.837Z" fill="black"/>
<path d="M140.498 127.252C140.377 127.043 140.308 126.808 140.295 126.566C140.283 126.325 140.328 126.084 140.427 125.863C140.527 125.643 140.677 125.449 140.866 125.298C141.055 125.147 141.277 125.043 141.514 124.995C142.497 124.795 143.496 124.582 144.464 124.36C144.858 124.271 145.272 124.342 145.614 124.558C145.956 124.774 146.198 125.116 146.288 125.511C146.377 125.905 146.306 126.319 146.09 126.661C145.875 127.003 145.532 127.245 145.138 127.335C144.14 127.56 143.127 127.778 142.122 127.983C141.809 128.046 141.484 128.01 141.193 127.879C140.901 127.748 140.658 127.529 140.498 127.252Z" fill="black"/>
<path d="M71.4467 72.8712C71.3641 72.7293 71.3054 72.5748 71.2729 72.4138C71.2331 72.2176 71.2323 72.0155 71.2706 71.819C71.3088 71.6225 71.3854 71.4355 71.496 71.2685C71.6066 71.1016 71.7489 70.9581 71.9149 70.8463C72.0809 70.7344 72.2674 70.6563 72.4636 70.6164C78.2571 69.4498 84.1097 68.5989 89.9956 68.0674C90.1976 68.0438 90.4022 68.0609 90.5975 68.1176C90.7929 68.1743 90.9748 68.2695 91.1328 68.3976C91.2907 68.5257 91.4215 68.6841 91.5173 68.8635C91.6131 69.0429 91.672 69.2396 91.6906 69.4421C91.7092 69.6446 91.6871 69.8488 91.6256 70.0427C91.5641 70.2365 91.4645 70.4161 91.3325 70.5708C91.2006 70.7256 91.039 70.8524 90.8573 70.9437C90.6756 71.0351 90.4775 71.0891 90.2746 71.1027C84.4994 71.6243 78.7567 72.4584 73.0719 73.6014C72.7586 73.6655 72.4332 73.6295 72.1415 73.4984C71.8499 73.3674 71.6068 73.148 71.4467 72.8712Z" fill="black"/>
<path d="M123.128 129.776C122.999 129.554 122.927 129.303 122.921 129.046C122.914 128.79 122.973 128.536 123.09 128.307C123.208 128.079 123.382 127.885 123.595 127.742C123.808 127.599 124.054 127.512 124.31 127.489C130.085 126.968 135.829 126.133 141.514 124.989C141.91 124.908 142.322 124.988 142.66 125.211C142.997 125.434 143.232 125.781 143.313 126.178C143.394 126.574 143.314 126.986 143.091 127.323C142.868 127.661 142.52 127.896 142.124 127.977C136.33 129.143 130.477 129.994 124.592 130.526C124.301 130.554 124.009 130.498 123.75 130.365C123.491 130.232 123.275 130.027 123.128 129.776Z" fill="black"/>
<path d="M111.237 69.6375C111.101 69.4026 111.03 69.1357 111.032 68.8644C111.034 68.5931 111.108 68.3272 111.247 68.0941C111.386 67.8611 111.585 67.6693 111.822 67.5386C112.06 67.4079 112.328 67.3431 112.6 67.3507C113.932 67.3873 115.271 67.4376 116.582 67.5032C116.986 67.5234 117.366 67.7034 117.637 68.0036C117.909 68.3038 118.05 68.6996 118.03 69.1039C118.01 69.5082 117.83 69.888 117.53 70.1596C117.229 70.4312 116.834 70.5724 116.429 70.5522C115.139 70.4897 113.821 70.4394 112.511 70.3998C112.251 70.3919 111.998 70.3177 111.775 70.1843C111.552 70.0509 111.367 69.8627 111.237 69.6375Z" fill="black"/>
<path d="M115.187 69.7901C115.049 69.5528 114.978 69.2829 114.982 69.0087C114.985 68.7345 115.062 68.4662 115.204 68.2321C115.347 67.998 115.551 67.8067 115.793 67.6785C116.035 67.5502 116.308 67.4897 116.582 67.5033C119.276 67.6329 121.969 67.822 124.589 68.0628C124.984 68.109 125.345 68.3078 125.596 68.6168C125.846 68.9258 125.966 69.3205 125.93 69.7166C125.893 70.1128 125.703 70.479 125.401 70.7371C125.098 70.9952 124.706 71.1248 124.31 71.0982C121.733 70.8619 119.085 70.6774 116.435 70.5493C116.18 70.5375 115.932 70.4617 115.714 70.3291C115.496 70.1964 115.315 70.0111 115.187 69.7901Z" fill="black"/>
<path d="M135.204 71.8925C135.059 71.6422 134.989 71.356 135.001 71.0672C135.013 70.7785 135.107 70.4991 135.272 70.2617C135.436 70.0242 135.665 69.8385 135.932 69.7262C136.198 69.6138 136.49 69.5794 136.775 69.627C141.607 70.4202 146.394 71.4675 151.115 72.7645C151.31 72.8164 151.492 72.9064 151.652 73.0292C151.812 73.1521 151.946 73.3054 152.046 73.4804C152.146 73.6553 152.211 73.8484 152.236 74.0483C152.261 74.2483 152.246 74.4513 152.192 74.6455C152.138 74.8397 152.046 75.0213 151.921 75.1798C151.797 75.3383 151.642 75.4705 151.466 75.5687C151.29 75.667 151.096 75.7294 150.896 75.7523C150.696 75.7753 150.493 75.7582 150.3 75.7023C145.681 74.434 141 73.4101 136.274 72.6349C136.052 72.5979 135.841 72.5121 135.656 72.3838C135.47 72.2554 135.316 72.0876 135.204 71.8925Z" fill="black"/>
<path d="M158.105 122.307C158.062 122.234 158.026 122.157 157.997 122.078C157.855 121.7 157.869 121.28 158.037 120.912C158.204 120.544 158.51 120.258 158.889 120.116C173.573 114.611 181.994 107.02 181.994 99.2986C181.994 94.7891 179.098 90.2445 173.635 86.1572C168.103 82.0197 160.041 78.405 150.3 75.7021C150.105 75.6502 149.922 75.5602 149.762 75.4373C149.603 75.3145 149.469 75.1611 149.369 74.9862C149.269 74.8113 149.204 74.6182 149.179 74.4182C149.154 74.2182 149.169 74.0152 149.223 73.821C149.277 73.6268 149.369 73.4452 149.493 73.2868C149.618 73.1283 149.773 72.9961 149.949 72.8978C150.125 72.7996 150.318 72.7372 150.519 72.7142C150.719 72.6913 150.922 72.7083 151.115 72.7643C161.209 75.5679 169.629 79.3533 175.462 83.7149C178.511 85.9895 180.862 88.4272 182.475 90.958C184.185 93.6518 185.051 96.4569 185.051 99.2986C185.051 104.037 182.7 108.565 178.063 112.756C173.762 116.643 167.675 120.073 159.968 122.97C159.629 123.099 159.256 123.103 158.915 122.981C158.573 122.86 158.286 122.621 158.105 122.307Z" fill="black"/>
<path d="M155.222 123.334C155.173 123.247 155.131 123.155 155.099 123.06C154.969 122.677 154.997 122.258 155.176 121.896C155.355 121.533 155.67 121.257 156.053 121.127C157.006 120.805 157.96 120.464 158.889 120.116C159.078 120.037 159.281 119.997 159.486 119.999C159.691 120 159.894 120.043 160.082 120.124C160.27 120.206 160.44 120.324 160.581 120.473C160.722 120.622 160.832 120.797 160.904 120.989C160.976 121.181 161.008 121.386 160.999 121.59C160.99 121.795 160.939 121.996 160.851 122.181C160.762 122.366 160.638 122.531 160.484 122.667C160.33 122.802 160.15 122.905 159.956 122.97C158.995 123.33 158.011 123.682 157.027 124.014C156.694 124.126 156.332 124.12 156.004 123.996C155.675 123.872 155.399 123.638 155.222 123.334Z" fill="black"/>
<path d="M143.48 126.611C143.404 126.478 143.347 126.334 143.313 126.185C143.268 125.989 143.262 125.787 143.295 125.589C143.329 125.391 143.401 125.201 143.508 125.031C143.615 124.861 143.754 124.714 143.918 124.598C144.082 124.482 144.268 124.4 144.464 124.356C146.461 123.898 148.427 123.411 150.3 122.891C150.688 122.787 151.101 122.841 151.449 123.041C151.798 123.24 152.053 123.569 152.161 123.956C152.268 124.343 152.219 124.757 152.023 125.107C151.827 125.458 151.501 125.717 151.115 125.828C149.193 126.362 147.18 126.867 145.138 127.33C144.821 127.402 144.489 127.372 144.191 127.242C143.893 127.113 143.644 126.891 143.48 126.611Z" fill="black"/>
<path d="M88.8156 70.3449C88.688 70.1234 88.6181 69.8734 88.6124 69.6178C88.6068 69.3622 88.6655 69.1092 88.7831 68.8823C88.9008 68.6553 89.0736 68.4616 89.2858 68.3189C89.4979 68.1762 89.7425 68.0892 89.9971 68.0658C95.6378 67.5474 101.455 67.2837 107.293 67.2837C109.044 67.2837 110.83 67.3081 112.6 67.3569C112.8 67.3623 112.997 67.4071 113.18 67.4887C113.363 67.5703 113.528 67.6871 113.666 67.8325C113.803 67.9779 113.911 68.149 113.983 68.336C114.054 68.523 114.088 68.7224 114.083 68.9226C114.078 69.1228 114.033 69.3199 113.951 69.5028C113.87 69.6857 113.753 69.8508 113.607 69.9885C113.462 70.1262 113.291 70.234 113.104 70.3056C112.917 70.3772 112.718 70.4113 112.517 70.4059C110.775 70.3587 109.011 70.3343 107.293 70.3343C101.548 70.3343 95.8238 70.5934 90.2761 71.0965C89.9863 71.1237 89.6948 71.0674 89.436 70.9342C89.1772 70.8011 88.9619 70.5966 88.8156 70.3449Z" fill="black"/>
<path d="M123.128 70.3449C122.989 70.1028 122.918 69.8271 122.925 69.5479C122.931 69.2686 123.015 68.9965 123.165 68.7613C123.316 68.5261 123.529 68.3369 123.779 68.2142C124.03 68.0915 124.31 68.0402 124.588 68.0657C127.316 68.3157 130.042 68.6313 132.687 69.0018C132.885 69.0295 133.076 69.096 133.249 69.1975C133.421 69.299 133.572 69.4335 133.693 69.5934C133.813 69.7532 133.901 69.9352 133.951 70.129C134.002 70.3228 134.013 70.5247 133.986 70.723C133.958 70.9213 133.891 71.1122 133.79 71.2848C133.688 71.4574 133.554 71.6083 133.394 71.7289C133.234 71.8495 133.052 71.9374 132.858 71.9877C132.665 72.038 132.463 72.0496 132.264 72.0219C129.673 71.6575 126.99 71.348 124.309 71.1071C124.066 71.0843 123.831 71.003 123.626 70.8704C123.42 70.7377 123.249 70.5574 123.128 70.3449Z" fill="black"/>
<path d="M131.155 71.2734C131.012 71.026 130.942 70.7435 130.952 70.4581C130.962 70.1727 131.052 69.8958 131.211 69.6591C131.371 69.4223 131.594 69.2352 131.855 69.119C132.116 69.0028 132.404 68.9622 132.687 69.0018C134.048 69.1924 135.423 69.4028 136.776 69.6269C137.174 69.6932 137.531 69.9152 137.766 70.2442C138.001 70.5731 138.096 70.982 138.029 71.3808C137.963 71.7797 137.741 72.1359 137.412 72.371C137.083 72.6062 136.674 72.7011 136.276 72.6348C134.949 72.4152 133.6 72.2079 132.264 72.0249C132.034 71.9925 131.815 71.9079 131.623 71.7777C131.43 71.6474 131.27 71.4749 131.155 71.2734Z" fill="black"/>
<path d="M149.386 125.13C149.321 125.019 149.27 124.899 149.234 124.775C149.181 124.582 149.166 124.38 149.19 124.181C149.215 123.982 149.279 123.79 149.378 123.615C149.477 123.441 149.61 123.288 149.768 123.165C149.927 123.042 150.108 122.951 150.301 122.898C152.283 122.348 154.218 121.754 156.055 121.13C156.436 121.006 156.851 121.037 157.21 121.217C157.568 121.397 157.841 121.71 157.97 122.09C158.099 122.47 158.073 122.885 157.897 123.246C157.722 123.607 157.412 123.884 157.033 124.017C155.143 124.659 153.152 125.271 151.117 125.836C150.791 125.927 150.444 125.907 150.131 125.779C149.817 125.652 149.556 125.423 149.386 125.13Z" fill="black"/>
<path d="M100.705 130.478C100.57 130.243 100.499 129.976 100.501 129.705C100.503 129.434 100.577 129.168 100.716 128.935C100.855 128.702 101.053 128.51 101.291 128.379C101.529 128.249 101.797 128.184 102.068 128.191C103.808 128.239 105.566 128.263 107.293 128.263C113.036 128.263 118.762 128.004 124.31 127.501C124.712 127.464 125.113 127.588 125.424 127.847C125.735 128.105 125.93 128.477 125.967 128.88C126.004 129.282 125.88 129.683 125.621 129.994C125.363 130.305 124.991 130.501 124.589 130.538C118.948 131.056 113.129 131.32 107.293 131.32C105.538 131.32 103.751 131.295 101.986 131.247C101.724 131.239 101.469 131.164 101.245 131.03C101.021 130.895 100.835 130.705 100.705 130.478Z" fill="black"/>
<path d="M62.5587 125.13C62.4078 124.868 62.3382 124.567 62.3588 124.265C62.3794 123.964 62.4892 123.675 62.6744 123.436C62.8596 123.197 63.1117 123.018 63.3987 122.923C63.6857 122.827 63.9945 122.819 64.286 122.9C68.9041 124.168 73.5858 125.192 78.3116 125.967C78.5138 125.995 78.7085 126.062 78.8841 126.166C79.0596 126.27 79.2125 126.409 79.3337 126.573C79.4548 126.737 79.5418 126.924 79.5894 127.122C79.637 127.321 79.6443 127.527 79.6108 127.728C79.5773 127.929 79.5037 128.122 79.3945 128.294C79.2852 128.467 79.1424 128.615 78.9747 128.731C78.8069 128.848 78.6175 128.929 78.4177 128.97C78.2179 129.012 78.0118 129.013 77.8116 128.974C72.9799 128.181 68.1933 127.134 63.4719 125.838C63.0865 125.731 62.7586 125.477 62.5587 125.13Z" fill="black"/>
<path d="M31.7008 106.95C30.2678 104.468 29.5421 101.898 29.5421 99.2986C29.5421 94.5604 31.8929 90.0326 36.5305 85.8417C40.8312 81.9541 46.9186 78.5239 54.6251 75.6273C54.8143 75.5484 55.0175 75.5084 55.2225 75.5098C55.4275 75.5112 55.6301 75.5539 55.8182 75.6354C56.0063 75.7169 56.1761 75.8355 56.3173 75.9841C56.4585 76.1327 56.5683 76.3083 56.6401 76.5003C56.7119 76.6924 56.7443 76.8969 56.7352 77.1017C56.7261 77.3065 56.6759 77.5074 56.5874 77.6923C56.4989 77.8773 56.374 78.0424 56.2202 78.178C56.0664 78.3135 55.8868 78.4167 55.6923 78.4813C41.0126 83.9894 32.5912 91.5769 32.5912 99.2986C32.5912 101.348 33.1888 103.406 34.3535 105.424C35.7515 107.845 37.9666 110.211 40.9501 112.437C46.4826 116.575 54.5519 120.189 64.286 122.892C64.4808 122.944 64.6633 123.034 64.8231 123.157C64.9829 123.28 65.1167 123.433 65.2168 123.608C65.3169 123.783 65.3814 123.976 65.4064 124.176C65.4314 124.376 65.4166 124.579 65.3627 124.773C65.3087 124.967 65.2168 125.149 65.0923 125.307C64.9677 125.466 64.813 125.598 64.637 125.696C64.461 125.795 64.2673 125.857 64.0671 125.88C63.8668 125.903 63.664 125.886 63.4704 125.83C53.375 123.026 44.9566 119.241 39.1237 114.879C36.0747 112.605 33.7239 110.167 32.1186 107.636C31.9722 107.408 31.833 107.179 31.7008 106.95Z" fill="black"/>
<path d="M105.971 49.9302C105.803 49.6373 105.736 49.2967 105.782 48.962C105.828 48.6273 105.984 48.3174 106.226 48.0809C107.732 46.6021 109.256 45.1843 110.76 43.8656C111.066 43.6226 111.454 43.5066 111.843 43.5415C112.233 43.5764 112.594 43.7596 112.852 44.0532C113.11 44.3468 113.246 44.7284 113.23 45.1191C113.215 45.5098 113.051 45.8797 112.77 46.1524C111.311 47.433 109.828 48.8127 108.363 50.2518C108.22 50.3923 108.051 50.5032 107.865 50.5782C107.679 50.6532 107.481 50.6909 107.28 50.6891C107.08 50.6872 106.882 50.6459 106.698 50.5675C106.513 50.4891 106.346 50.3751 106.206 50.232C106.116 50.1409 106.037 50.0396 105.971 49.9302Z" fill="black"/>
<path d="M112.257 143.556C112.097 143.279 112.029 142.959 112.061 142.641C112.093 142.323 112.225 142.023 112.436 141.784C116.27 137.432 119.864 132.875 123.204 128.133C123.441 127.812 123.794 127.597 124.188 127.533C124.582 127.469 124.985 127.563 125.311 127.793C125.637 128.023 125.86 128.372 125.931 128.765C126.003 129.157 125.917 129.562 125.694 129.893C122.29 134.726 118.626 139.37 114.717 143.804C114.557 143.985 114.356 144.125 114.131 144.213C113.906 144.301 113.663 144.335 113.422 144.31C113.182 144.286 112.951 144.205 112.748 144.074C112.545 143.943 112.376 143.765 112.255 143.556H112.257Z" fill="black"/>
<path d="M99.6869 56.5664C99.5271 56.2894 99.4585 55.9691 99.4908 55.6509C99.5231 55.3327 99.6546 55.0327 99.8668 54.7934C100.544 54.0311 101.239 53.2567 101.934 52.5066C102.209 52.2096 102.59 52.0339 102.994 52.018C103.398 52.0022 103.792 52.1475 104.089 52.422C104.386 52.6966 104.562 53.0778 104.578 53.4819C104.593 53.8861 104.448 54.2799 104.174 54.5769C103.494 55.3117 102.814 56.0633 102.149 56.8134C101.989 56.9945 101.788 57.1349 101.563 57.2231C101.338 57.3112 101.095 57.3446 100.855 57.3205C100.614 57.2964 100.383 57.2154 100.18 57.0843C99.9768 56.9532 99.8079 56.7757 99.6869 56.5664Z" fill="black"/>
<path d="M76.9975 89.4137C76.8668 89.188 76.7963 88.9326 76.7925 88.6718C76.7888 88.411 76.852 88.1536 76.9761 87.9243C77.8192 86.3662 78.6912 84.8081 79.5678 83.2912C82.4858 78.2359 85.6232 73.3285 88.8918 68.7031C89.0074 68.5396 89.1541 68.4005 89.3235 68.2937C89.4929 68.187 89.6816 68.1146 89.879 68.0808C90.0763 68.0469 90.2784 68.0523 90.4736 68.0966C90.6689 68.1408 90.8535 68.2231 91.017 68.3387C91.1805 68.4543 91.3196 68.601 91.4263 68.7704C91.5331 68.9398 91.6055 69.1285 91.6393 69.3259C91.6732 69.5232 91.6678 69.7253 91.6235 69.9205C91.5793 70.1158 91.497 70.3004 91.3814 70.4639C88.1661 75.0131 85.079 79.8412 82.2083 84.8158C81.3454 86.3098 80.4871 87.8435 79.6578 89.3756C79.5288 89.614 79.3386 89.8137 79.1067 89.9541C78.8749 90.0945 78.6098 90.1706 78.3388 90.1745C78.0678 90.1783 77.8006 90.1099 77.5649 89.9762C77.3291 89.8425 77.1333 89.6483 76.9975 89.4137Z" fill="black"/>
<path d="M140.285 100.062C140.162 99.851 140.093 99.6132 140.081 99.3691C140.07 99.125 140.117 98.8818 140.219 98.6599C141.348 96.2206 142.418 93.7417 143.401 91.3117C143.555 90.9395 143.849 90.6432 144.22 90.4873C144.591 90.3315 145.009 90.3287 145.382 90.4797C145.755 90.6306 146.054 90.923 146.212 91.2931C146.37 91.6632 146.376 92.0809 146.228 92.455C145.226 94.9309 144.136 97.4479 142.989 99.9359C142.873 100.19 142.688 100.407 142.457 100.563C142.225 100.719 141.955 100.809 141.676 100.822C141.397 100.835 141.119 100.771 140.874 100.637C140.629 100.503 140.425 100.304 140.285 100.062Z" fill="black"/>
<path d="M62.5587 125.13C62.3587 124.784 62.3039 124.373 62.4063 123.987C63.6431 119.25 65.129 114.581 66.8579 110.001C66.9248 109.809 67.0293 109.633 67.1653 109.482C67.3013 109.331 67.466 109.209 67.6498 109.123C67.8336 109.037 68.0327 108.988 68.2355 108.98C68.4383 108.972 68.6407 109.004 68.8309 109.075C69.021 109.147 69.195 109.255 69.3427 109.394C69.4905 109.533 69.6089 109.701 69.6911 109.886C69.7733 110.072 69.8176 110.272 69.8214 110.475C69.8252 110.678 69.7885 110.879 69.7133 111.068C68.022 115.548 66.5681 120.113 65.3578 124.746C65.282 125.039 65.1208 125.303 64.8946 125.504C64.6684 125.705 64.3875 125.834 64.0877 125.875C63.7878 125.916 63.4826 125.867 63.2109 125.733C62.9391 125.6 62.7132 125.389 62.5618 125.127L62.5587 125.13Z" fill="black"/>
<path d="M62.8697 160.937C62.7366 160.707 62.6075 160.472 62.4825 160.231C61.0921 157.575 60.1606 154.316 59.7124 150.542C58.8526 143.31 59.7826 134.126 62.4032 123.982C62.4497 123.785 62.5351 123.598 62.6546 123.434C62.774 123.27 62.9251 123.131 63.0988 123.026C63.2725 122.921 63.4655 122.852 63.6664 122.823C63.8672 122.793 64.0719 122.804 64.2685 122.855C64.465 122.906 64.6495 122.995 64.811 123.118C64.9725 123.241 65.1078 123.395 65.209 123.571C65.3101 123.747 65.3751 123.942 65.4002 124.143C65.4252 124.345 65.4097 124.549 65.3547 124.744C62.8286 134.526 61.9245 143.322 62.7401 150.183C63.5466 156.962 66.0377 161.737 69.942 163.992C76.6285 167.852 87.41 164.353 99.5177 154.387C99.6724 154.26 99.8506 154.165 100.042 154.106C100.234 154.048 100.435 154.028 100.634 154.047C100.834 154.067 101.027 154.125 101.204 154.219C101.381 154.313 101.537 154.442 101.664 154.596C101.791 154.751 101.887 154.929 101.945 155.121C102.004 155.312 102.024 155.513 102.004 155.713C101.985 155.912 101.927 156.106 101.832 156.282C101.738 156.459 101.61 156.615 101.455 156.743C95.0966 161.973 89.0824 165.53 83.5666 167.309C77.621 169.229 72.5215 169.001 68.4175 166.632C66.1657 165.333 64.3012 163.419 62.8697 160.937Z" fill="black"/>
<path d="M144.982 88.8298C144.869 88.6346 144.801 88.4169 144.783 88.1923C144.764 87.9677 144.796 87.7418 144.875 87.5309C146.566 83.0512 148.02 78.4855 149.231 73.8528C149.277 73.6552 149.363 73.4689 149.482 73.3047C149.602 73.1406 149.753 73.002 149.927 72.897C150.1 72.792 150.293 72.7228 150.494 72.6933C150.695 72.6639 150.9 72.6749 151.096 72.7257C151.293 72.7764 151.477 72.866 151.639 72.9889C151.8 73.1119 151.936 73.266 152.037 73.442C152.138 73.6179 152.203 73.8124 152.228 74.0138C152.253 74.2153 152.237 74.4197 152.182 74.6151C150.946 79.3523 149.459 84.0208 147.729 88.6011C147.628 88.8708 147.451 89.1061 147.221 89.2798C146.991 89.4535 146.717 89.5584 146.429 89.5823C146.142 89.6063 145.854 89.5483 145.598 89.4151C145.343 89.2819 145.13 89.0789 144.985 88.8298H144.982Z" fill="black"/>
<path d="M112.781 43.7893C112.601 43.4769 112.538 43.1107 112.602 42.756C112.667 42.4012 112.855 42.0808 113.133 41.8516C119.489 36.6225 125.503 33.0689 131.019 31.2882C136.965 29.3673 142.064 29.596 146.168 31.9651C148.629 33.3844 150.626 35.5401 152.103 38.3681C153.486 41.0223 154.425 44.2817 154.873 48.0549C155.733 55.2857 154.803 64.471 152.182 74.6152C152.136 74.8128 152.05 74.9991 151.931 75.1633C151.811 75.3274 151.66 75.4661 151.487 75.571C151.313 75.676 151.12 75.7453 150.919 75.7747C150.718 75.8041 150.514 75.7931 150.317 75.7423C150.12 75.6916 149.936 75.6021 149.775 75.4791C149.613 75.3561 149.478 75.2021 149.377 75.0261C149.275 74.8501 149.21 74.6556 149.185 74.4542C149.16 74.2527 149.176 74.0483 149.231 73.8529C151.757 64.07 152.661 55.2751 151.845 48.4147C151.047 41.6352 148.549 36.8604 144.644 34.6056C137.957 30.744 127.176 34.2443 115.068 44.2101C114.897 44.3502 114.697 44.4515 114.483 44.5068C114.269 44.5622 114.045 44.5702 113.828 44.5305C113.61 44.4907 113.404 44.4041 113.223 44.2767C113.042 44.1492 112.891 43.984 112.781 43.7924V43.7893Z" fill="black"/>
<path d="M143.494 92.6458C143.378 92.4451 143.31 92.2207 143.293 91.9896C143.277 91.7584 143.314 91.5266 143.401 91.3118C143.907 90.0602 144.404 88.7872 144.875 87.531C144.94 87.3364 145.043 87.1569 145.179 87.0031C145.314 86.8493 145.479 86.7244 145.664 86.6359C145.849 86.5474 146.05 86.4971 146.255 86.4881C146.46 86.479 146.664 86.5113 146.856 86.5831C147.048 86.6549 147.224 86.7647 147.372 86.906C147.521 87.0472 147.64 87.2169 147.721 87.4051C147.803 87.5932 147.845 87.7958 147.847 88.0008C147.848 88.2058 147.808 88.409 147.729 88.5982C147.249 89.8803 146.744 91.1762 146.228 92.4522C146.12 92.7169 145.941 92.9463 145.71 93.1141C145.479 93.2819 145.205 93.3814 144.92 93.4012C144.635 93.4211 144.351 93.3605 144.098 93.2264C143.846 93.0923 143.637 92.8901 143.494 92.6427V92.6458Z" fill="black"/>
<path d="M136.795 107.216C136.667 106.994 136.597 106.745 136.59 106.489C136.584 106.234 136.642 105.981 136.759 105.753C137.978 103.4 139.136 101.012 140.219 98.6599C140.389 98.2926 140.697 98.0076 141.077 97.8676C141.456 97.7277 141.876 97.7442 142.243 97.9136C142.611 98.0831 142.896 98.3915 143.036 98.771C143.175 99.1505 143.159 99.5701 142.99 99.9374C141.886 102.329 140.703 104.756 139.469 107.15C139.344 107.393 139.156 107.598 138.924 107.743C138.692 107.888 138.425 107.969 138.152 107.975C137.878 107.982 137.608 107.915 137.369 107.781C137.131 107.648 136.933 107.452 136.795 107.216Z" fill="black"/>
<path d="M123.128 129.777C122.982 129.524 122.912 129.235 122.925 128.944C122.939 128.653 123.036 128.371 123.204 128.133C126.419 123.584 129.507 118.756 132.377 113.782C133.242 112.286 134.1 110.751 134.928 109.222C135.023 109.046 135.152 108.89 135.308 108.764C135.463 108.638 135.642 108.543 135.834 108.486C136.025 108.429 136.227 108.41 136.426 108.431C136.625 108.452 136.818 108.511 136.994 108.607C137.17 108.702 137.326 108.831 137.452 108.986C137.578 109.142 137.673 109.321 137.73 109.512C137.787 109.704 137.806 109.906 137.785 110.105C137.764 110.304 137.705 110.497 137.609 110.673C136.768 112.227 135.896 113.786 135.018 115.306C132.098 120.36 128.961 125.269 125.692 129.893C125.545 130.102 125.347 130.27 125.117 130.383C124.888 130.496 124.633 130.549 124.378 130.537C124.122 130.526 123.873 130.45 123.655 130.317C123.436 130.184 123.254 129.998 123.126 129.777H123.128Z" fill="black"/>
<path d="M134.949 110.711C134.818 110.486 134.748 110.23 134.744 109.969C134.74 109.709 134.804 109.451 134.928 109.222C135.551 108.071 136.167 106.905 136.757 105.754C136.849 105.576 136.975 105.417 137.128 105.288C137.28 105.159 137.457 105.061 137.648 105C137.839 104.939 138.039 104.916 138.239 104.932C138.438 104.949 138.633 105.005 138.811 105.097C138.989 105.188 139.147 105.314 139.276 105.467C139.406 105.62 139.504 105.797 139.565 105.987C139.626 106.178 139.648 106.379 139.632 106.578C139.615 106.778 139.56 106.972 139.468 107.15C138.867 108.319 138.248 109.504 137.608 110.673C137.479 110.912 137.289 111.111 137.057 111.252C136.825 111.392 136.56 111.468 136.289 111.472C136.018 111.476 135.751 111.408 135.515 111.274C135.279 111.14 135.083 110.946 134.948 110.711H134.949Z" fill="black"/>
<path d="M110.442 45.7712C110.269 45.4667 110.205 45.1118 110.263 44.7661C110.32 44.4204 110.495 44.105 110.758 43.8731C111.543 43.1825 112.34 42.5011 113.126 41.8592C113.279 41.723 113.457 41.6189 113.652 41.5534C113.846 41.4878 114.051 41.462 114.255 41.4775C114.46 41.4931 114.659 41.5497 114.841 41.6439C115.023 41.7381 115.184 41.868 115.314 42.0259C115.445 42.1838 115.542 42.3663 115.601 42.5627C115.659 42.7591 115.677 42.9652 115.654 43.1688C115.631 43.3724 115.568 43.5693 115.467 43.7476C115.366 43.926 115.23 44.0823 115.068 44.207C114.306 44.8321 113.534 45.4876 112.773 46.1569C112.47 46.4235 112.072 46.5585 111.669 46.5322C111.265 46.5058 110.889 46.3204 110.622 46.0166C110.554 45.9412 110.494 45.8589 110.442 45.7712Z" fill="black"/>
<path d="M101.733 54.3039C101.57 54.022 101.502 53.6955 101.538 53.3721C101.574 53.0487 101.713 52.7453 101.934 52.5065C103.356 50.9682 104.8 49.4803 106.224 48.0853C106.515 47.8165 106.9 47.6716 107.296 47.6814C107.692 47.6912 108.069 47.8549 108.347 48.1378C108.624 48.4207 108.781 48.8006 108.783 49.1969C108.785 49.5932 108.633 49.9748 108.358 50.2608C106.968 51.6253 105.559 53.0797 104.171 54.5813C104.008 54.7566 103.807 54.8914 103.583 54.9747C103.36 55.0581 103.119 55.0876 102.882 55.0611C102.645 55.0345 102.417 54.9526 102.217 54.8219C102.017 54.6911 101.851 54.5153 101.731 54.3084L101.733 54.3039Z" fill="black"/>
<path d="M88.8171 70.3466C88.6711 70.0942 88.6005 69.8052 88.6138 69.514C88.627 69.2227 88.7235 68.9413 88.8918 68.7032C92.2958 63.871 95.9601 59.2276 99.8684 54.7934C100.001 54.6433 100.162 54.5207 100.342 54.4328C100.522 54.3448 100.717 54.2931 100.917 54.2808C101.117 54.2684 101.318 54.2955 101.507 54.3606C101.697 54.4256 101.872 54.5274 102.022 54.66C102.172 54.7927 102.294 54.9536 102.382 55.1336C102.47 55.3136 102.522 55.5091 102.534 55.7091C102.547 55.9091 102.52 56.1095 102.455 56.299C102.39 56.4885 102.288 56.6633 102.155 56.8134C98.3219 61.1657 94.7274 65.7226 91.3875 70.464C91.2398 70.6727 91.0421 70.8409 90.8124 70.9531C90.5828 71.0654 90.3286 71.1181 90.0732 71.1064C89.8179 71.0947 89.5696 71.019 89.3511 70.8862C89.1327 70.7535 88.9512 70.5679 88.8232 70.3466H88.8171Z" fill="black"/>
<path d="M105.971 49.9302C105.787 49.6108 105.725 49.2356 105.796 48.8739C105.867 48.5123 106.067 48.1887 106.358 47.963C106.65 47.7374 107.013 47.625 107.381 47.6467C107.749 47.6684 108.097 47.8226 108.36 48.0809C114.336 53.9503 120.167 60.8869 125.692 68.7031C125.808 68.8666 125.89 69.0513 125.934 69.2465C125.979 69.4418 125.984 69.6439 125.95 69.8412C125.916 70.0385 125.844 70.2273 125.737 70.3967C125.63 70.566 125.491 70.7127 125.328 70.8283C125.164 70.944 124.98 71.0262 124.784 71.0705C124.589 71.1148 124.387 71.1201 124.19 71.0863C123.992 71.0525 123.804 70.9801 123.634 70.8733C123.465 70.7665 123.318 70.6274 123.203 70.464C117.783 62.7972 112.074 55.9993 106.223 50.2564C106.125 50.1592 106.04 50.0495 105.971 49.9302Z" fill="black"/>
<path d="M123.128 70.345C122.931 70.0052 122.872 69.6024 122.965 69.2207C123.058 68.8389 123.294 68.5076 123.625 68.2958C123.956 68.0841 124.356 68.0083 124.741 68.0841C125.127 68.16 125.468 68.3817 125.694 68.7031C128.964 73.3285 132.097 78.2375 135.019 83.2912C137.942 88.345 140.619 93.5162 142.989 98.66C143.145 99.0247 143.152 99.4357 143.01 99.8057C142.867 100.176 142.586 100.476 142.226 100.642C141.866 100.808 141.456 100.827 141.081 100.696C140.707 100.564 140.399 100.292 140.222 99.9375C137.891 94.8761 135.253 89.7888 132.38 84.8158C129.508 79.8428 126.422 75.0131 123.207 70.4639C123.177 70.4243 123.148 70.3846 123.128 70.345Z" fill="black"/>
<path d="M144.086 166.074C143.883 165.724 143.829 165.308 143.933 164.918C144.038 164.527 144.293 164.194 144.644 163.992C148.549 161.737 151.047 156.962 151.845 150.183C152.661 143.322 151.757 134.526 149.231 124.744C149.176 124.549 149.16 124.345 149.185 124.143C149.21 123.942 149.275 123.747 149.377 123.571C149.478 123.395 149.613 123.241 149.775 123.118C149.936 122.995 150.12 122.906 150.317 122.855C150.514 122.804 150.718 122.793 150.919 122.823C151.12 122.852 151.313 122.921 151.487 123.026C151.66 123.131 151.812 123.27 151.931 123.434C152.05 123.598 152.136 123.785 152.182 123.982C154.803 134.125 155.733 143.31 154.873 150.542C153.949 158.318 150.938 163.879 146.168 166.632C145.818 166.834 145.402 166.889 145.011 166.785C144.621 166.68 144.288 166.424 144.086 166.074Z" fill="black"/>
<path d="M67.8595 34.0477C67.6574 33.6975 67.6026 33.2814 67.7072 32.8909C67.8119 32.5003 68.0674 32.1673 68.4175 31.9652C73.1877 29.2103 79.5114 29.3902 86.7118 32.4713C93.3968 35.3359 100.89 40.7388 108.36 48.0809C108.634 48.3669 108.787 48.7485 108.784 49.1448C108.782 49.5412 108.626 49.921 108.348 50.204C108.071 50.4869 107.694 50.6506 107.298 50.6604C106.901 50.6701 106.517 50.5252 106.226 50.2564C99.0177 43.1765 91.8525 37.9962 85.5043 35.2734C79.2279 32.5811 73.8478 32.3509 69.942 34.6056C69.5919 34.8078 69.1758 34.8626 68.7852 34.7579C68.3947 34.6533 68.0617 34.3978 67.8595 34.0477Z" fill="black"/>
<path d="M149.386 125.13C149.319 125.01 149.267 124.881 149.234 124.748C147.183 116.813 144.153 108.466 140.222 99.9406C140.053 99.5733 140.037 99.1537 140.176 98.7742C140.316 98.3946 140.601 98.0862 140.969 97.9168C141.336 97.7474 141.756 97.7309 142.135 97.8708C142.515 98.0107 142.823 98.2957 142.993 98.6631C146.997 107.353 150.091 115.873 152.185 123.985C152.281 124.344 152.242 124.724 152.078 125.056C151.913 125.388 151.632 125.649 151.289 125.789C150.946 125.929 150.564 125.94 150.214 125.819C149.863 125.697 149.569 125.453 149.386 125.13Z" fill="black"/>
<path d="M369.93 137.14C368.783 137.747 367.332 138.05 366.033 138.05C362.136 138.05 359.309 135.472 359.309 131.833C359.309 128.117 362.441 125.615 366.186 125.615C367.561 125.615 368.783 125.919 369.777 126.449V129.861C368.707 129.179 367.561 128.724 366.415 128.724C364.428 128.724 363.053 130.089 363.053 131.833C363.053 133.652 364.428 134.941 366.415 134.941C367.561 134.941 368.936 134.486 369.93 133.728V137.14Z" fill="black"/>
<path d="M379.251 137.064C378.487 137.594 377.264 138.049 375.889 138.049C374.896 138.049 373.902 137.822 373.138 137.291C372.221 136.685 371.687 135.775 371.687 134.486C371.687 133.197 372.298 132.211 373.138 131.605C374.055 130.998 375.278 130.771 376.5 130.771C377.188 130.771 377.952 130.846 378.563 130.998V130.543C378.563 129.936 378.334 129.557 378.105 129.254C377.799 128.951 377.112 128.723 376.271 128.723C374.896 128.723 373.673 129.178 372.756 129.633V126.449C373.75 125.994 375.201 125.539 376.959 125.539C378.563 125.539 380.015 125.918 380.932 126.676C381.849 127.434 382.308 128.496 382.308 129.936V133.955C382.308 134.486 382.537 134.865 383.072 134.865C383.301 134.865 383.454 134.789 383.683 134.713V137.443C383.301 137.67 382.613 137.822 381.925 137.822C380.932 137.974 380.015 137.746 379.251 137.064ZM378.64 133.121C378.258 132.969 377.723 132.969 377.341 132.969C376.424 132.969 375.431 133.273 375.431 134.182C375.431 134.941 376.118 135.396 376.959 135.396C377.57 135.396 378.181 135.168 378.64 134.941V133.121Z" fill="black"/>
<path d="M385.594 121.444H389.338V137.746H385.594V121.444Z" fill="black"/>
<path d="M392.394 121.444H396.138V137.746H392.394V121.444Z" fill="black"/>
<path d="M398.89 133.803C400.571 134.789 402.481 135.168 403.627 135.168C404.621 135.168 405.232 134.865 405.232 134.258C405.232 133.348 403.857 133.424 402.099 132.969C399.807 132.439 398.508 131.453 398.508 129.482C398.508 126.979 400.8 125.539 403.78 125.539C405.232 125.539 406.989 125.842 408.365 126.449V129.633C406.76 128.723 404.926 128.344 403.857 128.344C402.863 128.344 402.328 128.648 402.328 129.178C402.328 130.012 403.627 130.012 405.385 130.391C407.677 130.922 409.052 131.832 409.052 133.879C409.052 136.457 406.76 137.898 403.627 137.898C402.176 137.898 400.342 137.594 398.89 136.912V133.803Z" fill="black"/>
<path d="M419.062 137.367C418.527 137.746 417.381 138.05 416.387 138.05C415.165 138.05 414.019 137.671 413.255 136.837C412.643 136.154 412.185 135.168 412.185 133.273V128.875H410.198V125.842H412.185V121.217H415.929V125.842H419.138V128.875H415.929V132.894C415.929 134.031 416.235 134.941 417.304 134.941C417.916 134.941 418.603 134.714 419.062 134.486V137.367Z" fill="black"/>
<path d="M428.077 137.064C427.313 137.594 426.09 138.049 424.715 138.049C423.722 138.049 422.728 137.822 421.964 137.291C421.047 136.685 420.512 135.775 420.512 134.486C420.512 133.197 421.124 132.211 421.964 131.605C422.881 130.998 424.104 130.771 425.326 130.771C426.014 130.771 426.778 130.846 427.389 130.998V130.543C427.389 129.936 427.16 129.557 426.931 129.254C426.625 128.951 425.938 128.723 425.097 128.723C423.722 128.723 422.499 129.178 421.582 129.633V126.449C422.576 125.994 424.027 125.539 425.785 125.539C427.389 125.539 428.841 125.918 429.758 126.676C430.675 127.434 431.133 128.496 431.133 129.936V133.955C431.133 134.486 431.363 134.865 431.898 134.865C432.127 134.865 432.28 134.789 432.509 134.713V137.443C432.127 137.67 431.439 137.822 430.751 137.822C429.682 137.974 428.765 137.746 428.077 137.064ZM427.389 133.121C427.007 132.969 426.472 132.969 426.09 132.969C425.173 132.969 424.18 133.273 424.18 134.182C424.18 134.941 424.868 135.396 425.708 135.396C426.32 135.396 426.931 135.168 427.389 134.941V133.121Z" fill="black"/>
<path d="M444.276 137.14C443.13 137.747 441.678 138.05 440.379 138.05C436.482 138.05 433.655 135.472 433.655 131.833C433.655 128.117 436.788 125.615 440.532 125.615C441.907 125.615 443.13 125.919 444.123 126.449V129.861C443.053 129.179 441.907 128.724 440.761 128.724C438.774 128.724 437.399 130.089 437.399 131.833C437.399 133.652 438.774 134.941 440.761 134.941C441.907 134.941 443.282 134.486 444.276 133.728V137.14Z" fill="black"/>
<path d="M446.874 121.293H450.618V130.923H450.695L454.897 125.843H459.1L454.515 131.15L459.482 137.747H455.05L450.695 131.681H450.618V137.747H446.874V121.293Z" fill="black"/>
<path d="M351.744 134.031C351.744 132.817 351.438 132.287 350.139 132.287H349.452V129.633H350.139C351.438 129.633 351.744 129.178 351.744 127.889V123.036C351.744 120.686 353.119 119.094 355.947 119.094C356.558 119.094 357.245 119.17 357.628 119.245V121.823C357.322 121.748 356.94 121.748 356.711 121.748C355.641 121.748 355.182 122.202 355.182 123.491V127.737C355.182 129.557 354.8 130.467 353.501 130.922V130.998C354.8 131.377 355.182 132.363 355.182 134.182V138.428C355.182 139.717 355.641 140.172 356.711 140.172C356.94 140.172 357.398 140.172 357.628 140.096V142.674C357.245 142.75 356.558 142.826 355.947 142.826C353.043 142.826 351.744 141.234 351.744 138.883V134.031Z" fill="black"/>
<path d="M462.919 134.182C462.919 132.363 463.301 131.453 464.6 130.998V130.922C463.301 130.543 462.919 129.557 462.919 127.737V123.491C462.919 122.202 462.461 121.748 461.391 121.748C461.162 121.748 460.703 121.748 460.474 121.823V119.245C460.856 119.17 461.544 119.094 462.155 119.094C465.059 119.094 466.358 120.686 466.358 123.036V127.889C466.358 129.102 466.663 129.633 467.962 129.633H468.65V132.287H467.962C466.663 132.287 466.358 132.742 466.358 134.031V138.883C466.358 141.234 464.982 142.826 462.155 142.826C461.544 142.826 460.856 142.75 460.474 142.674V140.096C460.78 140.172 461.162 140.172 461.391 140.172C462.461 140.172 462.919 139.717 462.919 138.428V134.182Z" fill="black"/>
<path d="M223.594 130.486V137.268H221V120.568H223.939C225.379 120.568 226.466 120.666 227.201 120.86C227.943 121.055 228.596 121.423 229.16 121.963C230.147 122.901 230.641 124.083 230.641 125.511C230.641 127.04 230.114 128.251 229.06 129.145C228.006 130.039 226.585 130.486 224.796 130.486H223.594ZM223.594 128.15H224.562C226.945 128.15 228.136 127.26 228.136 125.479C228.136 123.755 226.908 122.894 224.451 122.894H223.594V128.15Z" fill="black"/>
<path d="M231.654 131.925C231.654 130.403 232.214 129.109 233.335 128.042C234.456 126.975 235.821 126.441 237.432 126.441C239.05 126.441 240.423 126.978 241.551 128.053C242.664 129.127 243.221 130.447 243.221 132.011C243.221 133.59 242.661 134.913 241.54 135.981C240.412 137.041 239.028 137.571 237.387 137.571C235.762 137.571 234.4 137.03 233.302 135.948C232.203 134.881 231.654 133.54 231.654 131.925ZM234.215 131.968C234.215 133.021 234.504 133.854 235.083 134.466C235.677 135.087 236.46 135.397 237.432 135.397C238.412 135.397 239.195 135.09 239.781 134.477C240.367 133.864 240.66 133.046 240.66 132.022C240.66 130.998 240.367 130.18 239.781 129.567C239.187 128.947 238.404 128.637 237.432 128.637C236.475 128.637 235.699 128.947 235.105 129.567C234.511 130.187 234.215 130.987 234.215 131.968Z" fill="black"/>
<path d="M246.795 126.733L249.633 132.747L252.695 125.771L255.779 132.747L258.584 126.733H261.39L255.712 138.057L252.695 131.276L249.645 138.057L243.978 126.733H246.795Z" fill="black"/>
<path d="M272.611 132.574H264.841C264.908 133.439 265.197 134.128 265.709 134.639C266.221 135.144 266.878 135.397 267.68 135.397C268.303 135.397 268.819 135.252 269.227 134.964C269.628 134.676 270.084 134.142 270.596 133.363L272.712 134.51C272.385 135.05 272.04 135.516 271.676 135.905C271.313 136.287 270.923 136.604 270.507 136.857C270.092 137.102 269.643 137.282 269.16 137.397C268.678 137.513 268.155 137.571 267.591 137.571C265.973 137.571 264.674 137.066 263.694 136.056C262.714 135.04 262.225 133.691 262.225 132.011C262.225 130.346 262.7 128.997 263.65 127.966C264.607 126.95 265.876 126.441 267.457 126.441C269.053 126.441 270.314 126.935 271.242 127.923C272.162 128.904 272.623 130.263 272.623 132L272.611 132.574ZM270.04 130.584C269.691 129.286 268.849 128.637 267.513 128.637C267.208 128.637 266.923 128.684 266.655 128.777C266.388 128.864 266.143 128.994 265.921 129.167C265.705 129.333 265.52 129.534 265.364 129.772C265.208 130.01 265.089 130.281 265.008 130.584H270.04Z" fill="black"/>
<path d="M275.361 126.733H277.866V127.674C278.326 127.205 278.734 126.885 279.091 126.712C279.454 126.531 279.885 126.441 280.382 126.441C281.043 126.441 281.733 126.65 282.453 127.068L281.306 129.297C280.831 128.965 280.367 128.799 279.915 128.799C278.549 128.799 277.866 129.801 277.866 131.806V137.268H275.361V126.733Z" fill="black"/>
<path d="M293.608 132.574H285.837C285.904 133.439 286.193 134.128 286.706 134.639C287.218 135.144 287.874 135.397 288.676 135.397C289.299 135.397 289.815 135.252 290.223 134.964C290.624 134.676 291.081 134.142 291.593 133.363L293.708 134.51C293.381 135.05 293.036 135.516 292.673 135.905C292.309 136.287 291.919 136.604 291.504 136.857C291.088 137.102 290.639 137.282 290.157 137.397C289.674 137.513 289.151 137.571 288.587 137.571C286.969 137.571 285.67 137.066 284.691 136.056C283.711 135.04 283.221 133.691 283.221 132.011C283.221 130.346 283.696 128.997 284.646 127.966C285.603 126.95 286.873 126.441 288.453 126.441C290.049 126.441 291.311 126.935 292.239 127.923C293.159 128.904 293.619 130.263 293.619 132L293.608 132.574ZM291.036 130.584C290.687 129.286 289.845 128.637 288.509 128.637C288.205 128.637 287.919 128.684 287.652 128.777C287.385 128.864 287.14 128.994 286.917 129.167C286.702 129.333 286.516 129.534 286.36 129.772C286.205 130.01 286.086 130.281 286.004 130.584H291.036Z" fill="black"/>
<path d="M304.351 119H306.867V137.268H304.351V136.164C303.364 137.102 302.247 137.571 301 137.571C299.516 137.571 298.284 137.044 297.304 135.991C296.332 134.917 295.846 133.576 295.846 131.968C295.846 130.396 296.332 129.084 297.304 128.031C298.269 126.971 299.482 126.441 300.944 126.441C302.213 126.441 303.349 126.946 304.351 127.955V119ZM298.406 131.968C298.406 132.977 298.684 133.799 299.241 134.434C299.812 135.076 300.532 135.397 301.401 135.397C302.329 135.397 303.078 135.087 303.65 134.466C304.221 133.825 304.507 133.01 304.507 132.022C304.507 131.034 304.221 130.219 303.65 129.578C303.078 128.95 302.336 128.637 301.423 128.637C300.562 128.637 299.842 128.954 299.263 129.589C298.692 130.23 298.406 131.023 298.406 131.968Z" fill="black"/>
<path d="M319.569 119V127.955C320.571 126.946 321.707 126.441 322.976 126.441C324.438 126.441 325.655 126.971 326.628 128.031C327.6 129.084 328.086 130.396 328.086 131.968C328.086 133.59 327.596 134.932 326.616 135.991C325.644 137.044 324.416 137.571 322.932 137.571C321.677 137.571 320.557 137.102 319.569 136.164V137.268H317.065V119H319.569ZM325.525 132.076C325.525 131.067 325.243 130.245 324.679 129.61C324.108 128.961 323.392 128.637 322.531 128.637C321.61 128.637 320.861 128.95 320.282 129.578C319.71 130.198 319.425 131.005 319.425 132C319.425 133.024 319.707 133.843 320.271 134.456C320.835 135.083 321.577 135.397 322.497 135.397C323.366 135.397 324.086 135.083 324.657 134.456C325.236 133.821 325.525 133.028 325.525 132.076Z" fill="black"/>
<path d="M333.73 135.31L328.854 126.733H331.76L335.077 132.79L338.172 126.733H341L332.361 143H329.5L333.73 135.31Z" fill="black"/>
<path d="M220.744 67.4H231.112C233.544 67.4 235.656 67.832 237.448 68.696C239.272 69.56 240.68 70.776 241.672 72.344C242.696 73.912 243.208 75.752 243.208 77.864C243.208 80.296 242.536 82.36 241.192 84.056C239.848 85.752 238.024 86.952 235.72 87.656L245.224 101H238.36L229.864 88.28H226.408V101H220.744V67.4ZM230.872 72.344H226.408V83.576H230.872C232.824 83.576 234.392 83.096 235.576 82.136C236.76 81.144 237.352 79.752 237.352 77.96C237.352 76.168 236.76 74.792 235.576 73.832C234.392 72.84 232.824 72.344 230.872 72.344Z" fill="black"/>
<path d="M269.5 95.48C268.764 96.664 267.916 97.72 266.956 98.648C265.996 99.544 264.828 100.248 263.452 100.76C262.076 101.24 260.396 101.48 258.412 101.48C256.14 101.48 254.156 100.984 252.46 99.992C250.764 99 249.452 97.64 248.524 95.912C247.596 94.152 247.132 92.168 247.132 89.96C247.132 89.544 247.148 89.144 247.18 88.76C247.212 88.376 247.26 87.992 247.324 87.608C247.772 84.888 248.972 82.68 250.924 80.984C252.908 79.288 255.484 78.44 258.652 78.44C262.076 78.44 264.764 79.448 266.716 81.464C268.7 83.48 269.692 86.232 269.692 89.72C269.692 89.912 269.692 90.136 269.692 90.392C269.692 90.648 269.676 90.904 269.644 91.16H252.46C252.652 93.176 253.308 94.696 254.428 95.72C255.548 96.712 256.956 97.208 258.652 97.208C260.156 97.208 261.42 96.904 262.444 96.296C263.468 95.656 264.316 94.792 264.988 93.704L269.5 95.48ZM258.604 82.424C257.036 82.424 255.692 82.872 254.572 83.768C253.452 84.664 252.78 85.928 252.556 87.56H264.076C263.916 85.992 263.388 84.744 262.492 83.816C261.596 82.888 260.3 82.424 258.604 82.424Z" fill="black"/>
<path d="M276.752 84.728L274.688 81.032C275.712 80.424 276.976 79.832 278.48 79.256C280.016 78.68 281.776 78.392 283.76 78.392C286.48 78.392 288.688 79 290.384 80.216C292.112 81.4 292.976 83.08 292.976 85.256V101H287.888V97.832C287.216 99.016 286.208 99.928 284.864 100.568C283.552 101.176 282.064 101.48 280.4 101.48C278.192 101.48 276.352 100.92 274.88 99.8C273.408 98.648 272.672 96.952 272.672 94.712C272.672 92.44 273.52 90.664 275.216 89.384C276.912 88.072 279.216 87.416 282.128 87.416C283.344 87.416 284.432 87.576 285.392 87.896C286.384 88.184 287.216 88.52 287.888 88.904V85.832C287.888 84.808 287.456 84.024 286.592 83.48C285.76 82.904 284.736 82.616 283.52 82.616C281.952 82.616 280.56 82.888 279.344 83.432C278.16 83.944 277.296 84.376 276.752 84.728ZM277.904 94.472C277.904 95.496 278.304 96.264 279.104 96.776C279.936 97.288 280.896 97.544 281.984 97.544C283.68 97.544 285.088 97.16 286.208 96.392C287.328 95.592 287.888 94.216 287.888 92.264V91.832C286.448 91.096 284.784 90.728 282.896 90.728C281.232 90.728 279.984 91.064 279.152 91.736C278.32 92.408 277.904 93.32 277.904 94.472Z" fill="black"/>
<path d="M302.471 89.96C302.471 92.04 303.127 93.736 304.439 95.048C305.751 96.328 307.383 96.968 309.335 96.968C310.935 96.968 312.391 96.616 313.703 95.912C315.047 95.208 315.991 94.328 316.535 93.272V98.984C315.767 99.784 314.727 100.408 313.415 100.856C312.103 101.272 310.663 101.48 309.095 101.48C306.823 101.48 304.775 101 302.951 100.04C301.159 99.048 299.735 97.688 298.679 95.96C297.655 94.2 297.143 92.2 297.143 89.96C297.143 87.688 297.655 85.688 298.679 83.96C299.735 82.232 301.159 80.888 302.951 79.928C304.775 78.936 306.823 78.44 309.095 78.44C310.663 78.44 312.103 78.664 313.415 79.112C314.727 79.56 315.767 80.152 316.535 80.888V86.648C315.991 85.592 315.031 84.712 313.655 84.008C312.311 83.304 310.871 82.952 309.335 82.952C308.055 82.952 306.887 83.256 305.831 83.864C304.807 84.472 303.991 85.304 303.383 86.36C302.775 87.384 302.471 88.584 302.471 89.96Z" fill="black"/>
<path d="M319.146 78.92H322.842V71.24H327.978V78.92H331.674V83.48H327.978V101H322.842V83.48H319.146V78.92Z" fill="black"/>
<path d="M374.6 67.4H380.168V102.68L355.64 78.488V101H350.072V65.72L374.6 89.912V67.4Z" fill="black"/>
<path d="M389.252 84.728L387.188 81.032C388.212 80.424 389.476 79.832 390.98 79.256C392.516 78.68 394.276 78.392 396.26 78.392C398.98 78.392 401.188 79 402.884 80.216C404.612 81.4 405.476 83.08 405.476 85.256V101H400.388V97.832C399.716 99.016 398.708 99.928 397.364 100.568C396.052 101.176 394.564 101.48 392.9 101.48C390.692 101.48 388.852 100.92 387.38 99.8C385.908 98.648 385.172 96.952 385.172 94.712C385.172 92.44 386.02 90.664 387.716 89.384C389.412 88.072 391.716 87.416 394.628 87.416C395.844 87.416 396.932 87.576 397.892 87.896C398.884 88.184 399.716 88.52 400.388 88.904V85.832C400.388 84.808 399.956 84.024 399.092 83.48C398.26 82.904 397.236 82.616 396.02 82.616C394.452 82.616 393.06 82.888 391.844 83.432C390.66 83.944 389.796 84.376 389.252 84.728ZM390.404 94.472C390.404 95.496 390.804 96.264 391.604 96.776C392.436 97.288 393.396 97.544 394.484 97.544C396.18 97.544 397.588 97.16 398.708 96.392C399.828 95.592 400.388 94.216 400.388 92.264V91.832C398.948 91.096 397.284 90.728 395.396 90.728C393.732 90.728 392.484 91.064 391.652 91.736C390.82 92.408 390.404 93.32 390.404 94.472Z" fill="black"/>
<path d="M408.443 78.92H412.139V71.24H417.275V78.92H420.971V83.48H417.275V101H412.139V83.48H408.443V78.92Z" fill="black"/>
<path d="M424.354 70.136C424.354 69.208 424.674 68.456 425.314 67.88C425.954 67.304 426.722 67.016 427.618 67.016C428.546 67.016 429.33 67.304 429.97 67.88C430.61 68.456 430.93 69.208 430.93 70.136C430.93 71.032 430.61 71.784 429.97 72.392C429.33 73 428.546 73.304 427.618 73.304C426.722 73.304 425.954 73 425.314 72.392C424.674 71.784 424.354 71.032 424.354 70.136ZM425.074 78.92H430.21V101H425.074V78.92Z" fill="black"/>
<path d="M433.936 78.92H439.648L445.36 93.176L451.168 78.92H456.88L445.36 103.064L433.936 78.92Z" fill="black"/>
<path d="M480.016 95.48C479.28 96.664 478.432 97.72 477.472 98.648C476.512 99.544 475.344 100.248 473.968 100.76C472.592 101.24 470.912 101.48 468.928 101.48C466.656 101.48 464.672 100.984 462.976 99.992C461.28 99 459.968 97.64 459.04 95.912C458.112 94.152 457.648 92.168 457.648 89.96C457.648 89.544 457.664 89.144 457.696 88.76C457.728 88.376 457.776 87.992 457.84 87.608C458.288 84.888 459.488 82.68 461.44 80.984C463.424 79.288 466 78.44 469.168 78.44C472.592 78.44 475.28 79.448 477.232 81.464C479.216 83.48 480.208 86.232 480.208 89.72C480.208 89.912 480.208 90.136 480.208 90.392C480.208 90.648 480.192 90.904 480.16 91.16H462.976C463.168 93.176 463.824 94.696 464.944 95.72C466.064 96.712 467.472 97.208 469.168 97.208C470.672 97.208 471.936 96.904 472.96 96.296C473.984 95.656 474.832 94.792 475.504 93.704L480.016 95.48ZM469.12 82.424C467.552 82.424 466.208 82.872 465.088 83.768C463.968 84.664 463.296 85.928 463.072 87.56H474.592C474.432 85.992 473.904 84.744 473.008 83.816C472.112 82.888 470.816 82.424 469.12 82.424Z" fill="black"/>
<path d="M499.978 67.4H520.426V72.392H505.546V80.552H519.466V85.448H505.546V96.008H520.426V101H499.978V67.4Z" fill="black"/>
<path d="M527.113 67.4H532.777V89.72C532.777 91.768 533.337 93.432 534.457 94.712C535.577 95.992 537.209 96.632 539.353 96.632C541.529 96.632 543.161 95.992 544.249 94.712C545.369 93.432 545.929 91.768 545.929 89.72V67.4H551.593V89.96C551.593 92.424 551.065 94.552 550.009 96.344C548.985 98.104 547.545 99.464 545.689 100.424C543.865 101.384 541.753 101.864 539.353 101.864C536.953 101.864 534.825 101.384 532.969 100.424C531.145 99.464 529.705 98.104 528.649 96.344C527.625 94.552 527.113 92.424 527.113 89.96V67.4Z" fill="black"/>
</svg>
