<?xml version="1.0" encoding="iso-8859-1"?>
<!-- Generator: Adobe Illustrator 23.0.5, SVG Export Plug-In . SVG Version: 6.00 Build 0)  -->
<svg version="1.1" id="Layer_1" xmlns="http://www.w3.org/2000/svg" xmlns:xlink="http://www.w3.org/1999/xlink" x="0px" y="0px"
	 viewBox="0 0 373.84 276.214" enable-background="new 0 0 373.84 276.214" xml:space="preserve">
<linearGradient id="SVGID_1_" gradientUnits="userSpaceOnUse" x1="568.7785" y1="2849.0415" x2="649.9316" y2="2989.5979" gradientTransform="matrix(1 0 0 1 -424.03 -2846.8799)">
	<stop  offset="0" style="stop-color:#99FF00"/>
	<stop  offset="1" style="stop-color:#00DD3B"/>
</linearGradient>
<path fill-rule="evenodd" clip-rule="evenodd" fill="url(#SVGID_1_)" d="M144.952,43.068c-2.228-9.018-5.6-29.07,3.537-34.316l0,0
	c9.101-5.21,24.756,7.71,31.581,14.146c-4.922,5.305-9.493,10.924-13.686,16.822c-7.209,0.674-14.367,1.808-21.431,3.395V43.068z
	 M176.262,39c2.994-3.902,6.036-7.497,9.065-10.763c3.206,3.428,6.233,7.02,9.065,10.763C188.357,38.729,182.333,38.729,176.262,39z
	 M170.533,46.911c9.849-0.74,19.74-0.74,29.589,0c5.042,7.323,9.569,14.988,13.545,22.94c0.436,0.872,0.872,1.745,1.285,2.593
	c-0.401,0.872-0.837,1.745-1.285,2.629c-3.982,7.948-8.499,15.616-13.521,22.952c-9.849,0.74-19.74,0.74-29.589,0
	c-5.57-8.138-10.515-16.685-14.794-25.569c4.272-8.88,9.206-17.428,14.759-25.569L170.533,46.911z M213.667,90.811
	c1.851-3.1,3.607-6.26,5.258-9.431c1.886,4.539,3.537,8.947,4.821,13.227c-3.206,0.743-6.566,1.379-10.079,1.922
	c-1.25,0.2-2.523,0.365-3.808,0.542c1.309-2.051,2.593-4.138,3.808-6.224V90.811z M147.003,50.341
	c4.35-0.978,8.995-1.815,13.887-2.417c-3.265,5.081-6.307,10.327-9.065,15.679c-1.886-4.539-3.537-8.983-4.821-13.25V50.341z
	 M190.62,122.074c4.897-5.311,9.446-10.934,13.616-16.834c3.206-0.307,6.307-0.672,9.336-1.179
	c4.208-0.601,8.252-1.379,12.095-2.252c2.228,9.054,5.6,29.106-3.537,34.352l0,0c-2.625,1.307-5.647,1.581-8.464,0.766
	c-4.857-1.179-10.61-4.48-16.881-9.431c-2.028-1.65-4.043-3.43-6.13-5.411L190.62,122.074z M151.801,81.368
	c2.758,5.352,5.8,10.61,9.065,15.679c-4.892-0.637-9.537-1.485-13.887-2.452C148.288,90.327,149.915,85.883,151.801,81.368z
	 M144.964,101.856c7.065,1.587,14.223,2.721,21.431,3.395c4.192,5.888,8.752,11.508,13.651,16.822
	c-6.743,6.425-22.398,19.38-31.546,14.146l0,0c-9.136-5.246-5.729-25.298-3.537-34.352V101.856z M111.673,72.491
	c0-10.527,19.074-17.683,28.009-20.253c2.147,6.914,4.745,13.679,7.78,20.253c-3.04,6.559-5.64,13.313-7.78,20.217
	C130.747,90.08,111.673,82.983,111.673,72.491z M137.608,99.982c-3.1,12.684-6.036,35.153,7.073,42.757l0,0
	c13.109,7.568,31.169-6.26,40.611-15.325c2.263,2.157,4.515,4.102,6.708,5.894c7.615,6.118,15.03,10.02,21.596,11.175
	c4.191,0.898,8.565,0.268,12.331-1.78l0,0c13.109-7.568,10.173-30.072,7.073-42.757c12.566-3.666,33.597-12.378,33.597-27.491
	s-21.019-23.836-33.562-27.479c3.1-12.684,6.036-35.188-7.073-42.757l0,0c-3.749-2.057-8.107-2.713-12.295-1.851
	c-10.515,1.886-21.573,10.704-28.292,17.129c-9.431-9.054-27.502-22.846-40.647-15.325l0,0
	c-13.109,7.533-10.173,30.072-7.073,42.757c-12.566,3.631-33.597,12.342-33.597,27.491s21.031,23.824,33.562,27.491L137.608,99.982z
	 M213.667,54.101c-1.179-2.087-2.499-4.173-3.808-6.189c1.309,0.165,2.558,0.342,3.808,0.542c3.537,0.542,6.873,1.179,10.079,1.886
	c-1.309,4.267-2.935,8.712-4.821,13.25c-1.65-3.198-3.403-6.342-5.258-9.431V54.101z M190.679,22.85
	c4.892-4.715,14.594-12.814,22.987-14.865c2.845-0.868,5.917-0.588,8.558,0.778l0,0c9.136,5.246,5.729,25.298,3.537,34.316
	c-3.843-0.872-7.886-1.615-12.095-2.252c-3.03-0.436-6.13-0.837-9.336-1.179c-4.192-5.888-8.752-11.508-13.651-16.822V22.85z
	 M231.055,92.697c-2.147-6.902-4.746-13.656-7.78-20.217c3.04-6.571,5.64-13.336,7.78-20.253
	c8.936,2.629,28.009,9.725,28.009,20.253S239.99,90.08,231.055,92.697z M176.321,105.923c6.036,0.271,12.06,0.271,18.131,0
	c-2.994,3.902-6.036,7.497-9.065,10.798C182.321,113.421,179.292,109.825,176.321,105.923z"/>
<linearGradient id="SVGID_2_" gradientUnits="userSpaceOnUse" x1="603.6613" y1="2909.4097" x2="615.1242" y2="2929.2576" gradientTransform="matrix(1 0 0 1 -424.03 -2846.8799)">
	<stop  offset="0" style="stop-color:#99FF00"/>
	<stop  offset="1" style="stop-color:#00DD3B"/>
</linearGradient>
<path fill-rule="evenodd" clip-rule="evenodd" fill="url(#SVGID_2_)" d="M185.375,83.879c6.328-0.02,11.443-5.166,11.423-11.494
	c-0.02-6.328-5.166-11.442-11.494-11.423c-6.323,0.02-11.436,5.159-11.423,11.482C173.907,78.772,179.046,83.886,185.375,83.879z"/>
<path fill="#000000" d="M38.88,207.001v-28.08h12.84c3.57,0,6.32,1,8.2,2.85c1.669,1.745,2.547,4.099,2.43,6.51
	c0.239,3.935-2.237,7.525-6,8.7l6.86,10h-7.23l-6.12-9h-4.81v9L38.88,207.001z M45.05,192.561h6.26
	c1.265,0.079,2.516-0.305,3.52-1.08c0.839-0.765,1.29-1.866,1.23-3c0.083-1.15-0.398-2.269-1.29-3c-1.04-0.733-2.301-1.086-3.57-1
	h-6.15V192.561z"/>
<polygon fill="#000000" points="67.64,207.011 67.64,178.921 88.85,178.921 88.85,184.431 73.78,184.431 73.78,190.141
	87.05,190.141 87.05,195.621 73.78,195.621 73.78,201.531 89.05,201.531 89.05,207.011 "/>
<path fill="#000000" d="M92.45,207.001l12-28.28h5.72l12,28.28h-6.46l-2.57-6.28h-11.83l-2.57,6.28H92.45z M103.54,195.241h7.49
	l-3.74-9.1L103.54,195.241z"/>
<path fill="#000000" d="M137.45,207.491c-3.866,0.1-7.598-1.423-10.29-4.2c-5.528-6.036-5.117-15.41,0.919-20.938
	c4.275-3.916,10.441-4.979,15.781-2.721c1.759,0.865,3.364,2.013,4.75,3.4l-3.72,4.25c-0.991-0.971-2.128-1.781-3.37-2.4
	c-1.218-0.522-2.535-0.774-3.86-0.74c-2.221-0.047-4.352,0.881-5.83,2.54c-3.089,3.617-3.089,8.943,0,12.56
	c1.466,1.678,3.602,2.62,5.83,2.57c1.353,0.028,2.695-0.256,3.92-0.83c1.282-0.646,2.458-1.482,3.49-2.48l3.95,4.22
	c-1.405,1.527-3.106,2.751-5,3.6c-2.087,0.849-4.329,1.247-6.58,1.17L137.45,207.491z"/>
<polygon fill="#000000" points="160.8,207.011 160.8,184.631 152.23,184.631 152.23,178.921 175.55,178.921 175.55,184.631
	166.98,184.631 166.98,207.011 "/>
<path fill="#000000" d="M202.34,207.401c-4.389,0.074-8.641-1.528-11.89-4.48l3.66-4.37c2.305,2.086,5.273,3.29,8.38,3.4
	c1.048,0.068,2.093-0.18,3-0.71c0.702-0.417,1.12-1.184,1.09-2c0.009-0.816-0.413-1.576-1.11-2c-1.433-0.746-2.965-1.285-4.55-1.6
	c-1.318-0.327-2.617-0.728-3.89-1.2c-1.001-0.399-1.951-0.916-2.83-1.54c-0.886-0.601-1.581-1.445-2-2.43
	c-0.451-1.114-0.666-2.309-0.63-3.51c-0.085-2.36,0.927-4.627,2.74-6.14c2.006-1.605,4.523-2.436,7.09-2.34
	c3.796-0.064,7.495,1.198,10.46,3.57l-3.23,4.65c-2.096-1.636-4.636-2.602-7.29-2.77c-0.949-0.054-1.891,0.195-2.69,0.71
	c-0.601,0.413-0.954,1.101-0.94,1.83c-0.029,0.849,0.424,1.643,1.17,2.05c1.56,0.733,3.202,1.28,4.89,1.63
	c2.462,0.522,4.778,1.584,6.78,3.11c1.482,1.387,2.267,3.364,2.14,5.39c0.122,2.467-0.927,4.846-2.83,6.42
	c-2.157,1.604-4.805,2.41-7.49,2.28L202.34,207.401z"/>
<path fill="#000000" d="M229.78,207.461c-3.83,0-6.8-1.06-8.95-3.2s-3.23-5.22-3.23-9.28v-16.06h6.2v15.91
	c-0.132,1.858,0.427,3.699,1.57,5.17c2.531,2.351,6.438,2.377,9,0.06c1.133-1.41,1.693-3.195,1.57-5v-16.1h6.2v15.87
	c0,4.17-1.09,7.31-3.29,9.45s-5.2,3.22-9.06,3.22L229.78,207.461z"/>
<polygon fill="#000000" points="248.42,207.011 248.42,178.921 255.11,178.921 262.49,190.801 269.89,178.921 276.55,178.921
	276.55,207.011 270.41,207.011 270.41,188.691 262.49,200.671 262.35,200.671 254.51,188.801 254.51,207.011 "/>
<polygon fill="#000000" points="283.33,207.011 283.33,178.921 289.99,178.921 297.39,190.801 304.77,178.921 311.46,178.921
	311.46,207.011 305.28,207.011 305.28,188.691 297.39,200.671 297.22,200.671 289.39,188.801 289.39,207.011 "/>
<rect x="317.92" y="178.921" fill="#000000" width="6.17" height="28.08"/>
<polygon fill="#000000" points="337.67,207.011 337.67,184.631 329.13,184.631 329.13,178.921 352.42,178.921 352.42,184.631
	343.88,184.631 343.88,207.011 "/>
<path fill="#000000" d="M30.64,275.701l15.15-35.56h7.18l15.18,35.56H60l-3.23-7.87h-15l-3.23,7.91L30.64,275.701z M44.64,260.921
	h9.41l-4.72-11.44L44.64,260.921z"/>
<polygon fill="#000000" points="73.61,275.701 73.61,240.371 81.99,240.371 91.28,255.321 100.6,240.371 108.97,240.371
	108.97,275.701 101.25,275.701 101.25,252.641 91.28,267.741 91.08,267.741 81.24,252.781 81.24,275.701 "/>
<path fill="#000000" d="M130.07,276.211c-5.535,0.085-10.896-1.935-15-5.65l4.6-5.51c3.49,2.85,7,4.28,10.58,4.28
	c1.305,0.072,2.604-0.233,3.74-0.88c0.874-0.545,1.395-1.511,1.37-2.54c-0.012-1.012-0.555-1.942-1.43-2.45
	c-1.811-0.915-3.734-1.587-5.72-2c-1.659-0.393-3.292-0.888-4.89-1.48c-1.259-0.511-2.457-1.161-3.57-1.94
	c-1.085-0.779-1.944-1.831-2.49-3.05c-0.546-1.408-0.807-2.91-0.77-4.42c-0.101-2.972,1.176-5.825,3.46-7.73
	c2.526-2.012,5.693-3.046,8.92-2.91c4.773-0.092,9.426,1.493,13.15,4.48l-4.06,5.85c-3.32-2.31-6.4-3.48-9.18-3.48
	c-1.188-0.065-2.366,0.243-3.37,0.88c-0.752,0.526-1.191,1.393-1.17,2.31c-0.044,1.065,0.522,2.063,1.46,2.57
	c1.965,0.915,4.029,1.603,6.15,2.05c3.86,1,6.69,2.31,8.52,3.88c1.878,1.754,2.875,4.255,2.72,6.82c0.128,3.079-1.193,6.039-3.57,8
	c-2.37,1.94-5.52,2.91-9.41,2.91L130.07,276.211z"/>
<polygon fill="#000000" points="158.06,275.701 158.06,247.531 147.31,247.531 147.31,240.371 176.61,240.371 176.61,247.531
	165.83,247.531 165.83,275.701 "/>
<polygon fill="#000000" points="182.59,275.701 182.59,240.371 209.26,240.371 209.26,247.301 190.3,247.301 190.3,254.471
	207,254.471 207,261.371 190.3,261.371 190.3,268.791 209.52,268.791 209.52,275.701 "/>
<path fill="#000000" d="M216.45,275.701v-35.33h16.18c4.49,0,7.92,1.2,10.32,3.6c2.078,2.193,3.163,5.143,3,8.16
	c0,5.42-2.527,9.087-7.58,11l8.63,12.61h-9.09l-7.69-11.3h-6v11.3L216.45,275.701z M224.25,257.551h7.89
	c1.58,0.091,3.137-0.408,4.37-1.4c1.057-0.936,1.634-2.3,1.57-3.71c0.091-1.439-0.502-2.836-1.6-3.77
	c-1.319-0.924-2.912-1.375-4.52-1.28h-7.72L224.25,257.551z"/>
<path fill="#000000" d="M253.28,275.701v-35.33h13.78c5.547,0,10.063,1.667,13.55,5c6.975,6.896,7.04,18.141,0.144,25.116
	c-0.048,0.048-0.096,0.096-0.144,0.144c-3.52,3.37-8,5.05-13.52,5.05L253.28,275.701z M261.06,268.701h6
	c5.879,0.18,10.791-4.439,10.972-10.318c0.18-5.879-4.439-10.791-10.318-10.972c-0.218-0.007-0.436-0.007-0.653,0h-6L261.06,268.701
	L261.06,268.701z"/>
<path fill="#000000" d="M288.62,275.701l15.18-35.56h7.18l15.15,35.56h-8.12l-3.24-7.87h-15l-3.23,7.91L288.62,275.701z
	 M302.62,260.921h9.41l-4.69-11.44L302.62,260.921z"/>
<polygon fill="#000000" points="331.59,275.701 331.59,240.371 339.99,240.371 349.28,255.321 358.6,240.371 366.98,240.371
	366.98,275.701 359.26,275.701 359.26,252.641 349.28,267.741 349.08,267.741 339.22,252.781 339.22,275.701 "/>
<path fill="#43FF01" d="M361.11,187.831v-3l5.69-4.65c0.853-0.656,1.631-1.404,2.32-2.23c0.407-0.535,0.628-1.188,0.63-1.86
	c0.023-0.607-0.205-1.196-0.63-1.63c-0.453-0.411-1.049-0.627-1.66-0.6c-0.615,0.003-1.214,0.191-1.72,0.54
	c-0.667,0.495-1.263,1.081-1.77,1.74l-2.63-2.11c0.736-1.06,1.678-1.961,2.77-2.65c1.089-0.607,2.324-0.905,3.57-0.86
	c1.555-0.078,3.08,0.445,4.26,1.46c1.099,0.969,1.699,2.386,1.63,3.85c0.003,0.856-0.181,1.703-0.54,2.48
	c-0.357,0.719-0.83,1.374-1.4,1.94c-0.797,0.771-1.645,1.486-2.54,2.14l-2.77,2.14h7.43v3.3H361.11z"/>
<path fill-rule="evenodd" clip-rule="evenodd" fill="#43FF01" d="M373.84,220.701H17.12l-5.23,41.81l-5.23-41.81H0l6.92,55.39h9.95
	l6.17-49.37h350.8V220.701z"/>
</svg>
