<?xml version="1.0" encoding="UTF-8"?>
<svg width="615px" height="527px" viewBox="0 0 615 527" version="1.1" xmlns="http://www.w3.org/2000/svg" xmlns:xlink="http://www.w3.org/1999/xlink">
    <!-- Generator: Sketch 48.2 (47327) - http://www.bohemiancoding.com/sketch -->
    <title>ReactWeekLogo</title>
    <desc>Created with Sketch.</desc>
    <defs>
        <linearGradient x1="-1.11022302e-14%" y1="50%" x2="100%" y2="50%" id="linearGradient-1">
            <stop stop-color="#FA1851" offset="0%"></stop>
            <stop stop-color="#FF8900" offset="100%"></stop>
        </linearGradient>
        <linearGradient x1="100%" y1="50%" x2="0%" y2="50%" id="linearGradient-2">
            <stop stop-color="#FF8900" offset="0%"></stop>
            <stop stop-color="#FA1851" offset="100%"></stop>
        </linearGradient>
    </defs>
    <g id="Page-1" stroke="none" stroke-width="1" fill="none" fill-rule="evenodd">
        <g id="ReactWeekLogo">
            <g id="reactNewColors" transform="translate(61.000000, 0.000000)" fill-rule="nonzero">
                <path d="M491.3,218.5 C491.3,186 450.6,155.2 388.2,136.1 C402.6,72.5 396.2,21.9 368,5.7 C361.5,1.9 353.9,0.1 345.6,0.1 L345.6,22.4 C350.2,22.4 353.9,23.3 357,25 C370.6,32.8 376.5,62.5 371.9,100.7 C370.8,110.1 369,120 366.8,130.1 C347.2,125.3 325.8,121.6 303.3,119.2 C289.8,100.7 275.8,83.9 261.7,69.2 C294.3,38.9 324.9,22.3 345.7,22.3 L345.7,0 C345.7,0 345.7,0 345.7,0 C318.2,0 282.2,19.6 245.8,53.6 C209.4,19.8 173.4,0.4 145.9,0.4 L145.9,22.7 C166.6,22.7 197.3,39.2 229.9,69.3 C215.9,84 201.9,100.7 188.6,119.2 C166,121.6 144.6,125.3 125,130.2 C122.7,120.2 121,110.5 119.8,101.2 C115.1,63 120.9,33.3 134.4,25.4 C137.4,23.6 141.3,22.8 145.9,22.8 L145.9,0.5 C145.9,0.5 145.9,0.5 145.9,0.5 C137.5,0.5 129.9,2.3 123.3,6.1 C95.2,22.3 88.9,72.8 103.4,136.2 C41.2,155.4 0.7,186.1 0.7,218.5 C0.7,251 41.4,281.8 103.8,300.9 C89.4,364.5 95.8,415.1 124,431.3 C130.5,435.1 138.1,436.9 146.5,436.9 C174,436.9 210,417.3 246.4,383.3 C282.8,417.1 318.8,436.5 346.3,436.5 C354.7,436.5 362.3,434.7 368.9,430.9 C397,414.7 403.3,364.2 388.8,300.8 C450.8,281.7 491.3,250.9 491.3,218.5 Z M361.1,151.8 C357.4,164.7 352.8,178 347.6,191.3 C343.5,183.3 339.2,175.3 334.5,167.3 C329.9,159.3 325,151.5 320.1,143.9 C334.3,146 348,148.6 361.1,151.8 Z M315.3,258.3 C307.5,271.8 299.5,284.6 291.2,296.5 C276.3,297.8 261.2,298.5 246,298.5 C230.9,298.5 215.8,297.8 201,296.6 C192.7,284.7 184.6,272 176.8,258.6 C169.2,245.5 162.3,232.2 156,218.8 C162.2,205.4 169.2,192 176.7,178.9 C184.5,165.4 192.5,152.6 200.8,140.7 C215.7,139.4 230.8,138.7 246,138.7 C261.1,138.7 276.2,139.4 291,140.6 C299.3,152.5 307.4,165.2 315.2,178.6 C322.8,191.7 329.7,205 336,218.4 C329.7,231.8 322.8,245.2 315.3,258.3 Z M347.6,245.3 C353,258.7 357.6,272.1 361.4,285.1 C348.3,288.3 334.5,291 320.2,293.1 C325.1,285.4 330,277.5 334.6,269.4 C339.2,261.4 343.5,253.3 347.6,245.3 Z M246.2,352 C236.9,342.4 227.6,331.7 218.4,320 C227.4,320.4 236.6,320.7 245.9,320.7 C255.3,320.7 264.6,320.5 273.7,320 C264.7,331.7 255.4,342.4 246.2,352 Z M171.8,293.1 C157.6,291 143.9,288.4 130.8,285.2 C134.5,272.3 139.1,259 144.3,245.7 C148.4,253.7 152.7,261.7 157.4,269.7 C162.1,277.7 166.9,285.5 171.8,293.1 Z M245.7,85 C255,94.6 264.3,105.3 273.5,117 C264.5,116.6 255.3,116.3 246,116.3 C236.6,116.3 227.3,116.5 218.2,117 C227.2,105.3 236.5,94.6 245.7,85 Z M171.7,143.9 C166.8,151.6 161.9,159.5 157.3,167.6 C152.7,175.6 148.4,183.6 144.3,191.6 C138.9,178.2 134.3,164.8 130.5,151.8 C143.6,148.7 157.4,146 171.7,143.9 Z M81.2,269.1 C45.8,254 22.9,234.2 22.9,218.5 C22.9,202.8 45.8,182.9 81.2,167.9 C89.8,164.2 99.2,160.9 108.9,157.8 C114.6,177.4 122.1,197.8 131.4,218.7 C122.2,239.5 114.8,259.8 109.2,279.3 C99.3,276.2 89.9,272.8 81.2,269.1 Z M135,412 C121.4,404.2 115.5,374.5 120.1,336.3 C121.2,326.9 123,317 125.2,306.9 C144.8,311.7 166.2,315.4 188.7,317.8 C202.2,336.3 216.2,353.1 230.3,367.8 C197.7,398.1 167.1,414.7 146.3,414.7 C141.8,414.6 138,413.7 135,412 Z M372.2,335.8 C376.9,374 371.1,403.7 357.6,411.6 C354.6,413.4 350.7,414.2 346.1,414.2 C325.4,414.2 294.7,397.7 262.1,367.6 C276.1,352.9 290.1,336.2 303.4,317.7 C326,315.3 347.4,311.6 367,306.7 C369.3,316.8 371.1,326.5 372.2,335.8 Z M410.7,269.1 C402.1,272.8 392.7,276.1 383,279.2 C377.3,259.6 369.8,239.2 360.5,218.3 C369.7,197.5 377.1,177.2 382.7,157.7 C392.6,160.8 402,164.2 410.8,167.9 C446.2,183 469.1,202.8 469.1,218.5 C469,234.2 446.1,254.1 410.7,269.1 Z" id="Shape" fill="url(#linearGradient-1)"></path>
                <circle id="Oval" fill="url(#linearGradient-2)" cx="245.9" cy="218.5" r="45.7"></circle>
            </g>
            <g id="REACT-WEEK-'19" transform="translate(0.000000, 474.000000)" fill="#FA1851">
                <path d="M0.676,52 L0.676,1.6 L24.508,1.6 C32.212,1.6 37.54,3.616 40.924,7 C43.876,9.952 45.388,13.768 45.388,18.736 L45.388,18.88 C45.388,26.656 41.284,31.768 35.02,34.432 L47.044,52 L30.988,52 L20.836,36.736 L14.644,36.736 L14.644,52 L0.676,52 Z M14.644,25.792 L23.932,25.792 C28.612,25.792 31.42,23.488 31.42,19.816 L31.42,19.672 C31.42,15.64 28.468,13.624 23.86,13.624 L14.644,13.624 L14.644,25.792 Z M52.444,52 L52.444,1.6 L92.98,1.6 L92.98,13.408 L66.268,13.408 L66.268,21.112 L90.46,21.112 L90.46,32.128 L66.268,32.128 L66.268,40.12 L93.34,40.12 L93.34,52 L52.444,52 Z M96.58,52 L117.964,1.24 L131.428,1.24 L152.884,52 L137.908,52 L134.308,42.928 L114.796,42.928 L111.196,52 L96.58,52 Z M118.9,32.056 L130.204,32.056 L124.588,17.8 L118.9,32.056 Z M178.876,53.008 C164.476,53.008 152.884,41.992 152.884,26.944 L152.884,26.8 C152.884,12.112 164.116,0.592 179.38,0.592 C189.676,0.592 196.3,4.912 200.764,11.032 L190.252,19.168 C187.372,15.64 184.06,13.264 179.236,13.264 C172.18,13.264 167.212,19.312 167.212,26.656 L167.212,26.8 C167.212,34.36 172.18,40.264 179.236,40.264 C184.492,40.264 187.588,37.816 190.612,34.144 L201.124,41.632 C196.372,48.184 189.964,53.008 178.876,53.008 Z M219.484,52 L219.484,13.84 L204.436,13.84 L204.436,1.6 L248.572,1.6 L248.572,13.84 L233.452,13.84 L233.452,52 L219.484,52 Z M288.1,52.36 L271.252,1.6 L286.012,1.6 L294.796,30.76 L304.516,1.456 L316.54,1.456 L326.26,30.76 L335.044,1.6 L349.516,1.6 L332.668,52.36 L320.5,52.36 L310.42,23.344 L300.268,52.36 L288.1,52.36 Z M355.06,52 L355.06,1.6 L395.596,1.6 L395.596,13.408 L368.884,13.408 L368.884,21.112 L393.076,21.112 L393.076,32.128 L368.884,32.128 L368.884,40.12 L395.956,40.12 L395.956,52 L355.06,52 Z M403.156,52 L403.156,1.6 L443.692,1.6 L443.692,13.408 L416.98,13.408 L416.98,21.112 L441.172,21.112 L441.172,32.128 L416.98,32.128 L416.98,40.12 L444.052,40.12 L444.052,52 L403.156,52 Z M451.252,52 L451.252,1.6 L465.22,1.6 L465.22,22.048 L482.572,1.6 L499.132,1.6 L480.052,23.2 L499.78,52 L483.076,52 L470.332,33.28 L465.22,38.896 L465.22,52 L451.252,52 Z M521.74,27.448 L523.396,1.6 L538.3,1.6 L538.3,1.96 L529.156,27.448 L521.74,27.448 Z M551.476,52 L551.476,14.2 L542.98,16.216 L540.316,5.416 L555.076,1.24 L565.228,1.24 L565.228,52 L551.476,52 Z M591.292,41.416 C598.636,41.416 600.508,34.936 600.868,30.904 C597.772,33.784 594.1,35.008 590.14,35.008 C580.42,35.008 573.22,28.888 573.22,19.024 L573.22,18.88 C573.22,7.792 581.788,0.592 593.308,0.592 C600.652,0.592 604.972,2.608 608.788,6.424 C612.46,10.096 614.836,15.856 614.836,25.144 L614.836,25.288 C614.836,41.704 606.628,53.008 591.58,53.008 C584.02,53.008 578.62,50.632 573.94,47.032 L580.492,37.384 C584.02,40.12 587.332,41.416 591.292,41.416 Z M593.956,25 C598.348,25 601.012,22.12 601.012,18.448 L601.012,18.304 C601.012,14.416 598.204,11.392 593.812,11.392 C589.42,11.392 586.756,14.344 586.756,18.232 L586.756,18.376 C586.756,22.192 589.564,25 593.956,25 Z"></path>
            </g>
        </g>
    </g>
</svg>