<?xml version="1.0" encoding="utf-8"?>
<!-- Generator: Adobe Illustrator 24.3.0, SVG Export Plug-In . SVG Version: 6.00 Build 0)  -->
<svg version="1.1" id="Layer_1" xmlns="http://www.w3.org/2000/svg" xmlns:xlink="http://www.w3.org/1999/xlink" x="0px" y="0px"
	 viewBox="0 0 1440 969.84" style="enable-background:new 0 0 1440 969.84;" xml:space="preserve">
<style type="text/css">
	.st0{fill:#2EACE3;}
	.st1{fill:#F79425;}
</style>
<g>
	<g>
		<path class="st0" d="M254.78,829.43l-18.66-27.86h-15.05v27.86h-19.16v-87.08h39.81c10.37,0,18.43,2.53,24.2,7.59
			c5.76,5.06,8.65,12.11,8.65,21.15v0.25c0,7.05-1.72,12.79-5.16,17.23c-3.44,4.44-7.94,7.69-13.5,9.76l21.27,31.1H254.78z
			 M255.16,772.08c0-4.15-1.33-7.26-3.98-9.33c-2.66-2.07-6.34-3.11-11.07-3.11h-19.03v25h19.41c4.73,0,8.35-1.12,10.88-3.36
			c2.53-2.24,3.79-5.23,3.79-8.96V772.08z"/>
		<path class="st0" d="M284.76,829.43v-87.08h65.56v17.04h-46.65v17.67h41.05v17.04h-41.05v18.29h47.27v17.04H284.76z"/>
		<path class="st0" d="M428.32,829.43l-7.96-19.53h-36.82l-7.96,19.53h-19.53l37.32-87.7h17.66l37.32,87.7H428.32z M401.94,764.74
			l-11.57,28.24h23.14L401.94,764.74z"/>
		<path class="st0" d="M516.76,821.84c-2.41,1.91-5.04,3.54-7.9,4.91s-5.99,2.41-9.39,3.11c-3.4,0.71-7.22,1.06-11.44,1.06
			c-6.39,0-12.31-1.16-17.79-3.48c-5.47-2.32-10.2-5.49-14.18-9.52c-3.98-4.02-7.09-8.77-9.33-14.24
			c-2.24-5.47-3.36-11.32-3.36-17.54v-0.25c0-6.22,1.12-12.04,3.36-17.48c2.24-5.43,5.35-10.2,9.33-14.31s8.75-7.34,14.31-9.7
			c5.56-2.36,11.69-3.55,18.41-3.55c4.06,0,7.77,0.33,11.13,1c3.36,0.66,6.41,1.58,9.14,2.74c2.74,1.16,5.27,2.57,7.59,4.23
			c2.32,1.66,4.48,3.48,6.47,5.47l-12.19,14.06c-3.4-3.07-6.86-5.47-10.39-7.21c-3.53-1.74-7.49-2.61-11.88-2.61
			c-3.65,0-7.03,0.71-10.14,2.11c-3.11,1.41-5.78,3.36-8.02,5.85c-2.24,2.49-3.98,5.37-5.22,8.64c-1.24,3.28-1.87,6.78-1.87,10.51
			v0.25c0,3.73,0.62,7.26,1.87,10.57c1.24,3.32,2.96,6.22,5.16,8.71c2.2,2.49,4.85,4.46,7.96,5.91c3.11,1.45,6.53,2.18,10.26,2.18
			c4.98,0,9.18-0.91,12.63-2.74c3.44-1.82,6.86-4.31,10.26-7.46l12.19,12.31C521.49,817.77,519.16,819.93,516.76,821.84z"/>
		<path class="st0" d="M573.86,760.01v69.41H554.7v-69.41h-26.5v-17.66h72.15v17.66H573.86z"/>
		<path class="st1" d="M688.7,743.9c3.48,1.04,6.45,2.49,8.94,4.35c2.48,1.86,4.39,4.15,5.71,6.84c1.32,2.69,1.99,5.7,1.99,9.02
			c0,2.9-0.39,5.43-1.18,7.59c-0.78,2.16-1.84,4.07-3.16,5.72c-1.32,1.66-2.79,3.05-4.4,4.17c-1.61,1.12-3.29,2.05-5.03,2.8
			c2.57,0.75,4.99,1.72,7.26,2.92c2.28,1.2,4.24,2.63,5.9,4.29c1.66,1.66,2.98,3.65,3.97,5.97c0.99,2.32,1.49,4.98,1.49,7.96
			c0,3.73-0.75,7.09-2.23,10.08c-1.49,2.99-3.62,5.5-6.39,7.53c-2.77,2.03-6.11,3.59-10,4.66c-3.89,1.08-8.2,1.62-12.91,1.62h-38.62
			v-87.08h37C681.34,742.35,685.23,742.87,688.7,743.9z M689.93,777.16c3.72-2.67,5.58-6.58,5.58-11.74c0-4.41-1.65-7.91-4.96-10.49
			c-3.31-2.58-8.06-3.87-14.27-3.87h-26.42v30.1h25.68C681.41,781.16,686.21,779.83,689.93,777.16z M694.66,816.6
			c3.81-2.75,5.71-6.62,5.71-11.62c0-4.83-1.95-8.56-5.83-11.18c-3.89-2.62-9.64-3.93-17.25-3.93h-27.42v30.85h29.16
			C685.64,820.72,690.85,819.35,694.66,816.6z"/>
		<path class="st1" d="M782.71,829.43l-25.25-33.84h-24.88v33.84h-9.83v-87.08h37.44c4.81,0,9.14,0.62,13,1.87s7.15,3.01,9.89,5.29
			c2.74,2.28,4.85,5.02,6.34,8.21c1.49,3.19,2.24,6.74,2.24,10.64c0,3.65-0.58,6.91-1.74,9.77c-1.16,2.86-2.8,5.35-4.91,7.47
			c-2.11,2.12-4.62,3.88-7.53,5.29c-2.9,1.41-6.05,2.41-9.45,2.98l26.75,35.55H782.71z M775.98,755.99
			c-3.91-3.04-9.39-4.56-16.46-4.56h-26.94v35.45h26.81c3.24,0,6.23-0.42,8.98-1.25c2.74-0.83,5.11-2.02,7.11-3.56
			c1.99-1.54,3.55-3.43,4.68-5.68c1.12-2.25,1.68-4.78,1.68-7.61C781.84,763.29,779.89,759.02,775.98,755.99z"/>
		<path class="st1" d="M876.76,792.23c0,6.39-0.87,11.99-2.61,16.79c-1.74,4.81-4.21,8.83-7.4,12.07
			c-3.19,3.23-7.01,5.66-11.44,7.28c-4.44,1.62-9.39,2.43-14.87,2.43c-5.39,0-10.31-0.81-14.74-2.43
			c-4.44-1.62-8.25-4.02-11.44-7.21c-3.19-3.19-5.66-7.15-7.4-11.88c-1.74-4.73-2.61-10.16-2.61-16.3v-50.63h9.83v50.01
			c0,9.45,2.34,16.71,7.03,21.77c4.68,5.06,11.21,7.59,19.59,7.59c8.04,0,14.43-2.4,19.16-7.21c4.73-4.81,7.09-11.98,7.09-21.52
			v-50.63h9.83V792.23z"/>
		<path class="st1" d="M901.51,769.62c0.66,1.66,1.87,3.18,3.61,4.55c1.74,1.37,4.15,2.62,7.22,3.74c3.07,1.12,7.01,2.18,11.82,3.17
			c9.7,2.16,16.86,5.15,21.46,8.97c4.6,3.82,6.9,9.09,6.9,15.82c0,3.74-0.74,7.14-2.21,10.22c-1.47,3.07-3.51,5.69-6.1,7.85
			s-5.71,3.82-9.36,4.98c-3.65,1.16-7.63,1.74-11.94,1.74c-6.97,0-13.33-1.13-19.09-3.37c-5.77-2.25-11.26-5.73-16.48-10.44
			l6.1-7.21c4.56,4.15,9.16,7.24,13.81,9.27c4.64,2.03,9.99,3.05,16.05,3.05c5.89,0,10.59-1.37,14.12-4.11
			c3.52-2.74,5.29-6.35,5.29-10.84c0-2.08-0.33-3.92-1-5.54c-0.66-1.62-1.83-3.09-3.49-4.42c-1.66-1.33-3.97-2.53-6.92-3.61
			c-2.95-1.08-6.71-2.12-11.29-3.12c-4.99-1.08-9.33-2.32-13.03-3.74c-3.7-1.41-6.76-3.11-9.17-5.11c-2.41-1.99-4.2-4.32-5.36-6.97
			c-1.16-2.66-1.75-5.82-1.75-9.47c0-3.49,0.7-6.68,2.11-9.59c1.41-2.91,3.4-5.42,5.97-7.54c2.57-2.12,5.6-3.78,9.08-4.98
			c3.48-1.21,7.3-1.81,11.44-1.81c6.38,0,11.96,0.88,16.73,2.64c4.77,1.76,9.39,4.4,13.87,7.94l-5.72,7.59
			c-4.06-3.31-8.15-5.72-12.25-7.21c-4.11-1.49-8.4-2.24-12.87-2.24c-2.82,0-5.37,0.37-7.65,1.12c-2.28,0.75-4.23,1.75-5.85,2.99
			c-1.62,1.25-2.86,2.74-3.73,4.49c-0.87,1.74-1.31,3.61-1.31,5.61C900.52,766.09,900.85,767.96,901.51,769.62z"/>
		<path class="st1" d="M972.79,769.62c0.66,1.66,1.87,3.18,3.61,4.55s4.15,2.62,7.22,3.74c3.07,1.12,7.01,2.18,11.82,3.17
			c9.7,2.16,16.86,5.15,21.46,8.97c4.6,3.82,6.9,9.09,6.9,15.82c0,3.74-0.74,7.14-2.21,10.22c-1.47,3.07-3.51,5.69-6.1,7.85
			s-5.71,3.82-9.36,4.98c-3.65,1.16-7.63,1.74-11.94,1.74c-6.97,0-13.33-1.13-19.09-3.37c-5.77-2.25-11.26-5.73-16.48-10.44
			l6.1-7.21c4.56,4.15,9.16,7.24,13.81,9.27c4.64,2.03,9.99,3.05,16.05,3.05c5.89,0,10.59-1.37,14.12-4.11
			c3.52-2.74,5.29-6.35,5.29-10.84c0-2.08-0.33-3.92-1-5.54c-0.66-1.62-1.83-3.09-3.49-4.42c-1.66-1.33-3.97-2.53-6.92-3.61
			s-6.71-2.12-11.29-3.12c-4.99-1.08-9.33-2.32-13.03-3.74c-3.7-1.41-6.76-3.11-9.17-5.11c-2.41-1.99-4.2-4.32-5.36-6.97
			c-1.16-2.66-1.75-5.82-1.75-9.47c0-3.49,0.7-6.68,2.11-9.59c1.41-2.91,3.4-5.42,5.97-7.54c2.57-2.12,5.6-3.78,9.08-4.98
			c3.48-1.21,7.3-1.81,11.44-1.81c6.38,0,11.96,0.88,16.73,2.64c4.77,1.76,9.39,4.4,13.87,7.94l-5.72,7.59
			c-4.06-3.31-8.15-5.72-12.25-7.21c-4.11-1.49-8.4-2.24-12.87-2.24c-2.82,0-5.37,0.37-7.65,1.12c-2.28,0.75-4.23,1.75-5.85,2.99
			c-1.62,1.25-2.86,2.74-3.73,4.49c-0.87,1.74-1.31,3.61-1.31,5.61C971.8,766.09,972.13,767.96,972.79,769.62z"/>
		<path class="st1" d="M1099.67,751.3h-53.12v29.73h47.52v8.96h-47.52v30.48h53.74v8.96h-63.57v-87.08h62.94V751.3z"/>
		<path class="st1" d="M1112.98,742.35h9.83v77.99h49.01v9.08h-58.84V742.35z"/>
		<path class="st1" d="M1191.48,769.62c0.66,1.66,1.87,3.18,3.61,4.55c1.74,1.37,4.15,2.62,7.22,3.74
			c3.07,1.12,7.01,2.18,11.82,3.17c9.7,2.16,16.86,5.15,21.46,8.97c4.6,3.82,6.9,9.09,6.9,15.82c0,3.74-0.74,7.14-2.21,10.22
			c-1.47,3.07-3.51,5.69-6.1,7.85c-2.59,2.16-5.71,3.82-9.36,4.98c-3.65,1.16-7.63,1.74-11.94,1.74c-6.97,0-13.33-1.13-19.09-3.37
			c-5.77-2.25-11.26-5.73-16.48-10.44l6.1-7.21c4.56,4.15,9.16,7.24,13.81,9.27c4.64,2.03,9.99,3.05,16.05,3.05
			c5.89,0,10.59-1.37,14.12-4.11c3.52-2.74,5.29-6.35,5.29-10.84c0-2.08-0.33-3.92-1-5.54c-0.66-1.62-1.83-3.09-3.49-4.42
			c-1.66-1.33-3.97-2.53-6.92-3.61s-6.71-2.12-11.29-3.12c-4.99-1.08-9.33-2.32-13.03-3.74c-3.7-1.41-6.76-3.11-9.17-5.11
			c-2.41-1.99-4.2-4.32-5.36-6.97c-1.16-2.66-1.75-5.82-1.75-9.47c0-3.49,0.7-6.68,2.11-9.59c1.41-2.91,3.4-5.42,5.97-7.54
			c2.57-2.12,5.6-3.78,9.08-4.98c3.48-1.21,7.3-1.81,11.44-1.81c6.38,0,11.96,0.88,16.73,2.64c4.77,1.76,9.39,4.4,13.87,7.94
			l-5.72,7.59c-4.06-3.31-8.15-5.72-12.25-7.21c-4.11-1.49-8.4-2.24-12.87-2.24c-2.82,0-5.37,0.37-7.65,1.12
			c-2.28,0.75-4.23,1.75-5.85,2.99c-1.62,1.25-2.86,2.74-3.73,4.49c-0.87,1.74-1.31,3.61-1.31,5.61
			C1190.48,766.09,1190.81,767.96,1191.48,769.62z"/>
	</g>
	<g>
		<g>
			<g>
				<path class="st0" d="M853.75,267.62c0.04,0.02,0.08,0.05,0.12,0.07c0-0.03-0.01-0.1-0.02-0.14
					C853.82,267.58,853.78,267.6,853.75,267.62z"/>
				<path class="st0" d="M853.87,267.69C853.53,267.69,853.99,267.77,853.87,267.69L853.87,267.69z"/>
				<path class="st0" d="M1007.68,372.26c-7.04-17.49-20.91-31.22-36.04-41.97c-13.24-9.32-27.6-16.77-42.49-22.99
					c-2.69-1.13-5.41-2.21-8.13-3.25c0.01,0.35,0.03,0.7,0.03,1.06c0,8.83-2.6,17.04-7.07,23.94c2.56,1.01,5.11,2.07,7.64,3.16
					c13.7,5.92,26.84,13.04,38.83,21.99c10.47,8.12,20.64,18.05,24.44,31.14c2.8,9.6,0.33,20.07-5.13,28.27
					c-7.98,12.17-19.9,21.06-32.13,28.63c-9.99,6.04-20.49,11.11-31.28,15.5c-2.7,1.1-5.41,2.15-8.15,3.16
					c6.15,6.18,10.46,14.17,12.1,23.1c2.58-0.99,5.15-2.02,7.7-3.08c14.54-6.04,28.58-13.24,41.62-22.12
					c15.24-10.47,29.31-23.78,36.99-40.88C1013.26,403.68,1013.68,386.75,1007.68,372.26z"/>
				<path class="st0" d="M475.13,434.26c-10.41-7.9-20.51-17.48-24.9-30.12c-3.5-9.93-1.29-21.14,4.43-29.79
					c7.96-12.24,19.92-21.25,32.23-28.8c7.63-4.64,15.58-8.7,23.72-12.32c2.5-1.11,5.01-2.18,7.55-3.21
					c-3.75-6.49-5.9-14.01-5.9-22.03c0-1.18,0.06-2.35,0.15-3.51c-2.79,1.08-5.55,2.22-8.31,3.38
					c-18.49,7.82-36.12,17.55-51.55,30.5c-12.72,10.84-23.64,24.66-28.03,41.04c-3.92,14.45-1.5,30.2,5.77,43.21
					c10.98,20.12,29.97,34.32,49.55,45.4c8.23,4.62,16.74,8.65,25.42,12.29c2.55,1.07,5.12,2.11,7.71,3.11
					c1.6-8.91,5.87-16.89,11.96-23.09c-2.72-1.03-5.42-2.09-8.1-3.2C502.12,451.06,488,443.7,475.13,434.26z"/>
				<path class="st0" d="M885.71,154.14c-9.02-12.98-23.7-21.82-39.41-23.6c-18.59-2.38-37.2,2.93-53.91,10.74
					c-17.02,8.04-32.6,18.57-47.2,30.37c-2.19,1.77-4.37,3.56-6.52,5.39c7.43,4.86,13.3,11.89,16.71,20.2
					c2.15-1.83,4.33-3.63,6.52-5.4c7.97-6.41,16.26-12.42,25-17.77c15.79-9.52,33.33-18.26,52.2-18
					c11.86,0.04,22.91,7.3,28.29,17.75c8.71,16.4,9.65,35.6,9.17,53.8c-0.29,8.47-1.12,16.9-2.32,25.28
					c-0.39,2.77-0.83,5.53-1.3,8.28c1.32-0.12,2.65-0.19,4-0.19c7.86,0,15.24,2.07,21.63,5.67c0.49-2.82,0.96-5.65,1.38-8.48
					c2.28-15.27,3.44-30.69,2.79-46.15C901.8,191.82,897.72,170.87,885.71,154.14z"/>
				<path class="st0" d="M898.29,530.59c-6.33,3.51-13.61,5.51-21.35,5.51c-1.24,0-2.47-0.06-3.69-0.17c0.47,2.75,0.9,5.5,1.29,8.26
					c1.5,10.6,2.41,21.28,2.54,31.99c0.01,15.47-1.35,31.43-7.98,45.61c-4.31,9.38-12.45,17.34-22.75,19.56
					c-13.73,3-27.75-1.37-40.29-6.81c-15.89-7.3-30.48-16.95-44.08-27.88c-2.2-1.77-4.38-3.56-6.54-5.39
					c-1.67,4.13-3.95,7.96-6.73,11.36l-3.81,3.66c-1.81,1.74-3.75,3.3-5.79,4.69c0.08,0.07,0.17,0.14,0.25,0.21
					c2.06,1.75,4.14,3.48,6.24,5.17c0.08,0.07,0.16,0.13,0.24,0.19c1.92,1.54,3.85,3.06,5.81,4.55c0.32,0.24,0.64,0.49,0.95,0.73
					c1.15,0.87,2.31,1.74,3.47,2.59c2.32,1.71,4.66,3.38,7.03,5.01c7.39,5.07,15.04,9.75,23.01,13.91
					c15.94,8.24,33.45,14.56,51.61,14.52c13.17,0.07,26.52-4,36.82-12.35c16.97-13.7,24.49-35.71,26.97-56.73
					c2.23-19.95,1.14-39.97-1.85-59.76C899.26,536.22,898.79,533.4,898.29,530.59z"/>
				<path class="st0" d="M535.98,268.89c6.1-3.19,13.03-5,20.39-5c1.61,0,3.2,0.09,4.77,0.26c-0.5-2.76-0.96-5.53-1.38-8.3
					c-2.5-16.37-3.59-32.93-2.21-49.47c1.27-12.66,3.88-25.78,11.3-36.39c5.4-7.83,14.35-13.02,23.84-13.71
					c13.68-1.08,27.01,3.68,39.2,9.46c13.09,6.41,25.25,14.4,36.73,23.32c2.19,1.7,4.35,3.43,6.49,5.19
					c3.92-7.82,10.09-14.31,17.66-18.63c-2.21-1.84-4.44-3.66-6.7-5.44c-10.27-8.11-21.05-15.55-32.45-22.02
					c-15.77-8.85-32.99-15.94-51.18-17.37c-13.95-1.13-28.54,1.8-40.07,10c-16.76,11.69-25.33,31.73-28.71,51.29
					c-3.82,22.72-2.65,45.74,0.92,68.43C535.01,263.31,535.47,266.1,535.98,268.89z"/>
				<path class="st0" d="M681.39,613.8c-2.65-3.03-4.91-6.42-6.66-10.09c-2.14,1.76-4.3,3.5-6.49,5.2
					c-11.14,8.65-22.95,16.42-35.61,22.73c-12.4,5.99-25.97,10.98-39.95,9.93c-10.14-0.65-19.56-6.57-24.83-15.23
					c-7.47-12.01-9.69-26.43-10.51-40.32c-0.65-14.28,0.34-28.51,2.4-42.62c0.4-2.77,0.86-5.53,1.34-8.29
					c-1.55,0.16-3.12,0.25-4.71,0.25c-7.6,0-14.74-1.92-20.98-5.3c-0.5,2.8-0.96,5.61-1.38,8.42c-2.37,15.74-3.55,31.62-2.9,47.56
					c0.99,20.34,5.17,41.49,17.47,58.21c9.73,13.7,25.87,22.44,42.62,23.35c22.49,1.54,44.21-7.1,63.45-17.98
					c4.3-2.47,8.5-5.07,12.62-7.8c2.41-1.59,4.78-3.23,7.13-4.9c3.88-2.75,7.68-5.61,11.42-8.55c0.08-0.07,0.17-0.13,0.25-0.2
					c2.17-1.71,4.32-3.45,6.45-5.22c0.09-0.07,0.18-0.15,0.26-0.22c-2.61-1.51-5.1-3.29-7.39-5.34L681.39,613.8z"/>
			</g>
		</g>
		<g>
			<path class="st1" d="M610.33,515.23c-2.03-1.23-4.04-2.48-6.05-3.73c-2.95,7.02-7.39,13.27-13.04,18.36
				c12.11,7.62,24.46,15.32,36.29,22.14c12.07,6.95,24.32,13.74,36.55,20.24c1.85-7.49,5.34-14.45,10.26-20.42
				C653.31,540.6,631.83,528.32,610.33,515.23z"/>
			<path class="st1" d="M762.54,548.72c-2.37,1.29-4.75,2.57-7.13,3.84c4.46,5.66,7.69,12.17,9.49,19.14
				c25.72-13.91,52.14-29.17,74.95-43.29c-5.09-5.17-9.02-11.34-11.57-18.11C807.35,523.4,785.28,536.29,762.54,548.72z"/>
			<path class="st1" d="M603.67,286.41c10.46-6.58,20.44-12.64,30.28-18.39c12.71-7.43,25.99-14.82,39.59-22.05
				c-4.62-5.91-7.89-12.72-9.6-20.01c-24.62,13.37-49.9,28.96-72.7,43.47C596.5,274.18,600.73,279.95,603.67,286.41z"/>
			<path class="st1" d="M868.66,440.64c2.73-0.44,5.49-0.66,8.28-0.66c4.58,0,9.14,0.61,13.54,1.79
				c0.34-10.82,0.51-22.13,0.51-33.76c0-17.18-0.37-34.81-1.09-52.55c-4.23,1.09-8.59,1.65-12.96,1.65c-2.81,0-5.6-0.22-8.35-0.67
				c0.57,16.18,0.84,29.61,0.84,42.15c0,3.78-0.03,7.57-0.08,11.35C869.19,421.18,869,431.06,868.66,440.64z"/>
			<path class="st1" d="M791.01,264.52c12.23,7.03,24.71,14.55,37.22,22.4c2.58-6.95,6.63-13.26,11.89-18.51
				c-20.68-12.72-45.82-26.87-74.99-42.23c-1.67,6.91-4.75,13.41-9.05,19.09C768.17,251.67,779.89,258.13,791.01,264.52z"/>
			<path class="st1" d="M556.37,360.01c-5.32,0-10.59-0.83-15.62-2.43c-0.49,16.43-0.93,35.86-0.93,55.37
				c0,10.36,0.12,19.91,0.37,28.88c5.2-1.72,10.66-2.6,16.18-2.6c1.99,0,3.98,0.12,5.96,0.35c-0.37-10.25-0.66-21.51-0.66-32.93
				c0-3.22,0.02-6.44,0.07-9.4c-0.06-3.09-0.08-6.2-0.08-9.31c0-9.19,0.21-18.16,0.52-28.26
				C560.25,359.9,558.31,360.01,556.37,360.01z"/>
			<circle class="st1" cx="714.56" cy="213.97" r="44.11"/>
			<path class="st1" d="M775.9,398.59c0-33.88-27.46-61.34-61.34-61.34s-61.34,27.46-61.34,61.34c0,28.84,19.92,53.02,46.74,59.58
				l-0.98,12.52l-8.47,67.98c7.2-3.77,15.37-5.93,24.04-5.93c8.78,0,17.06,2.21,24.32,6.07l-9.56-68.11v-12.56
				C756.07,451.52,775.9,427.38,775.9,398.59z"/>
			<circle class="st1" cx="714.56" cy="584.74" r="44.11"/>
			
				<ellipse transform="matrix(0.3827 -0.9239 0.9239 0.3827 259.4753 998.5225)" class="st1" cx="876.93" cy="305.1" rx="44.11" ry="44.11"/>
			
				<ellipse transform="matrix(0.9239 -0.3827 0.3827 0.9239 -121.5242 373.0396)" class="st1" cx="876.93" cy="491.99" rx="44.11" ry="44.11"/>
			
				<ellipse transform="matrix(0.1602 -0.9871 0.9871 0.1602 163.224 807.8474)" class="st1" cx="556.37" cy="308" rx="44.11" ry="44.11"/>
			
				<ellipse transform="matrix(0.3827 -0.9239 0.9239 0.3827 -110.4043 817.2752)" class="st1" cx="556.37" cy="491.25" rx="44.11" ry="44.11"/>
			<path class="st1" d="M728.31,330.74v-66.66c-4.39,1.21-8.98,1.9-13.75,1.9c-4.08,0-8.04-0.52-11.86-1.42v65.88
				c3.86-0.67,7.81-1.09,11.86-1.09C719.27,329.36,723.87,329.84,728.31,330.74z"/>
			<path class="st1" d="M605.65,324.5c-2.79,8.32-7.63,15.68-13.92,21.54l56.6,32.41c2.54-8.34,6.65-15.99,11.93-22.68L605.65,324.5
				z"/>
			<path class="st1" d="M838.05,457.56L779,423.75c-3.17,8.09-7.82,15.43-13.62,21.71l60.91,34.87
				C828.27,471.73,832.38,463.96,838.05,457.56z"/>
			<path class="st1" d="M826.78,318.67l-60.47,34.08c5.67,6.39,10.15,13.82,13.16,21.98l59.89-33.76
				C833.46,334.78,829.08,327.16,826.78,318.67z"/>
			<path class="st1" d="M605.03,473.05l55.49-31.28c-5.32-6.65-9.48-14.27-12.08-22.59l-58.12,32.76
				C596.85,457.59,601.94,464.83,605.03,473.05z"/>
			<path class="st1" d="M754.2,640.9c-5.29-3.33-11.19-8.1-14.36-10.75c-7.49,4.2-16.1,6.61-25.27,6.61
				c-8.5,0-16.51-2.07-23.59-5.72c-5.68,5.1-12.11,9.27-15.16,11.15l1.22,4.54l-3.99,29.24h30v-29.24h7.06v4.35h9.51v-4.35h7.06
				v29.24h30.2l-4.39-29.24L754.2,640.9z"/>
		</g>
	</g>
</g>
</svg>
