<svg class="pages__GirlsLogo-sc-1y7kbae-0 lfMVzH" width="156" height="141" viewBox="0 0 156 141"><defs><polygon id="logo-a" points="0 .52 155.349 .52 155.349 140.18 0 140.18"></polygon></defs><g fill="none" fill-rule="evenodd"><path fill="#FFF" d="M147.959432,70.6499355 C147.959432,60.9660227 136.273389,52.4068308 118.375263,47.1881913 C122.798274,29.1033017 121.216105,14.7180227 112.816737,9.87647616 C104.417368,5.03492965 91.1499789,10.8593773 77.6740421,23.7264471 C64.1989263,10.8593773 50.9315368,5.03492965 42.5321684,9.87647616 C34.1328,14.7180227 32.5506316,29.1033017 36.9744632,47.1881913 C19.0755158,52.4068308 7.38947368,60.9660227 7.38947368,70.6499355 C7.38947368,80.3338483 19.0755158,88.8938599 36.9744632,94.1116797 C32.5506316,112.196569 34.1328,126.581848 42.5321684,131.423395 C50.9315368,136.264941 64.1989263,130.440494 77.6740421,117.573424 C91.1499789,130.440494 104.417368,136.264941 112.816737,131.423395 C121.216105,126.581848 122.798274,112.196569 118.375263,94.1116797 C136.273389,88.8938599 147.959432,80.3338483 147.959432,70.6499355"></path><g transform="translate(0 .3)"><mask id="logo-b" fill="#fff"><use xlink:href="#logo-a"></use></mask><path fill="#FFF" d="M77.6744526,107.064087 L82.7822211,111.940884 C91.5806211,120.3435 103.577021,127.932087 109.122411,124.733355 C114.6678,121.537081 114.084853,107.37068 111.196389,95.5611105 L109.5198,88.7062151 L116.304158,86.728936 C127.991021,83.3219826 140.570368,76.7433488 140.570368,70.3499826 C140.570368,63.957436 127.991021,57.3779826 116.304158,53.9702093 L109.5198,51.9929302 L111.196389,45.1380349 C114.084853,33.3292849 114.6678,19.1628837 109.122411,15.9666105 C103.577021,12.771157 91.5806211,20.3564651 82.7814,28.7590814 L77.6744526,33.6350581 L72.5675053,28.7590814 C63.7682842,20.3564651 51.7718842,12.7686977 46.2264947,15.9666105 C40.6811053,19.162064 41.2648737,33.3284651 44.1525158,45.1380349 L45.8291053,51.9929302 L39.0455684,53.9702093 C27.3578842,57.3779826 14.7785368,63.957436 14.7785368,70.3499826 C14.7785368,76.7433488 27.3578842,83.3219826 39.0455684,86.728936 L45.8291053,88.7062151 L44.1525158,95.5611105 C41.2648737,107.3715 40.6811053,121.537081 46.2264947,124.733355 C51.7718842,127.929628 63.7682842,120.3435 72.5666842,111.940884 L77.6744526,107.064087 Z M106.195358,140.180233 C97.7705368,140.180233 87.9359684,135.733814 77.6744526,127.174622 C62.8503474,139.539174 48.9146211,143.319942 38.8370211,137.512709 C28.7602421,131.703837 25.0728947,117.762872 28.3858421,98.7623023 C10.2487895,92.1271047 -0.000410526316,81.9677267 -0.000410526316,70.3499826 C-0.000410526316,58.7322384 10.2487895,48.5728605 28.3858421,41.9376628 C25.0728947,22.937093 28.7602421,8.99612791 38.8370211,3.18725581 C48.9146211,-2.62079651 62.8503474,1.1607907 77.6744526,13.525343 C92.4985579,1.1607907 106.434284,-2.62079651 116.511884,3.18725581 C126.588663,8.99612791 130.276011,22.937093 126.963063,41.9376628 C145.100116,48.5736802 155.349316,58.7322384 155.349316,70.3499826 C155.349316,81.9677267 145.100116,92.1271047 126.963063,98.7623023 C130.276011,117.762052 126.588663,131.703837 116.511884,137.512709 C113.409947,139.300622 109.941821,140.179413 106.195358,140.180233 Z" mask="url(#logo-b)"></path></g><path fill="#232C3D" d="M49.3167726 10.6259895C47.2378674 10.6259895 45.3716147 11.0793209 43.7631726 12.0064779 37.0420358 15.8806988 35.2316147 27.7992977 38.7933411 44.1282453 45.3732568 42.373943 52.5320147 41.091007 60.1267516 40.3040302 64.6055937 34.1311814 69.2979095 28.5829953 74.1100989 23.7693209 64.6893411 15.2158674 55.9287095 10.6259895 49.3167726 10.6259895zM35.1922042 50.269943L34.5813411 47.7721116C29.6566674 27.636164 32.1058674 13.0475826 41.3000147 7.74696628 50.4958042 2.44635 64.3732358 7.6231814 79.3771516 21.9494372L81.2384779 23.726693 79.3771516 25.5039488C73.8999095 30.7340651 68.5523937 36.9798733 63.4823937 44.0692221L62.8312989 44.9799837 61.7154884 45.088193C53.0295726 45.9276349 44.9380989 47.4286291 37.6643937 49.5493674L35.1922042 50.269943zM81.2388884 117.530386C93.6211832 128.774316 104.863857 133.16745 111.584994 129.293229 118.306952 125.419008 120.117373 113.500409 116.555646 97.1722814 109.975731 98.925764 102.816973 100.20952 95.2222358 100.996497 90.7433937 107.169345 86.0502568 112.717531 81.2388884 117.530386M106.086404 135.585764C97.6418779 135.585764 87.1168042 129.99331 75.9718358 119.35027L74.1105095 117.573014 75.9718358 115.795758C81.4490779 110.566462 86.7965937 104.319834 91.8665937 97.2304849L92.5185095 96.3197233 93.63432 96.2123337C102.319415 95.3720721 110.410888 93.8710779 117.684594 91.7503395L120.156783 91.029764 120.767646 93.5284151C125.69232 113.664363 123.243941 128.252944 114.048152 133.552741 111.684341 134.916014 109.010173 135.585764 106.086404 135.585764"></path><path fill="#232C3D" d="M38.7936695 97.1718715C35.2319432 113.500819 37.0423642 125.419418 43.7635011 129.293639 50.4846379 133.16786 61.7273116 128.773906 74.1104274 117.529976 69.2982379 112.716302 64.6059221 107.168935 60.12708 100.996087 52.5315221 100.20911 45.3735853 98.9261738 38.7936695 97.1718715M49.2620905 135.586174C46.3383221 135.586174 43.6657958 134.916424 41.3003432 133.553151 32.1053747 128.252534 29.6569958 113.663953 34.5816695 93.5280052L35.1925326 91.0293541 37.6647221 91.7507494C44.9376063 93.8714878 53.0299011 95.372482 61.7149958 96.2119238L62.8308063 96.3193134 63.4827221 97.2308948C68.5519011 104.319424 73.9002379 110.566052 79.3766589 115.796168L81.2379853 117.573424 79.3766589 119.35068C68.2325116 129.992081 57.7066168 135.586174 49.2620905 135.586174M95.2224821 40.3037023C102.817219 41.0906791 109.975977 42.3736151 116.555893 44.1279174 120.117619 27.7989698 118.306377 15.8811907 111.58524 12.00615 104.864924 8.13274884 93.6214295 12.5258826 81.2391347 23.7698128 86.0505032 28.5826674 90.7428189 34.1308535 95.2224821 40.3037023zM120.157029 50.2696151L117.68484 49.5490395C110.411135 47.4283012 102.31884 45.927307 93.6337453 45.0878651L92.5179347 44.9804756 91.86684 44.0688942C86.79684 36.9795453 81.4485032 30.7337372 75.9720821 25.5036209L74.1107558 23.7263651 75.9720821 21.9491093C90.9759979 7.62285349 104.854251 2.44684186 114.048398 7.74663837 123.243366 13.0472547 125.692566 27.635836 120.767893 47.7717837L120.157029 50.2696151z"></path><path fill="#232C3D" d="M91.8669221 44.0691401C87.3232168 37.7159424 82.5570063 32.0406924 77.6742063 27.1663552 72.7922274 32.0406924 68.0251958 37.7167622 63.4823116 44.0691401L59.4731116 41.2114308C64.72128 33.8720529 70.2724168 27.3917913 75.9721642 21.9493552L77.6742063 20.3237564 79.3770695 21.9493552C85.0759958 27.3909715 90.6271326 33.8720529 95.8761221 41.2114308L91.8669221 44.0691401zM77.6744526 120.97636L75.9724105 119.350762C70.2726632 113.908326 64.7215263 107.428064 59.4733579 100.088686L63.4825579 97.2309767C68.0254421 103.583355 72.7916526 109.259424 77.6744526 114.132942 82.5564316 109.259424 87.3234632 103.583355 91.8671684 97.2309767L95.8755474 100.088686C90.6273789 107.428064 85.0762421 113.908326 79.3764947 119.350762L77.6744526 120.97636zM112.769937 70.6499355C115.885011 77.609761 118.350632 84.4408831 120.12 91.0080401 136.064021 85.9230227 145.496274 78.3991971 145.496274 70.6499355 145.496274 62.9014936 136.064021 55.3768483 120.12 50.2918308 118.350632 56.8589878 115.885011 63.6901099 112.769937 70.6499355zM116.593579 97.1923657L115.981895 94.6953541C114.184611 87.3444994 111.439832 79.5976971 107.826379 71.6689064L107.361663 70.6499355 107.826379 69.6309645C111.439832 61.7021738 114.184611 53.9553715 115.981895 46.6045169L116.593579 44.1075052 119.065768 44.827261C138.993537 50.6377727 150.422589 60.0495227 150.422589 70.6499355 150.422589 81.251168 138.993537 90.662918 119.065768 96.4726099L116.593579 97.1923657zM35.2291516 50.2918308C19.2851305 55.3768483 9.85287789 62.9014936 9.85287789 70.6499355 9.85287789 78.3991971 19.2851305 85.9238424 35.2291516 91.0080401 36.99852 84.4400634 39.4641411 77.6089413 42.5792147 70.6499355 39.4641411 63.6909297 36.99852 56.8598076 35.2291516 50.2918308zM38.7563937 97.1923657L36.2842042 96.4717901C16.3556147 90.662918 4.92656211 81.251168 4.92656211 70.6499355 4.92656211 60.0495227 16.3556147 50.6377727 36.2842042 44.827261L38.7563937 44.1075052 39.3672568 46.6045169C41.1653621 53.957011 43.90932 61.7038134 47.5227726 69.6309645L47.9874884 70.6499355 47.5227726 71.6689064C43.90932 79.5960576 41.1653621 87.3428599 39.3672568 94.6953541L38.7563937 97.1923657z"></path><path fill="#232C3D" d="M43.0390863 71.6686605C39.2983705 63.4619686 36.4526021 55.4216895 34.5814232 47.7724395L34.0222863 45.4869279 36.2834653 44.8278349C43.8519284 42.6210209 52.2488337 41.0618233 61.2401811 40.1928698L61.7155705 45.0877012C53.9319916 45.8402477 46.6254442 47.1240035 39.9576758 48.9086372 41.7442863 55.5676081 44.2846232 62.5274337 47.5228547 69.6315384L43.0390863 71.6686605zM94.1087242 101.107411L93.6341558 96.2117599C101.416914 95.4592134 108.723461 94.1762773 115.391229 92.3916436 113.604619 85.7326727 111.065103 78.7736669 107.826051 71.6687424L112.309819 69.6316203C116.051356 77.839132 118.897124 85.879411 120.767482 93.5278413L121.326619 95.8133529 119.06544 96.4724459C111.496977 98.6792599 103.100072 100.238458 94.1087242 101.107411"></path><path fill="#232C3D" d="M112.309819 71.6686605L107.826051 69.6315384C111.065103 62.5257942 113.604619 55.5667884 115.391229 48.9086372 108.723461 47.1240035 101.416914 45.8402477 93.6341558 45.0877012L94.1087242 40.1928698C103.100072 41.0618233 111.496977 42.6210209 119.06544 44.8278349L121.326619 45.4869279 120.768303 47.7724395C118.897124 55.4208698 116.051356 63.4603291 112.309819 71.6686605M61.2405916 101.107411C52.2492442 100.238458 43.8523389 98.6792599 36.2838758 96.4724459L34.0226968 95.8133529 34.5818337 93.5278413C36.4521916 85.8777715 39.29796 77.8383122 43.0394968 69.6316203L47.5224442 71.6687424C44.2850337 78.7728471 41.7446968 85.7318529 39.9580863 92.3916436 46.6258547 94.1762773 53.9324021 95.4592134 61.71516 96.2117599L61.2405916 101.107411z"></path><path fill="#FFF" d="M47.5988842,88.9882151 C50.0053895,93.5453023 53.1500211,98.5753953 57.0475579,104.112105 C64.1825053,114.24689 71.4332211,122.566709 71.5038316,122.646227 L73.3429895,124.752209 C74.4341684,126.002355 76.0138737,126.719651 77.6748632,126.719651 C79.3358526,126.719651 80.9147368,126.002355 82.0059158,124.752209 L83.8623158,122.627372 C83.9156842,122.566709 91.1672211,114.24689 98.3021684,104.112105 C102.146337,98.6516337 105.257305,93.6830233 107.651495,89.1751221"></path><path fill="#FB8E82" d="M105.494261,69.9751029 C105.494261,85.315411 77.6745347,117.163376 77.6745347,117.163376 C77.6745347,117.163376 49.8548084,85.315411 49.8548084,69.9751029 C49.8548084,54.6347948 62.3101768,42.1989227 77.6745347,42.1989227 C93.0388926,42.1989227 105.494261,54.6347948 105.494261,69.9751029"></path><path fill="#232C3D" d="M77.6745347,44.658307 C63.6928295,44.658307 52.3179663,56.0153651 52.3179663,69.9751849 C52.3179663,80.9321965 69.1741768,103.258563 77.6745347,113.376952 C86.1740716,103.256103 103.031103,80.9248186 103.031103,69.9751849 C103.031103,56.0153651 91.65624,44.658307 77.6745347,44.658307 Z M77.6745347,120.904877 L75.8181347,118.77922 C75.7475242,118.698883 68.6979663,110.606958 61.7493979,100.736138 C52.2227242,87.2025977 47.3916505,76.8530337 47.3916505,69.9751849 C47.3916505,53.3027547 60.9767874,39.7397023 77.6745347,39.7397023 C94.3722821,39.7397023 107.957419,53.3027547 107.957419,69.9751849 C107.957419,76.8530337 103.126345,87.2025977 93.5996716,100.736138 C86.6511032,110.606958 79.6015453,118.698883 79.5309347,118.77922 L77.6745347,120.904877 Z"></path><path fill="#FFF" d="M77.6745347,60.0814116 C83.2938189,60.0814116 87.8490189,64.6294814 87.8490189,70.2399698 C87.8490189,75.8504581 83.2938189,80.3985279 77.6745347,80.3985279 C72.0552505,80.3985279 67.5000505,75.8504581 67.5000505,70.2399698 C67.5000505,64.6294814 72.0552505,60.0814116 77.6745347,60.0814116"></path><path fill="#232C3D" d="M77.6745347,62.540714 C73.4223032,62.540714 69.9632084,65.9943942 69.9632084,70.2399698 C69.9632084,74.4855453 73.4223032,77.9392256 77.6745347,77.9392256 C81.9267663,77.9392256 85.3858611,74.4855453 85.3858611,70.2399698 C85.3858611,65.9943942 81.9267663,62.540714 77.6745347,62.540714 M77.6745347,82.8578302 C70.7062611,82.8578302 65.0368926,77.197336 65.0368926,70.2399698 C65.0368926,63.2826035 70.7062611,57.6221093 77.6745347,57.6221093 C84.6428084,57.6221093 90.3121768,63.2826035 90.3121768,70.2399698 C90.3121768,77.197336 84.6428084,82.8578302 77.6745347,82.8578302"></path></g></svg>