<?xml version="1.0" encoding="utf-8"?>
<!-- Generator: Adobe Illustrator 23.0.1, SVG Export Plug-In . SVG Version: 6.00 Build 0)  -->
<svg version="1.1" id="Layer_1" xmlns="http://www.w3.org/2000/svg" xmlns:xlink="http://www.w3.org/1999/xlink" x="0px" y="0px"
	 viewBox="0 0 841.9 259.6" style="enable-background:new 0 0 841.9 259.6;" xml:space="preserve">
<style type="text/css">
	.st0{fill:#F16622;}
	.st1{fill:#1E459C;}
	.st2{fill:#1E459B;}
	.st3{enable-background:new    ;}
</style>
<g>
	<g>
		<path class="st0" d="M236.6,211.8L236.6,211.8c6.2,0,11.2-5.1,11.2-11.2V59c0-6.2-5.1-11.2-11.2-11.2l0,0
			c-6.2,0-11.2,5.1-11.2,11.2v141.5C225.4,206.7,230.4,211.8,236.6,211.8z"/>
		<g>
			<path class="st0" d="M219.5,206.2c-6.2,4.6-12.3,8-17.9,10l0,0c-6.8,2.4-12.2,2.5-15.4,0.6c-6.9-4-9.8-19.4-5.9-40.1
				c0.5-2.4,1-4.9,1.6-7.3c6.3,1.4,13,2.5,20.1,3.3c-0.2-1.7-0.4-3.4-0.4-5.1v-4.4c-6.1-0.8-11.8-1.7-17.2-2.9
				c1.9-6.3,4.3-12.8,7.1-19.4c2,3.8,4.1,7.6,6.2,11.4c1.3,2.2,2.6,4.3,3.9,6.5V140c-1.8-3.3-3.5-6.7-5.1-10
				c1.6-3.4,3.3-6.8,5.1-10.1V101c-1.3,2.2-2.6,4.3-3.9,6.5c-2.2,3.7-4.2,7.5-6.2,11.4c-2.7-6.5-5.1-12.9-7-19
				c5.4-1.2,11.2-2.2,17.1-3V92c0-1.6,0.1-3.2,0.3-4.8c-7,0.9-13.7,2.1-20,3.5c-0.6-2.2-1.1-4.5-1.5-6.8l0,0
				c-4.1-21.1-1.4-37,5.5-41c6.3-3.6,19,0.3,33.3,10.9c0.9-3.1,2.7-5.8,5-8c-16.8-12.4-32.8-17-43-11.1c-11.5,6.6-14.9,26.3-10,51
				c0.5,2.4,1,4.9,1.6,7.3c-2.8,0.8-5.5,1.7-8.1,2.6c-23.3,8.1-38.1,20.8-38.1,34c0,13.6,16,27.3,40.2,35.6c2,0.7,3.9,1.3,5.9,1.9
				c-0.6,2.6-1.2,5.2-1.7,7.8c-4.6,24.2-1,43.4,10.4,50c10.2,5.9,26.5,1.4,43.2-10.8C222.3,212,220.5,209.3,219.5,206.2z M175.4,158
				c-1.8-0.5-3.6-1.1-5.4-1.7c-10.7-3.7-19.6-8.4-25.6-13.6c-5.5-4.7-8.2-9.3-8.2-13.1c0-8,11.9-18.2,31.8-25.2
				c2.5-0.9,5-1.7,7.6-2.4c2.8,8.9,6.4,18.3,10.7,27.8C181.8,139.4,178.1,148.9,175.4,158z"/>
			<path class="st0" d="M307.4,95.4c-2.3-0.8-4.7-1.5-7.1-2.2c0.4-1.6,0.8-3.2,1.1-4.8c5.4-26,1.9-47-10.1-53.8
				c-10.1-5.8-25.9-1.2-42.5,11.3c2.3,2.2,4.1,4.9,5,8c14.1-10.8,26.7-14.7,32.8-11.2l0,0c7.4,4.2,10.2,21.4,5.6,43.8
				c-0.3,1.5-0.6,2.9-1,4.4c-6.3-1.5-13.1-2.7-20.1-3.6c0.2,1.6,0.3,3.2,0.3,4.8v4.8c6,0.8,11.8,1.9,17.2,3.1
				c-1.9,6.1-4.3,12.4-7,18.9c-2-3.9-4.1-7.7-6.3-11.4c-1.3-2.2-2.6-4.3-3.9-6.5v18.8c1.8,3.3,3.5,6.7,5.2,10
				c-1.7,3.4-3.4,6.8-5.2,10.2v18.9c1.3-2.2,2.6-4.4,3.9-6.6c2.2-3.8,4.3-7.7,6.4-11.6c2.9,6.7,5.4,13.2,7.4,19.3
				c-5.5,1.3-11.5,2.3-17.7,3.1v4.6c0,1.7-0.1,3.3-0.4,4.9c7.2-0.9,14.2-2.1,20.6-3.6c0.4,1.8,0.8,3.6,1.2,5.3
				c2.2,11.1,2.5,21.2,1.1,29c-1.3,7.1-3.9,11.8-7.2,13.6c-6.2,3.6-18.8-0.3-32.9-11.1c-0.9,3.1-2.7,5.8-5,8
				c16.6,12.6,32.5,17.1,42.7,11.2c11.8-6.8,15.6-27.5,10.6-52.6c-0.4-1.9-0.8-3.9-1.3-5.9c1.4-0.4,2.8-0.8,4.1-1.3
				c25.2-8.3,41.6-21.8,41.6-35.7C346.5,116.4,331.2,103.6,307.4,95.4z M302,156.4L302,156.4c-1.2,0.4-2.4,0.8-3.7,1.2
				c-2.8-8.8-6.5-18.2-11.1-27.8c4.4-9.4,8-18.7,10.7-27.4c2.2,0.7,4.4,1.3,6.5,2.1c20.3,7,32.8,17.4,32.8,25.3
				C337.1,138.1,323.7,149.1,302,156.4z"/>
		</g>
		<g>
			<g>
				<path class="st1" d="M249.1,66.9v125.9c9.2-4.6,15.6-14.2,15.6-25.1V92C264.7,81,258.3,71.5,249.1,66.9z"/>
				<path class="st1" d="M224.1,66.9c-9.2,4.6-15.6,14.2-15.6,25.1v75.6c0,11,6.4,20.5,15.6,25.1V66.9z"/>
			</g>
			<g>
				<g>
					<path class="st2" d="M240.5,189.3c-0.9,0-1.7-0.8-1.7-1.7c0-1.6-0.6-1.9-3.4-2.5c-3-0.6-7.5-1.6-7.5-8.4c0-6.5,4.5-7.6,7.8-8.4
						c3.3-0.8,4.7-1.3,4.7-4.2c0-3.3-1.9-4.1-5.2-5.1c-2.7-0.9-6.5-2-6.5-6.5s3.8-5.8,6.5-6.7c3.2-1,5-1.8,5-4.8
						c0-2.7-1.3-3.1-4.3-3.8c-2.9-0.7-7.2-1.7-7.2-7.7c0-6.1,4.5-7.5,7.5-8.3c2.9-0.9,4-1.3,4-3.2c0-1.8-0.6-2.1-3.3-2.7
						s-6.8-1.5-6.8-7.4s4.5-7.5,7.7-8.7c3-1.1,3.9-1.6,3.9-3c0-1.2-0.8-1.6-3.6-2.5c-3.3-1-8.2-2.5-8.2-9.4c0-9,8-13.1,12.2-14.1
						c0.9-0.2,1.8,0.4,2,1.3s-0.4,1.8-1.3,2c-0.4,0.1-9.6,2.3-9.6,10.8c0,4.2,2.2,5,5.8,6.1c2.7,0.8,6,1.8,6,5.7
						c0,3.9-3.4,5.2-6.2,6.2c-3.4,1.2-5.5,2.2-5.5,5.5c0,3,1.3,3.5,4.1,4.1c2.4,0.5,6,1.4,6,6c0,4.5-3.7,5.6-6.4,6.4
						c-3.3,1-5.1,1.7-5.1,5.1c0,3.1,1.5,3.6,4.6,4.4c2.8,0.7,6.9,1.6,6.9,7.1c0,5.7-4.2,7.1-7.3,8.1c-3,1-4.2,1.5-4.2,3.4
						c0,1.8,1.1,2.3,4.1,3.3c3.2,1,7.6,2.4,7.6,8.4c0,5.7-4.2,6.7-7.3,7.5c-3.4,0.8-5.2,1.5-5.2,5.1c0,4.1,1.9,4.5,4.8,5.1
						c2.4,0.5,6.1,1.3,6.1,5.8C242.2,188.5,241.5,189.3,240.5,189.3z"/>
				</g>
			</g>
		</g>
	</g>
	<g>
		<g class="st3">
			<path class="st2" d="M389.8,97.1h-6.1v16.5h-11.2V66.9h18.4c5.5,0,9.9,1.2,13,3.7c3.1,2.5,4.7,5.9,4.7,10.4c0,3.2-0.7,5.9-2,8.1
				c-1.3,2.1-3.4,3.9-6.2,5.2l9.7,18.8v0.5h-12L389.8,97.1z M383.7,88.4h7.1c2.1,0,3.7-0.6,4.8-1.7s1.6-2.7,1.6-4.7
				s-0.5-3.6-1.6-4.7c-1.1-1.1-2.7-1.7-4.8-1.7h-7.1V88.4z"/>
			<path class="st2" d="M444.2,93.8h-17.7v11.1h20.9v8.6h-32.1V66.9h32.2v8.7h-21v9.8h17.7V93.8z"/>
			<path class="st2" d="M478.5,104.8H463l-2.7,8.7h-12l17.1-46.6H476l17.2,46.6h-12.1L478.5,104.8z M465.7,96.2h10l-5-16.2
				L465.7,96.2z"/>
			<path class="st2" d="M533.7,97.8c-0.1,3.2-1,6.1-2.6,8.6s-3.8,4.4-6.7,5.8c-2.9,1.4-6.2,2-9.9,2c-6.1,0-11-2-14.5-6
				c-3.5-4-5.3-9.6-5.3-16.9V89c0-4.6,0.8-8.6,2.4-12c1.6-3.4,3.9-6.1,6.9-7.9c3-1.9,6.4-2.8,10.4-2.8c5.7,0,10.2,1.5,13.6,4.5
				c3.4,3,5.4,7.1,5.9,12.3h-11.2c-0.1-2.8-0.8-4.9-2.1-6.1c-1.3-1.2-3.4-1.9-6.2-1.9c-2.8,0-4.8,1-6.2,3.1s-2,5.4-2,10v3.3
				c0,5,0.6,8.5,1.9,10.7c1.2,2.1,3.4,3.2,6.5,3.2c2.6,0,4.6-0.6,5.9-1.8c1.4-1.2,2.1-3.1,2.2-5.8H533.7z"/>
			<path class="st2" d="M574.7,75.6h-14v38h-11.2v-38h-13.7v-8.7h39V75.6z"/>
		</g>
		<g class="st3">
			<path class="st2" d="M401.6,173.6l-18-26v26h-10.4v-43.7h10.4l18,26v-26H412v43.7H401.6z"/>
			<path class="st2" d="M420.5,129.9h27.2v8.5h-16.5v8.8h15.7v8.5h-15.7v9.3h16.7v8.5h-27.4V129.9z"/>
			<path class="st2" d="M497.9,160.2l6.8-30.3h11l-12.1,43.7h-11l-8.9-32.8l-8.9,32.8h-11l-12.1-43.7h11l6.8,30.3l8.1-30.3h11.9
				L497.9,160.2z"/>
			<path class="st2" d="M554.8,157.7v15.9H544v-15.9l-14.4-27.8h11.5l8.3,18.4l8.3-18.4h11.5L554.8,157.7z"/>
			<path class="st2" d="M614.4,151.7c0,3.1-0.5,6-1.5,8.8c-1,2.7-2.5,5.1-4.4,7.2c-1.9,2.1-4.2,3.7-7,4.9c-2.8,1.2-5.9,1.8-9.4,1.8
				c-3.5,0-6.7-0.6-9.5-1.8c-2.8-1.2-5.1-2.8-7-4.9c-1.9-2.1-3.3-4.5-4.3-7.2c-1-2.7-1.5-5.7-1.5-8.8s0.5-6,1.5-8.8
				c1-2.7,2.4-5.1,4.3-7.2c1.9-2.1,4.2-3.7,7-4.9c2.8-1.2,5.9-1.8,9.5-1.8c3.5,0,6.7,0.6,9.4,1.8c2.8,1.2,5.1,2.8,7,4.9
				c1.9,2.1,3.4,4.5,4.4,7.2C613.9,145.7,614.4,148.6,614.4,151.7z M592.1,165.8c1.9,0,3.5-0.3,5-1c1.4-0.7,2.7-1.7,3.6-2.9
				c1-1.2,1.7-2.7,2.2-4.5c0.5-1.7,0.7-3.6,0.7-5.7s-0.2-3.9-0.7-5.7c-0.5-1.7-1.2-3.2-2.2-4.5s-2.2-2.2-3.6-2.9c-1.4-0.7-3.1-1-5-1
				c-1.9,0-3.6,0.4-5,1c-1.4,0.7-2.6,1.7-3.6,2.9c-1,1.2-1.7,2.7-2.2,4.5c-0.5,1.7-0.7,3.6-0.7,5.7s0.2,3.9,0.7,5.7
				c0.5,1.7,1.2,3.2,2.2,4.5c1,1.2,2.2,2.2,3.6,2.9C588.5,165.5,590.1,165.8,592.1,165.8z"/>
			<path class="st2" d="M653.8,143.7c0,2.9-0.8,5.5-2.5,7.7c-1.6,2.2-3.9,3.8-6.9,5l14.4,17.2h-13.3l-12-15.2h-2v15.2h-10.8v-43.7
				h13.9c2.7,0,5.2,0.3,7.5,0.9c2.3,0.6,4.3,1.4,6,2.6c1.7,1.1,3,2.6,4,4.3C653.3,139.3,653.8,141.3,653.8,143.7z M643.4,143.9
				c0-2-0.8-3.4-2.3-4.4c-1.5-0.9-3.7-1.4-6.4-1.4h-3.1v12.3h2.6c2.9,0,5.1-0.6,6.8-1.7C642.6,147.6,643.4,146,643.4,143.9z"/>
			<path class="st2" d="M662.8,173.6v-43.7h10.8v20.9l13.8-20.9h12.1l-14.8,21.6l15.8,22.1h-12.9l-14-21.4v21.4H662.8z"/>
		</g>
	</g>
</g>
</svg>
