<?xml version="1.0" encoding="UTF-8" standalone="no"?>
<!DOCTYPE svg PUBLIC "-//W3C//DTD SVG 1.1//EN" "http://www.w3.org/Graphics/SVG/1.1/DTD/svg11.dtd">
<svg width="100%" height="100%" viewBox="0 0 2500 584" version="1.1" xmlns="http://www.w3.org/2000/svg" xmlns:xlink="http://www.w3.org/1999/xlink" xml:space="preserve" xmlns:serif="http://www.serif.com/" style="fill-rule:evenodd;clip-rule:evenodd;stroke-linejoin:round;stroke-miterlimit:1.41421;">
    <g transform="matrix(1,0,0,1,-177.103,-150.836)">
        <g transform="matrix(4.16667,0,0,4.16667,1427.1,442.503)">
            <g transform="matrix(1,0,0,1,-300,-70)">
                <g>
                    <clipPath id="_clip1">
                        <path d="M60.42,39.596C60.42,47.348 54.593,52.794 43.611,52.794L27.134,52.794L27.134,26.733L43.611,26.733C54.593,26.733 60.42,31.843 60.42,39.596ZM95.54,118.771L66.408,70.774C78.23,65 86.716,54.612 86.716,38.442C86.716,14.856 67.41,1 44.443,1L1,1L1,118.771L27.134,118.771L27.134,76.38L40.613,76.38L66.246,118.771L95.54,118.771ZM160.684,67.803L122.735,67.803C123.906,60.547 131.058,52.794 141.709,52.794C152.53,52.794 159.689,60.386 160.684,67.803ZM183.82,84.958C184.151,82.979 184.321,79.023 184.321,76.052C184.321,51.969 166.842,32.011 141.046,32.011C115.914,32.011 97.61,51.808 97.61,76.22C97.61,104.091 118.912,121.085 141.879,121.085C157.354,121.085 171.504,112.836 179.828,100.799L160.021,90.571C155.859,95.514 150.202,99.31 142.21,99.31C132.06,99.31 124.569,93.207 123.236,84.958L183.82,84.958ZM251.637,86.608C251.637,89.082 251.637,90.075 250.474,92.221C247.314,97.988 237.826,100.799 232,100.799C225.673,100.799 219.846,98.813 219.846,92.878C219.846,85.294 229.002,83.644 235.83,82.155C243.483,80.505 246.481,80.008 251.637,79.023L251.637,86.608ZM251.475,118.771L275.274,118.771L275.274,66.321C275.274,48.998 263.953,31.843 237.488,31.843C213.526,31.843 201.373,45.866 198.213,55.926L221.018,60.386C223.014,56.59 228.501,52.633 236.324,52.633C245.811,52.633 251.475,57.575 251.475,62.693C246.481,63.35 226.675,66.649 221.511,67.642C206.367,70.606 194.714,79.023 194.714,95.024C194.714,109.537 207.531,120.757 224.178,120.757C235.661,120.757 243.483,116.793 250.304,110.033L251.475,110.033L251.475,118.771ZM344.896,68.168L376.334,34.318L345.545,34.318L318.416,62.853L318.416,1.957L293.947,1.957L293.947,118.939L318.416,118.939L318.416,96.835L327.572,86.936L327.727,86.768L359.334,138.846L388.289,138.846L344.896,68.168ZM414.938,121.246C425.096,121.246 433.611,118.771 436.108,117.954L436.108,97.331C434.613,97.828 428.086,98.981 422.429,98.981C414.445,98.981 410.946,93.703 410.946,85.783L410.946,54.612L434.613,54.612L434.613,34.653L410.946,34.653L410.946,13.272L386.477,13.272L386.477,92.878C386.477,109.865 398.461,121.246 414.938,121.246ZM510.768,75.928C510.768,90.243 501.642,99.288 489.856,99.288C478.071,99.288 468.945,90.243 468.945,75.928C468.945,61.78 478.903,53.232 489.856,53.232C500.81,53.232 510.768,61.78 510.768,75.928ZM534.508,75.928C534.508,51.254 514.922,31.843 489.856,31.843C464.96,31.843 445.212,51.254 445.212,75.928C445.212,104.055 466.956,120.837 489.856,120.837C512.926,120.837 534.508,104.055 534.508,75.928ZM598.51,57.013L598.51,31.843C586.563,31.843 575.941,39.245 572.781,44.18L572.781,34.31L548.386,34.31L548.386,118.53L572.781,118.53L572.781,77.738C572.781,63.919 583.241,57.013 598.51,57.013Z"/>
                    </clipPath>
                    <g clip-path="url(#_clip1)">
                        <rect x="-4" y="-4" width="607.51" height="147.845" style="fill-rule:nonzero;"/>
                    </g>
                </g>
            </g>
        </g>
    </g>
</svg>
