<svg width="513" height="120" viewBox="0 0 513 120" version="1.1" xmlns="http://www.w3.org/2000/svg" xmlns:xlink="http://www.w3.org/1999/xlink">
<title>logo</title>
<desc>Created using Figma</desc>
<g id="Canvas" transform="translate(2125 366)">
<g id="logo">
<g id="Group 2">
<g id="CONF">
<use xlink:href="#path0_fill" transform="translate(-1795.77 -302.154)" fill="#DD4B39"/>
<use xlink:href="#path1_fill" transform="translate(-1795.77 -302.154)" fill="#DD4B39"/>
<use xlink:href="#path2_fill" transform="translate(-1795.77 -302.154)" fill="#DD4B39"/>
<use xlink:href="#path3_fill" transform="translate(-1795.77 -302.154)" fill="#DD4B39"/>
</g>
<g id="ASON">
<use xlink:href="#path4_fill" transform="translate(-2003.31 -303.034)" fill="#333333"/>
</g>
<g id="Group">
<g id="Vector">
<use xlink:href="#path5_fill" transform="translate(-2125 -366)" fill="#DD4B39"/>
</g>
<g id="Vector">
<use xlink:href="#path6_fill" transform="translate(-2094.94 -302.51)" fill="#FFFFFF"/>
</g>
</g>
</g>
</g>
</g>
<defs>
<path id="path0_fill" d="M 42.5248 40.861C 40.4937 43.1996 37.9871 45.0619 35.0052 46.4477C 32.0233 47.7903 28.5876 48.4615 24.6981 48.4615C 21.1544 48.4615 17.8699 47.8769 14.8448 46.7076C 11.8629 45.5383 9.2699 43.8926 7.06587 41.7705C 4.86183 39.6051 3.13318 37.0283 1.87991 34.04C 0.626637 31.0518 0 27.7604 0 24.1658C 0 20.4846 0.626637 17.1499 1.87991 14.1617C 3.1764 11.1734 4.94827 8.63993 7.19552 6.56115C 9.44276 4.43906 12.079 2.81501 15.1041 1.68901C 18.1292 0.563002 21.3921 0 24.8926 0C 28.1338 0 31.3102 0.584657 34.4218 1.75397C 37.5766 2.87998 40.1263 4.54733 42.0711 6.75603L 34.5514 14.2916C 33.5142 12.8624 32.1529 11.8014 30.4675 11.1085C 28.7821 10.4156 27.0534 10.0691 25.2815 10.0691C 23.3368 10.0691 21.5433 10.4372 19.9011 11.1734C 18.3021 11.8664 16.9192 12.8408 15.7523 14.0967C 14.5855 15.3527 13.678 16.8468 13.0297 18.5791C 12.3815 20.2681 12.0573 22.1303 12.0573 24.1658C 12.0573 26.2446 12.3815 28.1501 13.0297 29.8824C 13.678 31.6148 14.5639 33.1089 15.6875 34.3648C 16.8544 35.5774 18.2373 36.5302 19.8363 37.2231C 21.4353 37.9161 23.1855 38.2625 25.0871 38.2625C 27.2911 38.2625 29.2142 37.8294 30.8564 36.9633C 32.4987 36.0971 33.8168 34.9711 34.8107 33.5853L 42.5248 40.861Z"/>
<path id="path1_fill" d="M 94.3566 24.0359C 94.3566 27.6737 93.7299 31.0085 92.4766 34.04C 91.2234 37.0283 89.4731 39.6051 87.2259 41.7705C 85.0218 43.8926 82.3856 45.5383 79.3173 46.7076C 76.2489 47.8769 72.9213 48.4615 69.3343 48.4615C 65.7474 48.4615 62.4197 47.8769 59.3513 46.7076C 56.3262 45.5383 53.69 43.8926 51.4428 41.7705C 49.2387 39.6051 47.5101 37.0283 46.2568 34.04C 45.0035 31.0085 44.3769 27.6737 44.3769 24.0359C 44.3769 20.3547 45.0035 17.0417 46.2568 14.0967C 47.5101 11.1085 49.2387 8.57496 51.4428 6.49618C 53.69 4.41741 56.3262 2.81501 59.3513 1.68901C 62.4197 0.563002 65.7474 0 69.3343 0C 72.9213 0 76.2489 0.563002 79.3173 1.68901C 82.3856 2.81501 85.0218 4.41741 87.2259 6.49618C 89.4731 8.57496 91.2234 11.1085 92.4766 14.0967C 93.7299 17.0417 94.3566 20.3547 94.3566 24.0359ZM 82.4937 24.0359C 82.4937 22.0437 82.1696 20.1815 81.5213 18.4492C 80.8731 16.7168 79.9655 15.2444 78.7987 14.0318C 77.6751 12.7758 76.2921 11.8014 74.6499 11.1085C 73.0509 10.3722 71.279 10.0041 69.3343 10.0041C 67.3896 10.0041 65.6177 10.3722 64.0187 11.1085C 62.4197 11.8014 61.0368 12.7758 59.8699 14.0318C 58.7031 15.2444 57.7956 16.7168 57.1473 18.4492C 56.5423 20.1815 56.2398 22.0437 56.2398 24.0359C 56.2398 26.1147 56.5639 28.0419 57.2121 29.8175C 57.8604 31.5498 58.7463 33.0439 59.8699 34.2999C 61.0368 35.5558 62.4197 36.5519 64.0187 37.2881C 65.6177 37.981 67.3896 38.3275 69.3343 38.3275C 71.279 38.3275 73.0509 37.981 74.6499 37.2881C 76.2489 36.5519 77.6318 35.5558 78.7987 34.2999C 79.9655 33.0439 80.8731 31.5498 81.5213 29.8175C 82.1696 28.0419 82.4937 26.1147 82.4937 24.0359Z"/>
<path id="path2_fill" d="M 130.826 47.2273L 112.351 17.1499L 112.156 17.1499L 112.416 47.2273L 101.655 47.2273L 101.655 1.23427L 114.296 1.23427L 132.706 31.2467L 132.9 31.2467L 132.641 1.23427L 143.402 1.23427L 143.402 47.2273L 130.826 47.2273Z"/>
<path id="path3_fill" d="M 163.824 10.7187L 163.824 20.2031L 181.586 20.2031L 181.586 29.3628L 163.824 29.3628L 163.824 47.2273L 152.869 47.2273L 152.869 1.23427L 183.077 1.23427L 183.077 10.7187L 163.824 10.7187Z"/>
<path id="path4_fill" fill-rule="evenodd" d="M 38.6075 46.4789L 35.4558 38.35L 15.5612 38.35L 12.3439 46.4789L 0 46.4789L 19.7633 0.524445L 32.1072 0.524445L 51.4109 46.4789L 38.6075 46.4789ZM 19.1724 29.1722L 31.9102 29.1722L 25.607 12.7833L 19.1724 29.1722ZM 89.2895 14.6844C 84.4307 11.9311 78.2588 9.76778 74.4506 9.76778C 71.5616 9.76778 69.6574 10.8167 69.6574 12.9144C 69.6574 20.5189 93.8856 16.1922 93.8856 32.7122C 93.8856 42.0867 85.6126 46.8722 75.3698 46.8722C 67.6877 46.8722 59.6773 44.0533 54.1619 39.53L 58.8237 30.1556C 63.5512 34.22 70.708 37.1045 75.5011 37.1045C 79.0467 37.1045 81.2791 35.7933 81.2791 33.3678C 81.2791 25.5667 57.0509 30.2867 57.0509 14.0289C 57.0509 5.44111 64.3391 0 75.4354 0C 82.1983 0 89.0268 2.09778 93.8199 5.17889L 89.2895 14.6844ZM 124.148 0.196669C 138.396 0.196669 149.032 10.1611 149.032 23.4689C 149.032 36.9078 138.396 47.0033 124.148 47.0033C 109.9 47.0033 99.2629 36.9078 99.2629 23.4689C 99.2629 10.0956 109.9 0.196669 124.148 0.196669ZM 124.279 10.4233C 117.385 10.4233 111.607 16.0611 111.607 23.5344C 111.607 31.0078 117.45 36.7767 124.279 36.7767C 131.173 36.7767 136.689 31.0078 136.689 23.5344C 136.689 16.0611 131.173 10.4233 124.279 10.4233ZM 157.233 0.524445L 167.804 0.524445L 188.684 28.1889L 188.684 0.524445L 199.846 0.524445L 199.846 46.4789L 189.34 46.4789L 168.461 18.9456L 168.461 46.4789L 157.233 46.4789L 157.233 0.524445Z"/>
<path id="path5_fill" d="M 120 0L 0 0L 0 120L 120 120L 120 0Z"/>
<path id="path6_fill" d="M 41.2338 45.9544L 27.6424 45.9544L 20.9452 33.2367L 12.0156 33.2367L 12.0156 45.9544L -9.67914e-07 45.9544L -9.67914e-07 -1.28852e-06L 20.6826 -1.28852e-06C 32.8951 -1.28852e-06 39.855 5.9 39.855 16.1267C 39.855 23.0756 36.966 28.1889 31.6476 30.9422L 41.2338 45.9544ZM 12.0156 9.57111L 12.0156 23.6656L 20.7482 23.6656C 25.607 23.6656 28.4303 21.1744 28.4303 16.52C 28.4303 11.9967 25.607 9.57111 20.7482 9.57111L 12.0156 9.57111ZM 47.5371 -1.28852e-06L 83.8465 -1.28852e-06L 83.8465 9.57111L 59.5526 9.57111L 59.5526 18.1589L 81.4827 18.1589L 81.4827 27.6644L 59.5526 27.73L 59.5526 36.3833L 84.503 36.3833L 84.503 45.9544L 47.5371 45.9544L 47.5371 -1.28852e-06Z"/>
</defs>
</svg>
