<?xml version="1.0" encoding="utf-8"?>
<!-- Generator: Adobe Illustrator 23.1.1, SVG Export Plug-In . SVG Version: 6.00 Build 0)  -->
<svg version="1.1" id="Layer_1" xmlns="http://www.w3.org/2000/svg" xmlns:xlink="http://www.w3.org/1999/xlink" x="0px" y="0px"
	 viewBox="0 0 584.6 286.1" style="enable-background:new 0 0 584.6 286.1;" xml:space="preserve">
<style type="text/css">
	.st0{fill:#005073;}
</style>
<path class="st0" d="M90.7,91.6c0.9,0,1.8,0.2,2.8,0.6c23.4,8,40.1,30,40.1,56.1c-24.8,0-46-15.2-54.8-36.8
	c-0.3-0.8-0.5-1.6-0.5-2.5v-0.3c0-0.2,0-0.4,0-0.6c0.1-1.1,0.5-2,1.1-3.1c2.1-4,4.6-7.7,7.4-11.2c0.8-1,1.6-1.7,2.8-2
	C90,91.7,90.3,91.6,90.7,91.6 M172,206.5c1.5,0.7,3,1.2,4.4,1.3h0.3c0.1,0,0.1,0,0.2,0c1.5-0.1,3.6-0.6,5.2-1.5
	c3.2-1.8,5.8-3,8.7-5.2c1.3-1,2.5-2.4,3-4.6c0.3-1.7,0.2-3.6-0.5-5.4C185,168.4,163.6,153,138,153C137.9,177,151.6,197.1,172,206.5
	 M86.7,175.8c-1.6,2-2.3,3.7-2.4,5.7s0.3,3.9,1.5,5.4c4,5.2,8.6,9.8,13.8,13.7c1.5,1.1,3.1,1.7,4.8,1.7c1.7,0.1,3.2-0.6,4.8-1.8
	c14.6-10.8,24-28.1,24-47.6C114.4,153,97.5,162,86.7,175.8 M176.4,80.5c-22.9,13.9-38.2,38.9-38.2,67.6c29,0,54.4-15.7,68.1-39
	c1.4-2.4,2.4-5.4,1.9-8.5c-0.5-3-1.1-4-2.9-6.3c-4.1-5.4-9-10.1-14.4-14.2c-1.8-1.4-4.9-1.9-7.1-1.9h-0.4
	C181.2,78.4,179.1,78.9,176.4,80.5 M272,153l12.1,35.6h-13l-10.8-32.7c-0.5,0-0.9,0.1-1.5,0.1h-4.6v32.6h-12.5v-78.2h17.6
	c8.6,0,14.2,1.7,18.1,5.5c3.8,4,5.8,9.3,5.8,16c0,9.6-3.6,16.8-10.3,20.6C272.6,152.7,272.3,152.8,272,153 M259.9,120.9
	c-1.1,0-4.2,0-5.7-0.1v24.9h4.8c0.4,0,0.8,0,1.1,0c2.9,0,5.4-1,7.2-2.8c2.2-2.3,3.3-5.8,3.2-10.1C270.4,124.6,267.2,121,259.9,120.9
	 M313.9,154.4h19.7v-11.2h-19.7v-21.4h24.6v-11.4h-37.1v78.2h38.5v-11.4h-26V154.4z M420,154.4h19.7v-11.2H420v-21.4h24.7v-11.4
	h-37.1v78.2h38.5v-11.4h-26v-22.8H420z M368.5,110.4H356v78.2h37.9v-11.2h-25.4V110.4z M488.3,148.5l16.4-38.1h-12.5l-7.6,18.2
	c-0.9,2.3-1.8,4.5-2.8,7.2c-1.1-2.6-2-4.8-3.1-6.9l-7.6-18l-0.2-0.4h-12.8l15.9,38.3l-17.2,38.9l-0.5,1h13.3l8-18.9
	c1.2-2.7,2.3-5.6,3.4-8.4c1.2,3,2.2,5.5,3.4,8.2l8.2,18.7l0.2,0.4h13.5L488.3,148.5z"/>
</svg>
