<svg xmlns="http://www.w3.org/2000/svg" viewBox="0 0 522.391 158.182"><path d="M15.135,16.355a9.061,9.061,0,0,1,3.417.733A72.2,72.2,0,0,1,67.5,85.56,72.154,72.154,0,0,1,.61,40.644,8.5,8.5,0,0,1,0,37.593v-1.1A9.433,9.433,0,0,1,1.343,32.71a85.448,85.448,0,0,1,9.032-13.67A6.185,6.185,0,0,1,13.792,16.6a5.188,5.188,0,0,1,1.343-.244m99.23,140.24a15.728,15.728,0,0,0,5.37,1.587h.61a16.213,16.213,0,0,0,6.347-1.831c3.906-2.2,7.079-3.661,10.619-6.347a9.507,9.507,0,0,0,3.661-5.614,12.332,12.332,0,0,0-.61-6.591c-10.13-27.706-36.25-46.5-67.5-46.5a70.786,70.786,0,0,0,41.5,65.3M10.253,119.125a11.52,11.52,0,0,0-2.93,6.957,9.531,9.531,0,0,0,1.831,6.591A87.4,87.4,0,0,0,26,149.394a9.8,9.8,0,0,0,5.858,2.075c2.075.122,3.906-.732,5.859-2.2a72.058,72.058,0,0,0,29.293-58.1,72.675,72.675,0,0,0-56.755,27.951M119.735,2.807A96.331,96.331,0,0,0,73.11,85.316a96.4,96.4,0,0,0,83.119-47.6,15.832,15.832,0,0,0,2.319-10.375c-.61-3.662-1.342-4.882-3.539-7.689A90.947,90.947,0,0,0,137.433,2.319C135.236.61,131.452,0,128.767,0h-.488a18.922,18.922,0,0,0-8.544,2.807M236.419,91.3l14.768,43.452H235.32L222.138,94.836c-.61,0-1.1.122-1.83.122h-5.615v39.79H199.436V39.3h21.482c10.5,0,17.332,2.075,22.092,6.713,4.638,4.883,7.079,11.351,7.079,19.529,0,11.717-4.394,20.5-12.572,25.143-.366.244-.732.366-1.1.61M221.65,52.117c-1.342,0-5.126,0-6.957-.122V82.386h7.2a12.154,12.154,0,0,0,8.788-3.417c2.685-2.807,4.028-7.079,3.906-12.328-.122-10.008-4.028-14.4-12.938-14.524m65.909,40.888H311.6V79.335H287.559V53.216h30.026V39.3H272.3v95.447h46.99V120.834H287.559Zm129.5,0H441.1V79.335H417.059V53.216h30.147V39.3H401.924v95.447h46.991V120.834H417.181V93.005ZM354.2,39.3H338.944v95.447H385.2v-13.67h-31ZM500.422,85.8l20.016-46.5H505.182l-9.276,22.214c-1.1,2.807-2.2,5.493-3.418,8.788-1.343-3.173-2.441-5.858-3.784-8.422l-9.276-21.969-.244-.489H463.561L482.968,86.17l-20.993,47.479-.611,1.221H477.6l9.765-23.068c1.464-3.3,2.807-6.836,4.15-10.253,1.464,3.662,2.685,6.713,4.149,10.008l10.009,22.825.244.488h16.477Z" style="fill:#005073"/></svg>