<?xml version="1.0" encoding="UTF-8" standalone="no"?><!DOCTYPE svg PUBLIC "-//W3C//DTD SVG 1.1//EN" "http://www.w3.org/Graphics/SVG/1.1/DTD/svg11.dtd"><svg width="100%" height="100%" viewBox="0 0 842 384" version="1.1" xmlns="http://www.w3.org/2000/svg" xmlns:xlink="http://www.w3.org/1999/xlink" xml:space="preserve" xmlns:serif="http://www.serif.com/" style="fill-rule:evenodd;clip-rule:evenodd;stroke-linejoin:round;stroke-miterlimit:2;"><path d="M435.989,199.318l-15.163,0l0,-29.625l-11.357,0l0,38.653l26.52,0l0,-9.028Zm16.634,2.117c-1.929,0 -3.241,-0.937 -3.241,-2.545c0,-1.446 1.178,-2.438 3.267,-2.598l4.661,-0.322l0,1.93c0,2.168 -2.25,3.535 -4.687,3.535Zm-4.099,7.339c3.429,0 7.019,-1.5 8.572,-4.393l0.214,0l0,3.965l10.715,0l0,-20.224c0,-6 -5.492,-10.098 -13.688,-10.098c-8.626,0 -13.983,3.991 -14.251,10.312l9.805,0c0.16,-1.5 1.606,-2.732 3.857,-2.732c2.061,0 3.562,1.071 3.562,3.053l0,1.446l-6.482,0.403c-7.903,0.481 -12.269,3.563 -12.269,9.24c0,5.331 4.581,9.028 9.965,9.028Zm52.957,0.241c10.42,0 17.947,-6.615 18.001,-16.258l-10.875,0c-0.349,4.472 -3.188,7.338 -7.099,7.338c-4.714,0 -7.634,-4.125 -7.634,-11.116c0,-6.911 2.946,-11.036 7.607,-11.036c3.938,0 6.804,2.92 7.072,7.313l10.875,0c-0.026,-9.59 -7.742,-16.234 -17.947,-16.234c-11.813,0 -19.179,7.233 -19.179,19.984c0,12.75 7.339,20.009 19.179,20.009Zm36.483,0.08c9.67,0 15.563,-5.543 15.563,-15.563c0,-9.777 -6.027,-15.508 -15.563,-15.508c-9.482,0 -15.536,5.784 -15.536,15.508c0,9.992 5.893,15.563 15.536,15.563Zm0,-7.848c-2.758,0 -4.392,-2.732 -4.392,-7.687c0,-4.822 1.714,-7.688 4.392,-7.688c2.706,0 4.421,2.866 4.421,7.688c0,4.955 -1.689,7.687 -4.421,7.687Zm18.966,7.099l10.982,0l0,-16.528c0,-2.758 1.58,-4.768 4.179,-4.768c2.759,0 4.152,1.822 4.152,4.795l0,16.501l10.983,0l0,-18.939c0,-7.098 -3.644,-11.223 -10.286,-11.223c-4.502,0 -7.582,2.251 -9.081,6.402l-0.215,0l0,-5.812l-10.714,0l0,29.572Zm36.938,0l10.983,0l0,-21.618l5.357,0l0,-7.686l-5.679,0l0,-0.698c0,-1.338 1.045,-2.249 3.669,-2.249c0.75,0 1.555,0.053 2.09,0.16l0,-6.562c-1.151,-0.241 -3.267,-0.456 -5.143,-0.456c-8.411,0 -11.277,2.679 -11.277,8.572l0,1.233l-3.91,0l0,7.686l3.91,0l0,21.618Zm34.072,-22.768c2.572,0 4.421,1.714 4.608,4.365l-9.215,0c0.215,-2.544 2.117,-4.365 4.607,-4.365Zm4.93,13.178c-0.643,1.768 -2.438,2.813 -4.662,2.813c-2.945,0 -5.036,-2.089 -5.036,-4.983l0,-0.696l19.609,0l0,-2.973c0,-9.054 -5.92,-14.893 -15.082,-14.893c-9.294,0 -15.107,6.027 -15.107,15.696c0,9.617 5.758,15.375 15.456,15.375c8.116,0 13.688,-3.963 14.599,-10.339l-9.777,0Zm13.259,9.59l10.982,0l0,-14.733c0,-4.125 2.117,-6.242 6.242,-6.242c1.125,0 2.249,0.215 3.186,0.617l0,-9.214c-0.722,-0.269 -1.58,-0.43 -2.57,-0.43c-3.51,0 -5.786,2.036 -6.911,6.242l-0.215,0l0,-5.812l-10.714,0l0,29.572Zm37.1,-22.768c2.57,0 4.419,1.714 4.606,4.365l-9.214,0c0.214,-2.544 2.116,-4.365 4.608,-4.365Zm4.928,13.178c-0.643,1.768 -2.438,2.813 -4.662,2.813c-2.945,0 -5.034,-2.089 -5.034,-4.983l0,-0.696l19.607,0l0,-2.973c0,-9.054 -5.92,-14.893 -15.082,-14.893c-9.294,0 -15.107,6.027 -15.107,15.696c0,9.617 5.76,15.375 15.456,15.375c8.116,0 13.688,-3.963 14.599,-10.339l-9.777,0Zm13.259,9.59l10.982,0l0,-16.528c0,-2.758 1.581,-4.768 4.179,-4.768c2.76,0 4.152,1.822 4.152,4.795l0,16.501l10.983,0l0,-18.939c0,-7.098 -3.644,-11.223 -10.286,-11.223c-4.5,0 -7.581,2.251 -9.081,6.402l-0.215,0l0,-5.812l-10.714,0l0,29.572Zm63.324,-17.331c-0.134,-8.01 -5.814,-12.991 -14.411,-12.991c-9.509,0 -15.376,5.865 -15.376,15.508c0,9.751 5.84,15.563 15.429,15.563c8.787,0 14.251,-4.794 14.358,-12.803l-9.992,0c-0.187,2.92 -1.768,4.634 -4.232,4.634c-2.919,0 -4.446,-2.572 -4.446,-7.394c0,-4.768 1.552,-7.339 4.446,-7.339c2.358,0 4.019,1.821 4.232,4.822l9.992,0Zm3.267,17.331l10.983,0l0,-29.572l-10.983,0l0,29.572Zm5.492,-31.208c3.107,0 5.465,-2.249 5.465,-5.196c0,-2.945 -2.358,-5.196 -5.465,-5.196c-3.107,0 -5.464,2.251 -5.464,5.196c0,2.947 2.357,5.196 5.464,5.196Zm22.581,24.297c-1.928,0 -3.242,-0.937 -3.242,-2.545c0,-1.446 1.18,-2.438 3.269,-2.598l4.66,-0.322l0,1.93c0,2.168 -2.249,3.535 -4.687,3.535Zm-4.098,7.339c3.429,0 7.017,-1.5 8.572,-4.393l0.213,0l0,3.965l10.716,0l0,-20.224c0,-6 -5.492,-10.098 -13.689,-10.098c-8.625,0 -13.983,3.991 -14.25,10.312l9.803,0c0.162,-1.5 1.608,-2.732 3.859,-2.732c2.062,0 3.561,1.071 3.561,3.053l0,1.446l-6.481,0.403c-7.903,0.481 -12.269,3.563 -12.269,9.24c0,5.331 4.581,9.028 9.965,9.028Z" style="fill:#102a43;fill-rule:nonzero;"/><path d="M420.827,118.853l4.714,0c3.054,0 5.116,2.062 5.116,4.929c0,2.919 -1.955,4.874 -5.143,4.874l-4.687,0l0,-9.803Zm0,17.304l3.723,0l6.107,12.965l12.697,0l-7.339,-14.652c4.044,-1.929 6.241,-6.323 6.241,-10.876c0,-8.277 -5.304,-13.125 -15.617,-13.125l-17.17,0l0,38.653l11.358,0l0,-12.965Zm39.483,-9.803c2.571,0 4.42,1.714 4.607,4.366l-9.214,0c0.214,-2.545 2.116,-4.366 4.607,-4.366Zm4.929,13.178c-0.643,1.768 -2.438,2.813 -4.661,2.813c-2.947,0 -5.036,-2.089 -5.036,-4.983l0,-0.696l19.608,0l0,-2.973c0,-9.053 -5.92,-14.893 -15.081,-14.893c-9.295,0 -15.108,6.027 -15.108,15.696c0,9.617 5.759,15.376 15.456,15.376c8.116,0 13.688,-3.964 14.599,-10.34l-9.777,0Zm26.224,2.679c-1.929,0 -3.241,-0.937 -3.241,-2.545c0,-1.446 1.178,-2.438 3.268,-2.598l4.66,-0.321l0,1.929c0,2.168 -2.25,3.535 -4.687,3.535Zm-4.099,7.339c3.429,0 7.018,-1.499 8.572,-4.393l0.214,0l0,3.965l10.715,0l0,-20.223c0,-6.001 -5.491,-10.099 -13.688,-10.099c-8.625,0 -13.983,3.991 -14.25,10.312l9.803,0c0.161,-1.499 1.608,-2.732 3.858,-2.732c2.062,0 3.562,1.071 3.562,3.054l0,1.446l-6.482,0.402c-7.902,0.482 -12.268,3.563 -12.268,9.241c0,5.33 4.58,9.027 9.964,9.027Zm52.689,-17.759c-0.133,-8.009 -5.812,-12.991 -14.411,-12.991c-9.509,0 -15.375,5.865 -15.375,15.508c0,9.752 5.839,15.564 15.43,15.564c8.785,0 14.249,-4.794 14.356,-12.804l-9.99,0c-0.188,2.92 -1.768,4.634 -4.234,4.634c-2.919,0 -4.446,-2.572 -4.446,-7.394c0,-4.768 1.554,-7.339 4.446,-7.339c2.358,0 4.019,1.822 4.234,4.822l9.99,0Zm5.92,-18.724l0,6.483l-3.91,0l0,7.954l3.91,0l0,13.368c0,5.839 3.295,8.25 11.653,8.25c2.089,0 3.482,-0.188 4.526,-0.402l0,-7.608c-0.643,0.107 -1.044,0.135 -1.874,0.135c-2.251,0 -3.322,-0.965 -3.322,-2.814l0,-10.929l5.196,0l0,-7.954l-5.196,0l0,-6.483l-10.983,0Z" style="fill:#102a43;fill-rule:nonzero;"/><path d="M243.836,156.769c-0.758,-17.21 -15.027,-30.932 -32.519,-30.932c-17.492,0 -31.761,13.722 -32.518,30.932l65.037,0Z" style="fill:#ffd700;"/><path d="M211.319,187.485c11.868,0 22.287,-6.373 28.19,-15.968l-56.379,0c5.903,9.595 16.322,15.968 28.189,15.968Z" style="fill:#d0133d;"/><path d="M239.299,171.875c2.67,-4.455 4.294,-9.603 4.537,-15.107l-0.001,0.001l-65.036,-0.001c0.242,5.505 1.866,10.652 4.536,15.107l55.964,0Z" style="fill:#1c4f95;"/><path d="M386,157.157c0,-23.375 -29.036,-45.528 -73.553,-59.266c10.273,-45.745 5.708,-82.139 -14.411,-93.791c-4.637,-2.733 -10.059,-4.028 -15.98,-4.028l0,16.039c3.282,0 5.921,0.648 8.133,1.87c9.702,5.611 13.911,26.972 10.63,54.448c-0.785,6.761 -2.069,13.882 -3.639,21.146c-13.983,-3.452 -29.25,-6.114 -45.301,-7.84c-9.632,-13.306 -19.619,-25.389 -29.678,-35.963c23.257,-21.793 45.087,-33.733 59.926,-33.733l0,-16.039c-19.619,0 -45.301,14.097 -71.27,38.552c-25.968,-24.311 -51.651,-38.264 -71.27,-38.264l0,16.039c14.768,0 36.67,11.868 59.927,33.517c-9.988,10.573 -19.975,22.585 -29.464,35.891c-16.123,1.726 -31.39,4.388 -45.373,7.912c-1.641,-7.192 -2.854,-14.169 -3.71,-20.858c-3.353,-27.476 0.785,-48.838 10.416,-54.52c2.14,-1.295 4.923,-1.87 8.204,-1.87l0,-16.039c-5.992,0 -11.414,1.294 -16.123,4.027c-20.047,11.652 -24.541,47.975 -14.197,93.576c-44.374,13.809 -73.267,35.891 -73.267,59.194c0,23.376 29.036,45.529 73.553,59.267c-10.273,45.745 -5.708,82.139 14.411,93.791c4.637,2.733 10.059,4.028 16.051,4.028c19.619,0 45.302,-14.098 71.27,-38.552c25.969,24.311 51.651,38.264 71.27,38.264c5.993,0 11.415,-1.294 16.123,-4.028c20.047,-11.652 24.542,-47.974 14.197,-93.575c44.232,-13.738 73.125,-35.891 73.125,-59.195Zm-92.886,-47.974c-2.64,9.278 -5.922,18.845 -9.631,28.411c-2.925,-5.754 -5.993,-11.508 -9.346,-17.262c-3.282,-5.755 -6.777,-11.365 -10.273,-16.831c10.13,1.51 19.904,3.38 29.25,5.682Zm-32.675,76.601c-5.564,9.71 -11.271,18.916 -17.193,27.475c-10.63,0.935 -21.402,1.439 -32.246,1.439c-10.773,0 -21.545,-0.504 -32.104,-1.367c-5.921,-8.559 -11.7,-17.693 -17.264,-27.331c-5.422,-9.423 -10.345,-18.989 -14.839,-28.627c4.423,-9.638 9.417,-19.276 14.768,-28.698c5.564,-9.71 11.271,-18.917 17.193,-27.476c10.63,-0.935 21.402,-1.438 32.246,-1.438c10.773,0 21.545,0.503 32.104,1.366c5.921,8.56 11.699,17.694 17.264,27.332c5.422,9.422 10.345,18.988 14.839,28.626c-4.494,9.639 -9.417,19.277 -14.768,28.699Zm23.044,-9.351c3.852,9.638 7.134,19.277 9.845,28.627c-9.346,2.301 -19.191,4.243 -29.393,5.754c3.496,-5.538 6.992,-11.22 10.273,-17.046c3.282,-5.755 6.35,-11.58 9.275,-17.335Zm-72.34,76.745c-6.635,-6.905 -13.27,-14.601 -19.833,-23.016c6.421,0.288 12.984,0.503 19.619,0.503c6.706,0 13.34,-0.143 19.833,-0.503c-6.421,8.415 -13.056,16.111 -19.619,23.016Zm-53.078,-42.364c-10.131,-1.511 -19.904,-3.381 -29.25,-5.682c2.64,-9.279 5.921,-18.845 9.631,-28.411c2.925,5.754 5.993,11.508 9.346,17.262c3.353,5.754 6.777,11.365 10.273,16.831Zm52.721,-149.677c6.635,6.905 13.269,14.601 19.833,23.016c-6.421,-0.288 -12.984,-0.504 -19.619,-0.504c-6.706,0 -13.341,0.144 -19.833,0.504c6.421,-8.415 13.056,-16.111 19.619,-23.016Zm-52.793,42.364c-3.495,5.538 -6.991,11.22 -10.273,17.046c-3.281,5.754 -6.349,11.508 -9.274,17.262c-3.852,-9.638 -7.134,-19.276 -9.845,-28.626c9.346,-2.23 19.191,-4.172 29.392,-5.682Zm-64.563,90.051c-25.255,-10.861 -41.592,-25.102 -41.592,-36.395c0,-11.292 16.337,-25.605 41.592,-36.394c6.135,-2.661 12.841,-5.035 19.761,-7.264c4.067,14.097 9.417,28.77 16.052,43.802c-6.563,14.961 -11.843,29.562 -15.838,43.587c-7.063,-2.23 -13.769,-4.675 -19.975,-7.336Zm38.381,102.781c-9.702,-5.61 -13.911,-26.972 -10.63,-54.447c0.785,-6.761 2.069,-13.882 3.639,-21.146c13.983,3.452 29.25,6.113 45.301,7.84c9.632,13.306 19.619,25.389 29.678,35.962c-23.257,21.794 -45.087,33.733 -59.926,33.733c-3.211,-0.072 -5.922,-0.719 -8.062,-1.942Zm169.222,-54.807c3.353,27.476 -0.785,48.838 -10.416,54.52c-2.14,1.294 -4.923,1.87 -8.204,1.87c-14.768,0 -36.67,-11.868 -59.927,-33.518c9.988,-10.573 19.975,-22.584 29.464,-35.89c16.123,-1.727 31.39,-4.388 45.373,-7.912c1.641,7.264 2.925,14.241 3.71,20.93Zm27.466,-47.974c-6.135,2.661 -12.841,5.035 -19.762,7.264c-4.066,-14.097 -9.417,-28.77 -16.051,-43.802c6.563,-14.961 11.842,-29.562 15.837,-43.587c7.063,2.229 13.769,4.675 20.047,7.336c25.255,10.861 41.592,25.102 41.592,36.394c-0.071,11.293 -16.408,25.606 -41.663,36.395Z" style="fill:#112b42;fill-rule:nonzero;"/></svg>