<svg width="421" height="384" viewBox="0 0 421 384" fill="none" xmlns="http://www.w3.org/2000/svg">
<rect y="324" width="421" height="60" fill="#102A43"/>
<path d="M31.3262 346.137H34.4199C36.4238 346.137 37.7773 347.49 37.7773 349.371C37.7773 351.287 36.4941 352.57 34.4023 352.57H31.3262V346.137ZM31.3262 357.492H33.7695L37.7773 366H46.1094L41.293 356.385C43.9473 355.119 45.3887 352.236 45.3887 349.248C45.3887 343.816 41.9082 340.635 35.1406 340.635H23.873V366H31.3262V357.492ZM57.2363 351.059C58.9238 351.059 60.1367 352.184 60.2598 353.924H54.2129C54.3535 352.254 55.6016 351.059 57.2363 351.059ZM60.4707 359.707C60.0488 360.867 58.8711 361.553 57.4121 361.553C55.4785 361.553 54.1074 360.182 54.1074 358.283V357.826H66.9746V355.875C66.9746 349.934 63.0898 346.102 57.0781 346.102C50.9785 346.102 47.1641 350.057 47.1641 356.402C47.1641 362.713 50.9434 366.492 57.3066 366.492C62.6328 366.492 66.2891 363.891 66.8867 359.707H60.4707ZM77.6797 361.465C76.4141 361.465 75.5527 360.85 75.5527 359.795C75.5527 358.846 76.3262 358.195 77.6973 358.09L80.7559 357.879V359.145C80.7559 360.568 79.2793 361.465 77.6797 361.465ZM74.9902 366.281C77.2402 366.281 79.5957 365.297 80.6152 363.398H80.7559V366H87.7871V352.729C87.7871 348.791 84.1836 346.102 78.8047 346.102C73.1445 346.102 69.6289 348.721 69.4531 352.869H75.8867C75.9922 351.885 76.9414 351.076 78.418 351.076C79.7715 351.076 80.7559 351.779 80.7559 353.08V354.029L76.502 354.293C71.3164 354.609 68.4512 356.631 68.4512 360.357C68.4512 363.855 71.457 366.281 74.9902 366.281ZM109.566 354.627C109.479 349.371 105.752 346.102 100.109 346.102C93.8691 346.102 90.0195 349.951 90.0195 356.279C90.0195 362.678 93.8516 366.492 100.145 366.492C105.91 366.492 109.496 363.346 109.566 358.09H103.01C102.887 360.006 101.85 361.131 100.232 361.131C98.3164 361.131 97.3145 359.443 97.3145 356.279C97.3145 353.15 98.334 351.463 100.232 351.463C101.779 351.463 102.869 352.658 103.01 354.627H109.566ZM113.451 342.34V346.594H110.885V351.814H113.451V360.586C113.451 364.418 115.613 366 121.098 366C122.469 366 123.383 365.877 124.068 365.736V360.744C123.646 360.814 123.383 360.832 122.838 360.832C121.361 360.832 120.658 360.199 120.658 358.986V351.814H124.068V346.594H120.658V342.34H113.451ZM151.104 360.076H141.154V340.635H133.701V366H151.104V360.076ZM162.02 361.465C160.754 361.465 159.893 360.85 159.893 359.795C159.893 358.846 160.666 358.195 162.037 358.09L165.096 357.879V359.145C165.096 360.568 163.619 361.465 162.02 361.465ZM159.33 366.281C161.58 366.281 163.936 365.297 164.955 363.398H165.096V366H172.127V352.729C172.127 348.791 168.523 346.102 163.145 346.102C157.484 346.102 153.969 348.721 153.793 352.869H160.227C160.332 351.885 161.281 351.076 162.758 351.076C164.111 351.076 165.096 351.779 165.096 353.08V354.029L160.842 354.293C155.656 354.609 152.791 356.631 152.791 360.357C152.791 363.855 155.797 366.281 159.33 366.281ZM194.082 366.439C200.92 366.439 205.859 362.098 205.895 355.77H198.758C198.529 358.705 196.666 360.586 194.1 360.586C191.006 360.586 189.09 357.879 189.09 353.291C189.09 348.756 191.023 346.049 194.082 346.049C196.666 346.049 198.547 347.965 198.723 350.848H205.859C205.842 344.555 200.779 340.195 194.082 340.195C186.33 340.195 181.496 344.941 181.496 353.309C181.496 361.676 186.312 366.439 194.082 366.439ZM218.023 366.492C224.369 366.492 228.236 362.854 228.236 356.279C228.236 349.863 224.281 346.102 218.023 346.102C211.801 346.102 207.828 349.898 207.828 356.279C207.828 362.836 211.695 366.492 218.023 366.492ZM218.023 361.342C216.213 361.342 215.141 359.549 215.141 356.297C215.141 353.133 216.266 351.252 218.023 351.252C219.799 351.252 220.924 353.133 220.924 356.297C220.924 359.549 219.816 361.342 218.023 361.342ZM230.469 366H237.676V355.154C237.676 353.344 238.713 352.025 240.418 352.025C242.229 352.025 243.143 353.221 243.143 355.172V366H250.35V353.572C250.35 348.914 247.959 346.207 243.6 346.207C240.646 346.207 238.625 347.684 237.641 350.408H237.5V346.594H230.469V366ZM254.709 366H261.916V351.814H265.432V346.77H261.705V346.312C261.705 345.434 262.391 344.836 264.113 344.836C264.605 344.836 265.133 344.871 265.484 344.941V340.635C264.729 340.477 263.34 340.336 262.109 340.336C256.59 340.336 254.709 342.094 254.709 345.961V346.77H252.143V351.814H254.709V366ZM277.068 351.059C278.756 351.059 279.969 352.184 280.092 353.924H274.045C274.186 352.254 275.434 351.059 277.068 351.059ZM280.303 359.707C279.881 360.867 278.703 361.553 277.244 361.553C275.311 361.553 273.939 360.182 273.939 358.283V357.826H286.807V355.875C286.807 349.934 282.922 346.102 276.91 346.102C270.811 346.102 266.996 350.057 266.996 356.402C266.996 362.713 270.775 366.492 277.139 366.492C282.465 366.492 286.121 363.891 286.719 359.707H280.303ZM289.004 366H296.211V356.332C296.211 353.625 297.6 352.236 300.307 352.236C301.045 352.236 301.783 352.377 302.398 352.641V346.594C301.924 346.418 301.361 346.312 300.711 346.312C298.408 346.312 296.914 347.648 296.176 350.408H296.035V346.594H289.004V366ZM313.35 351.059C315.037 351.059 316.25 352.184 316.373 353.924H310.326C310.467 352.254 311.715 351.059 313.35 351.059ZM316.584 359.707C316.162 360.867 314.984 361.553 313.525 361.553C311.592 361.553 310.221 360.182 310.221 358.283V357.826H323.088V355.875C323.088 349.934 319.203 346.102 313.191 346.102C307.092 346.102 303.277 350.057 303.277 356.402C303.277 362.713 307.057 366.492 313.42 366.492C318.746 366.492 322.402 363.891 323 359.707H316.584ZM325.285 366H332.492V355.154C332.492 353.344 333.529 352.025 335.234 352.025C337.045 352.025 337.959 353.221 337.959 355.172V366H345.166V353.572C345.166 348.914 342.775 346.207 338.416 346.207C335.463 346.207 333.441 347.684 332.457 350.408H332.316V346.594H325.285V366ZM366.84 354.627C366.752 349.371 363.025 346.102 357.383 346.102C351.143 346.102 347.293 349.951 347.293 356.279C347.293 362.678 351.125 366.492 357.418 366.492C363.184 366.492 366.77 363.346 366.84 358.09H360.283C360.16 360.006 359.123 361.131 357.506 361.131C355.59 361.131 354.588 359.443 354.588 356.279C354.588 353.15 355.607 351.463 357.506 351.463C359.053 351.463 360.143 352.658 360.283 354.627H366.84ZM368.984 366H376.191V346.594H368.984V366ZM372.588 345.521C374.627 345.521 376.174 344.045 376.174 342.111C376.174 340.178 374.627 338.701 372.588 338.701C370.549 338.701 369.002 340.178 369.002 342.111C369.002 344.045 370.549 345.521 372.588 345.521ZM387.406 361.465C386.141 361.465 385.279 360.85 385.279 359.795C385.279 358.846 386.053 358.195 387.424 358.09L390.482 357.879V359.145C390.482 360.568 389.006 361.465 387.406 361.465ZM384.717 366.281C386.967 366.281 389.322 365.297 390.342 363.398H390.482V366H397.514V352.729C397.514 348.791 393.91 346.102 388.531 346.102C382.871 346.102 379.355 348.721 379.18 352.869H385.613C385.719 351.885 386.668 351.076 388.145 351.076C389.498 351.076 390.482 351.779 390.482 353.08V354.029L386.229 354.293C381.043 354.609 378.178 356.631 378.178 360.357C378.178 363.855 381.184 366.281 384.717 366.281Z" fill="#F0F4F8"/>
<path fill-rule="evenodd" clip-rule="evenodd" d="M243.836 156.769C243.078 139.559 228.809 125.837 211.317 125.837C193.825 125.837 179.556 139.559 178.799 156.769H243.836Z" fill="#FFD700"/>
<path fill-rule="evenodd" clip-rule="evenodd" d="M211.319 187.485C223.187 187.485 233.606 181.112 239.509 171.517H183.13C189.033 181.112 199.452 187.485 211.319 187.485Z" fill="#D0133D"/>
<path fill-rule="evenodd" clip-rule="evenodd" d="M239.299 171.875C241.969 167.42 243.593 162.272 243.836 156.768L243.835 156.769L178.799 156.768C179.041 162.273 180.665 167.42 183.335 171.875H239.299Z" fill="#1C4F95"/>
<path d="M386 157.157C386 133.782 356.964 111.629 312.447 97.8907C322.72 52.146 318.155 15.7517 298.036 4.09976C293.399 1.36659 287.977 0.0719256 282.056 0.0719256V16.1113C285.338 16.1113 287.977 16.7587 290.189 17.9814C299.891 23.5916 304.1 44.9535 300.819 72.4291C300.034 79.1901 298.75 86.3107 297.18 93.5752C283.197 90.1228 267.93 87.4615 251.879 85.7353C242.247 72.4291 232.26 60.3456 222.201 49.7725C245.458 27.9791 267.288 16.0394 282.127 16.0394V0C262.508 0 236.826 14.0974 210.857 38.5521C184.889 14.2413 159.206 0.287702 139.587 0.287702V16.3271C154.355 16.3271 176.257 28.1948 199.514 49.8444C189.526 60.4175 179.539 72.4291 170.05 85.7353C153.927 87.4615 138.66 90.1228 124.677 93.6471C123.036 86.4546 121.823 79.4778 120.967 72.7887C117.614 45.3131 121.752 23.9512 131.383 18.2691C133.523 16.9744 136.306 16.399 139.587 16.399V0.359628C133.595 0.359628 128.173 1.65429 123.464 4.38746C103.417 16.0394 98.923 52.3618 109.267 97.9626C64.8932 111.772 36 133.854 36 157.157C36 180.533 65.0359 202.686 109.553 216.424C99.2797 262.169 103.845 298.563 123.964 310.215C128.601 312.948 134.023 314.243 140.015 314.243C159.634 314.243 185.317 300.145 211.285 275.691C237.254 300.002 262.936 313.955 282.555 313.955C288.548 313.955 293.97 312.661 298.678 309.927C318.725 298.275 323.22 261.953 312.875 216.352C357.107 202.614 386 180.461 386 157.157ZM293.114 109.183C290.474 118.461 287.192 128.028 283.483 137.594C280.558 131.84 277.49 126.086 274.137 120.332C270.855 114.577 267.36 108.967 263.864 103.501C273.994 105.011 283.768 106.881 293.114 109.183ZM260.439 185.784C254.875 195.494 249.168 204.7 243.246 213.259C232.616 214.194 221.844 214.698 211 214.698C200.227 214.698 189.455 214.194 178.896 213.331C172.975 204.772 167.196 195.638 161.632 186C156.21 176.577 151.287 167.011 146.793 157.373C151.216 147.735 156.21 138.097 161.561 128.675C167.125 118.965 172.832 109.758 178.754 101.199C189.384 100.264 200.156 99.7608 211 99.7608C221.773 99.7608 232.545 100.264 243.104 101.127C249.025 109.687 254.803 118.821 260.368 128.459C265.79 137.881 270.713 147.447 275.207 157.085C270.713 166.724 265.79 176.362 260.439 185.784ZM283.483 176.433C287.335 186.071 290.617 195.71 293.328 205.06C283.982 207.361 274.137 209.303 263.935 210.814C267.431 205.276 270.927 199.594 274.208 193.768C277.49 188.013 280.558 182.188 283.483 176.433ZM211.143 253.178C204.508 246.273 197.873 238.577 191.31 230.162C197.731 230.45 204.294 230.665 210.929 230.665C217.635 230.665 224.269 230.522 230.762 230.162C224.341 238.577 217.706 246.273 211.143 253.178ZM158.065 210.814C147.934 209.303 138.161 207.433 128.815 205.132C131.455 195.853 134.736 186.287 138.446 176.721C141.371 182.475 144.439 188.229 147.792 193.983C151.145 199.737 154.569 205.348 158.065 210.814ZM210.786 61.1368C217.421 68.0416 224.055 75.7376 230.619 84.1529C224.198 83.8652 217.635 83.6495 211 83.6495C204.294 83.6495 197.659 83.7933 191.167 84.1529C197.588 75.7376 204.223 68.0416 210.786 61.1368ZM157.993 103.501C154.498 109.039 151.002 114.721 147.72 120.547C144.439 126.301 141.371 132.055 138.446 137.809C134.594 128.171 131.312 118.533 128.601 109.183C137.947 106.953 147.792 105.011 157.993 103.501ZM93.4297 193.552C68.1749 182.691 51.8377 168.45 51.8377 157.157C51.8377 145.865 68.1749 131.552 93.4297 120.763C99.565 118.102 106.271 115.728 113.191 113.499C117.258 127.596 122.608 142.269 129.243 157.301C122.68 172.262 117.4 186.863 113.405 200.888C106.342 198.658 99.6364 196.213 93.4297 193.552ZM131.811 296.333C122.109 290.723 117.9 269.361 121.181 241.886C121.966 235.125 123.25 228.004 124.82 220.74C138.803 224.192 154.07 226.853 170.121 228.58C179.753 241.886 189.74 253.969 199.799 264.542C176.542 286.336 154.712 298.275 139.873 298.275C136.662 298.203 133.951 297.556 131.811 296.333ZM301.033 241.526C304.386 269.002 300.248 290.364 290.617 296.046C288.477 297.34 285.694 297.916 282.413 297.916C267.645 297.916 245.743 286.048 222.486 264.398C232.474 253.825 242.461 241.814 251.95 228.508C268.073 226.781 283.34 224.12 297.323 220.596C298.964 227.86 300.248 234.837 301.033 241.526ZM328.499 193.552C322.364 196.213 315.658 198.587 308.737 200.816C304.671 186.719 299.32 172.046 292.686 157.014C299.249 142.053 304.528 127.452 308.523 113.427C315.586 115.656 322.292 118.102 328.57 120.763C353.825 131.624 370.162 145.865 370.162 157.157C370.091 168.45 353.754 182.763 328.499 193.552Z" fill="#112B42"/>
</svg>
