<?xml version="1.0" encoding="UTF-8" standalone="no"?><!DOCTYPE svg PUBLIC "-//W3C//DTD SVG 1.1//EN" "http://www.w3.org/Graphics/SVG/1.1/DTD/svg11.dtd"><svg width="100%" height="100%" viewBox="0 0 231 148" version="1.1" xmlns="http://www.w3.org/2000/svg" xmlns:xlink="http://www.w3.org/1999/xlink" xml:space="preserve" xmlns:serif="http://www.serif.com/" style="fill-rule:evenodd;clip-rule:evenodd;stroke-linejoin:round;stroke-miterlimit:1.41421;"><g><rect x="0.1" y="128.5" width="3" height="19.1" style="fill:#000;fill-rule:nonzero;"/><path d="M22,128.5l3.7,0l5.5,14.2l0.1,0l0,-14.2l2.9,0l0,19.1l-3.7,0l-5.5,-14.6l-0.1,0l0,14.6l-2.9,0l0,-19.1Z" style="fill:#000;fill-rule:nonzero;"/><path d="M55.6,141.6l0,0.5c0,2.3 1,3.5 3.1,3.5c1.9,0 2.9,-1.4 2.9,-2.8c0,-2 -1,-2.9 -2.7,-3.4l-2.1,-0.7c-2.8,-1.1 -4,-2.5 -4,-5.2c0,-3.5 2.4,-5.4 5.9,-5.4c4.9,0 5.4,3 5.4,5l0,0.4l-3,0l0,-0.4c0,-1.7 -0.8,-2.8 -2.7,-2.8c-1.3,0 -2.6,0.7 -2.6,2.8c0,1.6 0.8,2.5 2.9,3.2l2.1,0.7c2.7,1 3.9,2.4 3.9,5.1c0,4.1 -2.5,5.7 -6.3,5.7c-4.7,0 -5.8,-3.2 -5.8,-5.8l0,-0.5l3,0.1Z" style="fill:#000;fill-rule:nonzero;"/><path d="M86.1,131l-4.5,0l0,-2.6l12.1,0l0,2.6l-4.5,0l0,16.5l-3,0l-0.1,-16.5Z" style="fill:#000;fill-rule:nonzero;"/><rect x="111.1" y="128.5" width="3" height="19.1" style="fill:#000;fill-rule:nonzero;"/><path d="M136.1,131l-4.5,0l0,-2.6l12.1,0l0,2.6l-4.5,0l0,16.5l-3,0l-0.1,-16.5Z" style="fill:#000;fill-rule:nonzero;"/><path d="M164.1,128.5l0,13.6c0,2.4 1,3.5 2.8,3.5c1.8,0 2.8,-1.1 2.8,-3.5l0,-13.7l3,0l0,13.4c0,4.4 -2.2,6 -5.8,6c-3.7,0 -5.9,-1.6 -5.9,-6l0,-13.4l3.1,0.1Z" style="fill:#000;fill-rule:nonzero;"/><path d="M194.6,131l-4.5,0l0,-2.6l12.1,0l0,2.6l-4.5,0l0,16.5l-3,0l-0.1,-16.5Z" style="fill:#000;fill-rule:nonzero;"/><path d="M219.7,128.5l10.3,0l0,2.6l-7.3,0l0,5.3l6.8,0l0,2.6l-6.8,0l0,6.1l7.5,0l0,2.6l-10.5,0l0,-19.2Z" style="fill:#000;fill-rule:nonzero;"/></g><g><path d="M86,37.5l60.4,0l0,-6.6l-38.4,0c-8.1,0 -15.7,2.5 -22,6.6Z" style="fill:#000;fill-rule:nonzero;"/><path d="M146.4,41.7l-65.7,0c-2.1,2 -4.1,4.2 -5.7,6.7l71.4,0l0,-6.7Z" style="fill:#000;fill-rule:nonzero;"/><path d="M48.2,52.6l-38.8,0c2.7,2.6 5.8,4.8 9.2,6.7l38.4,0c-2.7,-2.6 -5.6,-4.9 -8.8,-6.7Z" style="fill:#000;fill-rule:nonzero;"/><path d="M5.7,48.4l33.4,0c-1.4,-0.5 -2.9,-1 -4.3,-1.4c-1,-0.3 -6.7,-1.9 -11.1,-5.3l-21.6,0c0.9,2.4 2.1,4.7 3.6,6.7Z" style="fill:#000;fill-rule:nonzero;"/><path d="M225.7,63.4l-20.6,0l-14.5,23.1l20.6,0l14.5,-23.1Z" style="fill:#000;fill-rule:nonzero;"/><path d="M18.9,26.7c2.2,-5.4 7.4,-9.2 13.5,-9.2l197.8,0l0,-17.5l-197.8,0c-15.8,0 -29,11.6 -31.6,26.7l18.1,0Z" style="fill:#000;fill-rule:nonzero;"/><path d="M168.6,37.5l61.7,0l0,-6.6l-39.7,0c-8.2,0 -15.7,2.5 -22,6.6Z" style="fill:#000;fill-rule:nonzero;"/><path d="M211.8,52.6l-4.1,6.6l20.6,0l2,-3.1l0,-3.5l-18.5,0Z" style="fill:#000;fill-rule:nonzero;"/><rect x="128.9" y="52.6" width="17.5" height="6.7" style="fill:#000;"/><path d="M85.7,70.8c0,-2.6 0.5,-5.1 1.3,-7.4l-18.1,0c-0.5,2.4 -0.7,4.9 -0.7,7.4c0,22 17.9,39.9 39.9,39.9l13.4,0l0,-17.5l-13.4,0c-12.4,0 -22.4,-10.1 -22.4,-22.4Z" style="fill:#000;fill-rule:nonzero;"/><path d="M28.5,63.4c0.5,0.2 1.1,0.3 1.6,0.5c6.6,1.8 17.6,6.9 17.6,14.9c0,8 -6.5,14.6 -14.6,14.6l-33.1,0l0,17.5l33.2,0c17.7,0 32.1,-14.4 32.1,-32.1c0,-5.9 -1.9,-11 -4.9,-15.4l-31.9,0Z" style="fill:#000;fill-rule:nonzero;"/><rect x="128.9" y="63.4" width="17.5" height="47.3" style="fill:#000;"/><path d="M168.2,70.8c0,-2.6 0.5,-5.1 1.3,-7.4l-18.1,0c-0.5,2.4 -0.7,4.9 -0.7,7.4c0,22 17.9,39.9 39.9,39.9l39.7,0l0,-17.5l-39.7,0c-12.4,0 -22.4,-10.1 -22.4,-22.4Z" style="fill:#000;fill-rule:nonzero;"/><path d="M163.3,41.7c-2.1,2 -4.1,4.2 -5.7,6.7l72.7,0l0,-6.7l-67,0Z" style="fill:#000;fill-rule:nonzero;"/><path d="M177.7,52.6l-22.5,0c-1.1,2.1 -2,4.3 -2.7,6.7l19,0c1.6,-2.7 3.7,-5 6.2,-6.7Z" style="fill:#000;fill-rule:nonzero;"/><path d="M95.1,52.6l-22.5,0c-1.1,2.1 -2,4.3 -2.7,6.7l19.1,0c1.5,-2.7 3.6,-5 6.1,-6.7Z" style="fill:#000;fill-rule:nonzero;"/><path d="M0.4,30.9c0,0.4 -0.1,0.8 -0.1,1.2c0,1.9 0.2,3.7 0.6,5.4l18.7,0c-1,-1.6 -1.7,-3.4 -1.7,-5.4c0,-0.4 0,-0.8 0.1,-1.2l-17.6,0Z" style="fill:#000;fill-rule:nonzero;"/></g></svg>