<?xml version="1.0" encoding="UTF-8"?>
<svg id="Layer_2" xmlns="http://www.w3.org/2000/svg" viewBox="0 0 950.42 139.1">
  <defs>
    <style>
      .cls-1 {
        fill: #1e0032;
      }
    </style>
  </defs>
  <g id="Layer_1-2" data-name="Layer_1">
    <g>
      <polygon class="cls-1" points="86.17 0 86.17 69.53 0 69.53 0 102.49 86.17 120.25 86.17 120.25 177.56 139.1 177.56 69.55 263.72 69.55 263.72 36.6 177.56 18.84 177.56 18.85 86.17 0"/>
      <path class="cls-1" d="M329.89,82.51h18.37c0,8.93,3.65,14.72,17.49,14.72s17.11-5.03,17.11-10.32c0-3.52-1.51-5.79-4.78-6.92-3.65-1.26-12.2-2.52-19.12-3.52-8.18-1.26-16.48-2.89-21.26-6.04-5.28-3.4-8.05-9.18-8.05-17.11,0-15.6,12.2-26.42,36.11-26.42,26.29,0,34.85,10.95,34.85,29.57h-18.24c0-9.44-4.91-14.59-16.23-14.59s-15.98,4.15-15.98,9.69c0,4.03,1.13,6.29,4.03,7.55,3.15,1.38,11.83,2.77,18.87,3.9,9.31,1.51,16.36,3.02,21.26,5.66,5.91,3.15,9.06,9.06,9.06,16.86,0,14.09-7.93,26.67-37.49,26.67s-35.98-14.47-35.98-29.69"/>
      <path class="cls-1" d="M423.36,28.16h23.98c4.98,0,9.38,3.21,10.91,7.95l15.18,47.16h.25l17.61-55.11h21.9c5.21,0,9.43,4.22,9.43,9.42v73.36h-20.63l.5-65.04h-.25l-20.88,65.04h-17.74l-21.01-65.04h-.25l.38,65.04h-19.37V28.16Z"/>
      <path class="cls-1" d="M593.12,81.25l-12.2-36.23h-.25l-12.08,36.23h24.53ZM590.8,94.08h-26.49l-5.66,16.86h-21.14l31.96-82.78h16.44c5.56,0,10.55,3.42,12.55,8.61l28.63,74.17h-24.03l-3.56-10.6c-1.25-3.74-4.76-6.26-8.7-6.26"/>
      <path class="cls-1" d="M681.36,67.66c8.68,0,13.08-3.9,13.08-11.57s-4.53-11.7-14.09-11.7h-17.86v23.28h18.87ZM641.85,28.16h38.62c21.89,0,33.72,9.06,33.72,24.66,0,10.57-4.53,17.24-12.33,19.5v.25c8.18,1.89,11.83,8.43,11.83,17.74v20.63h-20.63v-20c0-7.55-2.77-10.82-10.57-10.82h-20v30.82h-20.63V28.16Z"/>
      <path class="cls-1" d="M751.76,44.39h-23.53v-16.23h58.61c4.94,0,8.95,4.01,8.95,8.95v7.28h-23.4v66.55h-20.63V44.39Z"/>
      <path class="cls-1" d="M813.27,28.16h11.36c5.12,0,9.27,4.15,9.27,9.27v57.29h31.49c3.46,0,6.26,2.8,6.26,6.26v9.97h-58.38V28.16Z"/>
      <path class="cls-1" d="M897.08,79.24l-32.58-51.08h18.22c5.14,0,9.87,2.79,12.36,7.29l14.08,25.42h.38l17.86-32.71h23.03l-32.71,51.08v31.7h-20.63v-31.7Z"/>
    </g>
  </g>
</svg>