<?xml version="1.0" encoding="utf-8"?>
<!-- Generator: Adobe Illustrator 19.2.1, SVG Export Plug-In . SVG Version: 6.00 Build 0)  -->
<svg version="1.1" id="Layer_1" xmlns="http://www.w3.org/2000/svg" xmlns:xlink="http://www.w3.org/1999/xlink" x="0px" y="0px"
	 viewBox="0 0 500 500" style="enable-background:new 0 0 500 500;" xml:space="preserve">
<style type="text/css">
	.Arched_x0020_Green{fill:url(#SVGID_1_);stroke:#FFFFFF;stroke-width:0.25;stroke-miterlimit:1;}
	.st0{fill:#4E2817;}
	.st1{fill:#F26922;}
	.st2{fill-rule:evenodd;clip-rule:evenodd;fill:#4E2817;}
</style>
<linearGradient id="SVGID_1_" gradientUnits="userSpaceOnUse" x1="250" y1="250" x2="250.7071" y2="249.2929">
	<stop  offset="0" style="stop-color:#1EAB4B"/>
	<stop  offset="0.9831" style="stop-color:#19361A"/>
</linearGradient>
<path class="st0" d="M89.7,352.2c-6,0-11.3-0.7-16.1-5.4l6.2-6.2c3.1,3.1,7.2,3.6,10.1,3.6c3.3,0,6.7-1.1,6.7-3.9c0-1.9-1-3.2-4-3.5
	l-6-0.6c-6.8-0.7-11-3.6-11-10.6c0-7.8,6.9-12.1,14.6-12.1c5.9,0,10.8,1,14.5,4.4l-5.8,5.9c-2.2-2-5.5-2.5-8.8-2.5
	c-3.8,0-5.4,1.7-5.4,3.6c0,1.4,0.6,3,3.9,3.3l6,0.6c7.5,0.7,11.3,4.7,11.3,11.1C105.7,348.2,98.6,352.2,89.7,352.2z"/>
<path class="st0" d="M122.2,351.8c-7.7,0-11-5.4-11-10.8v-18.7h-4V315h4v-11.2h9.4V315h6.7v7.2h-6.7v18.2c0,2.2,1,3.4,3.3,3.4h3.4v8
	H122.2z"/>
<path class="st0" d="M131.5,307.5v-7.7h9.7v7.7H131.5z M131.7,351.8V314h9.4v37.8H131.7z"/>
<path class="st0" d="M162.5,352.2c-7.6,0-16.9-4.1-16.9-19.4c0-15.3,9.4-19.3,16.9-19.3c5.2,0,9.2,1.6,12.5,5.1l-6.4,6.4
	c-2-2.1-3.6-3-6.1-3c-2.3,0-4,0.8-5.4,2.5c-1.5,1.8-2.1,4.4-2.1,8.4c0,4,0.7,6.6,2.1,8.4c1.4,1.7,3.1,2.5,5.4,2.5
	c2.5,0,4.1-0.9,6.1-3l6.4,6.3C171.6,350.6,167.7,352.2,162.5,352.2z"/>
<path class="st0" d="M201,351.8l-9.3-15.8l-4,4.5v11.3h-9.4v-51.7h9.4v29.3l12.6-15.5h11.4l-13.5,15.3l14.5,22.6H201z"/>
<path class="st0" d="M220.6,335.8c0,4.9,3,8.4,8.3,8.4c4.1,0,6.2-1.2,8.6-3.6l5.7,5.6c-3.8,3.8-7.6,6-14.4,6
	c-8.9,0-17.5-4.1-17.5-19.4c0-12.3,6.7-19.3,16.5-19.3c10.5,0,16.5,7.7,16.5,18.1v4.2H220.6z M234.1,325.3c-1-2.3-3.1-3.9-6.3-3.9
	c-3.2,0-5.3,1.7-6.3,3.9c-0.6,1.4-0.8,2.4-0.9,4.1H235C234.9,327.7,234.7,326.7,234.1,325.3z"/>
<path class="st0" d="M269.3,324.3c-1.5-1.5-2.7-2.3-5-2.3c-2.9,0-6.1,2.2-6.1,7v22.8h-9.4V314h9.2v3.6c1.8-2.2,5.5-4.1,9.5-4.1
	c3.7,0,6.3,0.9,8.9,3.6L269.3,324.3z"/>
<path class="st1" d="M318.9,313.5c-4.7,0-8.1,1.5-11.3,4.8c-2.4-3.3-5.8-4.8-10-4.8c-3.5,0-7,1.4-9.4,3.9V314h-9.2v37.8h9.4v-22.9
	c0-5.2,3.3-6.9,6.3-6.9c3,0,6.2,1.7,6.2,6.9v22.9h9.4v-23.1c0-4.9,3.4-6.7,6.3-6.7c3,0,6.2,1.7,6.2,6.9v22.9h9.4v-24.2
	c0-4.1-1.1-7.7-4.1-10.8C326.1,314.8,322.7,313.5,318.9,313.5z"/>
<path class="st1" d="M359.9,336.8c0,5.2-3.3,6.9-6.3,6.9c-3,0-6.2-1.7-6.2-6.9V314h-9.4v24.2c0,4.1,0.8,7.7,3.8,10.7
	c2.1,2.1,5.2,3.3,8.9,3.3c3.5,0,7-1.3,9.4-3.9v3.5h9.2V314h-9.4V336.8z"/>
<path class="st1" d="M384.8,340.4v-40.3h-9.4V341c0,5.4,3.3,10.8,11,10.8h5.4v-8h-3.6C385.8,343.8,384.8,342.7,384.8,340.4z"/>
<path class="st1" d="M426.5,331.6c0-10.4-6-18.1-16.5-18.1c-9.8,0-16.5,7-16.5,19.3c0,15.3,8.6,19.4,17.5,19.4
	c6.8,0,10.5-2.1,14.4-6l-5.7-5.6c-2.4,2.4-4.4,3.6-8.6,3.6c-5.3,0-8.3-3.6-8.3-8.4h23.7V331.6z M402.8,329.4
	c0.1-1.7,0.3-2.7,0.9-4.1c1-2.3,3.1-3.9,6.3-3.9c3.2,0,5.3,1.7,6.3,3.9c0.6,1.4,0.8,2.4,0.9,4.1H402.8z"/>
<path class="st2" d="M267.5,289c-1.3,0.6-3.1,0.5-5,0.6c-1.6,0-3.9,0.1-4.8-0.8c-0.5-0.5-0.7-1.4-0.7-2c0-0.7,0.1-1.5,0.3-2.3
	c0.2-0.9,0.4-2.1,0-2.5c-0.4-0.6-1.9-0.3-2.6-0.8c-0.8-0.5-1-1.5-1.3-2.8c-0.1-0.4-0.3-0.7-0.4-1c-0.2-1.9,0.4-4.4,0.8-6.3
	c0.5-2,1-3.9,1.4-5.8c0.5-2.8,0.7-6,0.5-9c-0.1-1.5-0.3-2.7-0.1-4c0.2-1.2,0.7-2.2,1-3.4c0.1-0.4,0-0.8,0.1-1.2c0-0.4,0.3-0.7,0.3-1
	c0-0.8-0.2-1.8-0.3-2.8c-0.2-2.7,0-6.4,0.2-8.7c0.1-0.8,0.4-1.7-0.1-2.1c-2.8,0-5.3,0.5-7.9,0.8c-6.9,0.9-15.6,1-22.3-0.3
	c-0.6-0.1-1.3-0.1-1.9-0.3c-4.7-1.1-9.1-3.1-12.5-5.8c-0.5-0.4-1.1-0.9-1.7-1.3c-0.6-0.4-1.2-1.1-1.7-1.3c-2.7-1.3-6.3,0.2-7.4,1.9
	c-0.4,0.7-0.8,1.6-1.2,2.4c-0.4,0.8-0.8,1.6-1.1,2.4c-1.8,4.1-3.8,8-5.6,12.1c-1,2.4-2.2,5-3,7.6c-1.6,5.6-0.1,13.2,1.2,18.5
	c0.1,0.5,0.4,1,0.6,1.5c0.4,1.3,1.3,3,2.3,3.9c0.5,0.5,1.4,0.7,2,1.2c0.7,0.6,1.3,1.9,1.9,3c0.2,0.4,0.6,1,0.9,1.5
	c0.7,1.2,0.9,2.3-0.4,3c-1,0.5-2.5,0.7-3.9,0.8c-0.6,0.2-0.4,1-0.8,1.4c-0.2,0.2-1.2,0.6-1.7,0.8c-1.8,0.5-5,0.5-6.4,0
	c-0.7-0.3-1.5-0.8-1.7-1.4c-0.4-1.1,0.5-2.6-0.3-3.4c-0.4-0.4-1.1-0.3-1.8-0.6c-1-0.4-1.9-1.3-2.3-2.5c-1.1-2.8-0.4-7.1-0.5-10.5
	c0-1-0.2-2.1-0.2-3.2c-0.1-2-0.5-4-0.8-6c-0.1-1-0.4-1.8-0.6-2.7c-0.3-1.4-0.6-3-1-4.4c-0.5-1.6-0.5-3.1,0.1-4.5
	c0.1-0.4,0.5-0.7,0.8-1.2c0.3-0.8,0.4-1.7,0.4-2.4c-0.2-0.4-1.2-0.1-1.4-0.5c-0.6-4.4-1.2-8.7-1.6-13.3c-0.1-1.5-0.1-3.1-0.3-4.7
	c-0.3-3.1,0-6.3-0.3-9.3c-0.1-1.5-0.5-2.9-0.7-4.3c-0.5-4-1.6-9.1-0.8-13.3c0.5-2.7,1.5-4.8,3-6.8c1.1-1.4,2.2-2.7,3.5-3.9
	c1.2-1.2,2.6-2.3,4.1-3.4c0.9-0.7,1.9-1.5,3-1.9c2.3-1.1,5.3-2,8.5-2.1c3.2-0.1,6.8-0.2,9.9,0.4c3,0.5,6,1.1,9,1.7
	c2.9,0.6,5.7,1.4,8.5,2.1c0.4,0.1,0.7,0.3,1,0.4c0.9,0.2,1.9,0.3,2.8,0.6c2.6,0.7,5.9,1,9,1c3.4,0,6.4-0.1,9.2-0.8
	c0.4-0.1,0.7-0.3,1.2-0.5c0.4-0.2,1-0.1,1.4-0.3c0.3-0.1,0.6-0.4,0.9-0.5c1.6-0.8,3-1.5,4.4-2.5c1.1-0.8,2.1-1.5,3.6-2.1
	c0.7-0.3,1.3-0.6,2-0.8c1.4-0.5,3-0.9,4.1-1.6c1.7-1.1,3-2.7,4.4-3.9c1.5-1.3,3-2.5,4.6-3.8c3.2-2.5,6.4-4.8,9.4-7.2
	c1.5-1.2,3.2-2.4,5-3.4c3.5-2,7-4.3,12-4.7c2-0.1,4-0.2,6,0.1c0.5,0.1,1.3,0.4,1.8,0.3c0.5-0.1,0.9-0.9,1.3-1.6
	c0.7-1.3,1.3-2.2,1.9-3.8c0.4-1,0.2-2,1.2-1.9c1,0,0.9,2.7,0.9,3.7c0.1,1.2-0.1,2.8,0.1,3.6c0.1,0.6,0.9,1.4,1.7,1.4
	c0.6,0,0.9-0.4,1.4-0.8c0.5-0.3,1-0.5,1.4-0.8c0.8-0.6,1.8-1.6,2.6-2.5c0.7-0.7,1.8-2.3,2.9-2.2c2,0.2,0,3.1-0.4,4.1
	c-1,2.3-2,3.9-3.2,6.1c-0.5,0.9-1.6,2.1-1.6,3c0,0.6,0.5,1.1,0.8,1.7c0.1,0.3,0.2,0.7,0.3,1c0.7,1.6,1.2,3.8,1.7,5.6
	c0.5,1.5,0.8,3.2,1.4,4.7c0.5,1.5,1.3,2.9,1.9,4.3c0.2,0.4,0.2,0.9,0.3,1.2c1.3,3.2,2.5,6.9,4,10c0.6,1.3,1.5,2.8,1.5,4.7
	c0,2-1.1,3-2,4.5c-0.5,0.8-1.2,2-1.9,2.3c-0.5,0.2-1.2,0-1.7,0.1c-0.8,0.1-1.3,0.6-2,0.7c-1.9,0.2-3.6-1.2-4.1-2.6
	c-0.2-0.5-0.1-1.1-0.2-1.7c-0.4-2.2-1.5-3.3-3.1-4.8c-1-0.9-1.8-1.6-3-2.3c-1.8-0.9-3.7-1.5-5.6-2.5c-0.7-0.4-1.5-0.7-2.1-0.6
	c-1,0.2-2,1.8-2.8,2.8c-4.9,6.4-9.2,13-13.9,19.3c-3.1,4.2-6.5,8.4-9,13.2c-0.6,1.2-1,2.6-1.5,4c-0.5,1.4-0.7,2.9-1.2,4.3
	c-1.8,5.2-2.4,11.6-4.1,17.1c-0.2,0.6-0.2,1.2-0.4,1.9c-0.8,2.8-1.5,6-2.4,9c-0.7,2.2-0.9,5.2-1,8.1c-0.1,2.7-0.2,6.6,0.8,8.3
	c0.5,0.9,2.4,1.3,3.1,2.2c0.5,0.7,0.8,2,1.3,2.8c0.3,0.6,1.3,1.9,1.2,2.8c-0.1,0.7-0.7,1.2-1.2,1.4c-0.6,0.3-1.4,0.1-2,0.4
	C267.9,287.8,268.2,288.6,267.5,289z"/>
</svg>
