<svg class="header-logo" xmlns="http://www.w3.org/2000/svg" width="585.54" height="204.62" viewBox="0 0 585.54 204.62"><defs><style>.cls-1{fill:#d32329;}</style></defs><title>supermetrics-logo</title><g id="Layer_2" data-name="Layer 2"><g id="Layer_1-2" data-name="Layer 1"><polygon class="cls-1" points="0.85 0 0.85 58.46 273.09 58.46 273.09 0 0.85 0 0.85 0"></polygon><polygon class="cls-1" points="0 146.15 0 204.62 487.95 204.62 487.95 146.15 0 146.15 0 146.15"></polygon><path class="cls-1" d="M100.66,72.94v44.9c0,2.33-.5,4.67-3.17,4.67s-3.18-2.42-3.18-4.67V72.94H85.37v46.82c0,6.09,4.51,11.6,12.12,11.6,7.77,0,12.2-4.76,12.2-11.69V72.94Z"></path><path class="cls-1" d="M136,75.86a14.29,14.29,0,0,0-9.19-2.92h-11v58.42h8.94V109.24h1.84c3.09,0,6.68-.67,9.36-3.09a12.46,12.46,0,0,0,4.18-9.68V85.54C140.11,81.37,138.85,78.2,136,75.86Zm-5.93,23.7a3.79,3.79,0,0,1-3,1.34h-2.34V81.7h2.51a3.49,3.49,0,0,1,2.75,1c1,1.26,1.09,2.84,1.09,4.59v8C131.08,96.89,131.16,98.14,130.08,99.56Z"></path><polygon class="cls-1" points="166.43 72.92 145.52 72.92 145.52 131.36 166.43 131.36 166.43 123.16 154.48 123.16 154.48 104.8 162 104.8 162 96.62 154.56 96.62 154.56 81.1 166.43 81.1 166.43 72.92"></polygon><path class="cls-1" d="M186.74,131.36h8.94V109a8.08,8.08,0,0,0-1.5-5.26,7.73,7.73,0,0,0-4.27-2.58,8.2,8.2,0,0,0,4.1-3,8.62,8.62,0,0,0,1.42-5.5v-7.1c0-3.5-.92-6.84-3.43-9.18s-6.18-3.42-9.78-3.42H171.44v58.42h8.94V105.49h3.26c2.09,0,3.1,2.33,3.1,5.25ZM186.49,93a4.48,4.48,0,0,1-1.17,3.25,4.2,4.2,0,0,1-3,1.26h-1.93V81.7h1.93c1.92,0,2.42.34,3,1,1.08,1.26,1.17,2.84,1.17,4.59Z"></path><path class="cls-1" d="M223.44,73l-7,21-7-21h-7.83v58.34h8.61c0-12,.25-36.64.25-36.64l4.5,14.87h3l4.5-14.87s.24,24.62.25,36.64h8.61V73Z"></path><polygon class="cls-1" points="258.94 72.92 238.03 72.92 238.03 131.36 258.94 131.36 258.94 123.16 246.99 123.16 246.99 104.8 254.51 104.8 254.51 96.62 247.07 96.62 247.07 81.1 258.94 81.1 258.94 72.92"></polygon><polygon class="cls-1" points="287.44 72.94 263.12 72.94 263.12 81.12 270.72 81.12 270.72 131.36 279.83 131.36 279.83 81.12 287.44 81.12 287.44 72.94"></polygon><path class="cls-1" d="M307.33,131.36h8.94V109a8,8,0,0,0-1.51-5.26,7.69,7.69,0,0,0-4.26-2.58,8.2,8.2,0,0,0,4.1-3,8.62,8.62,0,0,0,1.42-5.5v-7.1c0-3.5-.92-6.84-3.43-9.18s-6.18-3.42-9.78-3.42H292v58.42H301V105.49h3.26c2.09,0,3.1,2.33,3.1,5.25ZM307.07,93a4.44,4.44,0,0,1-1.17,3.25,4.17,4.17,0,0,1-3,1.26H301V81.7h1.93c1.92,0,2.42.34,3,1,1.09,1.26,1.17,2.84,1.17,4.59Z"></path><rect class="cls-1" x="322.12" y="72.94" width="8.94" height="58.42"></rect><path class="cls-1" d="M377.85,72.92a11.74,11.74,0,0,0-10,4.68c-.68,1.14-2.08,2.81-2.08,8.85,0,12.53,16,22.64,16,29.9,0,1.17-.08,2.42-.17,3.84s-.76,3.09-3.05,3.09c-2.54,0-3.13-1.83-3.13-4.92v-4.61h-9.15v5.94c0,7.6,5.34,11.69,12.28,11.69H585.54V72.92Z"></path><path class="cls-1" d="M352.37,119.17a3.05,3.05,0,0,1-3.09,3.34c-2.6,0-3.18-2.42-3.18-4.76V86.29c0-2.17.58-4.75,3.18-4.75,2.17,0,3.09,2.33,3.09,3.5V90.3h8.69V84.71c0-6.09-3.93-11.77-11.78-11.77-7.52,0-12.12,5.34-12.12,11.77v35c0,6.35,4.6,11.69,12.12,11.69,7.77,0,11.78-4.76,11.78-11.69v-5.92h-8.69Z"></path><path class="cls-1" d="M307.21,0l-2.94,8.79L301.33,0h-3.27V24.39h3.59c0-5,.11-15.3.11-15.3l1.87,6.21h1.27l1.88-6.21s.1,10.28.1,15.3h3.6V0Z"></path><polygon class="cls-1" points="294.92 0 284.77 0 284.77 3.41 287.95 3.41 287.95 24.39 291.75 24.39 291.75 3.41 294.92 3.41 294.92 0"></polygon><path class="cls-1" d="M67.53,131.38a11.72,11.72,0,0,0,10-4.67c.68-1.14,2.08-2.81,2.08-8.86,0-12.52-16-22.63-16-29.9,0-1.16.08-2.42.17-3.84s.76-3.09,3-3.09c2.54,0,3.13,1.84,3.13,4.93v4.61h9.15v-6c0-7.6-5.33-11.69-12.28-11.69H.85v58.46Z"></path></g></g></svg>