<svg id="Layer_1" data-name="Layer 1" xmlns="http://www.w3.org/2000/svg" viewBox="0 0 1200 300"><defs><style>.cls-1{fill:#e01b2a;}.cls-2{fill:#fff;}</style></defs><g id="Group_1628" data-name="Group 1628"><rect id="Rectangle_24501" data-name="Rectangle 24501" class="cls-1" x="44.82" y="24.17" width="251.67" height="251.67" rx="123.3"/><rect id="Rectangle_24502" data-name="Rectangle 24502" class="cls-2" x="112.02" y="81.61" width="66.18" height="35.3"/><rect id="Rectangle_24503" data-name="Rectangle 24503" class="cls-2" x="112.02" y="183.1" width="99.27" height="35.3"/><path id="Path_1215" data-name="Path 1215" class="cls-2" d="M237.38,167.65H112V132.34H237.45a6,6,0,0,1,6.23,5,13.93,13.93,0,0,1,.3,3.76h-4.69a15,15,0,0,0-.15-2.12c-.15-1.39-.92-2.16-2-2.16-1.28,0-2,1.12-2,3.19s.16,2.68,3.4,7.35l2.41,3.51a17.9,17.9,0,0,1,3.45,9.67,6.38,6.38,0,0,1-7,7.12Z"/><g id="Group_1570" data-name="Group 1570"><path id="Path_1216" data-name="Path 1216" d="M455.09,79.3V188c0,5.66-1.22,11.31-7.69,11.31-6.67,0-7.69-5.85-7.69-11.31V79.3H418.06V192.65a27.84,27.84,0,0,0,27.57,28.12c.59,0,1.18,0,1.77,0,18.82,0,29.54-11.52,29.54-28.29V79.28Z"/><path id="Path_1217" data-name="Path 1217" d="M540.69,86.37a34.57,34.57,0,0,0-22.27-7.07H491.71V220.76h21.66V167.21h4.45a33.37,33.37,0,0,0,22.67-7.47,30.18,30.18,0,0,0,10.11-23.45V109.83A28.24,28.24,0,0,0,540.69,86.37Zm-14.38,57.4A9.23,9.23,0,0,1,519,147h-5.67V100.52h6.07a8.39,8.39,0,0,1,6.68,2.43,16.87,16.87,0,0,1,2.63,11.11v19.4a14.56,14.56,0,0,1-2.42,10.31Z"/><path id="Path_1218" data-name="Path 1218" d="M614.34,79.25H563.71V220.76h50.63V200.9H585.41V156.44h18.21v-19.8h-18V99h28.73Z"/><path id="Path_1219" data-name="Path 1219" d="M663.51,220.76h21.65V166.6a19.38,19.38,0,0,0-3.64-12.73,18.69,18.69,0,0,0-10.32-6.26,19.93,19.93,0,0,0,9.92-7.28A20.9,20.9,0,0,0,684.56,127V109.81a29.34,29.34,0,0,0-8.3-22.23,34,34,0,0,0-23.68-8.29H626.49V220.75h21.65V158.1H656c5.05,0,7.49,5.66,7.49,12.73Zm-.6-92.95a10.81,10.81,0,0,1-2.84,7.88,10.17,10.17,0,0,1-7.28,3h-4.66V100.53h4.66c4.65,0,5.86.81,7.28,2.43a15.86,15.86,0,0,1,2.84,11.11Z"/><path id="Path_1220" data-name="Path 1220" d="M752.4,79.49l-17,51L718.3,79.49h-19V220.72h20.85c0-29.1.61-88.72.61-88.72l10.89,36H739l10.9-36s.56,59.62.6,88.72h20.85V79.49Z"/><path id="Path_1221" data-name="Path 1221" d="M838.35,79.25H787.71V220.76h50.64V200.9H809.41V156.44h18.22v-19.8h-18V99h28.73Z"/><path id="Path_1222" data-name="Path 1222" d="M907.35,79.31H848.46v19.8h18.41V220.77h22.06V99.11h18.42Z"/><path id="Path_1223" data-name="Path 1223" d="M955.52,220.76h21.65V166.6a19.49,19.49,0,0,0-3.64-12.73,18.69,18.69,0,0,0-10.32-6.26,19.84,19.84,0,0,0,9.91-7.28A20.83,20.83,0,0,0,976.56,127V109.81a29.33,29.33,0,0,0-8.29-22.23,34,34,0,0,0-23.68-8.29h-26.1V220.75h21.65V158.1H948c5,0,7.49,5.66,7.49,12.73Zm-.62-92.95a10.76,10.76,0,0,1-2.83,7.88,10.21,10.21,0,0,1-7.28,3h-4.65V100.53h4.65c4.65,0,5.87.81,7.28,2.43a15.86,15.86,0,0,1,2.83,11.11Z"/><rect id="Rectangle_24504" data-name="Rectangle 24504" x="991.33" y="79.3" width="21.65" height="141.46"/><path id="Path_1224" data-name="Path 1224" d="M1064.58,191.26a7.38,7.38,0,0,1-6.66,8,5.76,5.76,0,0,1-.83,0c-6.27,0-7.69-5.85-7.69-11.52V111.63c0-5.26,1.42-11.52,7.69-11.52,5.26,0,7.49,5.66,7.49,8.48v12.74h21.05V107.79a27.15,27.15,0,0,0-28.54-28.49,27.82,27.82,0,0,0-29.31,26.26c0,.74,0,1.48,0,2.23v84.67A27.77,27.77,0,0,0,1055,220.78c.71,0,1.42,0,2.12,0,18.83,0,28.54-11.52,28.54-28.29V178.12h-21.05Z"/><g id="Group_1568" data-name="Group 1568"><path id="Path_1225" data-name="Path 1225" d="M373,79.26a7.13,7.13,0,0,1,.81,0,5.74,5.74,0,0,0,.6,0Z"/><path id="Path_1226" data-name="Path 1226" d="M375.62,220.54c-.27,0-.56,0-.81,0s-.38,0-.6,0Z"/><path id="Path_1227" data-name="Path 1227" d="M388.23,149.91h0c-9.19-12.5-19.48-23.54-22.05-34.25a31.92,31.92,0,0,1-.56-9.3c.41-3.44,1.84-7.48,7.39-7.48,6.16,0,8.07,4.45,8.07,11.93V122h21.66V107.57c0-18.11-12.51-28-28.93-28.28a28.4,28.4,0,0,0-23.49,11.28c-1.63,2.77-5,6.81-5,21.45,0,13.83,7.05,26.52,15.09,37.88h0c9.2,12.49,19.49,23.54,22.05,34.23a31.58,31.58,0,0,1,.56,9.3c-.41,3.44-1.84,7.49-7.38,7.49-6.17,0-8.07-4.45-8.07-11.94V177.83H345.86v14.39c0,18.1,12.51,28,28.93,28.28a28.43,28.43,0,0,0,23.49-11.28c1.63-2.81,5-6.83,5-21.46C403.33,173.94,396.29,161.26,388.23,149.91Z"/></g><g id="Group_1569" data-name="Group 1569"><path id="Path_1228" data-name="Path 1228" d="M1124.87,79.26a7.13,7.13,0,0,1,.81,0,5.6,5.6,0,0,0,.6,0Z"/><path id="Path_1229" data-name="Path 1229" d="M1127.46,220.54c-.27,0-.52,0-.8,0s-.39,0-.6,0Z"/><path id="Path_1230" data-name="Path 1230" d="M1140.11,149.91h0c-9.2-12.5-19.5-23.54-22.07-34.25a31.92,31.92,0,0,1-.56-9.3c.41-3.44,1.84-7.48,7.38-7.48,6.16,0,8.07,4.45,8.07,11.93V122h21.67V107.57c0-18.11-12.51-28-28.94-28.28a28.39,28.39,0,0,0-23.49,11.28c-1.64,2.77-5,6.81-5,21.45,0,13.83,7,26.52,15.09,37.88h0c9.2,12.49,19.49,23.54,22.06,34.23a31.92,31.92,0,0,1,.56,9.3c-.4,3.44-1.84,7.49-7.38,7.49-6.17,0-8.07-4.45-8.07-11.94V177.83h-21.67v14.39c0,18.1,12.52,28,28.93,28.28a28.41,28.41,0,0,0,23.49-11.28c1.64-2.81,5-6.83,5-21.46C1155.19,173.94,1148.14,161.26,1140.11,149.91Z"/></g></g></g></svg>