<?xml version="1.0" encoding="UTF-8" standalone="no"?><!DOCTYPE svg PUBLIC "-//W3C//DTD SVG 1.1//EN" "http://www.w3.org/Graphics/SVG/1.1/DTD/svg11.dtd"><svg width="100%" height="100%" viewBox="0 0 527 126" version="1.1" xmlns="http://www.w3.org/2000/svg" xmlns:xlink="http://www.w3.org/1999/xlink" xml:space="preserve" xmlns:serif="http://www.serif.com/" style="fill-rule:evenodd;clip-rule:evenodd;stroke-linejoin:round;stroke-miterlimit:1.41421;"><g id="Graphic_26"><path d="M138.522,76.044c4.662,4.662 11.47,7.844 20.942,7.844c13.32,0 19.758,-6.808 19.758,-15.836c0,-10.952 -10.36,-13.394 -18.5,-15.244c-5.698,-1.332 -9.842,-2.368 -9.842,-5.698c0,-2.96 2.516,-5.032 7.252,-5.032c4.81,0 10.138,1.702 14.134,5.402l5.846,-7.696c-4.884,-4.514 -11.396,-6.882 -19.24,-6.882c-11.618,0 -18.722,6.66 -18.722,14.874c0,11.026 10.36,13.246 18.426,15.096c5.698,1.332 9.99,2.59 9.99,6.29c0,2.812 -2.812,5.55 -8.584,5.55c-6.808,0 -12.21,-3.034 -15.688,-6.66l-5.772,7.992Z" style="fill:#283131;fill-rule:nonzero;"/><path d="M186.326,63.316c0,12.136 7.03,20.572 22.126,20.572c14.948,0 21.978,-8.362 21.978,-20.646l0,-29.6l-10.656,0l0,29.304c0,6.882 -3.774,11.618 -11.322,11.618c-7.696,0 -11.47,-4.736 -11.47,-11.618l0,-29.304l-10.656,0l0,29.674Z" style="fill:#283131;fill-rule:nonzero;"/><path d="M268.096,83l12.062,0l-11.1,-18.796c5.328,-1.258 10.804,-5.92 10.804,-14.652c0,-9.176 -6.29,-15.91 -16.576,-15.91l-23.088,0l0,49.358l10.508,0l0,-17.686l7.696,0l9.694,17.686Zm1.036,-33.522c0,4.144 -3.182,6.808 -7.4,6.808l-11.026,0l0,-13.616l11.026,0c4.218,0 7.4,2.664 7.4,6.808Z" style="fill:#283131;fill-rule:nonzero;"/><path d="M300.878,83l13.172,0l19.018,-49.358l-11.988,0l-13.616,37.962l-13.69,-37.962l-11.988,0l19.092,49.358Z" style="fill:#283131;fill-rule:nonzero;"/><rect x="337.656" y="33.642" width="10.508" height="49.358" style="fill:#283131;fill-rule:nonzero;"/><path d="M371.77,83l13.172,0l19.018,-49.358l-11.988,0l-13.616,37.962l-13.69,-37.962l-11.988,0l19.092,49.358Z" style="fill:#283131;fill-rule:nonzero;"/><path d="M408.548,83l34.928,0l0,-9.102l-24.42,0l0,-11.47l23.902,0l0,-9.028l-23.902,0l0,-10.73l24.42,0l0,-9.028l-34.928,0l0,49.358Z" style="fill:#283131;fill-rule:nonzero;"/><path d="M449.14,79.078c3.552,3.478 8.214,4.81 13.246,4.81c10.138,0 17.39,-5.402 17.39,-17.094l0,-33.152l-10.508,0l0,33.004c0,4.81 -3.034,7.918 -7.696,7.918c-3.404,0 -5.92,-1.702 -7.844,-3.552l-4.588,8.066Z" style="fill:#00c1cf;fill-rule:nonzero;"/><path d="M486.14,76.044c4.662,4.662 11.47,7.844 20.942,7.844c13.32,0 19.758,-6.808 19.758,-15.836c0,-10.952 -10.36,-13.394 -18.5,-15.244c-5.698,-1.332 -9.842,-2.368 -9.842,-5.698c0,-2.96 2.516,-5.032 7.252,-5.032c4.81,0 10.138,1.702 14.134,5.402l5.846,-7.696c-4.884,-4.514 -11.396,-6.882 -19.24,-6.882c-11.618,0 -18.722,6.66 -18.722,14.874c0,11.026 10.36,13.246 18.426,15.096c5.698,1.332 9.99,2.59 9.99,6.29c0,2.812 -2.812,5.55 -8.584,5.55c-6.808,0 -12.21,-3.034 -15.688,-6.66l-5.772,7.992Z" style="fill:#00c1cf;fill-rule:nonzero;"/></g><g id="Group_4"><path id="Graphic_25" d="M63.104,0c-34.796,0 -63.104,28.261 -63.104,62.999c0,34.739 28.308,63.001 63.104,63.001c34.795,0 63.103,-28.262 63.103,-63.001c0,-34.738 -28.308,-62.999 -63.103,-62.999m0,5.318c31.841,0 57.776,25.893 57.776,57.681c0,31.79 -25.935,57.683 -57.776,57.683c-31.842,0 -57.777,-25.893 -57.777,-57.683c0,-31.788 25.935,-57.681 57.777,-57.681" style="fill:#3c4244;fill-rule:nonzero;"/><path id="Graphic_24" d="M10.871,74.275c9.408,-4.618 19.833,-7.306 30.272,-7.753c0.161,1.121 0.481,2.402 0.802,3.523c-9.893,4.008 -18.878,10.075 -26.403,17.72c-2.129,-4.208 -3.721,-8.731 -4.671,-13.49Z" style="fill:#3c4244;fill-rule:nonzero;"/><path id="Graphic_23" d="M16.394,38.239c10.246,2.54 19.895,7.124 28.278,13.552c-0.642,0.96 -1.284,2.08 -1.765,3.202c-10.23,-3.164 -20.977,-4.371 -31.661,-3.311c1.112,-4.757 2.853,-9.273 5.148,-13.443Z" style="fill:#3c4244;fill-rule:nonzero;"/><path id="Graphic_22" d="M10.217,70.087c-0.242,-2.057 -0.381,-4.146 -0.381,-6.268c0,-2.719 0.208,-5.389 0.602,-7.997c10.486,-1.271 21.183,-0.116 31.186,3.014c0,0.16 -0.161,0.481 -0.161,0.64c-0.159,1.121 -0.32,2.082 -0.32,3.043c-10.759,0.43 -21.254,2.925 -30.926,7.568Z" style="fill:#3c4244;fill-rule:nonzero;"/><path id="Graphic_21" d="M27.875,23.94c8.764,5.798 16.258,13.455 21.93,22.245c-0.963,0.801 -1.925,1.601 -2.728,2.402c-8.473,-6.452 -18.238,-11.219 -28.478,-13.989c2.609,-3.955 5.733,-7.536 9.276,-10.658Z" style="fill:#3c4244;fill-rule:nonzero;"/><path id="Graphic_20" d="M63.737,116.982c-2.978,-10.091 -3.878,-20.802 -2.384,-31.243l1.123,0c0.962,0 1.764,0 2.566,-0.161c2.174,10.564 6.724,20.591 13.022,29.281c-4.554,1.327 -9.357,2.065 -14.327,2.123Z" style="fill:#3c4244;fill-rule:nonzero;"/><path id="Graphic_19" d="M82.171,113.478c-6.285,-8.469 -10.853,-18.291 -13.119,-28.7c1.123,-0.32 2.246,-0.801 3.369,-1.281c5.801,9.122 13.451,17.046 22.331,23.101c-3.831,2.829 -8.059,5.15 -12.581,6.88Z" style="fill:#3c4244;fill-rule:nonzero;"/><path id="Graphic_18" d="M59.446,116.86c-4.871,-0.33 -9.56,-1.31 -13.983,-2.858c0.663,-10.458 3.469,-20.708 8.351,-29.865c1.123,0.481 2.406,0.801 3.529,1.121c-1.435,10.457 -0.799,21.293 2.103,31.602Z" style="fill:#3c4244;fill-rule:nonzero;"/><path id="Graphic_17" d="M41.823,112.576c-4.355,-1.896 -8.405,-4.356 -12.06,-7.288c4.208,-9.546 10.538,-18.331 18.277,-25.315c0.962,0.801 1.924,1.601 2.888,2.243c-4.862,9.277 -7.926,19.7 -9.105,30.36Z" style="fill:#3c4244;fill-rule:nonzero;"/><path id="Graphic_16" d="M61.824,10.672c3.004,10.122 3.915,20.872 2.416,31.35c-1.283,0 -2.406,0 -3.689,0.16c-2.171,-10.546 -6.708,-20.558 -12.99,-29.238c4.528,-1.376 9.312,-2.155 14.263,-2.272Z" style="fill:#3c4244;fill-rule:nonzero;"/><path id="Graphic_15" d="M43.49,14.375c6.251,8.448 10.792,18.236 13.051,28.608c-1.123,0.32 -2.246,0.801 -3.369,1.281c-5.75,-9.042 -13.313,-16.911 -22.093,-22.945c3.775,-2.84 7.948,-5.179 12.411,-6.944Z" style="fill:#3c4244;fill-rule:nonzero;"/><path id="Graphic_14" d="M66.094,10.728c4.892,0.27 9.603,1.207 14.055,2.707c-0.625,10.57 -3.438,20.936 -8.37,30.188c-1.123,-0.48 -2.406,-0.8 -3.529,-1.121c1.443,-10.515 0.787,-21.414 -2.156,-31.774Z" style="fill:#3c4244;fill-rule:nonzero;"/><path id="Graphic_13" d="M84.081,14.925c4.428,1.895 8.541,4.378 12.255,7.341c-4.189,9.562 -10.389,18.366 -18.141,25.361c-0.962,-0.801 -1.925,-1.602 -2.888,-2.243c4.894,-9.339 7.96,-19.84 8.774,-30.459Z" style="fill:#22b6c4;fill-rule:nonzero;"/><path id="Graphic_12" d="M108.523,36.023c-7.265,7.662 -16.122,13.66 -25.838,17.688c-0.48,-0.96 -1.122,-2.081 -1.924,-3.042c7.889,-7.159 14.351,-15.991 18.73,-25.679c3.479,3.252 6.524,6.958 9.032,11.033Z" style="fill:#3c4244;fill-rule:nonzero;"/><path id="Graphic_11" d="M109.796,89.429c-10.349,-2.524 -20.095,-7.135 -28.553,-13.619c0.641,-0.961 1.282,-2.082 1.764,-3.202c7.859,2.402 15.879,3.683 24.059,3.683c2.657,0 5.31,-0.161 7.913,-0.412c-1.114,4.797 -2.867,9.349 -5.183,13.55Z" style="fill:#3c4244;fill-rule:nonzero;"/><path id="Graphic_10" d="M115.319,53.267c-9.438,4.655 -19.907,7.363 -30.388,7.811c-0.161,-1.121 -0.481,-2.402 -0.802,-3.523c9.926,-4.022 18.937,-10.117 26.477,-17.797c2.145,4.212 3.753,8.742 4.713,13.509Z" style="fill:#3c4244;fill-rule:nonzero;"/><path id="Graphic_9" d="M115.977,57.452c0.25,2.089 0.393,4.211 0.393,6.367c0,2.699 -0.205,5.351 -0.593,7.941c-10.533,1.299 -21.279,0.148 -31.326,-2.996c0,-0.16 0.159,-0.48 0.159,-0.64c0.161,-1.121 0.321,-2.082 0.321,-3.042c10.804,-0.432 21.342,-2.949 31.046,-7.63Z" style="fill:#3c4244;fill-rule:nonzero;"/><path id="Graphic_8" d="M98.056,103.938c-8.841,-5.812 -16.398,-13.513 -22.107,-22.363c0.963,-0.64 1.925,-1.441 2.727,-2.402c8.552,6.513 18.422,11.303 28.884,13.941c-2.667,4.028 -5.87,7.665 -9.504,10.823Z" style="fill:#3c4244;fill-rule:nonzero;"/><path id="Graphic_7" d="M17.551,91.408c7.236,-7.582 16.034,-13.521 25.677,-17.52c0.481,0.961 1.123,2.082 1.925,3.043c-7.843,7.119 -14.279,15.886 -18.657,25.507c-3.445,-3.257 -6.467,-6.959 -8.945,-11.03Z" style="fill:#3c4244;fill-rule:nonzero;"/><path id="Graphic_6" d="M63.237,46.653c-9.055,0 -16.705,7.638 -16.705,16.677c0,9.041 7.65,16.679 16.705,16.679c9.055,0 16.706,-7.638 16.706,-16.679c0,-9.039 -7.651,-16.677 -16.706,-16.677m0,4.064c6.844,0 12.635,5.781 12.635,12.613c0,6.833 -5.791,12.615 -12.635,12.615c-6.844,0 -12.635,-5.782 -12.635,-12.615c0,-6.832 5.791,-12.613 12.635,-12.613" style="fill:#22b6c4;fill-rule:nonzero;"/><path id="Graphic_5" d="M63.41,69.727c-3.468,0 -6.401,-2.93 -6.401,-6.392c0,-3.462 2.933,-6.39 6.401,-6.39c3.467,0 6.401,2.928 6.401,6.39c0,3.462 -2.934,6.392 -6.401,6.392Z" style="fill:#3c4244;fill-rule:nonzero;"/></g></svg>