<svg data-node-id="RvKAA-USW6ZGz6lHvuaWS" data-id="0.0.0.0.0.0.0.0.0" data-component="logo2024" class="ftaNwg" xmlns="http://www.w3.org/2000/svg" height="24" viewBox="0 0 869 156"><path data-node-id="kkPf8xmgSRrocBP9yur20" data-id="0.0.0.0.0.0.0.0.0.0" data-component="logo2024" class="ftaNwg" d="M124 20C124 8.95431 132.954 0 144 0V0C155.046 0 164 8.95431 164 20V20C164 31.0457 155.046 40 144 40V40C132.954 40 124 31.0457 124 20V20Z" fill="#1CD688"></path><rect data-node-id="0-PoHPnCspxSNbD_oiyQr" data-id="0.0.0.0.0.0.0.0.0.1" data-component="logo2024" class="ftaNwg" rx="20" fill="#3586FF" width="110" height="40"></rect><rect data-node-id="v82u6TSMm3Z4rLkhXKhY0" data-id="0.0.0.0.0.0.0.0.0.2" data-component="logo2024" class="ftaNwg" x="57" y="58" rx="20" fill="#F43F5E" width="146" height="40"></rect><rect data-node-id="0QkAe9Z5ocroIPUnxWv-K" data-id="0.0.0.0.0.0.0.0.0.3" data-component="logo2024" class="ftaNwg" x="30" y="116" rx="20" fill="#FBCC26" width="94" height="40"></rect><path data-node-id="VfLZlrJSWt-tv8RHZ478T" data-id="0.0.0.0.0.0.0.0.0.4" data-component="logo2024" class="ftaNwg" d="M776.676 108.234V90.7839H846.011L843.211 95.4497C843.211 95.0765 843.211 94.6721 843.211 94.2366C843.211 93.7389 843.211 93.3346 843.211 93.0235C843.211 88.7309 842.247 84.7183 840.318 80.9856C838.39 77.1907 835.466 74.1424 831.547 71.8406C827.627 69.4766 822.651 68.2945 816.616 68.2945C810.644 68.2945 805.449 69.5699 801.032 72.1205C796.677 74.609 793.287 78.2172 790.861 82.9453C788.497 87.6733 787.315 93.3345 787.315 99.9289C787.315 106.71 788.465 112.558 790.767 117.472C793.069 122.325 796.429 126.058 800.845 128.671C805.325 131.221 810.768 132.496 817.176 132.496C821.531 132.496 825.294 132.092 828.467 131.283C831.64 130.475 834.222 129.386 836.213 128.017C838.266 126.586 839.79 125.062 840.785 123.445C841.843 121.827 842.465 120.21 842.651 118.592H867.1C866.727 122.76 865.327 126.835 862.901 130.817C860.537 134.736 857.209 138.313 852.916 141.548C848.624 144.721 843.398 147.272 837.239 149.2C831.142 151.067 824.175 152 816.336 152C805.698 152 796.397 149.822 788.434 145.468C780.471 141.113 774.25 135.047 769.771 127.271C765.354 119.494 763.146 110.598 763.146 100.582C763.146 90.3173 765.385 81.3278 769.864 73.6136C774.406 65.8994 780.689 59.896 788.714 55.6035C796.74 51.2487 805.947 49.0713 816.336 49.0713C827.036 49.0713 836.275 51.2487 844.051 55.6035C851.89 59.9582 857.924 66.0238 862.155 73.8002C866.385 81.5144 868.5 90.5039 868.5 100.769C868.5 102.075 868.469 103.475 868.407 104.968C868.345 106.461 868.251 107.55 868.127 108.234H776.676Z" fill="white"></path><path data-node-id="rFNACkWnBD1zwcnICMJdx" data-id="0.0.0.0.0.0.0.0.0.5" data-component="logo2024" class="ftaNwg" d="M742.432 4V149.854H718.263V20C718.263 11.1635 725.426 4 734.263 4H742.432Z" fill="white"></path><path data-node-id="V3Nlbf7TtJSIw-tIFyUnC" data-id="0.0.0.0.0.0.0.0.0.6" data-component="logo2024" class="ftaNwg" d="M636.814 151.907C628.664 151.907 621.105 149.947 614.138 146.028C607.232 142.047 601.695 136.199 597.527 128.485C593.359 120.77 591.275 111.283 591.275 100.023C591.275 89.0738 593.39 79.8043 597.62 72.2146C601.913 64.6248 607.512 58.8703 614.417 54.951C621.385 51.0317 628.85 49.072 636.814 49.072C644.59 49.072 651.775 51.0006 658.37 54.8577C664.964 58.6525 670.252 63.9405 674.234 70.7215C678.215 77.5025 680.206 85.2789 680.206 94.0507C680.206 94.2995 680.206 94.5484 680.206 94.7972C680.206 95.0461 680.206 95.2949 680.206 95.5438L668.075 95.8237C668.075 95.6371 668.075 95.4504 668.075 95.2638C668.075 95.015 668.075 94.7972 668.075 94.6106C668.075 89.6959 666.83 85.4033 664.342 81.7329C661.916 78.0624 658.743 75.2007 654.824 73.1477C650.967 71.0326 646.861 69.975 642.506 69.975C635.352 69.975 629.255 72.4012 624.216 77.2537C619.177 82.0439 616.657 89.6337 616.657 100.023C616.657 110.35 619.177 117.971 624.216 122.886C629.255 127.8 635.352 130.258 642.506 130.258C647.047 130.258 651.247 129.169 655.104 126.992C658.961 124.814 662.071 121.828 664.435 118.033C666.862 114.176 668.075 109.759 668.075 104.782L680.206 105.342C680.206 114.052 678.246 121.952 674.327 129.044C670.47 136.074 665.275 141.642 658.743 145.748C652.211 149.854 644.901 151.907 636.814 151.907ZM668.075 149.854V20C668.075 11.1635 675.238 4 684.075 4H692.71V149.854H668.075Z" fill="white"></path><path data-node-id="BX_NQjKBR271NfuYQZPm8" data-id="0.0.0.0.0.0.0.0.0.7" data-component="logo2024" class="ftaNwg" d="M515.611 151.907C507.461 151.907 499.903 149.947 492.935 146.028C486.03 142.047 480.493 136.199 476.325 128.485C472.157 120.77 470.073 111.283 470.073 100.023C470.073 89.0738 472.188 79.8043 476.418 72.2146C480.711 64.6248 486.31 58.8703 493.215 54.951C500.183 51.0317 507.648 49.072 515.611 49.072C523.387 49.072 530.573 51.0006 537.167 54.8577C543.762 58.6525 549.05 63.9405 553.031 70.7215C557.013 77.5025 559.003 85.2789 559.003 94.0507C559.003 94.2995 559.003 94.5484 559.003 94.7972C559.003 95.0461 559.003 95.2949 559.003 95.5438L546.872 95.8237C546.872 95.6371 546.872 95.4504 546.872 95.2638C546.872 95.015 546.872 94.7972 546.872 94.6106C546.872 89.6959 545.628 85.4033 543.14 81.7329C540.713 78.0624 537.541 75.2007 533.621 73.1477C529.764 71.0326 525.658 69.975 521.303 69.975C514.149 69.975 508.052 72.4012 503.013 77.2537C497.974 82.0439 495.455 89.6337 495.455 100.023C495.455 110.35 497.974 117.971 503.013 122.886C508.052 127.8 514.149 130.258 521.303 130.258C525.845 130.258 530.044 129.169 533.901 126.992C537.758 124.814 540.869 121.828 543.233 118.033C545.659 114.176 546.872 109.759 546.872 104.782L559.003 105.342C559.003 114.052 557.044 121.952 553.124 129.044C549.267 136.074 544.073 141.642 537.541 145.748C531.008 149.854 523.699 151.907 515.611 151.907ZM546.872 149.854V20C546.872 11.1635 554.036 4 562.872 4H571.508V149.854H546.872Z" fill="white"></path><path data-node-id="6UCujzLJG1Zh7gpzhLTup" data-id="0.0.0.0.0.0.0.0.0.8" data-component="logo2024" class="ftaNwg" d="M401.056 151.813C390.605 151.813 381.397 149.636 373.434 145.281C365.471 140.864 359.219 134.767 354.678 126.991C350.198 119.214 347.959 110.318 347.959 100.302C347.959 90.224 350.198 81.3589 354.678 73.7069C359.219 65.9927 365.471 59.9582 373.434 55.6035C381.397 51.2487 390.605 49.0713 401.056 49.0713C411.507 49.0713 420.715 51.2487 428.678 55.6035C436.641 59.9582 442.862 65.9927 447.341 73.7069C451.883 81.3589 454.153 90.224 454.153 100.302C454.153 110.318 451.883 119.214 447.341 126.991C442.862 134.767 436.641 140.864 428.678 145.281C420.715 149.636 411.507 151.813 401.056 151.813ZM401.056 131.75C406.717 131.75 411.663 130.444 415.893 127.831C420.124 125.218 423.421 121.578 425.785 116.913C428.149 112.185 429.331 106.648 429.331 100.302C429.331 93.9567 428.149 88.4821 425.785 83.8785C423.421 79.2126 420.124 75.6044 415.893 73.0537C411.663 70.503 406.717 69.2277 401.056 69.2277C395.457 69.2277 390.511 70.503 386.219 73.0537C381.988 75.6044 378.691 79.2126 376.327 83.8785C373.963 88.4821 372.781 93.9567 372.781 100.302C372.781 106.648 373.963 112.185 376.327 116.913C378.691 121.578 381.988 125.218 386.219 127.831C390.511 130.444 395.457 131.75 401.056 131.75Z" fill="white"></path><path data-node-id="CEdl0Ch_0kKpmN8-lALpz" data-id="0.0.0.0.0.0.0.0.0.9" data-component="logo2024" class="ftaNwg" d="M313.497 151.72C309.951 151.72 306.343 151.378 302.672 150.694C299.002 150.01 295.642 148.734 292.594 146.868C289.546 145.002 287.088 142.264 285.222 138.656C283.356 135.048 282.423 130.289 282.423 124.379C282.423 123.01 282.423 121.641 282.423 120.273C282.423 118.842 282.423 117.38 282.423 115.887V70.3482H259V50.7517H268.518C271.753 50.7517 274.304 50.6273 276.17 50.3784C278.037 50.0674 279.405 49.383 280.276 48.3255C281.147 47.2679 281.707 45.6193 281.956 43.3797C282.267 41.0779 282.423 37.9051 282.423 33.8614V33.8614C282.423 25.1515 289.483 18.0908 298.193 18.0908H307.058V50.7517H336.546V70.3482H307.058V110.101C307.058 111.283 307.058 112.465 307.058 113.647C307.058 114.767 307.058 115.856 307.058 116.913C307.058 121.517 307.618 125.218 308.738 128.018C309.858 130.818 312.502 132.217 316.67 132.217C318.661 132.217 320.527 132.031 322.269 131.657C324.073 131.284 325.41 130.911 326.281 130.538V149.761C325.099 150.196 323.389 150.632 321.149 151.067C318.909 151.503 316.359 151.72 313.497 151.72Z" fill="white"></path></svg>