<svg height="34" width="152"><g fill="#fff"><path d="M24 4H0v1.4c0 6 3.2 11.2 8 14V30h16V19.4c4.8-2.8 8-8 8-14V4zm-2 14.2c-1.8.9-3.9 1.4-6 1.4s-4.2-.5-6-1.4V7l6 6 6-6zM2 6h6v11c-3.5-2.4-5.8-6.4-6-11zm20 22H10v-7.6c1.9.8 3.9 1.2 6 1.2s4.1-.4 6-1.2zm2-11V6h6c-.2 4.6-2.5 8.6-6 11zM47.7 21.9v-8.2h-3.4l.3-2.8h3.1V6.3l3.7-.3v4.8h6.3v2.8h-6.3v7.7c0 2.6 1.6 3.2 6.6 3.3l-.4 3.1c-7.4.2-9.9-1.5-9.9-5.8zM62.6 30c3.9-.6 5-.9 5.9-3.2l-.5-.2c-1.6-3.5-5-12.4-6.3-15.7l3.8-.3c1.4 3.7 3.1 8.7 4.7 12.4h.3c1-3.2 3.3-11.1 3.7-12.2h3.6c-1.2 3.8-2.8 8.8-4.7 13.7-2.4 6.7-4.2 8.3-10.2 8.8zM81.6 33.3v-5.7c0-8.6 0-13.3-.2-16.6l3.4-.2.2 1.7c1.2-1.1 2.7-2.1 4.6-2.1 3.5 0 6 3.1 6 7.9 0 6.1-4.3 9.6-9.5 9.6h-.9V33zM92 19.2c0-3.8-1.6-5.8-3.9-5.8-1 0-2 .4-2.9 1.1 0 2.4.1 5.4.1 9.8.7.3 1.4.4 2.2.4 2.5 0 4.5-1.8 4.5-5.5zM99.2 19.4c0-5.1 3.7-9.1 8.1-9.1 4.7 0 6.9 3.7 6.3 9.5l-10.7.3c.4 3.3 2.9 4.4 10.3 4.6l-.4 3.1c-10.7.2-13.6-3-13.6-8.4zm3.7-1.5c1.8-.1 5.1-.2 7.2-.2-.1-2.6-1.1-4.3-3.4-4.3s-3.6 1.4-3.8 4.5zM117.3 19.5c0-5.4 3.7-9.2 8.1-9.2 4.2 0 7 3 7 8.4 0 5.5-3.7 9.2-8.1 9.2-4.1.1-7-3-7-8.4zm11.4-.1c0-4-1.5-6.1-3.9-6.1-2.2 0-3.7 1.8-3.7 5.5 0 4 1.5 6.1 3.9 6.1 2.2 0 3.7-1.8 3.7-5.5zM149.5 27.5h-12.9v-2.8h4.2V14.4h-4.4l.3-2.8h4.1c0-4.3 2.4-7.5 10.2-7.9l.2 3.6c-6.1.2-6.7.7-6.7 3.7v.6h5.6v2.8h-5.6v10.3h5.3z"></path></g></svg>