<?xml version="1.0" encoding="UTF-8"?><svg id="Layer_1" xmlns="http://www.w3.org/2000/svg" xmlns:xlink="http://www.w3.org/1999/xlink" viewBox="0 0 3122.13 1036.94"><defs><style>.cls-1{fill:none;}.cls-2{clip-path:url(#clippath);}.cls-3{fill:#ed117d;}.cls-4{clip-path:url(#clippath-1);}</style><clipPath id="clippath"><rect class="cls-1" y="0" width="3122.13" height="1036.94"/></clipPath><clipPath id="clippath-1"><rect class="cls-1" y="0" width="3122.13" height="1036.94"/></clipPath></defs><g id="Utopia_Logo_Pink"><g class="cls-2"><path class="cls-3" d="M2956.41,120.47v15.97h22.63v66.56h19.3v-66.56h22.63v-15.97h-64.56Zm139.77,0l-19.97,53.91-19.97-53.91h-25.96v81.86h18.64v-58.57h.66l19.97,58.57h13.31l19.97-58.57h.67v58.57h18.64V120.47h-25.96Z"/><g class="cls-4"><path class="cls-3" d="M2135.77,0V317.47c-41.26-126.46-149.08-228.29-334.77-228.29s-298.84,107.15-337.44,237.6c-38.6-130.45-147.09-237.6-337.44-237.6-244.26,0-354.08,177.04-354.08,352.75,0,65.23,15.31,131.12,47.26,187.69-21.96,11.98-49.92,17.97-84.53,17.97-94.51,0-140.43-44.59-140.43-135.77v-151.08l168.39-204.99h-167.05V0l-153.74,189.68v329.45c0,3.99,.67,7.99,.67,11.98v-5.32c2,86.52-54.57,125.12-147.09,125.12s-140.43-44.59-140.43-135.77l-2-359.4H0l2,367.39c0,169.05,109.82,270.22,293.51,270.22,92.51,0,173.71-29.28,224.29-75.87,50.58,46.59,123.79,71.88,215.64,71.88,75.87,0,138.44-17.3,186.36-49.25,53.24,34.61,121.13,55.24,204.33,55.24,175.04,0,280.86-90.52,326.79-206.32v257.57l144.43,190.35v-311.48c52.58,33.28,121.8,69.22,203.66,69.22,185.69,0,293.51-102.5,334.78-228.29v226.96h147.09v-227.62c41.26,126.46,148.42,228.95,334.78,228.95,84.53,0,153.08-21.3,206.32-55.91v55.91h146.42l1.33-325.46c.67-8.65,0-17.97,0-26.62,0-175.71-109.15-352.75-354.08-352.75-185.69,0-293.51,102.5-334.78,228.95v-125.79L2135.77,0Zm-1009.65,648.92c-120.47,0-198.34-81.2-198.34-206.99s77.87-206.99,198.34-206.99,197.01,81.2,197.01,206.99-77.2,206.99-197.01,206.99m674.88,0c-120.47,0-198.34-81.2-198.34-206.99s77.87-206.99,198.34-206.99,197,81.2,197,206.99-77.2,206.99-197,206.99m816.64-414.64c119.8,0,197,81.2,197,206.99s-77.2,206.99-197,206.99-198.34-81.2-198.34-206.99,77.87-206.99,198.34-206.99"/></g></g></g></svg>