<?xml version="1.0" encoding="UTF-8"?>
<svg width="129px" height="18px" viewBox="0 0 129 18" version="1.1" xmlns="http://www.w3.org/2000/svg" xmlns:xlink="http://www.w3.org/1999/xlink">
    <!-- Generator: Sketch 49.1 (51147) - http://www.bohemiancoding.com/sketch -->
    <title>valamis-logo</title>
    <desc>Created with Sketch.</desc>
    <defs></defs>
    <g id="Symbols" stroke="none" stroke-width="1" fill="none" fill-rule="evenodd">
        <g id="Logo-/-Logo-White-Small" fill="#FFFFFF">
            <g id="valamis-logo" transform="translate(0.350000, 0.340000)">
                <path d="M128.641923,12.1207353 C128.641923,12.7892733 128.506615,13.4138199 128.238667,13.9750452 C127.970718,14.5389368 127.592791,15.0408402 127.11355,15.4680914 C126.635642,15.8960091 126.059086,16.2346106 125.399213,16.4712318 C124.735341,16.7098525 124.002815,16.8298295 123.221632,16.8298295 C122.468443,16.8298295 121.77591,16.7365141 121.165361,16.5512164 C120.552812,16.3659187 119.994253,16.1279645 119.50568,15.8433525 C119.015108,15.5580741 118.587856,15.2428014 118.235924,14.9055329 C118.006635,14.6869083 117.798008,14.4702833 117.614044,14.2629899 C117.496066,14.1296822 117.511397,13.9257214 117.640705,13.8030783 L119.023773,12.5019953 C119.155081,12.3793522 119.359041,12.3813518 119.48635,12.5079941 C119.775628,12.7972718 120.097566,13.1325406 120.358849,13.3238372 C120.476826,13.4104872 120.59547,13.4991368 120.71878,13.5824541 C121.042051,13.8004122 121.408647,13.9843768 121.807904,14.127016 C122.210493,14.2729879 122.670404,14.3463072 123.175641,14.3463072 C124.111461,14.3463072 124.819324,14.1203506 125.278569,13.6757695 C125.741147,13.2278556 125.975769,12.6812941 125.975769,12.0500822 C125.975769,11.7001495 125.909115,11.3842103 125.777807,11.1095964 C125.645832,10.8309833 125.421209,10.5836976 125.111935,10.375071 C124.812659,10.1737764 124.418068,9.99047834 123.939494,9.82984257 C123.463585,9.67120642 122.873032,9.51923565 122.183165,9.3779295 C121.489965,9.2392895 120.884081,9.02199796 120.382844,8.73072065 C119.881608,8.4421095 119.462355,8.09417643 119.133751,7.6969195 C118.807814,7.30432835 118.559195,6.86041374 118.395227,6.38250566 C118.231258,5.90259797 118.147941,5.40402721 118.147941,4.90279029 C118.147941,4.3242349 118.253254,3.76500914 118.461881,3.23977683 C118.669841,2.71854376 118.993112,2.24930068 119.423029,1.84737799 C119.857612,1.44345569 120.407506,1.11351915 121.057381,0.87089915 C121.711256,0.62427992 122.493105,0.500303767 123.383601,0.500303767 C124.182114,0.500303767 124.877313,0.59428569 125.448537,0.778250304 C126.018427,0.960215303 126.503001,1.17883992 126.886927,1.42545915 C126.924919,1.44945453 126.962912,1.47411646 127.000238,1.49944492 C127.468148,1.82471568 127.780755,2.12399145 127.963386,2.32261991 C128.085363,2.45459453 128.074032,2.65988837 127.944723,2.78453106 L126.630976,4.04428875 C126.505667,4.16493221 126.307038,4.17026452 126.178396,4.05295375 C125.994432,3.8856526 125.727816,3.65702991 125.465867,3.49706068 C125.428541,3.47306529 125.389881,3.45040298 125.350556,3.42840722 C125.114601,3.29309991 124.839987,3.16979029 124.530713,3.05981145 C124.163451,2.93050299 123.746864,2.86451568 123.290952,2.86451568 C122.879031,2.86451568 122.515101,2.92450414 122.210493,3.03914876 C121.907218,3.15179376 121.649934,3.30309799 121.445307,3.48572952 C121.240679,3.66836106 121.086043,3.8769876 120.986728,4.10827644 C120.886748,4.33556606 120.837424,4.55552375 120.837424,4.76148413 C120.837424,5.06475913 120.891413,5.33537375 120.998726,5.56932874 C121.106039,5.80661644 121.289337,6.02857374 121.543288,6.2305349 C121.790574,6.42583066 122.131175,6.60246336 122.558426,6.75710028 C122.977012,6.90573835 123.510243,7.04704451 124.144121,7.17368681 C124.732674,7.29699643 125.306564,7.48496027 125.851793,7.7315795 C126.390356,7.97486604 126.872929,8.29747066 127.28485,8.68739565 C127.694105,9.07598758 128.026041,9.55389565 128.271994,10.1097887 C128.51728,10.6643487 128.641923,11.3415518 128.641923,12.1207353" id="Fill-1"></path>
                <path d="M108.3125,0.666538459 L106.312884,0.666538459 C106.12892,0.666538459 105.979615,0.815843073 105.979615,0.999807688 L105.979615,16.3301922 C105.979615,16.5134903 106.12892,16.6634615 106.312884,16.6634615 L108.3125,16.6634615 C108.495798,16.6634615 108.645769,16.5134903 108.645769,16.3301922 L108.645769,0.999807688 C108.645769,0.815843073 108.495798,0.666538459 108.3125,0.666538459" id="Fill-3"></path>
                <path d="M96.2731486,0.666538459 L93.4530244,0.666538459 C93.3317144,0.666538459 93.2197359,0.731859228 93.1610806,0.838505381 L89.3158202,7.9984615 L85.4705598,0.838505381 C85.4119044,0.731859228 85.299926,0.666538459 85.178616,0.666538459 L82.3584918,0.666538459 C82.1798594,0.666538459 82.0338875,0.806511535 82.0252225,0.985143842 L81.3333556,16.3161949 C81.3246906,16.5048253 81.4759948,16.6634615 81.6659583,16.6634615 L83.6675733,16.6634615 C83.8455391,16.6634615 83.9928441,16.5234884 84.0008425,16.3441895 L84.3174483,4.33249998 L88.498644,11.8257253 C88.5572994,11.9317049 88.6686113,11.9976923 88.7899213,11.9976923 L89.841719,11.9976923 C89.963029,11.9976923 90.0743409,11.9317049 90.1329963,11.8257253 L94.3148586,4.33249998 L94.6307979,16.3441895 C94.6394629,16.5234884 94.7861013,16.6634615 94.9640671,16.6634615 L96.9656821,16.6634615 C97.1556455,16.6634615 97.3076163,16.5048253 97.2982848,16.3161949 L96.6064178,0.985143842 C96.5977528,0.806511535 96.4517809,0.666538459 96.2731486,0.666538459" id="Fill-5"></path>
                <path d="M65.9443157,1.18237257 C65.8170068,0.956416034 65.490403,0.956416034 65.3624276,1.18237257 L56.7947422,16.414776 C56.7327542,16.5260879 56.8127388,16.6633948 56.9400476,16.6633948 L58.8523465,16.6633948 C58.913668,16.6633948 58.9689907,16.6300679 58.9983184,16.5774114 L62.6542818,9.99801023 L60.8852888,16.4534352 C60.8559611,16.5587483 60.9352792,16.6633948 61.045258,16.6633948 L62.7722591,16.6633948 C62.847578,16.6633948 62.9148984,16.6120713 62.9335615,16.5400852 L64.6532307,9.99801023 L64.6532307,16.4967602 C64.6532307,16.5887425 64.7292161,16.6633948 64.8198653,16.6633948 L66.4862114,16.6633948 C66.5781937,16.6633948 66.6528461,16.5887425 66.6528461,16.4967602 L66.6528461,9.99801023 L68.3738484,16.5400852 C68.393178,16.6120713 68.4591653,16.6633948 68.5351507,16.6633948 L70.2621518,16.6633948 C70.3714641,16.6633948 70.4514487,16.5587483 70.4227876,16.4534352 L68.6524614,9.99801023 L72.309758,16.5780779 C72.3397522,16.6307344 72.3950749,16.6633948 72.4550633,16.6633948 L74.3673622,16.6633948 C74.494671,16.6633948 74.5746556,16.5260879 74.512001,16.414776 L65.9443157,1.18237257 Z" id="Fill-7"></path>
                <path d="M50.9901921,13.9973076 L43.3249998,13.9973076 L43.3249998,0.999807688 C43.3249998,0.815843073 43.1750287,0.666538459 42.9917306,0.666538459 L40.9921152,0.666538459 C40.8081506,0.666538459 40.658846,0.815843073 40.658846,0.999807688 L40.658846,16.3301922 C40.658846,16.5134903 40.8081506,16.6634615 40.9921152,16.6634615 L50.9901921,16.6634615 C51.1734902,16.6634615 51.3234613,16.5134903 51.3234613,16.3301922 L51.3234613,14.3305769 C51.3234613,14.1466122 51.1734902,13.9973076 50.9901921,13.9973076" id="Fill-9"></path>
                <path d="M23.9862529,9.99807688 L25.9951998,3.99923075 L28.0034802,9.99807688 L23.9862529,9.99807688 Z M27.4582518,0.883163458 C27.4095945,0.753188458 27.2849518,0.666538459 27.1456452,0.666538459 L24.8434214,0.666538459 C24.7047814,0.666538459 24.5801387,0.753188458 24.5314814,0.883163458 L18.830578,16.213548 C18.7492603,16.4315061 18.9105626,16.6634615 19.1418514,16.6634615 L21.2761076,16.6634615 C21.4154141,16.6634615 21.5393903,16.5768115 21.5880476,16.4461699 L22.9951102,12.6642307 L28.9952894,12.6642307 L30.4016856,16.4461699 C30.4496764,16.5768115 30.5749856,16.6634615 30.7142921,16.6634615 L32.8472152,16.6634615 C33.0798371,16.6634615 33.2404729,16.4315061 33.1598217,16.213548 L27.4582518,0.883163458 Z" id="Fill-11"></path>
                <path d="M14.1841384,0.666538459 L12.0505488,0.666538459 C11.9112422,0.666538459 11.7865995,0.753188458 11.7386088,0.883163458 L7.33145647,13.3307692 L2.92497072,0.883163458 C2.87631341,0.753188458 2.75167072,0.666538459 2.61236418,0.666538459 L0.479441113,0.666538459 C0.216158422,0.666538459 0.0755188074,0.868499612 0.167501115,1.11578538 L5.86773801,16.4461699 C5.91706186,16.5768115 6.04103801,16.6634615 6.18034455,16.6634615 L8.48256839,16.6634615 C8.62187492,16.6634615 8.74651762,16.5768115 8.79517492,16.4461699 L14.4967449,1.11578538 C14.5773961,0.897827304 14.4167603,0.666538459 14.1841384,0.666538459" id="Fill-13"></path>
            </g>
        </g>
    </g>
</svg>