<svg width="287" height="48" viewBox="0 0 287 48" xmlns="http://www.w3.org/2000/svg"><title>verkkokauppa.com-logo-fin</title><g fill="none"><path d="M7.968 0h270.928c4.4 0 7.968 3.57 7.968 7.974V39.87c0 4.405-3.568 7.974-7.968 7.974H7.968c-4.4 0-7.968-3.57-7.968-7.974V7.974C0 3.57 3.567 0 7.968 0" fill="#E30613"/><path d="M13.592 35.238l-.08 1.025c-.266-.138-.668-.159-.946-.159h-.973l-1.168 4.987c-.072.306-.119.592-.094.909H8.227a3.44 3.44 0 0 0 .332-.909l1.168-4.987h-.973c-.278 0-.69.021-1.02.159l.399-1.025h5.46zM13.935 42c-.824 0-1.17-.433-.95-1.374l.94-4.015c.221-.94.77-1.373 1.593-1.373h3.752c.824 0 1.17.433.95 1.373l-.941 4.015c-.22.94-.768 1.374-1.592 1.374h-3.752zm3.002-.867c.268 0 .38-.095.451-.401l.99-4.226c.071-.307.004-.402-.264-.402h-1.846c-.268 0-.38.095-.451.402l-.99 4.226c-.072.306-.005.401.263.401h1.847zm4.264-4.987c.072-.306.12-.591.094-.908h5.142c.824 0 1.17.433.95 1.373l-.941 4.015c-.22.94-.769 1.374-1.592 1.374h-5.142c.173-.317.26-.602.332-.909l1.157-4.945zm.699 4.987h2.203c.268 0 .38-.095.452-.401l.99-4.226c.071-.307.004-.402-.264-.402h-2.203l-1.178 5.03zm4.939.867c.173-.317.26-.602.332-.909l1.158-4.945c.071-.306.118-.591.093-.908h5.212l-.082 1.025c-.265-.138-.667-.159-.945-.159h-2.402l-.48 2.05h2.094c.278 0 .69-.021 1.02-.159l-.277 1.184c-.266-.138-.668-.16-.946-.16h-2.095l-.494 2.114h2.402c.278 0 .69-.021 1.02-.158l-.4 1.024h-5.21zm10.273 0l-1.974-5.473h-.02L34.05 41.09c-.071.306-.118.592-.093.909h-1.092c.173-.317.26-.602.332-.909l1.158-4.945c.071-.306.118-.591.093-.908h2.333l1.94 5.367h.02l1.043-4.459c.072-.306.12-.591.094-.908h1.092c-.173.317-.26.602-.332.908L39.267 42h-2.155zm7.356 0l-1.974-5.473h-.02l-1.07 4.564c-.07.306-.118.592-.093.909H40.22c.174-.317.26-.602.332-.909l1.158-4.945c.072-.306.119-.591.094-.908h2.333l1.94 5.367h.019l1.044-4.459c.072-.306.119-.591.094-.908h1.092c-.174.317-.26.602-.332.908L46.622 42h-2.154zm4.808-1.923l-.645 1.014c-.158.254-.3.56-.381.909h-1.221c.32-.349.593-.708.98-1.3l3.289-5.019-.164-.443h2.074l1.059 5.483c.12.634.207 1.067.376 1.279H52.3a.796.796 0 0 0 .057-.159c.05-.211.04-.507-.043-.961l-.15-.803h-2.888zM52 39.21l-.483-2.556-1.661 2.556H52zm-1.077-4.384l.287-1.226h1.25l-.287 1.226h-1.25zm1.945 0l.287-1.226h1.25l-.286 1.226h-1.25zm4.465 4.965l-.304 1.3c-.072.306-.119.592-.094.909h-2.104c.173-.317.26-.602.332-.909l1.158-4.945c.072-.306.119-.591.094-.908h2.104c-.173.317-.26.602-.332.908l-.544 2.325 3.058-2.63c.31-.265.426-.424.469-.603h1.588c-.335.2-.851.539-1.141.803l-1.419 1.31.958 3.666c.132.497.239.719.425.983h-2.253l-.764-3.307-1.23 1.098zM63.21 42c-.824 0-1.17-.433-.95-1.374l.941-4.015c.22-.94.768-1.373 1.592-1.373h3.752c.824 0 1.17.433.95 1.373l-.94 4.015c-.221.94-.77 1.374-1.593 1.374H63.21zm3.002-.867c.268 0 .38-.095.451-.401l.99-4.226c.072-.307.005-.402-.263-.402h-1.847c-.268 0-.38.095-.451.402l-.99 4.226c-.071.306-.004.401.264.401h1.846zm-1.044-6.307l.287-1.226h1.25l-.286 1.226h-1.251zm1.946 0L67.4 33.6h1.25l-.287 1.226h-1.25zm5.839.412c-.174.317-.26.602-.332.908l-1.158 4.945c-.072.306-.119.592-.094.909h-2.104c.173-.317.26-.602.332-.909l1.158-4.945c.072-.306.119-.591.093-.908h2.105zm5.557 5.388c-.22.94-.768 1.374-1.592 1.374H72.59l.081-1.025c.266.137.668.159.946.159h2.61c.269 0 .38-.095.452-.402l.208-.887c.072-.307.005-.402-.263-.402H74.25c-.824 0-1.169-.433-.949-1.373l.342-1.459c.22-.94.768-1.373 1.592-1.373h4.338l-.082 1.025c-.265-.138-.667-.159-.945-.159h-2.62c-.269 0-.38.095-.452.402l-.154.655c-.071.306-.004.401.264.401h2.372c.824 0 1.17.433.95 1.374l-.397 1.69zM78.872 42c.174-.317.26-.602.332-.909l1.158-4.945c.072-.306.119-.591.094-.908h5.211l-.08 1.025c-.266-.138-.668-.159-.946-.159h-2.403l-.48 2.05h2.095c.278 0 .69-.021 1.02-.159l-.278 1.184c-.265-.138-.667-.16-.945-.16h-2.095l-.495 2.114h2.403c.278 0 .69-.021 1.02-.158l-.4 1.024h-5.21zm12.144-1.374c-.22.94-.768 1.374-1.592 1.374h-4.328l.081-1.025c.266.137.668.159.946.159h2.61c.269 0 .38-.095.452-.402l.208-.887c.072-.307.005-.402-.263-.402h-2.373c-.824 0-1.169-.433-.949-1.373l.342-1.459c.22-.94.768-1.373 1.592-1.373h4.338l-.081 1.025c-.266-.138-.668-.159-.946-.159h-2.62c-.269 0-.38.095-.452.402l-.153.655c-.072.306-.005.401.263.401h2.372c.824 0 1.17.433.95 1.374l-.397 1.69zm7.337-5.388l-.08 1.025c-.266-.138-.669-.159-.947-.159h-.972l-1.168 4.987c-.072.306-.12.592-.094.909h-2.104a3.4 3.4 0 0 0 .331-.909l1.168-4.987h-.972c-.278 0-.69.021-1.02.159l.399-1.025h5.46zm2.918 0c-.173.317-.26.602-.331.908l-1.158 4.945c-.072.306-.12.592-.094.909h-2.105c.174-.317.26-.602.332-.909l1.158-4.945c.072-.306.12-.591.094-.908h2.104zm4.724 4.839l-.645 1.014c-.158.254-.3.56-.381.909h-1.221c.32-.349.592-.708.979-1.3l3.29-5.019-.164-.443h2.074l1.059 5.483c.12.634.206 1.067.375 1.279h-2.342a.796.796 0 0 0 .057-.159c.05-.211.039-.507-.043-.961l-.15-.803h-2.888zm2.724-.867l-.483-2.556-1.661 2.556h2.144zm6.797-3.972c-.174.317-.26.602-.332.908l-1.158 4.945c-.072.306-.119.592-.094.909h-2.104c.173-.317.26-.602.332-.909l1.158-4.945c.072-.306.119-.591.093-.908h2.105zM119.203 42l-1.974-5.473h-.02l-1.069 4.564a2.9 2.9 0 0 0-.094.909h-1.091c.173-.317.26-.602.332-.909l1.157-4.945c.072-.306.12-.591.094-.908h2.333l1.94 5.367h.02l1.043-4.459c.072-.306.12-.591.094-.908h1.092c-.173.317-.26.602-.332.908L121.358 42h-2.155zm4.808-1.923l-.644 1.014c-.159.254-.3.56-.382.909h-1.22c.319-.349.592-.708.978-1.3l3.29-5.019-.164-.443h2.075l1.058 5.483c.12.634.207 1.067.376 1.279h-2.343a.796.796 0 0 0 .057-.159c.05-.211.04-.507-.043-.961l-.15-.803h-2.888zm2.724-.867l-.483-2.556-1.66 2.556h2.143zm9.217-.19l-.485 2.071c-.072.306-.119.592-.094.909h-2.104c.173-.317.26-.602.332-.909l1.158-4.945c.072-.306.118-.591.093-.908h2.105c-.174.317-.26.602-.332.908l-.47 2.008h2.511l.47-2.008c.072-.306.119-.591.094-.908h2.104c-.173.317-.26.602-.331.908l-1.159 4.945c-.071.306-.118.592-.093.909h-2.105c.174-.317.26-.602.332-.909l.485-2.07h-2.511zm6.353 1.057l-.644 1.014c-.159.254-.3.56-.382.909h-1.22c.32-.349.592-.708.979-1.3l3.29-5.019-.165-.443h2.075l1.058 5.483c.12.634.207 1.067.376 1.279h-2.343a.777.777 0 0 0 .057-.159c.05-.211.04-.507-.043-.961l-.15-.803h-2.888zm2.725-.867l-.484-2.556-1.66 2.556h2.144zm6.479-3.972c-.174.317-.26.602-.332.908l-1.168 4.987h2.402c.278 0 .69-.02 1.02-.158L153.032 42h-5.211c.174-.317.26-.603.332-.909l1.158-4.945c.072-.306.119-.591.094-.908h2.104zM155.167 42l-.784-5.98a2.453 2.453 0 0 0-.234-.782h2.293c-.03.084-.054.148-.079.253-.06.254-.004.57.046.994l.479 4.057 2.41-4.184c.264-.455.388-.687.438-.898.02-.085.015-.148.012-.222h1.28c-.27.264-.486.55-.731.961L156.864 42h-1.697zm4.427 0c.173-.317.26-.602.332-.909l1.158-4.945c.071-.306.118-.591.093-.908h5.212l-.081 1.025c-.266-.138-.668-.159-.946-.159h-2.402l-.48 2.05h2.094c.278 0 .69-.021 1.02-.159l-.277 1.184c-.266-.138-.668-.16-.946-.16h-2.094l-.495 2.114h2.402c.278 0 .69-.021 1.02-.158l-.399 1.024h-5.211zm10.776-1.85l2.997-4.912h2.372c-.173.317-.26.602-.332.908l-1.158 4.945a2.9 2.9 0 0 0-.094.909h-2.044c.173-.317.26-.602.332-.909l1.143-4.881h-.02l-3.53 5.79h-1.29l-.779-5.79h-.02l-1.143 4.881c-.071.306-.118.592-.093.909h-1.092c.173-.317.26-.602.332-.909l1.158-4.945c.071-.306.118-.591.093-.908h2.502l.666 4.913zm6.678.941c-.072.306-.118.592-.093.909h-2.105c.174-.317.26-.602.332-.909l1.158-4.945c.072-.306.119-.591.094-.908h4.824c1.032 0 1.43.422 1.205 1.384l-.377 1.606c-.225.961-.82 1.384-1.852 1.384h-2.84l-.346 1.48zm.55-2.345h2.074c.387 0 .514-.117.63-.613l.33-1.405c.115-.497.046-.624-.341-.624h-2.075l-.618 2.642zm8.246-3.508c-.174.317-.26.602-.332.908l-1.158 4.945a2.9 2.9 0 0 0-.094.909h-2.104c.174-.317.26-.602.332-.909l1.158-4.945c.072-.306.119-.591.094-.908h2.104zM7.364 30h178.621v1H7.364zm12.332-3.848h-9.018L8.695 8.72c-.076-.78.235 1.411-.264-1.771h8.087c-.188.39.01 2.58.131 3.54l1.312 11.583 7.383-11.582c.6-.96 1.899-3.05 2.184-3.541h4.93c-.758.63-1.603 1.62-2.787 3.48l-9.975 15.723zm27.146-5.52H34.998l-.328 1.32c-.224 1.02.12 1.44 1.26 1.44h6.806c1.348 0 1.896-.02 3.12-.02l-1.283 2.78H30.624c-3.179 0-3.749-1.32-3.015-4.261l1.39-5.58c.733-2.94 1.96-4.262 5.14-4.262h10.763c3.179 0 3.75 1.321 3.016 4.262l-1.076 4.32zM35.686 17.87h4.948l.478-1.92c.202-.81.045-1.14-.735-1.14h-2.909c-.78 0-1.102.33-1.303 1.14l-.479 1.92zm15.707-5.821h6.734l-.328 2.28h.059c1.109-1.68 2.007-2.28 4.197-2.28h3.447L64.454 16c0 .036-1.1-.02-3.199-.02-2.789 0-3.448.481-3.927 2.4l-1.13 4.531c-.485 1.95-.267 2.521-.027 3.241h-7.955c.318-.755.42-1.29.908-3.24l1.898-7.622c.487-1.95.424-2.481.37-3.24zm22.065 7.531l-1.44.96-.59 2.37c-.486 1.951-.268 2.521-.027 3.242h-8.636c.599-.72 1.102-1.291 1.587-3.242l3.17-12.722c.486-1.95.597-2.713.577-3.24h7.307L72.901 17l4.068-2.73c1.446-.99 2.18-1.532 2.967-2.221h5.473l-.015.06c-.682.21-1.402.45-2.008.84l-3.687 2.4 2.644 7.922c.503 1.47.698 1.993 1.066 2.88h-8.321l-1.63-6.57zm21.11 0l-1.44.96-.59 2.37c-.487 1.951-.269 2.521-.028 3.242h-8.636c.6-.72 1.102-1.291 1.588-3.242l3.17-12.722c.486-1.95.617-2.341.617-3.24h7.267L94.01 17l4.068-2.73c1.446-.99 1.989-1.46 2.917-2.221h5.522l-.014.06c-.683.21-1.402.45-2.01.84l-3.686 2.4 2.644 7.922c.503 1.47.697 2.03 1.018 2.88h-8.272l-1.63-6.57zm32.508-3.27l-1.39 5.58c-.733 2.941-1.962 4.261-5.14 4.261h-11.034c-3.178 0-3.749-1.32-3.016-4.261l1.392-5.58c.731-2.94 1.96-4.262 5.139-4.262h11.034c3.177 0 3.748 1.321 3.015 4.262zm-12.023-.36l-1.57 6.3c-.203.811-.046 1.14.735 1.14h2.937c.841 0 1.163-.329 1.364-1.14l1.571-6.3c.202-.81.044-1.14-.795-1.14h-2.938c-.78 0-1.103.33-1.304 1.14zm21.734 3.63l-1.438.96-.59 2.37c-.487 1.951-.268 2.521-.029 3.242h-8.634c.599-.72 1.1-1.291 1.585-3.242l3.171-12.722c.487-1.95.532-2.343.532-3.24h7.352L136.231 17l4.07-2.73c1.444-.99 2.08-1.46 2.83-2.221h5.607l-.015.06c-.682.21-1.4.45-2.008.84l-3.687 2.4 2.644 7.922c.502 1.47.671 1.958 1.063 2.88h-8.317l-1.63-6.57zm15.86-7.531h12.583c3.388 0 4.379 1.44 3.414 5.31l-1.532 6.152c-.36 1.44-.246 2.07.031 2.64h-7.076l.03-1.56h-.06c-.674 1.26-1.35 1.56-3.268 1.56h-5.037c-3.178 0-3.75-1.32-3.016-4.26l.254-1.021c.733-2.94 1.962-4.26 5.14-4.26h6.446c.99 0 1.259-.24 1.424-.9.157-.63.014-.9-.975-.9h-9.688l1.33-2.761zm8.42 7.321h-3.148c-1.087.03-1.544.18-1.798 1.2l-.404 1.62c-.254 1.02.128 1.17 1.2 1.2h1.65c1.348 0 1.55-.21 2-2.01l.5-2.01zm27.876 6.781h-7.316l.157-1.47h-.06c-.51.72-1.146 1.47-2.195 1.47h-5.727c-3.33 0-4.214-1.98-3.43-5.13l1.428-5.732c.487-1.95.53-2.481.424-3.24h7.461L177.15 22.22c-.218.871.008 1.17.877 1.17h2.578c.87 0 1.245-.299 1.462-1.17l1.726-6.93c.487-1.951.568-2.338.746-3.242h7.139l-2.707 10.862c-.486 1.95-.27 2.521-.028 3.241zm4.862-14.102h6.663l.014 1.5c.764-1.02 1.245-1.5 2.233-1.5h5.967c3.239 0 3.989 1.8 3.346 4.381l-1.33 5.34c-.644 2.581-2.292 4.382-5.53 4.382h-5.547c-1.29 0-1.447-.811-1.486-1.381h-.059l-1.017 4.081c-.36 1.44-.923 3.592-1.101 4.128h-7.09l4.644-18.29c.359-1.441.398-1.934.293-2.641zm6.484 3.84l-1.6 6.422c-.194.78.03 1.08.72 1.08h2.818c.69 0 1.065-.3 1.26-1.08l1.6-6.422c.194-.78-.03-1.08-.721-1.08h-2.819c-.69 0-1.063.3-1.258 1.08zm14.569-3.84h6.718l.016 1.5c.764-1.02 1.244-1.5 2.233-1.5h5.967c3.238 0 3.988 1.8 3.346 4.381l-1.33 5.34c-.645 2.581-2.292 4.382-5.53 4.382h-5.547c-1.29 0-1.448-.811-1.486-1.381h-.06l-1.016 4.081c-.36 1.44-.812 3.287-1.06 4.001h-6.97l4.483-18.163c.359-1.441.394-1.934.236-2.641zm6.54 3.84l-1.6 6.422c-.194.78.032 1.08.721 1.08h2.818c.69 0 1.065-.3 1.259-1.08l1.6-6.422c.194-.78-.03-1.08-.72-1.08h-2.818c-.69 0-1.065.3-1.26 1.08zm16.254-3.84h12.56c3.388 0 4.378 1.44 3.414 5.31l-1.533 6.152c-.359 1.44-.247 2.07.032 2.64h-7.078l.03-1.56h-.06c-.674 1.26-1.347 1.56-3.267 1.56h-5.037c-3.178 0-3.749-1.32-3.016-4.26l.254-1.021c.733-2.94 1.962-4.26 5.14-4.26h6.446c.99 0 1.26-.24 1.424-.9.157-.63.014-.9-.975-.9h-9.699l1.365-2.761zm8.397 7.321H242.9c-1.086.03-1.544.18-1.798 1.2l-.404 1.62c-.254 1.02.128 1.17 1.201 1.2h1.649c1.349 0 1.551-.21 2-2.01l.501-2.01zM208.09 42.373l1.257-5.041h7.076l-1.257 5.04h-7.076zm19.433-8.767l-1.257 5.048c-.2.902.106 1.275 1.115 1.275h3.052c2.071 0 2.576-.033 3.314-.243l-1.056 2.686H223c-2.865 0-3.53-1.593-2.961-3.878l1.179-4.728c.568-2.285 2.027-3.879 4.894-3.879h10.061l-.527 2.776c-.528-.212-1.277-.332-2.79-.332h-3.584c-1.008 0-1.499.373-1.75 1.275zm26.452.053l-1.23 4.941c-.649 2.604-1.737 3.772-4.55 3.772h-9.769c-2.814 0-3.319-1.168-2.67-3.772l1.23-4.94c.649-2.604 1.737-3.773 4.55-3.773h9.77c2.814 0 3.319 1.169 2.67 3.772zm-10.644-.318l-1.39 5.578c-.179.717-.038 1.01.65 1.01h2.603c.743 0 1.028-.293 1.206-1.01l1.391-5.578c.178-.718.039-1.01-.704-1.01h-2.603c-.689 0-.975.292-1.153 1.01zm13.317-3.454h5.437l-.218 1.514h.054c.464-.796.934-1.514 1.996-1.514h5.6c1.54 0 1.72.346 1.84 1.355h.053c.232-.505.683-1.355 1.744-1.355h4.3c2.071 0 3.65.584 2.578 4.888l-1.177 4.729c-.43 1.726-.238 2.23-.025 2.869h-6.775c.37-.628.636-1.143 1.066-2.87l1.562-6.268c.16-.639-.067-.904-.544-.904h-2.072c-.477 0-.836.265-.994.904l-1.562 6.269c-.43 1.726-.237 2.23-.025 2.869h-6.77c.475-.681.631-1.143 1.06-2.87l1.563-6.268c.159-.639-.067-.904-.546-.904h-2.07c-.478 0-.835.265-.994.904l-1.562 6.269c-.43 1.726-.237 2.23-.025 2.869h-6.766c.474-.628.627-1.143 1.057-2.87l1.682-6.747c.43-1.727.48-2.153.533-2.869z" fill="#FFF"/></g></svg>