<?xml version="1.0" encoding="utf-8"?>
<svg version="1.1" id="Layer_1" xmlns="http://www.w3.org/2000/svg" xmlns:xlink="http://www.w3.org/1999/xlink" x="0px" y="0px"
	 viewBox="0 0 1059.3 292.5" style="enable-background:new 0 0 1059.3 292.5;" xml:space="preserve">
<path fill="#F04E30" d="M282,251.5h52.7V42.4H282V251.5z M1012.2,93.7l0-51.3l-158.1,0l0,51.3l52.7,0l0,157.8l52.7,0l0-157.8
	L1012.2,93.7z M156.8,147.2L104.1,42.4H44.8l112.2,212l111.8-212h-59.3L156.8,147.2z M779.3,42.4l0,209.1l52.7,0l0-209.1L779.3,42.4
	z M482.6,147L364,39.6v211.9h52.8l0-92.6l118.6,103.9V42.4h-52.7L482.6,147z M663.5,202.7c-30.4,0-55-25-55-55.9s24.6-55.9,55-55.9
	c16.9,0,32.1,7.8,42.1,20l38.7-35.5c-19.8-22-48.5-35.8-80.5-35.8c-59.7,0-108.1,48.1-108.1,107.4s48.4,107.4,108.1,107.4
	c39.5,0,74.1-21.1,92.9-52.5l-45.4-27.6C701.9,191.2,684,202.7,663.5,202.7z M714.7,124c-0.5,0.1-0.8,0.6-0.6,1
	c2.8,6.7,4.4,14,4.4,21.8c0,3.9-0.4,7.6-1.2,11.3c-0.1,0.5,0.4,1,0.9,0.9c4.9-0.7,8.1-1.4,10.1-2.1c18.3-6.7,19.1-25.7,18.6-33
	c-0.1-1.6-1.5-2.8-3.2-2.7L714.7,124z M677,128.3c0,3.8,3,6.9,6.8,6.9c3.8,0,6.8-3.1,6.8-6.9c0-3.8-3-6.9-6.8-6.9
	C680.1,121.3,677,124.4,677,128.3z"/>
</svg>
