<?xml version="1.0" encoding="utf-8"?><!DOCTYPE svg PUBLIC "-//W3C//DTD SVG 1.1//EN" "http://www.w3.org/Graphics/SVG/1.1/DTD/svg11.dtd"><svg version="1.1" id="Ebene_1" xmlns="http://www.w3.org/2000/svg" xmlns:xlink="http://www.w3.org/1999/xlink" x="0px" y="0px"  width="225px" height="120px" viewBox="-1389 943.9 225 120" style="enable-background:new -1389 943.9 225 120;"  xml:space="preserve"><style type="text/css"> .st0{fill:#010202;}</style><g> <path class="st0" d="M-1210.9,1042.3c0,1.9,1.4,3.3,3.3,3.3s3.3-1.4,3.3-3.3s-1.4-3.3-3.3-3.3S-1210.9,1040.4-1210.9,1042.3   M-1207.6,1039.7c1.5,0,2.5,1.2,2.5,2.6c0,1.5-1,2.6-2.5,2.6s-2.5-1.2-2.5-2.6C-1210.1,1040.8-1209.1,1039.7-1207.6,1039.7   M-1207.6,1001.8v6.3h1.4v-2.5h0.7l1.3,2.5h1.7l-1.6-2.7c0.9-0.2,1.4-0.8,1.4-1.7c0-1.5-1.1-1.9-2.4-1.9H-1207.6z M-1204.2,1003.7  c0,0.7-0.7,0.7-1.2,0.7h-0.8v-1.5h0.9C-1204.8,1002.9-1204.2,1003-1204.2,1003.7 M-1223.6,1026.7h-0.7v6.3h0.7V1026.7z   M-1223.7,1008.1h1.4v-6.3h-1.4V1008.1z M-1205.5,1028.4c0-1.6-1.3-1.7-2.5-1.7h-1.6v6.3h0.7v-2.8h1l1.7,2.8h0.9l-1.8-2.9  C-1206.1,1029.9-1205.5,1029.3-1205.5,1028.4 M-1208.2,1029.5h-0.7v-2.1h1c0.7,0,1.5,0.1,1.5,1  C-1206.3,1029.5-1207.4,1029.5-1208.2,1029.5 M-1204.9,1014.2l-2,5.2l0,0l-1.9-5.2h-0.8l2.4,6.3h0.7l2.5-6.3H-1204.9z   M-1200.6,992.9h2.7v2.7h1.4v-6.3h-1.4v2.3h-2.7v-2.3h-1.4v6.3h1.4V992.9z M-1202.8,1020.5h0.7v-6.3h-0.7V1020.5z M-1205.6,995.8  c0.9,0,1.8-0.3,2.3-1.1l-1.2-0.9c-0.3,0.4-0.7,0.7-1.3,0.7c-1,0-1.8-0.9-1.8-2c0-1.2,0.8-2,1.8-2c0.5,0,0.9,0.2,1.2,0.5l1.1-0.9  c-0.5-0.7-1.4-0.9-2.1-0.9c-2,0-3.4,1.3-3.4,3.3C-1208.9,994.5-1207.5,995.8-1205.6,995.8 M-1199.6,1006.9c-0.5,0-0.9-0.2-1.2-0.6  l-1,1.1c0.6,0.6,1.3,0.8,2.1,0.8c1.3,0,2.4-0.7,2.4-2.1c0-2.2-2.9-1.5-2.9-2.6c0-0.5,0.5-0.6,0.9-0.6c0.3,0,0.8,0.1,1,0.4l0.9-1  c-0.5-0.5-1.2-0.7-1.9-0.7c-1.2,0-2.4,0.7-2.4,2.1c0,2.1,3,1.5,3,2.6C-1198.6,1006.7-1199.1,1006.9-1199.6,1006.9 M-1209.4,1003.1  v-1.3h-4.3v6.3h4.4v-1.3h-3.1v-1.3h2.7v-1.3h-2.7v-1.2L-1209.4,1003.1L-1209.4,1003.1z M-1221.5,1019.2h-3.1v-1.3h2.7v-1.3h-2.7  v-1.2h2.9v-1.3h-4.3v6.3h4.4L-1221.5,1019.2L-1221.5,1019.2z M-1202.1,1033.1c1.1,0,2.2-0.6,2.2-1.8c0-1.2-0.9-1.6-1.9-1.9  s-1.3-0.6-1.3-1.2c0-0.8,0.7-1.1,1.3-1.1c0.5,0,0.9,0.2,1.2,0.6l0.6-0.5c-0.5-0.5-1.1-0.7-1.8-0.7c-1.1,0-2.1,0.6-2.1,1.8  c0,1.1,0.7,1.4,1.6,1.7c1.1,0.4,1.6,0.5,1.6,1.3c0,0.7-0.7,1.1-1.4,1.1c-0.5,0-1.1-0.2-1.3-0.7l-0.6,0.5  C-1203.7,1032.9-1202.9,1033.1-1202.1,1033.1 M-1194.3,1001.8h-1.4v6.3h1.4V1001.8z M-1188.8,1014.2h-0.7v5.2l0,0l-3.6-5.2h-0.9  v6.3h0.7v-5.2l0,0l3.6,5.2h0.9V1014.2z M-1187.4,1033v-2.7l2.3-3.6h-0.9l-1.8,2.8l-1.8-2.8h-0.9l2.3,3.6v2.7H-1187.4z   M-1186.8,1008.1l0.5-1.3h2.4l0.5,1.3h1.6l-2.7-6.3h-1.1l-2.7,6.3H-1186.8z M-1185.1,1003.6l0.8,2h-1.5L-1185.1,1003.6z   M-1185.2,1000.6c0-0.4-0.4-0.7-0.8-0.7s-0.7,0.3-0.7,0.7c0,0.4,0.3,0.8,0.7,0.8C-1185.5,1001.4-1185.2,1001-1185.2,1000.6   M-1177.2,1014.2l-2.8,6.3h0.8l0.6-1.5h3.1l0.6,1.5h0.9l-2.7-6.3H-1177.2z M-1178.2,1018.3l1.3-3.1l0,0l1.2,3.1H-1178.2z   M-1174.4,994.5c-0.5,0-0.9-0.2-1.2-0.6l-1,1.1c0.6,0.6,1.3,0.8,2.1,0.8c1.3,0,2.4-0.7,2.4-2.1c0-2.2-2.9-1.5-2.9-2.6  c0-0.5,0.5-0.7,0.9-0.7c0.3,0,0.8,0.1,1,0.4l1-1c-0.5-0.5-1.2-0.7-1.9-0.7c-1.2,0-2.4,0.7-2.4,2c0,2.1,3,1.5,3,2.6  C-1173.4,994.3-1173.9,994.5-1174.4,994.5 M-1183.4,1000.6c0-0.4-0.4-0.7-0.8-0.7c-0.4,0-0.7,0.3-0.7,0.7c0,0.4,0.3,0.8,0.7,0.8  C-1183.7,1001.4-1183.4,1001-1183.4,1000.6 M-1182,1003h1.8v5.1h1.4v-5.1h1.8v-1.2h-5V1003z M-1180.6,995.6h1.4v-5.1h1.8v-1.2h-5  v1.2h1.8V995.6z M-1219.1,1033l2.5-6.3h-0.8l-2,5.2l0,0l-1.9-5.2h-0.8l2.4,6.3H-1219.1z M-1193.3,994.3h2.4l0.5,1.3h1.6l-2.7-6.3  h-1.1l-2.7,6.3h1.5L-1193.3,994.3z M-1192.1,991.2l0.8,2h-1.5L-1192.1,991.2z M-1196,1014.9v-0.7h-4v6.3h4.1v-0.7h-3.4v-2.2h3v-0.7  h-3v-2H-1196z M-1186.1,993.2h2.6v-1.3h-2.6v-1.3h2.8v-1.3h-4.2v6.3h1.4V993.2z M-1197.4,1026.7h-0.7v6.3h0.7V1026.7z   M-1181.4,1020.5v-6.3h-0.7v5.2l0,0l-3.6-5.2h-0.9v6.3h0.7v-5.2l0,0l3.6,5.2H-1181.4z M-1193.1,1003h1.8v5.1h1.4v-5.1h1.8v-1.2h-5  V1003z M-1211.2,1054.6L-1211.2,1054.6c0.7-0.2,1.1-0.7,1.1-1.4c0-1.2-1-1.5-2.1-1.5h-1.9v6.3h1.9c1.2,0,2.5-0.4,2.5-1.8  C-1209.8,1055.3-1210.4,1054.6-1211.2,1054.6 M-1213.4,1052.3h1.1c0.7,0,1.4,0.2,1.4,1c0,0.9-0.7,1-1.4,1h-1L-1213.4,1052.3  L-1213.4,1052.3z M-1212.1,1057.2h-1.3v-2.3h1.3c0.8,0,1.5,0.3,1.5,1.1C-1210.6,1056.9-1211.4,1057.2-1212.1,1057.2   M-1195.9,1057.9h0.7v-6.3h-0.7V1057.9z M-1191.1,1026.7h-4.9v0.7h2.1v5.6h0.7v-5.6h2.1V1026.7L-1191.1,1026.7z M-1199.6,1054.3  c-1-0.3-1.3-0.6-1.3-1.2c0-0.8,0.7-1.1,1.3-1.1c0.5,0,0.9,0.2,1.1,0.6l0.6-0.5c-0.5-0.5-1.1-0.7-1.8-0.7c-1.1,0-2.1,0.6-2.1,1.8  c0,1.1,0.7,1.4,1.6,1.7c1.1,0.4,1.6,0.5,1.6,1.3c0,0.7-0.7,1.1-1.4,1.1c-0.5,0-1.1-0.2-1.3-0.7l-0.6,0.5c0.4,0.6,1.2,0.9,1.9,0.9  c1.1,0,2.2-0.6,2.2-1.8C-1197.7,1055-1198.6,1054.6-1199.6,1054.3 M-1194.1,1045.4h0.7v-6.3h-0.7V1045.4z M-1199.6,1044.1  L-1199.6,1044.1l-2.2-4.9h-1.1v6.3h0.7v-5.3l0,0l2.3,5.3h0.5l2.3-5.3l0,0v5.3h0.7v-6.3h-1.1L-1199.6,1044.1z M-1222,1051.6h-2.4  v6.3h2.4c1.2,0,3.1-0.8,3.1-3.1C-1218.9,1052.4-1220.7,1051.6-1222,1051.6 M-1222.2,1057.2h-1.4v-4.9h1.4c1.4,0,2.5,0.7,2.5,2.5  C-1219.7,1056.4-1220.8,1057.2-1222.2,1057.2 M-1219.7,1042.3c0-1.9-1.4-3.3-3.3-3.3s-3.3,1.4-3.3,3.3s1.4,3.3,3.3,3.3  S-1219.7,1044.2-1219.7,1042.3 M-1225.5,1042.3c0-1.5,1-2.6,2.5-2.6s2.5,1.2,2.5,2.6c0,1.5-1,2.6-2.5,2.6  S-1225.5,1043.7-1225.5,1042.3 M-1212.7,1045.4v-6.3h-0.7v5.2l0,0l-3.6-5.2h-1v6.3h0.7v-5.2l0,0l3.6,5.2H-1212.7z M-1204.3,1055.4  c0,1-0.4,2-1.6,2c-1.3,0-1.6-1-1.6-2v-3.8h-0.7v3.9c0,1.4,0.6,2.6,2.4,2.6c1.7,0,2.4-1.2,2.4-2.6v-3.9h-0.7v3.8H-1204.3z   M-1169,1027.4v-0.7h-3.9v6.3h0.7v-2.8h2.9v-0.7h-2.9v-2.1C-1172.2,1027.4-1169,1027.4-1169,1027.4z M-1213.9,1020.5v-6.3h-1.4v4.4  l0,0l-2.7-4.4h-1.9v6.3h1.4v-4.5l0,0l2.7,4.5H-1213.9z M-1177.9,1026.5c-1.9,0-3.3,1.4-3.3,3.3s1.4,3.3,3.3,3.3s3.3-1.4,3.3-3.3  S-1176,1026.5-1177.9,1026.5 M-1177.9,1032.4c-1.5,0-2.5-1.2-2.5-2.6c0-1.5,1-2.6,2.5-2.6s2.5,1.2,2.5,2.6  C-1175.4,1031.3-1176.4,1032.4-1177.9,1032.4 M-1177.9,1054.3c-1-0.3-1.3-0.6-1.3-1.2c0-0.8,0.7-1.1,1.3-1.1c0.5,0,0.9,0.2,1.1,0.6  l0.6-0.5c-0.5-0.5-1.1-0.7-1.8-0.7c-1.1,0-2.1,0.6-2.1,1.8c0,1.1,0.7,1.4,1.6,1.7c1.1,0.4,1.6,0.5,1.6,1.3c0,0.7-0.7,1.1-1.4,1.1  c-0.5,0-1.1-0.2-1.3-0.7l-0.6,0.5c0.4,0.6,1.2,0.9,1.9,0.9c1.1,0,2.2-0.6,2.2-1.8C-1176.1,1055-1177,1054.6-1177.9,1054.3   M-1227.1,1056.8L-1227.1,1056.8l-3.7-5.2h-0.9v6.3h0.7v-5.2l0,0l3.6,5.2h0.9v-6.3h-0.7L-1227.1,1056.8L-1227.1,1056.8z   M-1182.8,1041.9c-1-0.3-1.3-0.6-1.3-1.2c0-0.7,0.7-1.1,1.3-1.1c0.5,0,0.9,0.2,1.1,0.6l0.6-0.5c-0.5-0.5-1.1-0.7-1.8-0.7  c-1.1,0-2.1,0.6-2.1,1.8c0,1.1,0.7,1.4,1.6,1.7c1.1,0.4,1.6,0.5,1.6,1.3c0,0.7-0.7,1.1-1.4,1.1c-0.5,0-1.1-0.2-1.3-0.7l-0.6,0.5  c0.4,0.6,1.2,0.9,1.9,0.9c1.1,0,2.2-0.6,2.2-1.8C-1180.9,1042.5-1181.8,1042.2-1182.8,1041.9 M-1188.5,1056.8L-1188.5,1056.8  l-3.7-5.2h-0.9v6.3h0.7v-5.2l0,0l3.7,5.2h0.9v-6.3h-0.7V1056.8z M-1188.5,1044.9c-1.4,0-2.4-1.2-2.4-2.6s1-2.6,2.4-2.6  c0.6,0,1.2,0.3,1.6,0.8l0.6-0.5c-0.5-0.7-1.4-1-2.2-1c-1.9,0-3.2,1.5-3.2,3.3c0,1.9,1.4,3.3,3.2,3.3c1,0,1.8-0.3,2.4-1.1l-0.6-0.5  C-1187.2,1044.6-1187.8,1044.9-1188.5,1044.9 M-1184.9,1054.9h3v-0.7h-3v-2h3.2v-0.7h-4v6.3h4.1v-0.7h-3.4L-1184.9,1054.9  L-1184.9,1054.9z M-1172.5,1054.3c-1-0.3-1.3-0.6-1.3-1.2c0-0.8,0.7-1.1,1.3-1.1c0.5,0,0.9,0.2,1.1,0.6l0.6-0.5  c-0.5-0.5-1.1-0.7-1.8-0.7c-1.1,0-2.1,0.6-2.1,1.8c0,1.1,0.7,1.4,1.6,1.7c1.1,0.4,1.6,0.5,1.6,1.3c0,0.7-0.7,1.1-1.4,1.1  c-0.5,0-1.1-0.2-1.3-0.7l-0.6,0.5c0.4,0.6,1.2,0.9,1.9,0.9c1.1,0,2.2-0.6,2.2-1.8C-1170.6,1055-1171.5,1054.6-1172.5,1054.3   M-1224.6,993.1h0.7l1.3,2.5h1.7l-1.6-2.7c0.9-0.2,1.4-0.8,1.4-1.7c0-1.5-1.1-1.9-2.4-1.9h-2.5v6.3h1.4V993.1z M-1224.6,990.5h0.9  c0.5,0,1.1,0.1,1.1,0.7c0,0.7-0.7,0.7-1.2,0.7h-0.8V990.5z M-1227.5,1044.5l-0.6-0.5c-0.4,0.6-1.1,0.9-1.8,0.9  c-1.4,0-2.4-1.2-2.4-2.6s1-2.6,2.4-2.6c0.6,0,1.2,0.3,1.6,0.8l0.6-0.5c-0.5-0.7-1.4-1-2.2-1c-1.9,0-3.2,1.5-3.2,3.3  c0,1.9,1.4,3.3,3.2,3.3C-1228.9,1045.6-1228.1,1045.2-1227.5,1044.5 M-1231.5,1001.8v6.3h1.4v-4.5l0,0l2.7,4.5h1.8v-6.3h-1.4v4.4  l0,0l-2.7-4.4C-1229.7,1001.8-1231.5,1001.8-1231.5,1001.8z M-1231.8,1026.7v6.3h0.7v-5.2l0,0l3.6,5.2h0.9v-6.3h-0.7v5.2l0,0  l-3.6-5.2H-1231.8z M-1212.5,994.5c-0.5,0-0.9-0.2-1.2-0.6l-1,1.1c0.6,0.6,1.3,0.8,2.1,0.8c1.3,0,2.4-0.7,2.4-2.1  c0-2.2-2.9-1.5-2.9-2.6c0-0.5,0.5-0.7,0.9-0.7c0.3,0,0.8,0.1,1,0.4l1-1c-0.5-0.5-1.2-0.7-1.9-0.7c-1.2,0-2.4,0.7-2.4,2  c0,2.1,3,1.5,3,2.6C-1211.6,994.3-1212.1,994.5-1212.5,994.5 M-1218,1005.9L-1218,1005.9l-1.6-4.1h-1.6l2.5,6.3h1.1l2.6-6.3h-1.5  L-1218,1005.9z M-1211.3,1032.3h-3.4v-2.2h3v-0.7h-3v-2h3.2v-0.7h-4v6.3h4.1L-1211.3,1032.3L-1211.3,1032.3z M-1229.2,1020.5h1.4  v-6.3h-1.4V1020.5z M-1218.7,995.6h1.4v-5.1h1.8v-1.2h-5v1.2h1.8V995.6z M-1238.6,1001.8v3.9c0,1.5,0.9,2.6,2.7,2.6  c1.7,0,2.7-1.1,2.7-2.6v-3.9h-1.4v3.8c0,0.8-0.5,1.4-1.3,1.4c-0.7,0-1.3-0.6-1.3-1.4v-3.8H-1238.6z M-1234.5,1039.8v-0.7h-4v6.3  h4.1v-0.7h-3.4v-2.2h3v-0.7h-3v-2H-1234.5L-1234.5,1039.8z M-1236.4,1051.6l-2.8,6.3h0.8l0.6-1.5h3.1l0.6,1.5h0.9l-2.7-6.3H-1236.4  z M-1237.4,1055.6l1.3-3.1l0,0l1.2,3.1H-1237.4z M-1236.2,1020.5l1.4-4.4l0,0l1.4,4.4h1.2l1.8-6.3h-1.4l-1.1,4.1l0,0l-1.3-4.1h-1.3  l-1.3,4l0,0l-1-4h-1.5l1.9,6.3H-1236.2z M-1233.8,1030.6v-3.9h-0.7v3.8c0,1-0.4,2-1.6,2c-1.3,0-1.6-1-1.6-2v-3.8h-0.7v3.9  c0,1.4,0.6,2.6,2.4,2.6C-1234.4,1033.1-1233.8,1031.9-1233.8,1030.6 M-1227.8,989.3h-1.4v6.3h1.4V989.3z M-1230.3,989.3h-1.4  l-1.1,4.1l0,0l-1.3-4.1h-1.3l-1.3,4l0,0l-1-4h-1.5l1.9,6.3h1.2l1.4-4.4l0,0l1.4,4.4h1.2L-1230.3,989.3z M-1230.2,946.4l0.7-2.5  h-16.8l-0.7,2.5h6.2c0,0-11.6,34-15.7,46c-5.3,15.2-14.1,18-20.8,18c-7.8,0-12.2-3.9-12.2-10.6c0-4.5,1.8-9.4,2.9-12.9  c5.1-15.3,13.9-40.5,13.9-40.5h5.5l0.7-2.5h-30l-0.7,2.5h6.2l-13,36.7c-1.9,5.4-2.4,8.1-2.4,11.6l-15.7-48.3h6.2l-0.7-2.5h-30  l0.7,2.5h5.5l5.9,18.1l-10.2,30l-19.3-48.1h6.2l-0.7-2.5h-30.5l0.7,2.5h5.4l27.5,67.3h9.4l14.2-41.3l13.5,41.3h9.3l4.1-10.9  c3.4,8.3,12,12.7,24,12.7c20.2,0,25.4-11.3,30.3-25.4c4.3-12.4,14.8-43.7,14.8-43.7S-1230.2,946.4-1230.2,946.4z"/></g></svg>