<svg width="165" height="60" viewBox="0 0 165 60" version="1.1" xmlns="http://www.w3.org/2000/svg" xmlns:xlink="http://www.w3.org/1999/xlink"><title>logo</title><desc>Created with Sketch.</desc><g id="Page-1" stroke="none" stroke-width="1" fill="none" fill-rule="evenodd"><g id="logo" fill-rule="nonzero"><g id="Group"><path d="M135.32867,8.18553514 C135.295523,8.57354542 135.279503,8.96045808 135.279503,9.34572429 C135.282265,12.6517695 136.492118,15.8639677 138.938341,18.2968525 C140.998959,20.3400807 143.613678,21.5150878 146.370376,21.8372406 C144.318597,19.1206198 143.133604,15.831039 143.133604,12.3795586 C143.133604,11.6062821 143.196582,10.8269687 143.316464,10.0465576 C141.269105,8.77276428 138.906853,8.13778847 136.498748,8.13559322 C136.109274,8.13559322 135.718696,8.1526064 135.32867,8.18553514" id="Fill-1" fill="#74D63A"/><path d="M145.740641,9.97027267 C145.596454,10.7847101 145.52795,11.5958546 145.52795,12.398767 C145.52795,15.7772554 146.769846,18.9960394 148.916644,21.602349 C148.894547,21.2818426 148.882393,20.961885 148.882393,20.643025 C148.882393,17.026901 150.22207,13.4678533 152.925732,10.7830636 C153.972062,9.74196676 155.150979,8.9077721 156.414971,8.27334511 C156.168029,5.2252417 154.923923,2.35056299 152.926837,0 C149.219936,2.11512252 146.508539,5.64672954 145.740641,9.97027267" id="Fill-3" fill="#74D63A"/><path d="M159.452749,27.2518225 C156.777814,24.8584522 153.24659,23.3898305 149.362354,23.3898305 C141.015472,23.3898305 134.254658,30.1100369 134.254658,38.400944 C134.254658,41.7953479 135.401533,44.9186386 137.315752,47.4327476 C137.70854,47.9480824 138.119006,48.4464039 138.573116,48.9068574 L149.359591,59.6306493 L160.148277,48.9068574 C162.82045,46.1990176 164.470049,42.4912419 164.470049,38.400944 C164.470049,33.9692848 162.526549,29.9991768 159.452749,27.2518225" id="Fill-7" fill="#FF9600"/><path d="M164.490352,8.18553515 C164.101432,8.1526064 163.709748,8.13559322 163.32359,8.13559322 C159.995112,8.13669084 156.761103,9.34078499 154.313223,11.773121 C151.866447,14.2049082 150.652174,17.4160089 150.652174,20.7209564 C150.652174,21.1073202 150.667643,21.4958793 150.701342,21.8833408 C151.093025,21.9173672 151.484708,21.9332828 151.873077,21.9327339 C155.198791,21.9310875 158.431143,20.7269933 160.879576,18.2968526 C163.327456,15.8639677 164.53952,12.6517695 164.53952,9.34682193 C164.53952,8.95936045 164.524052,8.57299661 164.490352,8.18553515" id="Fill-5" fill="#74D63A"/><path d="M13.6348785,39.6516871 L10.2053041,51.3913306 C9.91637574,52.4170607 8.96617149,53.1557621 7.89166727,53.1557621 C6.81771549,53.1557621 5.90839212,52.4582216 5.57803041,51.4736524 L0.0828666496,34.2755221 C0,34.0702663 0,33.8650105 0,33.6597547 C0,32.5517027 0.867890044,31.5254237 2.10757513,31.5254237 C3.01634605,31.5254237 3.92511697,32.1000302 4.17316448,33.0028264 L7.85023395,45.4806224 L11.3212417,33.290404 C11.6101701,32.2641251 12.5603743,31.5254237 13.6348785,31.5254237 C14.7088303,31.5254237 15.7004679,32.4699297 15.9070821,33.208631 L19.3780898,45.4806224 L23.0551593,33.0028264 C23.3026544,32.1000302 24.2119777,31.5254237 25.1207486,31.5254237 C26.2366862,31.5254237 27.2277713,32.4287687 27.2277713,33.6597547 C27.2277713,33.8650105 27.2277713,34.0702663 27.1454571,34.2755221 L21.6502933,51.4319427 C21.3199317,52.4582216 20.4106083,53.1557621 19.3780898,53.1557621 C18.3035856,53.1557621 17.3533814,52.4170607 17.0644529,51.4319427 L13.6348785,39.6516871 Z" id="Fill-10" fill="#FFF"/><path d="M42.0328237,33.6597547 C42.0328237,32.4699297 42.942147,31.5254237 44.1398464,31.5254237 C45.3380981,31.5254237 46.2883024,32.4699297 46.2883024,33.6597547 L46.2883024,49.5851894 C46.2883024,50.7344023 45.5447123,51.7195203 44.4707605,52.0883222 C42.4460521,52.7864114 40.2561628,53.1557621 37.9839593,53.1557621 C35.5874557,53.1557621 33.4389997,52.4582217 31.9103862,50.9391093 C30.4226537,49.4611578 29.7204969,47.3273757 29.7204969,44.9054671 L29.7204969,33.6597547 C29.7204969,32.4699297 30.6707011,31.5254237 31.8689529,31.5254237 C33.0257714,31.5254237 33.9759756,32.4699297 33.9759756,33.6597547 L33.9759756,45.2342056 C33.9759756,47.7784993 35.4637082,49.2152899 37.9839593,49.2152899 C39.3888251,49.2152899 40.7522577,49.051195 42.0328237,48.7230053 L42.0328237,33.6597547 Z" id="Fill-13" fill="#FFF"/><path d="M62.5297182,39.4052704 C62.5297182,36.9015888 61.0419855,35.4241861 58.4803012,35.4241861 C57.1174211,35.4241861 55.7534359,35.6294419 54.4734224,35.9581805 L54.4734224,51.0208822 C54.4734224,52.2118049 53.5226658,53.1557621 52.3663998,53.1557621 C51.1675956,53.1557621 50.2173913,52.2118049 50.2173913,51.0208822 L50.2173913,35.0959964 C50.2173913,33.9462347 50.9201005,32.9611166 52.0349331,32.5923147 C54.0596417,31.8942255 56.249531,31.5254237 58.4803012,31.5254237 C60.918238,31.5254237 62.9843798,32.3047371 64.4715599,33.8233007 C65.9592926,35.3012522 66.7857493,37.3532613 66.7857493,39.7334601 L66.7857493,51.0208822 C66.7857493,52.2118049 65.8349925,53.1557621 64.6367408,53.1557621 C63.4390415,53.1557621 62.5297182,52.2118049 62.5297182,51.0208822 L62.5297182,39.4052704 Z" id="Fill-15" fill="#FFF"/><path d="M83.0266126,36.7298105 C81.9112274,35.7858534 80.4649281,35.2524078 78.9777481,35.2524078 C76.457497,35.2524078 74.9703168,36.7298105 74.9703168,39.2334921 L74.9703168,45.1024907 C74.9703168,47.647882 76.457497,49.0835749 78.9777481,49.0835749 C80.3820615,49.0835749 81.7460465,48.9194801 83.0266126,48.5506782 L83.0266126,36.7298105 Z M70.7142857,39.5611331 C70.7142857,37.1809342 71.4578758,35.0877642 72.9456084,33.6103615 C74.4747743,32.0912492 76.5812445,31.3530966 78.9777481,31.3530966 C80.3820615,31.3530966 81.9112274,31.8453813 83.0266126,32.4199877 L83.0266126,25.5247102 C83.0266126,24.3337876 83.9353835,23.3898305 85.1341877,23.3898305 C86.3318869,23.3898305 87.2820912,24.3337876 87.2820912,25.5247102 L87.2820912,49.4123135 C87.2820912,50.5620753 86.5385012,51.5471933 85.4645494,51.9159951 C83.39896,52.6140843 81.2085183,52.9834349 78.9777481,52.9834349 C76.5812445,52.9834349 74.5156551,52.2035727 72.9870417,50.6850092 C71.4993091,49.2065089 70.7142857,47.1550486 70.7142857,44.73314 L70.7142857,39.5611331 Z" id="Fill-17" fill="#FFF"/><path d="M103.523507,40.4315494 C103.523507,37.0256204 102.119193,35.4247349 99.4746424,35.4247349 C96.8715247,35.4247349 95.4672112,36.9844595 95.4672112,40.4315494 L103.523507,40.4315494 Z M95.4672112,44.3314094 C95.4672112,46.0135191 95.7561397,47.1221199 96.2931156,47.86137 C96.9958247,48.7641662 98.0697765,49.2564507 99.4746424,49.2564507 C101.045242,49.2564507 102.531869,48.8053271 103.937288,48.1890109 C104.225664,48.066077 104.515145,47.9843039 104.804625,47.9843039 C105.837144,47.9843039 106.828782,48.846488 106.828782,49.9128303 C106.828782,50.6932414 106.498972,51.3913306 105.75483,51.7606812 C103.772107,52.7046383 101.664532,53.1563108 99.4746424,53.1563108 C97.0781389,53.1563108 95.0125495,52.3764486 93.4839361,50.8573362 C91.9962035,49.3793847 91.2111801,47.3273756 91.2111801,44.9054671 L91.2111801,39.734009 C91.2111801,37.3538101 91.9962035,35.3018009 93.4839361,33.8238495 C95.0125495,32.3052859 97.0781389,31.5254237 99.4746424,31.5254237 C101.912579,31.5254237 103.978169,32.3052859 105.465901,33.8238495 C106.953081,35.3018009 107.779538,37.3538101 107.779538,39.734009 L107.779538,41.6625353 C107.779538,43.1404867 106.581286,44.3314094 105.093554,44.3314094 L95.4672112,44.3314094 Z" id="Fill-19" fill="#FFF"/><path d="M110.68323,37.6413878 C110.68323,34.1525881 113.327781,31.5254237 116.83967,31.5254237 C117.872189,31.5254237 118.904706,31.6489065 119.937777,31.8536135 C120.929415,32.0588692 121.631572,32.8798924 121.631572,33.8650104 C121.631572,34.9736112 120.805667,35.8352465 119.607416,35.8352465 C119.359921,35.8352465 119.235068,35.8352465 118.904706,35.7529247 C118.243983,35.5888298 117.499841,35.4247349 116.83967,35.4247349 C115.806599,35.4247349 114.939261,36.2863702 114.939261,37.3126492 L114.939261,51.0214311 C114.939261,52.2123537 113.987952,53.1563108 112.831687,53.1563108 C111.633434,53.1563108 110.68323,52.2123537 110.68323,51.0214311 L110.68323,37.6413878 Z" id="Fill-21" fill="#FFF"/></g></g></g></svg>