<?xml version="1.0" encoding="utf-8"?>
<!-- Generator: Adobe Illustrator 19.2.1, SVG Export Plug-In . SVG Version: 6.00 Build 0)  -->
<svg version="1.1" id="Layer_1" xmlns="http://www.w3.org/2000/svg" xmlns:xlink="http://www.w3.org/1999/xlink" x="0px" y="0px"
	 viewBox="0 0 331.7 158.7" style="enable-background:new 0 0 331.7 158.7;" xml:space="preserve">
<style type="text/css">
	.st0{fill:#000000;}
</style>
<path class="st0" d="M330.3,2.8h-33.1c-0.2,0-0.3,0.1-0.4,0.2L276,43.2c-0.2,0.3-0.6,0.3-0.8,0L254.5,3.1c-0.1-0.1-0.2-0.2-0.4-0.2
	H221c-0.3,0-0.5,0.3-0.4,0.6l37.9,75.8c0.1,0.1,0.1,0.3,0,0.4l-37.9,75.8c-0.1,0.3,0.1,0.6,0.4,0.6h33.1c0.2,0,0.3-0.1,0.4-0.2
	l20.8-40.2c0.2-0.3,0.6-0.3,0.8,0l20.8,40.2c0.1,0.1,0.2,0.2,0.4,0.2h33.1c0.3,0,0.5-0.3,0.4-0.6l-37.9-75.8c-0.1-0.1-0.1-0.3,0-0.4
	l37.9-75.8C330.9,3.2,330.7,2.8,330.3,2.8z"/>
<path class="st0" d="M201.6,65.3h-21.9c-0.2,0-0.4-0.2-0.4-0.4V43c0-0.2-0.2-0.4-0.4-0.4h-27.5c-0.2,0-0.4,0.2-0.4,0.4v21.9
	c0,0.2-0.2,0.4-0.4,0.4h-21.9c-0.2,0-0.4,0.2-0.4,0.4v27.5c0,0.2,0.2,0.4,0.4,0.4h21.9c0.2,0,0.4,0.2,0.4,0.4v22
	c0,0.2,0.2,0.4,0.4,0.4h27.5c0.2,0,0.4-0.2,0.4-0.4V94.1c0-0.2,0.2-0.4,0.4-0.4h21.9c0.2,0,0.4-0.2,0.4-0.4V65.7
	C202,65.5,201.8,65.3,201.6,65.3z"/>
<path class="st0" d="M91.3,116.3V43.6c0-6.9-0.4-42.2-45.4-42.2S0.4,36.8,0.4,43.6v72.6c0,6.9,0,41.3,46.8,41.3
	S91.3,123.2,91.3,116.3z M45.8,29.8c15,0,16.9,7.3,17.1,12.1c0,0.4-0.1,0.7-0.4,1L29.6,79.4c-0.3,0.3-0.7,0.1-0.7-0.3V43.6
	C28.8,39.1,28.8,29.8,45.8,29.8z M45.8,129.2c-15.1,0-16.8-7.4-16.9-12.1c0-0.4,0.1-0.7,0.4-1l32.9-36.5c0.3-0.3,0.7-0.1,0.7,0.3
	v36.4C62.9,120.9,61.8,129.2,45.8,129.2z"/>
</svg>
