<svg width="163" height="24" viewBox="0 0 163 24" fill="none" xmlns="http://www.w3.org/2000/svg">
<path d="M31.0137 22.9714V18.9714L42.9155 5.02856H31.0137V1.02856H48.4086V5.02856L36.5068 18.9714H48.2942V22.9714H31.0137Z" fill="black"/>
<path d="M56.9908 23.3143C55.7319 23.3143 54.702 23.0858 53.7864 22.5143C52.8709 22.0572 52.2987 21.2572 51.8409 20.2286C51.3832 19.2 51.1543 17.8286 51.1543 16.1143V7.31433H55.2742V15.3143C55.2742 16.3429 55.3886 17.1429 55.6175 17.8286C55.8464 18.4 56.1897 18.8572 56.6474 19.0858C57.1052 19.3143 57.563 19.4286 58.1352 19.4286C59.1651 19.4286 60.0807 19.0858 60.6529 18.4C61.2251 17.7143 61.4539 16.6858 61.4539 15.4286V7.31433H65.5738V22.9715H61.7973L61.6828 20.8C61.1106 21.6 60.5384 22.1715 59.7373 22.6286C58.8218 23.2 58.0207 23.3143 56.9908 23.3143Z" fill="black"/>
<path d="M69.2363 22.9715V7.31433H73.3562V10.1715C74.0428 9.1429 74.8439 8.45719 75.8739 8.00005C76.9038 7.5429 77.9338 7.31433 78.9638 7.31433V11.3143C78.0482 11.3143 77.1327 11.4286 76.2172 11.6572C75.4161 11.8858 74.7295 12.2286 74.1573 12.8C73.5851 13.3715 73.3562 13.9429 73.3562 14.8572V23.0858H69.2363V22.9715Z" fill="black"/>
<path d="M83.5419 4.8C82.9697 4.8 82.3975 4.57143 81.8253 4.11429C81.3676 3.65714 81.1387 3.08571 81.1387 2.4C81.1387 1.71429 81.3676 1.14286 81.8253 0.685714C82.2831 0.228571 82.8553 0 83.5419 0C84.2286 0 84.8008 0.228571 85.2585 0.685714C85.6019 1.14286 85.8307 1.71429 85.8307 2.4C85.8307 3.08571 85.6019 3.65714 85.1441 4.11429C84.6863 4.57143 84.1141 4.8 83.5419 4.8ZM81.3675 22.9714V7.31429H85.4874V22.9714H81.3675Z" fill="black"/>
<path d="M96.9303 23.3143C95.3282 23.3143 93.8404 22.9714 92.5816 22.2857C91.3227 21.6 90.2928 20.5714 89.6061 19.3143C88.9195 18.0571 88.5762 16.6857 88.5762 15.0857C88.5762 13.4857 88.9195 12 89.6061 10.8572C90.2928 9.60001 91.3227 8.68572 92.5816 8.00001C93.8404 7.31429 95.3282 6.97144 96.9303 6.97144C98.5325 6.97144 99.9058 7.31429 101.279 8.11429C102.538 8.91429 103.568 10.0572 104.14 11.4286L100.249 12.8C99.9058 12.2286 99.448 11.6571 98.8758 11.3143C98.3036 10.9714 97.617 10.7429 96.8159 10.7429C96.0148 10.7429 95.3282 10.9714 94.756 11.3143C94.1838 11.6571 93.726 12.2286 93.3827 12.8C93.0393 13.4857 92.9249 14.1714 92.9249 15.0857C92.9249 15.8857 93.0393 16.6857 93.3827 17.3714C93.726 18.0572 94.1838 18.5143 94.756 18.8572C95.3282 19.2 96.0148 19.4286 96.8159 19.4286C97.617 19.4286 98.3036 19.2 98.8758 18.8572C99.448 18.5143 99.9058 17.9429 100.249 17.2572L104.14 18.6286C103.568 20.1143 102.538 21.2571 101.279 22.0571C100.02 22.9714 98.5325 23.3143 96.9303 23.3143Z" fill="black"/>
<path d="M106.545 22.9714V1.02856H110.665V9.25714C111.237 8.45714 111.809 7.88571 112.61 7.42856C113.411 6.97142 114.212 6.85714 115.242 6.85714C116.501 6.85714 117.531 7.08571 118.447 7.65714C119.362 8.11428 119.934 8.91428 120.392 9.94285C120.85 10.9714 121.079 12.3429 121.079 14.0571V22.9714H116.959V14.9714C116.959 13.9429 116.845 13.0286 116.616 12.4571C116.387 11.8857 116.043 11.4286 115.586 11.2C115.128 10.9714 114.67 10.8571 114.098 10.8571C113.068 10.8571 112.153 11.2 111.58 11.8857C111.008 12.5714 110.665 13.6 110.665 14.8571V23.0857H106.545V22.9714Z" fill="black"/>
<path d="M138.678 1.02832H134.558V17.0283V17.1426C134.558 18.6283 133.414 19.7712 131.926 19.7712C131.125 19.7712 130.438 19.4283 129.866 18.9712C129.408 18.514 129.18 17.9426 128.951 17.3712L128.722 17.4855L124.945 19.314C125.632 20.7997 127.234 23.5426 132.041 23.5426C137.419 23.5426 138.678 19.314 138.678 17.2569C138.793 16.4569 138.678 6.28546 138.678 1.02832Z" fill="black"/>
<path d="M144.972 16.5716L141.195 18.7431C141.768 19.6573 142.912 21.4859 145.086 22.5145C147.375 23.5431 151.037 23.7716 153.555 22.6288C155.844 21.6002 157.103 19.5431 157.103 17.2573C157.103 14.6288 156.416 12.3431 151.953 10.2859C148.291 8.68591 147.032 8.22877 147.032 6.62877C147.032 6.17163 147.375 4.68591 149.435 4.68591C151.037 4.68591 151.953 5.94306 152.182 6.62877L155.729 4.34306C154.928 3.08591 153.326 0.685913 149.321 0.685913C145.315 0.685913 142.454 3.08591 142.454 6.62877C142.454 10.1716 144.743 12.3431 148.52 13.8288C152.296 15.2002 152.41 16.3431 152.41 17.0288C152.41 17.7145 151.953 19.4288 149.321 19.4288C146.803 19.4288 145.43 17.6002 144.972 16.5716Z" fill="black"/>
<path d="M1.0293 1.02856H23.0019V22.9714L12.0156 12L1.0293 1.02856Z" fill="black"/>
<path d="M1.0293 1.02856L12.0156 12L23.0019 22.9714H1.0293V1.02856Z" fill="#268BCC"/>
</svg>
