<?xml version="1.0" encoding="UTF-8" standalone="no"?>
<!DOCTYPE svg PUBLIC "-//W3C//DTD SVG 1.1//EN" "http://www.w3.org/Graphics/SVG/1.1/DTD/svg11.dtd">
<svg width="100%" height="100%" viewBox="0 0 725 725" version="1.1" xmlns="http://www.w3.org/2000/svg" xmlns:xlink="http://www.w3.org/1999/xlink" xml:space="preserve" xmlns:serif="http://www.serif.com/" style="fill-rule:evenodd;clip-rule:evenodd;stroke-linejoin:round;stroke-miterlimit:2;">
    <g transform="matrix(1,0,0,1,-1241.51,-936.124)">
        <g transform="matrix(1,0,0,1,602.561,-877.707)">
            <g id="Plain-logo" serif:id="Plain logo">
                <g transform="matrix(1.03768,0,0,1.03768,-37.7311,-82.0047)">
                    <rect x="652.11" y="1826.99" width="698.305" height="698.305" style="fill:white;"/>
                </g>
                <rect x="652.11" y="1826.99" width="698.305" height="698.305"/>
                <g transform="matrix(0.833413,0,0,0.833413,184.003,1151.71)">
                    <g transform="matrix(14.1423,0,0,14.1423,-10342.9,-12605.2)">
                        <g transform="matrix(50,0,0,50,790.331,1000.04)">
                            <path d="M0.185,-0.663L0.185,-0.415L0.474,-0.415L0.474,-0.337L0.185,-0.337L0.185,-0L0.096,-0L0.096,-0.741L0.481,-0.741L0.481,-0.663L0.185,-0.663Z" style="fill:white;fill-rule:nonzero;"/>
                        </g>
                    </g>
                    <g transform="matrix(14.1423,0,0,14.1423,-10450.8,-12713.1)">
                        <g transform="matrix(50,0,0,50,790.331,1000.04)">
                            <path d="M0.185,-0.663L0.185,-0.415L0.474,-0.415L0.474,-0.337L0.185,-0.337L0.185,-0L0.096,-0L0.096,-0.741L0.481,-0.741L0.481,-0.663L0.185,-0.663Z" style="fill:white;fill-rule:nonzero;"/>
                        </g>
                    </g>
                </g>
            </g>
        </g>
    </g>
</svg>
