<?xml version="1.0" encoding="UTF-8" standalone="no"?>
<!DOCTYPE svg PUBLIC "-//W3C//DTD SVG 1.1//EN" "http://www.w3.org/Graphics/SVG/1.1/DTD/svg11.dtd">
<svg width="100%" height="100%" viewBox="0 0 2108 329" version="1.1" xmlns="http://www.w3.org/2000/svg" xmlns:xlink="http://www.w3.org/1999/xlink" xml:space="preserve" xmlns:serif="http://www.serif.com/" style="fill-rule:evenodd;clip-rule:evenodd;stroke-linejoin:round;stroke-miterlimit:2;">
    <g transform="matrix(1,0,0,1,-200.298,-2332.25)">
        <g transform="matrix(0.453947,0,0,0.453947,-89.7527,1508.87)">
            <g transform="matrix(1.03768,0,0,1.03768,-37.7311,-82.0047)">
                <rect x="652.11" y="1826.99" width="698.305" height="698.305" style="fill:white;"/>
            </g>
            <rect x="652.11" y="1826.99" width="698.305" height="698.305"/>
            <g transform="matrix(0.833413,0,0,0.833413,184.003,1151.71)">
                <g transform="matrix(14.1423,0,0,14.1423,-10450.8,-12713.1)">
                    <g transform="matrix(50,0,0,50,790.331,1000.04)">
                        <path d="M0.185,-0.663L0.185,-0.415L0.474,-0.415L0.474,-0.337L0.185,-0.337L0.185,-0L0.096,-0L0.096,-0.741L0.481,-0.741L0.481,-0.663L0.185,-0.663Z" style="fill:rgb(160,255,0);fill-rule:nonzero;"/>
                    </g>
                </g>
                <g transform="matrix(14.1423,0,0,14.1423,-10342.9,-12605.2)">
                    <g transform="matrix(50,0,0,50,790.331,1000.04)">
                        <path d="M0.185,-0.663L0.185,-0.415L0.474,-0.415L0.474,-0.337L0.185,-0.337L0.185,-0L0.096,-0L0.096,-0.741L0.481,-0.741L0.481,-0.663L0.185,-0.663Z" style="fill:white;fill-rule:nonzero;stroke:black;stroke-width:0.01px;"/>
                    </g>
                    <g transform="matrix(50,0,0,50,816.281,1000.04)">
                        <path d="M0.452,-0L0.452,-0.089C0.441,-0.06 0.421,-0.036 0.392,-0.017C0.362,0.002 0.325,0.011 0.281,0.011C0.222,0.011 0.175,-0.007 0.141,-0.044C0.106,-0.08 0.089,-0.13 0.089,-0.193L0.089,-0.533L0.17,-0.533L0.17,-0.193C0.17,-0.15 0.181,-0.117 0.204,-0.096C0.226,-0.074 0.256,-0.063 0.293,-0.063C0.339,-0.063 0.377,-0.08 0.407,-0.115C0.437,-0.149 0.452,-0.2 0.452,-0.267L0.452,-0.533L0.533,-0.533L0.533,-0L0.452,-0Z" style="fill:white;fill-rule:nonzero;stroke:black;stroke-width:0.01px;"/>
                    </g>
                    <g transform="matrix(50,0,0,50,847.381,1000.04)">
                        <path d="M0.333,-0C0.326,0.002 0.317,0.004 0.304,0.005C0.291,0.006 0.278,0.007 0.267,0.007C0.244,0.007 0.223,0.003 0.206,-0.004C0.188,-0.011 0.173,-0.021 0.162,-0.033C0.15,-0.044 0.141,-0.057 0.135,-0.073C0.129,-0.088 0.126,-0.103 0.126,-0.119L0.126,-0.463L0.022,-0.463L0.022,-0.533L0.126,-0.533L0.126,-0.685L0.207,-0.685L0.207,-0.533L0.33,-0.533L0.33,-0.463L0.207,-0.463L0.207,-0.133C0.207,-0.111 0.213,-0.094 0.226,-0.082C0.238,-0.069 0.259,-0.063 0.288,-0.063C0.296,-0.063 0.304,-0.064 0.311,-0.065C0.318,-0.066 0.326,-0.068 0.333,-0.07L0.333,-0Z" style="fill:white;fill-rule:nonzero;stroke:black;stroke-width:0.01px;"/>
                    </g>
                    <g transform="matrix(50,0,0,50,865.881,1000.04)">
                        <path d="M0.452,-0L0.452,-0.089C0.441,-0.06 0.421,-0.036 0.392,-0.017C0.362,0.002 0.325,0.011 0.281,0.011C0.222,0.011 0.175,-0.007 0.141,-0.044C0.106,-0.08 0.089,-0.13 0.089,-0.193L0.089,-0.533L0.17,-0.533L0.17,-0.193C0.17,-0.15 0.181,-0.117 0.204,-0.096C0.226,-0.074 0.256,-0.063 0.293,-0.063C0.339,-0.063 0.377,-0.08 0.407,-0.115C0.437,-0.149 0.452,-0.2 0.452,-0.267L0.452,-0.533L0.533,-0.533L0.533,-0L0.452,-0Z" style="fill:white;fill-rule:nonzero;stroke:black;stroke-width:0.01px;"/>
                    </g>
                    <g transform="matrix(50,0,0,50,896.981,1000.04)">
                        <path d="M0.348,-0.467C0.229,-0.467 0.17,-0.4 0.17,-0.267L0.17,-0L0.089,-0L0.089,-0.533L0.17,-0.533L0.17,-0.452C0.187,-0.486 0.21,-0.51 0.239,-0.524C0.267,-0.537 0.303,-0.544 0.348,-0.544L0.348,-0.467Z" style="fill:white;fill-rule:nonzero;stroke:black;stroke-width:0.01px;"/>
                    </g>
                    <g transform="matrix(50,0,0,50,915.481,1000.04)">
                        <path d="M0.13,-0.241C0.133,-0.216 0.138,-0.192 0.148,-0.171C0.157,-0.149 0.168,-0.13 0.183,-0.114C0.197,-0.098 0.214,-0.086 0.235,-0.077C0.255,-0.068 0.278,-0.063 0.304,-0.063C0.353,-0.063 0.394,-0.079 0.426,-0.11L0.478,-0.059C0.454,-0.035 0.429,-0.017 0.402,-0.006C0.375,0.005 0.343,0.011 0.304,0.011C0.267,0.011 0.232,0.004 0.201,-0.01C0.169,-0.023 0.141,-0.042 0.119,-0.067C0.096,-0.092 0.077,-0.121 0.064,-0.155C0.051,-0.189 0.044,-0.226 0.044,-0.267C0.044,-0.308 0.05,-0.345 0.063,-0.379C0.075,-0.413 0.092,-0.442 0.113,-0.467C0.134,-0.491 0.158,-0.51 0.187,-0.524C0.215,-0.537 0.245,-0.544 0.278,-0.544C0.307,-0.544 0.336,-0.538 0.364,-0.527C0.391,-0.516 0.416,-0.498 0.437,-0.474C0.458,-0.449 0.475,-0.418 0.488,-0.38C0.501,-0.341 0.507,-0.295 0.507,-0.241L0.13,-0.241ZM0.415,-0.315C0.412,-0.337 0.407,-0.358 0.4,-0.377C0.392,-0.396 0.382,-0.412 0.37,-0.426C0.358,-0.439 0.344,-0.45 0.329,-0.458C0.314,-0.466 0.297,-0.47 0.278,-0.47C0.259,-0.47 0.242,-0.466 0.226,-0.458C0.209,-0.45 0.195,-0.439 0.182,-0.426C0.169,-0.412 0.159,-0.396 0.151,-0.377C0.142,-0.358 0.137,-0.337 0.134,-0.315L0.415,-0.315Z" style="fill:white;fill-rule:nonzero;stroke:black;stroke-width:0.01px;"/>
                    </g>
                    <g transform="matrix(50,0,0,50,955.831,1000.04)">
                        <path d="M0.185,-0.663L0.185,-0.415L0.474,-0.415L0.474,-0.337L0.185,-0.337L0.185,-0L0.096,-0L0.096,-0.741L0.481,-0.741L0.481,-0.663L0.185,-0.663Z" style="fill:white;fill-rule:nonzero;stroke:black;stroke-width:0.01px;"/>
                    </g>
                    <g transform="matrix(50,0,0,50,981.781,1000.04)">
                        <path d="M0.348,-0.467C0.229,-0.467 0.17,-0.4 0.17,-0.267L0.17,-0L0.089,-0L0.089,-0.533L0.17,-0.533L0.17,-0.452C0.187,-0.486 0.21,-0.51 0.239,-0.524C0.267,-0.537 0.303,-0.544 0.348,-0.544L0.348,-0.467Z" style="fill:white;fill-rule:nonzero;stroke:black;stroke-width:0.01px;"/>
                    </g>
                    <g transform="matrix(50,0,0,50,1000.28,1000.04)">
                        <path d="M0.533,-0.267C0.533,-0.224 0.527,-0.186 0.514,-0.152C0.501,-0.117 0.483,-0.088 0.461,-0.064C0.439,-0.04 0.413,-0.022 0.384,-0.009C0.354,0.005 0.322,0.011 0.289,0.011C0.256,0.011 0.224,0.005 0.195,-0.009C0.165,-0.022 0.139,-0.04 0.117,-0.064C0.094,-0.088 0.077,-0.117 0.064,-0.152C0.05,-0.186 0.044,-0.224 0.044,-0.267C0.044,-0.31 0.05,-0.348 0.064,-0.382C0.077,-0.416 0.094,-0.445 0.117,-0.469C0.139,-0.493 0.165,-0.511 0.195,-0.525C0.224,-0.538 0.256,-0.544 0.289,-0.544C0.322,-0.544 0.354,-0.538 0.384,-0.525C0.413,-0.511 0.439,-0.493 0.461,-0.469C0.483,-0.445 0.501,-0.416 0.514,-0.382C0.527,-0.348 0.533,-0.31 0.533,-0.267ZM0.448,-0.267C0.448,-0.298 0.444,-0.326 0.436,-0.351C0.428,-0.376 0.417,-0.397 0.403,-0.415C0.389,-0.432 0.372,-0.446 0.353,-0.456C0.333,-0.465 0.312,-0.47 0.289,-0.47C0.267,-0.47 0.246,-0.465 0.227,-0.456C0.208,-0.446 0.191,-0.432 0.177,-0.415C0.162,-0.397 0.151,-0.376 0.143,-0.351C0.134,-0.326 0.13,-0.298 0.13,-0.267C0.13,-0.236 0.134,-0.209 0.143,-0.184C0.151,-0.159 0.162,-0.137 0.177,-0.119C0.191,-0.101 0.208,-0.087 0.227,-0.078C0.246,-0.068 0.267,-0.063 0.289,-0.063C0.311,-0.063 0.332,-0.068 0.351,-0.078C0.37,-0.087 0.387,-0.101 0.402,-0.119C0.416,-0.137 0.427,-0.159 0.436,-0.184C0.444,-0.209 0.448,-0.236 0.448,-0.267Z" style="fill:white;fill-rule:nonzero;stroke:black;stroke-width:0.01px;"/>
                    </g>
                    <g transform="matrix(50,0,0,50,1029.18,1000.04)">
                        <path d="M0.452,-0L0.452,-0.341C0.452,-0.384 0.441,-0.416 0.419,-0.438C0.397,-0.459 0.367,-0.47 0.33,-0.47C0.283,-0.47 0.245,-0.453 0.215,-0.419C0.185,-0.384 0.17,-0.334 0.17,-0.267L0.17,-0L0.089,-0L0.089,-0.533L0.17,-0.533L0.17,-0.444C0.181,-0.473 0.201,-0.497 0.231,-0.516C0.26,-0.535 0.297,-0.544 0.341,-0.544C0.4,-0.544 0.447,-0.526 0.482,-0.49C0.516,-0.454 0.533,-0.404 0.533,-0.341L0.533,-0L0.452,-0Z" style="fill:white;fill-rule:nonzero;stroke:black;stroke-width:0.01px;"/>
                    </g>
                    <g transform="matrix(50,0,0,50,1060.28,1000.04)">
                        <path d="M0.333,-0C0.326,0.002 0.317,0.004 0.304,0.005C0.291,0.006 0.278,0.007 0.267,0.007C0.244,0.007 0.223,0.003 0.206,-0.004C0.188,-0.011 0.173,-0.021 0.162,-0.033C0.15,-0.044 0.141,-0.057 0.135,-0.073C0.129,-0.088 0.126,-0.103 0.126,-0.119L0.126,-0.463L0.022,-0.463L0.022,-0.533L0.126,-0.533L0.126,-0.685L0.207,-0.685L0.207,-0.533L0.33,-0.533L0.33,-0.463L0.207,-0.463L0.207,-0.133C0.207,-0.111 0.213,-0.094 0.226,-0.082C0.238,-0.069 0.259,-0.063 0.288,-0.063C0.296,-0.063 0.304,-0.064 0.311,-0.065C0.318,-0.066 0.326,-0.068 0.333,-0.07L0.333,-0Z" style="fill:white;fill-rule:nonzero;stroke:black;stroke-width:0.01px;"/>
                    </g>
                    <g transform="matrix(50,0,0,50,1078.78,1000.04)">
                        <path d="M0.13,-0.241C0.133,-0.216 0.138,-0.192 0.148,-0.171C0.157,-0.149 0.168,-0.13 0.183,-0.114C0.197,-0.098 0.214,-0.086 0.235,-0.077C0.255,-0.068 0.278,-0.063 0.304,-0.063C0.353,-0.063 0.394,-0.079 0.426,-0.11L0.478,-0.059C0.454,-0.035 0.429,-0.017 0.402,-0.006C0.375,0.005 0.343,0.011 0.304,0.011C0.267,0.011 0.232,0.004 0.201,-0.01C0.169,-0.023 0.141,-0.042 0.119,-0.067C0.096,-0.092 0.077,-0.121 0.064,-0.155C0.051,-0.189 0.044,-0.226 0.044,-0.267C0.044,-0.308 0.05,-0.345 0.063,-0.379C0.075,-0.413 0.092,-0.442 0.113,-0.467C0.134,-0.491 0.158,-0.51 0.187,-0.524C0.215,-0.537 0.245,-0.544 0.278,-0.544C0.307,-0.544 0.336,-0.538 0.364,-0.527C0.391,-0.516 0.416,-0.498 0.437,-0.474C0.458,-0.449 0.475,-0.418 0.488,-0.38C0.501,-0.341 0.507,-0.295 0.507,-0.241L0.13,-0.241ZM0.415,-0.315C0.412,-0.337 0.407,-0.358 0.4,-0.377C0.392,-0.396 0.382,-0.412 0.37,-0.426C0.358,-0.439 0.344,-0.45 0.329,-0.458C0.314,-0.466 0.297,-0.47 0.278,-0.47C0.259,-0.47 0.242,-0.466 0.226,-0.458C0.209,-0.45 0.195,-0.439 0.182,-0.426C0.169,-0.412 0.159,-0.396 0.151,-0.377C0.142,-0.358 0.137,-0.337 0.134,-0.315L0.415,-0.315Z" style="fill:white;fill-rule:nonzero;stroke:black;stroke-width:0.01px;"/>
                    </g>
                    <g transform="matrix(50,0,0,50,1106.18,1000.04)">
                        <path d="M0.452,-0L0.452,-0.341C0.452,-0.384 0.441,-0.416 0.419,-0.438C0.397,-0.459 0.367,-0.47 0.33,-0.47C0.283,-0.47 0.245,-0.453 0.215,-0.419C0.185,-0.384 0.17,-0.334 0.17,-0.267L0.17,-0L0.089,-0L0.089,-0.533L0.17,-0.533L0.17,-0.444C0.181,-0.473 0.201,-0.497 0.231,-0.516C0.26,-0.535 0.297,-0.544 0.341,-0.544C0.4,-0.544 0.447,-0.526 0.482,-0.49C0.516,-0.454 0.533,-0.404 0.533,-0.341L0.533,-0L0.452,-0Z" style="fill:white;fill-rule:nonzero;stroke:black;stroke-width:0.01px;"/>
                    </g>
                    <g transform="matrix(50,0,0,50,1137.28,1000.04)">
                        <path d="M0.448,-0L0.448,-0.081C0.441,-0.067 0.432,-0.054 0.42,-0.043C0.407,-0.032 0.393,-0.022 0.378,-0.014C0.363,-0.006 0.346,0 0.329,0.005C0.312,0.009 0.295,0.011 0.278,0.011C0.247,0.011 0.218,0.005 0.19,-0.009C0.162,-0.022 0.137,-0.04 0.116,-0.064C0.094,-0.088 0.077,-0.117 0.064,-0.152C0.05,-0.186 0.044,-0.224 0.044,-0.267C0.044,-0.31 0.05,-0.348 0.064,-0.382C0.077,-0.416 0.094,-0.445 0.116,-0.469C0.137,-0.493 0.162,-0.511 0.19,-0.525C0.218,-0.538 0.247,-0.544 0.278,-0.544C0.295,-0.544 0.312,-0.542 0.329,-0.538C0.346,-0.533 0.363,-0.527 0.378,-0.519C0.393,-0.51 0.407,-0.5 0.42,-0.488C0.432,-0.476 0.441,-0.463 0.448,-0.448L0.448,-0.741L0.53,-0.741L0.53,-0L0.448,-0ZM0.448,-0.267C0.448,-0.298 0.444,-0.326 0.436,-0.351C0.427,-0.376 0.416,-0.397 0.402,-0.415C0.387,-0.432 0.37,-0.446 0.351,-0.456C0.332,-0.465 0.311,-0.47 0.289,-0.47C0.266,-0.47 0.244,-0.465 0.225,-0.456C0.206,-0.446 0.189,-0.432 0.175,-0.415C0.161,-0.397 0.15,-0.376 0.142,-0.351C0.134,-0.326 0.13,-0.298 0.13,-0.267C0.13,-0.236 0.134,-0.209 0.143,-0.184C0.151,-0.159 0.162,-0.137 0.177,-0.119C0.191,-0.101 0.208,-0.087 0.227,-0.078C0.246,-0.068 0.267,-0.063 0.289,-0.063C0.311,-0.063 0.332,-0.068 0.351,-0.078C0.37,-0.087 0.387,-0.101 0.402,-0.119C0.416,-0.137 0.427,-0.159 0.436,-0.184C0.444,-0.209 0.448,-0.236 0.448,-0.267Z" style="fill:white;fill-rule:nonzero;stroke:black;stroke-width:0.01px;"/>
                    </g>
                </g>
            </g>
        </g>
    </g>
</svg>
