<?xml version="1.0" encoding="UTF-8" standalone="no"?><!DOCTYPE svg PUBLIC "-//W3C//DTD SVG 1.1//EN" "http://www.w3.org/Graphics/SVG/1.1/DTD/svg11.dtd"><svg width="100%" height="100%" viewBox="0 0 32 26" version="1.1" xmlns="http://www.w3.org/2000/svg" xmlns:xlink="http://www.w3.org/1999/xlink" xml:space="preserve" xmlns:serif="http://www.serif.com/" style="fill-rule:evenodd;clip-rule:evenodd;stroke-linejoin:round;stroke-miterlimit:1.41421;"><path d="M24,0l-24,0l0,1.4c0,6 3.2,11.2 8,14l0,10.6l16,0l0,-10.6c4.8,-2.8 8,-8 8,-14l0,-1.4l-8,0Zm-2,14.2c-1.8,0.9 -3.9,1.4 -6,1.4c-2.1,0 -4.2,-0.5 -6,-1.4l0,-11.2l6,6l6,-6l0,11.2Zm-20,-12.2l6,0l0,11c-3.5,-2.4 -5.8,-6.4 -6,-11Zm20,22l-12,0l0,-7.6c1.9,0.8 3.9,1.2 6,1.2c2.1,0 4.1,-0.4 6,-1.2l0,7.6Zm2,-11l0,-11l6,0c-0.2,4.6 -2.5,8.6 -6,11Z" style="fill-rule:nonzero;"/></svg>