<svg width="207" height="55" viewBox="0 0 207 55" version="1.1" xmlns="http://www.w3.org/2000/svg" xmlns:xlink="http://www.w3.org/1999/xlink">
<title>Group</title>
<desc>Created using Figma</desc>
<g id="Canvas" transform="translate(2314 -62)">
<g id="Group">
<g id="Group">
<g id="Group">
<g id="Vector">
<use xlink:href="#path0_fill" transform="translate(-2314 71.8842)" fill="#780076"/>
</g>
<g id="Vector">
<use xlink:href="#path1_fill" transform="translate(-2234.33 62)" fill="#780076"/>
</g>
<g id="Vector">
<use xlink:href="#path2_fill" transform="translate(-2157.74 65.3227)" fill="#780076"/>
</g>
<g id="Vector">
<use xlink:href="#path3_fill" transform="translate(-2146.64 63.0594)" fill="#780076"/>
</g>
</g>
<g id="Group">
<g id="Vector">
<use xlink:href="#path4_fill" transform="translate(-2157.74 65.3227)" fill="#EA5353"/>
</g>
<g id="Vector">
<use xlink:href="#path3_fill" transform="translate(-2146.64 63.0594)" fill="#EA5353"/>
</g>
</g>
<g id="Vector">
<use xlink:href="#path5_fill" transform="translate(-2130.92 65.3227)" fill="#EA5353"/>
</g>
<g id="Vector">
<use xlink:href="#path6_fill" transform="translate(-2130.92 82.803)" fill="#EA5353"/>
</g>
<g id="Vector">
<use xlink:href="#path7_fill" transform="translate(-2146.64 63.0594)" fill="#EA5353"/>
</g>
<g id="Vector">
<use xlink:href="#path8_fill" transform="translate(-2153.4 71.4866)" fill="#EA5353"/>
</g>
<g id="Vector">
<use xlink:href="#path9_fill" transform="translate(-2157.74 65.3227)" fill="#E86468"/>
</g>
<g id="Vector">
<use xlink:href="#path10_fill" transform="translate(-2132.95 65.3227)" fill="#E86468"/>
</g>
<g id="Vector">
<use xlink:href="#path11_fill" transform="translate(-2150.17 82.803)" fill="#E86468"/>
</g>
<g id="Vector">
<use xlink:href="#path12_fill" transform="translate(-2139.89 63.0594)" fill="#E86468"/>
</g>
<g id="Vector">
<use xlink:href="#path13_fill" transform="translate(-2146.64 63.0594)" fill="#E48986"/>
</g>
<g id="Vector">
<use xlink:href="#path14_fill" transform="translate(-2147.61 71.5347)" fill="#E48986"/>
</g>
<g id="Vector">
<use xlink:href="#path15_fill" transform="translate(-2139.51 71.5347)" fill="#EA5353"/>
</g>
</g>
</g>
</g>
<defs>
<path id="path0_fill" d="M 152.115 19.972C 152.115 19.1534 152.115 18.5274 152.115 17.9495C 152.115 14.9157 152.115 11.882 152.115 8.8482C 152.115 2.10647 145.363 -0.879146 140.54 1.96201C 139.238 2.73249 137.84 3.40666 136.489 4.08084C 136.345 3.98453 136.248 3.88822 136.2 3.84006C 133.258 0.613664 129.882 0.0358022 126.024 2.05832C 125.204 2.49172 124.384 2.92511 123.371 3.45482C 123.371 2.63618 123.371 2.01016 123.371 1.4323C 121.876 1.4323 120.525 1.4323 119.079 1.4323C 119.079 1.91385 119.079 2.2991 119.079 2.68434C 119.079 6.10335 119.079 9.52237 119.079 12.9895C 119.079 13.5674 118.982 13.9526 118.355 14.2897C 114.593 16.2159 110.831 18.2385 107.07 20.1647C 103.308 22.0909 99.3047 21.1759 96.7485 17.9014C 94.2406 14.7231 94.8194 9.8113 98.0025 7.16277C 101.33 4.36977 106.008 4.61054 108.95 7.74063C 108.613 7.93325 108.275 8.07771 107.986 8.27033C 104.947 9.85946 101.909 11.4486 98.8706 13.0859C 98.5812 13.2303 98.1472 13.6156 98.1472 13.9045C 98.0507 15.3491 98.7742 16.2641 99.3047 17.6124C 100.559 16.8901 101.475 16.6012 101.909 16.4086C 104.176 15.2047 106.443 14.0008 108.709 12.7969C 109.867 12.2191 110.976 11.593 112.134 11.0633C 113.195 10.5818 114.834 10.1484 114.69 8.70373C 114.593 7.54801 113.725 6.5849 113.05 5.76627C 110.108 2.25094 105.333 0.228423 100.993 1.19153C 93.8066 2.63618 89.7071 8.94451 91.154 16.0233C 91.2022 16.3122 91.1057 16.842 90.9128 16.9383C 89.1766 17.9014 87.3921 18.8163 85.4147 19.8757C 85.4147 13.5674 85.4147 7.49985 85.4147 1.4323C 83.9196 1.4323 82.5692 1.4323 81.1223 1.4323C 81.1223 1.8657 81.1223 2.25094 81.1223 2.63618C 81.1223 7.11461 81.1223 11.593 81.1223 16.0715C 81.1223 16.4567 81.0259 17.0346 80.7365 17.179C 79.145 18.094 77.5534 18.9126 75.7689 19.8276C 75.7207 19.1534 75.6242 18.6719 75.6242 18.1903C 75.6242 15.3491 75.6242 12.508 75.6242 9.66683C 75.576 2.68434 68.9686 -1.16808 62.7953 2.15463C 62.0237 2.58803 61.252 2.97327 60.2392 3.50297C 60.2392 2.63618 60.2392 2.05832 60.2392 1.48046C 58.7441 1.48046 57.3937 1.48046 55.9468 1.48046C 55.9468 5.38103 55.9468 9.23344 55.8986 13.0377C 55.8986 13.4229 55.6092 14.049 55.2716 14.2416C 51.4615 16.3122 47.6032 18.3348 43.6966 20.3091C 40.61 21.8501 37.3304 21.3685 34.6296 19.0089C 32.3146 17.0346 31.4947 13.5674 32.5558 10.4373C 34.4849 4.99578 41.9122 3.45482 45.8187 7.74063C 45.4811 7.93325 45.1435 8.07771 44.8541 8.27033C 41.8157 9.85946 38.7773 11.4486 35.7389 13.0859C 35.6906 13.0859 34.7261 13.4229 35.0154 13.9045L 37.041 17.2754C 37.7645 16.8901 38.4397 16.553 39.1631 16.1678C 41.6228 14.8676 44.0825 13.5674 46.5422 12.2672C 47.6032 11.6894 48.616 11.0633 49.7735 10.6299C 50.4005 10.3892 51.2686 9.85946 51.4133 9.04082C 51.558 8.27034 51.2686 7.69247 50.8828 7.11461C 50.3522 6.34413 49.87 5.52549 49.243 4.80316C 47.1209 2.39541 43.8896 0.998905 40.6582 0.806285C 37.5716 0.661819 34.0509 2.01016 31.7841 4.12899C 28.0705 7.64432 26.6718 11.3041 28.1669 16.2159L 27.974 16.4567C 26.0448 17.468 24.3568 18.4792 21.7042 19.9239C 21.7042 17.8051 21.7525 17.9014 21.7525 16.0715C 21.7525 14.1934 21.7525 12.3154 21.7525 10.3892C 20.2574 10.3892 18.8587 10.3892 17.4119 10.3892C 17.4119 12.7969 17.3636 15.1565 17.4119 17.5643C 17.4119 18.2866 17.1707 18.6719 16.592 19.0571C 13.1195 21.2241 8.63418 20.4054 5.98158 17.0827C 4.00419 14.6268 3.81128 11.0633 5.49929 8.17402C 7.04262 5.57365 10.4186 3.98453 13.3606 4.36977C 16.0614 4.75501 18.0388 6.15151 19.4857 8.46296C 20.7397 7.83694 21.9454 7.21092 23.1993 6.53675C 20.7879 1.23968 13.7464 -1.40885 7.95897 0.75813C 1.83389 3.11773 -1.39745 9.76314 0.579934 15.8788C 2.8467 22.8613 9.11647 25.7025 17.3636 23.5355C 17.653 24.6912 17.3154 25.558 16.399 26.3767C 14.8557 27.7732 13.3606 29.266 12.0584 30.9033C 9.98459 33.4555 8.87532 36.3448 9.45407 39.7157C 10.0328 43.0865 12.6854 45.2535 15.965 45.109C 18.9069 44.9646 21.4631 42.3642 21.6078 39.1378C 21.7525 35.5262 21.7042 31.9145 21.7525 28.3029C 21.7525 27.9176 21.5113 25.9914 21.7525 25.847C 25.1285 23.7763 27.1541 22.5724 30.289 20.887C 30.4819 21.2241 31.3018 21.9464 31.4947 22.139C 34.7261 25.1246 38.5361 25.9914 42.1051 25.221C 44.3236 24.7394 46.3975 23.6318 48.4713 22.6206C 50.931 21.4167 53.2942 20.0683 55.8986 18.72C 55.8986 20.9833 55.8986 23.0058 55.8986 25.0283C 57.3937 25.0283 58.7441 25.0283 60.2392 25.0283C 60.2392 24.5949 60.2392 24.2097 60.2392 23.8245C 60.2392 19.0089 60.2392 14.1934 60.2392 9.3779C 60.2392 8.94451 60.4803 8.31849 60.7697 8.12587C 62.1684 7.25908 63.6152 6.44044 65.1103 5.81442C 65.9302 5.47734 66.9912 5.23656 67.8594 5.38102C 69.9814 5.66996 71.1872 7.35539 71.2354 9.71499C 71.2836 12.7969 71.2354 15.927 71.2836 19.0089C 71.2836 20.8388 71.3801 23.5355 73.1163 24.6912C 74.6597 25.7025 76.4441 24.5468 77.8428 23.7763C 78.7591 23.2466 79.7719 22.4761 80.7847 22.139C 81.7011 21.8501 81.1706 24.6431 82.8586 25.3173C 84.3055 25.8951 87.6815 23.5355 89.2248 22.6687C 89.6106 22.4761 92.8902 20.3573 93.276 20.6944C 93.5172 20.9351 93.7101 21.1278 93.8548 21.3204C 96.9897 24.6912 100.848 26.1841 105.333 25.2691C 107.455 24.8357 109.481 23.68 111.507 22.7169C 114.015 21.513 116.426 20.1647 119.079 18.7682C 119.079 21.0315 119.079 23.054 119.079 25.0765C 120.574 25.0765 121.924 25.0765 123.419 25.0765C 123.419 24.6431 123.419 24.2578 123.419 23.8726C 123.419 19.0571 123.419 14.2416 123.419 9.42606C 123.419 8.51111 124.094 8.02956 124.818 7.64432C 126.554 6.72937 128.435 5.38102 130.461 5.42918C 132.342 5.47734 133.595 7.21092 133.499 8.99266C 133.306 13.9526 133.451 18.9126 133.451 23.8726C 133.451 24.2578 133.451 24.6431 133.451 25.0765C 134.994 25.0765 136.345 25.0765 137.84 25.0765C 137.84 24.6431 137.84 24.2097 137.84 23.8245C 137.84 19.0089 137.84 14.1934 137.84 9.3779C 137.84 7.49985 140.396 6.39228 141.843 5.86258C 143.434 5.28471 144.881 4.80316 146.231 5.6218C 147.293 6.24782 147.823 7.64432 147.823 8.80004C 147.871 12.3154 147.823 15.301 147.823 18.5755C 147.823 22.3316 148.064 25.1246 151.151 25.0283C 152.646 24.9802 155.347 23.1984 157.035 22.139C 157.614 21.8019 159.736 20.5981 159.736 20.5499C 159.736 19.1052 159.736 17.6124 159.736 16.0233C 157.083 17.2754 154.72 18.6237 152.115 19.972ZM 17.3636 38.8489C 17.3154 40.1009 16.3508 40.9195 15.4345 40.8714C 14.5181 40.8232 13.7947 39.8601 13.6982 38.6562C 13.5535 37.2116 13.8911 35.9114 14.6628 34.7075C 15.4345 33.5518 16.3508 32.4924 17.1707 31.3367C 17.2672 31.3848 17.3154 31.433 17.4119 31.4811C 17.3636 33.9852 17.4601 36.393 17.3636 38.8489Z"/>
<path id="path1_fill" d="M 3.66639 7.17512C 5.59555 7.17512 7.1871 5.48969 7.1871 3.56348C 7.1871 1.63728 5.54731 7.17568e-10 3.61815 7.17568e-10C 1.68899 7.17568e-10 -0.0472489 1.68543 0.000980106 3.65979C 0.000980106 5.53784 1.689 7.17512 3.66639 7.17512Z"/>
<path id="path2_fill" d="M 50.7369 0L 24.7897 6.21202L 22.2818 6.21202L 10.8033 6.21202L 10.8033 6.16386L 10.7551 6.21202L 0 0L 4.29238 11.172L 4.34061 11.2202L 10.1281 17.4803L 7.57196 20.2252L 29.6608 20.2252L 26.8153 17.4803L 50.7369 0Z"/>
<path id="path3_fill" d="M 13.5041 6.50095L 6.75206 -2.29622e-08L 0 6.50095L 6.75206 6.50095L 13.5041 6.50095Z"/>
<path id="path4_fill" d="M 50.7369 0L 24.7897 6.21202L 22.2818 6.21202L 10.8033 6.21202L 10.8033 6.16386L 10.7551 6.21202L 0 0L 4.29238 11.2202L 4.34061 11.2202L 10.1281 17.4803L 7.57196 20.2252L 29.6608 20.2252L 26.8153 17.4803L 50.7369 0Z"/>
<path id="path5_fill" d="M 23.9216 0L 2.94366e-06 17.4803L 23.9216 0Z"/>
<path id="path6_fill" d="M 2.84551 2.74484L 2.94366e-06 -3.67395e-07L 2.84551 2.74484Z"/>
<path id="path7_fill" d="M 6.75206 6.50095L 0 6.50095L 6.75206 6.50095L 13.5041 6.50095L 6.75206 -2.29622e-08L 13.5041 6.50095L 6.75206 6.50095Z"/>
<path id="path8_fill" d="M 6.46268 -3.67395e-07L 6.41445 0.048155L 0 5.05629L 5.78748 11.3165L 6.46268 0.048155L 6.46268 -3.67395e-07Z"/>
<path id="path9_fill" d="M 10.7551 6.21202L 9.30819 5.39338L 0 0L 0.819899 2.16698L 4.29238 11.172L 4.34061 11.2202L 10.7551 6.21202Z"/>
<path id="path10_fill" d="M 25.9472 0L -2.94366e-06 6.21202L 2.02562 17.4803L 25.9472 0Z"/>
<path id="path11_fill" d="M 2.55614 -3.67395e-07L 5.88733e-06 2.74484L 22.0889 2.74484L 19.2434 -3.67395e-07L 10.6586 -3.67395e-07L 2.55614 -3.67395e-07Z"/>
<path id="path12_fill" d="M 6.75206 6.50095L 0 -2.29622e-08L 0 6.50095L 6.75206 6.50095Z"/>
<path id="path13_fill" d="M 6.75206 6.50095L 6.75206 -2.29622e-08L 0 6.50095L 6.75206 6.50095Z"/>
<path id="path14_fill" d="M 12.1537 -1.83697e-07L 0.675203 -1.83697e-07L 0 11.2683L 8.10246 11.2683L 12.1537 -1.83697e-07Z"/>
<path id="path15_fill" d="M 4.05124 -1.83697e-07L -5.88733e-06 11.2683L 8.58476 11.2683L 6.55914 -1.83697e-07L 4.05124 -1.83697e-07Z"/>
</defs>
</svg>
