
<svg width="150px" height="20px" viewBox="0 0 150 20" version="1.1" xmlns="http://www.w3.org/2000/svg" xmlns:xlink="http://www.w3.org/1999/xlink">
    <!-- Generator: Sketch 43 (38999) - http://www.bohemiancoding.com/sketch -->
    <desc>Created with Sketch.</desc>
    <defs></defs>
    <g id="Ready" stroke="none" stroke-width="1" fill="none" fill-rule="evenodd">
        <g id="Landing-desktop" transform="translate(-202.000000, -56.000000)" fill="#000000">
            <path d="M347.1638,56 L342.367288,63.22546 L337.569718,56 L332.733518,56 L340.31353,67.5224232 L340.31353,75.8559918 L342.367288,75.8559918 L344.419988,75.8559918 L344.419988,67.5224232 L352,56 L347.1638,56 Z M253.705909,65.9184706 L247.35995,56.0439222 L241.013992,65.9184706 L247.35995,75.8110112 L253.705909,65.9184706 Z M252.081318,56 L258.442622,65.9184706 L252.068088,75.8559918 L247.390643,75.8559918 L247.329257,75.8559918 L242.651283,75.8559918 L236.277278,65.9184706 L242.638582,56 L247.343545,56 L247.376355,56 L252.081318,56 Z M214.73531,68.376524 L206.795982,56 L202,56 L202,75.8559918 L206.099578,75.8559918 L206.099578,62.3607756 L212.688431,72.6337985 L216.781659,72.6337985 L223.371042,62.3607756 L223.371042,75.8559918 L227.470091,75.8559918 L227.470091,56 L222.674108,56 L214.73531,68.376524 Z M293.675604,56 L289.568088,56 L289.568088,75.8559918 L302.763787,75.8559918 L302.763787,72.1146704 L293.675604,72.1146704 L293.675604,56 Z M264.343538,59.7413214 L270.358228,59.7413214 L270.358228,75.8559918 L274.447223,75.8559918 L274.447223,59.7413214 L280.44445,59.7413214 L280.44445,56 L264.343538,56 L264.343538,59.7413214 Z M315.884871,72.1146704 L325.669988,72.1146704 L325.669988,75.8559918 L311.785293,75.8559918 L311.785293,56 L325.197957,56 L325.197957,59.7413214 L315.899688,59.7413214 L315.899688,64.0128838 L322.727203,64.0128838 L322.727203,67.7547344 L315.884871,67.7547344 L315.884871,72.1146704 Z" id="Motley_screen_logo_RGB"></path>
        </g>
    </g>
</svg>
