<?xml version="1.0" encoding="UTF-8" standalone="no"?><!DOCTYPE svg PUBLIC "-//W3C//DTD SVG 1.1//EN" "http://www.w3.org/Graphics/SVG/1.1/DTD/svg11.dtd"><svg width="100%" height="100%" viewBox="0 0 200 200" version="1.1" xmlns="http://www.w3.org/2000/svg" xmlns:xlink="http://www.w3.org/1999/xlink" xml:space="preserve" style="fill-rule:evenodd;clip-rule:evenodd;stroke-linejoin:round;stroke-miterlimit:1.41421;"><g><rect x="0" y="0" width="200" height="200" style="fill:none;"/><g><path d="M17.494,140.905l9.589,0l0,-11.902l1.735,0l5.686,11.902l10.553,0l-7.71,-14.167c2.891,-1.831 4.433,-5.3 4.433,-8.914c0,-6.602 -4,-10.649 -12.384,-10.649l-11.902,0l0,33.73Zm9.589,-19.708l0,-5.975l1.59,0c2.169,0 3.325,1.06 3.325,2.939c0,1.735 -1.156,3.036 -3.325,3.036l-1.59,0Z" style="fill:#f03939;fill-rule:nonzero;"/><path d="M45.105,127.847c0,7.421 5.156,13.685 13.878,13.685c6.939,0 10.505,-4.385 11.083,-5.638l-6.361,-4.433c-0.482,0.723 -2.216,2.265 -4.578,2.265c-2.313,0 -3.951,-1.109 -4.433,-3.084l15.902,0c0.048,-0.482 0.096,-1.157 0.096,-1.687c0,-8.915 -4.433,-14.119 -12.818,-14.119c-7.806,0 -12.769,5.783 -12.769,13.011Zm9.83,-2.891c0.096,-0.964 0.916,-2.747 3.132,-2.747c2.072,0 3.036,1.59 3.132,2.747l-6.264,0Z" style="fill:#f03939;fill-rule:nonzero;"/><path d="M72.234,133.003c0,5.686 4.433,8.529 9.011,8.529c2.458,0 4.626,-0.578 6.024,-2.024l0.53,1.397l8.384,0l0,-15.13c0,-5.927 -2.361,-10.939 -11.565,-10.939c-3.806,0 -8.047,1.35 -10.794,3.229l3.47,6.071c2.072,-0.915 4.192,-1.445 6.216,-1.445c2.361,0 3.325,1.012 3.325,2.024l0,0.771c-1.012,-0.53 -2.795,-0.964 -4.53,-0.964c-6.168,0 -10.071,3.373 -10.071,8.481Zm9.349,-0.338c0,-1.301 1.252,-2.023 2.65,-2.023c1.494,0 2.746,0.722 2.746,2.023c0,1.35 -1.349,1.928 -2.698,1.928c-1.349,0 -2.698,-0.578 -2.698,-1.928Z" style="fill:#f03939;fill-rule:nonzero;"/><path d="M120.373,116.86c-1.638,-1.156 -4.337,-2.024 -7.324,-2.024c-8.048,0 -14.167,5.542 -14.167,13.396c0,7.807 5.686,13.3 14.07,13.3c2.795,0 5.494,-0.627 7.469,-1.928l-2.409,-7.469c-1.157,0.868 -2.891,1.35 -4.24,1.35c-3.229,0 -5.59,-1.976 -5.59,-5.253c0,-2.795 1.783,-5.204 5.252,-5.204c1.398,0 2.94,0.386 4.482,1.542l2.457,-7.71Z" style="fill:#f03939;fill-rule:nonzero;"/><path d="M124.806,115.463l-2.65,0l0,7.372l2.409,0l0,8.433c0,6.843 3.663,10.023 10.216,10.023c2.313,0 3.373,-0.289 3.373,-0.289l0,-7.855c0,0 -0.578,0.049 -0.915,0.049c-1.446,0 -3.325,-0.241 -3.325,-2.024l0,-8.337l4.096,0l0,-7.372l-4.096,0l0,-5.349l-9.108,0l0,5.349Z" style="fill:#f03939;fill-rule:nonzero;"/></g><g><path d="M34.371,178.04l2.939,8.674l6.843,0l-11.951,-33.731l-7.131,0l-11.951,33.731l6.843,0l2.939,-8.674l11.469,0Zm-1.783,-5.638l-7.855,0l3.904,-12.143l3.951,12.143Z" style="fill:#1d8cb5;fill-rule:nonzero;"/><rect x="47.14" y="151.874" width="6.65" height="34.839" style="fill:#1d8cb5;fill-rule:nonzero;"/><path d="M59.043,186.714l6.649,0l0,-25.202l-6.649,0l0,25.202Zm-0.579,-31.274c0,2.169 1.687,3.807 3.855,3.807c2.217,0 3.904,-1.638 3.904,-3.807c0,-2.168 -1.687,-3.807 -3.904,-3.807c-2.168,0 -3.855,1.639 -3.855,3.807Z" style="fill:#1d8cb5;fill-rule:nonzero;"/><path d="M83.377,181.461c-4.192,0 -7.18,-3.036 -7.18,-7.324c0,-4.048 2.651,-7.373 6.939,-7.373c2.843,0 4.771,1.398 5.879,2.41l1.879,-5.59c-1.638,-1.253 -4.24,-2.699 -7.951,-2.699c-7.661,0 -13.396,5.638 -13.396,13.3c0,7.662 5.59,13.155 13.445,13.155c3.662,0 6.409,-1.542 7.854,-2.698l-1.783,-5.446c-1.108,0.916 -3.132,2.265 -5.686,2.265Z" style="fill:#1d8cb5;fill-rule:nonzero;"/><path d="M93.111,178.907c0,5.301 4.337,8.433 9.445,8.433c2.891,0 4.818,-0.867 6.119,-2.265l0.434,1.639l5.879,0l0,-15.95c0,-5.638 -2.409,-9.879 -10.505,-9.879c-3.855,0 -7.662,1.446 -9.926,2.988l2.505,4.53c1.88,-0.964 4.193,-1.783 6.698,-1.783c2.94,0 4.578,1.493 4.578,3.71l0,1.638c-0.916,-0.626 -2.891,-1.397 -5.445,-1.397c-5.879,0 -9.782,3.373 -9.782,8.336Zm6.65,-0.192c0,-2.072 1.783,-3.518 4.337,-3.518c2.553,0 4.385,1.301 4.385,3.518c0,2.12 -1.832,3.469 -4.337,3.469c-2.506,0 -4.385,-1.397 -4.385,-3.469Z" style="fill:#1d8cb5;fill-rule:nonzero;"/><path d="M133.154,160.885c-3.276,0 -5.686,1.831 -6.746,3.566l0,-2.939l-6.505,0l0,25.202l6.65,0l0,-15.131c0,-2.699 1.734,-4.722 4.481,-4.722c2.265,0 4.192,1.734 4.192,4.529l0,15.324l6.65,0l0,-14.553c0,-5.349 -1.542,-11.276 -8.722,-11.276Z" style="fill:#1d8cb5;fill-rule:nonzero;"/><path d="M147.514,161.512l-2.698,0l0,5.397l2.65,0l0,9.926c0,6.843 2.65,10.216 8.674,10.216c1.831,0 2.843,-0.241 2.843,-0.241l0,-5.686c-0.53,0.048 -0.771,0.048 -1.205,0.048c-2.554,0 -3.71,-0.771 -3.71,-4.529l0,-9.734l4.722,0l0,-5.397l-4.722,0l0,-5.301l-6.554,0l0,5.301Z" style="fill:#1d8cb5;fill-rule:nonzero;"/><path d="M161.585,174.185c0,7.565 5.156,13.155 13.251,13.155c6.265,0 9.638,-3.759 10.601,-5.541l-4.385,-3.325c-0.722,1.06 -2.698,3.084 -6.119,3.084c-3.711,0 -6.409,-2.41 -6.554,-5.783l17.733,0c0.048,-0.482 0.048,-0.964 0.048,-1.445c0,-8.24 -4.433,-13.445 -12.239,-13.445c-7.18,0 -12.336,5.686 -12.336,13.3Zm6.987,-2.747c0.289,-2.891 2.313,-5.108 5.445,-5.108c3.036,0 5.252,2.024 5.397,5.108l-10.842,0Z" style="fill:#1d8cb5;fill-rule:nonzero;"/></g><path d="M175.5,66.44c-0.62,0.206 -1.256,0.404 -1.904,0.596c-1.436,-4.543 -3.373,-9.375 -5.743,-14.366c2.262,-4.873 4.124,-9.642 5.519,-14.156c1.16,0.336 2.286,0.69 3.371,1.064c10.494,3.612 16.895,8.953 16.895,13.068c0,4.384 -6.913,10.075 -18.137,13.794l-0.001,0Zm-4.657,9.229c1.135,5.732 1.297,10.915 0.545,14.966c-0.676,3.641 -2.034,6.068 -3.713,7.04c-3.573,2.068 -11.216,-0.621 -19.458,-7.713c-0.945,-0.813 -1.897,-1.681 -2.851,-2.599c3.195,-3.495 6.388,-7.558 9.505,-12.07c5.482,-0.486 10.661,-1.282 15.358,-2.367c0.231,0.933 0.437,1.848 0.614,2.743l0,0Zm-47.099,21.648c-3.492,1.234 -6.272,1.269 -7.953,0.3c-3.577,-2.063 -5.064,-10.027 -3.036,-20.709c0.241,-1.263 0.517,-2.518 0.828,-3.765c4.645,1.027 9.786,1.766 15.282,2.212c3.137,4.415 6.422,8.473 9.734,12.026c-0.704,0.681 -1.424,1.344 -2.161,1.99c-4.4,3.846 -8.808,6.574 -12.694,7.946l0,0Zm-16.357,-30.904c-5.53,-1.89 -10.096,-4.346 -13.226,-7.026c-2.812,-2.409 -4.233,-4.8 -4.233,-6.741c0,-4.128 6.157,-9.395 16.424,-12.975c1.289,-0.448 2.59,-0.857 3.903,-1.228c1.419,4.615 3.281,9.441 5.527,14.321c-2.276,4.953 -4.164,9.856 -5.596,14.525c-0.94,-0.269 -1.873,-0.561 -2.799,-0.876l0,0Zm5.483,-37.323c-2.131,-10.892 -0.716,-19.107 2.846,-21.169c3.794,-2.196 12.182,0.935 21.024,8.786c0.565,0.502 1.133,1.027 1.701,1.571c-3.294,3.537 -6.55,7.565 -9.66,11.954c-5.333,0.494 -10.438,1.288 -15.132,2.352c-0.289,-1.158 -0.549,-2.323 -0.779,-3.494l0,0Zm48.914,12.078c-1.108,-1.914 -2.258,-3.805 -3.448,-5.671c3.619,0.457 7.085,1.064 10.34,1.808c-0.977,3.132 -2.195,6.407 -3.629,9.764c-1.048,-1.988 -2.136,-3.956 -3.263,-5.901l0,0Zm-19.947,-19.428c2.234,2.42 4.472,5.123 6.673,8.055c-4.465,-0.211 -8.937,-0.212 -13.402,-0.003c2.203,-2.905 4.46,-5.604 6.729,-8.052l0,0Zm-20.075,19.461c-1.112,1.93 -2.18,3.885 -3.201,5.865c-1.411,-3.346 -2.618,-6.636 -3.603,-9.813c3.235,-0.724 6.686,-1.315 10.28,-1.765c-1.203,1.877 -2.362,3.782 -3.476,5.713l0,0Zm3.58,28.949c-3.714,-0.415 -7.216,-0.976 -10.451,-1.68c1.001,-3.233 2.235,-6.594 3.676,-10.011c1.025,1.981 2.097,3.937 3.215,5.867c1.14,1.97 2.327,3.911 3.56,5.824l0,0Zm16.629,13.745c-2.296,-2.477 -4.586,-5.217 -6.823,-8.165c2.171,0.085 4.385,0.129 6.635,0.129c2.312,0 4.596,-0.052 6.845,-0.152c-2.208,3.001 -4.438,5.745 -6.657,8.188Zm23.122,-25.61c1.515,3.454 2.793,6.797 3.808,9.975c-3.288,0.75 -6.838,1.355 -10.578,1.803c1.198,-1.9 2.359,-3.824 3.481,-5.77c1.141,-1.978 2.237,-3.981 3.289,-6.008l0,0Zm2.508,-50.508c3.797,2.19 5.274,11.021 2.888,22.602c-0.156,0.755 -0.326,1.507 -0.51,2.255c-4.704,-1.086 -9.813,-1.894 -15.162,-2.396c-3.116,-4.436 -6.344,-8.471 -9.585,-11.963c0.849,-0.819 1.718,-1.616 2.607,-2.392c8.372,-7.286 16.197,-10.162 19.762,-8.106l0,0Z" style="fill:#f03939;fill-rule:nonzero;"/><path d="M141.783,35.778c9.316,0 16.868,7.553 16.868,16.868c0,9.316 -7.552,16.869 -16.868,16.869c-9.315,0 -16.868,-7.553 -16.868,-16.869c0,-9.315 7.553,-16.868 16.868,-16.868" style="fill:#f03939;fill-rule:nonzero;"/></g></svg>