<svg xmlns="http://www.w3.org/2000/svg" width="1214.66" height="283.46" viewBox="0 0 1214.66 283.46"><title>SOLITA_BLACK_HOR_RGB</title><g id="Layer_2" data-name="Layer 2"><g id="Layer_1-2" data-name="Layer 1"><rect y="140.34" width="70.17" height="140.34" fill="#282828"/><rect x="161.39" width="70.17" height="140.34" fill="#282828"/><rect x="80.7" width="70.17" height="280.69" fill="#282828"/><path d="M469,196c0-48.29,38.49-87.48,87-87.48A87.16,87.16,0,0,1,643.27,196c0,48.53-38.26,87.48-87.25,87.48C507.5,283.46,469,244.51,469,196Zm133.44,0c0-26.12-20.06-47.59-46.43-47.59S510.07,169.86,510.07,196c0,25.9,19.36,47.36,45.95,47.36C582.85,243.34,602.45,221.88,602.45,196Z" fill="#282828"/><path d="M678.36,110.84h40.83V242.17h74.18v39h-115Z" fill="#282828"/><path d="M834.2,110.84H875V281.13H834.2Z" fill="#282828"/><path d="M961.63,149.79H913.3V110.84h137.47v38.95h-48.32V281.13H961.63Z" fill="#282828"/><path d="M1112.48,110.84h39.2l63,170.29h-41.29l-8.87-25.43h-65.08l-8.87,25.43h-41Zm-.46,109.4h40.12l-20.06-57.15Z" fill="#282828"/><path d="M301.74,249.41l26.85-26.8c13.61,16.51,27.82,22.83,50.6,22.83,13.76,0,21.23-6.53,21.23-15.86,0-11.43-11.2-13.77-35.23-19.6-24.73-5.6-53.65-14.7-53.65-49.69,0-29.63,25.89-52.25,62.28-52.25,31.26,0,49.59,10.61,67.78,30.21l-24.81,24.8c-12.24-13.94-23.86-19.32-43.9-19.32-13.77,0-20.3,7.46-20.3,15.16,0,10.5,14,12.6,34.53,17.5,25.43,5.83,55.52,14.69,55.52,51.32,0,32.19-27.29,55.75-64.85,55.75C340,283.46,317.83,268.77,301.74,249.41Z" fill="#282828"/></g></g></svg>