<?xml version="1.0" encoding="utf-8"?>
<!-- Generator: Adobe Illustrator 23.0.1, SVG Export Plug-In . SVG Version: 6.00 Build 0)  -->
<svg version="1.1" xmlns="http://www.w3.org/2000/svg" xmlns:xlink="http://www.w3.org/1999/xlink" x="0px" y="0px"
	 viewBox="0 0 1517.14 872" style="enable-background:new 0 0 1517.14 872;" xml:space="preserve">
<style type="text/css">
	.st0{fill:#F3A59F;}
</style>
<g id="BG">
</g>
<g id="Line">
</g>
<g id="Wheel">
</g>
<g id="Shard">
</g>
<g id="Bullet">
</g>
<g id="Big_Ben">
</g>
<g id="Middle">
	<path class="st0" d="M1322.99,720.29H160.22c-1.48,0-2.68-1.46-2.68-2.88c0-1.42,1.2-2.88,2.68-2.88h1162.77
		c1.48,0,2.68,1.46,2.68,2.88C1325.67,718.83,1324.47,720.29,1322.99,720.29z"/>
	<path class="st0" d="M135.21,720.29h-19.65c-1.48,0-2.68-1.46-2.68-2.88c0-1.42,1.2-2.88,2.68-2.88h19.65
		c1.48,0,2.68,1.46,2.68,2.88C137.89,718.83,136.69,720.29,135.21,720.29z"/>
	<path class="st0" d="M1349.78,720.29h-14.29c-1.48,0-2.68-1.46-2.68-2.88c0-1.42,1.2-2.88,2.68-2.88h14.29
		c1.48,0,2.68,1.46,2.68,2.88C1352.46,718.83,1351.26,720.29,1349.78,720.29z"/>
	<path class="st0" d="M1401.58,720.29h-39.29c-1.48,0-2.68-1.46-2.68-2.88c0-1.42,1.2-2.88,2.68-2.88h39.29
		c1.48,0,2.68,1.46,2.68,2.88C1404.26,718.83,1403.06,720.29,1401.58,720.29z"/>
	<path class="st0" d="M404.85,718.03c-1.38,0-2.5-1.12-2.5-2.5V561.7h-46.42v153.83c0,1.38-1.12,2.5-2.5,2.5s-2.5-1.12-2.5-2.5
		V559.2c0-1.38,1.12-2.5,2.5-2.5h51.42c1.38,0,2.5,1.12,2.5,2.5v156.33C407.35,716.91,406.23,718.03,404.85,718.03z"/>
	<path class="st0" d="M754.91,718.03c-1.38,0-2.5-1.12-2.5-2.5V561.7h-46.42v153.83c0,1.38-1.12,2.5-2.5,2.5s-2.5-1.12-2.5-2.5
		V559.2c0-1.38,1.12-2.5,2.5-2.5h51.42c1.38,0,2.5,1.12,2.5,2.5v156.33C757.41,716.91,756.29,718.03,754.91,718.03z"/>
	<path class="st0" d="M424.6,718.03c-1.38,0-2.5-1.12-2.5-2.5V468.72h-14.75v246.81c0,1.38-1.12,2.5-2.5,2.5s-2.5-1.12-2.5-2.5
		V466.22c0-1.38,1.12-2.5,2.5-2.5h19.75c1.38,0,2.5,1.12,2.5,2.5v249.31C427.1,716.91,425.98,718.03,424.6,718.03z"/>
	<path class="st0" d="M703.49,718.03c-1.38,0-2.5-1.12-2.5-2.5V468.72h-14.75v246.81c0,1.38-1.12,2.5-2.5,2.5s-2.5-1.12-2.5-2.5
		V466.22c0-1.38,1.12-2.5,2.5-2.5h19.75c1.38,0,2.5,1.12,2.5,2.5v249.31C705.99,716.91,704.88,718.03,703.49,718.03z"/>
	<path class="st0" d="M683.75,718.03c-1.38,0-2.5-1.12-2.5-2.5V561.7H427.1v153.83c0,1.38-1.12,2.5-2.5,2.5s-2.5-1.12-2.5-2.5V559.2
		c0-1.38,1.12-2.5,2.5-2.5h259.15c1.38,0,2.5,1.12,2.5,2.5v156.33C686.25,716.91,685.13,718.03,683.75,718.03z"/>
	<path class="st0" d="M635.43,718.03c-1.38,0-2.5-1.12-2.5-2.5v-11.5H475.41v11.5c0,1.38-1.12,2.5-2.5,2.5s-2.5-1.12-2.5-2.5v-14
		c0-1.38,1.12-2.5,2.5-2.5h162.52c1.38,0,2.5,1.12,2.5,2.5v14C637.93,716.91,636.81,718.03,635.43,718.03z"/>
	<path class="st0" d="M635.43,622.09H472.91c-1.1,0-2-0.9-2-2v-14c0-1.1,0.9-2,2-2h162.52c1.1,0,2,0.9,2,2v14
		C637.43,621.2,636.54,622.09,635.43,622.09z M474.91,618.09h158.52v-10H474.91V618.09z"/>
	<path class="st0" d="M404.85,561.7h-51.42c-1.38,0-2.5-1.12-2.5-2.5v-44.43c0-1.38,1.12-2.5,2.5-2.5h51.42c1.38,0,2.5,1.12,2.5,2.5
		v44.43C407.35,560.58,406.23,561.7,404.85,561.7z M355.93,556.7h46.42v-39.43h-46.42V556.7z"/>
	<path class="st0" d="M754.91,561.7h-51.42c-1.38,0-2.5-1.12-2.5-2.5v-44.43c0-1.38,1.12-2.5,2.5-2.5h51.42c1.38,0,2.5,1.12,2.5,2.5
		v44.43C757.41,560.58,756.29,561.7,754.91,561.7z M705.99,556.7h46.42v-39.43h-46.42V556.7z"/>
	<path class="st0" d="M472.91,608.09c-0.78,0-1.52-0.46-1.84-1.22c-0.43-1.02,0.04-2.19,1.06-2.62l81.44-34.55
		c0.5-0.21,1.06-0.21,1.57,0l81.08,34.55c1.02,0.43,1.49,1.61,1.06,2.62c-0.43,1.02-1.61,1.49-2.62,1.06l-80.29-34.22l-80.66,34.22
		C473.44,608.04,473.18,608.09,472.91,608.09z"/>
	<path class="st0" d="M635.62,561.7c-1.38,0-2.5-1.12-2.5-2.5v-79.28c-19.58-23.37-48.25-36.75-78.76-36.75c-0.04,0-0.08,0-0.12,0
		c-30.48,0.03-59.09,13.42-78.64,36.75v79.28c0,1.38-1.12,2.5-2.5,2.5s-2.5-1.12-2.5-2.5v-80.18c0-0.58,0.2-1.14,0.57-1.59
		c20.52-24.91,50.79-39.22,83.07-39.26c0.04,0,0.08,0,0.12,0c32.23,0,62.49,14.24,83.04,39.07l0.15,0.18
		c0.37,0.45,0.57,1.01,0.57,1.59v80.18C638.12,560.58,637,561.7,635.62,561.7z"/>
	<path class="st0" d="M564.26,443.77c-1.38,0-2.5-1.12-2.5-2.5v-17.01h-15.59v17.01c0,1.38-1.12,2.5-2.5,2.5s-2.5-1.12-2.5-2.5
		v-19.51c0-1.38,1.12-2.5,2.5-2.5h20.59c1.38,0,2.5,1.12,2.5,2.5v19.51C566.76,442.65,565.64,443.77,564.26,443.77z"/>
	<path class="st0" d="M553.96,423.76c-1.1,0-2-0.9-2-2v-14.77c0-1.1,0.9-2,2-2s2,0.9,2,2v14.77
		C555.96,422.86,555.07,423.76,553.96,423.76z"/>
	<path class="st0" d="M414.73,449.21c-1.1,0-2-0.9-2-2v-14.77c0-1.1,0.9-2,2-2s2,0.9,2,2v14.77
		C416.73,448.31,415.83,449.21,414.73,449.21z"/>
	<path class="st0" d="M480.31,703.53c-1.1,0-2-0.9-2-2v-64.16c0-1.1,0.9-2,2-2s2,0.9,2,2v64.16
		C482.31,702.63,481.41,703.53,480.31,703.53z"/>
	<path class="st0" d="M693.62,449.21c-1.1,0-2-0.9-2-2v-14.77c0-1.1,0.9-2,2-2s2,0.9,2,2v14.77
		C695.62,448.31,694.73,449.21,693.62,449.21z"/>
	<path class="st0" d="M729.2,493.39c-1.1,0-2-0.9-2-2v-14.77c0-1.1,0.9-2,2-2s2,0.9,2,2v14.77
		C731.2,492.49,730.31,493.39,729.2,493.39z"/>
	<path class="st0" d="M379.14,493.39c-1.1,0-2-0.9-2-2v-14.77c0-1.1,0.9-2,2-2s2,0.9,2,2v14.77
		C381.14,492.49,380.25,493.39,379.14,493.39z"/>
	<path class="st0" d="M424.6,468.72c-1.38,0-2.5-1.12-2.5-2.5v-11.6c-1.69-2.41-4.4-3.83-7.37-3.83c-2.98,0-5.69,1.42-7.37,3.83
		v11.6c0,1.38-1.12,2.5-2.5,2.5s-2.5-1.12-2.5-2.5v-12.34c0-0.45,0.12-0.9,0.36-1.29c2.56-4.26,7.05-6.8,12.02-6.8
		c4.97,0,9.46,2.54,12.02,6.8c0.23,0.39,0.36,0.83,0.36,1.29v12.34C427.1,467.61,425.98,468.72,424.6,468.72z"/>
	<path class="st0" d="M703.49,468.72c-1.38,0-2.5-1.12-2.5-2.5v-11.6c-1.69-2.41-4.4-3.83-7.37-3.83c-2.98,0-5.69,1.42-7.37,3.83
		v11.6c0,1.38-1.12,2.5-2.5,2.5s-2.5-1.12-2.5-2.5v-12.34c0-0.45,0.12-0.9,0.36-1.29c2.56-4.26,7.05-6.8,12.02-6.8
		c4.97,0,9.46,2.54,12.02,6.8c0.23,0.39,0.36,0.83,0.36,1.29v12.34C705.99,467.61,704.88,468.72,703.49,468.72z"/>
	<path class="st0" d="M388.59,716.85c-1.1,0-2-0.9-2-2V700.2c-1.69-3.33-4.45-5.3-7.45-5.3s-5.76,1.97-7.45,5.3v14.65
		c0,1.1-0.9,2-2,2s-2-0.9-2-2v-15.11c0-0.29,0.06-0.58,0.19-0.85c2.35-5,6.56-7.99,11.26-7.99s8.91,2.99,11.26,7.99
		c0.12,0.27,0.19,0.56,0.19,0.85v15.11C390.59,715.95,389.7,716.85,388.59,716.85z"/>
	<path class="st0" d="M738.65,716.85c-1.1,0-2-0.9-2-2V700.2c-1.69-3.33-4.45-5.3-7.45-5.3s-5.76,1.97-7.45,5.3v14.65
		c0,1.1-0.9,2-2,2s-2-0.9-2-2v-15.11c0-0.29,0.06-0.58,0.19-0.85c2.35-5,6.56-7.99,11.26-7.99s8.91,2.99,11.26,7.99
		c0.12,0.27,0.19,0.56,0.19,0.85v15.11C740.65,715.95,739.76,716.85,738.65,716.85z"/>
	<path class="st0" d="M393.95,517.16h-29.61c-1.38,0-2.5-1.12-2.5-2.5v-20.82c0-1.38,1.12-2.5,2.5-2.5h29.61
		c1.38,0,2.5,1.12,2.5,2.5v20.82C396.45,516.04,395.33,517.16,393.95,517.16z M366.84,512.16h24.61v-15.82h-24.61V512.16z"/>
	<path class="st0" d="M744.01,517.16H714.4c-1.38,0-2.5-1.12-2.5-2.5v-20.82c0-1.38,1.12-2.5,2.5-2.5h29.61c1.38,0,2.5,1.12,2.5,2.5
		v20.82C746.51,516.04,745.39,517.16,744.01,517.16z M716.9,512.16h24.61v-15.82H716.9V512.16z"/>
	<path class="st0" d="M496.77,703.53c-1.1,0-2-0.9-2-2v-64.16c0-1.1,0.9-2,2-2s2,0.9,2,2v64.16
		C498.77,702.63,497.87,703.53,496.77,703.53z"/>
	<path class="st0" d="M513.22,703.53c-1.1,0-2-0.9-2-2v-64.16c0-1.1,0.9-2,2-2s2,0.9,2,2v64.16
		C515.22,702.63,514.32,703.53,513.22,703.53z"/>
	<path class="st0" d="M529.67,703.53c-1.1,0-2-0.9-2-2v-64.16c0-1.1,0.9-2,2-2s2,0.9,2,2v64.16
		C531.67,702.63,530.78,703.53,529.67,703.53z"/>
	<path class="st0" d="M546.13,703.53c-1.1,0-2-0.9-2-2v-64.16c0-1.1,0.9-2,2-2s2,0.9,2,2v64.16
		C548.13,702.63,547.23,703.53,546.13,703.53z"/>
	<path class="st0" d="M562.58,703.53c-1.1,0-2-0.9-2-2v-64.16c0-1.1,0.9-2,2-2s2,0.9,2,2v64.16
		C564.58,702.63,563.69,703.53,562.58,703.53z"/>
	<path class="st0" d="M579.04,703.53c-1.1,0-2-0.9-2-2v-64.16c0-1.1,0.9-2,2-2s2,0.9,2,2v64.16
		C581.04,702.63,580.14,703.53,579.04,703.53z"/>
	<path class="st0" d="M595.49,703.53c-1.1,0-2-0.9-2-2v-64.16c0-1.1,0.9-2,2-2s2,0.9,2,2v64.16
		C597.49,702.63,596.6,703.53,595.49,703.53z"/>
	<path class="st0" d="M611.95,703.53c-1.1,0-2-0.9-2-2v-64.16c0-1.1,0.9-2,2-2s2,0.9,2,2v64.16
		C613.95,702.63,613.05,703.53,611.95,703.53z"/>
	<path class="st0" d="M628.4,703.53c-1.1,0-2-0.9-2-2v-64.16c0-1.1,0.9-2,2-2s2,0.9,2,2v64.16
		C630.4,702.63,629.51,703.53,628.4,703.53z"/>
	<path class="st0" d="M635.43,505.11H472.91c-1.38,0-2.5-1.12-2.5-2.5s1.12-2.5,2.5-2.5h162.52c1.38,0,2.5,1.12,2.5,2.5
		S636.81,505.11,635.43,505.11z"/>
	<path class="st0" d="M635.43,515.92H472.91c-1.1,0-2-0.9-2-2s0.9-2,2-2h162.52c1.1,0,2,0.9,2,2S636.54,515.92,635.43,515.92z"/>
	<path class="st0" d="M175.09,718.49c-1.38,0-2.5-1.12-2.5-2.5V159.51c0-1.38,1.12-2.5,2.5-2.5s2.5,1.12,2.5,2.5v556.47
		C177.59,717.37,176.48,718.49,175.09,718.49z"/>
	<path class="st0" d="M312.83,718.49c-1.38,0-2.5-1.12-2.5-2.5V159.51c0-1.38,1.12-2.5,2.5-2.5s2.5,1.12,2.5,2.5v556.47
		C315.33,717.37,314.21,718.49,312.83,718.49z"/>
	<path class="st0" d="M289.32,718.49c-1.1,0-2-0.9-2-2V214.01h-86v502.47c0,1.1-0.9,2-2,2s-2-0.9-2-2V212.01c0-1.1,0.9-2,2-2h90
		c1.1,0,2,0.9,2,2v504.47C291.32,717.59,290.43,718.49,289.32,718.49z"/>
	<path class="st0" d="M312.83,183.01H175.09c-1.38,0-2.5-1.12-2.5-2.5s1.12-2.5,2.5-2.5h137.74c1.38,0,2.5,1.12,2.5,2.5
		S314.21,183.01,312.83,183.01z"/>
	<path class="st0" d="M273.96,717.99c-1.1,0-2-0.9-2-2V180.51c0-1.1,0.9-2,2-2s2,0.9,2,2v535.47
		C275.96,717.09,275.07,717.99,273.96,717.99z"/>
	<path class="st0" d="M258.96,717.99c-1.1,0-2-0.9-2-2V180.51c0-1.1,0.9-2,2-2s2,0.9,2,2v535.47
		C260.96,717.09,260.07,717.99,258.96,717.99z"/>
	<path class="st0" d="M243.96,717.99c-1.1,0-2-0.9-2-2V180.51c0-1.1,0.9-2,2-2s2,0.9,2,2v535.47
		C245.96,717.09,245.07,717.99,243.96,717.99z"/>
	<path class="st0" d="M228.96,717.99c-1.1,0-2-0.9-2-2V180.51c0-1.1,0.9-2,2-2s2,0.9,2,2v535.47
		C230.96,717.09,230.07,717.99,228.96,717.99z"/>
	<path class="st0" d="M213.96,717.99c-1.1,0-2-0.9-2-2V180.51c0-1.1,0.9-2,2-2s2,0.9,2,2v535.47
		C215.96,717.09,215.07,717.99,213.96,717.99z"/>
	<path class="st0" d="M1069.37,718.91c-1.38,0-2.5-1.12-2.5-2.5v-25.02c-3.01-6.06-8.03-9.66-13.51-9.66
		c-5.48,0-10.49,3.6-13.5,9.66v25.02c0,1.38-1.12,2.5-2.5,2.5s-2.5-1.12-2.5-2.5v-25.59c0-0.37,0.08-0.73,0.24-1.06
		c3.83-8.16,10.66-13.03,18.27-13.03c7.61,0,14.44,4.87,18.27,13.03c0.16,0.33,0.24,0.69,0.24,1.06v25.59
		C1071.87,717.79,1070.75,718.91,1069.37,718.91z"/>
	<path class="st0" d="M972.65,718.41c-1.1,0-2-0.9-2-2v-14.42c-1.66-3.27-4.37-5.2-7.31-5.2c-2.94,0-5.65,1.94-7.31,5.2v14.42
		c0,1.1-0.9,2-2,2s-2-0.9-2-2v-14.88c0-0.29,0.06-0.58,0.19-0.85c2.32-4.94,6.48-7.89,11.12-7.89c4.65,0,8.8,2.95,11.12,7.89
		c0.12,0.27,0.19,0.56,0.19,0.85v14.88C974.65,717.51,973.76,718.41,972.65,718.41z"/>
	<path class="st0" d="M1014.32,718.41c-1.1,0-2-0.9-2-2v-14.42c-1.66-3.27-4.37-5.2-7.31-5.2c-2.94,0-5.65,1.94-7.31,5.2v14.42
		c0,1.1-0.9,2-2,2s-2-0.9-2-2v-14.88c0-0.29,0.06-0.58,0.19-0.85c2.32-4.94,6.48-7.89,11.12-7.89c4.65,0,8.8,2.95,11.12,7.89
		c0.12,0.27,0.19,0.56,0.19,0.85v14.88C1016.32,717.51,1015.42,718.41,1014.32,718.41z"/>
	<path class="st0" d="M1109.14,718.41c-1.1,0-2-0.9-2-2v-14.42c-1.66-3.27-4.37-5.2-7.31-5.2c-2.94,0-5.65,1.94-7.31,5.2v14.42
		c0,1.1-0.9,2-2,2s-2-0.9-2-2v-14.88c0-0.29,0.06-0.58,0.19-0.85c2.32-4.94,6.48-7.89,11.12-7.89c4.64,0,8.8,2.95,11.12,7.89
		c0.12,0.27,0.19,0.56,0.19,0.85v14.88C1111.14,717.51,1110.24,718.41,1109.14,718.41z"/>
	<path class="st0" d="M1150.8,718.41c-1.1,0-2-0.9-2-2v-14.42c-1.66-3.27-4.37-5.2-7.31-5.2c-2.94,0-5.65,1.94-7.31,5.2v14.42
		c0,1.1-0.9,2-2,2s-2-0.9-2-2v-14.88c0-0.29,0.06-0.58,0.19-0.85c2.32-4.94,6.48-7.89,11.12-7.89c4.64,0,8.8,2.95,11.12,7.89
		c0.12,0.27,0.19,0.56,0.19,0.85v14.88C1152.8,717.51,1151.9,718.41,1150.8,718.41z"/>
	<path class="st0" d="M1072.31,567.36c-1.38,0-2.5-1.12-2.5-2.5v-10.13c-7.82-5.6-25.06-5.6-32.88,0v10.13c0,1.38-1.12,2.5-2.5,2.5
		s-2.5-1.12-2.5-2.5v-11.35c0-0.73,0.32-1.42,0.87-1.9c9.61-8.23,31.52-8.23,41.13,0c0.55,0.48,0.87,1.17,0.87,1.9v11.35
		C1074.81,566.24,1073.69,567.36,1072.31,567.36z"/>
	<path class="st0" d="M1165.83,718.21c-1.38,0-2.5-1.12-2.5-2.5V567.85H943.4v147.86c0,1.38-1.12,2.5-2.5,2.5s-2.5-1.12-2.5-2.5
		V565.35c0-1.38,1.12-2.5,2.5-2.5h224.93c1.38,0,2.5,1.12,2.5,2.5v150.36C1168.33,717.09,1167.21,718.21,1165.83,718.21z"/>
	<path class="st0" d="M1165.83,665.97H940.9c-1.38,0-2.5-1.12-2.5-2.5s1.12-2.5,2.5-2.5h224.93c1.38,0,2.5,1.12,2.5,2.5
		S1167.21,665.97,1165.83,665.97z"/>
	<path class="st0" d="M1165.83,582.21H940.9c-1.38,0-2.5-1.12-2.5-2.5s1.12-2.5,2.5-2.5h224.93c1.38,0,2.5,1.12,2.5,2.5
		S1167.21,582.21,1165.83,582.21z"/>
	<path class="st0" d="M954.7,653.33c-1.1,0-2-0.9-2-2v-59.47c0-1.1,0.9-2,2-2s2,0.9,2,2v59.47
		C956.7,652.43,955.8,653.33,954.7,653.33z"/>
	<path class="st0" d="M971.72,653.33c-1.1,0-2-0.9-2-2v-59.47c0-1.1,0.9-2,2-2s2,0.9,2,2v59.47
		C973.72,652.43,972.82,653.33,971.72,653.33z"/>
	<path class="st0" d="M1044.85,664.71c-1.38,0-2.5-1.12-2.5-2.5v-80.88c0-1.38,1.12-2.5,2.5-2.5s2.5,1.12,2.5,2.5v80.88
		C1047.35,663.59,1046.23,664.71,1044.85,664.71z"/>
	<path class="st0" d="M1061.88,664.71c-1.38,0-2.5-1.12-2.5-2.5v-80.88c0-1.38,1.12-2.5,2.5-2.5s2.5,1.12,2.5,2.5v80.88
		C1064.38,663.59,1063.26,664.71,1061.88,664.71z"/>
	<path class="st0" d="M996.5,653.33c-1.1,0-2-0.9-2-2v-59.47c0-1.1,0.9-2,2-2s2,0.9,2,2v59.47
		C998.5,652.43,997.6,653.33,996.5,653.33z"/>
	<path class="st0" d="M1013.52,653.33c-1.1,0-2-0.9-2-2v-59.47c0-1.1,0.9-2,2-2s2,0.9,2,2v59.47
		C1015.52,652.43,1014.62,653.33,1013.52,653.33z"/>
	<path class="st0" d="M1091.32,653.33c-1.1,0-2-0.9-2-2v-59.47c0-1.1,0.9-2,2-2s2,0.9,2,2v59.47
		C1093.32,652.43,1092.42,653.33,1091.32,653.33z"/>
	<path class="st0" d="M1108.34,653.33c-1.1,0-2-0.9-2-2v-59.47c0-1.1,0.9-2,2-2s2,0.9,2,2v59.47
		C1110.34,652.43,1109.44,653.33,1108.34,653.33z"/>
	<path class="st0" d="M1132.97,653.33c-1.1,0-2-0.9-2-2v-59.47c0-1.1,0.9-2,2-2s2,0.9,2,2v59.47
		C1134.97,652.43,1134.07,653.33,1132.97,653.33z"/>
	<path class="st0" d="M1149.99,653.33c-1.1,0-2-0.9-2-2v-59.47c0-1.1,0.9-2,2-2s2,0.9,2,2v59.47
		C1151.99,652.43,1151.09,653.33,1149.99,653.33z"/>
	
		<rect x="1272.9" y="310.8" transform="matrix(0.3725 -0.928 0.928 0.3725 499.052 1387.3218)" class="st0" width="5" height="27.66"/>
	
		<rect x="1296.06" y="322.13" transform="matrix(0.928 -0.3726 0.3726 0.928 -26.6345 511.4456)" class="st0" width="27.66" height="5"/>
	<path class="st0" d="M1310.54,719.91h-38.5l0.09-2.59l14.36-399.77l11.58-0.02L1310.54,719.91z M1277.23,714.91h28.16
		l-12.15-392.37l-1.91,0L1277.23,714.91z"/>
	<rect x="1288.8" y="179.81" class="st0" width="5" height="54.44"/>
	<rect x="1289.3" y="161.93" class="st0" width="4" height="12.72"/>
	<rect x="1261.6" y="316.58" class="st0" width="62.3" height="5"/>
	<path class="st0" d="M1311.55,303.96h-40.5v-53.78h40.5V303.96z M1276.05,298.96h30.5v-43.78h-30.5V298.96z"/>
	<path class="st0" d="M1303.37,254.13h-24.14v-21.88h24.14V254.13z M1283.23,250.13h16.14v-13.88h-16.14V250.13z"/>
	<polygon class="st0" points="1307.43,319.66 1303.43,319.66 1303.43,303.78 1279.16,303.78 1279.16,319.66 1275.16,319.66 
		1275.16,299.78 1307.43,299.78 	"/>
	<path class="st0" d="M1215.11,718.91c-1.38,0-2.5-1.12-2.5-2.5V464.08c0-1.38,1.12-2.5,2.5-2.5s2.5,1.12,2.5,2.5v252.33
		C1217.61,717.79,1216.49,718.91,1215.11,718.91z"/>
	<path class="st0" d="M1233.97,718.91c-1.38,0-2.5-1.12-2.5-2.5V464.08c0-1.38,1.12-2.5,2.5-2.5s2.5,1.12,2.5,2.5v252.33
		C1236.47,717.79,1235.35,718.91,1233.97,718.91z"/>
	<path class="st0" d="M1214.88,452.67c-1.38,0-2.5-1.12-2.5-2.5v-19.67c0-1.38,1.12-2.5,2.5-2.5s2.5,1.12,2.5,2.5v19.67
		C1217.38,451.55,1216.27,452.67,1214.88,452.67z"/>
	<path class="st0" d="M1233.74,452.67c-1.38,0-2.5-1.12-2.5-2.5v-19.67c0-1.38,1.12-2.5,2.5-2.5s2.5,1.12,2.5,2.5v19.67
		C1236.24,451.55,1235.12,452.67,1233.74,452.67z"/>
	<path class="st0" d="M1250.58,485.24h-52.53c-1.1,0-2-0.9-2-2s0.9-2,2-2h52.53c1.1,0,2,0.9,2,2S1251.68,485.24,1250.58,485.24z"/>
	<path class="st0" d="M1250.58,431.59h-52.53c-1.1,0-2-0.9-2-2s0.9-2,2-2h52.53c1.1,0,2,0.9,2,2S1251.68,431.59,1250.58,431.59z"/>
	<path class="st0" d="M1257.31,476.11h-66c-1.38,0-2.5-1.12-2.5-2.5s1.12-2.5,2.5-2.5h66c1.38,0,2.5,1.12,2.5,2.5
		S1258.69,476.11,1257.31,476.11z"/>
	<path class="st0" d="M1257.31,442.38h-66c-1.38,0-2.5-1.12-2.5-2.5s1.12-2.5,2.5-2.5h66c1.38,0,2.5,1.12,2.5,2.5
		S1258.69,442.38,1257.31,442.38z"/>
	<path class="st0" d="M1224.31,467.82c-0.18,0-0.35-0.02-0.53-0.06l-33-7.14c-1.11-0.24-1.92-1.2-1.97-2.34
		c-0.05-1.14,0.68-2.16,1.77-2.49l33-9.99c0.47-0.14,0.98-0.14,1.45,0l33,9.99c1.09,0.33,1.82,1.36,1.77,2.49
		c-0.05,1.14-0.86,2.1-1.97,2.34l-33,7.14C1224.67,467.8,1224.49,467.82,1224.31,467.82z M1201.28,457.78l23.04,4.98l23.04-4.98
		l-23.04-6.97L1201.28,457.78z"/>
	<path class="st0" d="M1231.05,422.2h-13.47c-0.57,0-1.12-0.25-1.5-0.67c-0.38-0.43-0.56-1-0.49-1.57l6.51-52.79
		c0.12-1,0.97-1.75,1.98-1.75c0,0,0.01,0,0.01,0c1,0,1.85,0.74,1.98,1.74l6.96,52.79c0.08,0.57-0.1,1.15-0.48,1.58
		C1232.17,421.96,1231.62,422.2,1231.05,422.2z M1219.84,418.2h8.93l-4.61-34.98L1219.84,418.2z"/>
	<path class="st0" d="M1224.09,360.53c-1.1,0-2-0.9-2-2v-16.97c0-1.1,0.9-2,2-2s2,0.9,2,2v16.97
		C1226.09,359.64,1225.19,360.53,1224.09,360.53z"/>
	<path class="st0" d="M904.89,719.17c-1.38,0-2.5-1.12-2.5-2.5v-14.63H791.91v14.63c0,1.38-1.12,2.5-2.5,2.5s-2.5-1.12-2.5-2.5
		v-17.13c0-1.38,1.12-2.5,2.5-2.5h115.48c1.38,0,2.5,1.12,2.5,2.5v17.13C907.39,718.05,906.27,719.17,904.89,719.17z"/>
	<path class="st0" d="M863.62,702.04c-1.38,0-2.5-1.12-2.5-2.5v-10.12h-27.89v10.12c0,1.38-1.12,2.5-2.5,2.5s-2.5-1.12-2.5-2.5
		v-12.62c0-1.38,1.12-2.5,2.5-2.5h32.89c1.38,0,2.5,1.12,2.5,2.5v12.62C866.12,700.92,865,702.04,863.62,702.04z"/>
	<path class="st0" d="M847.18,676.35C847.18,676.35,847.18,676.35,847.18,676.35c-10.87,0-21.24-4.66-28.46-12.78l-7.41-8.34
		c-0.65-0.74-0.81-1.79-0.41-2.68c0.4-0.9,1.3-1.48,2.28-1.48h68c0.98,0,1.88,0.58,2.28,1.48c0.4,0.9,0.24,1.95-0.41,2.68
		l-7.41,8.34l-1.87-1.66l1.87,1.66C868.42,671.69,858.04,676.35,847.18,676.35z M818.74,656.07l3.71,4.18
		c6.27,7.06,15.28,11.1,24.72,11.1s18.45-4.05,24.72-11.1l0,0l3.71-4.18H818.74z"/>
	<path class="st0" d="M847.18,643.76c-5.07,0-9.91-2.17-13.28-5.96l-3.18-3.58c-0.65-0.74-0.81-1.79-0.41-2.68
		c0.4-0.9,1.3-1.48,2.28-1.48h29.17c0.98,0,1.88,0.58,2.28,1.48c0.4,0.9,0.24,1.95-0.41,2.69l-3.18,3.58
		C857.08,641.58,852.25,643.76,847.18,643.76z M838.19,635.05c2.38,2.36,5.61,3.7,8.99,3.7c3.38,0,6.61-1.34,8.99-3.7H838.19z
		 M857.37,635.05l1.21,1.08L857.37,635.05z"/>
	<path class="st0" d="M847.15,689.42c-1.38,0-2.5-1.12-2.5-2.5v-12.78c0-1.38,1.12-2.5,2.5-2.5s2.5,1.12,2.5,2.5v12.78
		C849.65,688.3,848.53,689.42,847.15,689.42z"/>
	<path class="st0" d="M847.18,654.83c-1.38,0-2.5-1.12-2.5-2.5v-11.08c0-1.38,1.12-2.5,2.5-2.5s2.5,1.12,2.5,2.5v11.08
		C849.68,653.71,848.56,654.83,847.18,654.83z"/>
	<path class="st0" d="M896.35,692.2c-0.02,0-0.04,0-0.07,0c-1.1-0.04-1.97-0.96-1.93-2.06c0.02-0.72,0.04-1.44,0.06-2.15
		c0.03-1.1,0.95-2,2.05-1.94c1.1,0.03,1.97,0.95,1.94,2.05c-0.02,0.72-0.04,1.44-0.06,2.17C898.31,691.35,897.43,692.2,896.35,692.2
		z M896.59,681.52c-0.01,0-0.02,0-0.03,0c-1.1-0.01-1.99-0.92-1.97-2.03c0.02-1.73,0.04-3.43,0.04-5.09c0-1.1,0.9-1.99,2-1.99
		c0,0,0,0,0.01,0c1.1,0,2,0.9,1.99,2.01c0,1.67-0.02,3.38-0.04,5.13C898.57,680.64,897.68,681.52,896.59,681.52z M896.57,667.89
		c-1.09,0-1.98-0.87-2-1.97c-0.03-1.74-0.07-3.43-0.12-5.08c-0.03-1.1,0.83-2.03,1.94-2.06c0.02,0,0.04,0,0.06,0
		c1.08,0,1.97,0.86,2,1.94c0.05,1.67,0.09,3.38,0.12,5.13c0.02,1.1-0.86,2.01-1.97,2.03C896.6,667.89,896.59,667.89,896.57,667.89z
		 M896.09,654.28c-1.05,0-1.93-0.82-2-1.88c-0.1-1.74-0.21-3.43-0.34-5.06c-0.08-1.1,0.74-2.06,1.84-2.15
		c1.1-0.07,2.06,0.74,2.15,1.84c0.13,1.65,0.24,3.37,0.35,5.14c0.06,1.1-0.78,2.05-1.88,2.11
		C896.16,654.28,896.13,654.28,896.09,654.28z M894.92,640.71c-1,0-1.86-0.75-1.98-1.76c-0.21-1.74-0.44-3.42-0.68-5
		c-0.17-1.09,0.58-2.11,1.67-2.28c1.08-0.17,2.11,0.58,2.28,1.67c0.25,1.62,0.48,3.35,0.7,5.12c0.13,1.1-0.65,2.09-1.75,2.22
		C895.08,640.7,895,640.71,894.92,640.71z M892.64,627.28c-0.91,0-1.73-0.62-1.95-1.55c-0.39-1.7-0.82-3.32-1.28-4.81
		c-0.32-1.06,0.27-2.17,1.33-2.5c1.05-0.32,2.17,0.27,2.5,1.33c0.48,1.58,0.93,3.28,1.35,5.07c0.25,1.08-0.42,2.15-1.5,2.4
		C892.95,627.26,892.79,627.28,892.64,627.28z M853.14,624.61c-0.38,0-0.76-0.11-1.1-0.33c-0.92-0.61-1.18-1.85-0.57-2.77
		c0.05-0.07,1.21-1.83,3.15-4.27c0.69-0.87,1.94-1.01,2.81-0.32c0.87,0.69,1.01,1.95,0.32,2.81c-1.82,2.29-2.93,3.97-2.95,3.99
		C854.42,624.3,853.79,624.61,853.14,624.61z M888.18,614.46c-0.72,0-1.41-0.38-1.77-1.06c-0.8-1.51-1.67-2.81-2.58-3.86
		c-0.72-0.84-0.63-2.1,0.21-2.82s2.1-0.63,2.82,0.21c1.1,1.28,2.14,2.82,3.08,4.6c0.52,0.98,0.15,2.19-0.83,2.71
		C888.82,614.38,888.5,614.46,888.18,614.46z M861.89,614.13c-0.52,0-1.04-0.2-1.43-0.6c-0.77-0.79-0.76-2.06,0.04-2.83
		c1.35-1.31,2.7-2.5,4.01-3.52c0.87-0.68,2.13-0.52,2.81,0.35c0.68,0.87,0.52,2.13-0.35,2.81c-1.2,0.93-2.43,2.02-3.68,3.23
		C862.89,613.94,862.39,614.13,861.89,614.13z M873.13,606.62c-0.85,0-1.64-0.55-1.91-1.4c-0.33-1.05,0.25-2.18,1.31-2.51
		c2.03-0.64,4-0.85,5.87-0.62c1.1,0.13,1.88,1.13,1.75,2.22c-0.13,1.1-1.14,1.88-2.22,1.75c-1.31-0.16-2.71,0-4.19,0.47
		C873.53,606.59,873.33,606.62,873.13,606.62z"/>
	<path class="st0" d="M797.92,692.2c-1.08,0-1.96-0.85-2-1.94c-0.02-0.73-0.04-1.46-0.06-2.17c-0.03-1.1,0.84-2.02,1.94-2.05
		c1.13-0.06,2.02,0.84,2.05,1.94c0.02,0.71,0.04,1.43,0.06,2.15c0.04,1.1-0.83,2.03-1.93,2.06
		C797.97,692.2,797.94,692.2,797.92,692.2z M797.68,681.52c-1.09,0-1.98-0.88-2-1.97c-0.02-1.75-0.04-3.46-0.04-5.13
		c0-1.1,0.89-2,1.99-2.01c0,0,0,0,0.01,0c1.1,0,2,0.89,2,1.99c0,1.66,0.02,3.36,0.04,5.09c0.01,1.1-0.87,2.01-1.97,2.03
		C797.7,681.52,797.69,681.52,797.68,681.52z M797.7,667.89c-0.01,0-0.02,0-0.03,0c-1.1-0.02-1.99-0.93-1.97-2.03
		c0.03-1.76,0.07-3.47,0.12-5.13c0.03-1.08,0.92-1.94,2-1.94c0.02,0,0.04,0,0.06,0c1.1,0.03,1.97,0.96,1.94,2.06
		c-0.05,1.65-0.09,3.34-0.12,5.08C799.68,667.02,798.79,667.89,797.7,667.89z M798.19,654.28c-0.04,0-0.08,0-0.12,0
		c-1.1-0.06-1.95-1.01-1.88-2.11c0.1-1.77,0.22-3.48,0.35-5.14c0.08-1.1,1.04-1.92,2.15-1.84c1.1,0.08,1.92,1.05,1.84,2.15
		c-0.13,1.63-0.24,3.32-0.34,5.06C800.12,653.46,799.24,654.28,798.19,654.28z M799.36,640.71c-0.08,0-0.16,0-0.24-0.01
		c-1.1-0.13-1.88-1.13-1.75-2.22c0.21-1.78,0.45-3.5,0.7-5.12c0.17-1.09,1.2-1.84,2.28-1.67c1.09,0.17,1.84,1.19,1.67,2.28
		c-0.24,1.58-0.47,3.26-0.68,5C801.22,639.96,800.35,640.71,799.36,640.71z M801.63,627.28c-0.15,0-0.3-0.02-0.45-0.05
		c-1.08-0.25-1.75-1.32-1.5-2.4c0.42-1.79,0.87-3.49,1.35-5.07c0.32-1.06,1.44-1.66,2.5-1.33c1.06,0.32,1.65,1.44,1.33,2.5
		c-0.45,1.49-0.88,3.11-1.28,4.81C803.36,626.66,802.54,627.28,801.63,627.28z M841.13,624.61c-0.65,0-1.29-0.32-1.67-0.9
		c-0.01-0.02-1.12-1.69-2.95-3.99c-0.69-0.86-0.54-2.12,0.32-2.81c0.86-0.69,2.12-0.54,2.81,0.32c1.94,2.44,3.1,4.2,3.15,4.27
		c0.61,0.92,0.35,2.16-0.57,2.77C841.9,624.5,841.51,624.61,841.13,624.61z M806.09,614.46c-0.32,0-0.64-0.08-0.94-0.23
		c-0.97-0.52-1.34-1.73-0.83-2.71c0.94-1.77,1.98-3.32,3.08-4.6c0.72-0.83,1.99-0.93,2.82-0.21c0.84,0.72,0.93,1.99,0.21,2.82
		c-0.91,1.05-1.78,2.35-2.58,3.86C807.5,614.07,806.81,614.46,806.09,614.46z M832.39,614.13c-0.5,0-1.01-0.19-1.4-0.57
		c-1.24-1.21-2.48-2.3-3.68-3.23c-0.87-0.68-1.03-1.93-0.35-2.81c0.68-0.87,1.93-1.03,2.81-0.35c1.32,1.02,2.67,2.21,4.01,3.52
		c0.79,0.77,0.81,2.04,0.04,2.83C833.43,613.93,832.91,614.13,832.39,614.13z M821.14,606.62c-0.2,0-0.4-0.03-0.6-0.09
		c-1.49-0.47-2.88-0.62-4.19-0.47c-1.08,0.13-2.09-0.65-2.22-1.75c-0.13-1.1,0.65-2.09,1.75-2.22c1.88-0.23,3.84-0.01,5.87,0.62
		c1.05,0.33,1.64,1.46,1.31,2.51C822.78,606.07,821.99,606.62,821.14,606.62z"/>
	<path class="st0" d="M847.15,619.26c-0.81,0-1.57-0.5-1.87-1.3c-0.01-0.02-0.71-1.88-1.91-4.66c-0.44-1.01,0.03-2.19,1.04-2.63
		c1.01-0.44,2.19,0.03,2.63,1.04c1.25,2.88,1.96,4.77,1.99,4.85c0.39,1.04-0.14,2.19-1.17,2.57
		C847.62,619.22,847.39,619.26,847.15,619.26z M841.57,606.78c-0.73,0-1.43-0.4-1.78-1.09c-0.79-1.55-1.6-3.04-2.39-4.41
		c-0.55-0.96-0.22-2.18,0.73-2.73c0.95-0.55,2.18-0.22,2.73,0.73c0.83,1.43,1.67,2.98,2.49,4.59c0.5,0.98,0.11,2.19-0.87,2.69
		C842.19,606.71,841.88,606.78,841.57,606.78z M834.45,595.15c-0.6,0-1.2-0.27-1.59-0.79c-1.07-1.41-2.14-2.63-3.17-3.64
		c-0.79-0.77-0.8-2.04-0.03-2.83c0.77-0.79,2.04-0.8,2.83-0.03c1.17,1.14,2.36,2.51,3.55,4.07c0.67,0.88,0.5,2.13-0.38,2.8
		C835.3,595.02,834.87,595.15,834.45,595.15z"/>
	<path class="st0" d="M847.15,619.26c-0.23,0-0.47-0.04-0.7-0.13c-1.03-0.39-1.56-1.54-1.17-2.57c0.03-0.08,0.74-1.97,1.99-4.85
		c0.44-1.01,1.62-1.48,2.63-1.04c1.01,0.44,1.48,1.62,1.04,2.63c-1.2,2.77-1.9,4.64-1.91,4.66
		C848.73,618.76,847.96,619.26,847.15,619.26z M852.74,606.78c-0.31,0-0.62-0.07-0.91-0.22c-0.98-0.5-1.37-1.71-0.87-2.69
		c0.83-1.61,1.66-3.15,2.49-4.59c0.55-0.96,1.77-1.29,2.73-0.73c0.96,0.55,1.29,1.77,0.73,2.73c-0.79,1.38-1.6,2.86-2.39,4.41
		C854.16,606.39,853.46,606.78,852.74,606.78z M859.85,595.15c-0.42,0-0.85-0.13-1.21-0.41c-0.88-0.67-1.05-1.92-0.38-2.8
		c1.19-1.56,2.38-2.93,3.55-4.07c0.79-0.77,2.05-0.76,2.83,0.03c0.77,0.79,0.76,2.05-0.03,2.83c-1.03,1.01-2.09,2.24-3.17,3.64
		C861.05,594.88,860.46,595.15,859.85,595.15z"/>
</g>
</svg>
