<svg width="800" height="187" viewBox="0 0 800 187" fill="none" xmlns="http://www.w3.org/2000/svg">
<path d="M267.919 136.228C248.723 136.228 237.872 119.536 237.872 102.013C237.872 84.4898 248.723 67.7981 267.919 67.7981C271.866 67.7981 275.76 68.7032 279.307 70.4397C282.853 72.1762 285.947 74.7021 288.368 77.8173V45.2654H307.144V134.986H288.368V125.387C286.095 128.818 282.99 131.618 279.338 133.523C275.686 135.417 271.613 136.354 267.498 136.238H267.919V136.228ZM686.074 117.031C687.989 116.947 689.884 117.442 691.515 118.441C693.146 119.441 694.441 120.915 695.23 122.662C696.019 124.409 696.272 126.345 695.946 128.24C695.619 130.123 694.746 131.881 693.42 133.26C692.094 134.638 690.389 135.596 688.515 136.007C686.642 136.407 684.695 136.249 682.916 135.533C681.138 134.817 679.612 133.597 678.538 132.007C677.465 130.418 676.886 128.545 676.886 126.629C676.886 124.082 677.896 121.641 679.696 119.841C681.496 118.041 683.937 117.031 686.484 117.031H686.063H686.074ZM774.542 136.228C764.207 136.27 754.177 132.734 746.168 126.208L754.514 113.684C760.397 118.631 767.711 121.557 775.384 122.03C780.393 122.03 783.308 119.946 783.308 116.61C783.308 111.19 766.617 108.264 762.439 106.591C754.093 102.834 749.915 98.2451 749.915 89.0679C749.915 75.2915 761.186 68.198 774.121 68.198C782.898 68.177 791.475 70.7975 798.748 75.7124L791.654 88.6469C786.329 85.0265 780.141 82.8585 773.71 82.3849C769.122 82.3849 766.617 84.0583 766.617 87.3945C766.617 91.5727 781.225 95.7403 785.813 97.4137C794.159 100.75 800 105.76 800 114.937C800 129.966 788.728 136.217 774.963 136.217H774.542V136.228ZM716.952 61.9465V45.2549H736.98V61.9465H716.952ZM715.289 155.014C712.479 155.066 709.68 154.782 706.944 154.182V139.574C708.322 139.837 709.722 139.974 711.122 139.995C715.3 139.995 717.794 137.491 717.794 132.481V69.0505H736.159V133.733C736.159 147.92 729.487 155.014 715.289 155.014ZM645.597 136.238C635.262 136.28 625.232 132.744 617.223 126.219L625.569 113.695C631.452 118.641 638.767 121.567 646.439 122.041C651.449 122.041 653.953 119.957 653.953 116.621C653.953 111.201 638.514 108.696 633.083 106.601C625.159 102.844 620.559 98.2557 620.559 89.0784C620.559 75.302 631.831 68.2086 644.766 68.2086C653.543 68.1875 662.12 70.8081 669.393 75.723L662.299 88.6574C656.984 85.016 650.785 82.8585 644.355 82.3954C639.766 82.3954 637.262 84.0688 637.262 87.405C637.262 91.5832 651.87 95.7509 656.458 97.4242C664.804 100.76 670.645 105.77 670.645 114.947C670.645 129.976 659.373 136.228 645.607 136.228L645.597 136.238ZM540.437 154.603V69.04H559.213V78.6382C561.486 75.2073 564.591 72.4078 568.243 70.5134C571.895 68.619 575.968 67.6823 580.083 67.7981C599.279 67.7981 609.709 84.4898 609.709 102.013C609.709 119.536 599.279 136.228 579.662 136.228C575.715 136.228 571.821 135.323 568.274 133.586C564.728 131.849 561.633 129.324 559.213 126.208V154.582H540.437V154.603ZM575.073 120.388C585.092 120.388 590.933 111.622 590.933 102.023C590.933 92.4251 585.092 83.6583 575.073 83.6583C565.054 83.6583 559.213 92.8356 559.213 102.023C559.213 111.211 565.054 120.388 575.073 120.388ZM492.446 136.659C472.418 136.659 456.558 122.472 456.558 102.023C456.611 97.4032 457.59 92.8356 459.431 88.6048C461.273 84.3635 463.946 80.5431 467.293 77.3542C470.64 74.1654 474.586 71.6816 478.901 70.0398C483.227 68.398 487.826 67.6402 492.446 67.8086C501.581 67.8086 510.338 71.4395 516.789 77.891C523.241 84.3424 526.871 93.1092 526.871 102.234C526.871 111.359 523.241 120.125 516.789 126.577C510.327 133.028 501.571 136.659 492.446 136.659ZM492.446 120.388C494.825 120.462 497.182 120.02 499.371 119.104C501.56 118.189 503.539 116.821 505.16 115.084C506.78 113.348 508.012 111.285 508.77 109.033C509.527 106.78 509.79 104.391 509.559 102.034C509.612 99.7291 509.212 97.4453 508.391 95.2983C507.559 93.1513 506.317 91.1833 504.728 89.5204C503.139 87.8576 501.234 86.521 499.129 85.5843C497.024 84.6582 494.751 84.1425 492.457 84.0898C490.12 84.0267 487.794 84.4477 485.637 85.3422C483.479 86.2368 481.522 87.5629 479.912 89.2573C478.301 90.9517 477.06 92.9619 476.27 95.1615C475.481 97.3611 475.165 99.708 475.344 102.034C475.228 104.37 475.586 106.707 476.397 108.896C477.207 111.095 478.438 113.106 480.027 114.821C481.617 116.536 483.543 117.905 485.679 118.862C487.816 119.82 490.12 120.336 492.457 120.388H492.446ZM412.324 135.417L386.034 69.061H406.062L420.67 113.295L435.688 69.061H455.306L429.437 135.828L412.324 135.407V135.417ZM352.651 136.67C348.073 136.849 343.505 136.07 339.243 134.396C334.98 132.712 331.118 130.166 327.898 126.903C324.677 123.64 322.172 119.746 320.541 115.474C318.91 111.19 318.184 106.623 318.426 102.044C318.426 83.2689 331.36 67.8297 350.978 67.8297C371.847 67.8297 383.108 83.6899 383.108 103.718V108.727H337.201C337.896 112.369 339.885 115.642 342.8 117.947C345.715 120.241 349.357 121.42 353.061 121.251C359.008 121.167 364.701 118.778 368.922 114.579L379.772 124.177C376.531 128.229 372.395 131.471 367.69 133.639C362.986 135.817 357.829 136.859 352.651 136.691V136.67ZM336.791 97.0243H364.754C363.923 89.0994 359.334 82.8374 350.978 82.8374C342.621 82.8374 338.043 89.0994 336.791 97.0243ZM272.939 120.388C282.958 120.388 288.8 111.622 288.8 102.023C288.8 92.4251 282.958 83.6583 272.939 83.6583C262.92 83.6583 256.248 92.4251 256.248 102.023C256.248 111.622 262.51 120.388 272.939 120.388Z" fill="white"/>
<path fill-rule="evenodd" clip-rule="evenodd" d="M182.366 0H4.17818C3.06259 0 1.99963 0.442024 1.22083 1.22083C0.442024 1.99963 0 3.06259 0 4.17818V181.956C0 183.061 0.442024 184.124 1.22083 184.913C1.99963 185.692 3.06259 186.134 4.16765 186.134H182.366C183.471 186.134 184.534 185.692 185.313 184.913C186.092 184.135 186.534 183.072 186.534 181.956V4.17818C186.534 3.07312 186.092 2.01016 185.313 1.23135C184.534 0.452548 183.471 0.0105244 182.366 0.0105244V0Z" fill="#F8EC25"/>
<path d="M158.549 109.327C146.636 97.4242 127.26 97.4242 115.347 109.327L105.654 119.02L95.9608 109.327C84.0472 97.4242 64.6718 97.4137 52.7582 109.327C46.9909 115.095 43.8125 122.767 43.8125 130.923C43.8125 139.08 46.9909 146.752 52.7582 152.519C58.5256 158.287 66.1978 161.465 74.3542 161.465C82.5106 161.465 90.1829 158.287 95.9503 152.519L105.643 142.826L115.336 152.519C121.104 158.287 128.776 161.465 136.932 161.465C145.089 161.465 152.761 158.287 158.528 152.519C164.296 146.752 167.474 139.08 167.474 130.923C167.474 122.767 164.296 115.095 158.528 109.327H158.549ZM84.0577 140.616C81.4687 143.205 78.0273 144.626 74.3648 144.626C70.7023 144.626 67.2608 143.205 64.6718 140.606C62.0828 138.017 60.662 134.575 60.662 130.913C60.662 127.25 62.0828 123.809 64.6718 121.22C67.345 118.547 70.8496 117.21 74.3648 117.21C77.8799 117.21 81.3845 118.547 84.0577 121.22L93.7507 130.913L84.0577 140.606V140.616ZM146.646 140.616C144.057 143.205 140.616 144.626 136.953 144.626C133.291 144.626 129.849 143.205 127.26 140.616L117.567 130.923L127.26 121.23C132.607 115.884 141.3 115.884 146.646 121.23C149.235 123.819 150.656 127.261 150.656 130.923C150.656 134.586 149.235 138.027 146.646 140.616Z" fill="black"/>
</svg>
