<svg id="Layer_1" data-name="Layer 1" xmlns="http://www.w3.org/2000/svg" viewBox="0 0 728.19 329.29"><defs><style>.cls-1{fill:#d1348c;}</style></defs><title>React_Norway_Logotye</title><path class="cls-1" d="M165.57,258.77a18.85,18.85,0,0,1-5.12-6.66c-7.78,6-15.4,10.31-22.3,12.75h0c-7.85,2.77-14.1,2.85-17.88.67-8-4.64-11.38-22.54-6.83-46.56q.82-4.26,1.86-8.46a256.1,256.1,0,0,0,34.36,5q4.41,6.21,9,12V205.18l-3-.18q-6.6-9.65-12.46-19.77t-10.87-20.54q5-10.47,10.84-20.55h0l.69-1.18a18.93,18.93,0,0,1-4.32-4,18.35,18.35,0,0,1-2.89-5.22c-1,1.64-2,3.28-2.91,4.94q-3.75,6.5-7.2,13.18c-3.17-7.52-5.89-14.92-8.1-22.06,5.48-1.23,11.24-2.28,17.2-3.16a18.84,18.84,0,0,1,.42-3c.65-2.81,1.35-5.61,2.07-8.39-7.89,1-15.47,2.39-22.64,4q-1-3.9-1.75-7.85h0c-4.79-24.49-1.61-43,6.4-47.6,6.31-3.65,18.27-.75,32.11,8.16a18.1,18.1,0,0,1,11.64-5.23c-19.25-14-37.51-19.12-49.21-12.35C101.36,62.14,97.42,85,103,113.56q.84,4.25,1.89,8.44-4.91,1.4-9.44,3c-27,9.41-44.23,24.16-44.23,39.46,0,15.8,18.51,31.64,46.62,41.25q3.42,1.17,6.9,2.16c-.76,3-1.42,6-2,9.1-5.34,28.08-1.17,50.38,12.08,58,12.43,7.17,32.52,1.14,52.86-14.68A17.37,17.37,0,0,1,165.57,258.77ZM126.5,177.5q3.47,6.67,7.23,13.19t8,13.09A232.48,232.48,0,0,1,118.24,200C120.49,192.73,123.27,185.18,126.5,177.5Zm-18.84,19.85c-2.11-.61-4.21-1.26-6.29-2-12.43-4.25-22.7-9.77-29.73-15.79-6.33-5.42-9.52-10.8-9.52-15.16,0-9.28,13.84-21.12,36.92-29.17,2.9-1,5.83-1.93,8.78-2.76a262.39,262.39,0,0,0,12.42,32.2A265.59,265.59,0,0,0,107.66,197.35Z"/><path class="cls-1" d="M260.84,124.75h0c-2.71-.93-5.45-1.79-8.2-2.59.45-1.85.88-3.72,1.27-5.59,6.21-30.16,2.15-54.45-11.72-62.45-11.64-6.71-29.76-1.42-48.83,12.82a18,18,0,0,1,10.8,5.69c14.08-9.49,26.29-12.71,32.59-9.08,8.53,4.93,11.86,24.78,6.49,50.82q-.53,2.53-1.14,5.07a247,247,0,0,0-24.64-4.34q1,3.83,1.91,7.65a20.69,20.69,0,0,1,.57,3.67c6.68,1,13.12,2.13,19.22,3.52A228.31,228.31,0,0,1,231,151.89q-3.52-6.7-7.33-13.26h0c-1.34-2.33-2.72-4.63-4.12-6.92a17.74,17.74,0,0,1-3.42,7.25,18.32,18.32,0,0,1-3.07,3.09l1.18,2q5.83,10,11,20.46-5.1,10.5-10.95,20.63h0q-5.79,10.07-12.23,19.73c-1.67.12-3.35.23-5,.32,0,8.62,0,17,0,25.19q5.61-7.08,11.13-15.07A253.57,253.57,0,0,0,242.65,210c.52,2.1,1,4.16,1.39,6.17h0c2.55,12.89,2.91,24.54,1.22,33.65-1.52,8.18-4.57,13.64-8.35,15.83-7.65,4.43-23.61-.86-41.12-15.16a19.56,19.56,0,0,1-3.63,6.15,19.13,19.13,0,0,1-2.83,2.65c20.54,16.63,40.47,23.06,53,15.78,13.68-7.92,18.12-31.87,12.35-61-.44-2.23-1-4.5-1.53-6.82q2.43-.72,4.74-1.48c29.23-9.68,48.25-25.34,48.25-41.35C306.17,149.08,288.38,134.23,260.84,124.75Zm-44.95,78.84q4-6.41,7.82-13t7.4-13.51h0a233.73,233.73,0,0,1,8.56,22.43A231.32,231.32,0,0,1,215.89,203.59Zm38.62-8.15h0c-1.4.46-2.83.91-4.29,1.34a253.91,253.91,0,0,0-12.91-32.3,254.83,254.83,0,0,0,12.41-31.82q3.92,1.13,7.58,2.39c23.59,8.12,38,20.13,38,29.38C295.28,174.28,279.74,187.08,254.51,195.44Z"/><path class="cls-1" d="M183.51,149.68a13.33,13.33,0,0,0-10.55-.41c-.1-.16-.2-.25-.19-.32.71-3.44-1.83-5.43-3.42-7.89a5.66,5.66,0,0,0-5.58-2.81c-3.24.15-6.5,0-9.75,0a10.64,10.64,0,0,1-10.4-12.81c1.73-7.54,3.86-15,5.84-22.46,1.71-6.47,3.46-12.92,5.18-19.39,1.58-5.94,4.84-8.93,11-9.1,8.55-.22,17.1-.12,25.65.09a10.26,10.26,0,0,1,9.55,7.83c3.7,14,7.46,28.08,10.92,42.19A10.71,10.71,0,0,1,201,138.31c-3.6-.13-7.21-.07-10.8,0a3.4,3.4,0,0,0-2,1,17.4,17.4,0,0,0-2,2.45C184.6,144,182.12,146,183.51,149.68Zm-5.68-19.85h21.31c2.12,0,3.35-1.08,3.37-2.94s-1.23-3-3.44-3q-21.3,0-42.61,0c-2.07,0-3.56,1.29-3.53,3s1.49,3,3.6,3Z"/><path class="cls-1" d="M166.42,202.74V161.93c0-6.75,4.84-11.74,11.37-11.74s11.4,5,11.4,11.75q0,40.88,0,81.75a11.47,11.47,0,0,1-10.06,11.57,11.31,11.31,0,0,1-12.54-9.34,12.69,12.69,0,0,1-.16-2.39Q166.41,223.15,166.42,202.74Z"/><path class="cls-1" d="M365.17,79.15q11.31,0,17.74,5.18t6.43,14.3a14.39,14.39,0,0,1-2.69,8.72,18.78,18.78,0,0,1-7.89,6c3.92,1.16,6.75,3.08,8.46,5.78a18.23,18.23,0,0,1,2.58,10v3.38a5.76,5.76,0,0,0,.87,3.4,3.87,3.87,0,0,0,2.87,1.43l1.65.23v8H388.3q-6.53,0-9.17-3.51a14.65,14.65,0,0,1-2.65-9.08V129.2a10.68,10.68,0,0,0-2.58-7.59,9.88,9.88,0,0,0-7.28-2.9h-10.9v17.52l7.12,1.37v8H335.33v-8l7.07-1.37V88.55l-7.07-1.37v-8h29.84Zm-9.45,29.29h9.22q5.56,0,8.35-2.37a8.5,8.5,0,0,0,2.78-6.84,9.48,9.48,0,0,0-2.76-7.14c-1.84-1.78-4.56-2.67-8.14-2.67h-9.45Z"/><path class="cls-1" d="M423.52,146.54q-10.68,0-17.07-6.85t-6.38-17.38v-1.82q0-11,6-18.11t16.22-7.08q10,0,15.51,6t5.52,16.28v7.26H413.89l-.09.27a12.86,12.86,0,0,0,3.26,8,10.17,10.17,0,0,0,7.87,3.15,25.79,25.79,0,0,0,7.35-.89,33.53,33.53,0,0,0,6.38-2.81l3.61,8.22a26.43,26.43,0,0,1-7.92,4.06A33.82,33.82,0,0,1,423.52,146.54Zm-1.19-41a6.93,6.93,0,0,0-5.84,2.83,14.74,14.74,0,0,0-2.65,7.43l.14.23h16.33v-1.18a10.72,10.72,0,0,0-2-6.78Q426.35,105.57,422.33,105.57Z"/><path class="cls-1" d="M481.09,145.58a23.93,23.93,0,0,1-.95-2.53,18.87,18.87,0,0,1-.64-2.62,18.35,18.35,0,0,1-5.77,4.42,17.22,17.22,0,0,1-7.78,1.69q-7.26,0-11.52-3.95t-4.27-10.74a12.21,12.21,0,0,1,5.57-10.72q5.56-3.8,16.33-3.79h6.8V112.5a7.31,7.31,0,0,0-2.05-5.52c-1.37-1.3-3.4-2-6.07-2a14.32,14.32,0,0,0-4.06.53,10.52,10.52,0,0,0-2.88,1.25l-.86,5.29h-10l0-11A37.86,37.86,0,0,1,461.32,97,30.41,30.41,0,0,1,471.6,95.3q9.18,0,14.9,4.5t5.73,12.79V133c0,.76,0,1.47,0,2.14a14.62,14.62,0,0,0,.16,1.92l4.06.55v8Zm-11.54-8.9a11.54,11.54,0,0,0,5.48-1.3,10.47,10.47,0,0,0,3.83-3.26v-7.53h-6.8c-2.83,0-5,.67-6.43,2a6.21,6.21,0,0,0-2.19,4.77,4.93,4.93,0,0,0,1.62,3.92A6.6,6.6,0,0,0,469.55,136.68Z"/><path class="cls-1" d="M524.16,136.32a7.85,7.85,0,0,0,5.71-2.08A7.38,7.38,0,0,0,532,128.7h12l.14.27a15.42,15.42,0,0,1-5.61,12.53,21.18,21.18,0,0,1-14.42,5q-11,0-17-7t-6-17.93v-1.37q0-10.91,6.13-17.93t17.5-7a30.47,30.47,0,0,1,10.72,1.78,21.29,21.29,0,0,1,7.9,5l.18,13.19H532.79l-2.19-7.71a8.33,8.33,0,0,0-2.47-1.44,9.08,9.08,0,0,0-3.33-.57q-5.65,0-8,4.11a21.28,21.28,0,0,0-2.33,10.58v1.37q0,6.62,2.14,10.65T524.16,136.32Z"/><path class="cls-1" d="M569.88,84.13V96.22h8.67v9.35h-8.67v25.14a5.81,5.81,0,0,0,1.18,4.1,4.25,4.25,0,0,0,3.2,1.24,20.79,20.79,0,0,0,2.39-.12,20.26,20.26,0,0,0,2.31-.39l1.14,9.63a29.68,29.68,0,0,1-9.17,1.37q-6.9,0-10.61-3.79t-3.72-12V105.57h-7.25V96.22h7.25V84.13Z"/><path class="cls-1" d="M403.21,168.43v8l-7.11,1.37v57H382.82L356,190.15l-.27,0V225.5l7.12,1.37v8H335.33v-8l7.07-1.37V177.83l-7.07-1.37v-8h20.39l26.83,44.71.27,0V177.83l-7.12-1.37v-8h27.51Z"/><path class="cls-1" d="M407.82,209.72q0-11,6.19-18.09t17.08-7q10.95,0,17.13,7t6.18,18.11v1q0,11.13-6.18,18.13t-17,7q-11,0-17.17-7t-6.19-18.13Zm13.33,1q0,6.75,2.37,10.83t7.66,4.08a8.09,8.09,0,0,0,7.55-4.1q2.4-4.11,2.4-10.81v-1A21.11,21.11,0,0,0,438.71,199a8.18,8.18,0,0,0-7.62-4.16,8.07,8.07,0,0,0-7.57,4.16,21.44,21.44,0,0,0-2.37,10.72Z"/><path class="cls-1" d="M461.2,226.87l6.39-1.37V194.89l-7.07-1.37v-8H480l.59,7.21a15.68,15.68,0,0,1,4.47-6,10,10,0,0,1,6.34-2.14,15.89,15.89,0,0,1,2.22.16,14.65,14.65,0,0,1,1.94.39l-1.42,12.13-5.47-.13a9.35,9.35,0,0,0-4.84,1.14,7.36,7.36,0,0,0-2.92,3.24v24l6.39,1.37v8H461.2Z"/><path class="cls-1" d="M570.65,193.52l-5,.64-10.31,40.7H544.24l-9.17-29.39h-.28l-9.17,29.39H514.54l-10.36-40.7-5-.64v-8h22.35v8l-5.25,1L521,217.11h.27l9.22-31.62h8.94l9.31,31.71H549l4.61-22.63-5.29-1v-8h22.35Z"/><path class="cls-1" d="M606.65,234.86a22.12,22.12,0,0,1-1-2.54,20,20,0,0,1-.64-2.62,18.26,18.26,0,0,1-5.77,4.43,17.35,17.35,0,0,1-7.78,1.68q-7.25,0-11.52-3.94t-4.26-10.75a12.22,12.22,0,0,1,5.56-10.72q5.57-3.78,16.34-3.78h6.79v-4.84a7.27,7.27,0,0,0-2-5.52q-2.05-2-6.07-2a14.39,14.39,0,0,0-4.06.52,10.58,10.58,0,0,0-2.87,1.26l-.87,5.29h-10l0-11a37.13,37.13,0,0,1,8.37-4.15,30.27,30.27,0,0,1,10.29-1.69q9.17,0,14.9,4.49t5.72,12.8v20.39c0,.76,0,1.48,0,2.15a16.56,16.56,0,0,0,.16,1.92l4.06.54v8ZM595.11,226a11.5,11.5,0,0,0,5.47-1.3,10.57,10.57,0,0,0,3.83-3.26v-7.53h-6.79q-4.25,0-6.44,2a6.24,6.24,0,0,0-2.19,4.77,5,5,0,0,0,1.62,3.93A6.63,6.63,0,0,0,595.11,226Z"/><path class="cls-1" d="M677,193.52l-4.6.69-18.16,48a26.45,26.45,0,0,1-5.73,8.94q-3.59,3.6-10.79,3.6a17.74,17.74,0,0,1-3.17-.27c-1-.18-2.15-.44-3.49-.78l1.55-9.71,1.33.18a9.16,9.16,0,0,0,1.18.09,7.32,7.32,0,0,0,5.11-1.62,10.61,10.61,0,0,0,2.74-4l1.51-3.74-15.65-40.65-4.61-.73v-8h24.18v8l-5.52.91,6.75,19.71.69,3.56.27.05,7.8-23.32-5.57-.91v-8H677Z"/></svg>